<svg width="455" height="543" viewBox="0 0 455 543" fill="none" xmlns="http://www.w3.org/2000/svg">
<rect x="0.68359" y="99.3054" width="330.21" height="463.743" transform="rotate(-17.3616 0.68359 99.3054)" fill="#16141F" stroke="#16141F" stroke-width="1.03514"/>
<path d="M240.943 475.401C256.318 485.763 280.579 475.108 290.789 468.485C290.284 463.406 285.074 452.285 268.268 448.438C251.463 444.591 230.606 453.892 222.279 459.024C222.094 460.165 225.568 465.039 240.943 475.401Z" fill="#FAF9F9" stroke="#16141F" stroke-width="1.03514"/>
<path d="M124.243 401.91C126.571 333.362 159.009 327.267 175.094 332.815C173.869 332.245 176.631 329.255 197.059 321.177C223.577 310.691 274.429 381.501 264.717 419.751C256.948 450.352 221.012 445.154 204.015 438.73C195.876 471.612 121.324 487.878 124.243 401.91Z" fill="#E84355" stroke="#16141F" stroke-width="1.03514"/>
<rect x="221.016" y="474.046" width="9.30627" height="44.4671" transform="rotate(162.638 221.016 474.046)" fill="#FAF9F9" stroke="#16141F" stroke-width="1.03514"/>
<path d="M218.963 52.3438C203.588 41.9816 179.326 52.6369 169.117 59.2599C169.621 64.3391 174.831 75.4593 191.637 79.3067C208.442 83.154 229.299 73.8523 237.627 68.7205C237.811 67.5792 234.338 62.706 218.963 52.3438Z" fill="#FAF9F9" stroke="#16141F" stroke-width="1.03514"/>
<path d="M335.663 125.835C333.335 194.383 300.897 200.477 284.811 194.929C286.037 195.5 283.274 198.49 262.846 206.568C236.328 217.053 185.477 146.243 195.188 107.993C202.957 77.3931 238.893 82.5911 255.89 89.0151C264.029 56.1323 338.582 39.8667 335.663 125.835Z" fill="#E84355" stroke="#16141F" stroke-width="1.03514"/>
<rect x="238.889" y="53.6989" width="9.30627" height="44.4671" transform="rotate(-17.3616 238.889 53.6989)" fill="#FAF9F9" stroke="#16141F" stroke-width="1.03514"/>
<path d="M82.5642 130.148C84.9584 180.012 100.615 276.342 144.086 262.751C198.425 245.762 314.025 253.003 289.577 299.69C265.13 346.377 245.049 256.131 288.52 242.539C323.297 231.667 365.559 353.661 382.343 416.018" stroke="#FAF9F9" stroke-width="4"/>
</svg>
