<svg width="401" height="454" viewBox="0 0 401 454" fill="none" xmlns="http://www.w3.org/2000/svg">
<rect x="195.589" y="0.926059" width="235.836" height="331.325" transform="rotate(30.2384 195.589 0.926059)" fill="#FAF9F9" stroke="#16141F" stroke-width="1.03514"/>
<path d="M284.925 180.059C287.767 184.189 296.421 187.79 300.392 189.074L300.184 177.957L271.443 167.045C268.675 172.19 254.901 187.367 221.951 206.921C189.001 226.476 147.761 220.832 131.26 215.566C130.578 214.367 128.351 213.802 124.903 221.139C121.456 228.476 125.653 229.135 128.183 228.548C258.8 316.714 281.373 174.895 284.925 180.059Z" fill="#E84355"/>
<path d="M300.144 175.872L300.184 177.957M300.184 177.957L300.392 189.074C296.421 187.79 287.767 184.189 284.925 180.059C281.373 174.895 258.8 316.714 128.183 228.548C125.653 229.135 121.456 228.476 124.903 221.139C128.351 213.802 130.578 214.367 131.26 215.566C147.761 220.832 189.001 226.476 221.951 206.921C254.901 187.367 268.675 172.19 271.443 167.045L300.184 177.957Z" stroke="#16141F" stroke-width="1.03514"/>
<path d="M123.55 183.613C120.599 179.56 111.852 176.193 107.847 175.016L108.354 186.124L137.376 196.261C140.006 191.044 153.368 175.503 185.782 155.072C218.195 134.641 259.572 139.177 276.208 143.999C276.922 145.18 279.163 145.685 282.413 138.258C285.663 130.831 281.45 130.284 278.937 130.939C146.002 46.3072 127.24 188.68 123.55 183.613Z" fill="#E84355"/>
<path d="M108.449 188.206L108.354 186.124M108.354 186.124L107.847 175.016C111.852 176.193 120.599 179.56 123.55 183.613C127.24 188.68 146.002 46.3072 278.937 130.939C281.45 130.284 285.663 130.831 282.413 138.258C279.163 145.685 276.922 145.18 276.208 143.999C259.572 139.177 218.195 134.641 185.782 155.072C153.368 175.503 140.006 191.044 137.376 196.261L108.354 186.124Z" stroke="#16141F" stroke-width="1.03514"/>
<path d="M92.6198 295.512C92.8286 290.502 88.0728 282.425 85.6687 279.013L79.1579 288.028L95.5829 314.014C100.886 311.563 121.015 307.702 159.104 311.858C197.193 316.014 226.776 345.296 236.806 359.418C236.631 360.787 238.072 362.575 245.236 358.78C252.399 354.985 249.44 351.937 247.064 350.887C195.586 201.944 92.3587 301.773 92.6198 295.512Z" fill="#E84355"/>
<path d="M77.9372 289.718L79.1579 288.028M79.1579 288.028L85.6687 279.013C88.0728 282.425 92.8286 290.502 92.6198 295.512C92.3587 301.773 195.586 201.944 247.064 350.887C249.44 351.937 252.399 354.985 245.236 358.78C238.072 362.575 236.631 360.787 236.806 359.418C226.776 345.296 197.193 316.014 159.104 311.858C121.015 307.702 100.886 311.563 95.5829 314.014L79.1579 288.028Z" stroke="#16141F" stroke-width="1.03514"/>
</svg>
