<svg width="1290" height="76" viewBox="0 0 1290 76" fill="none" xmlns="http://www.w3.org/2000/svg">
<path d="M20 74C31.5775 74 38.8273 63.4784 42 58L49 1H11L1 58C1.93698 63.4784 8.42254 74 20 74Z" fill="#16141F"/>
<path d="M837 74C848.577 74 855.827 63.4784 859 58H861L854 1H816V58H818C818.937 63.4784 825.422 74 837 74Z" fill="#FAF9F9"/>
<path fill-rule="evenodd" clip-rule="evenodd" d="M1289 58L1278 1H854H773H730H687H644H601H559H516H479H436H393H350H307H264H221H178H135H93H49H11V1H49L42 58H44C44.937 63.4784 51.4225 74 63 74C74.5775 74 81.8273 63.4784 85 58L93 1H135L128 58H130C130.937 63.4784 137.423 74 149 74C160.577 74 167.827 63.4784 171 58L178 1H221L214 58H216C216.937 63.4784 223.423 74 235 74C246.577 74 253.827 63.4784 257 58L264 1H307L300 58H302C302.937 63.4784 309.423 74 321 74C332.577 74 339.827 63.4784 343 58L350 1H393L386 58H387C387.937 63.4784 395.423 74 407 74C418.577 74 425.827 63.4784 429 58L436 1H479L472 58H474C474.937 63.4784 482.423 74 494 74C505.577 74 512.827 63.4784 516 58V1H559V58H560C560.937 63.4784 567.423 74 579 74C590.577 74 597.827 63.4784 601 58V1H644V58H646C646.937 63.4784 653.423 74 665 74C676.577 74 683.827 63.4784 687 58V1H730V58H732C732.937 63.4784 739.422 74 751 74C762.577 74 769.827 63.4784 773 58V1H816H854H897L904 58C904.937 63.4784 912.423 74 924 74C935.577 74 942.827 63.4784 946 58H947L940 1H983L990 58C990.937 63.4784 998.423 74 1010 74C1021.58 74 1028.83 63.4784 1032 58H1033L1026 1H1069L1076 58C1076.94 63.4784 1084.42 74 1096 74C1107.58 74 1113.83 63.4784 1117 58H1119L1112 1H1155L1162 58C1162.94 63.4784 1169.42 74 1181 74C1192.56 74 1199.82 63.4894 1203 58V58H1205L1198 1H1241L1248 58C1248.94 63.4784 1255.42 75 1267 75C1278.58 75 1285.83 63.4784 1289 58Z" fill="#FAF9F9"/>
<path d="M173 58C173.937 63.4784 180.423 74 192 74C203.577 74 210.827 63.4784 214 58L221 1H178L171 58H173Z" fill="#16141F"/>
<path d="M278 74C289.577 74 296.827 63.4784 300 58L307 1H264L257 58H259C259.937 63.4784 266.423 74 278 74Z" fill="#16141F"/>
<path d="M106 74C117.577 74 124.827 63.4784 128 58L135 1H93L85 58H87C87.937 63.4784 94.4225 74 106 74Z" fill="#16141F"/>
<path d="M344 58C344.937 63.4784 352.423 74 364 74C375.577 74 382.827 63.4784 386 58L393 1H350L343 58H344Z" fill="#16141F"/>
<path d="M431 58C431.937 63.4784 438.423 74 450 74C461.577 74 468.827 63.4784 472 58L479 1H436L429 58H431Z" fill="#16141F"/>
<path d="M537 74C548.577 74 555.827 63.4784 559 58V1H516V58H517C517.937 63.4784 525.423 74 537 74Z" fill="#16141F"/>
<path d="M603 58C603.937 63.4784 610.423 74 622 74C633.577 74 640.827 63.4784 644 58V1H601V58H603Z" fill="#16141F"/>
<path d="M708 74C719.577 74 726.827 63.4784 730 58V1H687V58H689C689.937 63.4784 696.423 74 708 74Z" fill="#16141F"/>
<path d="M775 58C775.937 63.4784 782.423 74 794 74C805.577 74 812.827 63.4784 816 58V1H773V58H775Z" fill="#16141F"/>
<path d="M861 58C861.937 63.4784 868.423 74 880 74C891.577 74 899.827 63.4784 903 58H904L897 1H854L861 58Z" fill="#16141F"/>
<path d="M967 74C978.577 74 985.827 63.4784 989 58H990L983 1H940L947 58C947.937 63.4784 955.423 74 967 74Z" fill="#16141F"/>
<path d="M1033 58C1033.94 63.4784 1041.42 74 1053 74C1064.58 74 1071.83 63.4784 1075 58H1076L1069 1H1026L1033 58Z" fill="#16141F"/>
<path d="M1139 74C1150.58 74 1156.83 63.4784 1160 58H1162L1155 1H1112L1119 58C1119.94 63.4784 1127.42 74 1139 74Z" fill="#16141F"/>
<path d="M1205 58C1205.94 63.4784 1212.42 74 1224 74C1235.58 74 1242.83 63.4784 1246 58H1248L1241 1H1198L1205 58Z" fill="#16141F"/>
<path d="M1289 58L1289.43 58.2506L1289.53 58.0888L1289.49 57.9053L1289 58ZM1278 1L1278.49 0.905257L1278.41 0.5H1278V1ZM1 58L0.507521 57.9136L0.492554 57.9989L0.507156 58.0843L1 58ZM87 58L87.4928 57.9157L87.4217 57.5H87V58ZM173 58L173.493 57.9157L173.422 57.5H173V58ZM259 58L259.493 57.9157L259.422 57.5H259V58ZM344 58L344.493 57.9157L344.422 57.5H344V58ZM44 58L44.4928 57.9157L44.4217 57.5H44V58ZM130 58L130.493 57.9157L130.422 57.5H130V58ZM216 58L216.493 57.9157L216.422 57.5H216V58ZM302 58L302.493 57.9157L302.422 57.5H302V58ZM387 58L387.493 57.9157L387.422 57.5H387V58ZM431 58L431.493 57.9157L431.422 57.5H431V58ZM517 58L517.493 57.9157L517.422 57.5H517V58ZM603 58L603.493 57.9157L603.422 57.5H603V58ZM689 58L689.493 57.9157L689.422 57.5H689V58ZM775 58L775.493 57.9157L775.422 57.5H775V58ZM474 58L474.493 57.9157L474.422 57.5H474V58ZM560 58L560.493 57.9157L560.422 57.5H560V58ZM646 58L646.493 57.9157L646.422 57.5H646V58ZM732 58L732.493 57.9157L732.422 57.5H732V58ZM859 58V57.5H858.712L858.567 57.7494L859 58ZM818 58L818.493 57.9157L818.422 57.5H818V58ZM903 58V57.5H902.712L902.567 57.7494L903 58ZM989 58V57.5H988.712L988.567 57.7494L989 58ZM1075 58V57.5H1074.71L1074.57 57.7494L1075 58ZM1160 58V57.5H1159.71L1159.57 57.7494L1160 58ZM1246 58V57.5H1245.71L1245.57 57.7494L1246 58ZM946 58V57.5H945.712L945.567 57.7494L946 58ZM1032 58V57.5H1031.71L1031.57 57.7494L1032 58ZM1117 58V57.5H1116.71L1116.57 57.7494L1117 58ZM1203 58V57.5H1202.71L1202.57 57.7494L1203 58ZM897 1L897.496 0.939054L897.442 0.5H897V1ZM940 1V0.5H939.435L939.504 1.06095L940 1ZM983 1L983.496 0.939054L983.442 0.5H983V1ZM1026 1V0.5H1025.43L1025.5 1.06095L1026 1ZM1069 1L1069.5 0.939054L1069.44 0.5H1069V1ZM1112 1V0.5H1111.43L1111.5 1.06095L1112 1ZM1155 1L1155.5 0.939054L1155.44 0.5H1155V1ZM1198 1V0.5H1197.43L1197.5 1.06095L1198 1ZM1203 58L1202.57 57.7494L1202.57 57.7494L1203 58ZM1289.49 57.9053L1278.49 0.905257L1277.51 1.09474L1288.51 58.0947L1289.49 57.9053ZM20 74.5C25.9515 74.5 30.7727 71.7932 34.4876 68.4248C38.1996 65.0591 40.8357 61.0081 42.4327 58.2506L41.5673 57.7494C39.9916 60.4703 37.4164 64.4193 33.8159 67.684C30.2183 70.946 25.6259 73.5 20 73.5V74.5ZM0.507156 58.0843C0.994271 60.9324 2.90181 65.0213 6.14929 68.4008C9.40723 71.7912 14.0464 74.5 20 74.5V73.5C14.3762 73.5 9.9838 70.948 6.87034 67.708C3.74643 64.4571 1.94271 60.546 1.49284 57.9157L0.507156 58.0843ZM106 74.5C111.952 74.5 116.773 71.7932 120.488 68.4248C124.2 65.0591 126.836 61.0081 128.433 58.2506L127.567 57.7494C125.992 60.4703 123.416 64.4193 119.816 67.684C116.218 70.946 111.626 73.5 106 73.5V74.5ZM86.5072 58.0843C86.9943 60.9324 88.9018 65.0213 92.1493 68.4008C95.4072 71.7912 100.046 74.5 106 74.5V73.5C100.376 73.5 95.9838 70.948 92.8703 67.708C89.7464 64.4571 87.9427 60.546 87.4928 57.9157L86.5072 58.0843ZM192 73.5C186.376 73.5 181.984 70.948 178.87 67.708C175.746 64.4571 173.943 60.546 173.493 57.9157L172.507 58.0843C172.994 60.9324 174.902 65.0213 178.149 68.4008C181.407 71.7912 186.046 74.5 192 74.5V73.5ZM213.567 57.7494C211.992 60.4703 209.416 64.4193 205.816 67.684C202.218 70.946 197.626 73.5 192 73.5V74.5C197.952 74.5 202.773 71.7932 206.488 68.4248C210.2 65.0591 212.836 61.0081 214.433 58.2506L213.567 57.7494ZM278 74.5C283.952 74.5 288.773 71.7932 292.488 68.4248C296.2 65.0591 298.836 61.0081 300.433 58.2506L299.567 57.7494C297.992 60.4703 295.416 64.4193 291.816 67.684C288.218 70.946 283.626 73.5 278 73.5V74.5ZM258.507 58.0843C258.994 60.9324 260.902 65.0213 264.149 68.4008C267.407 71.7912 272.046 74.5 278 74.5V73.5C272.376 73.5 267.984 70.948 264.87 67.708C261.746 64.4571 259.943 60.546 259.493 57.9157L258.507 58.0843ZM364 73.5C358.371 73.5 353.724 70.9436 350.357 67.6946C346.978 64.4341 344.939 60.5255 344.493 57.9157L343.507 58.0843C343.998 60.9528 346.17 65.0443 349.663 68.4142C353.167 71.7956 358.051 74.5 364 74.5V73.5ZM385.567 57.7494C383.992 60.4703 381.416 64.4193 377.816 67.684C374.218 70.946 369.626 73.5 364 73.5V74.5C369.952 74.5 374.773 71.7932 378.488 68.4248C382.2 65.0591 384.836 61.0081 386.433 58.2506L385.567 57.7494ZM63 74.5C68.9515 74.5 73.7727 71.7932 77.4876 68.4248C81.1996 65.0591 83.8357 61.0081 85.4327 58.2506L84.5673 57.7494C82.9916 60.4703 80.4164 64.4193 76.8159 67.684C73.2183 70.946 68.6259 73.5 63 73.5V74.5ZM43.5072 58.0843C43.9943 60.9324 45.9018 65.0213 49.1493 68.4008C52.4072 71.7912 57.0464 74.5 63 74.5V73.5C57.3762 73.5 52.9838 70.948 49.8703 67.708C46.7464 64.4571 44.9427 60.546 44.4928 57.9157L43.5072 58.0843ZM149 73.5C143.376 73.5 138.984 70.948 135.87 67.708C132.746 64.4571 130.943 60.546 130.493 57.9157L129.507 58.0843C129.994 60.9324 131.902 65.0213 135.149 68.4008C138.407 71.7912 143.046 74.5 149 74.5V73.5ZM170.567 57.7494C168.992 60.4703 166.416 64.4193 162.816 67.684C159.218 70.946 154.626 73.5 149 73.5V74.5C154.952 74.5 159.773 71.7932 163.488 68.4248C167.2 65.0591 169.836 61.0081 171.433 58.2506L170.567 57.7494ZM235 74.5C240.952 74.5 245.773 71.7932 249.488 68.4248C253.2 65.0591 255.836 61.0081 257.433 58.2506L256.567 57.7494C254.992 60.4703 252.416 64.4193 248.816 67.684C245.218 70.946 240.626 73.5 235 73.5V74.5ZM215.507 58.0843C215.994 60.9324 217.902 65.0213 221.149 68.4008C224.407 71.7912 229.046 74.5 235 74.5V73.5C229.376 73.5 224.984 70.948 221.87 67.708C218.746 64.4571 216.943 60.546 216.493 57.9157L215.507 58.0843ZM321 73.5C315.376 73.5 310.984 70.948 307.87 67.708C304.746 64.4571 302.943 60.546 302.493 57.9157L301.507 58.0843C301.994 60.9324 303.902 65.0213 307.149 68.4008C310.407 71.7912 315.046 74.5 321 74.5V73.5ZM342.567 57.7494C340.992 60.4703 338.416 64.4193 334.816 67.684C331.218 70.946 326.626 73.5 321 73.5V74.5C326.952 74.5 331.773 71.7932 335.488 68.4248C339.2 65.0591 341.836 61.0081 343.433 58.2506L342.567 57.7494ZM407 74.5C412.952 74.5 417.773 71.7932 421.488 68.4248C425.2 65.0591 427.836 61.0081 429.433 58.2506L428.567 57.7494C426.992 60.4703 424.416 64.4193 420.816 67.684C417.218 70.946 412.626 73.5 407 73.5V74.5ZM386.507 58.0843C386.998 60.9528 389.17 65.0443 392.663 68.4142C396.167 71.7956 401.051 74.5 407 74.5V73.5C401.371 73.5 396.724 70.9436 393.357 67.6946C389.978 64.4341 387.939 60.5255 387.493 57.9157L386.507 58.0843ZM450 73.5C444.376 73.5 439.984 70.948 436.87 67.708C433.746 64.4571 431.943 60.546 431.493 57.9157L430.507 58.0843C430.994 60.9324 432.902 65.0213 436.149 68.4008C439.407 71.7912 444.046 74.5 450 74.5V73.5ZM471.567 57.7494C469.992 60.4703 467.416 64.4193 463.816 67.684C460.218 70.946 455.626 73.5 450 73.5V74.5C455.952 74.5 460.773 71.7932 464.488 68.4248C468.2 65.0591 470.836 61.0081 472.433 58.2506L471.567 57.7494ZM537 74.5C542.952 74.5 547.773 71.7932 551.488 68.4248C555.2 65.0591 557.836 61.0081 559.433 58.2506L558.567 57.7494C556.992 60.4703 554.416 64.4193 550.816 67.684C547.218 70.946 542.626 73.5 537 73.5V74.5ZM516.507 58.0843C516.998 60.9528 519.17 65.0443 522.663 68.4142C526.167 71.7956 531.051 74.5 537 74.5V73.5C531.371 73.5 526.724 70.9436 523.357 67.6946C519.978 64.4341 517.939 60.5255 517.493 57.9157L516.507 58.0843ZM622 73.5C616.376 73.5 611.984 70.948 608.87 67.708C605.746 64.4571 603.943 60.546 603.493 57.9157L602.507 58.0843C602.994 60.9324 604.902 65.0213 608.149 68.4008C611.407 71.7912 616.046 74.5 622 74.5V73.5ZM643.567 57.7494C641.992 60.4703 639.416 64.4193 635.816 67.684C632.218 70.946 627.626 73.5 622 73.5V74.5C627.952 74.5 632.773 71.7932 636.488 68.4248C640.2 65.0591 642.836 61.0081 644.433 58.2506L643.567 57.7494ZM708 74.5C713.952 74.5 718.773 71.7932 722.488 68.4248C726.2 65.0591 728.836 61.0081 730.433 58.2506L729.567 57.7494C727.992 60.4703 725.416 64.4193 721.816 67.684C718.218 70.946 713.626 73.5 708 73.5V74.5ZM688.507 58.0843C688.994 60.9324 690.902 65.0213 694.149 68.4008C697.407 71.7912 702.046 74.5 708 74.5V73.5C702.376 73.5 697.984 70.948 694.87 67.708C691.746 64.4571 689.943 60.546 689.493 57.9157L688.507 58.0843ZM794 73.5C788.376 73.5 783.984 70.948 780.87 67.708C777.746 64.4571 775.943 60.546 775.493 57.9157L774.507 58.0843C774.994 60.9324 776.902 65.0213 780.149 68.4008C783.407 71.7912 788.046 74.5 794 74.5V73.5ZM815.567 57.7494C813.992 60.4703 811.416 64.4193 807.816 67.684C804.218 70.946 799.626 73.5 794 73.5V74.5C799.952 74.5 804.773 71.7932 808.488 68.4248C812.2 65.0591 814.836 61.0081 816.433 58.2506L815.567 57.7494ZM494 74.5C499.952 74.5 504.773 71.7932 508.488 68.4248C512.2 65.0591 514.836 61.0081 516.433 58.2506L515.567 57.7494C513.992 60.4703 511.416 64.4193 507.816 67.684C504.218 70.946 499.626 73.5 494 73.5V74.5ZM473.507 58.0843C473.998 60.9528 476.17 65.0443 479.663 68.4142C483.167 71.7956 488.051 74.5 494 74.5V73.5C488.371 73.5 483.724 70.9436 480.357 67.6946C476.978 64.4341 474.939 60.5255 474.493 57.9157L473.507 58.0843ZM579 73.5C573.376 73.5 568.984 70.948 565.87 67.708C562.746 64.4571 560.943 60.546 560.493 57.9157L559.507 58.0843C559.994 60.9324 561.902 65.0213 565.149 68.4008C568.407 71.7912 573.046 74.5 579 74.5V73.5ZM600.567 57.7494C598.992 60.4703 596.416 64.4193 592.816 67.684C589.218 70.946 584.626 73.5 579 73.5V74.5C584.952 74.5 589.773 71.7932 593.488 68.4248C597.2 65.0591 599.836 61.0081 601.433 58.2506L600.567 57.7494ZM665 74.5C670.952 74.5 675.773 71.7932 679.488 68.4248C683.2 65.0591 685.836 61.0081 687.433 58.2506L686.567 57.7494C684.992 60.4703 682.416 64.4193 678.816 67.684C675.218 70.946 670.626 73.5 665 73.5V74.5ZM645.507 58.0843C645.994 60.9324 647.902 65.0213 651.149 68.4008C654.407 71.7912 659.046 74.5 665 74.5V73.5C659.376 73.5 654.984 70.948 651.87 67.708C648.746 64.4571 646.943 60.546 646.493 57.9157L645.507 58.0843ZM751 73.5C745.376 73.5 740.984 70.948 737.87 67.708C734.746 64.4571 732.943 60.546 732.493 57.9157L731.507 58.0843C731.994 60.9324 733.902 65.0213 737.149 68.4008C740.407 71.7912 745.046 74.5 751 74.5V73.5ZM772.567 57.7494C770.992 60.4703 768.416 64.4193 764.816 67.684C761.218 70.946 756.626 73.5 751 73.5V74.5C756.952 74.5 761.773 71.7932 765.488 68.4248C769.2 65.0591 771.836 61.0081 773.433 58.2506L772.567 57.7494ZM837 74.5C842.952 74.5 847.773 71.7932 851.488 68.4248C855.2 65.0591 857.836 61.0081 859.433 58.2506L858.567 57.7494C856.992 60.4703 854.416 64.4193 850.816 67.684C847.218 70.946 842.626 73.5 837 73.5V74.5ZM817.507 58.0843C817.994 60.9324 819.902 65.0213 823.149 68.4008C826.407 71.7912 831.046 74.5 837 74.5V73.5C831.376 73.5 826.984 70.948 823.87 67.708C820.746 64.4571 818.943 60.546 818.493 57.9157L817.507 58.0843ZM880 73.5C874.376 73.5 869.984 70.948 866.87 67.708C863.746 64.4571 861.943 60.546 861.493 57.9157L860.507 58.0843C860.994 60.9324 862.902 65.0213 866.149 68.4008C869.407 71.7912 874.046 74.5 880 74.5V73.5ZM902.567 57.7494C901.001 60.4535 898.18 64.4044 894.328 67.6732C890.477 70.9417 885.631 73.5 880 73.5V74.5C885.947 74.5 891.014 71.7975 894.975 68.4356C898.936 65.074 901.826 61.0249 903.433 58.2506L902.567 57.7494ZM967 74.5C972.952 74.5 977.773 71.7932 981.488 68.4248C985.2 65.0591 987.836 61.0081 989.433 58.2506L988.567 57.7494C986.992 60.4703 984.416 64.4193 980.816 67.684C977.218 70.946 972.626 73.5 967 73.5V74.5ZM946.507 58.0843C946.998 60.9528 949.17 65.0443 952.663 68.4142C956.167 71.7956 961.051 74.5 967 74.5V73.5C961.371 73.5 956.724 70.9436 953.357 67.6946C949.978 64.4341 947.939 60.5255 947.493 57.9157L946.507 58.0843ZM1053 73.5C1047.37 73.5 1042.72 70.9436 1039.36 67.6946C1035.98 64.4341 1033.94 60.5255 1033.49 57.9157L1032.51 58.0843C1033 60.9528 1035.17 65.0443 1038.66 68.4142C1042.17 71.7956 1047.05 74.5 1053 74.5V73.5ZM1074.57 57.7494C1072.99 60.4703 1070.42 64.4193 1066.82 67.684C1063.22 70.946 1058.63 73.5 1053 73.5V74.5C1058.95 74.5 1063.77 71.7932 1067.49 68.4248C1071.2 65.0591 1073.84 61.0081 1075.43 58.2506L1074.57 57.7494ZM1139 74.5C1144.96 74.5 1149.53 71.7885 1153 68.4127C1156.46 65.0442 1158.85 60.9888 1160.43 58.2506L1159.57 57.7494C1157.98 60.4896 1155.65 64.4342 1152.3 67.6961C1148.96 70.9507 1144.62 73.5 1139 73.5V74.5ZM1118.51 58.0843C1119 60.9528 1121.17 65.0442 1124.66 68.4142C1128.17 71.7956 1133.05 74.5 1139 74.5V73.5C1133.37 73.5 1128.72 70.9436 1125.36 67.6946C1121.98 64.4341 1119.94 60.5255 1119.49 57.9157L1118.51 58.0843ZM1224 73.5C1218.38 73.5 1213.98 70.948 1210.87 67.708C1207.75 64.457 1205.94 60.546 1205.49 57.9157L1204.51 58.0843C1204.99 60.9324 1206.9 65.0213 1210.15 68.4008C1213.41 71.7912 1218.05 74.5 1224 74.5V73.5ZM1245.57 57.7494C1243.99 60.4703 1241.42 64.4193 1237.82 67.684C1234.22 70.946 1229.63 73.5 1224 73.5V74.5C1229.95 74.5 1234.77 71.7932 1238.49 68.4248C1242.2 65.0591 1244.84 61.0081 1246.43 58.2506L1245.57 57.7494ZM924 74.5C929.952 74.5 934.773 71.7932 938.488 68.4248C942.2 65.0591 944.836 61.0081 946.433 58.2506L945.567 57.7494C943.992 60.4703 941.416 64.4193 937.816 67.684C934.218 70.946 929.626 73.5 924 73.5V74.5ZM903.507 58.0843C903.998 60.9528 906.17 65.0443 909.663 68.4142C913.167 71.7956 918.051 74.5 924 74.5V73.5C918.371 73.5 913.724 70.9436 910.357 67.6946C906.978 64.4341 904.939 60.5255 904.493 57.9157L903.507 58.0843ZM1010 73.5C1004.37 73.5 999.724 70.9436 996.357 67.6946C992.978 64.4341 990.939 60.5255 990.493 57.9157L989.507 58.0843C989.998 60.9528 992.17 65.0443 995.663 68.4142C999.167 71.7956 1004.05 74.5 1010 74.5V73.5ZM1031.57 57.7494C1029.99 60.4703 1027.42 64.4193 1023.82 67.684C1020.22 70.946 1015.63 73.5 1010 73.5V74.5C1015.95 74.5 1020.77 71.7932 1024.49 68.4248C1028.2 65.0591 1030.84 61.0081 1032.43 58.2506L1031.57 57.7494ZM1096 74.5C1101.96 74.5 1106.53 71.7885 1110 68.4127C1113.46 65.0442 1115.85 60.9888 1117.43 58.2506L1116.57 57.7494C1114.98 60.4896 1112.65 64.4342 1109.3 67.6961C1105.96 70.9507 1101.62 73.5 1096 73.5V74.5ZM1075.51 58.0843C1076 60.9528 1078.17 65.0442 1081.66 68.4142C1085.17 71.7956 1090.05 74.5 1096 74.5V73.5C1090.37 73.5 1085.72 70.9436 1082.36 67.6946C1078.98 64.4341 1076.94 60.5255 1076.49 57.9157L1075.51 58.0843ZM1181 73.5C1175.38 73.5 1170.98 70.948 1167.87 67.708C1164.75 64.4571 1162.94 60.546 1162.49 57.9157L1161.51 58.0843C1161.99 60.9324 1163.9 65.0213 1167.15 68.4008C1170.41 71.7912 1175.05 74.5 1181 74.5V73.5ZM1267 75.5C1272.97 75.5 1277.79 72.5288 1281.5 68.9124C1285.21 65.2972 1287.84 60.9975 1289.43 58.2506L1288.57 57.7494C1286.99 60.4809 1284.41 64.6812 1280.8 68.1964C1277.2 71.7104 1272.61 74.5 1267 74.5V75.5ZM1247.51 58.0843C1247.99 60.9243 1249.89 65.2588 1253.14 68.8875C1256.39 72.5258 1261.03 75.5 1267 75.5V74.5C1261.39 74.5 1257 71.7134 1253.88 68.2212C1250.75 64.7196 1248.94 60.5541 1248.49 57.9157L1247.51 58.0843ZM42 58.5H44V57.5H42V58.5ZM85 58.5H87V57.5H85V58.5ZM128 58.5H130V57.5H128V58.5ZM171 58.5H173V57.5H171V58.5ZM214 58.5H216V57.5H214V58.5ZM257 58.5H259V57.5H257V58.5ZM300 58.5H302V57.5H300V58.5ZM343 58.5H344V57.5H343V58.5ZM386 58.5H387V57.5H386V58.5ZM429 58.5H431V57.5H429V58.5ZM472 58.5H474V57.5H472V58.5ZM516 58.5H517V57.5H516V58.5ZM559 58.5H560V57.5H559V58.5ZM601 58.5H603V57.5H601V58.5ZM644 58.5H646V57.5H644V58.5ZM687 58.5H689V57.5H687V58.5ZM730 58.5H732V57.5H730V58.5ZM773 58.5H775V57.5H773V58.5ZM816 58.5H818V57.5H816V58.5ZM859 58.5H861V57.5H859V58.5ZM903 58.5H904V57.5H903V58.5ZM946 58.5H947V57.5H946V58.5ZM989 58.5H990V57.5H989V58.5ZM1032 58.5H1033V57.5H1032V58.5ZM1075 58.5H1076V57.5H1075V58.5ZM1117 58.5H1119V57.5H1117V58.5ZM1160 58.5H1162V57.5H1160V58.5ZM1203 58.5H1205V57.5H1203V58.5ZM1246 58.5H1248V57.5H1246V58.5ZM1278 0.5H49V1.5H1278V0.5ZM49 0.5H11V1.5H49V0.5ZM816.5 58V1H815.5V58H816.5ZM904.496 57.9391L897.496 0.939054L896.504 1.06095L903.504 58.0609L904.496 57.9391ZM947.496 57.9391L940.496 0.939054L939.504 1.06095L946.504 58.0609L947.496 57.9391ZM990.496 57.9391L983.496 0.939054L982.504 1.06095L989.504 58.0609L990.496 57.9391ZM1033.5 57.9391L1026.5 0.939054L1025.5 1.06095L1032.5 58.0609L1033.5 57.9391ZM1076.5 57.9391L1069.5 0.939054L1068.5 1.06095L1075.5 58.0609L1076.5 57.9391ZM1119.5 57.9391L1112.5 0.939054L1111.5 1.06095L1118.5 58.0609L1119.5 57.9391ZM1162.5 57.9391L1155.5 0.939054L1154.5 1.06095L1161.5 58.0609L1162.5 57.9391ZM1205.5 57.9391L1198.5 0.939054L1197.5 1.06095L1204.5 58.0609L1205.5 57.9391ZM1248.5 57.9391L1241.5 0.939054L1240.5 1.06095L1247.5 58.0609L1248.5 57.9391ZM1241 1.5H1278V0.5H1241V1.5ZM10.5075 0.9136L0.507521 57.9136L1.49248 58.0864L11.4925 1.0864L10.5075 0.9136ZM1202.57 57.7494C1200.99 60.4755 1198.41 64.4246 1194.81 67.688C1191.21 70.9488 1186.62 73.5 1181 73.5V74.5C1186.94 74.5 1191.76 71.7959 1195.48 68.4291C1199.19 65.0648 1201.83 61.0139 1203.43 58.2506L1202.57 57.7494ZM49 1.5H93V0.5H49V1.5ZM93 1.5H135V0.5H93V1.5ZM135 1.5H178V0.5H135V1.5ZM178 1.5H221V0.5H178V1.5ZM221 1.5H264V0.5H221V1.5ZM264 1.5H307V0.5H264V1.5ZM307 1.5H350V0.5H307V1.5ZM350 1.5H393V0.5H350V1.5ZM393 1.5H436V0.5H393V1.5ZM436 1.5H479V0.5H436V1.5ZM479 1.5H516V0.5H479V1.5ZM516 1.5H559V0.5H516V1.5ZM559 1.5H601V0.5H559V1.5ZM601 1.5H644V0.5H601V1.5ZM644 1.5H687V0.5H644V1.5ZM687 1.5H730V0.5H687V1.5ZM730 1.5H773V0.5H730V1.5ZM773 1.5H854V0.5H773V1.5ZM854 1.5H1278V0.5H854V1.5ZM11 1.5H49V0.5H11V1.5ZM48.5037 0.939054L41.5037 57.9391L42.4963 58.0609L49.4963 1.06095L48.5037 0.939054ZM1202.57 57.7494C1202.57 57.7506 1202.57 57.7514 1202.57 57.7518C1202.57 57.752 1202.57 57.7521 1202.57 57.7522C1202.57 57.7522 1202.57 57.7522 1202.57 57.7522C1202.57 57.7522 1202.57 57.7522 1202.57 57.7521C1202.57 57.7521 1202.57 57.7521 1202.57 57.7521C1202.57 57.7521 1202.57 57.7509 1202.57 57.7498C1203.25 57.5707 1203.43 58.2532 1203.43 58.2532C1203.43 58.2533 1203.43 58.2533 1203.43 58.2533C1203.43 58.2533 1203.43 58.2533 1203.43 58.2533C1203.43 58.2533 1203.43 58.2533 1203.43 58.2533C1203.43 58.253 1203.43 58.2518 1203.43 58.2506C1203.43 58.2494 1203.43 58.2482 1203.43 58.2479C1203.43 58.2478 1203.43 58.2478 1203.43 58.2478C1203.43 58.2478 1203.43 58.2478 1203.43 58.2478C1203.43 58.2479 1203.43 58.2479 1203.43 58.2479C1203.43 58.2482 1202.75 58.4298 1202.57 57.7469C1202.57 57.7468 1202.57 57.7467 1202.57 57.7467C1202.57 57.7467 1202.57 57.7467 1202.57 57.7467C1202.57 57.7467 1202.57 57.7467 1202.57 57.7467C1202.57 57.7467 1202.57 57.7467 1202.57 57.7467C1202.57 57.7467 1202.57 57.7468 1202.57 57.7471C1202.57 57.7475 1202.57 57.7482 1202.57 57.7494L1203.43 58.2506C1203.43 58.2494 1203.43 58.2486 1203.43 58.2482C1203.43 58.248 1203.43 58.2479 1203.43 58.2478C1203.43 58.2478 1203.43 58.2478 1203.43 58.2478C1203.43 58.2478 1203.43 58.2478 1203.43 58.2478C1203.43 58.2478 1203.43 58.2477 1203.43 58.2477C1203.43 58.2477 1203.43 58.2476 1203.43 58.2475C1203.25 57.5646 1202.57 57.7463 1202.57 57.7465C1202.57 57.7465 1202.57 57.7466 1202.57 57.7466C1202.57 57.7466 1202.57 57.7466 1202.57 57.7466C1202.57 57.7466 1202.57 57.7467 1202.57 57.7467C1202.57 57.747 1202.57 57.7482 1202.57 57.7494C1202.57 57.7506 1202.57 57.7518 1202.57 57.7521C1202.57 57.7522 1202.57 57.7522 1202.57 57.7522C1202.57 57.7522 1202.57 57.7522 1202.57 57.7522C1202.57 57.7522 1202.57 57.7523 1202.57 57.7523C1202.57 57.7523 1202.75 58.4348 1203.43 58.2557C1203.43 58.2546 1203.43 58.2535 1203.43 58.2534C1203.43 58.2534 1203.43 58.2534 1203.43 58.2534C1203.43 58.2534 1203.43 58.2534 1203.43 58.2534C1203.43 58.2533 1203.43 58.2533 1203.43 58.2533C1203.43 58.2533 1203.43 58.2531 1203.43 58.2529C1203.43 58.2525 1203.43 58.2518 1203.43 58.2506L1202.57 57.7494ZM128.496 58.0609L135.496 1.06095L134.504 0.939054L127.504 57.9391L128.496 58.0609ZM135 0.5H93V1.5H135V0.5ZM92.5049 0.930506L84.5049 57.9305L85.4951 58.0695L93.4951 1.06949L92.5049 0.930506ZM93 0.5H49V1.5H93V0.5ZM171.496 58.0609L178.496 1.06095L177.504 0.939054L170.504 57.9391L171.496 58.0609ZM178 1.5H221V0.5H178V1.5ZM220.504 0.939054L213.504 57.9391L214.496 58.0609L221.496 1.06095L220.504 0.939054ZM178 0.5H135V1.5H178V0.5ZM300.496 58.0609L307.496 1.06095L306.504 0.939054L299.504 57.9391L300.496 58.0609ZM307 0.5H264V1.5H307V0.5ZM263.504 0.939054L256.504 57.9391L257.496 58.0609L264.496 1.06095L263.504 0.939054ZM264 0.5H221V1.5H264V0.5ZM343.496 58.0609L350.496 1.06095L349.504 0.939054L342.504 57.9391L343.496 58.0609ZM350 1.5H393V0.5H350V1.5ZM392.504 0.939054L385.504 57.9391L386.496 58.0609L393.496 1.06095L392.504 0.939054ZM350 0.5H307V1.5H350V0.5ZM472.496 58.0609L479.496 1.06095L478.504 0.939054L471.504 57.9391L472.496 58.0609ZM479 0.5H436V1.5H479V0.5ZM435.504 0.939054L428.504 57.9391L429.496 58.0609L436.496 1.06095L435.504 0.939054ZM436 0.5H393V1.5H436V0.5ZM516.5 58V1H515.5V58H516.5ZM516 1.5H559V0.5H516V1.5ZM558.5 1V58H559.5V1H558.5ZM516 0.5H479V1.5H516V0.5ZM644.5 58V1H643.5V58H644.5ZM644 0.5H601V1.5H644V0.5ZM600.5 1V58H601.5V1H600.5ZM601 0.5H559V1.5H601V0.5ZM687.5 58V1H686.5V58H687.5ZM687 1.5H730V0.5H687V1.5ZM729.5 1V58H730.5V1H729.5ZM687 0.5H644V1.5H687V0.5ZM816 0.5H773V1.5H816V0.5ZM772.5 1V58H773.5V1H772.5ZM773 0.5H730V1.5H773V0.5ZM816 1.5H854V0.5H816V1.5ZM854 1.5H897V0.5H854V1.5ZM1241 0.5H854V1.5H1241V0.5ZM854 0.5H773V1.5H854V0.5ZM861.496 57.9391L854.496 0.939054L853.504 1.06095L860.504 58.0609L861.496 57.9391ZM983 0.5H940V1.5H983V0.5ZM1026 1.5H1069V0.5H1026V1.5ZM1155 0.5H1112V1.5H1155V0.5ZM1198 1.5H1241V0.5H1198V1.5Z" fill="#16141F"/>
</svg>
