<svg width="1210" height="745" viewBox="0 0 1210 745" fill="none" xmlns="http://www.w3.org/2000/svg">
<path fill-rule="evenodd" clip-rule="evenodd" d="M0.537109 0.564941V744.429H1209.13V0.564941H0.537109ZM731.109 178.777H1171.72V547.017H729.632V178.777H731.109ZM519.42 209.792H680.894V648.923H562.812L559.789 264.929L519.42 209.792ZM31.0595 178.285H471.667V546.524H29.5826V178.285H31.0595Z" fill="#E84355"/>
<path d="M0.537109 744.429H0.0371094V744.929H0.537109V744.429ZM0.537109 0.564941V0.0649414H0.0371094V0.564941H0.537109ZM1209.13 744.429V744.929H1209.63V744.429H1209.13ZM1209.13 0.564941H1209.63V0.0649414H1209.13V0.564941ZM1171.72 178.777H1172.22V178.277H1171.72V178.777ZM1171.72 547.017V547.517H1172.22V547.017H1171.72ZM729.632 547.017H729.132V547.517H729.632V547.017ZM729.632 178.777V178.277H729.132V178.777H729.632ZM680.894 209.792H681.394V209.292H680.894V209.792ZM519.42 209.792V209.292H518.434L519.017 210.087L519.42 209.792ZM680.894 648.923V649.423H681.394V648.923H680.894ZM562.812 648.923L562.312 648.927L562.316 649.423H562.812V648.923ZM559.789 264.929L560.289 264.926L560.287 264.764L560.192 264.634L559.789 264.929ZM471.667 178.285H472.167V177.785H471.667V178.285ZM471.667 546.524V547.024H472.167V546.524H471.667ZM29.5826 546.524H29.0826V547.024H29.5826V546.524ZM29.5826 178.285V177.785H29.0826V178.285H29.5826ZM1.03711 744.429V0.564941H0.0371094V744.429H1.03711ZM1209.13 743.929H0.537109V744.929H1209.13V743.929ZM1208.63 0.564941V744.429H1209.63V0.564941H1208.63ZM0.537109 1.06494H1209.13V0.0649414H0.537109V1.06494ZM1171.72 178.277H731.109V179.277H1171.72V178.277ZM1172.22 547.017V178.777H1171.22V547.017H1172.22ZM729.632 547.517H1171.72V546.517H729.632V547.517ZM729.132 178.777V547.017H730.132V178.777H729.132ZM731.109 178.277H729.632V179.277H731.109V178.277ZM680.894 209.292H519.42V210.292H680.894V209.292ZM681.394 648.923V209.792H680.394V648.923H681.394ZM562.812 649.423H680.894V648.423H562.812V649.423ZM559.289 264.933L562.312 648.927L563.312 648.919L560.289 264.926L559.289 264.933ZM519.017 210.087L559.385 265.225L560.192 264.634L519.824 209.497L519.017 210.087ZM471.667 177.785H31.0595V178.785H471.667V177.785ZM472.167 546.524V178.285H471.167V546.524H472.167ZM29.5826 547.024H471.667V546.024H29.5826V547.024ZM29.0826 178.285V546.524H30.0826V178.285H29.0826ZM31.0595 177.785H29.5826V178.785H31.0595V177.785Z" fill="#16141F"/>
<path d="M519.42 721.291H680.894V648.923H562.812L563.235 702.583L519.42 721.291Z" fill="#16141F" stroke="#16141F" stroke-width="0.984598"/>
</svg>
