<svg width="101" height="69" viewBox="0 0 101 69" fill="none" xmlns="http://www.w3.org/2000/svg">
<path d="M37.4202 16.8092C42.343 16.8092 53.1735 16.2185 57.1121 13.8554C59.0579 12.6881 59.1581 10.4442 58.203 8.15708C56.7414 4.65706 52.8082 1.05566 49.2354 1.05566C46.4884 1.05566 43.6084 4.6037 41.2914 8.60643C39.622 11.4903 38.2448 14.6102 37.4202 16.8092Z" fill="#FAF9F9"/>
<path d="M75.8953 25.6706C76.5265 26.8193 78.6748 28.4275 82.2194 25.6706C83.5048 24.6708 84.8837 23.7539 86.1561 22.9079C89.2694 20.8377 91.7448 19.1917 90.6516 17.7938C89.6919 17.1725 88.5177 16.4904 87.1424 15.7842C84.335 14.9642 77.7677 20.5237 74.8349 23.4059C75.4919 24.0739 75.8862 24.8463 75.8953 25.6706Z" fill="#FAF9F9"/>
<path d="M64.0043 25.6706C63.9079 26.4421 63.6587 27.0936 63.2856 27.6398C67.1354 28.5748 75.0318 29.6227 75.8195 26.3346C75.8732 26.1103 75.8978 25.8887 75.8953 25.6706C75.8862 24.8463 75.4919 24.0739 74.8349 23.4059C72.4815 21.0133 66.7568 19.9614 63.2856 22.6699C63.8853 23.3788 64.1684 24.3583 64.0043 25.6706Z" fill="#FAF9F9"/>
<path d="M47.2662 27.1475C47.2236 27.7439 47.0769 28.2317 46.8434 28.6244C51.5754 30.0645 60.6115 31.5551 63.2856 27.6398C63.6587 27.0936 63.9079 26.4421 64.0043 25.6706C64.1684 24.3583 63.8853 23.3788 63.2856 22.6699C60.2858 19.1241 49.3631 22.3469 46.8434 24.5291C47.1826 25.2483 47.3399 26.1151 47.2662 27.1475Z" fill="#FAF9F9"/>
<path d="M32.5172 23.2091C33.4622 24.3639 33.7084 25.5274 32.9895 26.3346C37.0873 28.6252 44.9181 31.8622 46.8434 28.6244C47.0769 28.2317 47.2236 27.7439 47.2662 27.1475C47.3399 26.1151 47.1826 25.2483 46.8434 24.5291C44.9187 20.447 37.1383 21.1164 32.5172 23.2091Z" fill="#FAF9F9"/>
<path d="M20.1897 21.9395C22.1589 24.1678 27.1804 28.329 31.5126 27.1475C32.1961 26.9611 32.6814 26.6806 32.9895 26.3346C33.7084 25.5274 33.4622 24.3639 32.5172 23.2091C30.6588 20.9381 26.0981 18.7004 20.8614 19.2707C21.2594 20.3178 20.9773 21.2889 20.1897 21.9395Z" fill="#FAF9F9"/>
<path d="M10.3437 17.4689C11.6565 19.3823 15.0698 23.1107 18.2205 22.7168C19.039 22.6145 19.7087 22.3368 20.1897 21.9395C20.9773 21.2889 21.2594 20.3178 20.8614 19.2707C20.3327 17.88 18.6042 16.3555 15.2667 15.2709C13.381 16.0359 11.7283 16.7835 10.3437 17.4689Z" fill="#FAF9F9"/>
<path d="M17.7282 52.2548C13.396 51.0732 9.35889 54.7163 7.88187 56.6855C11.1887 57.4791 16.4681 58.5926 22.6242 59.6392C22.7973 57.6701 22.0604 53.4363 17.7282 52.2548Z" fill="#FAF9F9"/>
<path d="M32.0049 55.1275C27.2788 55.1275 25.4409 58.4095 25.1127 60.0505C25.2181 60.0674 25.3238 60.0843 25.4296 60.1012C29.5556 60.7583 33.9789 61.3635 38.4048 61.813C38.2407 59.4474 36.731 55.1275 32.0049 55.1275Z" fill="#FAF9F9"/>
<path d="M7.88187 37.7319V56.6855C9.35889 54.7163 13.396 51.0732 17.7282 52.2548C22.0604 53.4363 22.7973 57.6701 22.6242 59.6392C23.4392 59.7778 24.2695 59.9152 25.1127 60.0505C25.4409 58.4095 27.2788 55.1275 32.0049 55.1275C36.731 55.1275 38.2407 59.4474 38.4048 61.813C39.2258 61.8963 40.0469 61.9743 40.8663 62.0463C39.8817 59.9312 39.4878 55.7009 45.7893 55.7009C52.0907 55.7009 53.666 60.2881 53.666 62.5817C54.4838 62.5694 55.3048 62.547 56.1275 62.5154C54.8147 60.2439 53.5676 55.5039 59.0813 54.7163C64.5951 53.9286 67.6145 58.8755 68.435 61.4475C69.4314 61.3182 70.4171 61.1809 71.3888 61.0372C70.4042 59.0943 69.5181 55.0116 73.8503 54.224C78.1825 53.4363 81.2348 57.1438 82.2194 59.096C82.8957 58.9537 83.5528 58.8114 84.1886 58.67C82.7117 57.0239 80.4471 53.4363 83.204 52.2548C86.6501 50.7779 92.065 49.301 92.065 56.6855V37.7319C89.7017 38.3227 86.8139 33.8756 85.6655 31.5782C85.5014 34.2038 84.3855 40.4396 81.2348 44.378C78.0841 48.3164 74.0144 40.4396 72.3734 36.0089C72.3734 38.4704 71.2904 43.9841 66.9581 46.3472C62.6259 48.7102 58.589 40.4396 57.1121 36.0089C56.7839 39.7832 54.4537 47.5287 47.7585 48.3164C41.0632 49.104 38.0766 39.7832 37.4202 35.0243C37.2336 35.0243 37.1924 35.3278 37.1135 35.9091C36.9267 37.2865 36.5283 40.2236 33.4818 44.378C29.1496 50.2856 22.8153 39.6191 20.1897 33.5474C13.4944 46.9379 9.19479 41.9165 7.88187 37.7319Z" fill="#FAF9F9"/>
<path d="M40.8663 62.0463C44.7472 62.3873 48.588 62.593 52.1888 62.593C52.6797 62.593 53.1723 62.5892 53.666 62.5817C53.666 60.2881 52.0907 55.7009 45.7893 55.7009C39.4878 55.7009 39.8817 59.9312 40.8663 62.0463Z" fill="#FAF9F9"/>
<path d="M59.0813 54.7163C53.5676 55.5039 54.8147 60.2439 56.1275 62.5154C60.2597 62.3569 64.4336 61.9666 68.435 61.4475C67.6145 58.8755 64.5951 53.9286 59.0813 54.7163Z" fill="#FAF9F9"/>
<path d="M73.8503 54.224C69.5181 55.0116 70.4042 59.0943 71.3888 61.0372C75.2975 60.4593 78.9795 59.7777 82.2194 59.096C81.2348 57.1438 78.1825 53.4363 73.8503 54.224Z" fill="#FAF9F9"/>
<path d="M84.1886 58.67C87.4686 57.9406 90.1838 57.2361 92.065 56.6855C92.065 49.301 86.6501 50.7779 83.204 52.2548C80.4471 53.4363 82.7117 57.0239 84.1886 58.67Z" fill="#FAF9F9"/>
<path fill-rule="evenodd" clip-rule="evenodd" d="M92.065 37.7319V18.7784C91.6634 18.4738 91.1915 18.1434 90.6516 17.7938C91.7448 19.1917 89.2694 20.8377 86.1561 22.9079C84.8837 23.7539 83.5048 24.6708 82.2194 25.6706C78.6748 28.4275 76.5265 26.8193 75.8953 25.6706C75.8978 25.8887 75.8732 26.1103 75.8195 26.3346C75.0318 29.6227 67.1354 28.5748 63.2856 27.6398C60.6115 31.5551 51.5754 30.0645 46.8434 28.6244C44.9181 31.8622 37.0873 28.6252 32.9895 26.3346C32.6814 26.6806 32.1961 26.9611 31.5126 27.1475C27.1804 28.329 22.1589 24.1678 20.1897 21.9395C19.7087 22.3368 19.039 22.6145 18.2205 22.7168C15.0698 23.1107 11.6565 19.3823 10.3437 17.4689C9.39295 17.9395 8.56856 18.3809 7.88187 18.7784V37.7319C9.19479 41.9165 13.4944 46.9379 20.1897 33.5474C22.8153 39.6191 29.1496 50.2856 33.4818 44.378C36.5283 40.2236 36.9267 37.2865 37.1135 35.9091C37.1924 35.3278 37.2336 35.0243 37.4202 35.0243C38.0766 39.7832 41.0632 49.104 47.7585 48.3164C54.4537 47.5287 56.7839 39.7832 57.1121 36.0089C58.589 40.4396 62.6259 48.7102 66.9581 46.3472C71.2904 43.9841 72.3734 38.4704 72.3734 36.0089C74.0144 40.4396 78.0841 48.3164 81.2348 44.378C84.3855 40.4396 85.5014 34.2038 85.6655 31.5782C86.8139 33.8756 89.7017 38.3227 92.065 37.7319ZM87.1424 15.7842C84.335 14.9642 77.7677 20.5237 74.8349 23.4059C72.4815 21.0133 66.7568 19.9614 63.2856 22.6699C60.2858 19.1241 49.3631 22.3469 46.8434 24.5291C44.9187 20.447 37.1383 21.1164 32.5172 23.2091C30.6588 20.9381 26.0981 18.7004 20.8614 19.2707C20.3327 17.88 18.6042 16.3555 15.2667 15.2709C21.6942 12.6632 30.83 9.85223 41.2914 8.60643C39.622 11.4903 38.2448 14.6102 37.4202 16.8092C42.343 16.8092 53.1735 16.2185 57.1121 13.8554C59.0579 12.6881 59.1581 10.4442 58.203 8.15708C71.0061 9.05203 81.0479 12.6549 87.1424 15.7842Z" fill="#FAF9F9"/>
<path d="M7.88187 56.6855C3.77938 57.67 -2.85025 61.3131 3.45118 68.0083H95.0192C97.8089 66.5314 102.404 62.79 98.4653 59.6392C94.5269 56.4885 92.5574 56.3573 92.065 56.6855C90.1838 57.2361 87.4686 57.9406 84.1886 58.67C83.5528 58.8114 82.8957 58.9537 82.2194 59.096C78.9795 59.7777 75.2975 60.4593 71.3888 61.0372C70.4171 61.1809 69.4314 61.3182 68.435 61.4475C64.4336 61.9666 60.2597 62.3569 56.1275 62.5154C55.3048 62.547 54.4838 62.5694 53.666 62.5817C53.1723 62.5892 52.6797 62.593 52.1888 62.593C48.588 62.593 44.7472 62.3873 40.8663 62.0463C40.0469 61.9743 39.2258 61.8963 38.4048 61.813C33.9789 61.3635 29.5556 60.7583 25.4296 60.1012C25.3238 60.0843 25.2181 60.0674 25.1127 60.0505C24.2695 59.9152 23.4392 59.7778 22.6242 59.6392C16.4681 58.5926 11.1887 57.4791 7.88187 56.6855Z" fill="#FAF9F9"/>
<path d="M7.88187 18.7784L7.63521 18.3524L7.38957 18.4946V18.7784H7.88187ZM92.065 18.7784H92.5573V18.534L92.3625 18.3862L92.065 18.7784ZM92.065 56.6855L92.2033 57.1579L92.2755 57.1368L92.338 57.0951L92.065 56.6855ZM3.45118 68.0083L3.09269 68.3457L3.23847 68.5006H3.45118V68.0083ZM95.0192 68.0083V68.5006H95.1414L95.2495 68.4434L95.0192 68.0083ZM20.1897 33.5474L20.6416 33.352L20.2221 32.3819L19.7494 33.3272L20.1897 33.5474ZM33.4818 44.378L33.0848 44.0869L33.4818 44.378ZM37.4202 35.0243L37.9079 34.957L37.8492 34.532H37.4202V35.0243ZM57.1121 36.0089L57.5792 35.8532L56.6217 35.9662L57.1121 36.0089ZM72.3734 36.0089L72.8351 35.8379L71.8811 36.0089H72.3734ZM85.6655 31.5782L86.1058 31.3581L85.2882 29.7225L85.1741 31.5475L85.6655 31.5782ZM22.6242 59.6392L22.5417 60.1246L22.6242 59.6392ZM56.1275 62.5154L56.1464 63.0074L56.1275 62.5154ZM71.3888 61.0372L71.4608 61.5242L71.3888 61.0372ZM83.204 52.2548L83.0101 51.8023L83.204 52.2548ZM37.4202 16.8092L36.9592 16.6364L36.7098 17.3015H37.4202V16.8092ZM57.1121 13.8554L56.8589 13.4333L57.1121 13.8554ZM15.2667 15.2709L15.0816 14.8147L15.2667 15.2709ZM20.1897 21.9395L19.8762 21.5599L20.1897 21.9395ZM31.5126 27.1475L31.6421 27.6225L31.5126 27.1475ZM20.8614 19.2707L20.4012 19.4457L20.8614 19.2707ZM47.2662 27.1475L47.7572 27.1826L47.2662 27.1475ZM32.5172 23.2091L32.1362 23.5209L32.5172 23.2091ZM46.8434 28.6244L46.4203 28.3728L46.8434 28.6244ZM46.8434 24.5291L46.3982 24.739L46.8434 24.5291ZM75.8195 26.3346L75.3408 26.22L75.8195 26.3346ZM82.2194 25.6706L81.9172 25.282H81.9171L82.2194 25.6706ZM74.8349 23.4059L74.4839 23.7511L74.8349 23.4059ZM87.1424 15.7842L87.3672 15.3463L87.1424 15.7842ZM41.2914 8.60643L41.7174 8.85306L41.2914 8.60643ZM86.1561 22.9079L85.8835 22.4979V22.4979L86.1561 22.9079ZM37.1135 35.9091L37.6014 35.9752V35.9752L37.1135 35.9091ZM25.4296 60.1012L25.507 59.615H25.507L25.4296 60.1012ZM7.76698 56.2067C5.67716 56.7083 2.85523 57.902 1.36914 59.9128C0.611146 60.9385 0.198341 62.1823 0.421615 63.6282C0.642514 65.0586 1.47696 66.629 3.09269 68.3457L3.80967 67.6709C2.27468 66.04 1.5748 64.6443 1.39468 63.4779C1.21694 62.3269 1.53642 61.3431 2.16097 60.498C3.43996 58.7674 5.98409 57.6472 7.99676 57.1642L7.76698 56.2067ZM3.45118 68.5006H95.0192V67.516H3.45118V68.5006ZM95.2495 68.4434C96.6751 67.6887 98.6044 66.3368 99.6754 64.7238C100.215 63.9111 100.565 62.9891 100.471 62.0208C100.375 61.04 99.8335 60.1034 98.7728 59.2548L98.1577 60.0237C99.0662 60.7505 99.4271 61.463 99.4906 62.1161C99.5554 62.7816 99.3206 63.478 98.8551 64.1792C97.9159 65.5938 96.1529 66.8511 94.7888 67.5732L95.2495 68.4434ZM98.7728 59.2548C96.7787 57.6595 95.2555 56.8058 94.1432 56.3958C93.5869 56.1908 93.1212 56.0922 92.7429 56.0737C92.378 56.0559 92.0399 56.1105 91.792 56.2758L92.338 57.0951C92.3363 57.0963 92.429 57.0442 92.695 57.0572C92.9475 57.0695 93.3126 57.1391 93.8026 57.3197C94.7827 57.681 96.2134 58.4682 98.1577 60.0237L98.7728 59.2548ZM8.37417 56.6855V37.7319H7.38957V56.6855H8.37417ZM8.37417 37.7319V18.7784H7.38957V37.7319H8.37417ZM7.41215 37.8793C7.75275 38.9649 8.2924 40.1249 9.03564 41.0374C9.7783 41.9492 10.7653 42.6601 11.9926 42.722C13.2202 42.7839 14.5532 42.1895 15.9724 40.7893C17.3919 39.3888 18.9446 37.1385 20.63 33.7676L19.7494 33.3272C18.0872 36.6516 16.5918 38.795 15.2809 40.0884C13.9699 41.3819 12.8906 41.7814 12.0422 41.7386C11.1936 41.6959 10.441 41.2038 9.79904 40.4156C9.1576 39.6281 8.66745 38.5913 8.35159 37.5846L7.41215 37.8793ZM19.7379 33.7428C21.059 36.7979 23.3248 41.0404 25.8322 43.7868C27.0782 45.1516 28.4455 46.2164 29.8442 46.5134C30.5577 46.6648 31.2771 46.6156 31.9734 46.3081C32.6644 46.003 33.3003 45.4579 33.8788 44.6691L33.0848 44.0869C32.5802 44.7749 32.0705 45.1889 31.5756 45.4074C31.086 45.6236 30.5793 45.6629 30.0487 45.5502C28.9592 45.319 27.7666 44.4454 26.5593 43.123C24.1602 40.4952 21.9461 36.3686 20.6416 33.352L19.7379 33.7428ZM36.9325 35.0916C37.2663 37.512 38.1917 41.1002 39.9006 44.0002C41.6054 46.8934 44.1798 49.2331 47.816 48.8053L47.7009 47.8274C44.6418 48.1873 42.3753 46.2604 40.7489 43.5004C39.1265 40.7472 38.2304 37.2955 37.9079 34.957L36.9325 35.0916ZM47.816 48.8053C51.368 48.3874 53.7398 46.1195 55.2483 43.5305C56.7531 40.9478 57.4337 37.9941 57.6026 36.0515L56.6217 35.9662C56.4624 37.798 55.8138 40.6041 54.3976 43.0348C52.9851 45.459 50.8442 47.4576 47.7009 47.8274L47.816 48.8053ZM56.6451 36.1646C57.3923 38.4063 58.7911 41.6358 60.5698 44.0201C61.4573 45.2097 62.4687 46.2291 63.5772 46.7909C64.711 47.3656 65.9486 47.4586 67.1939 46.7794L66.7224 45.915C65.8015 46.4173 64.9099 46.3626 64.0223 45.9127C63.1092 45.4499 62.2068 44.5678 61.359 43.4313C59.667 41.1633 58.3088 38.0422 57.5792 35.8532L56.6451 36.1646ZM67.1939 46.7794C69.4903 45.5268 70.9064 43.4496 71.7459 41.4017C72.5846 39.3557 72.8657 37.2978 72.8657 36.0089H71.8811C71.8811 37.1815 71.6207 39.1112 70.8348 41.0282C70.0498 42.9433 68.7582 44.8046 66.7224 45.915L67.1939 46.7794ZM71.9118 36.1799C72.7392 38.414 74.1885 41.5476 75.8528 43.6384C76.6768 44.6737 77.6112 45.5281 78.6109 45.8266C79.1257 45.9803 79.6594 45.9866 80.1865 45.7929C80.708 45.6013 81.1852 45.228 81.6192 44.6855L80.8504 44.0704C80.4967 44.5126 80.1575 44.7546 79.8469 44.8688C79.542 44.9808 79.228 44.9833 78.8926 44.8832C78.1918 44.6739 77.4155 44.0207 76.6231 43.0253C75.0546 41.0546 73.6486 38.0345 72.8351 35.8379L71.9118 36.1799ZM81.6192 44.6855C83.2507 42.6462 84.3403 40.0345 85.0428 37.6235C85.7463 35.2089 86.0725 32.9577 86.1568 31.6089L85.1741 31.5475C85.0943 32.8243 84.7805 35.0038 84.0975 37.3481C83.4133 39.696 82.3696 42.1714 80.8504 44.0704L81.6192 44.6855ZM91.5727 18.7784V37.7319H92.5573V18.7784H91.5727ZM91.5727 37.7319V56.6855H92.5573V37.7319H91.5727ZM85.2251 31.7983C85.8115 32.9714 86.8424 34.6963 88.0394 36.0625C88.6371 36.7448 89.2947 37.3591 89.9777 37.7657C90.6595 38.1716 91.4197 38.4007 92.1844 38.2095L91.9456 37.2543C91.5286 37.3586 91.0417 37.2533 90.4814 36.9197C89.9224 36.5869 89.3432 36.0566 88.78 35.4137C87.6551 34.1297 86.6679 32.4824 86.1058 31.3581L85.2251 31.7983ZM8.2757 56.9808C8.98109 56.0404 10.312 54.6852 11.9818 53.7142C13.6506 52.7437 15.6043 52.1858 17.5987 52.7297L17.8577 51.7798C15.5199 51.1422 13.289 51.815 11.4869 52.863C9.68581 53.9104 8.25967 55.3613 7.48804 56.3901L8.2757 56.9808ZM22.7067 59.1539C16.5605 58.109 11.2919 56.9976 7.99676 56.2067L7.76698 57.1642C11.0855 57.9606 16.3758 59.0763 22.5417 60.1246L22.7067 59.1539ZM17.5987 52.7297C19.6086 53.2779 20.7715 54.5231 21.4227 55.8664C22.082 57.2263 22.2138 58.6855 22.1338 59.5961L23.1146 59.6824C23.2077 58.6238 23.0576 56.9815 22.3087 55.4369C21.5517 53.8756 20.1801 52.4132 17.8577 51.7798L17.5987 52.7297ZM25.5954 60.1471C25.8893 58.6775 27.5685 55.6198 32.0049 55.6198V54.6352C26.9891 54.6352 24.9925 58.1415 24.63 59.954L25.5954 60.1471ZM32.0049 55.6198C34.1905 55.6198 35.608 56.6073 36.5158 57.8705C37.4385 59.1544 37.8363 60.7313 37.9137 61.847L38.8959 61.7789C38.8092 60.529 38.37 58.7633 37.3153 57.2958C36.2458 55.8077 34.5453 54.6352 32.0049 54.6352V55.6198ZM52.1888 62.1007C48.606 62.1007 44.78 61.896 40.9094 61.5559L40.8232 62.5367C44.7145 62.8786 48.5701 63.0853 52.1888 63.0853V62.1007ZM40.9094 61.5559C40.0923 61.4841 39.2734 61.4063 38.4545 61.3232L38.355 62.3027C39.1782 62.3863 40.0015 62.4646 40.8232 62.5367L40.9094 61.5559ZM41.3126 61.8386C40.8476 60.8396 40.561 59.4116 41.0481 58.2742C41.5062 57.2044 42.7445 56.1932 45.7893 56.1932V55.2086C42.5326 55.2086 40.8171 56.3124 40.143 57.8866C39.4978 59.3932 39.9004 61.1379 40.42 62.2541L41.3126 61.8386ZM53.6586 62.0895C53.1672 62.0969 52.6772 62.1007 52.1888 62.1007V63.0853C52.6823 63.0853 53.1773 63.0815 53.6735 63.074L53.6586 62.0895ZM45.7893 56.1932C48.8058 56.1932 50.6307 57.2838 51.7108 58.5943C52.8075 59.9249 53.1737 61.5285 53.1737 62.5817H54.1583C54.1583 61.3414 53.7369 59.5045 52.4706 57.9681C51.1877 56.4116 49.0742 55.2086 45.7893 55.2086V56.1932ZM56.1087 62.0235C55.2896 62.0549 54.4723 62.0772 53.6586 62.0895L53.6735 63.074C54.4952 63.0616 55.3201 63.0391 56.1464 63.0074L56.1087 62.0235ZM56.5538 62.2691C55.9226 61.177 55.34 59.5384 55.5323 58.1258C55.6262 57.4357 55.9027 56.8097 56.4435 56.309C56.9886 55.8043 57.8416 55.3907 59.151 55.2036L59.0117 54.2289C57.5642 54.4357 56.5054 54.9099 55.7746 55.5865C55.0396 56.2671 54.6761 57.1157 54.5567 57.993C54.3223 59.7152 55.0197 61.5824 55.7013 62.7618L56.5538 62.2691ZM68.3717 60.9593C64.3819 61.4769 60.2231 61.8657 56.1087 62.0235L56.1464 63.0074C60.2963 62.8482 64.4853 62.4563 68.4984 61.9357L68.3717 60.9593ZM59.151 55.2036C61.7288 54.8353 63.718 55.7999 65.1802 57.18C66.6549 58.5719 67.5759 60.3743 67.966 61.5971L68.904 61.2978C68.4736 59.9487 67.4747 57.9917 65.8561 56.464C64.225 54.9245 61.9476 53.8095 59.0117 54.2289L59.151 55.2036ZM71.3168 60.5502C70.3479 60.6935 69.3651 60.8304 68.3717 60.9593L68.4984 61.9357C69.4978 61.806 70.4864 61.6683 71.4608 61.5242L71.3168 60.5502ZM71.8279 60.8147C71.3597 59.8907 70.9362 58.4906 71.113 57.2678C71.1996 56.6684 71.4278 56.1265 71.8521 55.6913C72.2767 55.2558 72.9329 54.8911 73.9384 54.7083L73.7622 53.7396C72.6016 53.9506 71.744 54.3917 71.1471 55.0039C70.5499 55.6165 70.2488 56.3644 70.1385 57.1269C69.9215 58.6281 70.4333 60.2408 70.9497 61.2598L71.8279 60.8147ZM82.118 58.6143C78.8868 59.2942 75.2146 59.9739 71.3168 60.5502L71.4608 61.5242C75.3804 60.9447 79.0723 60.2613 82.3208 59.5778L82.118 58.6143ZM73.9384 54.7083C75.9343 54.3454 77.6442 55.0118 78.9945 56.0261C80.3525 57.0462 81.3161 58.3982 81.7798 59.3177L82.659 58.8743C82.1381 57.8416 81.0833 56.3637 79.5859 55.2389C78.0809 54.1084 76.0986 53.3148 73.7622 53.7396L73.9384 54.7083ZM91.9267 56.213C90.0577 56.76 87.3533 57.4619 84.0817 58.1894L84.2954 59.1506C87.5839 58.4193 90.3098 57.7121 92.2033 57.1579L91.9267 56.213ZM84.0817 58.1894C83.4477 58.3304 82.7925 58.4723 82.118 58.6143L82.3208 59.5778C82.9989 59.4351 83.6578 59.2923 84.2954 59.1506L84.0817 58.1894ZM84.555 58.3412C83.8381 57.5422 82.9528 56.2936 82.5768 55.1361C82.3891 54.5582 82.346 54.0564 82.4601 53.6605C82.5666 53.2911 82.8273 52.9518 83.3979 52.7073L83.0101 51.8023C82.2022 52.1485 81.7122 52.7006 81.5141 53.3877C81.3236 54.0483 81.422 54.7678 81.6404 55.4402C82.0767 56.7834 83.0621 58.1517 83.8222 58.9988L84.555 58.3412ZM83.3979 52.7073C84.2464 52.3436 85.2012 51.9866 86.1539 51.765C87.1108 51.5425 88.0322 51.4647 88.827 51.6292C89.605 51.7901 90.2686 52.183 90.7505 52.9356C91.2427 53.7043 91.5727 54.8918 91.5727 56.6855H92.5573C92.5573 54.7868 92.2104 53.3898 91.5797 52.4047C90.9386 51.4034 90.0331 50.8733 89.0265 50.665C88.0368 50.4602 86.9584 50.5671 85.9308 50.806C84.8989 51.046 83.8847 51.4274 83.0101 51.8023L83.3979 52.7073ZM56.8589 13.4333C55.9396 13.9848 54.5829 14.4509 52.9531 14.8347C51.3316 15.2166 49.4749 15.5092 47.5784 15.7295C43.7855 16.1699 39.8666 16.3169 37.4202 16.3169V17.3015C39.8967 17.3015 43.8543 17.1532 47.692 16.7075C49.6109 16.4846 51.5079 16.1866 53.1788 15.7931C54.8413 15.4015 56.3153 14.9076 57.3654 14.2776L56.8589 13.4333ZM8.12853 19.2045C8.8045 18.8131 9.61928 18.3768 10.5621 17.9101L10.1253 17.0277C9.16661 17.5023 8.33262 17.9486 7.63521 18.3524L8.12853 19.2045ZM9.93779 17.7474C10.616 18.7358 11.8295 20.185 13.2865 21.3434C14.7263 22.4881 16.5031 23.4276 18.2816 23.2053L18.1595 22.2283C16.7872 22.3999 15.2821 21.6721 13.8993 20.5727C12.5338 19.487 11.3843 18.1154 10.7497 17.1904L9.93779 17.7474ZM10.5621 17.9101C11.935 17.2305 13.5765 16.4879 15.4518 15.7271L15.0816 14.8147C13.1855 15.584 11.5216 16.3365 10.1253 17.0277L10.5621 17.9101ZM18.2816 23.2053C19.1737 23.0938 19.9365 22.7871 20.5032 22.319L19.8762 21.5599C19.4808 21.8865 18.9043 22.1352 18.1595 22.2283L18.2816 23.2053ZM19.8208 22.2655C20.8341 23.4121 22.6223 25.0467 24.7202 26.2493C26.8064 27.4452 29.2887 28.2643 31.6421 27.6225L31.3831 26.6726C29.4042 27.2122 27.2097 26.5415 25.2098 25.3951C23.2216 24.2553 21.5145 22.6952 20.5586 21.6135L19.8208 22.2655ZM20.5032 22.319C21.4549 21.533 21.7939 20.3382 21.3215 19.0958L20.4012 19.4457C20.7249 20.2973 20.4998 21.0449 19.8762 21.5599L20.5032 22.319ZM21.3215 19.0958C20.7139 17.4973 18.8095 15.9046 15.4189 14.8027L15.1146 15.7391C18.3988 16.8065 19.9515 18.2628 20.4012 19.4457L21.3215 19.0958ZM31.6421 27.6225C32.3846 27.42 32.9662 27.101 33.3571 26.662L32.6218 26.0072C32.3966 26.2601 32.0076 26.5022 31.3831 26.6726L31.6421 27.6225ZM33.3571 26.662C33.827 26.1345 33.9744 25.4866 33.8628 24.8209C33.7542 24.1724 33.4039 23.5153 32.8982 22.8974L32.1362 23.5209C32.5755 24.0578 32.8208 24.5598 32.8918 24.9836C32.9599 25.3901 32.8709 25.7276 32.6218 26.0072L33.3571 26.662ZM32.8982 22.8974C30.9231 20.4837 26.1918 18.195 20.8081 18.7813L20.9147 19.7601C26.0044 19.2058 30.3945 21.3924 32.1362 23.5209L32.8982 22.8974ZM32.7493 26.7644C34.8193 27.9214 37.8427 29.3245 40.6096 30.0297C41.9902 30.3816 43.343 30.5693 44.4959 30.4441C45.6549 30.3183 46.6783 29.8654 47.2666 28.876L46.4203 28.3728C46.0459 29.0023 45.3685 29.359 44.3896 29.4653C43.4047 29.5722 42.1827 29.4146 40.8527 29.0756C38.1984 28.3991 35.2575 27.0384 33.2297 25.9049L32.7493 26.7644ZM47.2666 28.876C47.5464 28.4054 47.7102 27.8401 47.7572 27.1826L46.7751 27.1124C46.7369 27.6477 46.6074 28.0581 46.4203 28.3728L47.2666 28.876ZM47.7572 27.1826C47.836 26.0797 47.6694 25.1264 47.2887 24.3191L46.3982 24.739C46.6958 25.3702 46.8438 26.1504 46.7751 27.1124L47.7572 27.1826ZM47.2887 24.3191C46.2018 22.014 43.5158 21.1441 40.7059 21.0615C37.8629 20.9778 34.6884 21.6854 32.3141 22.7607L32.7203 23.6576C34.9671 22.6401 37.9933 21.9666 40.677 22.0456C43.3937 22.1256 45.5603 22.9621 46.3982 24.739L47.2887 24.3191ZM46.7001 29.0954C49.0949 29.8242 52.5834 30.5682 55.8264 30.6326C57.4479 30.6648 59.0315 30.5278 60.395 30.1196C61.7588 29.7112 62.9393 29.0197 63.6921 27.9175L62.8791 27.3622C62.2948 28.2175 61.343 28.808 60.1126 29.1763C58.8818 29.5448 57.4093 29.6792 55.846 29.6482C52.7195 29.5861 49.3239 28.8647 46.9868 28.1534L46.7001 29.0954ZM63.6921 27.9175C64.1123 27.3022 64.3874 26.5754 64.4928 25.7317L63.5158 25.6096C63.4284 26.3088 63.205 26.8849 62.8791 27.3622L63.6921 27.9175ZM63.1694 28.1182C65.1173 28.5913 68.0976 29.096 70.707 29.0631C72.0083 29.0468 73.2564 28.8966 74.2465 28.5169C75.2411 28.1353 76.0492 27.4888 76.2983 26.4493L75.3408 26.22C75.1959 26.8245 74.7216 27.28 73.8938 27.5976C73.0614 27.9169 71.9471 28.0628 70.6946 28.0786C68.1965 28.1101 65.3036 27.6233 63.4018 27.1614L63.1694 28.1182ZM64.4928 25.7317C64.67 24.3143 64.3687 23.188 63.6614 22.352L62.9097 22.9879C63.402 23.5697 63.6667 24.4022 63.5158 25.6096L64.4928 25.7317ZM63.6614 22.352C62.7926 21.325 61.3968 20.8364 59.8588 20.6683C58.3093 20.4988 56.5324 20.6447 54.7946 20.9675C53.0533 21.2908 51.3284 21.796 49.8754 22.3605C48.4359 22.9196 47.2165 23.5547 46.5211 24.157L47.1657 24.9012C47.7302 24.4124 48.8209 23.8263 50.2319 23.2783C51.6292 22.7355 53.295 22.2474 54.9743 21.9355C56.6571 21.623 58.3309 21.4917 59.7518 21.647C61.1842 21.8037 62.2787 22.2419 62.9097 22.9879L63.6614 22.352ZM76.2983 26.4493C76.3613 26.1862 76.3905 25.9242 76.3876 25.6652L75.4031 25.6761C75.405 25.8531 75.3852 26.0345 75.3408 26.22L76.2983 26.4493ZM75.4639 25.9077C75.8379 26.5885 76.6463 27.386 77.873 27.6189C79.1121 27.8541 80.6757 27.4949 82.5216 26.0592L81.9171 25.282C80.2185 26.6032 78.9356 26.8184 78.0566 26.6515C77.1652 26.4823 76.5839 25.9015 76.3268 25.4336L75.4639 25.9077ZM90.384 18.2071C90.9152 18.551 91.377 18.8744 91.7675 19.1706L92.3625 18.3862C91.9498 18.0731 91.4677 17.7358 90.9192 17.3806L90.384 18.2071ZM76.3876 25.6652C76.3767 24.6788 75.9044 23.7911 75.1859 23.0607L74.4839 23.7511C75.0795 24.3566 75.3957 25.0138 75.4031 25.6761L76.3876 25.6652ZM75.1859 23.0607C73.908 21.7615 71.7695 20.8671 69.5301 20.6353C67.284 20.4028 64.8462 20.8277 62.9827 22.2818L63.5884 23.0581C65.1961 21.8036 67.3562 21.4002 69.4287 21.6147C71.5078 21.8298 73.4084 22.6577 74.4839 23.7511L75.1859 23.0607ZM86.9175 16.2222C88.2799 16.9217 89.4397 17.5956 90.384 18.2071L90.9192 17.3806C89.9442 16.7493 88.7554 16.0591 87.3672 15.3463L86.9175 16.2222ZM75.18 23.757C76.6332 22.3288 78.987 20.2379 81.3175 18.6104C82.4839 17.7958 83.6284 17.1088 84.6407 16.6766C85.6759 16.2347 86.4755 16.1023 87.0044 16.2568L87.2804 15.3117C86.4056 15.0562 85.3315 15.3112 84.2541 15.7711C83.1538 16.2408 81.9468 16.97 80.7538 17.8031C78.3656 19.4709 75.9694 21.6007 74.4898 23.0548L75.18 23.757ZM15.4518 15.7271C21.8458 13.133 30.9388 10.335 41.3496 9.09527L41.2331 8.11758C30.7211 9.36942 21.5426 12.1935 15.0816 14.8147L15.4518 15.7271ZM37.8811 16.9821C38.6981 14.8036 40.0641 11.7092 41.7174 8.85306L40.8653 8.35979C39.1798 11.2714 37.7916 14.4168 36.9592 16.6364L37.8811 16.9821ZM41.7174 8.85306C42.8663 6.86831 44.142 5.01969 45.4546 3.67374C46.7827 2.31191 48.0675 1.54796 49.2354 1.54796V0.563365C47.6563 0.563365 46.1276 1.57344 44.7497 2.98631C43.3563 4.41506 42.0334 6.34183 40.8653 8.35979L41.7174 8.85306ZM58.1687 8.64819C70.8998 9.53811 80.8771 13.1206 86.9175 16.2222L87.3672 15.3463C81.2186 12.1892 71.1124 8.56596 58.2373 7.66598L58.1687 8.64819ZM49.2354 1.54796C50.8645 1.54796 52.6328 2.37546 54.1965 3.67275C55.7546 4.96532 57.0517 6.67783 57.7487 8.3468L58.6573 7.96737C57.8926 6.13631 56.4924 4.29811 54.8252 2.91498C53.1637 1.53657 51.1791 0.563365 49.2354 0.563365V1.54796ZM57.7487 8.3468C58.2049 9.43925 58.3898 10.4782 58.2585 11.3532C58.1303 12.2084 57.699 12.9293 56.8589 13.4333L57.3654 14.2776C58.471 13.6143 59.0627 12.6295 59.2323 11.4992C59.3988 10.3886 59.1562 9.16205 58.6573 7.96737L57.7487 8.3468ZM90.2638 18.0971C90.4335 18.3141 90.4571 18.5065 90.3809 18.7367C90.2914 19.0067 90.0554 19.3411 89.6386 19.7453C88.8074 20.5513 87.4563 21.4522 85.8835 22.4979L86.4287 23.3178C87.9693 22.2934 89.4124 21.3362 90.324 20.4522C90.7785 20.0114 91.151 19.5428 91.3155 19.0464C91.4932 18.51 91.4163 17.9725 91.0394 17.4906L90.2638 18.0971ZM85.8835 22.4979C84.6136 23.3424 83.2194 24.2692 81.9172 25.282L82.5216 26.0592C83.7903 25.0725 85.1539 24.1655 86.4287 23.3178L85.8835 22.4979ZM33.8788 44.6691C36.99 40.4265 37.4079 37.4019 37.6014 35.9752L36.6257 35.8429C36.4456 37.1711 36.0666 40.0207 33.0848 44.0869L33.8788 44.6691ZM37.6014 35.9752C37.6214 35.828 37.6378 35.707 37.6544 35.6044C37.6713 35.5001 37.6859 35.4316 37.6989 35.387C37.7141 35.335 37.7161 35.3561 37.6825 35.3963C37.6619 35.421 37.6268 35.4542 37.5743 35.48C37.5205 35.5066 37.4662 35.5166 37.4202 35.5166V34.532C37.2131 34.532 37.0419 34.6273 36.9267 34.7653C36.8305 34.8805 36.7822 35.0138 36.754 35.1104C36.6975 35.3034 36.6627 35.5703 36.6257 35.8429L37.6014 35.9752ZM22.5417 60.1246C23.3581 60.2634 24.19 60.401 25.0347 60.5366L25.1907 59.5644C24.3491 59.4294 23.5202 59.2922 22.7067 59.1539L22.5417 60.1246ZM38.4545 61.3232C34.0397 60.8749 29.6258 60.271 25.507 59.615L25.3522 60.5873C29.4855 61.2456 33.9181 61.8522 38.355 62.3027L38.4545 61.3232ZM25.507 59.615C25.4014 59.5982 25.296 59.5813 25.1907 59.5644L25.0347 60.5366C25.1403 60.5535 25.2461 60.5705 25.3522 60.5873L25.507 59.615ZM25.507 59.615C24.5566 59.4636 23.622 59.3095 22.7067 59.1539L22.5417 60.1246C23.4602 60.2807 24.3982 60.4354 25.3522 60.5873L25.507 59.615Z" fill="#16141F"/>
<path d="M48.0193 13.7133L49.2568 12.1553L49.4185 11.8994L51.4567 9.33334C51.9627 8.69618 52.1778 8.07697 52.1018 7.4757C52.0343 6.88117 51.6781 6.32778 51.0331 5.81554C50.5749 5.45158 50.0805 5.19413 49.55 5.04319C49.0348 4.89025 48.5367 4.82914 48.0557 4.85983L48.1118 4.13576C48.6854 4.09313 49.2714 4.17425 49.8698 4.37912C50.4752 4.57525 51.0325 4.87552 51.5416 5.27992C52.3647 5.9337 52.8271 6.64967 52.9286 7.42783C53.0302 8.20599 52.7447 9.01839 52.0723 9.86503L48.6303 14.1986L48.0193 13.7133ZM45.5847 11.865C45.0925 11.4741 44.7264 11.0552 44.4863 10.6082C44.2616 10.1593 44.1695 9.70896 44.2101 9.25718C44.2591 8.81214 44.4361 8.3976 44.7412 8.01356C45.0185 7.66443 45.3444 7.41088 45.719 7.25289C46.109 7.09292 46.5558 7.07057 47.0593 7.18582C47.5698 7.29235 48.1305 7.58825 48.7415 8.07353L51.1854 10.0147L50.7798 10.5253L48.3487 8.59424C47.6613 8.0483 47.0736 7.79505 46.5856 7.83447C46.1061 7.88064 45.7104 8.10011 45.3984 8.49288C45.0518 8.92929 44.9357 9.40647 45.0502 9.92444C45.1647 10.4424 45.5147 10.9339 46.1002 11.399C46.6602 11.8438 47.2352 12.087 47.825 12.1284C48.4233 12.1766 49.0134 12.0261 49.5953 11.6769L49.4199 12.2635C48.8465 12.6195 48.2256 12.774 47.5571 12.727C46.9041 12.6781 46.2466 12.3907 45.5847 11.865Z" fill="#16141F"/>
<path d="M16.607 31.6399L13.6562 33.1824V32.9286L16.607 34.471L16.2276 35.0958L13.319 33.5338L13.5087 33.4362L13.5298 36.5016H12.7921V33.4362L13.0029 33.5338L10.0942 35.0958L9.71484 34.471L12.6867 32.9286V33.1824L9.71484 31.6399L10.0942 31.0151L13.0029 32.5771L12.7921 32.6747V29.6094H13.5298L13.5087 32.6747L13.319 32.5771L16.2276 31.0151L16.607 31.6399Z" fill="#16141F"/>
<path d="M33.3453 36.5628L30.3945 38.1052V37.8514L33.3453 39.3939L32.9659 40.0186L30.0573 38.4567L30.247 38.3591L30.2681 41.4244H29.5304V38.3591L29.7411 38.4567L26.8325 40.0186L26.4531 39.3939L29.425 37.8514V38.1052L26.4531 36.5628L26.8325 35.938L29.7411 37.5L29.5304 37.5976V34.5322H30.2681L30.247 37.5976L30.0573 37.5L32.9659 35.938L33.3453 36.5628Z" fill="#16141F"/>
<path d="M50.0836 38.532L47.1328 40.0745V39.8206L50.0836 41.3631L49.7042 41.9879L46.7956 40.4259L46.9853 40.3283L47.0063 43.3937H46.2687V40.3283L46.4794 40.4259L43.5708 41.9879L43.1914 41.3631L46.1633 39.8206V40.0745L43.1914 38.532L43.5708 37.9072L46.4794 39.4692L46.2687 39.5668V36.5015H47.0063L46.9853 39.5668L46.7956 39.4692L49.7042 37.9072L50.0836 38.532Z" fill="#16141F"/>
<path d="M68.7906 38.532L65.8398 40.0745V39.8206L68.7906 41.3631L68.4112 41.9879L65.5026 40.4259L65.6923 40.3283L65.7134 43.3937H64.9757V40.3283L65.1865 40.4259L62.2778 41.9879L61.8984 41.3631L64.8703 39.8206V40.0745L61.8984 38.532L62.2778 37.9072L65.1865 39.4692L64.9757 39.5668V36.5015H65.7134L65.6923 39.5668L65.5026 39.4692L68.4112 37.9072L68.7906 38.532Z" fill="#16141F"/>
<path d="M82.5758 35.5784L79.625 37.1209V36.867L82.5758 38.4095L82.1964 39.0343L79.2878 37.4723L79.4775 37.3747L79.4985 40.44H78.7608V37.3747L78.9716 37.4723L76.063 39.0343L75.6836 38.4095L78.6555 36.867V37.1209L75.6836 35.5784L76.063 34.9536L78.9716 36.5156L78.7608 36.6132V33.5479H79.4985L79.4775 36.6132L79.2878 36.5156L82.1964 34.9536L82.5758 35.5784Z" fill="#16141F"/>
<path d="M91.5616 33.5475V30.6929L88.8638 32.1417L88.4844 31.5169L91.2117 30.1014L88.4844 28.6858L88.8638 28.061L91.5616 29.5098V26.6553H91.9305V33.5475H91.5616Z" fill="#16141F"/>
<path d="M8.73113 48.9366L11.4588 44.6854L11.9902 44.7652L13.3481 49.6303L12.8286 49.5523L11.5673 44.9279L11.8153 44.9652L9.23888 49.0129L8.73113 48.9366Z" fill="#16141F"/>
<path d="M15.4655 49.9485L18.1932 45.6972L18.7246 45.7771L20.0825 50.6422L19.5629 50.5641L18.3016 45.9398L18.5496 45.977L15.9732 50.0248L15.4655 49.9485Z" fill="#16141F"/>
<path d="M22.1998 50.9603L24.9275 46.7091L25.4589 46.7889L26.8168 51.6541L26.2973 51.576L25.036 46.9517L25.284 46.9889L22.7076 51.0366L22.1998 50.9603Z" fill="#16141F"/>
<path d="M28.9342 51.9722L31.6619 47.721L32.1933 47.8008L33.5512 52.6659L33.0316 52.5879L31.7704 47.9635L32.0183 48.0008L29.442 52.0485L28.9342 51.9722Z" fill="#16141F"/>
<path d="M35.6686 52.9841L38.3963 48.7328L38.9276 48.8127L40.2856 53.6778L39.766 53.5997L38.5047 48.9754L38.7527 49.0126L36.1763 53.0604L35.6686 52.9841Z" fill="#16141F"/>
<path d="M42.4029 53.9959L45.1306 49.7447L45.662 49.8245L47.0199 54.6897L46.5004 54.6116L45.2391 49.9873L45.487 50.0245L42.9107 54.0722L42.4029 53.9959Z" fill="#16141F"/>
<path d="M50.7964 55.1009L52.2077 50.043L52.7601 49.96L55.5961 54.3793L55.056 54.4605L52.3895 50.2509L52.6473 50.2122L51.3242 55.0215L50.7964 55.1009Z" fill="#16141F"/>
<path d="M57.7973 54.0484L59.2085 48.9905L59.7609 48.9074L62.597 53.3268L62.0569 53.408L59.3904 49.1984L59.6482 49.1596L58.3251 53.969L57.7973 54.0484Z" fill="#16141F"/>
<path d="M64.7982 52.9958L66.2094 47.938L66.7618 47.8549L69.5979 52.2742L69.0578 52.3554L66.3913 48.1458L66.6491 48.1071L65.326 52.9165L64.7982 52.9958Z" fill="#16141F"/>
<path d="M71.7991 51.9433L73.2103 46.8854L73.7627 46.8024L76.5988 51.2217L76.0587 51.3029L73.3922 47.0933L73.65 47.0545L72.3269 51.8639L71.7991 51.9433Z" fill="#16141F"/>
<path d="M78.8 50.8908L80.2112 45.8329L80.7636 45.7498L83.5997 50.1691L83.0596 50.2503L80.3931 46.0408L80.6509 46.002L79.3278 50.8114L78.8 50.8908Z" fill="#16141F"/>
<path d="M85.8009 49.8382L87.2121 44.7803L87.7645 44.6973L90.6006 49.1166L90.0605 49.1978L87.394 44.9882L87.6518 44.9495L86.3287 49.7589L85.8009 49.8382Z" fill="#16141F"/>
<path d="M18.2197 57.1629V53.2397H18.5771V57.1629H18.2197ZM16.1111 54.6677C16.5781 54.6727 16.9307 54.7805 17.169 54.9909C17.412 55.1963 17.5335 55.4995 17.5335 55.9003C17.5335 56.3162 17.4048 56.6343 17.1475 56.8548C16.8902 57.0753 16.5185 57.183 16.0325 57.178L14.6387 57.1629V53.2397H14.9961V54.6527L16.1111 54.6677ZM16.0182 56.8773C16.3994 56.8824 16.6877 56.8022 16.8831 56.6368C17.0784 56.4715 17.1761 56.226 17.1761 55.9003C17.1761 55.5846 17.0784 55.3492 16.8831 55.1938C16.6924 55.0385 16.4042 54.9583 16.0182 54.9533L14.9961 54.9458V56.8623L16.0182 56.8773Z" fill="#16141F"/>
<path d="M33.9736 60.1166V56.1934H34.331V60.1166H33.9736ZM31.865 57.6213C32.332 57.6264 32.6846 57.7341 32.9229 57.9445C33.1659 58.1499 33.2874 58.4531 33.2874 58.8539C33.2874 59.2698 33.1587 59.5879 32.9014 59.8084C32.6441 60.0289 32.2724 60.1366 31.7864 60.1316L30.3926 60.1166V56.1934H30.75V57.6063L31.865 57.6213ZM31.7721 59.831C32.1533 59.836 32.4416 59.7558 32.637 59.5905C32.8323 59.4251 32.93 59.1796 32.93 58.8539C32.93 58.5383 32.8323 58.3028 32.637 58.1474C32.4464 57.9921 32.1581 57.9119 31.7721 57.9069L30.75 57.8994V59.8159L31.7721 59.831Z" fill="#16141F"/>
<path d="M47.7568 61.1009V57.1777H48.1142V61.1009H47.7568ZM45.6482 58.6057C46.1152 58.6107 46.4678 58.7185 46.7061 58.9289C46.9491 59.1343 47.0706 59.4375 47.0706 59.8383C47.0706 60.2542 46.9419 60.5723 46.6846 60.7928C46.4273 61.0132 46.0556 61.121 45.5696 61.116L44.1758 61.1009V57.1777H44.5332V58.5907L45.6482 58.6057ZM45.5553 60.8153C45.9365 60.8203 46.2248 60.7402 46.4202 60.5748C46.6155 60.4095 46.7132 60.164 46.7132 59.8383C46.7132 59.5226 46.6155 59.2871 46.4202 59.1318C46.2296 58.9765 45.9413 58.8963 45.5553 58.8913L44.5332 58.8838V60.8003L45.5553 60.8153Z" fill="#16141F"/>
<path d="M62.4353 60.0756L61.4199 56.2861L61.7651 56.1936L62.7805 59.9831L62.4353 60.0756ZM59.7528 58.2111C60.2052 58.0951 60.5736 58.1079 60.8582 58.2495C61.1462 58.385 61.342 58.6464 61.4457 59.0336C61.5534 59.4353 61.5114 59.7759 61.3199 60.0554C61.1285 60.335 60.7973 60.5352 60.3265 60.6562L58.9763 61.0024L57.9609 57.2129L58.3061 57.1204L58.6718 58.4852L59.7528 58.2111ZM60.2349 60.3695C60.6044 60.2757 60.8622 60.1236 61.0081 59.9133C61.154 59.7031 61.1848 59.4406 61.1005 59.1261C61.0188 58.8211 60.8635 58.619 60.6346 58.5195C60.4103 58.4188 60.1111 58.416 59.7369 58.511L58.7477 58.7683L59.2437 60.6195L60.2349 60.3695Z" fill="#16141F"/>
<path d="M77.2049 59.0907L76.1895 55.3012L76.5347 55.2087L77.5501 58.9982L77.2049 59.0907ZM74.5223 57.2263C74.9747 57.1102 75.3432 57.123 75.6278 57.2646C75.9157 57.4002 76.1115 57.6615 76.2153 58.0487C76.3229 58.4504 76.281 58.791 76.0895 59.0706C75.898 59.3501 75.5668 59.5504 75.0961 59.6713L73.7459 60.0175L72.7305 56.228L73.0757 56.1355L73.4414 57.5003L74.5223 57.2263ZM75.0045 59.3846C75.374 59.2908 75.6317 59.1388 75.7776 58.9285C75.9235 58.7182 75.9543 58.4558 75.87 58.1412C75.7884 57.8363 75.633 57.6341 75.4041 57.5346C75.1798 57.4339 74.8806 57.4311 74.5065 57.5262L73.5172 57.7835L74.0133 59.6347L75.0045 59.3846Z" fill="#16141F"/>
<path d="M89.0193 56.1371L88.0039 52.3476L88.3491 52.2551L89.3645 56.0446L89.0193 56.1371ZM86.3368 54.2726C86.7891 54.1566 87.1576 54.1694 87.4422 54.311C87.7301 54.4465 87.926 54.7079 88.0297 55.0951C88.1373 55.4968 88.0954 55.8374 87.9039 56.1169C87.7124 56.3965 87.3813 56.5967 86.9105 56.7177L85.5603 57.0639L84.5449 53.2744L84.8901 53.1819L85.2558 54.5467L86.3368 54.2726ZM86.8189 56.431C87.1884 56.3372 87.4461 56.1851 87.5921 55.9749C87.738 55.7646 87.7688 55.5022 87.6845 55.1876C87.6028 54.8827 87.4475 54.6805 87.2186 54.581C86.9943 54.4803 86.6951 54.4775 86.3209 54.5726L85.3317 54.8298L85.8277 56.681L86.8189 56.431Z" fill="#16141F"/>
<path d="M6.2492 62.2836C5.8738 62.2706 5.53776 62.3981 5.24108 62.666C4.96567 62.9578 4.82076 63.3121 4.80634 63.7289C4.79192 64.1456 4.91239 64.4975 5.16776 64.7845C5.44522 65.0723 5.77164 65.2227 6.14704 65.2356C6.52244 65.2486 6.84744 65.1208 7.12205 64.8521C7.41873 64.5842 7.57428 64.2419 7.58871 63.8251C7.60313 63.4084 7.47201 63.0445 7.19536 62.7336C6.93999 62.4466 6.6246 62.2966 6.2492 62.2836Z" fill="#16141F"/>
<path d="M12.8804 62.5131C12.505 62.5001 12.1689 62.6276 11.8722 62.8955C11.5968 63.1873 11.4519 63.5416 11.4375 63.9583C11.4231 64.3751 11.5435 64.727 11.7989 65.014C12.0764 65.3017 12.4028 65.4521 12.7782 65.4651C13.1536 65.4781 13.4786 65.3503 13.7532 65.0816C14.0499 64.8137 14.2054 64.4714 14.2199 64.0546C14.2343 63.6379 14.1032 63.274 13.8265 62.9631C13.5711 62.6761 13.2558 62.5261 12.8804 62.5131Z" fill="#16141F"/>
<path d="M19.5115 62.7426C19.1361 62.7296 18.8001 62.857 18.5034 63.1249C18.228 63.4168 18.0831 63.7711 18.0686 64.1878C18.0542 64.6046 18.1747 64.9564 18.4301 65.2435C18.7075 65.5312 19.034 65.6816 19.4094 65.6946C19.7848 65.7076 20.1098 65.5798 20.3844 65.3111C20.681 65.0432 20.8366 64.7009 20.851 64.2841C20.8654 63.8673 20.7343 63.5035 20.4577 63.1926C20.2023 62.9056 19.8869 62.7556 19.5115 62.7426Z" fill="#16141F"/>
<path d="M26.1427 62.9721C25.7673 62.9591 25.4312 63.0865 25.1345 63.3544C24.8591 63.6462 24.7142 64.0005 24.6998 64.4173C24.6854 64.834 24.8059 65.1859 25.0612 65.4729C25.3387 65.7607 25.6651 65.9111 26.0405 65.9241C26.4159 65.9371 26.7409 65.8092 27.0155 65.5406C27.3122 65.2727 27.4677 64.9303 27.4822 64.5136C27.4966 64.0968 27.3655 63.733 27.0888 63.4221C26.8335 63.135 26.5181 62.985 26.1427 62.9721Z" fill="#16141F"/>
<path d="M32.7738 63.2015C32.3984 63.1885 32.0624 63.316 31.7657 63.5839C31.4903 63.8757 31.3454 64.23 31.331 64.6468C31.3165 65.0635 31.437 65.4154 31.6924 65.7024C31.9698 65.9902 32.2963 66.1406 32.6717 66.1536C33.0471 66.1666 33.3721 66.0387 33.6467 65.77C33.9433 65.5021 34.0989 65.1598 34.1133 64.7431C34.1277 64.3263 33.9966 63.9625 33.72 63.6515C33.4646 63.3645 33.1492 63.2145 32.7738 63.2015Z" fill="#16141F"/>
<path d="M39.405 63.431C39.0296 63.418 38.6935 63.5455 38.3969 63.8134C38.1214 64.1052 37.9765 64.4595 37.9621 64.8762C37.9477 65.293 38.0682 65.6449 38.3235 65.9319C38.601 66.2197 38.9274 66.37 39.3028 66.383C39.6782 66.396 40.0032 66.2682 40.2778 65.9995C40.5745 65.7316 40.7301 65.3893 40.7445 64.9725C40.7589 64.5558 40.6278 64.1919 40.3511 63.881C40.0958 63.594 39.7804 63.444 39.405 63.431Z" fill="#16141F"/>
<path d="M46.0361 63.6605C45.6607 63.6475 45.3247 63.775 45.028 64.0429C44.7526 64.3347 44.6077 64.689 44.5933 65.1057C44.5788 65.5225 44.6993 65.8744 44.9547 66.1614C45.2321 66.4491 45.5586 66.5995 45.934 66.6125C46.3094 66.6255 46.6344 66.4977 46.909 66.229C47.2057 65.9611 47.3612 65.6188 47.3756 65.202C47.3901 64.7853 47.2589 64.4214 46.9823 64.1105C46.7269 63.8235 46.4115 63.6735 46.0361 63.6605Z" fill="#16141F"/>
<path d="M52.6673 63.89C52.2919 63.877 51.9558 64.0044 51.6592 64.2723C51.3838 64.5642 51.2388 64.9184 51.2244 65.3352C51.21 65.752 51.3305 66.1038 51.5858 66.3909C51.8633 66.6786 52.1897 66.829 52.5651 66.842C52.9405 66.855 53.2655 66.7271 53.5401 66.4585C53.8368 66.1906 53.9924 65.8482 54.0068 65.4315C54.0212 65.0147 53.8901 64.6509 53.6134 64.34C53.3581 64.053 53.0427 63.903 52.6673 63.89Z" fill="#16141F"/>
<path d="M59.3516 63.2953C58.9762 63.3083 58.6498 63.4586 58.3723 63.7464C58.1178 64.0565 57.9977 64.42 58.0121 64.8368C58.0265 65.2535 58.171 65.5962 58.4456 65.8649C58.7422 66.1328 59.0783 66.2603 59.4537 66.2473C59.8291 66.2343 60.1445 66.0843 60.3999 65.7973C60.6773 65.5096 60.8089 65.1573 60.7944 64.7406C60.78 64.3238 60.6241 63.9699 60.3266 63.6788C60.052 63.4102 59.727 63.2823 59.3516 63.2953Z" fill="#16141F"/>
<path d="M65.9828 63.066C65.6074 63.079 65.281 63.2294 65.0035 63.5171C64.7489 63.8273 64.6288 64.1908 64.6432 64.6075C64.6576 65.0243 64.8021 65.367 65.0767 65.6357C65.3734 65.9036 65.7094 66.031 66.0848 66.0181C66.4602 66.0051 66.7756 65.8551 67.031 65.5681C67.3085 65.2803 67.44 64.9281 67.4256 64.5113C67.4112 64.0946 67.2553 63.7407 66.9578 63.4496C66.6832 63.1809 66.3582 63.0531 65.9828 63.066Z" fill="#16141F"/>
<path d="M72.614 62.8368C72.2386 62.8498 71.9121 63.0001 71.6347 63.2879C71.3801 63.5981 71.26 63.9615 71.2744 64.3783C71.2888 64.795 71.4333 65.1377 71.7079 65.4064C72.0046 65.6743 72.3406 65.8018 72.716 65.7888C73.0914 65.7758 73.4068 65.6259 73.6622 65.3389C73.9396 65.0511 74.0712 64.6988 74.0568 64.2821C74.0424 63.8653 73.8864 63.5114 73.5889 63.2203C73.3143 62.9517 72.9894 62.8238 72.614 62.8368Z" fill="#16141F"/>
<path d="M79.2451 62.6075C78.8697 62.6205 78.5433 62.7709 78.2658 63.0587C78.0112 63.3688 77.8912 63.7323 77.9056 64.149C77.92 64.5658 78.0645 64.9085 78.3391 65.1772C78.6357 65.4451 78.9718 65.5725 79.3472 65.5596C79.7226 65.5466 80.038 65.3966 80.2933 65.1096C80.5708 64.8218 80.7023 64.4696 80.6879 64.0528C80.6735 63.6361 80.5176 63.2822 80.2201 62.9911C79.9455 62.7224 79.6205 62.5946 79.2451 62.6075Z" fill="#16141F"/>
<path d="M85.8763 62.3783C85.5009 62.3913 85.1744 62.5416 84.897 62.8294C84.6424 63.1396 84.5223 63.503 84.5367 63.9198C84.5511 64.3365 84.6956 64.6792 84.9702 64.9479C85.2669 65.2158 85.6029 65.3433 85.9783 65.3303C86.3537 65.3173 86.6691 65.1674 86.9245 64.8804C87.202 64.5926 87.3335 64.2403 87.3191 63.8236C87.3047 63.4068 87.1487 63.0529 86.8513 62.7618C86.5767 62.4932 86.2517 62.3653 85.8763 62.3783Z" fill="#16141F"/>
<path d="M92.5074 62.149C92.132 62.162 91.8056 62.3124 91.5281 62.6002C91.2736 62.9103 91.1535 63.2738 91.1679 63.6905C91.1823 64.1073 91.3268 64.45 91.6014 64.7187C91.8981 64.9866 92.2341 65.1141 92.6095 65.1011C92.9849 65.0881 93.3003 64.9381 93.5557 64.6511C93.8331 64.3633 93.9647 64.0111 93.9503 63.5943C93.9359 63.1776 93.7799 62.8237 93.4824 62.5326C93.2078 62.2639 92.8828 62.1361 92.5074 62.149Z" fill="#16141F"/>
<path d="M16.5972 20.7477C16.3099 20.7477 16.0453 20.7107 15.8035 20.6366C15.5646 20.5648 15.3569 20.4624 15.1806 20.3295C15.0071 20.1988 14.8734 20.0441 14.7795 19.8655C14.6856 19.6847 14.6387 19.4854 14.6387 19.2676C14.6387 19.0497 14.6856 18.8504 14.7795 18.6696C14.8762 18.4888 15.0127 18.3331 15.1891 18.2024C15.3655 18.0717 15.5746 17.9715 15.8163 17.9018C16.0581 17.8299 16.3241 17.7939 16.6143 17.7939C16.9016 17.7939 17.1647 17.8288 17.4037 17.8985C17.6426 17.9682 17.8503 18.0673 18.0266 18.1958C18.203 18.3222 18.3381 18.4747 18.432 18.6533C18.5287 18.8297 18.5771 19.0247 18.5771 19.2382C18.5771 19.4233 18.55 19.5813 18.496 19.712C18.4419 19.8405 18.3651 19.9396 18.2656 20.0093C18.166 20.0768 18.0508 20.1106 17.92 20.1106C17.7863 20.1106 17.6782 20.0801 17.5957 20.0191C17.5132 19.9581 17.4719 19.8721 17.4719 19.761V19.4734L17.5103 19.2545L17.4677 18.9702V18.4278H17.6639V19.7185C17.6639 19.8122 17.691 19.8786 17.745 19.9178C17.7991 19.957 17.8659 19.9766 17.9456 19.9766C18.0394 19.9766 18.1205 19.9483 18.1888 19.8917C18.2599 19.8328 18.3139 19.749 18.3509 19.6401C18.3907 19.5312 18.4107 19.3983 18.4107 19.2414C18.4107 19.0432 18.3666 18.8635 18.2784 18.7023C18.193 18.5389 18.0693 18.3984 17.9072 18.2808C17.7479 18.1632 17.5587 18.0739 17.3396 18.0129C17.1206 17.9497 16.8788 17.9181 16.6143 17.9181C16.3497 17.9181 16.1065 17.9508 15.8846 18.0161C15.6627 18.0815 15.4721 18.1741 15.3128 18.2939C15.1536 18.4137 15.0298 18.5564 14.9416 18.7219C14.8563 18.8853 14.8136 19.0672 14.8136 19.2676C14.8136 19.4658 14.8563 19.6477 14.9416 19.8132C15.027 19.9788 15.1479 20.1215 15.3043 20.2413C15.4636 20.3633 15.6528 20.4569 15.8718 20.5223C16.0909 20.5876 16.3326 20.6203 16.5972 20.6203C16.7252 20.6203 16.8618 20.6083 17.0068 20.5844C17.1547 20.5626 17.2899 20.5266 17.4122 20.4765L17.4677 20.5974C17.3425 20.6475 17.2003 20.6846 17.041 20.7085C16.8817 20.7347 16.7337 20.7477 16.5972 20.7477ZM16.5631 20.1106C16.3611 20.1106 16.179 20.0746 16.0169 20.0028C15.8576 19.9287 15.731 19.8274 15.6371 19.6989C15.5461 19.5704 15.5006 19.4244 15.5006 19.261C15.5006 19.0955 15.5461 18.9495 15.6371 18.8232C15.731 18.6969 15.8576 18.5977 16.0169 18.5259C16.179 18.4518 16.3611 18.4148 16.5631 18.4148C16.7622 18.4148 16.9386 18.4496 17.0922 18.5193C17.2486 18.589 17.3709 18.6871 17.4591 18.8134C17.5502 18.9397 17.5957 19.089 17.5957 19.261C17.5957 19.4309 17.5502 19.5802 17.4591 19.7087C17.3709 19.8372 17.25 19.9363 17.0964 20.006C16.9428 20.0757 16.765 20.1106 16.5631 20.1106ZM16.5844 19.9733C16.7551 19.9733 16.9073 19.9439 17.041 19.8851C17.1747 19.8241 17.2799 19.7403 17.3567 19.6335C17.4335 19.5268 17.4719 19.4026 17.4719 19.261C17.4719 19.1173 17.4335 18.9931 17.3567 18.8885C17.2799 18.7818 17.1747 18.699 17.041 18.6402C16.9073 18.5814 16.7551 18.552 16.5844 18.552C16.4166 18.552 16.2658 18.5814 16.1321 18.6402C15.9984 18.699 15.8932 18.7818 15.8163 18.8885C15.7395 18.9953 15.7011 19.1194 15.7011 19.261C15.7011 19.4005 15.7395 19.5246 15.8163 19.6335C15.8932 19.7403 15.9984 19.8241 16.1321 19.8851C16.2658 19.9439 16.4166 19.9733 16.5844 19.9733Z" fill="#16141F"/>
<path d="M27.4273 24.6862C27.14 24.6862 26.8754 24.6492 26.6336 24.5751C26.3947 24.5032 26.187 24.4009 26.0107 24.268C25.8371 24.1373 25.7034 23.9826 25.6096 23.804C25.5157 23.6232 25.4688 23.4239 25.4688 23.2061C25.4688 22.9882 25.5157 22.7889 25.6096 22.6081C25.7063 22.4273 25.8428 22.2716 26.0192 22.1409C26.1956 22.0102 26.4046 21.91 26.6464 21.8402C26.8882 21.7684 27.1542 21.7324 27.4443 21.7324C27.7317 21.7324 27.9948 21.7673 28.2337 21.837C28.4727 21.9067 28.6803 22.0058 28.8567 22.1343C29.0331 22.2607 29.1682 22.4131 29.2621 22.5918C29.3588 22.7682 29.4071 22.9632 29.4071 23.1766C29.4071 23.3618 29.3801 23.5197 29.3261 23.6504C29.272 23.7789 29.1952 23.8781 29.0957 23.9478C28.9961 24.0153 28.8809 24.0491 28.75 24.0491C28.6163 24.0491 28.5082 24.0186 28.4257 23.9576C28.3433 23.8966 28.302 23.8105 28.302 23.6994V23.4119L28.3404 23.193L28.2977 22.9087V22.3663H28.494V23.657C28.494 23.7506 28.521 23.8171 28.5751 23.8563C28.6291 23.8955 28.696 23.9151 28.7756 23.9151C28.8695 23.9151 28.9506 23.8868 29.0189 23.8301C29.09 23.7713 29.144 23.6875 29.181 23.5785C29.2208 23.4696 29.2407 23.3368 29.2407 23.1799C29.2407 22.9817 29.1966 22.802 29.1085 22.6408C29.0231 22.4774 28.8994 22.3369 28.7372 22.2193C28.5779 22.1016 28.3888 22.0123 28.1697 21.9513C27.9507 21.8882 27.7089 21.8566 27.4443 21.8566C27.1798 21.8566 26.9366 21.8893 26.7147 21.9546C26.4928 22.02 26.3022 22.1125 26.1429 22.2323C25.9836 22.3522 25.8599 22.4948 25.7717 22.6604C25.6864 22.8238 25.6437 23.0056 25.6437 23.2061C25.6437 23.4043 25.6864 23.5862 25.7717 23.7517C25.857 23.9173 25.9779 24.06 26.1344 24.1798C26.2937 24.3017 26.4829 24.3954 26.7019 24.4608C26.9209 24.5261 27.1627 24.5588 27.4273 24.5588C27.5553 24.5588 27.6918 24.5468 27.8369 24.5228C27.9848 24.5011 28.1199 24.4651 28.2423 24.415L28.2977 24.5359C28.1726 24.586 28.0303 24.623 27.871 24.647C27.7117 24.6731 27.5638 24.6862 27.4273 24.6862ZM27.3931 24.0491C27.1912 24.0491 27.0091 24.0131 26.847 23.9412C26.6877 23.8672 26.5611 23.7659 26.4672 23.6374C26.3762 23.5088 26.3307 23.3629 26.3307 23.1995C26.3307 23.034 26.3762 22.888 26.4672 22.7617C26.5611 22.6353 26.6877 22.5362 26.847 22.4643C27.0091 22.3903 27.1912 22.3532 27.3931 22.3532C27.5923 22.3532 27.7686 22.3881 27.9222 22.4578C28.0787 22.5275 28.201 22.6255 28.2892 22.7519C28.3802 22.8782 28.4257 23.0274 28.4257 23.1995C28.4257 23.3694 28.3802 23.5186 28.2892 23.6472C28.201 23.7757 28.0801 23.8748 27.9265 23.9445C27.7729 24.0142 27.5951 24.0491 27.3931 24.0491ZM27.4145 23.9118C27.5852 23.9118 27.7373 23.8824 27.871 23.8236C28.0047 23.7626 28.11 23.6787 28.1868 23.572C28.2636 23.4653 28.302 23.3411 28.302 23.1995C28.302 23.0557 28.2636 22.9316 28.1868 22.827C28.11 22.7203 28.0047 22.6375 27.871 22.5787C27.7373 22.5199 27.5852 22.4905 27.4145 22.4905C27.2466 22.4905 27.0959 22.5199 26.9622 22.5787C26.8285 22.6375 26.7232 22.7203 26.6464 22.827C26.5696 22.9338 26.5312 23.0579 26.5312 23.1995C26.5312 23.3389 26.5696 23.4631 26.6464 23.572C26.7232 23.6787 26.8285 23.7626 26.9622 23.8236C27.0959 23.8824 27.2466 23.9118 27.4145 23.9118Z" fill="#16141F"/>
<path d="M40.2281 26.6555C39.9408 26.6555 39.6762 26.6184 39.4344 26.5444C39.1955 26.4725 38.9878 26.3701 38.8114 26.2372C38.6379 26.1065 38.5042 25.9519 38.4103 25.7732C38.3165 25.5924 38.2695 25.3931 38.2695 25.1753C38.2695 24.9575 38.3165 24.7581 38.4103 24.5773C38.5071 24.3965 38.6436 24.2408 38.82 24.1101C38.9963 23.9794 39.2054 23.8792 39.4472 23.8095C39.689 23.7376 39.955 23.7017 40.2451 23.7017C40.5324 23.7017 40.7956 23.7365 41.0345 23.8062C41.2735 23.8759 41.4811 23.975 41.6575 24.1036C41.8339 24.2299 41.969 24.3824 42.0628 24.561C42.1596 24.7374 42.2079 24.9324 42.2079 25.1459C42.2079 25.331 42.1809 25.489 42.1269 25.6197C42.0728 25.7482 41.996 25.8473 41.8964 25.917C41.7969 25.9845 41.6817 26.0183 41.5508 26.0183C41.4171 26.0183 41.309 25.9878 41.2265 25.9268C41.144 25.8658 41.1028 25.7798 41.1028 25.6687V25.3811L41.1412 25.1622L41.0985 24.8779V24.3355H41.2948V25.6262C41.2948 25.7199 41.3218 25.7863 41.3759 25.8255C41.4299 25.8647 41.4968 25.8843 41.5764 25.8843C41.6703 25.8843 41.7514 25.856 41.8196 25.7994C41.8907 25.7406 41.9448 25.6567 41.9818 25.5478C42.0216 25.4389 42.0415 25.306 42.0415 25.1492C42.0415 24.9509 41.9974 24.7712 41.9092 24.61C41.8239 24.4466 41.7002 24.3061 41.538 24.1885C41.3787 24.0709 41.1895 23.9816 40.9705 23.9206C40.7515 23.8574 40.5097 23.8258 40.2451 23.8258C39.9806 23.8258 39.7374 23.8585 39.5155 23.9238C39.2936 23.9892 39.103 24.0818 38.9437 24.2016C38.7844 24.3214 38.6607 24.4641 38.5725 24.6296C38.4871 24.793 38.4445 24.9749 38.4445 25.1753C38.4445 25.3735 38.4871 25.5554 38.5725 25.721C38.6578 25.8865 38.7787 26.0292 38.9352 26.149C39.0945 26.271 39.2836 26.3646 39.5027 26.43C39.7217 26.4953 39.9635 26.528 40.2281 26.528C40.3561 26.528 40.4926 26.516 40.6377 26.4921C40.7856 26.4703 40.9207 26.4344 41.043 26.3843L41.0985 26.5052C40.9734 26.5553 40.8311 26.5923 40.6718 26.6162C40.5125 26.6424 40.3646 26.6555 40.2281 26.6555ZM40.1939 26.0183C39.992 26.0183 39.8099 25.9824 39.6478 25.9105C39.4885 25.8364 39.3619 25.7351 39.268 25.6066C39.177 25.4781 39.1315 25.3321 39.1315 25.1688C39.1315 25.0032 39.177 24.8573 39.268 24.7309C39.3619 24.6046 39.4885 24.5055 39.6478 24.4336C39.8099 24.3595 39.992 24.3225 40.1939 24.3225C40.393 24.3225 40.5694 24.3573 40.723 24.427C40.8795 24.4967 41.0018 24.5948 41.09 24.7211C41.181 24.8475 41.2265 24.9967 41.2265 25.1688C41.2265 25.3387 41.181 25.4879 41.09 25.6164C41.0018 25.7449 40.8809 25.844 40.7273 25.9137C40.5737 25.9834 40.3959 26.0183 40.1939 26.0183ZM40.2153 25.8811C40.3859 25.8811 40.5381 25.8517 40.6718 25.7928C40.8055 25.7318 40.9108 25.648 40.9876 25.5412C41.0644 25.4345 41.1028 25.3103 41.1028 25.1688C41.1028 25.025 41.0644 24.9008 40.9876 24.7963C40.9108 24.6895 40.8055 24.6067 40.6718 24.5479C40.5381 24.4891 40.3859 24.4597 40.2153 24.4597C40.0474 24.4597 39.8967 24.4891 39.763 24.5479C39.6293 24.6067 39.524 24.6895 39.4472 24.7963C39.3704 24.903 39.332 25.0272 39.332 25.1688C39.332 25.3082 39.3704 25.4323 39.4472 25.5412C39.524 25.648 39.6293 25.7318 39.763 25.7928C39.8967 25.8517 40.0474 25.8811 40.2153 25.8811Z" fill="#16141F"/>
<path d="M55.982 26.6555C55.6947 26.6555 55.4301 26.6184 55.1883 26.5444C54.9494 26.4725 54.7417 26.3701 54.5653 26.2372C54.3918 26.1065 54.2581 25.9519 54.1642 25.7732C54.0704 25.5924 54.0234 25.3931 54.0234 25.1753C54.0234 24.9575 54.0704 24.7581 54.1642 24.5773C54.261 24.3965 54.3975 24.2408 54.5739 24.1101C54.7502 23.9794 54.9593 23.8792 55.2011 23.8095C55.4429 23.7376 55.7089 23.7017 55.999 23.7017C56.2863 23.7017 56.5495 23.7365 56.7884 23.8062C57.0274 23.8759 57.235 23.975 57.4114 24.1036C57.5878 24.2299 57.7229 24.3824 57.8168 24.561C57.9135 24.7374 57.9618 24.9324 57.9618 25.1459C57.9618 25.331 57.9348 25.489 57.8808 25.6197C57.8267 25.7482 57.7499 25.8473 57.6503 25.917C57.5508 25.9845 57.4356 26.0183 57.3047 26.0183C57.171 26.0183 57.0629 25.9878 56.9804 25.9268C56.8979 25.8658 56.8567 25.7798 56.8567 25.6687V25.3811L56.8951 25.1622L56.8524 24.8779V24.3355H57.0487V25.6262C57.0487 25.7199 57.0757 25.7863 57.1298 25.8255C57.1838 25.8647 57.2507 25.8843 57.3303 25.8843C57.4242 25.8843 57.5053 25.856 57.5735 25.7994C57.6447 25.7406 57.6987 25.6567 57.7357 25.5478C57.7755 25.4389 57.7954 25.306 57.7954 25.1492C57.7954 24.9509 57.7513 24.7712 57.6631 24.61C57.5778 24.4466 57.4541 24.3061 57.2919 24.1885C57.1326 24.0709 56.9435 23.9816 56.7244 23.9206C56.5054 23.8574 56.2636 23.8258 55.999 23.8258C55.7345 23.8258 55.4913 23.8585 55.2694 23.9238C55.0475 23.9892 54.8569 24.0818 54.6976 24.2016C54.5383 24.3214 54.4146 24.4641 54.3264 24.6296C54.2411 24.793 54.1984 24.9749 54.1984 25.1753C54.1984 25.3735 54.2411 25.5554 54.3264 25.721C54.4117 25.8865 54.5326 26.0292 54.6891 26.149C54.8484 26.271 55.0375 26.3646 55.2566 26.43C55.4756 26.4953 55.7174 26.528 55.982 26.528C56.11 26.528 56.2465 26.516 56.3916 26.4921C56.5395 26.4703 56.6746 26.4344 56.797 26.3843L56.8524 26.5052C56.7273 26.5553 56.585 26.5923 56.4257 26.6162C56.2664 26.6424 56.1185 26.6555 55.982 26.6555ZM55.9478 26.0183C55.7459 26.0183 55.5638 25.9824 55.4017 25.9105C55.2424 25.8364 55.1158 25.7351 55.0219 25.6066C54.9309 25.4781 54.8854 25.3321 54.8854 25.1688C54.8854 25.0032 54.9309 24.8573 55.0219 24.7309C55.1158 24.6046 55.2424 24.5055 55.4017 24.4336C55.5638 24.3595 55.7459 24.3225 55.9478 24.3225C56.147 24.3225 56.3233 24.3573 56.4769 24.427C56.6334 24.4967 56.7557 24.5948 56.8439 24.7211C56.9349 24.8475 56.9804 24.9967 56.9804 25.1688C56.9804 25.3387 56.9349 25.4879 56.8439 25.6164C56.7557 25.7449 56.6348 25.844 56.4812 25.9137C56.3276 25.9834 56.1498 26.0183 55.9478 26.0183ZM55.9692 25.8811C56.1398 25.8811 56.292 25.8517 56.4257 25.7928C56.5594 25.7318 56.6647 25.648 56.7415 25.5412C56.8183 25.4345 56.8567 25.3103 56.8567 25.1688C56.8567 25.025 56.8183 24.9008 56.7415 24.7963C56.6647 24.6895 56.5594 24.6067 56.4257 24.5479C56.292 24.4891 56.1398 24.4597 55.9692 24.4597C55.8013 24.4597 55.6506 24.4891 55.5169 24.5479C55.3832 24.6067 55.2779 24.6895 55.2011 24.7963C55.1243 24.903 55.0859 25.0272 55.0859 25.1688C55.0859 25.3082 55.1243 25.4323 55.2011 25.5412C55.2779 25.648 55.3832 25.7318 55.5169 25.7928C55.6506 25.8517 55.8013 25.8811 55.9692 25.8811Z" fill="#16141F"/>
<path d="M69.7652 25.6706C69.4779 25.6706 69.2133 25.6336 68.9715 25.5595C68.7326 25.4876 68.5249 25.3852 68.3485 25.2524C68.175 25.1217 68.0413 24.967 67.9474 24.7884C67.8536 24.6076 67.8066 24.4083 67.8066 24.1904C67.8066 23.9726 67.8536 23.7733 67.9474 23.5925C68.0442 23.4117 68.1807 23.2559 68.3571 23.1252C68.5334 22.9945 68.7425 22.8943 68.9843 22.8246C69.2261 22.7527 69.4921 22.7168 69.7822 22.7168C70.0695 22.7168 70.3327 22.7516 70.5716 22.8214C70.8106 22.8911 71.0182 22.9902 71.1946 23.1187C71.371 23.245 71.5061 23.3975 71.6 23.5761C71.6967 23.7526 71.745 23.9475 71.745 24.161C71.745 24.3462 71.718 24.5041 71.664 24.6348C71.6099 24.7633 71.5331 24.8624 71.4335 24.9321C71.334 24.9997 71.2188 25.0334 71.0879 25.0334C70.9542 25.0334 70.8461 25.0029 70.7636 24.9419C70.6811 24.881 70.6399 24.7949 70.6399 24.6838V24.3963L70.6783 24.1774L70.6356 23.8931V23.3507H70.8319V24.6413C70.8319 24.735 70.8589 24.8014 70.913 24.8407C70.967 24.8799 71.0339 24.8995 71.1135 24.8995C71.2074 24.8995 71.2885 24.8711 71.3567 24.8145C71.4279 24.7557 71.4819 24.6718 71.5189 24.5629C71.5587 24.454 71.5786 24.3211 71.5786 24.1643C71.5786 23.9661 71.5345 23.7863 71.4463 23.6252C71.361 23.4618 71.2373 23.3213 71.0751 23.2037C70.9158 23.086 70.7267 22.9967 70.5076 22.9357C70.2886 22.8725 70.0468 22.841 69.7822 22.841C69.5177 22.841 69.2745 22.8736 69.0526 22.939C68.8307 23.0043 68.6401 23.0969 68.4808 23.2167C68.3215 23.3365 68.1978 23.4792 68.1096 23.6448C68.0243 23.8081 67.9816 23.99 67.9816 24.1904C67.9816 24.3887 68.0243 24.5705 68.1096 24.7361C68.1949 24.9016 68.3158 25.0443 68.4723 25.1641C68.6316 25.2861 68.8208 25.3798 69.0398 25.4451C69.2588 25.5105 69.5006 25.5432 69.7652 25.5432C69.8932 25.5432 70.0297 25.5312 70.1748 25.5072C70.3227 25.4854 70.4578 25.4495 70.5802 25.3994L70.6356 25.5203C70.5105 25.5704 70.3682 25.6074 70.2089 25.6314C70.0496 25.6575 69.9017 25.6706 69.7652 25.6706ZM69.731 25.0334C69.5291 25.0334 69.347 24.9975 69.1849 24.9256C69.0256 24.8515 68.899 24.7503 68.8051 24.6217C68.7141 24.4932 68.6686 24.3473 68.6686 24.1839C68.6686 24.0183 68.7141 23.8724 68.8051 23.7461C68.899 23.6197 69.0256 23.5206 69.1849 23.4487C69.347 23.3746 69.5291 23.3376 69.731 23.3376C69.9302 23.3376 70.1065 23.3725 70.2601 23.4422C70.4166 23.5119 70.5389 23.6099 70.6271 23.7362C70.7181 23.8626 70.7636 24.0118 70.7636 24.1839C70.7636 24.3538 70.7181 24.503 70.6271 24.6315C70.5389 24.7601 70.418 24.8592 70.2644 24.9289C70.1108 24.9986 69.933 25.0334 69.731 25.0334ZM69.7524 24.8962C69.923 24.8962 70.0752 24.8668 70.2089 24.808C70.3426 24.747 70.4479 24.6631 70.5247 24.5564C70.6015 24.4496 70.6399 24.3255 70.6399 24.1839C70.6399 24.0401 70.6015 23.916 70.5247 23.8114C70.4479 23.7047 70.3426 23.6219 70.2089 23.5631C70.0752 23.5043 69.923 23.4749 69.7524 23.4749C69.5845 23.4749 69.4338 23.5043 69.3001 23.5631C69.1664 23.6219 69.0611 23.7047 68.9843 23.8114C68.9075 23.9181 68.8691 24.0423 68.8691 24.1839C68.8691 24.3233 68.9075 24.4475 68.9843 24.5564C69.0611 24.6631 69.1664 24.747 69.3001 24.808C69.4338 24.8668 69.5845 24.8962 69.7524 24.8962Z" fill="#16141F"/>
<path d="M82.564 22.7175C82.2767 22.7175 82.0121 22.6804 81.7703 22.6064C81.5314 22.5345 81.3237 22.4321 81.1474 22.2992C80.9738 22.1685 80.8402 22.0139 80.7463 21.8352C80.6524 21.6544 80.6055 21.4551 80.6055 21.2373C80.6055 21.0195 80.6524 20.8202 80.7463 20.6394C80.843 20.4586 80.9795 20.3028 81.1559 20.1721C81.3323 20.0414 81.5414 19.9412 81.7831 19.8715C82.0249 19.7996 82.2909 19.7637 82.5811 19.7637C82.8684 19.7637 83.1315 19.7985 83.3705 19.8682C83.6094 19.9379 83.8171 20.0371 83.9934 20.1656C84.1698 20.2919 84.3049 20.4444 84.3988 20.623C84.4955 20.7995 84.5439 20.9944 84.5439 21.2079C84.5439 21.3931 84.5168 21.551 84.4628 21.6817C84.4087 21.8102 84.3319 21.9093 84.2324 21.979C84.1328 22.0465 84.0176 22.0803 83.8868 22.0803C83.7531 22.0803 83.645 22.0498 83.5625 21.9888C83.48 21.9278 83.4387 21.8418 83.4387 21.7307V21.4432L83.4771 21.2242L83.4345 20.94V20.3976H83.6307V21.6882C83.6307 21.7819 83.6578 21.8483 83.7118 21.8875C83.7659 21.9267 83.8327 21.9463 83.9124 21.9463C84.0062 21.9463 84.0873 21.918 84.1556 21.8614C84.2267 21.8026 84.2807 21.7187 84.3177 21.6098C84.3575 21.5009 84.3775 21.368 84.3775 21.2112C84.3775 21.0129 84.3334 20.8332 84.2452 20.672C84.1598 20.5087 84.0361 20.3682 83.874 20.2505C83.7147 20.1329 83.5255 20.0436 83.3064 19.9826C83.0874 19.9194 82.8456 19.8878 82.5811 19.8878C82.3165 19.8878 82.0733 19.9205 81.8514 19.9859C81.6295 20.0512 81.4389 20.1438 81.2796 20.2636C81.1203 20.3834 80.9966 20.5261 80.9084 20.6916C80.8231 20.855 80.7804 21.0369 80.7804 21.2373C80.7804 21.4355 80.8231 21.6174 80.9084 21.783C80.9938 21.9485 81.1147 22.0912 81.2711 22.211C81.4304 22.333 81.6196 22.4267 81.8386 22.492C82.0577 22.5574 82.2994 22.59 82.564 22.59C82.692 22.59 82.8285 22.5781 82.9736 22.5541C83.1215 22.5323 83.2567 22.4964 83.379 22.4463L83.4345 22.5672C83.3093 22.6173 83.1671 22.6543 83.0078 22.6783C82.8485 22.7044 82.7005 22.7175 82.564 22.7175ZM82.5299 22.0803C82.3279 22.0803 82.1458 22.0444 81.9837 21.9725C81.8244 21.8984 81.6978 21.7971 81.6039 21.6686C81.5129 21.5401 81.4674 21.3941 81.4674 21.2308C81.4674 21.0652 81.5129 20.9193 81.6039 20.7929C81.6978 20.6666 81.8244 20.5675 81.9837 20.4956C82.1458 20.4215 82.3279 20.3845 82.5299 20.3845C82.729 20.3845 82.9054 20.4193 83.059 20.4891C83.2154 20.5588 83.3377 20.6568 83.4259 20.7831C83.5169 20.9095 83.5625 21.0587 83.5625 21.2308C83.5625 21.4007 83.5169 21.5499 83.4259 21.6784C83.3377 21.8069 83.2168 21.906 83.0632 21.9757C82.9096 22.0455 82.7318 22.0803 82.5299 22.0803ZM82.5512 21.9431C82.7219 21.9431 82.8741 21.9137 83.0078 21.8549C83.1415 21.7939 83.2467 21.71 83.3235 21.6033C83.4003 21.4965 83.4387 21.3724 83.4387 21.2308C83.4387 21.087 83.4003 20.9628 83.3235 20.8583C83.2467 20.7515 83.1415 20.6688 83.0078 20.6099C82.8741 20.5511 82.7219 20.5217 82.5512 20.5217C82.3834 20.5217 82.2326 20.5511 82.0989 20.6099C81.9652 20.6688 81.86 20.7515 81.7831 20.8583C81.7063 20.965 81.6679 21.0892 81.6679 21.2308C81.6679 21.3702 81.7063 21.4943 81.7831 21.6033C81.86 21.71 81.9652 21.7939 82.0989 21.8549C82.2326 21.9137 82.3834 21.9431 82.5512 21.9431Z" fill="#16141F"/>
</svg>
