<svg width="118" height="70" viewBox="0 0 118 70" fill="none" xmlns="http://www.w3.org/2000/svg">
<path d="M1.85976 58.1884V62.5165H9.12158H106.484H111.863V58.1884H108.097H93.3048H85.7741H70.9815H63.9886H62.3749H50.0029H40.0515H31.9828H27.9485H14.9041H6.96993H1.85976Z" fill="#FAF9F9"/>
<path d="M9.12158 62.5165L15.3076 69.0086H98.415L106.484 62.5165H9.12158Z" fill="#FAF9F9"/>
<path d="M6.43201 48.8936C14.0974 48.7591 15.8746 50.5787 15.6812 51.6963C16.6531 49.2266 18.5637 46.999 22.0315 46.2577C21.0993 43.6987 17.6613 41.6913 14.2317 40.3823C10.7349 39.0476 7.24672 38.4391 6.43201 38.7122C5.14103 39.145 5.8941 45.6801 6.43201 48.8936Z" fill="#FAF9F9"/>
<path d="M108.097 58.1884C110.339 55.6637 114.337 49.8029 112.401 46.5568C111.803 46.5267 111.131 46.5241 110.405 46.5568C106.596 46.7288 101.317 47.8771 97.5474 51.1553C95.5812 52.8655 94.026 55.1552 93.3048 58.1884H108.097Z" fill="#FAF9F9"/>
<path d="M93.3048 58.1884C94.026 55.1552 95.5812 52.8655 97.5474 51.1553C97.9263 48.27 98.0385 42.4451 95.4565 42.2287C92.2298 41.9583 83.089 45.7434 82.0095 51.4216C83.8687 53.2226 85.1735 56.1749 85.7741 58.1884H93.3048Z" fill="#FAF9F9"/>
<path d="M70.9815 58.1884C70.8918 56.5654 71.8959 52.7242 76.6296 50.3438C73.94 45.6551 67.3775 36.9269 62.6438 39.5237C62.3894 41.1447 62.1295 43.3416 61.9875 45.6713C63.0246 45.4178 64.1386 45.2554 65.3334 45.2043C66.0506 48.9913 66.463 56.89 62.3749 58.1884H63.9886H70.9815Z" fill="#FAF9F9"/>
<path d="M50.0029 58.1884H62.3749C66.463 56.89 66.0506 48.9913 65.3334 45.2043C64.1386 45.2554 63.0246 45.4178 61.9875 45.6713C61.5661 45.7743 61.1574 45.8924 60.7612 46.0242C58.1248 46.9007 56.0392 48.3833 54.4273 50.0733C51.8315 52.795 50.4641 56.0548 50.0029 58.1884Z" fill="#FAF9F9"/>
<path d="M40.0515 58.1884C39.862 52.8499 41.209 49.7623 43.1679 48.1798C43.1153 45.1141 42.4183 38.9827 40.0515 38.9827C37.1977 38.9827 29.5511 44.7961 28.8086 47.1263C32.4665 49.4887 32.5891 55.0042 31.9828 58.1884H40.0515Z" fill="#FAF9F9"/>
<path d="M14.9041 58.1884C14.6862 56.4745 14.7818 53.9818 15.6812 51.6963C15.8746 50.5787 14.0974 48.7591 6.43201 48.8936C4.82139 48.9218 2.95081 49.0364 0.783936 49.2618C1.77011 52.2374 4.38795 58.1884 6.96993 58.1884H14.9041Z" fill="#FAF9F9"/>
<path d="M27.9485 58.1884H31.9828C32.5891 55.0042 32.4665 49.4887 28.8086 47.1263C27.5982 46.3446 26.0006 45.9082 23.9142 46.0158C23.5414 46.035 23.1829 46.0689 22.8383 46.1165C22.5604 46.1548 22.2916 46.2021 22.0315 46.2577C18.5637 46.999 16.6531 49.2266 15.6812 51.6963C14.7818 53.9818 14.6862 56.4745 14.9041 58.1884H27.9485Z" fill="#FAF9F9"/>
<path d="M50.0029 58.1884C50.4641 56.0548 51.8315 52.795 54.4273 50.0733C53.5259 48.8857 51.8745 47.7908 50.0029 47.2159C47.7336 46.5188 45.1405 46.5862 43.1679 48.1798C41.209 49.7623 39.862 52.8499 40.0515 58.1884H50.0029Z" fill="#FAF9F9"/>
<path d="M70.9815 58.1884H85.7741C85.1735 56.1749 83.8687 53.2226 82.0095 51.4216C80.5385 49.9966 78.7205 49.2923 76.6296 50.3438C71.8959 52.7242 70.8918 56.5654 70.9815 58.1884Z" fill="#FAF9F9"/>
<path fill-rule="evenodd" clip-rule="evenodd" d="M95.4565 42.2287C98.0385 42.4451 97.9263 48.27 97.5474 51.1553C101.317 47.8771 106.596 46.7288 110.405 46.5568C112.252 43.5272 106.767 40.2451 103.794 38.9827C102.203 35.9488 100.476 33.14 98.6499 30.5423C100.118 24.3702 104.417 19.0241 106.484 16.8015L105.208 14.908L102.475 10.8505L100.836 8.41594C100.764 8.77549 94.4773 12.5186 84.0216 15.1174C72.1481 5.8134 59.7521 2.0919 52.9614 1.42987C17.2926 -2.42773 12.2796 25.7908 14.2317 40.3823C17.6613 41.6913 21.0993 43.6987 22.0315 46.2577C22.2916 46.2021 22.5604 46.1548 22.8383 46.1165C23.1829 46.0689 23.5414 46.035 23.9142 46.0158C26.0006 45.9082 27.5982 46.3446 28.8086 47.1263C29.5511 44.7961 37.1977 38.9827 40.0515 38.9827C42.4183 38.9827 43.1153 45.1141 43.1679 48.1798C45.1405 46.5862 47.7336 46.5188 50.0029 47.2159C51.8745 47.7908 53.5259 48.8857 54.4273 50.0733C56.0392 48.3833 58.1248 46.9007 60.7612 46.0242C61.1574 45.8924 61.5661 45.7743 61.9875 45.6713C62.1295 43.3416 62.3894 41.1447 62.6438 39.5237C67.3775 36.9269 73.94 45.6551 76.6296 50.3438C78.7205 49.2923 80.5385 49.9966 82.0095 51.4216C83.089 45.7434 92.2298 41.9583 95.4565 42.2287Z" fill="#FAF9F9"/>
<path d="M1.85976 58.1884V57.6961H1.36746V58.1884H1.85976ZM1.85976 62.5165H1.36746V63.0088H1.85976V62.5165ZM111.863 62.5165V63.0088H112.355V62.5165H111.863ZM111.863 58.1884H112.355V57.6961H111.863V58.1884ZM15.3076 69.0086L14.9512 69.3482L15.0967 69.5009H15.3076V69.0086ZM98.415 69.0086V69.5009H98.5885L98.7236 69.3921L98.415 69.0086ZM112.401 46.5568L112.824 46.3046L112.689 46.0784L112.425 46.0651L112.401 46.5568ZM97.5474 51.1553L97.8705 51.5268L97.5474 51.1553ZM76.6296 50.3438L76.8507 50.7836L76.6296 50.3438ZM62.6438 39.5237L62.4071 39.0921L62.195 39.2084L62.1575 39.4473L62.6438 39.5237ZM65.3334 45.2043L65.8171 45.1127L65.7379 44.6942L65.3124 44.7124L65.3334 45.2043ZM23.9142 46.0158L23.9395 46.5074L23.9142 46.0158ZM15.6812 51.6963L16.1393 51.8766L15.6812 51.6963ZM0.783936 49.2618L0.73299 48.7722L0.124017 48.8355L0.316633 49.4167L0.783936 49.2618ZM6.43201 38.7122L6.27553 38.2454L6.43201 38.7122ZM22.0315 46.2577L22.1344 46.7391L22.0315 46.2577ZM14.2317 40.3823L14.0562 40.8422L14.2317 40.3823ZM52.9614 1.42987L52.9085 1.91935L52.9137 1.91985L52.9614 1.42987ZM103.794 38.9827L103.358 39.2114L103.44 39.3671L103.602 39.4359L103.794 38.9827ZM110.405 46.5568L110.428 47.0486L110.405 46.5568ZM60.7612 46.0242L60.9165 46.4913L60.7612 46.0242ZM75.2848 16.8015L75.3524 17.2892L75.2848 16.8015ZM100.836 8.41594L101.244 8.14092L100.583 7.16022L100.353 8.31993L100.836 8.41594ZM106.484 16.8015L106.844 17.1368L107.11 16.8506L106.892 16.5265L106.484 16.8015ZM111.056 1.38287L111.277 0.943051V0.943051L111.056 1.38287ZM112.401 5.16991L111.929 5.02919L111.732 5.69068L112.421 5.66178L112.401 5.16991ZM110.518 10.58L110.629 10.1004L110.394 10.0458L110.207 10.1984L110.518 10.58ZM105.208 14.908L104.8 15.183V15.183L105.208 14.908ZM50.0029 47.2159L49.8584 47.6865L50.0029 47.2159ZM47.0444 38.1713L47.3935 37.8242L47.0444 38.1713ZM84.0216 15.1174L84.1403 15.5952L84.0216 15.1174ZM98.6499 30.5423L98.1709 30.4284L98.6499 30.5423ZM1.36746 58.1884V62.5165H2.35206V58.1884H1.36746ZM112.355 62.5165V58.1884H111.371V62.5165H112.355ZM1.85976 63.0088H9.12158V62.0242H1.85976V63.0088ZM8.76517 62.8561L14.9512 69.3482L15.664 68.6689L9.47798 62.1769L8.76517 62.8561ZM15.3076 69.5009H98.415V68.5163H15.3076V69.5009ZM9.12158 63.0088H106.484V62.0242H9.12158V63.0088ZM106.484 63.0088H111.863V62.0242H106.484V63.0088ZM98.7236 69.3921L106.792 62.9L106.175 62.1329L98.1064 68.625L98.7236 69.3921ZM111.863 57.6961H108.097V58.6807H111.863V57.6961ZM108.466 58.5153C109.608 57.2287 111.198 55.0939 112.261 52.8542C112.792 51.7342 113.202 50.567 113.349 49.4529C113.495 48.3379 113.382 47.241 112.824 46.3046L111.978 46.809C112.388 47.4956 112.501 48.3487 112.372 49.3244C112.244 50.3011 111.877 51.3655 111.371 52.4321C110.358 54.5655 108.828 56.6235 107.729 57.8616L108.466 58.5153ZM108.097 57.6961H93.3048V58.6807H108.097V57.6961ZM97.2244 50.7839C95.187 52.5559 93.5728 54.9333 92.8259 58.0746L93.7838 58.3023C94.4793 55.3772 95.9754 53.1751 97.8705 51.5268L97.2244 50.7839ZM98.0356 51.2194C98.2282 49.7524 98.3554 47.528 98.1002 45.6257C97.9731 44.6781 97.746 43.7692 97.3557 43.0693C96.9599 42.3595 96.3605 41.8105 95.4976 41.7381L95.4154 42.7193C95.8435 42.7552 96.1983 43.0154 96.4958 43.5488C96.7988 44.0921 97.0041 44.8603 97.1244 45.7566C97.3639 47.5422 97.2456 49.6729 97.0593 51.0912L98.0356 51.2194ZM93.3048 57.6961H85.7741V58.6807H93.3048V57.6961ZM85.7741 57.6961H70.9815V58.6807H85.7741V57.6961ZM76.4084 49.904C71.4946 52.375 70.3898 56.4027 70.4899 58.2156L71.473 58.1613C71.3939 56.7281 72.2972 53.0735 76.8507 50.7836L76.4084 49.904ZM77.0566 50.0988C75.6977 47.73 73.3572 44.3324 70.7426 41.845C69.4366 40.6026 68.0355 39.5613 66.6299 39.002C65.2138 38.4386 63.7552 38.3525 62.4071 39.0921L62.8806 39.9553C63.8993 39.3965 65.0361 39.4276 66.2659 39.9169C67.5061 40.4103 68.8013 41.3572 70.0639 42.5583C72.5863 44.958 74.8718 48.2689 76.2025 50.5888L77.0566 50.0988ZM70.9815 57.6961H63.9886V58.6807H70.9815V57.6961ZM63.9886 57.6961H62.3749V58.6807H63.9886V57.6961ZM62.3749 57.6961H50.0029V58.6807H62.3749V57.6961ZM64.8497 45.2959C65.2023 47.1576 65.4777 50.0255 65.1675 52.57C65.0123 53.8426 64.7141 55.0039 64.2285 55.9124C63.7466 56.814 63.0944 57.4434 62.2259 57.7192L62.5239 58.6576C63.6994 58.2843 64.5287 57.4395 65.0969 56.3765C65.6613 55.3205 65.9817 54.027 66.1448 52.6892C66.4711 50.013 66.1817 47.038 65.8171 45.1127L64.8497 45.2959ZM50.4841 58.2924C50.9286 56.2362 52.2578 53.0614 54.7836 50.4131L54.0711 49.7336C51.4052 52.5287 49.9996 55.8734 49.5217 58.0844L50.4841 58.2924ZM42.8586 47.7969C40.7282 49.5179 39.3673 52.7926 39.5595 58.2059L40.5435 58.171C40.3566 52.9071 41.6898 50.0067 43.4773 48.5628L42.8586 47.7969ZM43.6602 48.1714C43.6335 46.6171 43.4441 44.2776 42.9553 42.3128C42.7118 41.3341 42.3854 40.4118 41.9441 39.723C41.5057 39.0388 40.8877 38.4904 40.0515 38.4904V39.475C40.3988 39.475 40.7555 39.693 41.1151 40.2542C41.4717 40.8109 41.7666 41.6131 41.9998 42.5505C42.4643 44.4177 42.6498 46.6768 42.6757 48.1883L43.6602 48.1714ZM50.0029 57.6961H31.9828V58.6807H50.0029V57.6961ZM31.9828 57.6961H27.9485V58.6807H31.9828V57.6961ZM27.9485 57.6961H14.9041V58.6807H27.9485V57.6961ZM15.2231 51.5161C14.287 53.8948 14.1898 56.4739 14.4158 58.2505L15.3925 58.1263C15.1825 56.4751 15.2766 54.0688 16.1393 51.8766L15.2231 51.5161ZM14.9041 57.6961H6.96993V58.6807H14.9041V57.6961ZM6.96993 57.6961H1.85976V58.6807H6.96993V57.6961ZM0.316633 49.4167C0.816959 50.9263 1.73113 53.1927 2.85483 55.0917C3.41589 56.0398 4.04189 56.9182 4.71024 57.5657C5.36943 58.2043 6.13503 58.6807 6.96993 58.6807V57.6961C6.51384 57.6961 5.98396 57.4287 5.39531 56.8585C4.81581 56.2971 4.24159 55.5018 3.70218 54.5902C2.62492 52.7698 1.73708 50.5729 1.25124 49.1069L0.316633 49.4167ZM16.1663 51.7803C16.3239 50.8698 15.638 49.9767 14.194 49.3714C12.7235 48.7549 10.2832 48.3336 6.42338 48.4013L6.44065 49.3858C10.2462 49.319 12.5272 49.7403 13.8133 50.2794C15.1259 50.8296 15.232 51.4052 15.1961 51.6124L16.1663 51.7803ZM6.42338 48.4013C4.79641 48.4299 2.91153 48.5455 0.73299 48.7722L0.834881 49.7515C2.99009 49.5272 4.84638 49.4138 6.44065 49.3858L6.42338 48.4013ZM6.91756 48.8123C6.65048 47.2168 6.33091 44.8008 6.23798 42.738C6.19135 41.703 6.20306 40.7811 6.29917 40.1028C6.34751 39.7616 6.41356 39.5101 6.48821 39.3442C6.56711 39.1689 6.61815 39.169 6.5885 39.179L6.27553 38.2454C5.92314 38.3636 5.7153 38.6626 5.59038 38.9401C5.46122 39.227 5.3785 39.5821 5.3243 39.9647C5.21533 40.7338 5.20687 41.7277 5.25438 42.7823C5.34972 44.8986 5.67563 47.3569 5.94647 48.9748L6.91756 48.8123ZM21.9286 45.7762C18.2681 46.5588 16.2427 48.9252 15.2231 51.5161L16.1393 51.8766C17.0635 49.5281 18.8593 47.4392 22.1344 46.7391L21.9286 45.7762ZM6.5885 39.179C6.68702 39.1459 6.96616 39.1214 7.46362 39.161C7.93458 39.1985 8.53592 39.2871 9.22866 39.4269C10.6133 39.7064 12.3334 40.1847 14.0562 40.8422L14.4073 39.9223C12.6333 39.2453 10.8609 38.7519 9.42349 38.4618C8.70525 38.3168 8.06323 38.221 7.54174 38.1795C7.04675 38.1401 6.58436 38.1419 6.27553 38.2454L6.5885 39.179ZM14.0562 40.8422C15.7478 41.4879 17.4248 42.2998 18.7854 43.2542C20.1541 44.2144 21.1527 45.2836 21.5689 46.4262L22.494 46.0892C21.978 44.6727 20.7915 43.4588 19.3508 42.4482C17.9021 41.4319 16.1453 40.5857 14.4073 39.9223L14.0562 40.8422ZM14.7197 40.317C13.7531 33.0921 14.5191 22.5211 19.9013 14.2563C25.252 6.03978 35.2275 0.00711405 52.9085 1.91932L53.0144 0.940428C35.0265 -1.00497 24.6611 5.14283 19.0762 13.719C13.5227 22.247 12.7583 33.081 13.7438 40.4476L14.7197 40.317ZM112.425 46.0651C111.811 46.0342 111.123 46.0316 110.383 46.065L110.428 47.0486C111.138 47.0165 111.795 47.0193 112.376 47.0485L112.425 46.0651ZM110.383 46.065C106.519 46.2394 101.112 47.4027 97.2244 50.7839L97.8705 51.5268C101.521 48.3515 106.673 47.2181 110.428 47.0486L110.383 46.065ZM103.602 39.4359C105.061 40.0555 107.122 41.1662 108.578 42.4734C109.308 43.1285 109.851 43.8022 110.112 44.4554C110.364 45.0852 110.355 45.6932 109.985 46.3006L110.826 46.813C111.379 45.9057 111.377 44.9672 111.027 44.0902C110.686 43.2365 110.018 42.4426 109.236 41.7407C107.669 40.3339 105.5 39.1723 103.987 38.5296L103.602 39.4359ZM54.7836 50.4131C56.3478 48.7731 58.3666 47.3391 60.9165 46.4913L60.6058 45.557C57.883 46.4623 55.7307 47.9935 54.0711 49.7336L54.7836 50.4131ZM61.2041 45.8094C59.4469 42.185 57.9144 35.7192 59.3607 29.8382C60.0809 26.9096 61.5371 24.1343 64.066 21.914C66.5958 19.6929 70.2304 17.9997 75.3524 17.2892L75.2171 16.3139C69.9451 17.0453 66.119 18.8013 63.4164 21.1741C60.7129 23.5477 59.165 26.511 58.4046 29.603C56.8896 35.7632 58.4893 42.4668 60.3182 46.2389L61.2041 45.8094ZM97.6538 34.6547C97.6538 37.3405 97.3846 38.9513 96.9528 39.9749C96.5372 40.9602 95.9619 41.4235 95.2354 41.7889L95.6777 42.6685C96.5648 42.2225 97.3343 41.6038 97.86 40.3575C98.3696 39.1495 98.6384 37.379 98.6384 34.6547H97.6538ZM100.427 8.69096L102.067 11.1255L102.884 10.5754L101.244 8.14092L100.427 8.69096ZM102.751 11.2587C103.562 10.7117 104.78 9.83579 105.801 8.98301C106.309 8.55779 106.781 8.12818 107.13 7.74126C107.303 7.54832 107.457 7.35439 107.571 7.16765C107.676 6.99303 107.783 6.76665 107.783 6.52242H106.798C106.798 6.4946 106.804 6.53196 106.728 6.65743C106.66 6.77078 106.55 6.91328 106.398 7.08214C106.095 7.41882 105.664 7.81424 105.169 8.22758C104.183 9.05192 102.994 9.90724 102.2 10.4423L102.751 11.2587ZM107.783 6.52242C107.783 6.32796 107.865 5.8618 108.048 5.25204C108.226 4.65818 108.484 3.97838 108.803 3.3694C109.126 2.75088 109.489 2.25064 109.859 1.96856C110.039 1.83111 110.203 1.75837 110.352 1.73506C110.495 1.71275 110.652 1.73087 110.835 1.82269L111.277 0.943051C110.922 0.764367 110.558 0.706406 110.2 0.762285C109.849 0.817171 109.535 0.976895 109.261 1.18603C108.723 1.59712 108.279 2.24651 107.93 2.91288C107.577 3.58879 107.297 4.32913 107.105 4.96943C106.918 5.59384 106.798 6.17588 106.798 6.52242H107.783ZM110.835 1.82269C111.533 2.17397 111.862 2.7511 111.993 3.36545C112.127 3.99571 112.045 4.64128 111.929 5.02919L112.872 5.31063C113.026 4.79686 113.131 3.98172 112.956 3.16028C112.778 2.32293 112.3 1.45738 111.277 0.943051L110.835 1.82269ZM112.421 5.66178C113.478 5.61748 114.878 5.71696 115.753 6.1009C116.192 6.29312 116.393 6.5094 116.452 6.7106C116.508 6.90244 116.484 7.25592 116.04 7.85115L116.83 8.43974C117.354 7.73655 117.579 7.0576 117.397 6.434C117.217 5.81975 116.692 5.43753 116.149 5.19921C115.061 4.72204 113.475 4.63217 112.38 4.67804L112.421 5.66178ZM116.04 7.85115C114.251 10.2509 111.659 10.3393 110.629 10.1004L110.407 11.0595C111.708 11.3616 114.746 11.2336 116.83 8.43974L116.04 7.85115ZM102.067 11.1255L104.8 15.183L105.617 14.633L102.884 10.5754L102.067 11.1255ZM104.8 15.183L106.075 17.0766L106.892 16.5265L105.617 14.633L104.8 15.183ZM110.207 10.1984L104.897 14.5264L105.519 15.2896L110.829 10.9616L110.207 10.1984ZM54.8195 49.7757C53.8426 48.4887 52.0948 47.3434 50.1475 46.7453L49.8584 47.6865C51.6543 48.2381 53.2092 49.2827 54.0352 50.371L54.8195 49.7757ZM50.1475 46.7453C47.7842 46.0194 45.0021 46.0652 42.8586 47.7969L43.4773 48.5628C45.279 47.1073 47.683 47.0183 49.8584 47.6865L50.1475 46.7453ZM50.4947 47.2387C50.5416 46.2265 50.4433 44.5661 50.0028 42.822C49.5632 41.0814 48.7706 39.2091 47.3935 37.8242L46.6953 38.5184C47.9002 39.7302 48.6316 41.4138 49.0482 43.0631C49.4639 44.7089 49.5538 46.2724 49.5111 47.1931L50.4947 47.2387ZM47.3935 37.8242C47.1284 37.5576 47.0163 37.1868 47.0871 36.6453C47.1597 36.0895 47.4217 35.4063 47.8479 34.613C48.699 33.0286 50.1172 31.1599 51.6025 29.2417C53.073 27.3425 54.608 25.3965 55.6347 23.7055C56.148 22.8601 56.5531 22.0489 56.7558 21.3163C56.9571 20.589 56.9804 19.8569 56.6088 19.2496L55.769 19.7635C55.9353 20.0353 55.9755 20.4444 55.8069 21.0538C55.6398 21.6578 55.2884 22.3788 54.7931 23.1945C53.8027 24.8256 52.3119 26.7173 50.824 28.6389C49.3507 30.5416 47.8777 32.4769 46.9805 34.147C46.5326 34.9809 46.2062 35.7876 46.1108 36.5177C46.0135 37.2622 46.1535 37.9734 46.6953 38.5184L47.3935 37.8242ZM23.8888 45.5241C23.5025 45.5441 23.13 45.5792 22.771 45.6288L22.9056 46.6041C23.2358 46.5586 23.5802 46.526 23.9395 46.5074L23.8888 45.5241ZM22.771 45.6288C22.4815 45.6687 22.2007 45.7181 21.9286 45.7762L22.1344 46.7391C22.3824 46.6861 22.6394 46.6409 22.9056 46.6041L22.771 45.6288ZM56.6088 19.2496C56.3784 18.8731 55.973 18.6688 55.5461 18.5598C55.1116 18.4488 54.5796 18.4163 53.9841 18.4426C52.7898 18.4951 51.2403 18.789 49.4822 19.2868C45.9602 20.2839 41.518 22.1234 37.2484 24.6132C32.9817 27.1014 28.8571 30.2567 25.998 33.899C23.1362 37.5447 21.513 41.7198 22.3545 46.2072L23.3222 46.0257C22.5499 41.9073 24.0197 38.0138 26.7724 34.507C29.5278 30.9969 33.5391 27.9161 37.7444 25.4637C41.947 23.013 46.3131 21.2073 49.7504 20.2341C51.4719 19.7467 52.9397 19.4741 54.0274 19.4262C54.5728 19.4022 54.998 19.436 55.3025 19.5138C55.6148 19.5935 55.7304 19.7005 55.769 19.7635L56.6088 19.2496ZM75.3524 17.2892C78.5293 16.8485 81.4698 16.259 84.1403 15.5952L83.9028 14.6397C81.264 15.2956 78.3576 15.8782 75.2171 16.3139L75.3524 17.2892ZM84.1403 15.5952C89.3988 14.2882 93.6126 12.6926 96.5255 11.3756C97.9816 10.7172 99.1159 10.127 99.8955 9.67522C100.284 9.44992 100.591 9.25555 100.807 9.10154C100.914 9.0254 101.008 8.95261 101.081 8.88601C101.117 8.85321 101.158 8.81354 101.194 8.76889C101.218 8.73877 101.292 8.64626 101.318 8.51196L100.353 8.31993C100.366 8.25551 100.389 8.21069 100.4 8.19102C100.413 8.1689 100.424 8.15486 100.428 8.14997C100.435 8.14072 100.435 8.1428 100.419 8.1578C100.387 8.1868 100.328 8.23384 100.236 8.29953C100.054 8.4292 99.7758 8.60655 99.4018 8.82334C98.6557 9.25574 97.5514 9.83114 96.1199 10.4784C93.2576 11.7725 89.1001 13.3479 83.9028 14.6397L84.1403 15.5952ZM52.9137 1.91985C59.6109 2.57277 71.9182 6.25868 83.7179 15.505L84.3252 14.7299C72.378 5.36812 59.8933 1.61103 53.0092 0.939897L52.9137 1.91985ZM98.2472 30.8255C100.062 33.406 101.777 36.1965 103.358 39.2114L104.23 38.754C102.629 35.701 100.891 32.8741 99.0526 30.2592L98.2472 30.8255ZM106.123 16.4663C104.038 18.7087 99.6685 24.1311 98.1709 30.4284L99.1288 30.6562C100.567 24.6093 104.796 19.3396 106.844 17.1368L106.123 16.4663ZM98.1709 30.4284C97.8447 31.8001 97.6538 33.2172 97.6538 34.6547H98.6384C98.6384 33.3042 98.8178 31.964 99.1288 30.6562L98.1709 30.4284ZM60.9165 46.4913C61.3001 46.3638 61.696 46.2494 62.1044 46.1496L61.8706 45.1931C61.4362 45.2993 61.0147 45.4211 60.6058 45.557L60.9165 46.4913ZM62.1044 46.1496C63.1094 45.9039 64.1912 45.7459 65.3545 45.6961L65.3124 44.7124C64.0859 44.7649 62.9398 44.9318 61.8706 45.1931L62.1044 46.1496ZM62.1575 39.4473C61.9007 41.0831 61.6391 43.2954 61.4961 45.6414L62.4789 45.7013C62.6199 43.3878 62.878 41.2064 63.1302 39.6L62.1575 39.4473ZM50.0029 57.6961H40.0515V58.6807H50.0029V57.6961ZM40.0515 57.6961H31.9828V58.6807H40.0515V57.6961ZM32.4665 58.2805C32.7787 56.6405 32.9046 54.4003 32.4776 52.2532C32.051 50.1077 31.0577 47.9928 29.0757 46.7128L28.5416 47.5399C30.2175 48.6222 31.1144 50.4463 31.5119 52.4452C31.9092 54.4425 31.7932 56.5521 31.4992 58.0964L32.4665 58.2805ZM29.2777 47.2758C29.3461 47.061 29.5095 46.7667 29.7821 46.4023C30.0501 46.044 30.4043 45.6433 30.8267 45.2176C31.6713 44.3663 32.7659 43.4374 33.9309 42.5766C35.096 41.7157 36.3199 40.9316 37.4206 40.3652C38.5433 39.7874 39.4652 39.475 40.0515 39.475V38.4904C39.211 38.4904 38.1068 38.9047 36.97 39.4897C35.8111 40.0862 34.5418 40.901 33.3458 41.7847C32.1496 42.6686 31.0149 43.6299 30.1278 44.5241C29.6843 44.9711 29.2971 45.4068 28.9936 45.8125C28.6948 46.212 28.4568 46.6091 28.3396 46.9769L29.2777 47.2758ZM29.0757 46.7128C27.7634 45.8653 26.0591 45.4122 23.8888 45.5241L23.9395 46.5074C25.9421 46.4041 27.433 46.8239 28.5416 47.5399L29.0757 46.7128ZM28.3396 46.9769C28.3043 47.0876 28.2781 47.2013 28.2659 47.316L29.2449 47.4206C29.2488 47.384 29.2585 47.3361 29.2777 47.2758L28.3396 46.9769ZM95.4976 41.7381C94.5994 41.6629 93.3531 41.869 92.0021 42.2817C90.6394 42.698 89.1265 43.3379 87.6826 44.1676C84.8242 45.8098 82.1071 48.2725 81.5259 51.3296L82.4931 51.5135C82.9914 48.8925 85.3845 46.6235 88.1731 45.0213C89.5526 44.2287 90.9974 43.6181 92.2898 43.2233C93.594 42.8249 94.7002 42.6594 95.4154 42.7193L95.4976 41.7381ZM81.667 51.7752C83.4379 53.4907 84.7117 56.3491 85.3023 58.3292L86.2458 58.0477C85.6352 56.0006 84.2995 52.9545 82.352 51.068L81.667 51.7752ZM82.352 51.068C81.5759 50.3161 80.6797 49.7261 79.6703 49.4762C78.6498 49.2235 77.5525 49.3286 76.4084 49.904L76.8507 50.7836C77.7975 50.3075 78.6547 50.239 79.4337 50.4319C80.2238 50.6275 80.9721 51.1021 81.667 51.7752L82.352 51.068ZM81.5258 51.3299L81.525 51.3341L82.4924 51.5175L82.4932 51.5133L81.5258 51.3299Z" fill="#16141F"/>
<path d="M16.4622 69.0084C15.9017 69.0084 15.4043 68.8693 14.9699 68.591C14.5356 68.3127 14.1958 67.9179 13.9506 67.4067C13.7054 66.889 13.5828 66.2742 13.5828 65.5623C13.5828 64.8504 13.7054 64.2389 13.9506 63.7276C14.1958 63.2099 14.5356 62.8119 14.9699 62.5336C15.4043 62.2553 15.9017 62.1162 16.4622 62.1162C17.0297 62.1162 17.5271 62.2553 17.9545 62.5336C18.3888 62.8119 18.7286 63.2099 18.9738 63.7276C19.219 64.2389 19.3416 64.8504 19.3416 65.5623C19.3416 66.2742 19.219 66.889 18.9738 67.4067C18.7286 67.9179 18.3888 68.3127 17.9545 68.591C17.5271 68.8693 17.0297 69.0084 16.4622 69.0084ZM16.4622 68.5522C16.9316 68.5522 17.3414 68.4357 17.6917 68.2027C18.042 67.9632 18.3153 67.6203 18.5114 67.1737C18.7076 66.7272 18.8057 66.19 18.8057 65.5623C18.8057 64.9281 18.7076 64.391 18.5114 63.9509C18.3153 63.5044 18.042 63.1646 17.6917 62.9316C17.3414 62.6922 16.9316 62.5725 16.4622 62.5725C15.9998 62.5725 15.59 62.6922 15.2327 62.9316C14.8824 63.1646 14.6091 63.5044 14.413 63.9509C14.2168 64.391 14.1187 64.9281 14.1187 65.5623C14.1187 66.19 14.2168 66.7272 14.413 67.1737C14.6091 67.6203 14.8824 67.9632 15.2327 68.2027C15.59 68.4357 15.9998 68.5522 16.4622 68.5522Z" fill="#16141F"/>
<path d="M23.3792 69.0084C22.8187 69.0084 22.3213 68.8693 21.8869 68.591C21.4525 68.3127 21.1128 67.9179 20.8675 67.4067C20.6223 66.889 20.4997 66.2742 20.4997 65.5623C20.4997 64.8504 20.6223 64.2389 20.8675 63.7276C21.1128 63.2099 21.4525 62.8119 21.8869 62.5336C22.3213 62.2553 22.8187 62.1162 23.3792 62.1162C23.9466 62.1162 24.4441 62.2553 24.8714 62.5336C25.3058 62.8119 25.6456 63.2099 25.8908 63.7276C26.136 64.2389 26.2586 64.8504 26.2586 65.5623C26.2586 66.2742 26.136 66.889 25.8908 67.4067C25.6456 67.9179 25.3058 68.3127 24.8714 68.591C24.4441 68.8693 23.9466 69.0084 23.3792 69.0084ZM23.3792 68.5522C23.8486 68.5522 24.2584 68.4357 24.6087 68.2027C24.959 67.9632 25.2322 67.6203 25.4284 67.1737C25.6246 66.7272 25.7226 66.19 25.7226 65.5623C25.7226 64.9281 25.6246 64.391 25.4284 63.9509C25.2322 63.5044 24.959 63.1646 24.6087 62.9316C24.2584 62.6922 23.8486 62.5725 23.3792 62.5725C22.9168 62.5725 22.5069 62.6922 22.1496 62.9316C21.7993 63.1646 21.5261 63.5044 21.3299 63.9509C21.1338 64.391 21.0357 64.9281 21.0357 65.5623C21.0357 66.19 21.1338 66.7272 21.3299 67.1737C21.5261 67.6203 21.7993 67.9632 22.1496 68.2027C22.5069 68.4357 22.9168 68.5522 23.3792 68.5522Z" fill="#16141F"/>
<path d="M30.2961 69.0084C29.7357 69.0084 29.2382 68.8693 28.8039 68.591C28.3695 68.3127 28.0297 67.9179 27.7845 67.4067C27.5393 66.889 27.4167 66.2742 27.4167 65.5623C27.4167 64.8504 27.5393 64.2389 27.7845 63.7276C28.0297 63.2099 28.3695 62.8119 28.8039 62.5336C29.2382 62.2553 29.7357 62.1162 30.2961 62.1162C30.8636 62.1162 31.361 62.2553 31.7884 62.5336C32.2228 62.8119 32.5626 63.2099 32.8078 63.7276C33.053 64.2389 33.1756 64.8504 33.1756 65.5623C33.1756 66.2742 33.053 66.889 32.8078 67.4067C32.5626 67.9179 32.2228 68.3127 31.7884 68.591C31.361 68.8693 30.8636 69.0084 30.2961 69.0084ZM30.2961 68.5522C30.7655 68.5522 31.1754 68.4357 31.5257 68.2027C31.876 67.9632 32.1492 67.6203 32.3454 67.1737C32.5415 66.7272 32.6396 66.19 32.6396 65.5623C32.6396 64.9281 32.5415 64.391 32.3454 63.9509C32.1492 63.5044 31.876 63.1646 31.5257 62.9316C31.1754 62.6922 30.7655 62.5725 30.2961 62.5725C29.8338 62.5725 29.4239 62.6922 29.0666 62.9316C28.7163 63.1646 28.4431 63.5044 28.2469 63.9509C28.0507 64.391 27.9527 64.9281 27.9527 65.5623C27.9527 66.19 28.0507 66.7272 28.2469 67.1737C28.4431 67.6203 28.7163 67.9632 29.0666 68.2027C29.4239 68.4357 29.8338 68.5522 30.2961 68.5522Z" fill="#16141F"/>
<path d="M37.2131 69.0084C36.6526 69.0084 36.1552 68.8693 35.7209 68.591C35.2865 68.3127 34.9467 67.9179 34.7015 67.4067C34.4563 66.889 34.3337 66.2742 34.3337 65.5623C34.3337 64.8504 34.4563 64.2389 34.7015 63.7276C34.9467 63.2099 35.2865 62.8119 35.7209 62.5336C36.1552 62.2553 36.6526 62.1162 37.2131 62.1162C37.7806 62.1162 38.278 62.2553 38.7054 62.5336C39.1397 62.8119 39.4795 63.2099 39.7247 63.7276C39.9699 64.2389 40.0925 64.8504 40.0925 65.5623C40.0925 66.2742 39.9699 66.889 39.7247 67.4067C39.4795 67.9179 39.1397 68.3127 38.7054 68.591C38.278 68.8693 37.7806 69.0084 37.2131 69.0084ZM37.2131 68.5522C37.6825 68.5522 38.0924 68.4357 38.4427 68.2027C38.793 67.9632 39.0662 67.6203 39.2623 67.1737C39.4585 66.7272 39.5566 66.19 39.5566 65.5623C39.5566 64.9281 39.4585 64.391 39.2623 63.9509C39.0662 63.5044 38.793 63.1646 38.4427 62.9316C38.0924 62.6922 37.6825 62.5725 37.2131 62.5725C36.7507 62.5725 36.3409 62.6922 35.9836 62.9316C35.6333 63.1646 35.3601 63.5044 35.1639 63.9509C34.9677 64.391 34.8696 64.9281 34.8696 65.5623C34.8696 66.19 34.9677 66.7272 35.1639 67.1737C35.3601 67.6203 35.6333 67.9632 35.9836 68.2027C36.3409 68.4357 36.7507 68.5522 37.2131 68.5522Z" fill="#16141F"/>
<path d="M44.1301 69.0084C43.5696 69.0084 43.0722 68.8693 42.6378 68.591C42.2035 68.3127 41.8637 67.9179 41.6185 67.4067C41.3733 66.889 41.2507 66.2742 41.2507 65.5623C41.2507 64.8504 41.3733 64.2389 41.6185 63.7276C41.8637 63.2099 42.2035 62.8119 42.6378 62.5336C43.0722 62.2553 43.5696 62.1162 44.1301 62.1162C44.6976 62.1162 45.195 62.2553 45.6224 62.5336C46.0567 62.8119 46.3965 63.2099 46.6417 63.7276C46.8869 64.2389 47.0095 64.8504 47.0095 65.5623C47.0095 66.2742 46.8869 66.889 46.6417 67.4067C46.3965 67.9179 46.0567 68.3127 45.6224 68.591C45.195 68.8693 44.6976 69.0084 44.1301 69.0084ZM44.1301 68.5522C44.5995 68.5522 45.0093 68.4357 45.3596 68.2027C45.7099 67.9632 45.9832 67.6203 46.1793 67.1737C46.3755 66.7272 46.4736 66.19 46.4736 65.5623C46.4736 64.9281 46.3755 64.391 46.1793 63.9509C45.9832 63.5044 45.7099 63.1646 45.3596 62.9316C45.0093 62.6922 44.5995 62.5725 44.1301 62.5725C43.6677 62.5725 43.2579 62.6922 42.9006 62.9316C42.5503 63.1646 42.277 63.5044 42.0809 63.9509C41.8847 64.391 41.7866 64.9281 41.7866 65.5623C41.7866 66.19 41.8847 66.7272 42.0809 67.1737C42.277 67.6203 42.5503 67.9632 42.9006 68.2027C43.2579 68.4357 43.6677 68.5522 44.1301 68.5522Z" fill="#16141F"/>
<path d="M51.0471 69.0084C50.4866 69.0084 49.9892 68.8693 49.5548 68.591C49.1204 68.3127 48.7807 67.9179 48.5354 67.4067C48.2902 66.889 48.1676 66.2742 48.1676 65.5623C48.1676 64.8504 48.2902 64.2389 48.5354 63.7276C48.7807 63.2099 49.1204 62.8119 49.5548 62.5336C49.9892 62.2553 50.4866 62.1162 51.0471 62.1162C51.6145 62.1162 52.112 62.2553 52.5393 62.5336C52.9737 62.8119 53.3135 63.2099 53.5587 63.7276C53.8039 64.2389 53.9265 64.8504 53.9265 65.5623C53.9265 66.2742 53.8039 66.889 53.5587 67.4067C53.3135 67.9179 52.9737 68.3127 52.5393 68.591C52.112 68.8693 51.6145 69.0084 51.0471 69.0084ZM51.0471 68.5522C51.5165 68.5522 51.9263 68.4357 52.2766 68.2027C52.6269 67.9632 52.9001 67.6203 53.0963 67.1737C53.2925 66.7272 53.3905 66.19 53.3905 65.5623C53.3905 64.9281 53.2925 64.391 53.0963 63.9509C52.9001 63.5044 52.6269 63.1646 52.2766 62.9316C51.9263 62.6922 51.5165 62.5725 51.0471 62.5725C50.5847 62.5725 50.1748 62.6922 49.8175 62.9316C49.4672 63.1646 49.194 63.5044 48.9978 63.9509C48.8017 64.391 48.7036 64.9281 48.7036 65.5623C48.7036 66.19 48.8017 66.7272 48.9978 67.1737C49.194 67.6203 49.4672 67.9632 49.8175 68.2027C50.1748 68.4357 50.5847 68.5522 51.0471 68.5522Z" fill="#16141F"/>
<path d="M57.964 69.0084C57.4036 69.0084 56.9061 68.8693 56.4718 68.591C56.0374 68.3127 55.6976 67.9179 55.4524 67.4067C55.2072 66.889 55.0846 66.2742 55.0846 65.5623C55.0846 64.8504 55.2072 64.2389 55.4524 63.7276C55.6976 63.2099 56.0374 62.8119 56.4718 62.5336C56.9061 62.2553 57.4036 62.1162 57.964 62.1162C58.5315 62.1162 59.0289 62.2553 59.4563 62.5336C59.8907 62.8119 60.2305 63.2099 60.4757 63.7276C60.7209 64.2389 60.8435 64.8504 60.8435 65.5623C60.8435 66.2742 60.7209 66.889 60.4757 67.4067C60.2305 67.9179 59.8907 68.3127 59.4563 68.591C59.0289 68.8693 58.5315 69.0084 57.964 69.0084ZM57.964 68.5522C58.4334 68.5522 58.8433 68.4357 59.1936 68.2027C59.5439 67.9632 59.8171 67.6203 60.0133 67.1737C60.2094 66.7272 60.3075 66.19 60.3075 65.5623C60.3075 64.9281 60.2094 64.391 60.0133 63.9509C59.8171 63.5044 59.5439 63.1646 59.1936 62.9316C58.8433 62.6922 58.4334 62.5725 57.964 62.5725C57.5017 62.5725 57.0918 62.6922 56.7345 62.9316C56.3842 63.1646 56.111 63.5044 55.9148 63.9509C55.7186 64.391 55.6206 64.9281 55.6206 65.5623C55.6206 66.19 55.7186 66.7272 55.9148 67.1737C56.111 67.6203 56.3842 67.9632 56.7345 68.2027C57.0918 68.4357 57.5017 68.5522 57.964 68.5522Z" fill="#16141F"/>
<path d="M65.6927 69.0084C65.1322 69.0084 64.6348 68.8693 64.2004 68.591C63.766 68.3127 63.4263 67.9179 63.181 67.4067C62.9358 66.889 62.8132 66.2742 62.8132 65.5623C62.8132 64.8504 62.9358 64.2389 63.181 63.7276C63.4263 63.2099 63.766 62.8119 64.2004 62.5336C64.6348 62.2553 65.1322 62.1162 65.6927 62.1162C66.2601 62.1162 66.7576 62.2553 67.1849 62.5336C67.6193 62.8119 67.9591 63.2099 68.2043 63.7276C68.4495 64.2389 68.5721 64.8504 68.5721 65.5623C68.5721 66.2742 68.4495 66.889 68.2043 67.4067C67.9591 67.9179 67.6193 68.3127 67.1849 68.591C66.7576 68.8693 66.2601 69.0084 65.6927 69.0084ZM65.6927 68.5522C66.1621 68.5522 66.5719 68.4357 66.9222 68.2027C67.2725 67.9632 67.5457 67.6203 67.7419 67.1737C67.9381 66.7272 68.0361 66.19 68.0361 65.5623C68.0361 64.9281 67.9381 64.391 67.7419 63.9509C67.5457 63.5044 67.2725 63.1646 66.9222 62.9316C66.5719 62.6922 66.1621 62.5725 65.6927 62.5725C65.2303 62.5725 64.8204 62.6922 64.4631 62.9316C64.1128 63.1646 63.8396 63.5044 63.6434 63.9509C63.4473 64.391 63.3492 64.9281 63.3492 65.5623C63.3492 66.19 63.4473 66.7272 63.6434 67.1737C63.8396 67.6203 64.1128 67.9632 64.4631 68.2027C64.8204 68.4357 65.2303 68.5522 65.6927 68.5522Z" fill="#16141F"/>
<path d="M72.6096 69.0084C72.0492 69.0084 71.5517 68.8693 71.1174 68.591C70.683 68.3127 70.3432 67.9179 70.098 67.4067C69.8528 66.889 69.7302 66.2742 69.7302 65.5623C69.7302 64.8504 69.8528 64.2389 70.098 63.7276C70.3432 63.2099 70.683 62.8119 71.1174 62.5336C71.5517 62.2553 72.0492 62.1162 72.6096 62.1162C73.1771 62.1162 73.6745 62.2553 74.1019 62.5336C74.5363 62.8119 74.8761 63.2099 75.1213 63.7276C75.3665 64.2389 75.4891 64.8504 75.4891 65.5623C75.4891 66.2742 75.3665 66.889 75.1213 67.4067C74.8761 67.9179 74.5363 68.3127 74.1019 68.591C73.6745 68.8693 73.1771 69.0084 72.6096 69.0084ZM72.6096 68.5522C73.079 68.5522 73.4889 68.4357 73.8392 68.2027C74.1895 67.9632 74.4627 67.6203 74.6589 67.1737C74.855 66.7272 74.9531 66.19 74.9531 65.5623C74.9531 64.9281 74.855 64.391 74.6589 63.9509C74.4627 63.5044 74.1895 63.1646 73.8392 62.9316C73.4889 62.6922 73.079 62.5725 72.6096 62.5725C72.1472 62.5725 71.7374 62.6922 71.3801 62.9316C71.0298 63.1646 70.7566 63.5044 70.5604 63.9509C70.3642 64.391 70.2662 64.9281 70.2662 65.5623C70.2662 66.19 70.3642 66.7272 70.5604 67.1737C70.7566 67.6203 71.0298 67.9632 71.3801 68.2027C71.7374 68.4357 72.1472 68.5522 72.6096 68.5522Z" fill="#16141F"/>
<path d="M79.5266 69.0084C78.9661 69.0084 78.4687 68.8693 78.0344 68.591C77.6 68.3127 77.2602 67.9179 77.015 67.4067C76.7698 66.889 76.6472 66.2742 76.6472 65.5623C76.6472 64.8504 76.7698 64.2389 77.015 63.7276C77.2602 63.2099 77.6 62.8119 78.0344 62.5336C78.4687 62.2553 78.9661 62.1162 79.5266 62.1162C80.0941 62.1162 80.5915 62.2553 81.0189 62.5336C81.4532 62.8119 81.793 63.2099 82.0382 63.7276C82.2834 64.2389 82.406 64.8504 82.406 65.5623C82.406 66.2742 82.2834 66.889 82.0382 67.4067C81.793 67.9179 81.4532 68.3127 81.0189 68.591C80.5915 68.8693 80.0941 69.0084 79.5266 69.0084ZM79.5266 68.5522C79.996 68.5522 80.4059 68.4357 80.7561 68.2027C81.1064 67.9632 81.3797 67.6203 81.5758 67.1737C81.772 66.7272 81.8701 66.19 81.8701 65.5623C81.8701 64.9281 81.772 64.391 81.5758 63.9509C81.3797 63.5044 81.1064 63.1646 80.7561 62.9316C80.4059 62.6922 79.996 62.5725 79.5266 62.5725C79.0642 62.5725 78.6544 62.6922 78.2971 62.9316C77.9468 63.1646 77.6735 63.5044 77.4774 63.9509C77.2812 64.391 77.1831 64.9281 77.1831 65.5623C77.1831 66.19 77.2812 66.7272 77.4774 67.1737C77.6735 67.6203 77.9468 67.9632 78.2971 68.2027C78.6544 68.4357 79.0642 68.5522 79.5266 68.5522Z" fill="#16141F"/>
<path d="M86.4436 69.0084C85.8831 69.0084 85.3857 68.8693 84.9513 68.591C84.517 68.3127 84.1772 67.9179 83.932 67.4067C83.6868 66.889 83.5642 66.2742 83.5642 65.5623C83.5642 64.8504 83.6868 64.2389 83.932 63.7276C84.1772 63.2099 84.517 62.8119 84.9513 62.5336C85.3857 62.2553 85.8831 62.1162 86.4436 62.1162C87.0111 62.1162 87.5085 62.2553 87.9358 62.5336C88.3702 62.8119 88.71 63.2099 88.9552 63.7276C89.2004 64.2389 89.323 64.8504 89.323 65.5623C89.323 66.2742 89.2004 66.889 88.9552 67.4067C88.71 67.9179 88.3702 68.3127 87.9358 68.591C87.5085 68.8693 87.0111 69.0084 86.4436 69.0084ZM86.4436 68.5522C86.913 68.5522 87.3228 68.4357 87.6731 68.2027C88.0234 67.9632 88.2966 67.6203 88.4928 67.1737C88.689 66.7272 88.7871 66.19 88.7871 65.5623C88.7871 64.9281 88.689 64.391 88.4928 63.9509C88.2966 63.5044 88.0234 63.1646 87.6731 62.9316C87.3228 62.6922 86.913 62.5725 86.4436 62.5725C85.9812 62.5725 85.5713 62.6922 85.214 62.9316C84.8638 63.1646 84.5905 63.5044 84.3944 63.9509C84.1982 64.391 84.1001 64.9281 84.1001 65.5623C84.1001 66.19 84.1982 66.7272 84.3944 67.1737C84.5905 67.6203 84.8638 67.9632 85.214 68.2027C85.5713 68.4357 85.9812 68.5522 86.4436 68.5522Z" fill="#16141F"/>
<path d="M93.3606 69.0084C92.8001 69.0084 92.3027 68.8693 91.8683 68.591C91.4339 68.3127 91.0941 67.9179 90.8489 67.4067C90.6037 66.889 90.4811 66.2742 90.4811 65.5623C90.4811 64.8504 90.6037 64.2389 90.8489 63.7276C91.0941 63.2099 91.4339 62.8119 91.8683 62.5336C92.3027 62.2553 92.8001 62.1162 93.3606 62.1162C93.928 62.1162 94.4255 62.2553 94.8528 62.5336C95.2872 62.8119 95.627 63.2099 95.8722 63.7276C96.1174 64.2389 96.24 64.8504 96.24 65.5623C96.24 66.2742 96.1174 66.889 95.8722 67.4067C95.627 67.9179 95.2872 68.3127 94.8528 68.591C94.4255 68.8693 93.928 69.0084 93.3606 69.0084ZM93.3606 68.5522C93.83 68.5522 94.2398 68.4357 94.5901 68.2027C94.9404 67.9632 95.2136 67.6203 95.4098 67.1737C95.606 66.7272 95.704 66.19 95.704 65.5623C95.704 64.9281 95.606 64.391 95.4098 63.9509C95.2136 63.5044 94.9404 63.1646 94.5901 62.9316C94.2398 62.6922 93.83 62.5725 93.3606 62.5725C92.8982 62.5725 92.4883 62.6922 92.131 62.9316C91.7807 63.1646 91.5075 63.5044 91.3113 63.9509C91.1152 64.391 91.0171 64.9281 91.0171 65.5623C91.0171 66.19 91.1152 66.7272 91.3113 67.1737C91.5075 67.6203 91.7807 67.9632 92.131 68.2027C92.4883 68.4357 92.8982 68.5522 93.3606 68.5522Z" fill="#16141F"/>
<path fill-rule="evenodd" clip-rule="evenodd" d="M97.7659 67.4067C98.0111 67.9179 98.3509 68.3127 98.7853 68.591L99.2086 68.2977C99.1539 68.2685 99.1004 68.2369 99.048 68.2027C98.6977 67.9632 98.4245 67.6203 98.2283 67.1737C98.0321 66.7272 97.9341 66.19 97.9341 65.5623C97.9341 64.9281 98.0321 64.391 98.2283 63.9509C98.4245 63.5044 98.6977 63.1646 99.048 62.9316C99.4053 62.6922 99.8151 62.5725 100.278 62.5725C100.747 62.5725 101.157 62.6922 101.507 62.9316C101.857 63.1646 102.131 63.5044 102.327 63.9509C102.523 64.391 102.621 64.9281 102.621 65.5623C102.621 65.6929 102.617 65.8196 102.608 65.9424L103.157 65.5623C103.157 64.8504 103.034 64.2389 102.789 63.7276C102.544 63.2099 102.204 62.8119 101.77 62.5336C101.342 62.2553 100.845 62.1162 100.278 62.1162C99.7171 62.1162 99.2196 62.2553 98.7853 62.5336C98.3509 62.8119 98.0111 63.2099 97.7659 63.7276C97.5207 64.2389 97.3981 64.8504 97.3981 65.5623C97.3981 66.2742 97.5207 66.889 97.7659 67.4067Z" fill="#16141F"/>
</svg>
