<svg width="103" height="62" viewBox="0 0 103 62" fill="none" xmlns="http://www.w3.org/2000/svg">
<path d="M1.09058 60.0065V0.930664H45.8898V61.4834L1.09058 60.0065Z" stroke="#16141F" stroke-width="0.984598"/>
<path d="M58.1973 60.0065V0.930664H102.504V60.0065H58.1973Z" stroke="#16141F" stroke-width="0.984598"/>
<path d="M9.9519 48.2405V46.9605H13.0763V48.2405H9.9519Z" fill="#16141F"/>
<path d="M14.1402 49.0651V47.9574L18.0599 42.4068H19.6391L15.7763 47.9574L15.0378 47.7113H21.3433V49.0651H14.1402ZM18.503 51.022V49.0651L18.5484 47.7113V45.9759H19.9345V51.022H18.503Z" fill="#16141F"/>
<path d="M25.2824 51.1451C24.6537 51.1451 24.0857 50.9728 23.5782 50.6282C23.0783 50.2836 22.6844 49.783 22.3966 49.1266C22.1088 48.462 21.9649 47.658 21.9649 46.7144C21.9649 45.7708 22.1088 44.9708 22.3966 44.3144C22.6844 43.6498 23.0783 43.1452 23.5782 42.8006C24.0857 42.456 24.6537 42.2837 25.2824 42.2837C25.9186 42.2837 26.4867 42.456 26.9866 42.8006C27.4865 43.1452 27.8803 43.6498 28.1682 44.3144C28.4635 44.9708 28.6112 45.7708 28.6112 46.7144C28.6112 47.658 28.4635 48.462 28.1682 49.1266C27.8803 49.783 27.4865 50.2836 26.9866 50.6282C26.4867 50.9728 25.9186 51.1451 25.2824 51.1451ZM25.2824 49.7543C25.6535 49.7543 25.9754 49.6477 26.2481 49.4343C26.5208 49.2128 26.7328 48.8764 26.8843 48.4251C27.0434 47.9738 27.1229 47.4036 27.1229 46.7144C27.1229 46.017 27.0434 45.4467 26.8843 45.0036C26.7328 44.5524 26.5208 44.2201 26.2481 44.0067C25.9754 43.7852 25.6535 43.6744 25.2824 43.6744C24.9264 43.6744 24.6083 43.7852 24.328 44.0067C24.0554 44.2201 23.8395 44.5524 23.6804 45.0036C23.529 45.4467 23.4532 46.017 23.4532 46.7144C23.4532 47.4036 23.529 47.9738 23.6804 48.4251C23.8395 48.8764 24.0554 49.2128 24.328 49.4343C24.6083 49.6477 24.9264 49.7543 25.2824 49.7543Z" fill="#16141F"/>
<path d="M30.7228 51.022L36.1535 42.4068H37.2669L31.8362 51.022H30.7228ZM31.3817 47.0467C31.0106 47.0467 30.6811 46.9482 30.3933 46.7513C30.1055 46.5544 29.882 46.2795 29.723 45.9267C29.5639 45.5739 29.4844 45.1595 29.4844 44.6836C29.4844 44.2078 29.5639 43.7934 29.723 43.4406C29.882 43.0878 30.1055 42.8129 30.3933 42.616C30.6811 42.4191 31.0106 42.3206 31.3817 42.3206C31.768 42.3206 32.1013 42.4191 32.3815 42.616C32.6693 42.8129 32.8928 43.0878 33.0518 43.4406C33.2109 43.7934 33.2904 44.2078 33.2904 44.6836C33.2904 45.1595 33.2109 45.5739 33.0518 45.9267C32.8928 46.2795 32.6693 46.5544 32.3815 46.7513C32.1013 46.9482 31.768 47.0467 31.3817 47.0467ZM31.3931 46.1852C31.696 46.1852 31.9308 46.058 32.0975 45.8036C32.2717 45.5411 32.3588 45.1677 32.3588 44.6836C32.3588 44.1996 32.2717 43.8303 32.0975 43.576C31.9308 43.3134 31.696 43.1821 31.3931 43.1821C31.0901 43.1821 30.8477 43.3134 30.6659 43.576C30.4917 43.8385 30.4046 44.2078 30.4046 44.6836C30.4046 45.1595 30.4917 45.5288 30.6659 45.7913C30.8477 46.0539 31.0901 46.1852 31.3931 46.1852ZM36.5965 51.1082C36.2254 51.1082 35.8959 51.0097 35.6081 50.8128C35.3203 50.6159 35.0969 50.341 34.9378 49.9882C34.7787 49.6354 34.6992 49.221 34.6992 48.7451C34.6992 48.2692 34.7787 47.8549 34.9378 47.5021C35.0969 47.1492 35.3203 46.8744 35.6081 46.6775C35.8959 46.4805 36.2254 46.3821 36.5965 46.3821C36.9828 46.3821 37.3161 46.4805 37.5963 46.6775C37.8842 46.8744 38.1076 47.1492 38.2667 47.5021C38.4257 47.8549 38.5052 48.2692 38.5052 48.7451C38.5052 49.221 38.4257 49.6354 38.2667 49.9882C38.1076 50.341 37.8842 50.6159 37.5963 50.8128C37.3161 51.0097 36.9828 51.1082 36.5965 51.1082ZM36.5965 50.2466C36.8995 50.2466 37.1381 50.1153 37.3123 49.8528C37.4865 49.5902 37.5736 49.221 37.5736 48.7451C37.5736 48.2692 37.4865 47.9 37.3123 47.6374C37.1381 47.3749 36.8995 47.2436 36.5965 47.2436C36.3012 47.2436 36.0626 47.3749 35.8808 47.6374C35.7066 47.8918 35.6195 48.261 35.6195 48.7451C35.6195 49.2292 35.7066 49.6025 35.8808 49.8651C36.0626 50.1195 36.3012 50.2466 36.5965 50.2466Z" fill="#16141F"/>
<path d="M9.9519 33.4715V32.1915H13.0763V33.4715H9.9519Z" fill="#16141F"/>
<path d="M14.1402 34.2961V33.1884L18.0599 27.6377H19.6391L15.7763 33.1884L15.0378 32.9422H21.3433V34.2961H14.1402ZM18.503 36.253V34.2961L18.5484 32.9422V31.2069H19.9345V36.253H18.503Z" fill="#16141F"/>
<path d="M25.2824 36.376C24.6537 36.376 24.0857 36.2037 23.5782 35.8591C23.0783 35.5145 22.6844 35.014 22.3966 34.3576C22.1088 33.693 21.9649 32.8889 21.9649 31.9453C21.9649 31.0018 22.1088 30.2018 22.3966 29.5454C22.6844 28.8808 23.0783 28.3762 23.5782 28.0316C24.0857 27.687 24.6537 27.5146 25.2824 27.5146C25.9186 27.5146 26.4867 27.687 26.9866 28.0316C27.4865 28.3762 27.8803 28.8808 28.1682 29.5454C28.4635 30.2018 28.6112 31.0018 28.6112 31.9453C28.6112 32.8889 28.4635 33.693 28.1682 34.3576C27.8803 35.014 27.4865 35.5145 26.9866 35.8591C26.4867 36.2037 25.9186 36.376 25.2824 36.376ZM25.2824 34.9853C25.6535 34.9853 25.9754 34.8786 26.2481 34.6653C26.5208 34.4438 26.7328 34.1074 26.8843 33.6561C27.0434 33.2048 27.1229 32.6346 27.1229 31.9453C27.1229 31.2479 27.0434 30.6777 26.8843 30.2346C26.7328 29.7833 26.5208 29.451 26.2481 29.2377C25.9754 29.0162 25.6535 28.9054 25.2824 28.9054C24.9264 28.9054 24.6083 29.0162 24.328 29.2377C24.0554 29.451 23.8395 29.7833 23.6804 30.2346C23.529 30.6777 23.4532 31.2479 23.4532 31.9453C23.4532 32.6346 23.529 33.2048 23.6804 33.6561C23.8395 34.1074 24.0554 34.4438 24.328 34.6653C24.6083 34.8786 24.9264 34.9853 25.2824 34.9853Z" fill="#16141F"/>
<path d="M30.7228 36.253L36.1535 27.6377H37.2669L31.8362 36.253H30.7228ZM31.3817 32.2776C31.0106 32.2776 30.6811 32.1792 30.3933 31.9823C30.1055 31.7853 29.882 31.5105 29.723 31.1577C29.5639 30.8048 29.4844 30.3905 29.4844 29.9146C29.4844 29.4387 29.5639 29.0244 29.723 28.6716C29.882 28.3187 30.1055 28.0439 30.3933 27.847C30.6811 27.65 31.0106 27.5516 31.3817 27.5516C31.768 27.5516 32.1013 27.65 32.3815 27.847C32.6693 28.0439 32.8928 28.3187 33.0518 28.6716C33.2109 29.0244 33.2904 29.4387 33.2904 29.9146C33.2904 30.3905 33.2109 30.8048 33.0518 31.1577C32.8928 31.5105 32.6693 31.7853 32.3815 31.9823C32.1013 32.1792 31.768 32.2776 31.3817 32.2776ZM31.3931 31.4161C31.696 31.4161 31.9308 31.2889 32.0975 31.0346C32.2717 30.772 32.3588 30.3987 32.3588 29.9146C32.3588 29.4305 32.2717 29.0613 32.0975 28.8069C31.9308 28.5444 31.696 28.4131 31.3931 28.4131C31.0901 28.4131 30.8477 28.5444 30.6659 28.8069C30.4917 29.0695 30.4046 29.4387 30.4046 29.9146C30.4046 30.3905 30.4917 30.7597 30.6659 31.0223C30.8477 31.2848 31.0901 31.4161 31.3931 31.4161ZM36.5965 36.3391C36.2254 36.3391 35.8959 36.2406 35.6081 36.0437C35.3203 35.8468 35.0969 35.5719 34.9378 35.2191C34.7787 34.8663 34.6992 34.452 34.6992 33.9761C34.6992 33.5002 34.7787 33.0858 34.9378 32.733C35.0969 32.3802 35.3203 32.1053 35.6081 31.9084C35.8959 31.7115 36.2254 31.613 36.5965 31.613C36.9828 31.613 37.3161 31.7115 37.5963 31.9084C37.8842 32.1053 38.1076 32.3802 38.2667 32.733C38.4257 33.0858 38.5052 33.5002 38.5052 33.9761C38.5052 34.452 38.4257 34.8663 38.2667 35.2191C38.1076 35.5719 37.8842 35.8468 37.5963 36.0437C37.3161 36.2406 36.9828 36.3391 36.5965 36.3391ZM36.5965 35.4776C36.8995 35.4776 37.1381 35.3463 37.3123 35.0837C37.4865 34.8212 37.5736 34.452 37.5736 33.9761C37.5736 33.5002 37.4865 33.131 37.3123 32.8684C37.1381 32.6058 36.8995 32.4746 36.5965 32.4746C36.3012 32.4746 36.0626 32.6058 35.8808 32.8684C35.7066 33.1228 35.6195 33.492 35.6195 33.9761C35.6195 34.4602 35.7066 34.8335 35.8808 35.0961C36.0626 35.3504 36.3012 35.4776 36.5965 35.4776Z" fill="#16141F"/>
<path d="M8.96753 14.1739V10.8242H11.9667V14.1739H11.3465V11.1975L11.4919 11.3506H9.44236L9.58772 11.1975V14.1739H8.96753Z" fill="#16141F"/>
<path d="M14.0084 14.2074C13.7435 14.2074 13.5077 14.1516 13.301 14.0399C13.0943 13.9251 12.9311 13.7687 12.8116 13.5709C12.6921 13.3732 12.6324 13.1483 12.6324 12.8962C12.6324 12.641 12.6921 12.4161 12.8116 12.2215C12.9311 12.0237 13.0943 11.869 13.301 11.7573C13.5077 11.6457 13.7435 11.5899 14.0084 11.5899C14.2765 11.5899 14.5139 11.6457 14.7206 11.7573C14.9306 11.869 15.0937 12.0221 15.21 12.2167C15.3295 12.4113 15.3893 12.6378 15.3893 12.8962C15.3893 13.1483 15.3295 13.3732 15.21 13.5709C15.0937 13.7687 14.9306 13.9251 14.7206 14.0399C14.5139 14.1516 14.2765 14.2074 14.0084 14.2074ZM14.0084 13.6954C14.157 13.6954 14.2894 13.6635 14.4057 13.5997C14.522 13.5359 14.6124 13.4433 14.677 13.3221C14.7449 13.2009 14.7788 13.0589 14.7788 12.8962C14.7788 12.7303 14.7449 12.5884 14.677 12.4703C14.6124 12.3491 14.522 12.2566 14.4057 12.1928C14.2894 12.129 14.1586 12.0971 14.0132 12.0971C13.8647 12.0971 13.7322 12.129 13.6159 12.1928C13.5029 12.2566 13.4124 12.3491 13.3446 12.4703C13.2768 12.5884 13.2429 12.7303 13.2429 12.8962C13.2429 13.0589 13.2768 13.2009 13.3446 13.3221C13.4124 13.4433 13.5029 13.5359 13.6159 13.5997C13.7322 13.6635 13.863 13.6954 14.0084 13.6954Z" fill="#16141F"/>
<path d="M17.165 14.2074C16.8936 14.2074 16.6514 14.1516 16.4382 14.0399C16.2282 13.9251 16.0635 13.7687 15.944 13.5709C15.8245 13.3732 15.7647 13.1483 15.7647 12.8962C15.7647 12.641 15.8245 12.4161 15.944 12.2215C16.0635 12.0237 16.2282 11.869 16.4382 11.7573C16.6514 11.6457 16.8936 11.5899 17.165 11.5899C17.4169 11.5899 17.6382 11.6409 17.8288 11.743C18.0226 11.8419 18.1696 11.9886 18.2697 12.1832L17.8045 12.4512C17.727 12.33 17.6317 12.2407 17.5187 12.1832C17.4089 12.1258 17.2893 12.0971 17.1601 12.0971C17.0115 12.0971 16.8775 12.129 16.758 12.1928C16.6385 12.2566 16.5448 12.3491 16.477 12.4703C16.4091 12.5884 16.3752 12.7303 16.3752 12.8962C16.3752 13.0621 16.4091 13.2057 16.477 13.3269C16.5448 13.4449 16.6385 13.5359 16.758 13.5997C16.8775 13.6635 17.0115 13.6954 17.1601 13.6954C17.2893 13.6954 17.4089 13.6667 17.5187 13.6092C17.6317 13.5518 17.727 13.4625 17.8045 13.3413L18.2697 13.6092C18.1696 13.8006 18.0226 13.949 17.8288 14.0543C17.6382 14.1563 17.4169 14.2074 17.165 14.2074Z" fill="#16141F"/>
<path d="M18.3635 14.1691L18.3926 13.6667C18.4152 13.6698 18.4362 13.673 18.4555 13.6762C18.4749 13.6794 18.4927 13.681 18.5088 13.681C18.609 13.681 18.6865 13.6507 18.7414 13.5901C18.7963 13.5295 18.8367 13.4481 18.8625 13.346C18.8916 13.2408 18.911 13.1243 18.9207 12.9967C18.9336 12.8659 18.9433 12.7351 18.9498 12.6043L18.9934 11.6186H21.0865V14.1739H20.4808V11.9631L20.6214 12.1258H19.3907L19.5215 11.9583L19.4876 12.633C19.4779 12.8595 19.4585 13.0701 19.4294 13.2647C19.4036 13.4561 19.3616 13.6236 19.3035 13.7671C19.2485 13.9107 19.171 14.0224 19.0709 14.1021C18.974 14.1819 18.8496 14.2217 18.6978 14.2217C18.6494 14.2217 18.5961 14.217 18.5379 14.2074C18.483 14.1978 18.4249 14.1851 18.3635 14.1691Z" fill="#16141F"/>
<path d="M23.1086 14.2074C22.8211 14.2074 22.5692 14.1516 22.3528 14.0399C22.1396 13.9251 21.9732 13.7687 21.8537 13.5709C21.7374 13.3732 21.6793 13.1483 21.6793 12.8962C21.6793 12.641 21.7358 12.4161 21.8489 12.2215C21.9651 12.0237 22.1234 11.869 22.3237 11.7573C22.5272 11.6457 22.7581 11.5899 23.0166 11.5899C23.2685 11.5899 23.493 11.6441 23.69 11.7526C23.8871 11.861 24.0421 12.0142 24.1552 12.2119C24.2682 12.4097 24.3248 12.6426 24.3248 12.9106C24.3248 12.9361 24.3231 12.9648 24.3199 12.9967C24.3199 13.0286 24.3183 13.0589 24.3151 13.0876H22.1589V12.6905H23.9953L23.7579 12.8149C23.7611 12.6681 23.7304 12.5389 23.6658 12.4273C23.6012 12.3156 23.5124 12.2279 23.3993 12.1641C23.2895 12.1003 23.1619 12.0684 23.0166 12.0684C22.868 12.0684 22.7371 12.1003 22.6241 12.1641C22.5143 12.2279 22.4271 12.3172 22.3624 12.4321C22.3011 12.5437 22.2704 12.6761 22.2704 12.8292V12.9249C22.2704 13.0781 22.3059 13.2137 22.377 13.3317C22.448 13.4497 22.5482 13.5406 22.6774 13.6044C22.8066 13.6682 22.9552 13.7002 23.1231 13.7002C23.2685 13.7002 23.3993 13.6778 23.5156 13.6332C23.6319 13.5885 23.7353 13.5183 23.8257 13.4226L24.1503 13.7911C24.034 13.9251 23.8871 14.0287 23.7094 14.1021C23.535 14.1723 23.3347 14.2074 23.1086 14.2074Z" fill="#16141F"/>
<path d="M26.0888 14.1739V13.7576L27.4358 12.4943C27.5489 12.389 27.6328 12.2965 27.6877 12.2167C27.7427 12.137 27.7782 12.0636 27.7943 11.9966C27.8137 11.9264 27.8234 11.861 27.8234 11.8004C27.8234 11.6473 27.7701 11.5292 27.6635 11.4463C27.5569 11.3602 27.4003 11.3171 27.1935 11.3171C27.0288 11.3171 26.8786 11.3458 26.7429 11.4032C26.6105 11.4607 26.4958 11.5484 26.3989 11.6664L25.958 11.3315C26.0904 11.156 26.2681 11.0204 26.491 10.9247C26.7171 10.8258 26.969 10.7764 27.2468 10.7764C27.4923 10.7764 27.7055 10.8162 27.8864 10.896C28.0705 10.9726 28.211 11.0826 28.3079 11.2262C28.4081 11.3697 28.4581 11.5404 28.4581 11.7382C28.4581 11.8467 28.4436 11.9551 28.4145 12.0636C28.3855 12.1689 28.3305 12.2805 28.2498 12.3986C28.169 12.5166 28.0511 12.649 27.8961 12.7957L26.7381 13.882L26.6073 13.6475H28.589V14.1739H26.0888Z" fill="#16141F"/>
<path d="M30.3673 14.2217C30.0992 14.2217 29.8569 14.1547 29.6405 14.0208C29.4273 13.8868 29.2594 13.6922 29.1366 13.437C29.0139 13.1786 28.9525 12.8659 28.9525 12.4991C28.9525 12.1322 29.0139 11.8211 29.1366 11.5659C29.2594 11.3075 29.4273 11.1113 29.6405 10.9773C29.8569 10.8434 30.0992 10.7764 30.3673 10.7764C30.6386 10.7764 30.8809 10.8434 31.0941 10.9773C31.3073 11.1113 31.4752 11.3075 31.598 11.5659C31.724 11.8211 31.7869 12.1322 31.7869 12.4991C31.7869 12.8659 31.724 13.1786 31.598 13.437C31.4752 13.6922 31.3073 13.8868 31.0941 14.0208C30.8809 14.1547 30.6386 14.2217 30.3673 14.2217ZM30.3673 13.681C30.5256 13.681 30.6629 13.6395 30.7791 13.5566C30.8954 13.4705 30.9859 13.3397 31.0505 13.1642C31.1183 12.9887 31.1522 12.767 31.1522 12.4991C31.1522 12.2279 31.1183 12.0062 31.0505 11.8339C30.9859 11.6584 30.8954 11.5292 30.7791 11.4463C30.6629 11.3602 30.5256 11.3171 30.3673 11.3171C30.2155 11.3171 30.0798 11.3602 29.9603 11.4463C29.844 11.5292 29.752 11.6584 29.6841 11.8339C29.6195 12.0062 29.5872 12.2279 29.5872 12.4991C29.5872 12.767 29.6195 12.9887 29.6841 13.1642C29.752 13.3397 29.844 13.4705 29.9603 13.5566C30.0798 13.6395 30.2155 13.681 30.3673 13.681Z" fill="#16141F"/>
<path d="M32.5905 12.3842C32.4807 12.3842 32.387 12.3475 32.3095 12.2741C32.232 12.1976 32.1932 12.1019 32.1932 11.987C32.1932 11.8658 32.232 11.7701 32.3095 11.6999C32.387 11.6265 32.4807 11.5899 32.5905 11.5899C32.7004 11.5899 32.794 11.6265 32.8716 11.6999C32.9491 11.7701 32.9878 11.8658 32.9878 11.987C32.9878 12.1019 32.9491 12.1976 32.8716 12.2741C32.794 12.3475 32.7004 12.3842 32.5905 12.3842ZM32.5905 14.2074C32.4807 14.2074 32.387 14.1707 32.3095 14.0973C32.232 14.0208 32.1932 13.9251 32.1932 13.8102C32.1932 13.689 32.232 13.5933 32.3095 13.5231C32.387 13.4497 32.4807 13.413 32.5905 13.413C32.7004 13.413 32.794 13.4497 32.8716 13.5231C32.9491 13.5933 32.9878 13.689 32.9878 13.8102C32.9878 13.9251 32.9491 14.0208 32.8716 14.0973C32.794 14.1707 32.7004 14.2074 32.5905 14.2074Z" fill="#16141F"/>
<path d="M34.8103 14.2217C34.5422 14.2217 34.3 14.1547 34.0835 14.0208C33.8703 13.8868 33.7024 13.6922 33.5796 13.437C33.4569 13.1786 33.3955 12.8659 33.3955 12.4991C33.3955 12.1322 33.4569 11.8211 33.5796 11.5659C33.7024 11.3075 33.8703 11.1113 34.0835 10.9773C34.3 10.8434 34.5422 10.7764 34.8103 10.7764C35.0816 10.7764 35.3239 10.8434 35.5371 10.9773C35.7503 11.1113 35.9183 11.3075 36.041 11.5659C36.167 11.8211 36.23 12.1322 36.23 12.4991C36.23 12.8659 36.167 13.1786 36.041 13.437C35.9183 13.6922 35.7503 13.8868 35.5371 14.0208C35.3239 14.1547 35.0816 14.2217 34.8103 14.2217ZM34.8103 13.681C34.9686 13.681 35.1059 13.6395 35.2222 13.5566C35.3384 13.4705 35.4289 13.3397 35.4935 13.1642C35.5613 12.9887 35.5952 12.767 35.5952 12.4991C35.5952 12.2279 35.5613 12.0062 35.4935 11.8339C35.4289 11.6584 35.3384 11.5292 35.2222 11.4463C35.1059 11.3602 34.9686 11.3171 34.8103 11.3171C34.6585 11.3171 34.5228 11.3602 34.4033 11.4463C34.287 11.5292 34.195 11.6584 34.1271 11.8339C34.0625 12.0062 34.0302 12.2279 34.0302 12.4991C34.0302 12.767 34.0625 12.9887 34.1271 13.1642C34.195 13.3397 34.287 13.4705 34.4033 13.5566C34.5228 13.6395 34.6585 13.681 34.8103 13.681Z" fill="#16141F"/>
<path d="M38.0704 14.2217C37.8023 14.2217 37.5601 14.1547 37.3436 14.0208C37.1305 13.8868 36.9625 13.6922 36.8397 13.437C36.717 13.1786 36.6556 12.8659 36.6556 12.4991C36.6556 12.1322 36.717 11.8211 36.8397 11.5659C36.9625 11.3075 37.1305 11.1113 37.3436 10.9773C37.5601 10.8434 37.8023 10.7764 38.0704 10.7764C38.3418 10.7764 38.584 10.8434 38.7972 10.9773C39.0104 11.1113 39.1784 11.3075 39.3011 11.5659C39.4271 11.8211 39.4901 12.1322 39.4901 12.4991C39.4901 12.8659 39.4271 13.1786 39.3011 13.437C39.1784 13.6922 39.0104 13.8868 38.7972 14.0208C38.584 14.1547 38.3418 14.2217 38.0704 14.2217ZM38.0704 13.681C38.2287 13.681 38.366 13.6395 38.4823 13.5566C38.5986 13.4705 38.689 13.3397 38.7536 13.1642C38.8214 12.9887 38.8553 12.767 38.8553 12.4991C38.8553 12.2279 38.8214 12.0062 38.7536 11.8339C38.689 11.6584 38.5986 11.5292 38.4823 11.4463C38.366 11.3602 38.2287 11.3171 38.0704 11.3171C37.9186 11.3171 37.7829 11.3602 37.6634 11.4463C37.5471 11.5292 37.4551 11.6584 37.3872 11.8339C37.3226 12.0062 37.2903 12.2279 37.2903 12.4991C37.2903 12.767 37.3226 12.9887 37.3872 13.1642C37.4551 13.3397 37.5471 13.4705 37.6634 13.5566C37.7829 13.6395 37.9186 13.681 38.0704 13.681Z" fill="#16141F"/>
<path d="M16.5025 20.0864C16.2312 20.0864 15.989 20.0306 15.7758 19.9189C15.5658 19.8041 15.4011 19.6478 15.2816 19.45C15.162 19.2522 15.1023 19.0273 15.1023 18.7752C15.1023 18.52 15.162 18.2951 15.2816 18.1005C15.4011 17.9027 15.5658 17.748 15.7758 17.6364C15.989 17.5247 16.2312 17.4689 16.5025 17.4689C16.7545 17.4689 16.9758 17.5199 17.1663 17.622C17.3601 17.7209 17.5071 17.8676 17.6073 18.0622L17.1421 18.3302C17.0646 18.209 16.9693 18.1197 16.8562 18.0622C16.7464 18.0048 16.6269 17.9761 16.4977 17.9761C16.3491 17.9761 16.2151 18.008 16.0955 18.0718C15.976 18.1356 15.8824 18.2281 15.8145 18.3494C15.7467 18.4674 15.7128 18.6094 15.7128 18.7752C15.7128 18.9411 15.7467 19.0847 15.8145 19.2059C15.8824 19.324 15.976 19.4149 16.0955 19.4787C16.2151 19.5425 16.3491 19.5744 16.4977 19.5744C16.6269 19.5744 16.7464 19.5457 16.8562 19.4882C16.9693 19.4308 17.0646 19.3415 17.1421 19.2203L17.6073 19.4882C17.5071 19.6797 17.3601 19.828 17.1663 19.9333C16.9758 20.0354 16.7545 20.0864 16.5025 20.0864Z" fill="#16141F"/>
<path d="M19.9962 20.0529L19.0611 18.8279L19.5553 18.5264L20.7085 20.0529H19.9962ZM18.1405 20.0529V17.4976H18.7461V20.0529H18.1405ZM18.5669 19.0289V18.5312H19.4439V19.0289H18.5669ZM19.6134 18.847L19.0465 18.78L19.9962 17.4976H20.6455L19.6134 18.847Z" fill="#16141F"/>
<path d="M21.1356 20.0529V17.4976H21.7413V19.182L23.1706 17.4976H23.723V20.0529H23.1173V18.3685L21.6928 20.0529H21.1356Z" fill="#16141F"/>
<path d="M26.311 19.7754V18.0048H25.3178L25.3032 18.4164C25.2968 18.5631 25.2871 18.7051 25.2742 18.8422C25.2612 18.9762 25.2402 19.1006 25.2112 19.2155C25.1821 19.3271 25.1401 19.4197 25.0852 19.493C25.0303 19.5664 24.9576 19.6143 24.8672 19.6366L24.2663 19.5457C24.3633 19.5457 24.4408 19.5154 24.4989 19.4547C24.5603 19.3909 24.6071 19.3048 24.6394 19.1963C24.675 19.0847 24.7008 18.9587 24.717 18.8183C24.7331 18.6748 24.7444 18.5264 24.7509 18.3733L24.7848 17.4976H26.9167V19.7754H26.311ZM24.1743 20.6223V19.5457H27.2994V20.6223H26.7326V20.0529H24.7363V20.6223H24.1743Z" fill="#16141F"/>
<path d="M29.6961 20.0529L28.761 18.8279L29.2552 18.5264L30.4083 20.0529H29.6961ZM27.8404 20.0529V17.4976H28.446V20.0529H27.8404ZM28.2667 19.0289V18.5312H29.1437V19.0289H28.2667ZM29.3133 18.847L28.7464 18.78L29.6961 17.4976H30.3453L29.3133 18.847Z" fill="#16141F"/>
<path d="M32.358 20.0529V19.5361L32.3241 19.426V18.5216C32.3241 18.3462 32.2708 18.2106 32.1642 18.1149C32.0576 18.016 31.8961 17.9665 31.6797 17.9665C31.5343 17.9665 31.3906 17.9889 31.2485 18.0335C31.1096 18.0782 30.9917 18.1404 30.8948 18.2202L30.6574 17.7847C30.7963 17.6794 30.961 17.6013 31.1516 17.5502C31.3454 17.496 31.5457 17.4689 31.7524 17.4689C32.1271 17.4689 32.4162 17.5582 32.6197 17.7368C32.8264 17.9123 32.9298 18.1851 32.9298 18.5551V20.0529H32.358ZM31.544 20.0864C31.3502 20.0864 31.1806 20.0545 31.0353 19.9907C30.8899 19.9237 30.7769 19.8328 30.6961 19.7179C30.6186 19.5999 30.5798 19.4675 30.5798 19.3208C30.5798 19.1772 30.6138 19.048 30.6816 18.9332C30.7527 18.8183 30.8673 18.7274 31.0256 18.6604C31.1839 18.5934 31.3938 18.5599 31.6555 18.5599H32.4065V18.9571H31.6991C31.4924 18.9571 31.3535 18.9906 31.2824 19.0576C31.2113 19.1214 31.1758 19.2011 31.1758 19.2968C31.1758 19.4053 31.2194 19.4914 31.3066 19.5552C31.3938 19.619 31.515 19.6509 31.67 19.6509C31.8186 19.6509 31.951 19.6174 32.0673 19.5505C32.1868 19.4835 32.2724 19.3846 32.3241 19.2538L32.4259 19.6127C32.3677 19.7626 32.2627 19.879 32.1109 19.962C31.9623 20.0449 31.7734 20.0864 31.544 20.0864Z" fill="#16141F"/>
<path d="M66.5697 16.3411V9.79199H67.5592L70.4249 14.5729H69.8928L72.7119 9.79199H73.7014L73.72 16.3411H72.5625L72.5532 11.5977H72.7959L70.4062 15.5927H69.8648L67.4378 11.5977H67.7179V16.3411H66.5697Z" fill="#16141F"/>
<path d="M78.5637 12.0093C79.3416 12.0093 79.9421 12.184 80.3653 12.5333C80.7885 12.8826 81.0001 13.4065 81.0001 14.1051C81.0001 14.8411 80.7667 15.3993 80.3 15.7798C79.8394 16.154 79.1954 16.3411 78.3677 16.3411H75.5579V9.79199H76.7528V12.0093H78.5637ZM78.3117 15.4055C78.7784 15.4055 79.1393 15.2964 79.3945 15.0781C79.6559 14.8598 79.7866 14.5417 79.7866 14.1238C79.7866 13.7121 79.659 13.4127 79.4038 13.2256C79.1487 13.0323 78.7846 12.9356 78.3117 12.9356H76.7528V15.4055H78.3117ZM81.9429 16.3411V9.79199H83.1377V16.3411H81.9429Z" fill="#16141F"/>
<path d="M69.5661 27.9291C69.0683 27.9291 68.6046 27.848 68.1753 27.6858C67.7521 27.5174 67.3818 27.2835 67.0644 26.9841C66.7533 26.6785 66.5106 26.3199 66.3363 25.9082C66.1621 25.4966 66.075 25.0475 66.075 24.561C66.075 24.0745 66.1621 23.6254 66.3363 23.2137C66.5106 22.8021 66.7564 22.4465 67.0738 22.1471C67.3911 21.8415 67.7614 21.6076 68.1846 21.4454C68.6078 21.277 69.0714 21.1928 69.5755 21.1928C70.1106 21.1928 70.5992 21.2864 71.041 21.4735C71.4828 21.6544 71.8562 21.9257 72.1612 22.2875L71.377 23.0266C71.1406 22.7709 70.8761 22.5806 70.5836 22.4559C70.2911 22.3249 69.9737 22.2594 69.6315 22.2594C69.2892 22.2594 68.9749 22.3155 68.6887 22.4278C68.4086 22.5401 68.1628 22.6991 67.9512 22.905C67.7459 23.1108 67.5841 23.3541 67.4658 23.6347C67.3538 23.9154 67.2978 24.2242 67.2978 24.561C67.2978 24.8978 67.3538 25.2065 67.4658 25.4872C67.5841 25.7679 67.7459 26.0111 67.9512 26.217C68.1628 26.4228 68.4086 26.5818 68.6887 26.6941C68.9749 26.8064 69.2892 26.8625 69.6315 26.8625C69.9737 26.8625 70.2911 26.8001 70.5836 26.6754C70.8761 26.5444 71.1406 26.3479 71.377 26.086L72.1612 26.8344C71.8562 27.19 71.4828 27.4613 71.041 27.6484C70.5992 27.8355 70.1075 27.9291 69.5661 27.9291Z" fill="#16141F"/>
<path d="M66.5697 39.3299V32.7808H69.4914C70.2258 32.7808 70.7983 32.9274 71.209 33.2205C71.6197 33.5074 71.8251 33.9222 71.8251 34.4649C71.8251 35.0013 71.6291 35.416 71.237 35.7092C70.845 35.9961 70.3284 36.1396 69.6875 36.1396L69.8555 35.8028C70.5836 35.8028 71.1468 35.9493 71.5451 36.2425C71.9433 36.5356 72.1425 36.9598 72.1425 37.5149C72.1425 38.0825 71.934 38.5284 71.5171 38.8528C71.1001 39.1709 70.484 39.3299 69.6688 39.3299H66.5697ZM67.7645 38.3943H69.6315C70.0546 38.3943 70.3751 38.3164 70.5929 38.1604C70.8107 37.9983 70.9196 37.7519 70.9196 37.4213C70.9196 37.0908 70.8107 36.8506 70.5929 36.7009C70.3751 36.545 70.0546 36.467 69.6315 36.467H67.7645V38.3943ZM67.7645 35.5782H69.3888C69.7808 35.5782 70.0795 35.5002 70.2849 35.3443C70.4902 35.1821 70.5929 34.9514 70.5929 34.652C70.5929 34.3401 70.4902 34.1062 70.2849 33.9503C70.0795 33.7944 69.7808 33.7164 69.3888 33.7164H67.7645V35.5782Z" fill="#16141F"/>
<path d="M72.6941 39.3299L75.6345 32.7808H76.8294L79.7791 39.3299H78.5096L75.9799 33.4264H76.4653L73.9449 39.3299H72.6941ZM74.0476 37.8143L74.3743 36.86H77.9028L78.2296 37.8143H74.0476Z" fill="#16141F"/>
<path d="M80.7905 39.3299V32.7808H81.7799L84.6457 37.5617H84.1136L86.9327 32.7808H87.9221L87.9408 39.3299H86.7833L86.774 34.5865H87.0167L84.627 38.5815H84.0856L81.6586 34.5865H81.9386V39.3299H80.7905Z" fill="#16141F"/>
<path d="M89.7787 39.3299V32.7808H90.9736V37.4307L94.4834 32.7808H95.6129V39.3299H94.4181V34.6894L90.9082 39.3299H89.7787Z" fill="#16141F"/>
<path d="M67.5515 46.2217V56.0677H72.4745V49.1755H88.2281V56.0677H94.1357V46.2217H67.5515Z" stroke="#16141F" stroke-width="0.984598"/>
</svg>
