<svg width="134" height="166" viewBox="0 0 134 166" fill="none" xmlns="http://www.w3.org/2000/svg">
<mask id="mask0_341_1405" style="mask-type:alpha" maskUnits="userSpaceOnUse" x="0" y="0" width="134" height="166">
<path d="M0.894531 164.481V1.03809H132.704L128.603 162.724L0.894531 164.481Z" fill="#D9D9D9" stroke="black" stroke-width="1.17164"/>
</mask>
<g mask="url(#mask0_341_1405)">
<path d="M118.554 -26.0178L121.841 -26.0178L121.841 -16.1585L118.554 -16.1585L118.554 -26.0178ZM115.732 -5.35339C115.732 -5.94624 115.867 -6.48109 116.138 -6.95795C116.421 -7.43481 116.808 -7.815 117.298 -8.09854C117.787 -8.38208 118.335 -8.52384 118.941 -8.52384C119.559 -8.52384 120.107 -8.38208 120.584 -8.09854C121.061 -7.815 121.435 -7.43481 121.705 -6.95795C121.976 -6.48109 122.111 -5.94624 122.111 -5.35339C122.111 -4.76055 121.976 -4.22569 121.705 -3.74884C121.435 -3.25909 121.061 -2.87245 120.584 -2.58892C120.107 -2.29249 119.559 -2.14428 118.941 -2.14428C118.335 -2.14428 117.787 -2.29249 117.298 -2.58892C116.808 -2.87245 116.421 -3.25909 116.138 -3.74884C115.867 -4.22569 115.732 -4.76055 115.732 -5.35339ZM115.732 2.76454C115.732 2.17169 115.867 1.63684 116.138 1.15998C116.421 0.683124 116.808 0.302928 117.298 0.0193922C117.787 -0.264144 118.335 -0.405912 118.941 -0.405912C119.559 -0.405912 120.107 -0.264144 120.584 0.0193923C121.061 0.302928 121.435 0.683125 121.705 1.15998C121.976 1.63684 122.111 2.17169 122.111 2.76454C122.111 3.35738 121.976 3.89224 121.705 4.36909C121.435 4.85884 121.061 5.24548 120.584 5.52901C120.107 5.82544 119.559 5.97365 118.941 5.97365C118.335 5.97365 117.787 5.82544 117.298 5.52901C116.808 5.24548 116.421 4.85884 116.138 4.36909C115.867 3.89224 115.732 3.35738 115.732 2.76454ZM115.732 10.8825C115.732 10.2896 115.867 9.75476 116.138 9.27791C116.421 8.80105 116.808 8.42086 117.298 8.13732C117.787 7.85378 118.335 7.71202 118.941 7.71202C119.559 7.71202 120.107 7.85378 120.584 8.13732C121.061 8.42086 121.435 8.80105 121.705 9.27791C121.976 9.75476 122.111 10.2896 122.111 10.8825C122.111 11.4753 121.976 12.0102 121.705 12.487C121.435 12.9768 121.061 13.3634 120.584 13.6469C120.107 13.9434 119.559 14.0916 118.941 14.0916C118.335 14.0916 117.787 13.9434 117.298 13.6469C116.808 13.3634 116.421 12.9768 116.138 12.487C115.867 12.0102 115.732 11.4753 115.732 10.8825ZM115.732 19.0004C115.732 18.4075 115.867 17.8727 116.138 17.3958C116.421 16.919 116.808 16.5388 117.298 16.2553C117.787 15.9717 118.335 15.8299 118.941 15.8299C119.559 15.8299 120.107 15.9717 120.584 16.2553C121.061 16.5388 121.435 16.919 121.705 17.3958C121.976 17.8727 122.111 18.4075 122.111 19.0004C122.111 19.5932 121.976 20.1281 121.705 20.605C121.435 21.0947 121.061 21.4813 120.584 21.7649C120.107 22.0613 119.559 22.2095 118.941 22.2095C118.335 22.2095 117.787 22.0613 117.298 21.7649C116.808 21.4813 116.421 21.0947 116.138 20.605C115.867 20.1281 115.732 19.5932 115.732 19.0004ZM115.732 32.7254C115.732 32.1325 115.867 31.5977 116.138 31.1208C116.421 30.644 116.808 30.2638 117.298 29.9802C117.787 29.6967 118.335 29.5549 118.941 29.5549C119.559 29.5549 120.107 29.6967 120.584 29.9802C121.061 30.2638 121.435 30.644 121.705 31.1208C121.976 31.5977 122.111 32.1325 122.111 32.7254C122.111 33.3182 121.976 33.8531 121.705 34.3299C121.435 34.8197 121.061 35.2063 120.584 35.4898C120.107 35.7863 119.559 35.9345 118.941 35.9345C118.335 35.9345 117.787 35.7863 117.298 35.4898C116.808 35.2063 116.421 34.8197 116.138 34.3299C115.867 33.8531 115.732 33.3182 115.732 32.7254ZM118.554 55.1615L121.841 55.1615L121.841 65.0208L118.554 65.0208L118.554 55.1615ZM118.554 67.3384L121.841 67.3384L121.841 77.1977L118.554 77.1977L118.554 67.3384ZM118.554 79.5153L121.841 79.5153L121.841 89.3746L118.554 89.3746L118.554 79.5153ZM115.732 100.18C115.732 99.5869 115.867 99.052 116.138 98.5751C116.421 98.0983 116.808 97.7181 117.298 97.4346C117.787 97.151 118.335 97.0093 118.941 97.0093C119.559 97.0093 120.107 97.151 120.584 97.4346C121.061 97.7181 121.435 98.0983 121.705 98.5751C121.976 99.052 122.111 99.5869 122.111 100.18C122.111 100.773 121.976 101.307 121.705 101.784C121.435 102.274 121.061 102.661 120.584 102.944C120.107 103.241 119.559 103.389 118.941 103.389C118.335 103.389 117.787 103.241 117.298 102.944C116.808 102.661 116.421 102.274 116.138 101.784C115.867 101.307 115.732 100.773 115.732 100.18ZM118.554 105.417L121.841 105.417L121.841 115.276L118.554 115.276L118.554 105.417ZM115.732 120.475C115.732 119.882 115.867 119.347 116.138 118.87C116.421 118.393 116.808 118.013 117.298 117.729C117.787 117.446 118.335 117.304 118.941 117.304C119.559 117.304 120.107 117.446 120.584 117.729C121.061 118.013 121.435 118.393 121.705 118.87C121.976 119.347 122.111 119.882 122.111 120.475C122.111 121.067 121.976 121.602 121.705 122.079C121.435 122.569 121.061 122.955 120.584 123.239C120.107 123.535 119.559 123.684 118.941 123.684C118.335 123.684 117.787 123.535 117.298 123.239C116.808 122.955 116.421 122.569 116.138 122.079C115.867 121.602 115.732 121.067 115.732 120.475ZM115.732 128.592C115.732 128 115.867 127.465 116.138 126.988C116.421 126.511 116.808 126.131 117.298 125.847C117.787 125.564 118.335 125.422 118.941 125.422C119.559 125.422 120.107 125.564 120.584 125.847C121.061 126.131 121.435 126.511 121.705 126.988C121.976 127.465 122.111 128 122.111 128.592C122.111 129.185 121.976 129.72 121.705 130.197C121.435 130.687 121.061 131.073 120.584 131.357C120.107 131.653 119.559 131.802 118.941 131.802C118.335 131.802 117.787 131.653 117.298 131.357C116.808 131.073 116.421 130.687 116.138 130.197C115.867 129.72 115.732 129.185 115.732 128.592ZM118.554 139.437L121.841 139.437L121.841 149.296L118.554 149.296L118.554 139.437ZM115.732 154.494C115.732 153.901 115.867 153.367 116.138 152.89C116.421 152.413 116.808 152.033 117.298 151.749C117.787 151.466 118.335 151.324 118.941 151.324C119.559 151.324 120.107 151.466 120.584 151.749C121.061 152.033 121.435 152.413 121.705 152.89C121.976 153.367 122.111 153.901 122.111 154.494C122.111 155.087 121.976 155.622 121.705 156.099C121.435 156.589 121.061 156.975 120.584 157.259C120.107 157.555 119.559 157.703 118.941 157.703C118.335 157.703 117.787 157.555 117.298 157.259C116.808 156.975 116.421 156.589 116.138 156.099C115.867 155.622 115.732 155.087 115.732 154.494ZM115.732 162.612C115.732 162.019 115.867 161.485 116.138 161.008C116.421 160.531 116.808 160.151 117.298 159.867C117.787 159.584 118.335 159.442 118.941 159.442C119.559 159.442 120.107 159.584 120.584 159.867C121.061 160.151 121.435 160.531 121.705 161.008C121.976 161.485 122.111 162.019 122.111 162.612C122.111 163.205 121.976 163.74 121.705 164.217C121.435 164.707 121.061 165.093 120.584 165.377C120.107 165.673 119.559 165.821 118.941 165.821C118.335 165.821 117.787 165.673 117.298 165.377C116.808 165.093 116.421 164.707 116.138 164.217C115.867 163.74 115.732 163.205 115.732 162.612ZM101.732 -23.1373C101.732 -23.7302 101.867 -24.265 102.138 -24.7419C102.421 -25.2187 102.808 -25.5989 103.298 -25.8825C103.787 -26.166 104.335 -26.3078 104.941 -26.3078C105.559 -26.3078 106.107 -26.166 106.584 -25.8825C107.061 -25.5989 107.435 -25.2187 107.705 -24.7419C107.976 -24.265 108.111 -23.7302 108.111 -23.1373C108.111 -22.5445 107.976 -22.0096 107.705 -21.5328C107.435 -21.043 107.061 -20.6564 106.584 -20.3729C106.107 -20.0764 105.559 -19.9282 104.941 -19.9282C104.335 -19.9282 103.787 -20.0764 103.298 -20.3729C102.808 -20.6564 102.421 -21.043 102.138 -21.5328C101.867 -22.0096 101.732 -22.5445 101.732 -23.1373ZM104.554 -17.8999L107.841 -17.8999L107.841 -8.04054L104.554 -8.04054L104.554 -17.8999ZM104.554 -5.72297L107.841 -5.72297L107.841 4.13635L104.554 4.13635L104.554 -5.72297ZM101.732 9.33439C101.732 8.74155 101.867 8.20669 102.138 7.72984C102.421 7.25298 102.808 6.87279 103.298 6.58925C103.787 6.30571 104.335 6.16395 104.941 6.16395C105.559 6.16395 106.107 6.30571 106.584 6.58925C107.061 6.87279 107.435 7.25298 107.705 7.72984C107.976 8.20669 108.111 8.74155 108.111 9.33439C108.111 9.92724 107.976 10.4621 107.705 10.939C107.435 11.4287 107.061 11.8153 106.584 12.0989C106.107 12.3953 105.559 12.5435 104.941 12.5435C104.335 12.5435 103.787 12.3953 103.298 12.0989C102.808 11.8153 102.421 11.4287 102.138 10.939C101.867 10.4621 101.732 9.92724 101.732 9.33439ZM104.554 20.1789L107.841 20.1789L107.841 30.0382L104.554 30.0382L104.554 20.1789ZM104.554 32.3558L107.841 32.3558L107.841 42.2151L104.554 42.2151L104.554 32.3558ZM104.554 44.5327L107.841 44.5327L107.841 54.392L104.554 54.392L104.554 44.5327ZM101.732 65.1971C101.732 64.6042 101.867 64.0694 102.138 63.5925C102.421 63.1157 102.808 62.7355 103.298 62.4519C103.787 62.1684 104.335 62.0266 104.941 62.0266C105.559 62.0266 106.107 62.1684 106.584 62.4519C107.061 62.7355 107.435 63.1157 107.705 63.5925C107.976 64.0694 108.111 64.6042 108.111 65.1971C108.111 65.7899 107.976 66.3248 107.705 66.8016C107.435 67.2914 107.061 67.678 106.584 67.9616C106.107 68.258 105.559 68.4062 104.941 68.4062C104.335 68.4062 103.787 68.258 103.298 67.9616C102.808 67.678 102.421 67.2914 102.138 66.8016C101.867 66.3248 101.732 65.7899 101.732 65.1971ZM101.732 73.315C101.732 72.7222 101.867 72.1873 102.138 71.7105C102.421 71.2336 102.808 70.8534 103.298 70.5699C103.787 70.2863 104.335 70.1446 104.941 70.1446C105.559 70.1446 106.107 70.2863 106.584 70.5699C107.061 70.8534 107.435 71.2336 107.705 71.7105C107.976 72.1873 108.111 72.7222 108.111 73.315C108.111 73.9079 107.976 74.4427 107.705 74.9196C107.435 75.4093 107.061 75.796 106.584 76.0795C106.107 76.3759 105.559 76.5241 104.941 76.5241C104.335 76.5241 103.787 76.3759 103.298 76.0795C102.808 75.796 102.421 75.4093 102.138 74.9196C101.867 74.4427 101.732 73.9079 101.732 73.315ZM101.732 81.4329C101.732 80.8401 101.867 80.3052 102.138 79.8284C102.421 79.3515 102.808 78.9713 103.298 78.6878C103.787 78.4043 104.335 78.2625 104.941 78.2625C105.559 78.2625 106.107 78.4043 106.584 78.6878C107.061 78.9713 107.435 79.3515 107.705 79.8284C107.976 80.3052 108.111 80.8401 108.111 81.4329C108.111 82.0258 107.976 82.5606 107.705 83.0375C107.435 83.5272 107.061 83.9139 106.584 84.1974C106.107 84.4938 105.559 84.6421 104.941 84.6421C104.335 84.6421 103.787 84.4938 103.298 84.1974C102.808 83.9139 102.421 83.5272 102.138 83.0375C101.867 82.5606 101.732 82.0258 101.732 81.4329ZM104.554 92.2774L107.841 92.2774L107.841 102.137L104.554 102.137L104.554 92.2774ZM101.732 112.942C101.732 112.349 101.867 111.814 102.138 111.337C102.421 110.86 102.808 110.48 103.298 110.197C103.787 109.913 104.335 109.771 104.941 109.771C105.559 109.771 106.107 109.913 106.584 110.197C107.061 110.48 107.435 110.86 107.705 111.337C107.976 111.814 108.111 112.349 108.111 112.942C108.111 113.535 107.976 114.07 107.705 114.546C107.435 115.036 107.061 115.423 106.584 115.706C106.107 116.003 105.559 116.151 104.941 116.151C104.335 116.151 103.787 116.003 103.298 115.706C102.808 115.423 102.421 115.036 102.138 114.546C101.867 114.07 101.732 113.535 101.732 112.942ZM101.732 126.667C101.732 126.074 101.867 125.539 102.138 125.062C102.421 124.585 102.808 124.205 103.298 123.922C103.787 123.638 104.335 123.496 104.941 123.496C105.559 123.496 106.107 123.638 106.584 123.922C107.061 124.205 107.435 124.585 107.705 125.062C107.976 125.539 108.111 126.074 108.111 126.667C108.111 127.26 107.976 127.795 107.705 128.271C107.435 128.761 107.061 129.148 106.584 129.431C106.107 129.728 105.559 129.876 104.941 129.876C104.335 129.876 103.787 129.728 103.298 129.431C102.808 129.148 102.421 128.761 102.138 128.271C101.867 127.795 101.732 127.26 101.732 126.667ZM104.554 131.904L107.841 131.904L107.841 141.764L104.554 141.764L104.554 131.904ZM101.732 146.962C101.732 146.369 101.867 145.834 102.138 145.357C102.421 144.88 102.808 144.5 103.298 144.216C103.787 143.933 104.335 143.791 104.941 143.791C105.559 143.791 106.107 143.933 106.584 144.216C107.061 144.5 107.435 144.88 107.705 145.357C107.976 145.834 108.111 146.369 108.111 146.962C108.111 147.554 107.976 148.089 107.705 148.566C107.435 149.056 107.061 149.443 106.584 149.726C106.107 150.023 105.559 150.171 104.941 150.171C104.335 150.171 103.787 150.023 103.298 149.726C102.808 149.443 102.421 149.056 102.138 148.566C101.867 148.089 101.732 147.554 101.732 146.962ZM101.732 160.687C101.732 160.094 101.867 159.559 102.138 159.082C102.421 158.605 102.808 158.225 103.298 157.941C103.787 157.658 104.335 157.516 104.941 157.516C105.559 157.516 106.107 157.658 106.584 157.941C107.061 158.225 107.435 158.605 107.705 159.082C107.976 159.559 108.111 160.094 108.111 160.687C108.111 161.279 107.976 161.814 107.705 162.291C107.435 162.781 107.061 163.168 106.584 163.451C106.107 163.748 105.559 163.896 104.941 163.896C104.335 163.896 103.787 163.748 103.298 163.451C102.808 163.168 102.421 162.781 102.138 162.291C101.867 161.814 101.732 161.279 101.732 160.687ZM101.732 168.805C101.732 168.212 101.867 167.677 102.138 167.2C102.421 166.723 102.808 166.343 103.298 166.059C103.787 165.776 104.335 165.634 104.941 165.634C105.559 165.634 106.107 165.776 106.584 166.059C107.061 166.343 107.435 166.723 107.705 167.2C107.976 167.677 108.111 168.212 108.111 168.805C108.111 169.397 107.976 169.932 107.705 170.409C107.435 170.899 107.061 171.285 106.584 171.569C106.107 171.865 105.559 172.014 104.941 172.014C104.335 172.014 103.787 171.865 103.298 171.569C102.808 171.285 102.421 170.899 102.138 170.409C101.867 169.932 101.732 169.397 101.732 168.805ZM101.732 176.922C101.732 176.33 101.867 175.795 102.138 175.318C102.421 174.841 102.808 174.461 103.298 174.177C103.787 173.894 104.335 173.752 104.941 173.752C105.559 173.752 106.107 173.894 106.584 174.177C107.061 174.461 107.435 174.841 107.705 175.318C107.976 175.795 108.111 176.33 108.111 176.922C108.111 177.515 107.976 178.05 107.705 178.527C107.435 179.017 107.061 179.403 106.584 179.687C106.107 179.983 105.559 180.132 104.941 180.132C104.335 180.132 103.787 179.983 103.298 179.687C102.808 179.403 102.421 179.017 102.138 178.527C101.867 178.05 101.732 177.515 101.732 176.922ZM87.7317 -23.1373C87.7317 -23.7302 87.867 -24.265 88.1376 -24.7419C88.4212 -25.2187 88.8078 -25.5989 89.2976 -25.8825C89.7873 -26.166 90.335 -26.3078 90.9408 -26.3078C91.5594 -26.3078 92.1071 -26.166 92.584 -25.8825C93.0608 -25.5989 93.4346 -25.2187 93.7053 -24.7419C93.9759 -24.265 94.1112 -23.7302 94.1112 -23.1373C94.1112 -22.5445 93.9759 -22.0096 93.7052 -21.5328C93.4346 -21.043 93.0608 -20.6564 92.584 -20.3729C92.1071 -20.0764 91.5594 -19.9282 90.9408 -19.9282C90.335 -19.9282 89.7873 -20.0764 89.2976 -20.3729C88.8078 -20.6564 88.4212 -21.043 88.1376 -21.5328C87.867 -22.0096 87.7317 -22.5445 87.7317 -23.1373ZM90.5541 -17.8999L93.8406 -17.8999L93.8406 -8.04054L90.5541 -8.04054L90.5541 -17.8999ZM90.5541 -0.115933L93.8406 -0.115933L93.8406 9.74339L90.5541 9.74339L90.5541 -0.115933ZM87.7317 14.9414C87.7317 14.3486 87.867 13.8137 88.1376 13.3369C88.4212 12.86 88.8078 12.4798 89.2976 12.1963C89.7873 11.9128 90.335 11.771 90.9408 11.771C91.5594 11.771 92.1071 11.9128 92.584 12.1963C93.0608 12.4798 93.4346 12.86 93.7052 13.3369C93.9759 13.8137 94.1112 14.3486 94.1112 14.9414C94.1112 15.5343 93.9759 16.0691 93.7052 16.546C93.4346 17.0357 93.0608 17.4224 92.584 17.7059C92.1071 18.0023 91.5594 18.1505 90.9408 18.1505C90.335 18.1505 89.7873 18.0023 89.2976 17.7059C88.8078 17.4224 88.4212 17.0357 88.1376 16.546C87.867 16.0691 87.7317 15.5343 87.7317 14.9414ZM90.5541 25.7859L93.8406 25.7859L93.8406 35.6453L90.5541 35.6453L90.5541 25.7859ZM87.7317 40.8433C87.7317 40.2504 87.867 39.7156 88.1376 39.2387C88.4212 38.7619 88.8078 38.3817 89.2976 38.0981C89.7873 37.8146 90.335 37.6728 90.9408 37.6728C91.5594 37.6728 92.1071 37.8146 92.584 38.0981C93.0608 38.3817 93.4346 38.7619 93.7052 39.2387C93.9759 39.7156 94.1112 40.2504 94.1112 40.8433C94.1112 41.4361 93.9759 41.971 93.7052 42.4478C93.4346 42.9376 93.0608 43.3242 92.584 43.6078C92.1071 43.9042 91.5594 44.0524 90.9408 44.0524C90.335 44.0524 89.7873 43.9042 89.2975 43.6078C88.8078 43.3242 88.4212 42.9376 88.1376 42.4478C87.867 41.971 87.7317 41.4361 87.7317 40.8433ZM87.7317 48.9612C87.7317 48.3684 87.867 47.8335 88.1376 47.3567C88.4212 46.8798 88.8078 46.4996 89.2975 46.2161C89.7873 45.9325 90.335 45.7908 90.9408 45.7908C91.5594 45.7908 92.1071 45.9325 92.584 46.2161C93.0608 46.4996 93.4346 46.8798 93.7052 47.3567C93.9759 47.8335 94.1112 48.3684 94.1112 48.9612C94.1112 49.5541 93.9759 50.0889 93.7052 50.5658C93.4346 51.0555 93.0608 51.4422 92.584 51.7257C92.1071 52.0221 91.5594 52.1703 90.9408 52.1703C90.335 52.1703 89.7873 52.0221 89.2975 51.7257C88.8078 51.4422 88.4212 51.0555 88.1376 50.5658C87.867 50.0889 87.7317 49.5541 87.7317 48.9612ZM87.7317 74.2778C87.7317 73.685 87.867 73.1501 88.1376 72.6733C88.4212 72.1964 88.8078 71.8162 89.2975 71.5327C89.7873 71.2492 90.335 71.1074 90.9408 71.1074C91.5594 71.1074 92.1071 71.2492 92.584 71.5327C93.0608 71.8162 93.4346 72.1964 93.7052 72.6733C93.9759 73.1501 94.1112 73.685 94.1112 74.2778C94.1112 74.8707 93.9759 75.4055 93.7052 75.8824C93.4346 76.3721 93.0608 76.7588 92.584 77.0423C92.1071 77.3387 91.5594 77.487 90.9408 77.487C90.335 77.487 89.7873 77.3387 89.2975 77.0423C88.8078 76.7588 88.4212 76.3721 88.1376 75.8824C87.867 75.4055 87.7317 74.8707 87.7317 74.2778ZM87.7317 82.3958C87.7317 81.8029 87.867 81.2681 88.1376 80.7912C88.4212 80.3144 88.8078 79.9342 89.2975 79.6506C89.7873 79.3671 90.335 79.2253 90.9408 79.2253C91.5594 79.2253 92.1071 79.3671 92.584 79.6506C93.0608 79.9342 93.4346 80.3144 93.7052 80.7912C93.9759 81.2681 94.1112 81.8029 94.1112 82.3958C94.1112 82.9886 93.9759 83.5235 93.7052 84.0003C93.4346 84.4901 93.0608 84.8767 92.584 85.1602C92.1071 85.4567 91.5594 85.6049 90.9408 85.6049C90.335 85.6049 89.7873 85.4567 89.2975 85.1602C88.8078 84.8767 88.4212 84.4901 88.1376 84.0003C87.867 83.5235 87.7317 82.9886 87.7317 82.3958ZM87.7317 90.5137C87.7317 89.9209 87.867 89.386 88.1376 88.9091C88.4212 88.4323 88.8078 88.0521 89.2975 87.7686C89.7873 87.485 90.335 87.3433 90.9408 87.3433C91.5594 87.3433 92.1071 87.485 92.584 87.7686C93.0608 88.0521 93.4346 88.4323 93.7052 88.9091C93.9759 89.386 94.1112 89.9209 94.1112 90.5137C94.1112 91.1066 93.9759 91.6414 93.7052 92.1183C93.4346 92.608 93.0608 92.9946 92.584 93.2782C92.1071 93.5746 91.5594 93.7228 90.9408 93.7228C90.335 93.7228 89.7873 93.5746 89.2975 93.2782C88.8078 92.9946 88.4212 92.608 88.1376 92.1183C87.867 91.6414 87.7317 91.1066 87.7317 90.5137ZM87.7317 104.239C87.7317 103.646 87.867 103.111 88.1376 102.634C88.4212 102.157 88.8078 101.777 89.2975 101.494C89.7873 101.21 90.335 101.068 90.9408 101.068C91.5594 101.068 92.1071 101.21 92.584 101.494C93.0608 101.777 93.4346 102.157 93.7052 102.634C93.9759 103.111 94.1112 103.646 94.1112 104.239C94.1112 104.832 93.9759 105.366 93.7052 105.843C93.4346 106.333 93.0608 106.72 92.584 107.003C92.1071 107.3 91.5594 107.448 90.9408 107.448C90.335 107.448 89.7873 107.3 89.2975 107.003C88.8078 106.72 88.4212 106.333 88.1376 105.843C87.867 105.366 87.7317 104.832 87.7317 104.239ZM87.7317 112.357C87.7317 111.764 87.867 111.229 88.1376 110.752C88.4212 110.275 88.8078 109.895 89.2975 109.611C89.7873 109.328 90.335 109.186 90.9408 109.186C91.5594 109.186 92.1071 109.328 92.584 109.611C93.0608 109.895 93.4346 110.275 93.7052 110.752C93.9759 111.229 94.1112 111.764 94.1112 112.357C94.1112 112.949 93.9759 113.484 93.7052 113.961C93.4346 114.451 93.0608 114.838 92.584 115.121C92.1071 115.417 91.5594 115.566 90.9408 115.566C90.335 115.566 89.7873 115.417 89.2975 115.121C88.8078 114.838 88.4212 114.451 88.1376 113.961C87.867 113.484 87.7317 112.949 87.7317 112.357ZM90.5541 123.201L93.8406 123.201L93.8406 133.06L90.5541 133.06L90.5541 123.201ZM90.5541 135.378L93.8406 135.378L93.8406 145.237L90.5541 145.237L90.5541 135.378ZM87.7317 150.435C87.7317 149.843 87.867 149.308 88.1376 148.831C88.4212 148.354 88.8078 147.974 89.2975 147.69C89.7873 147.407 90.335 147.265 90.9408 147.265C91.5594 147.265 92.1071 147.407 92.584 147.69C93.0608 147.974 93.4346 148.354 93.7052 148.831C93.9759 149.308 94.1112 149.843 94.1112 150.435C94.1112 151.028 93.9759 151.563 93.7052 152.04C93.4346 152.53 93.0608 152.916 92.584 153.2C92.1071 153.496 91.5594 153.644 90.9408 153.644C90.335 153.644 89.7873 153.496 89.2975 153.2C88.8078 152.916 88.4212 152.53 88.1376 152.04C87.867 151.563 87.7317 151.028 87.7317 150.435ZM90.5541 161.28L93.8406 161.28L93.8406 171.139L90.5541 171.139L90.5541 161.28ZM87.7317 176.337C87.7317 175.744 87.867 175.21 88.1376 174.733C88.4212 174.256 88.8078 173.876 89.2975 173.592C89.7873 173.309 90.335 173.167 90.9408 173.167C91.5594 173.167 92.1071 173.309 92.584 173.592C93.0608 173.876 93.4346 174.256 93.7052 174.733C93.9759 175.21 94.1112 175.744 94.1112 176.337C94.1112 176.93 93.9759 177.465 93.7052 177.942C93.4346 178.432 93.0608 178.818 92.584 179.102C92.1071 179.398 91.5594 179.546 90.9408 179.546C90.335 179.546 89.7873 179.398 89.2975 179.102C88.8078 178.818 88.4212 178.432 88.1376 177.942C87.867 177.465 87.7317 176.93 87.7317 176.337ZM73.7317 -23.1373C73.7317 -23.7302 73.867 -24.265 74.1376 -24.7419C74.4212 -25.2187 74.8078 -25.5989 75.2976 -25.8825C75.7873 -26.166 76.335 -26.3078 76.9408 -26.3078C77.5594 -26.3078 78.1071 -26.166 78.584 -25.8825C79.0608 -25.5989 79.4346 -25.2187 79.7053 -24.7419C79.9759 -24.265 80.1112 -23.7302 80.1112 -23.1373C80.1112 -22.5445 79.9759 -22.0096 79.7052 -21.5328C79.4346 -21.043 79.0608 -20.6564 78.584 -20.3729C78.1071 -20.0764 77.5594 -19.9282 76.9408 -19.9282C76.335 -19.9282 75.7873 -20.0764 75.2976 -20.3729C74.8078 -20.6564 74.4212 -21.043 74.1376 -21.5328C73.867 -22.0096 73.7317 -22.5445 73.7317 -23.1373ZM73.7317 -15.0194C73.7317 -15.6122 73.867 -16.1471 74.1376 -16.624C74.4212 -17.1008 74.8078 -17.481 75.2976 -17.7645C75.7873 -18.0481 76.335 -18.1898 76.9408 -18.1898C77.5594 -18.1898 78.1071 -18.0481 78.584 -17.7645C79.0608 -17.481 79.4346 -17.1008 79.7052 -16.624C79.9759 -16.1471 80.1112 -15.6122 80.1112 -15.0194C80.1112 -14.4265 79.9759 -13.8917 79.7052 -13.4148C79.4346 -12.9251 79.0608 -12.5385 78.584 -12.2549C78.1071 -11.9585 77.5594 -11.8103 76.9408 -11.8103C76.335 -11.8103 75.7873 -11.9585 75.2976 -12.2549C74.8078 -12.5385 74.4212 -12.9251 74.1376 -13.4148C73.867 -13.8917 73.7317 -14.4265 73.7317 -15.0194ZM73.7317 -6.90147C73.7317 -7.49432 73.867 -8.02917 74.1376 -8.50602C74.4212 -8.98288 74.8078 -9.36308 75.2976 -9.64661C75.7873 -9.93015 76.335 -10.0719 76.9408 -10.0719C77.5594 -10.0719 78.1071 -9.93015 78.584 -9.64661C79.0608 -9.36308 79.4346 -8.98288 79.7052 -8.50602C79.9759 -8.02917 80.1112 -7.49432 80.1112 -6.90147C80.1112 -6.30862 79.9759 -5.77377 79.7052 -5.29691C79.4346 -4.80717 79.0608 -4.42053 78.584 -4.13699C78.1071 -3.84057 77.5594 -3.69235 76.9408 -3.69236C76.335 -3.69236 75.7873 -3.84057 75.2976 -4.13699C74.8078 -4.42053 74.4212 -4.80717 74.1376 -5.29691C73.867 -5.77377 73.7317 -6.30862 73.7317 -6.90147ZM73.7317 18.4152C73.7317 17.8223 73.867 17.2875 74.1376 16.8106C74.4212 16.3337 74.8078 15.9535 75.2976 15.67C75.7873 15.3865 76.335 15.2447 76.9408 15.2447C77.5594 15.2447 78.1071 15.3865 78.584 15.67C79.0608 15.9535 79.4346 16.3337 79.7052 16.8106C79.9759 17.2875 80.1112 17.8223 80.1112 18.4152C80.1112 19.008 79.9759 19.5429 79.7052 20.0197C79.4346 20.5095 79.0608 20.8961 78.584 21.1796C78.1071 21.4761 77.5594 21.6243 76.9408 21.6243C76.335 21.6243 75.7873 21.4761 75.2976 21.1796C74.8078 20.8961 74.4212 20.5095 74.1376 20.0197C73.867 19.5429 73.7317 19.008 73.7317 18.4152ZM73.7317 26.5331C73.7317 25.9402 73.867 25.4054 74.1376 24.9285C74.4212 24.4517 74.8078 24.0715 75.2976 23.7879C75.7873 23.5044 76.335 23.3626 76.9408 23.3626C77.5594 23.3626 78.1071 23.5044 78.584 23.7879C79.0608 24.0715 79.4346 24.4517 79.7052 24.9285C79.9759 25.4054 80.1112 25.9402 80.1112 26.5331C80.1112 27.1259 79.9759 27.6608 79.7052 28.1376C79.4346 28.6274 79.0608 29.014 78.584 29.2976C78.1071 29.594 77.5594 29.7422 76.9408 29.7422C76.335 29.7422 75.7873 29.594 75.2976 29.2976C74.8078 29.014 74.4212 28.6274 74.1376 28.1376C73.867 27.6608 73.7317 27.1259 73.7317 26.5331ZM76.5541 37.3776L79.8406 37.3776L79.8406 47.2369L76.5541 47.2369L76.5541 37.3776ZM73.7317 52.4349C73.7317 51.8421 73.867 51.3072 74.1376 50.8304C74.4212 50.3535 74.8078 49.9733 75.2975 49.6898C75.7873 49.4063 76.335 49.2645 76.9408 49.2645C77.5594 49.2645 78.1071 49.4063 78.584 49.6898C79.0608 49.9733 79.4346 50.3535 79.7052 50.8304C79.9759 51.3072 80.1112 51.8421 80.1112 52.4349C80.1112 53.0278 79.9759 53.5626 79.7052 54.0395C79.4346 54.5292 79.0608 54.9159 78.584 55.1994C78.1071 55.4958 77.5594 55.6441 76.9408 55.6441C76.335 55.6441 75.7873 55.4958 75.2975 55.1994C74.8078 54.9159 74.4212 54.5292 74.1376 54.0395C73.867 53.5626 73.7317 53.0278 73.7317 52.4349ZM76.5541 74.8711L79.8406 74.8711L79.8406 84.7304L76.5541 84.7304L76.5541 74.8711ZM73.7317 95.5355C73.7317 94.9426 73.867 94.4078 74.1376 93.9309C74.4212 93.4541 74.8078 93.0739 75.2975 92.7903C75.7873 92.5068 76.335 92.365 76.9408 92.365C77.5594 92.365 78.1071 92.5068 78.584 92.7903C79.0608 93.0739 79.4346 93.4541 79.7052 93.9309C79.9759 94.4078 80.1112 94.9426 80.1112 95.5355C80.1112 96.1283 79.9759 96.6632 79.7052 97.14C79.4346 97.6298 79.0608 98.0164 78.584 98.3C78.1071 98.5964 77.5594 98.7446 76.9408 98.7446C76.335 98.7446 75.7873 98.5964 75.2975 98.3C74.8078 98.0164 74.4212 97.6298 74.1376 97.14C73.867 96.6632 73.7317 96.1283 73.7317 95.5355ZM73.7317 103.653C73.7317 103.061 73.867 102.526 74.1376 102.049C74.4212 101.572 74.8078 101.192 75.2975 100.908C75.7873 100.625 76.335 100.483 76.9408 100.483C77.5594 100.483 78.1071 100.625 78.584 100.908C79.0608 101.192 79.4346 101.572 79.7052 102.049C79.9759 102.526 80.1112 103.061 80.1112 103.653C80.1112 104.246 79.9759 104.781 79.7052 105.258C79.4346 105.748 79.0608 106.134 78.584 106.418C78.1071 106.714 77.5594 106.863 76.9408 106.863C76.335 106.863 75.7873 106.714 75.2975 106.418C74.8078 106.134 74.4212 105.748 74.1376 105.258C73.867 104.781 73.7317 104.246 73.7317 103.653ZM73.7317 111.771C73.7317 111.178 73.867 110.644 74.1376 110.167C74.4212 109.69 74.8078 109.31 75.2975 109.026C75.7873 108.743 76.335 108.601 76.9408 108.601C77.5594 108.601 78.1071 108.743 78.584 109.026C79.0608 109.31 79.4346 109.69 79.7052 110.167C79.9759 110.644 80.1112 111.179 80.1112 111.771C80.1112 112.364 79.9759 112.899 79.7052 113.376C79.4346 113.866 79.0608 114.252 78.584 114.536C78.1071 114.832 77.5594 114.98 76.9408 114.98C76.335 114.98 75.7873 114.832 75.2975 114.536C74.8078 114.252 74.4212 113.866 74.1376 113.376C73.867 112.899 73.7317 112.364 73.7317 111.771ZM73.7317 119.889C73.7317 119.296 73.867 118.762 74.1376 118.285C74.4212 117.808 74.8078 117.428 75.2975 117.144C75.7873 116.861 76.335 116.719 76.9408 116.719C77.5594 116.719 78.1071 116.861 78.584 117.144C79.0608 117.428 79.4346 117.808 79.7052 118.285C79.9759 118.762 80.1112 119.296 80.1112 119.889C80.1112 120.482 79.9759 121.017 79.7052 121.494C79.4346 121.984 79.0608 122.37 78.584 122.654C78.1071 122.95 77.5594 123.098 76.9408 123.098C76.335 123.098 75.7873 122.95 75.2975 122.654C74.8078 122.37 74.4212 121.984 74.1376 121.494C73.867 121.017 73.7317 120.482 73.7317 119.889ZM73.7317 133.614C73.7317 133.021 73.867 132.487 74.1376 132.01C74.4212 131.533 74.8078 131.153 75.2975 130.869C75.7873 130.586 76.335 130.444 76.9408 130.444C77.5594 130.444 78.1071 130.586 78.584 130.869C79.0608 131.153 79.4346 131.533 79.7052 132.01C79.9759 132.487 80.1112 133.021 80.1112 133.614C80.1112 134.207 79.9759 134.742 79.7052 135.219C79.4346 135.709 79.0608 136.095 78.584 136.379C78.1071 136.675 77.5594 136.823 76.9408 136.823C76.335 136.823 75.7873 136.675 75.2975 136.379C74.8078 136.095 74.4212 135.709 74.1376 135.219C73.867 134.742 73.7317 134.207 73.7317 133.614ZM76.5541 156.05L79.8406 156.05L79.8406 165.91L76.5541 165.91L76.5541 156.05ZM59.7317 -23.1373C59.7317 -23.7302 59.867 -24.265 60.1376 -24.7419C60.4212 -25.2187 60.8078 -25.5989 61.2976 -25.8825C61.7873 -26.166 62.335 -26.3078 62.9408 -26.3078C63.5594 -26.3078 64.1071 -26.166 64.584 -25.8825C65.0608 -25.5989 65.4346 -25.2187 65.7053 -24.7419C65.9759 -24.265 66.1112 -23.7302 66.1112 -23.1373C66.1112 -22.5445 65.9759 -22.0096 65.7052 -21.5328C65.4346 -21.043 65.0608 -20.6564 64.584 -20.3729C64.1071 -20.0764 63.5594 -19.9282 62.9408 -19.9282C62.335 -19.9282 61.7873 -20.0764 61.2976 -20.3729C60.8078 -20.6564 60.4212 -21.043 60.1376 -21.5328C59.867 -22.0096 59.7317 -22.5445 59.7317 -23.1373ZM62.5541 -17.8999L65.8406 -17.8999L65.8406 -8.04055L62.5541 -8.04055L62.5541 -17.8999ZM59.7317 -2.8425C59.7317 -3.43535 59.867 -3.9702 60.1376 -4.44706C60.4212 -4.92391 60.8078 -5.30411 61.2976 -5.58765C61.7873 -5.87118 62.335 -6.01295 62.9408 -6.01295C63.5594 -6.01295 64.1071 -5.87118 64.584 -5.58765C65.0608 -5.30411 65.4346 -4.92391 65.7052 -4.44706C65.9759 -3.9702 66.1112 -3.43535 66.1112 -2.8425C66.1112 -2.24965 65.9759 -1.7148 65.7052 -1.23795C65.4346 -0.748202 65.0608 -0.361562 64.584 -0.078026C64.1071 0.218398 63.5594 0.36661 62.9408 0.36661C62.335 0.36661 61.7873 0.218398 61.2976 -0.0780261C60.8078 -0.361562 60.4212 -0.748202 60.1376 -1.23795C59.867 -1.7148 59.7317 -2.24965 59.7317 -2.8425ZM59.7317 10.8825C59.7317 10.2896 59.867 9.75477 60.1376 9.27791C60.4212 8.80105 60.8078 8.42086 61.2976 8.13732C61.7873 7.85379 62.335 7.71202 62.9408 7.71202C63.5594 7.71202 64.1071 7.85379 64.584 8.13732C65.0608 8.42086 65.4346 8.80105 65.7052 9.27791C65.9759 9.75477 66.1112 10.2896 66.1112 10.8825C66.1112 11.4753 65.9759 12.0102 65.7052 12.487C65.4346 12.9768 65.0608 13.3634 64.584 13.6469C64.1071 13.9434 63.5594 14.0916 62.9408 14.0916C62.335 14.0916 61.7873 13.9434 61.2976 13.6469C60.8078 13.3634 60.4212 12.9768 60.1376 12.487C59.867 12.0102 59.7317 11.4753 59.7317 10.8825ZM62.5541 16.1199L65.8406 16.1199L65.8406 25.9792L62.5541 25.9792L62.5541 16.1199ZM62.5541 33.9039L65.8406 33.9039L65.8406 43.7632L62.5541 43.7632L62.5541 33.9039ZM59.7317 48.9612C59.7317 48.3684 59.867 47.8335 60.1376 47.3567C60.4212 46.8798 60.8078 46.4996 61.2975 46.2161C61.7873 45.9325 62.335 45.7908 62.9408 45.7908C63.5594 45.7908 64.1071 45.9325 64.584 46.2161C65.0608 46.4996 65.4346 46.8798 65.7052 47.3567C65.9759 47.8335 66.1112 48.3684 66.1112 48.9612C66.1112 49.5541 65.9759 50.0889 65.7052 50.5658C65.4346 51.0555 65.0608 51.4422 64.584 51.7257C64.1071 52.0221 63.5594 52.1703 62.9408 52.1703C62.335 52.1703 61.7873 52.0221 61.2975 51.7257C60.8078 51.4422 60.4212 51.0555 60.1376 50.5658C59.867 50.0889 59.7317 49.5541 59.7317 48.9612ZM59.7317 57.0792C59.7317 56.4863 59.867 55.9515 60.1376 55.4746C60.4212 54.9977 60.8078 54.6175 61.2975 54.334C61.7873 54.0505 62.335 53.9087 62.9408 53.9087C63.5594 53.9087 64.1071 54.0505 64.584 54.334C65.0608 54.6175 65.4346 54.9977 65.7052 55.4746C65.9759 55.9515 66.1112 56.4863 66.1112 57.0792C66.1112 57.672 65.9759 58.2069 65.7052 58.6837C65.4346 59.1735 65.0608 59.5601 64.584 59.8436C64.1071 60.1401 63.5594 60.2883 62.9408 60.2883C62.335 60.2883 61.7873 60.1401 61.2975 59.8436C60.8078 59.5601 60.4212 59.1735 60.1376 58.6837C59.867 58.2069 59.7317 57.672 59.7317 57.0792ZM59.7317 70.8041C59.7317 70.2113 59.867 69.6764 60.1376 69.1996C60.4212 68.7227 60.8078 68.3425 61.2975 68.059C61.7873 67.7754 62.335 67.6337 62.9408 67.6337C63.5594 67.6337 64.1071 67.7754 64.584 68.059C65.0608 68.3425 65.4346 68.7227 65.7052 69.1996C65.9759 69.6764 66.1112 70.2113 66.1112 70.8041C66.1112 71.397 65.9759 71.9318 65.7052 72.4087C65.4346 72.8984 65.0608 73.2851 64.584 73.5686C64.1071 73.865 63.5594 74.0132 62.9408 74.0132C62.335 74.0132 61.7873 73.865 61.2975 73.5686C60.8078 73.2851 60.4212 72.8984 60.1376 72.4087C59.867 71.9318 59.7317 71.397 59.7317 70.8041ZM59.7317 78.9221C59.7317 78.3292 59.867 77.7944 60.1376 77.3175C60.4212 76.8406 60.8078 76.4604 61.2975 76.1769C61.7873 75.8934 62.335 75.7516 62.9408 75.7516C63.5594 75.7516 64.1071 75.8934 64.584 76.1769C65.0608 76.4604 65.4346 76.8406 65.7052 77.3175C65.9759 77.7944 66.1112 78.3292 66.1112 78.9221C66.1112 79.5149 65.9759 80.0498 65.7052 80.5266C65.4346 81.0164 65.0608 81.403 64.584 81.6865C64.1071 81.983 63.5594 82.1312 62.9408 82.1312C62.335 82.1312 61.7873 81.983 61.2975 81.6865C60.8078 81.403 60.4212 81.0164 60.1376 80.5266C59.867 80.0498 59.7317 79.5149 59.7317 78.9221ZM62.5541 89.7666L65.8406 89.7666L65.8406 99.6259L62.5541 99.6259L62.5541 89.7666ZM59.7317 110.431C59.7317 109.838 59.867 109.303 60.1376 108.826C60.4212 108.35 60.8078 107.969 61.2975 107.686C61.7873 107.402 62.335 107.261 62.9408 107.261C63.5594 107.261 64.1071 107.402 64.584 107.686C65.0608 107.969 65.4346 108.35 65.7052 108.826C65.9759 109.303 66.1112 109.838 66.1112 110.431C66.1112 111.024 65.9759 111.559 65.7052 112.036C65.4346 112.525 65.0608 112.912 64.584 113.195C64.1071 113.492 63.5594 113.64 62.9408 113.64C62.335 113.64 61.7873 113.492 61.2975 113.195C60.8078 112.912 60.4212 112.525 60.1376 112.036C59.867 111.559 59.7317 111.024 59.7317 110.431ZM59.7317 118.549C59.7317 117.956 59.867 117.421 60.1376 116.944C60.4212 116.467 60.8078 116.087 61.2975 115.804C61.7873 115.52 62.335 115.378 62.9408 115.378C63.5594 115.378 64.1071 115.52 64.584 115.804C65.0608 116.087 65.4346 116.467 65.7052 116.944C65.9759 117.421 66.1112 117.956 66.1112 118.549C66.1112 119.142 65.9759 119.677 65.7052 120.153C65.4346 120.643 65.0608 121.03 64.584 121.313C64.1071 121.61 63.5594 121.758 62.9408 121.758C62.335 121.758 61.7873 121.61 61.2975 121.313C60.8078 121.03 60.4212 120.643 60.1376 120.153C59.867 119.677 59.7317 119.142 59.7317 118.549ZM62.5541 129.393L65.8406 129.393L65.8406 139.253L62.5541 139.253L62.5541 129.393ZM62.5541 141.57L65.8406 141.57L65.8406 151.43L62.5541 151.43L62.5541 141.57ZM62.5541 153.747L65.8406 153.747L65.8406 163.606L62.5541 163.606L62.5541 153.747ZM48.5541 -26.0178L51.8406 -26.0178L51.8406 -16.1585L48.5541 -16.1585L48.5541 -26.0178ZM45.7317 -10.9604C45.7317 -11.5533 45.867 -12.0881 46.1376 -12.565C46.4212 -13.0418 46.8078 -13.422 47.2976 -13.7056C47.7873 -13.9891 48.335 -14.1309 48.9408 -14.1309C49.5594 -14.1309 50.1071 -13.9891 50.584 -13.7056C51.0608 -13.422 51.4346 -13.0418 51.7052 -12.565C51.9759 -12.0881 52.1112 -11.5533 52.1112 -10.9604C52.1112 -10.3676 51.9759 -9.83273 51.7052 -9.35588C51.4346 -8.86613 51.0608 -8.47949 50.584 -8.19596C50.1071 -7.89953 49.5594 -7.75132 48.9408 -7.75132C48.335 -7.75132 47.7873 -7.89953 47.2976 -8.19596C46.8078 -8.47949 46.4212 -8.86613 46.1376 -9.35588C45.867 -9.83273 45.7317 -10.3676 45.7317 -10.9604ZM45.7317 2.76453C45.7317 2.17169 45.867 1.63683 46.1376 1.15998C46.4212 0.683121 46.8078 0.302925 47.2976 0.0193891C47.7873 -0.264147 48.335 -0.405915 48.9408 -0.405915C49.5594 -0.405915 50.1071 -0.264147 50.584 0.0193893C51.0608 0.302925 51.4346 0.683121 51.7052 1.15998C51.9759 1.63683 52.1112 2.17169 52.1112 2.76453C52.1112 3.35738 51.9759 3.89223 51.7052 4.36909C51.4346 4.85883 51.0608 5.24547 50.584 5.52901C50.1071 5.82543 49.5594 5.97365 48.9408 5.97365C48.335 5.97365 47.7873 5.82543 47.2976 5.52901C46.8078 5.24547 46.4212 4.85883 46.1376 4.36909C45.867 3.89223 45.7317 3.35738 45.7317 2.76453ZM48.5541 8.002L51.8406 8.002L51.8406 17.8613L48.5541 17.8613L48.5541 8.002ZM45.7317 28.6664C45.7317 28.0735 45.867 27.5387 46.1376 27.0618C46.4212 26.585 46.8078 26.2048 47.2976 25.9213C47.7873 25.6377 48.335 25.4959 48.9408 25.4959C49.5594 25.4959 50.1071 25.6377 50.584 25.9213C51.0608 26.2048 51.4346 26.585 51.7052 27.0618C51.9759 27.5387 52.1112 28.0735 52.1112 28.6664C52.1112 29.2592 51.9759 29.7941 51.7052 30.271C51.4346 30.7607 51.0608 31.1473 50.584 31.4309C50.1071 31.7273 49.5594 31.8755 48.9408 31.8755C48.335 31.8755 47.7873 31.7273 47.2976 31.4309C46.8078 31.1473 46.4212 30.7607 46.1376 30.271C45.867 29.7941 45.7317 29.2592 45.7317 28.6664ZM48.5541 33.9039L51.8406 33.9039L51.8406 43.7632L48.5541 43.7632L48.5541 33.9039ZM45.7317 48.9612C45.7317 48.3684 45.867 47.8335 46.1376 47.3567C46.4212 46.8798 46.8078 46.4996 47.2975 46.2161C47.7873 45.9325 48.335 45.7908 48.9408 45.7908C49.5594 45.7908 50.1071 45.9325 50.584 46.2161C51.0608 46.4996 51.4346 46.8798 51.7052 47.3567C51.9759 47.8335 52.1112 48.3684 52.1112 48.9612C52.1112 49.5541 51.9759 50.0889 51.7052 50.5658C51.4346 51.0555 51.0608 51.4422 50.584 51.7257C50.1071 52.0221 49.5594 52.1703 48.9408 52.1703C48.335 52.1703 47.7873 52.0221 47.2975 51.7257C46.8078 51.4422 46.4212 51.0555 46.1376 50.5658C45.867 50.0889 45.7317 49.5541 45.7317 48.9612ZM45.7317 57.0792C45.7317 56.4863 45.867 55.9515 46.1376 55.4746C46.4212 54.9977 46.8078 54.6175 47.2975 54.334C47.7873 54.0505 48.335 53.9087 48.9408 53.9087C49.5594 53.9087 50.1071 54.0505 50.584 54.334C51.0608 54.6175 51.4346 54.9977 51.7052 55.4746C51.9759 55.9515 52.1112 56.4863 52.1112 57.0792C52.1112 57.672 51.9759 58.2069 51.7052 58.6837C51.4346 59.1735 51.0608 59.5601 50.584 59.8436C50.1071 60.1401 49.5594 60.2883 48.9408 60.2883C48.335 60.2883 47.7873 60.1401 47.2975 59.8436C46.8078 59.5601 46.4212 59.1735 46.1376 58.6837C45.867 58.2069 45.7317 57.672 45.7317 57.0792ZM48.5541 79.5153L51.8406 79.5153L51.8406 89.3746L48.5541 89.3746L48.5541 79.5153ZM48.5541 91.6922L51.8406 91.6922L51.8406 101.552L48.5541 101.552L48.5541 91.6922ZM48.5541 109.476L51.8406 109.476L51.8406 119.335L48.5541 119.335L48.5541 109.476ZM48.5541 121.653L51.8406 121.653L51.8406 131.512L48.5541 131.512L48.5541 121.653ZM48.5541 133.83L51.8406 133.83L51.8406 143.689L48.5541 143.689L48.5541 133.83ZM48.5541 151.614L51.8406 151.614L51.8406 161.473L48.5541 161.473L48.5541 151.614ZM45.7317 166.671C45.7317 166.078 45.867 165.544 46.1376 165.067C46.4212 164.59 46.8078 164.21 47.2975 163.926C47.7873 163.643 48.335 163.501 48.9408 163.501C49.5594 163.501 50.1071 163.643 50.584 163.926C51.0608 164.21 51.4346 164.59 51.7052 165.067C51.9759 165.544 52.1112 166.078 52.1112 166.671C52.1112 167.264 51.9759 167.799 51.7052 168.276C51.4346 168.766 51.0608 169.152 50.584 169.436C50.1071 169.732 49.5594 169.88 48.9408 169.88C48.335 169.88 47.7873 169.732 47.2975 169.436C46.8078 169.152 46.4212 168.766 46.1376 168.276C45.867 167.799 45.7317 167.264 45.7317 166.671ZM34.5541 -26.0178L37.8406 -26.0178L37.8406 -16.1585L34.5541 -16.1585L34.5541 -26.0178ZM31.7317 -5.3534C31.7317 -5.94625 31.867 -6.4811 32.1376 -6.95795C32.4212 -7.43481 32.8078 -7.81501 33.2976 -8.09854C33.7873 -8.38208 34.335 -8.52385 34.9408 -8.52385C35.5594 -8.52385 36.1071 -8.38208 36.584 -8.09854C37.0608 -7.81501 37.4346 -7.43481 37.7052 -6.95795C37.9759 -6.4811 38.1112 -5.94625 38.1112 -5.3534C38.1112 -4.76055 37.9759 -4.2257 37.7052 -3.74884C37.4346 -3.2591 37.0608 -2.87246 36.584 -2.58892C36.1071 -2.2925 35.5594 -2.14429 34.9408 -2.14429C34.335 -2.14429 33.7873 -2.2925 33.2976 -2.58892C32.8078 -2.87246 32.4212 -3.2591 32.1376 -3.74884C31.867 -4.2257 31.7317 -4.76055 31.7317 -5.3534ZM31.7317 2.76453C31.7317 2.17168 31.867 1.63683 32.1376 1.15998C32.4212 0.683121 32.8078 0.302925 33.2976 0.0193885C33.7873 -0.264148 34.335 -0.405915 34.9408 -0.405915C35.5594 -0.405915 36.1071 -0.264147 36.584 0.0193887C37.0608 0.302925 37.4346 0.683121 37.7052 1.15998C37.9759 1.63683 38.1112 2.17169 38.1112 2.76453C38.1112 3.35738 37.9759 3.89223 37.7052 4.36909C37.4346 4.85883 37.0608 5.24547 36.584 5.52901C36.1071 5.82543 35.5594 5.97365 34.9408 5.97365C34.335 5.97365 33.7873 5.82543 33.2976 5.52901C32.8078 5.24547 32.4212 4.85883 32.1376 4.36909C31.867 3.89223 31.7317 3.35738 31.7317 2.76453ZM31.7317 10.8825C31.7317 10.2896 31.867 9.75476 32.1376 9.2779C32.4212 8.80105 32.8078 8.42085 33.2976 8.13732C33.7873 7.85378 34.335 7.71201 34.9408 7.71201C35.5594 7.71201 36.1071 7.85378 36.584 8.13732C37.0608 8.42085 37.4346 8.80105 37.7052 9.2779C37.9759 9.75476 38.1112 10.2896 38.1112 10.8825C38.1112 11.4753 37.9759 12.0102 37.7052 12.487C37.4346 12.9768 37.0608 13.3634 36.584 13.6469C36.1071 13.9434 35.5594 14.0916 34.9408 14.0916C34.335 14.0916 33.7873 13.9434 33.2976 13.6469C32.8078 13.3634 32.4212 12.9768 32.1376 12.487C31.867 12.0102 31.7317 11.4753 31.7317 10.8825ZM31.7317 24.6074C31.7317 24.0146 31.867 23.4797 32.1376 23.0029C32.4212 22.526 32.8078 22.1458 33.2976 21.8623C33.7873 21.5787 34.335 21.437 34.9408 21.437C35.5594 21.437 36.1071 21.5787 36.584 21.8623C37.0608 22.1458 37.4346 22.526 37.7052 23.0029C37.9759 23.4797 38.1112 24.0146 38.1112 24.6074C38.1112 25.2003 37.9759 25.7351 37.7052 26.212C37.4346 26.7017 37.0608 27.0884 36.584 27.3719C36.1071 27.6683 35.5594 27.8165 34.9408 27.8165C34.335 27.8165 33.7873 27.6683 33.2976 27.3719C32.8078 27.0884 32.4212 26.7017 32.1376 26.212C31.867 25.7351 31.7317 25.2003 31.7317 24.6074ZM31.7317 38.3324C31.7317 37.7395 31.867 37.2047 32.1376 36.7278C32.4212 36.251 32.8078 35.8708 33.2976 35.5873C33.7873 35.3037 34.335 35.1619 34.9408 35.1619C35.5594 35.1619 36.1071 35.3037 36.584 35.5873C37.0608 35.8708 37.4346 36.251 37.7052 36.7278C37.9759 37.2047 38.1112 37.7395 38.1112 38.3324C38.1112 38.9252 37.9759 39.4601 37.7052 39.937C37.4346 40.4267 37.0608 40.8133 36.584 41.0969C36.1071 41.3933 35.5594 41.5415 34.9408 41.5415C34.335 41.5415 33.7873 41.3933 33.2975 41.0969C32.8078 40.8133 32.4212 40.4267 32.1376 39.937C31.867 39.4601 31.7317 38.9252 31.7317 38.3324ZM34.5541 43.5699L37.8406 43.5699L37.8406 53.4292L34.5541 53.4292L34.5541 43.5699ZM31.7317 58.6272C31.7317 58.0344 31.867 57.4995 32.1376 57.0227C32.4212 56.5458 32.8078 56.1656 33.2975 55.8821C33.7873 55.5985 34.335 55.4568 34.9408 55.4568C35.5594 55.4568 36.1071 55.5985 36.584 55.8821C37.0608 56.1656 37.4346 56.5458 37.7052 57.0227C37.9759 57.4995 38.1112 58.0344 38.1112 58.6272C38.1112 59.2201 37.9759 59.7549 37.7052 60.2318C37.4346 60.7215 37.0608 61.1082 36.584 61.3917C36.1071 61.6881 35.5594 61.8363 34.9408 61.8363C34.335 61.8363 33.7873 61.6881 33.2975 61.3917C32.8078 61.1082 32.4212 60.7215 32.1376 60.2318C31.867 59.7549 31.7317 59.2201 31.7317 58.6272ZM31.7317 72.3522C31.7317 71.7593 31.867 71.2245 32.1376 70.7476C32.4212 70.2708 32.8078 69.8906 33.2975 69.607C33.7873 69.3235 34.335 69.1817 34.9408 69.1817C35.5594 69.1817 36.1071 69.3235 36.584 69.607C37.0608 69.8906 37.4346 70.2708 37.7052 70.7476C37.9759 71.2245 38.1112 71.7593 38.1112 72.3522C38.1112 72.945 37.9759 73.4799 37.7052 73.9567C37.4346 74.4465 37.0608 74.8331 36.584 75.1167C36.1071 75.4131 35.5594 75.5613 34.9408 75.5613C34.335 75.5613 33.7873 75.4131 33.2975 75.1167C32.8078 74.8331 32.4212 74.4465 32.1376 73.9567C31.867 73.4799 31.7317 72.945 31.7317 72.3522ZM34.5541 77.5897L37.8406 77.5897L37.8406 87.449L34.5541 87.449L34.5541 77.5897ZM31.7317 92.647C31.7317 92.0542 31.867 91.5193 32.1376 91.0425C32.4212 90.5656 32.8078 90.1854 33.2975 89.9019C33.7873 89.6183 34.335 89.4766 34.9408 89.4766C35.5594 89.4766 36.1071 89.6183 36.584 89.9019C37.0608 90.1854 37.4346 90.5656 37.7052 91.0425C37.9759 91.5193 38.1112 92.0542 38.1112 92.647C38.1112 93.2399 37.9759 93.7747 37.7052 94.2516C37.4346 94.7413 37.0608 95.128 36.584 95.4115C36.1071 95.7079 35.5594 95.8561 34.9408 95.8561C34.335 95.8561 33.7873 95.7079 33.2975 95.4115C32.8078 95.128 32.4212 94.7413 32.1376 94.2516C31.867 93.7747 31.7317 93.2399 31.7317 92.647ZM31.7317 100.765C31.7317 100.172 31.867 99.6372 32.1376 99.1604C32.4212 98.6835 32.8078 98.3033 33.2975 98.0198C33.7873 97.7363 34.335 97.5945 34.9408 97.5945C35.5594 97.5945 36.1071 97.7363 36.584 98.0198C37.0608 98.3033 37.4346 98.6835 37.7052 99.1604C37.9759 99.6372 38.1112 100.172 38.1112 100.765C38.1112 101.358 37.9759 101.893 37.7052 102.37C37.4346 102.859 37.0608 103.246 36.584 103.529C36.1071 103.826 35.5594 103.974 34.9408 103.974C34.335 103.974 33.7873 103.826 33.2975 103.529C32.8078 103.246 32.4212 102.859 32.1376 102.37C31.867 101.893 31.7317 101.358 31.7317 100.765ZM34.5541 123.201L37.8406 123.201L37.8406 133.06L34.5541 133.06L34.5541 123.201ZM31.7317 143.865C31.7317 143.273 31.867 142.738 32.1376 142.261C32.4212 141.784 32.8078 141.404 33.2975 141.12C33.7873 140.837 34.335 140.695 34.9408 140.695C35.5594 140.695 36.1071 140.837 36.584 141.12C37.0608 141.404 37.4346 141.784 37.7052 142.261C37.9759 142.738 38.1112 143.273 38.1112 143.865C38.1112 144.458 37.9759 144.993 37.7052 145.47C37.4346 145.96 37.0608 146.346 36.584 146.63C36.1071 146.926 35.5594 147.075 34.9408 147.075C34.335 147.075 33.7873 146.926 33.2975 146.63C32.8078 146.346 32.4212 145.96 32.1376 145.47C31.867 144.993 31.7317 144.458 31.7317 143.865ZM34.5541 149.103L37.8406 149.103L37.8406 158.962L34.5541 158.962L34.5541 149.103ZM31.7317 164.16C31.7317 163.567 31.867 163.033 32.1376 162.556C32.4212 162.079 32.8078 161.699 33.2975 161.415C33.7873 161.132 34.335 160.99 34.9408 160.99C35.5594 160.99 36.1071 161.132 36.584 161.415C37.0608 161.699 37.4346 162.079 37.7052 162.556C37.9759 163.033 38.1112 163.567 38.1112 164.16C38.1112 164.753 37.9759 165.288 37.7052 165.765C37.4346 166.255 37.0608 166.641 36.584 166.925C36.1071 167.221 35.5594 167.369 34.9408 167.369C34.335 167.369 33.7873 167.221 33.2975 166.925C32.8078 166.641 32.4212 166.255 32.1376 165.765C31.867 165.288 31.7317 164.753 31.7317 164.16ZM17.7317 -23.1373C17.7317 -23.7302 17.867 -24.265 18.1376 -24.7419C18.4212 -25.2187 18.8078 -25.5989 19.2976 -25.8825C19.7873 -26.166 20.335 -26.3078 20.9408 -26.3078C21.5594 -26.3078 22.1071 -26.166 22.584 -25.8825C23.0608 -25.5989 23.4346 -25.2187 23.7053 -24.7419C23.9759 -24.265 24.1112 -23.7302 24.1112 -23.1373C24.1112 -22.5445 23.9759 -22.0096 23.7052 -21.5328C23.4346 -21.043 23.0608 -20.6564 22.584 -20.3729C22.1071 -20.0764 21.5594 -19.9282 20.9408 -19.9282C20.335 -19.9282 19.7873 -20.0764 19.2976 -20.3729C18.8078 -20.6564 18.4212 -21.043 18.1376 -21.5328C17.867 -22.0096 17.7317 -22.5445 17.7317 -23.1373ZM20.5541 -17.8999L23.8406 -17.8999L23.8406 -8.04055L20.5541 -8.04055L20.5541 -17.8999ZM20.5541 -0.115936L23.8406 -0.115936L23.8406 9.74339L20.5541 9.74339L20.5541 -0.115936ZM17.7317 14.9414C17.7317 14.3486 17.867 13.8137 18.1376 13.3369C18.4212 12.86 18.8078 12.4798 19.2976 12.1963C19.7873 11.9127 20.335 11.771 20.9408 11.771C21.5594 11.771 22.1071 11.9127 22.584 12.1963C23.0608 12.4798 23.4346 12.86 23.7052 13.3369C23.9759 13.8137 24.1112 14.3486 24.1112 14.9414C24.1112 15.5343 23.9759 16.0691 23.7052 16.546C23.4346 17.0357 23.0608 17.4224 22.584 17.7059C22.1071 18.0023 21.5594 18.1505 20.9408 18.1505C20.335 18.1505 19.7873 18.0023 19.2976 17.7059C18.8078 17.4224 18.4212 17.0357 18.1376 16.546C17.867 16.0691 17.7317 15.5343 17.7317 14.9414ZM17.7317 23.0594C17.7317 22.4665 17.867 21.9317 18.1376 21.4548C18.4212 20.9779 18.8078 20.5978 19.2976 20.3142C19.7873 20.0307 20.335 19.8889 20.9408 19.8889C21.5594 19.8889 22.1071 20.0307 22.584 20.3142C23.0608 20.5978 23.4346 20.9779 23.7052 21.4548C23.9759 21.9317 24.1112 22.4665 24.1112 23.0594C24.1112 23.6522 23.9759 24.1871 23.7052 24.6639C23.4346 25.1537 23.0608 25.5403 22.584 25.8238C22.1071 26.1203 21.5594 26.2685 20.9408 26.2685C20.335 26.2685 19.7873 26.1203 19.2976 25.8238C18.8078 25.5403 18.4212 25.1537 18.1376 24.6639C17.867 24.1871 17.7317 23.6522 17.7317 23.0594ZM17.7317 36.7843C17.7317 36.1915 17.867 35.6566 18.1376 35.1798C18.4212 34.7029 18.8078 34.3227 19.2976 34.0392C19.7873 33.7556 20.335 33.6139 20.9408 33.6139C21.5594 33.6139 22.1071 33.7556 22.584 34.0392C23.0608 34.3227 23.4346 34.7029 23.7052 35.1798C23.9759 35.6566 24.1112 36.1915 24.1112 36.7843C24.1112 37.3772 23.9759 37.912 23.7052 38.3889C23.4346 38.8786 23.0608 39.2653 22.584 39.5488C22.1071 39.8452 21.5594 39.9934 20.9408 39.9934C20.335 39.9934 19.7873 39.8452 19.2976 39.5488C18.8078 39.2653 18.4212 38.8786 18.1376 38.3889C17.867 37.912 17.7317 37.3772 17.7317 36.7843ZM17.7317 44.9023C17.7317 44.3094 17.867 43.7746 18.1376 43.2977C18.4212 42.8208 18.8078 42.4406 19.2975 42.1571C19.7873 41.8736 20.335 41.7318 20.9408 41.7318C21.5594 41.7318 22.1071 41.8736 22.584 42.1571C23.0608 42.4406 23.4346 42.8208 23.7052 43.2977C23.9759 43.7746 24.1112 44.3094 24.1112 44.9023C24.1112 45.4951 23.9759 46.03 23.7052 46.5068C23.4346 46.9966 23.0608 47.3832 22.584 47.6667C22.1071 47.9632 21.5594 48.1114 20.9408 48.1114C20.335 48.1114 19.7873 47.9632 19.2975 47.6667C18.8078 47.3832 18.4212 46.9966 18.1376 46.5068C17.867 46.03 17.7317 45.4951 17.7317 44.9023ZM20.5541 55.7468L23.8406 55.7468L23.8406 65.6061L20.5541 65.6061L20.5541 55.7468ZM17.7317 76.4112C17.7317 75.8183 17.867 75.2835 18.1376 74.8066C18.4212 74.3297 18.8078 73.9495 19.2975 73.666C19.7873 73.3825 20.335 73.2407 20.9408 73.2407C21.5594 73.2407 22.1071 73.3825 22.584 73.666C23.0608 73.9495 23.4346 74.3297 23.7052 74.8066C23.9759 75.2835 24.1112 75.8183 24.1112 76.4112C24.1112 77.004 23.9759 77.5389 23.7052 78.0157C23.4346 78.5055 23.0608 78.8921 22.584 79.1756C22.1071 79.4721 21.5594 79.6203 20.9408 79.6203C20.335 79.6203 19.7873 79.4721 19.2975 79.1756C18.8078 78.8921 18.4212 78.5055 18.1376 78.0157C17.867 77.5389 17.7317 77.004 17.7317 76.4112ZM17.7317 84.5291C17.7317 83.9362 17.867 83.4014 18.1376 82.9245C18.4212 82.4477 18.8078 82.0675 19.2975 81.7839C19.7873 81.5004 20.335 81.3586 20.9408 81.3586C21.5594 81.3586 22.1071 81.5004 22.584 81.7839C23.0608 82.0675 23.4346 82.4477 23.7052 82.9245C23.9759 83.4014 24.1112 83.9362 24.1112 84.5291C24.1112 85.1219 23.9759 85.6568 23.7052 86.1336C23.4346 86.6234 23.0608 87.01 22.584 87.2936C22.1071 87.59 21.5594 87.7382 20.9408 87.7382C20.335 87.7382 19.7873 87.59 19.2975 87.2936C18.8078 87.01 18.4212 86.6234 18.1376 86.1336C17.867 85.6568 17.7317 85.1219 17.7317 84.5291ZM20.5541 95.3736L23.8406 95.3736L23.8406 105.233L20.5541 105.233L20.5541 95.3736ZM20.5541 107.55L23.8406 107.55L23.8406 117.41L20.5541 117.41L20.5541 107.55ZM20.5541 119.727L23.8406 119.727L23.8406 129.587L20.5541 129.587L20.5541 119.727ZM20.5541 137.511L23.8406 137.511L23.8406 147.371L20.5541 147.371L20.5541 137.511ZM17.7317 152.569C17.7317 151.976 17.867 151.441 18.1376 150.964C18.4212 150.487 18.8078 150.107 19.2975 149.824C19.7873 149.54 20.335 149.398 20.9408 149.398C21.5594 149.398 22.1071 149.54 22.584 149.824C23.0608 150.107 23.4346 150.487 23.7052 150.964C23.9759 151.441 24.1112 151.976 24.1112 152.569C24.1112 153.162 23.9759 153.696 23.7052 154.173C23.4346 154.663 23.0608 155.05 22.584 155.333C22.1071 155.63 21.5594 155.778 20.9408 155.778C20.335 155.778 19.7873 155.63 19.2975 155.333C18.8078 155.05 18.4212 154.663 18.1376 154.173C17.867 153.696 17.7317 153.162 17.7317 152.569ZM3.73166 -23.1373C3.73166 -23.7302 3.86698 -24.265 4.13763 -24.7419C4.42117 -25.2187 4.80781 -25.5989 5.29755 -25.8825C5.7873 -26.166 6.33504 -26.3078 6.94077 -26.3078C7.5594 -26.3078 8.10714 -26.166 8.58399 -25.8825C9.06085 -25.5989 9.4346 -25.2187 9.70525 -24.7419C9.9759 -24.265 10.1112 -23.7302 10.1112 -23.1373C10.1112 -22.5445 9.9759 -22.0096 9.70525 -21.5328C9.4346 -21.043 9.06085 -20.6564 8.58399 -20.3729C8.10714 -20.0764 7.5594 -19.9282 6.94077 -19.9282C6.33504 -19.9282 5.7873 -20.0764 5.29755 -20.3729C4.80781 -20.6564 4.42117 -21.043 4.13763 -21.5328C3.86698 -22.0096 3.73166 -22.5445 3.73166 -23.1373ZM6.55413 -17.8999L9.84057 -17.8999L9.84057 -8.04055L6.55413 -8.04055L6.55413 -17.8999ZM3.73166 2.76453C3.73166 2.17168 3.86698 1.63683 4.13763 1.15998C4.42117 0.683119 4.80781 0.302923 5.29755 0.0193873C5.7873 -0.264149 6.33504 -0.405917 6.94077 -0.405917C7.5594 -0.405917 8.10714 -0.264149 8.58399 0.0193874C9.06085 0.302924 9.4346 0.68312 9.70525 1.15998C9.9759 1.63683 10.1112 2.17168 10.1112 2.76453C10.1112 3.35738 9.9759 3.89223 9.70525 4.36909C9.4346 4.85883 9.06085 5.24547 8.58399 5.52901C8.10714 5.82543 7.5594 5.97364 6.94077 5.97364C6.33504 5.97364 5.7873 5.82543 5.29755 5.52901C4.80781 5.24547 4.42117 4.85883 4.13763 4.36909C3.86698 3.89223 3.73166 3.35738 3.73166 2.76453ZM6.55413 8.00199L9.84057 8.00199L9.84057 17.8613L6.55413 17.8613L6.55413 8.00199ZM3.73166 23.0594C3.73166 22.4665 3.86698 21.9317 4.13763 21.4548C4.42117 20.9779 4.80781 20.5977 5.29755 20.3142C5.78729 20.0307 6.33504 19.8889 6.94077 19.8889C7.5594 19.8889 8.10714 20.0307 8.58399 20.3142C9.06085 20.5978 9.4346 20.9779 9.70525 21.4548C9.9759 21.9317 10.1112 22.4665 10.1112 23.0594C10.1112 23.6522 9.9759 24.1871 9.70525 24.6639C9.4346 25.1537 9.06085 25.5403 8.58399 25.8238C8.10714 26.1203 7.5594 26.2685 6.94077 26.2685C6.33503 26.2685 5.78729 26.1203 5.29755 25.8238C4.80781 25.5403 4.42117 25.1537 4.13763 24.6639C3.86698 24.1871 3.73166 23.6522 3.73166 23.0594ZM3.73166 31.1773C3.73166 30.5844 3.86698 30.0496 4.13763 29.5727C4.42117 29.0959 4.80781 28.7157 5.29755 28.4321C5.78729 28.1486 6.33503 28.0068 6.94077 28.0068C7.55939 28.0068 8.10713 28.1486 8.58399 28.4321C9.06085 28.7157 9.4346 29.0959 9.70525 29.5727C9.9759 30.0496 10.1112 30.5844 10.1112 31.1773C10.1112 31.7701 9.9759 32.305 9.70525 32.7818C9.4346 33.2716 9.06085 33.6582 8.58399 33.9418C8.10713 34.2382 7.55939 34.3864 6.94077 34.3864C6.33503 34.3864 5.78729 34.2382 5.29755 33.9418C4.80781 33.6582 4.42117 33.2716 4.13763 32.7818C3.86698 32.305 3.73166 31.7701 3.73166 31.1773ZM6.55413 53.6134L9.84057 53.6134L9.84057 63.4728L6.55413 63.4728L6.55413 53.6134ZM6.55413 65.7903L9.84057 65.7903L9.84057 75.6496L6.55413 75.6496L6.55413 65.7903ZM6.55413 83.5743L9.84057 83.5743L9.84057 93.4336L6.55413 93.4336L6.55413 83.5743ZM6.55413 95.7512L9.84057 95.7512L9.84057 105.61L6.55413 105.61L6.55413 95.7512ZM6.55413 107.928L9.84057 107.928L9.84057 117.787L6.55413 117.787L6.55413 107.928ZM6.55413 125.712L9.84057 125.712L9.84057 135.571L6.55413 135.571L6.55413 125.712ZM3.73165 140.769C3.73165 140.176 3.86698 139.642 4.13763 139.165C4.42116 138.688 4.8078 138.308 5.29755 138.024C5.78729 137.741 6.33503 137.599 6.94077 137.599C7.55939 137.599 8.10713 137.741 8.58399 138.024C9.06084 138.308 9.43459 138.688 9.70524 139.165C9.97589 139.642 10.1112 140.176 10.1112 140.769C10.1112 141.362 9.97589 141.897 9.70524 142.374C9.43459 142.864 9.06084 143.25 8.58399 143.534C8.10713 143.83 7.55939 143.978 6.94077 143.978C6.33503 143.978 5.78729 143.83 5.29755 143.534C4.8078 143.25 4.42116 142.864 4.13763 142.374C3.86698 141.897 3.73165 141.362 3.73165 140.769ZM6.55413 151.614L9.84057 151.614L9.84057 161.473L6.55413 161.473L6.55413 151.614ZM-10.2683 -23.1373C-10.2683 -23.7302 -10.133 -24.265 -9.86237 -24.7419C-9.57883 -25.2187 -9.19219 -25.5989 -8.70245 -25.8825C-8.2127 -26.166 -7.66496 -26.3078 -7.05923 -26.3078C-6.4406 -26.3078 -5.89286 -26.166 -5.41601 -25.8825C-4.93915 -25.5989 -4.5654 -25.2187 -4.29475 -24.7419C-4.0241 -24.265 -3.88878 -23.7302 -3.88878 -23.1373C-3.88878 -22.5445 -4.0241 -22.0096 -4.29475 -21.5328C-4.5654 -21.043 -4.93915 -20.6564 -5.41601 -20.3729C-5.89286 -20.0764 -6.4406 -19.9282 -7.05923 -19.9282C-7.66496 -19.9282 -8.2127 -20.0764 -8.70245 -20.3729C-9.19219 -20.6564 -9.57883 -21.043 -9.86237 -21.5328C-10.133 -22.0096 -10.2683 -22.5445 -10.2683 -23.1373ZM-10.2683 -15.0194C-10.2683 -15.6122 -10.133 -16.1471 -9.86237 -16.624C-9.57883 -17.1008 -9.19219 -17.481 -8.70245 -17.7645C-8.2127 -18.0481 -7.66496 -18.1899 -7.05923 -18.1898C-6.4406 -18.1898 -5.89286 -18.0481 -5.41601 -17.7645C-4.93915 -17.481 -4.5654 -17.1008 -4.29475 -16.624C-4.0241 -16.1471 -3.88878 -15.6122 -3.88878 -15.0194C-3.88878 -14.4266 -4.0241 -13.8917 -4.29475 -13.4148C-4.5654 -12.9251 -4.93915 -12.5385 -5.41601 -12.2549C-5.89286 -11.9585 -6.4406 -11.8103 -7.05923 -11.8103C-7.66496 -11.8103 -8.2127 -11.9585 -8.70245 -12.2549C-9.19219 -12.5385 -9.57883 -12.9251 -9.86237 -13.4148C-10.133 -13.8917 -10.2683 -14.4266 -10.2683 -15.0194ZM-10.2683 -6.90147C-10.2683 -7.49432 -10.133 -8.02917 -9.86237 -8.50603C-9.57883 -8.98288 -9.19219 -9.36308 -8.70245 -9.64662C-8.2127 -9.93015 -7.66496 -10.0719 -7.05923 -10.0719C-6.4406 -10.0719 -5.89286 -9.93015 -5.41601 -9.64662C-4.93915 -9.36308 -4.5654 -8.98288 -4.29475 -8.50603C-4.0241 -8.02917 -3.88878 -7.49432 -3.88878 -6.90147C-3.88878 -6.30862 -4.0241 -5.77377 -4.29475 -5.29691C-4.5654 -4.80717 -4.93915 -4.42053 -5.41601 -4.13699C-5.89286 -3.84057 -6.4406 -3.69236 -7.05923 -3.69236C-7.66496 -3.69236 -8.2127 -3.84057 -8.70245 -4.13699C-9.19219 -4.42053 -9.57883 -4.80717 -9.86237 -5.29692C-10.133 -5.77377 -10.2683 -6.30862 -10.2683 -6.90147ZM-10.2683 6.82349C-10.2683 6.23065 -10.133 5.69579 -9.86237 5.21894C-9.57883 4.74208 -9.19219 4.36189 -8.70245 4.07835C-8.2127 3.79481 -7.66496 3.65305 -7.05923 3.65305C-6.4406 3.65305 -5.89286 3.79481 -5.41601 4.07835C-4.93915 4.36189 -4.5654 4.74208 -4.29475 5.21894C-4.0241 5.69579 -3.88878 6.23065 -3.88878 6.8235C-3.88878 7.41634 -4.0241 7.9512 -4.29475 8.42805C-4.5654 8.9178 -4.93915 9.30444 -5.41601 9.58797C-5.89286 9.8844 -6.4406 10.0326 -7.05923 10.0326C-7.66496 10.0326 -8.2127 9.8844 -8.70245 9.58797C-9.19219 9.30444 -9.57883 8.9178 -9.86237 8.42805C-10.133 7.95119 -10.2683 7.41634 -10.2683 6.82349ZM-10.2683 20.5485C-10.2683 19.9556 -10.133 19.4208 -9.86237 18.9439C-9.57883 18.4671 -9.19219 18.0869 -8.70245 17.8033C-8.2127 17.5198 -7.66496 17.378 -7.05923 17.378C-6.4406 17.378 -5.89286 17.5198 -5.41601 17.8033C-4.93915 18.0869 -4.5654 18.4671 -4.29475 18.9439C-4.0241 19.4208 -3.88878 19.9556 -3.88878 20.5485C-3.88878 21.1413 -4.0241 21.6762 -4.29475 22.153C-4.5654 22.6428 -4.93915 23.0294 -5.41601 23.3129C-5.89286 23.6094 -6.4406 23.7576 -7.05923 23.7576C-7.66496 23.7576 -8.21271 23.6094 -8.70245 23.3129C-9.19219 23.0294 -9.57883 22.6428 -9.86237 22.153C-10.133 21.6762 -10.2683 21.1413 -10.2683 20.5485ZM-7.44587 25.7859L-4.15943 25.7859L-4.15943 35.6452L-7.44587 35.6452L-7.44587 25.7859ZM-10.2683 40.8433C-10.2683 40.2504 -10.133 39.7156 -9.86237 39.2387C-9.57883 38.7619 -9.19219 38.3817 -8.70245 38.0981C-8.21271 37.8146 -7.66497 37.6728 -7.05923 37.6728C-6.44061 37.6728 -5.89287 37.8146 -5.41601 38.0981C-4.93915 38.3817 -4.5654 38.7619 -4.29475 39.2387C-4.0241 39.7156 -3.88878 40.2504 -3.88878 40.8433C-3.88878 41.4361 -4.0241 41.971 -4.29475 42.4478C-4.5654 42.9376 -4.93915 43.3242 -5.41601 43.6078C-5.89287 43.9042 -6.44061 44.0524 -7.05923 44.0524C-7.66497 44.0524 -8.21271 43.9042 -8.70245 43.6078C-9.19219 43.3242 -9.57883 42.9376 -9.86237 42.4478C-10.133 41.971 -10.2683 41.4361 -10.2683 40.8433ZM-10.2683 54.5683C-10.2683 53.9754 -10.133 53.4406 -9.86237 52.9637C-9.57883 52.4868 -9.19219 52.1066 -8.70245 51.8231C-8.21271 51.5396 -7.66497 51.3978 -7.05923 51.3978C-6.44061 51.3978 -5.89287 51.5396 -5.41601 51.8231C-4.93915 52.1066 -4.5654 52.4868 -4.29475 52.9637C-4.02411 53.4406 -3.88878 53.9754 -3.88878 54.5683C-3.88878 55.1611 -4.02411 55.696 -4.29475 56.1728C-4.5654 56.6626 -4.93915 57.0492 -5.41601 57.3327C-5.89287 57.6292 -6.44061 57.7774 -7.05923 57.7774C-7.66497 57.7774 -8.21271 57.6292 -8.70245 57.3327C-9.19219 57.0492 -9.57883 56.6626 -9.86237 56.1728C-10.133 55.696 -10.2683 55.1611 -10.2683 54.5683ZM-7.44587 59.8057L-4.15943 59.8057L-4.15943 69.665L-7.44587 69.665L-7.44587 59.8057ZM-10.2683 74.8631C-10.2683 74.2702 -10.133 73.7354 -9.86237 73.2585C-9.57884 72.7817 -9.1922 72.4015 -8.70245 72.1179C-8.21271 71.8344 -7.66497 71.6926 -7.05923 71.6926C-6.44061 71.6926 -5.89287 71.8344 -5.41601 72.1179C-4.93915 72.4015 -4.5654 72.7817 -4.29475 73.2585C-4.02411 73.7354 -3.88878 74.2702 -3.88878 74.8631C-3.88878 75.4559 -4.02411 75.9908 -4.29475 76.4676C-4.5654 76.9574 -4.93916 77.344 -5.41601 77.6276C-5.89287 77.924 -6.44061 78.0722 -7.05923 78.0722C-7.66497 78.0722 -8.21271 77.924 -8.70245 77.6276C-9.1922 77.344 -9.57884 76.9574 -9.86237 76.4676C-10.133 75.9908 -10.2683 75.4559 -10.2683 74.8631Z" fill="#16141F"/>
</g>
<path fill-rule="evenodd" clip-rule="evenodd" d="M0.894531 1.03809V164.481L128.603 162.724L132.704 1.03809H0.894531ZM6.75271 154.522L9.09599 10.4112L123.331 13.3403L119.23 152.765L6.75271 154.522Z" fill="#E84355" stroke="#16141F" stroke-width="1.17164"/>
</svg>
