<svg width="71" height="55" viewBox="0 0 71 55" fill="none" xmlns="http://www.w3.org/2000/svg">
<path d="M70 53.9631C69.3521 52.992 67.859 50.9652 63 50.9652C56.9262 50.9652 53.8134 40.4758 56 31.9784C58.1866 23.481 68.4859 33.2902 68 1L54 1L40 1C39.5141 33.2902 49.8134 23.481 52 31.9784C53.4577 38.7763 50.0174 50.9652 42 50.9652C39.8134 50.9652 36 50.6267 36 53.9631H34C34 50.9985 29.3485 50.8416 27 50.9652C20.9262 50.9652 17.8134 40.4758 20 31.9784C22.1866 23.481 31.4859 33.2902 31 1L18 1L4 1C3.51409 33.2902 12.8134 23.481 15 31.9784C16.4577 38.7763 14.0174 50.9652 6 50.9652C4.21835 50.8938 1 51.3524 1 53.9631H34H36L70 53.9631Z" fill="#FAF9F9"/>
<path d="M36 53.9631C36 50.6267 39.8134 50.9652 42 50.9652C50.0174 50.9652 53.4577 38.7763 52 31.9784C49.8134 23.481 39.5141 33.2902 40 1L54 1L68 1C68.4859 33.2902 58.1866 23.481 56 31.9784C53.8134 40.4758 56.9262 50.9652 63 50.9652C67.859 50.9652 69.3521 52.992 70 53.9631L1 53.9631C1 51.3524 4.21835 50.8938 6 50.9652C14.0174 50.9652 16.4577 38.7763 15 31.9784C12.8134 23.481 3.5141 33.2902 4 1L18 1L31 1C31.4859 33.2902 22.1866 23.481 20 31.9784C17.8134 40.4758 20.9262 50.9652 27 50.9652C29.3485 50.8416 34 50.9985 34 53.9631" stroke="#16141F"/>
<path d="M11.622 22.9048L12.4532 22.5062L12.6044 22.3674L14.059 21.6698C14.3412 21.5345 14.5187 21.3452 14.5914 21.1021C14.6693 20.8565 14.6258 20.5618 14.4609 20.218C14.3502 19.9871 14.2048 19.776 14.0247 19.5847C13.847 19.3985 13.6572 19.2592 13.4551 19.1668L13.9746 18.4538C14.2497 18.5932 14.5009 18.7946 14.7282 19.058C14.9631 19.324 15.1592 19.6212 15.3167 19.9496C15.6022 20.5448 15.6787 21.0729 15.5464 21.534C15.4217 21.9977 15.0617 22.3723 14.4665 22.6577L12.0575 23.813L11.622 22.9048ZM10.948 21.6376C10.8004 21.3298 10.7225 21.0358 10.7144 20.7557C10.7114 20.4731 10.7715 20.2234 10.8947 20.0065C11.0255 19.7924 11.2089 19.6287 11.4449 19.5155C11.6758 19.4047 11.9095 19.359 12.1459 19.3781C12.3847 19.4024 12.6183 19.5144 12.8466 19.7142C13.075 19.9139 13.2888 20.2216 13.4881 20.6372L14.0602 21.8302L13.4214 22.1365L12.8825 21.0129C12.725 20.6845 12.5653 20.4897 12.4034 20.4285C12.2467 20.3648 12.0913 20.3699 11.9374 20.4437C11.763 20.5274 11.6576 20.6631 11.6215 20.8508C11.5853 21.0386 11.6262 21.2556 11.7444 21.5019C11.8575 21.7379 12.0123 21.9224 12.2086 22.0555C12.4074 22.1936 12.6317 22.2533 12.8815 22.2345L12.3817 22.673C12.0963 22.6963 11.829 22.6194 11.58 22.4422C11.3334 22.2701 11.1227 22.0019 10.948 21.6376Z" fill="#16141F"/>
<path d="M21.0717 19.2659C21.4126 19.0828 21.7563 18.9951 22.1028 19.0027C22.4493 19.0103 22.781 19.1228 23.098 19.3401C23.4127 19.5651 23.6952 19.9107 23.9457 20.3769C24.1989 20.8481 24.3285 21.2758 24.3347 21.6601C24.3359 22.0471 24.2427 22.3846 24.0551 22.6727C23.8652 22.9685 23.6073 23.204 23.2815 23.379C22.8855 23.5918 22.4913 23.6937 22.099 23.6849C21.7016 23.6787 21.3331 23.5699 20.9933 23.3584C20.6486 23.1495 20.3644 22.8371 20.1409 22.421C19.9174 22.0049 19.8137 21.5955 19.8299 21.1928C19.841 20.7927 19.9524 20.4229 20.1639 20.0831C20.3731 19.7511 20.6757 19.4787 21.0717 19.2659ZM23.3258 18.1228L26.3233 23.7022L25.3833 24.2071L24.0421 21.7107L23.5437 20.6026L22.94 19.551L22.431 18.6035L23.3258 18.1228ZM21.6093 20.0139C21.3837 20.1351 21.2101 20.293 21.0885 20.4875C20.9619 20.6847 20.8972 20.9069 20.8942 21.1539C20.8913 21.401 20.9585 21.6523 21.0959 21.908C21.2359 22.1686 21.4084 22.3634 21.6133 22.4923C21.8209 22.6263 22.0419 22.6949 22.2762 22.6982C22.5055 22.7042 22.733 22.6466 22.9586 22.5254C23.1841 22.4042 23.3602 22.245 23.4868 22.0478C23.6134 21.8506 23.6782 21.6285 23.6811 21.3814C23.6867 21.1394 23.6195 20.888 23.4795 20.6274C23.3421 20.3717 23.1697 20.1769 22.962 20.043C22.7544 19.909 22.5335 19.8404 22.2991 19.8371C22.0648 19.8338 21.8349 19.8928 21.6093 20.0139Z" fill="#16141F"/>
<path d="M47.0924 19.0397C47.5035 18.8189 47.9166 18.71 48.3317 18.7131C48.7494 18.7212 49.1346 18.8308 49.487 19.042C49.8395 19.2531 50.1221 19.5567 50.3348 19.9527C50.5503 20.3537 50.6474 20.757 50.6262 21.1624C50.6077 21.5729 50.4852 21.952 50.2586 22.2998C50.0321 22.6476 49.7133 22.932 49.3022 23.1528C48.8861 23.3763 48.4705 23.4865 48.0555 23.4835C47.6354 23.4831 47.2529 23.3785 46.9082 23.1696C46.5584 22.9635 46.2745 22.6574 46.0563 22.2513C45.8436 21.8553 45.7464 21.4521 45.7649 21.0416C45.7784 20.6339 45.8996 20.2522 46.1285 19.8967C46.3551 19.5489 46.6764 19.2632 47.0924 19.0397ZM47.5247 19.8443C47.2941 19.9682 47.1155 20.1287 46.9889 20.3259C46.8623 20.5231 46.8 20.7439 46.8021 20.9883C46.7992 21.2353 46.8664 21.4867 47.0038 21.7423C47.1438 22.003 47.3163 22.1978 47.5212 22.3267C47.7238 22.4633 47.9423 22.5333 48.1766 22.5366C48.4109 22.5399 48.6409 22.481 48.8665 22.3598C49.0971 22.2359 49.2756 22.0753 49.4023 21.8781C49.5238 21.6836 49.5861 21.4628 49.589 21.2158C49.5947 20.9737 49.5274 20.7224 49.3874 20.4617C49.25 20.2061 49.0776 20.0113 48.8699 19.8773C48.6623 19.7434 48.4439 19.6734 48.2146 19.6674C47.9802 19.6641 47.7503 19.7231 47.5247 19.8443Z" fill="#16141F"/>
<path d="M56.5171 19.2659C56.8429 19.0909 57.1816 19.0058 57.5331 19.0108C57.8795 19.0184 58.2138 19.1295 58.5358 19.3441C58.8555 19.5664 59.1405 19.9107 59.391 20.3769C59.6442 20.8481 59.7763 21.2745 59.7875 21.6561C59.7937 22.0403 59.703 22.3765 59.5155 22.6646C59.3306 22.9578 59.0677 23.1959 58.7268 23.379C58.3308 23.5918 57.9366 23.6937 57.5443 23.6849C57.1469 23.6787 56.7784 23.5699 56.4386 23.3584C56.0939 23.1495 55.8097 22.8371 55.5862 22.421C55.3627 22.0049 55.2577 21.593 55.2711 21.1853C55.2823 20.7852 55.395 20.4178 55.6092 20.0831C55.8184 19.7511 56.121 19.4787 56.5171 19.2659ZM57.9874 16.664L60.9283 22.1381L60.0335 22.6189L59.5245 21.6714L58.9809 20.5875L58.3321 19.5602L57.0474 17.169L57.9874 16.664ZM57.0546 20.0139C56.829 20.1351 56.6554 20.293 56.5338 20.4875C56.4072 20.6847 56.3425 20.9069 56.3395 21.1539C56.3366 21.401 56.4038 21.6523 56.5412 21.908C56.6812 22.1686 56.8537 22.3634 57.0586 22.4923C57.2662 22.6263 57.4872 22.6949 57.7215 22.6982C57.9508 22.7042 58.1783 22.6466 58.4039 22.5254C58.6294 22.4042 58.8055 22.245 58.9321 22.0478C59.0587 21.8506 59.1235 21.6285 59.1264 21.3814C59.1321 21.1394 59.0648 20.888 58.9248 20.6274C58.7875 20.3717 58.615 20.1769 58.4074 20.043C58.1997 19.909 57.9788 19.8404 57.7444 19.8371C57.5101 19.8338 57.2802 19.8928 57.0546 20.0139Z" fill="#16141F"/>
<path d="M52.5766 24.3525L53.1883 25.5452L52.1327 28.6123L51.0048 29.2182L51.8254 26.4712L52.0995 25.791L52.5766 24.3525ZM52.8629 23.0456L55.8604 28.625L54.9205 29.13L51.9229 23.5506L52.8629 23.0456ZM49.8326 24.6737L52.2724 25.6981L52.0824 26.7692L48.6896 25.2877L49.8326 24.6737Z" fill="#16141F"/>
<path d="M50.4696 11.8903C50.8405 11.691 51.2322 11.5483 51.6447 11.4624C52.0549 11.3842 52.4314 11.3757 52.7744 11.4369L52.7613 12.4226C52.4873 12.3695 52.1894 12.3681 51.8675 12.4182C51.5457 12.4684 51.2369 12.573 50.9411 12.7319C50.5902 12.9204 50.3547 13.1374 50.2346 13.3827C50.1172 13.6332 50.1245 13.8812 50.2565 14.1268C50.3857 14.3674 50.5783 14.5094 50.8342 14.5528C51.09 14.5963 51.4185 14.5102 51.8195 14.2948L52.3008 14.0362L52.6603 14.7055L52.1179 17.303L51.7921 17.0032L54.6194 15.4843L55.0597 16.3039L51.473 18.2309L51.1215 17.5767L51.664 14.9791L52.3369 15.0052L52.0436 15.1627C51.3969 15.5102 50.8351 15.6247 50.3581 15.5063C49.8787 15.3956 49.5178 15.1147 49.2755 14.6635C49.1166 14.3678 49.045 14.0542 49.0607 13.7227C49.0764 13.3913 49.198 13.0644 49.4253 12.742C49.6503 12.4273 49.9984 12.1434 50.4696 11.8903Z" fill="#16141F"/>
<path d="M18.8781 25.3513C19.1556 25.7406 19.3222 26.1459 19.3781 26.5673C19.426 26.9874 19.3674 27.3856 19.2023 27.7619C19.0373 28.1381 18.7717 28.4567 18.4056 28.7177C18.0349 28.982 17.6472 29.1291 17.2423 29.1592C16.8328 29.1925 16.4396 29.1164 16.0627 28.9308C15.6825 28.7406 15.3537 28.4509 15.0762 28.0617C14.8185 27.7003 14.6664 27.33 14.6198 26.9509C14.5652 26.5705 14.6281 26.2077 14.8083 25.8626L15.6732 26.2524C15.5764 26.4891 15.5441 26.7183 15.5763 26.9399C15.6052 27.1569 15.6858 27.3581 15.8179 27.5434C15.9698 27.7566 16.1533 27.9158 16.3682 28.0212C16.5831 28.1266 16.8132 28.1652 17.0587 28.137C17.2995 28.112 17.5404 28.0137 17.7813 27.8419C18.0223 27.6702 18.1961 27.4729 18.3028 27.25C18.4049 27.0305 18.4411 26.802 18.4116 26.5645C18.382 26.327 18.2913 26.1016 18.1393 25.8885C18.0072 25.7031 17.8433 25.5614 17.6476 25.4633C17.4485 25.3606 17.2214 25.3164 16.966 25.3307L16.8796 24.386C17.26 24.3315 17.6257 24.3887 17.9768 24.5577C18.32 24.7254 18.6204 24.9899 18.8781 25.3513Z" fill="#16141F"/>
<path d="M18.8484 14.4791C19.1424 14.8915 19.3189 15.3107 19.3781 15.7368C19.4293 16.1615 19.3723 16.562 19.2073 16.9383C19.0389 17.3099 18.7717 17.6262 18.4056 17.8871C18.0349 18.1514 17.6505 18.3032 17.2522 18.3425C16.846 18.3805 16.4594 18.3137 16.0924 18.142C15.7221 17.9657 15.4049 17.6922 15.1406 17.3215C14.8829 16.9601 14.7321 16.5819 14.6882 16.1869C14.6442 15.7919 14.7081 15.411 14.8797 15.044C15.0514 14.677 15.3319 14.3548 15.7211 14.0773C15.7582 14.0509 15.8015 14.0235 15.8512 13.9951C15.8975 13.962 15.9432 13.933 15.9882 13.9079L18.1931 17.0008L17.6162 17.4121L15.7383 14.7779L16.1618 14.9896C15.9454 15.1369 15.7891 15.3147 15.693 15.523C15.5969 15.7313 15.5603 15.9496 15.5832 16.1778C15.6029 16.4014 15.687 16.6175 15.8356 16.826C15.9876 17.0391 16.1677 17.1938 16.376 17.2899C16.581 17.3814 16.7999 17.414 17.0328 17.3877C17.2577 17.3602 17.4814 17.2671 17.7038 17.1085L17.8428 17.0094C18.0653 16.8509 18.2258 16.6595 18.3246 16.4354C18.4234 16.2112 18.453 15.9734 18.4136 15.722C18.3741 15.4706 18.2685 15.2244 18.0967 14.9835C17.9481 14.7749 17.7819 14.6104 17.5981 14.4898C17.4143 14.3693 17.2067 14.2937 16.9752 14.263L17.1784 13.4158C17.4919 13.4439 17.7928 13.5474 18.081 13.7262C18.3614 13.9038 18.6171 14.1547 18.8484 14.4791Z" fill="#16141F"/>
</svg>
