<svg width="36" height="44" viewBox="0 0 36 44" fill="none" xmlns="http://www.w3.org/2000/svg">
<path d="M15.8255 22.1439V43.0666H35.0252V22.1439H15.8255Z" fill="#E84355"/>
<path d="M1.2644 43.0666H0.764404V43.5666H1.2644V43.0666ZM1.2644 1.22119V0.721191H0.764404V1.22119H1.2644ZM15.8255 1.22119H16.3255V0.721191H15.8255V1.22119ZM35.0252 22.1439H35.5252V21.6439H35.0252V22.1439ZM35.0252 43.0666V43.5666H35.5252V43.0666H35.0252ZM1.2644 1.72119H15.8255V0.721191H1.2644V1.72119ZM1.2644 43.5666H15.8255V42.5666H1.2644V43.5666ZM15.3255 1.22119V22.1439H16.3255V1.22119H15.3255ZM15.3255 22.1439V43.0666H16.3255V22.1439H15.3255ZM15.8255 22.6439H35.0252V21.6439H15.8255V22.6439ZM15.8255 43.5666H35.0252V42.5666H15.8255V43.5666ZM34.5252 22.1439V43.0666H35.5252V22.1439H34.5252ZM0.764404 1.22119V43.0666H1.7644V1.22119H0.764404Z" fill="black"/>
</svg>
