<svg width="112" height="61" viewBox="0 0 112 61" fill="none" xmlns="http://www.w3.org/2000/svg">
<path d="M32.5633 59.0872C25.0305 58.5567 20.2297 53.5574 18.9035 51.6123C7.93956 48.3683 2.57443 43.2472 1 39.5923C1 14.2621 110.676 14.8863 110.676 33.2266C110.676 42.8311 102.827 48.1935 90.6193 51.159C89.6353 52.5918 86.37 55.2304 78.7146 57.6284C67.7073 61.0765 41.9792 59.7503 32.5633 59.0872Z" fill="#FAF9F9"/>
<path d="M18.9035 51.6123C20.2297 53.5574 25.0305 58.5567 32.5633 59.0872C41.9792 59.7503 67.7073 61.0765 78.7146 57.6284C87.5205 54.8699 90.5177 51.7932 90.9156 50.5996M1 39.5923C3.47555 45.3391 15.3228 54.7108 43.5706 54.7108C78.7786 54.7108 110.676 52.5889 110.676 33.2266C110.676 14.8863 1 14.2621 1 39.5923Z" stroke="#16141F" stroke-width="0.984598"/>
<path d="M16.9146 36.5418C15.3232 36.754 15.279 38.7521 15.4558 39.7247C36.2769 53.1192 90.6608 44.8968 95.1596 36.5418C98.873 29.6456 91.7115 21.9537 88.1308 19.9645C84.5501 17.9752 30.4417 15.4554 20.4952 22.7495C10.5488 30.0435 18.9039 36.2766 16.9146 36.5418Z" fill="#FAF9F9" stroke="#16141F" stroke-width="0.984598"/>
<path d="M21.4224 20.0967C22.5895 13.9432 42.111 7.1001 56.0359 7.1001C75.796 7.1001 82.5598 16.2508 85.61 16.6487C88.6602 17.0465 89.5886 24.6058 87.3341 24.6058C85.0795 24.6058 85.61 26.9929 83.4881 28.5844C81.4473 30.1149 74.47 26.1972 72.2155 26.9929C69.961 27.7886 67.176 30.3084 63.8605 30.3084C60.5451 30.3084 58.821 31.1041 53.9141 34.287C49.0072 37.4698 49.0072 27.3908 42.111 30.3084C35.2149 33.226 37.2041 27.9213 31.6341 26.1972C26.0641 24.4732 19.9636 27.7886 21.4224 20.0967Z" fill="#FAF9F9" stroke="#16141F" stroke-width="0.984598"/>
<path d="M47.6813 2.34001C41.2095 2.65829 39.1495 8.30785 38.9285 11.0928C41.9787 17.1933 55.3732 12.9495 56.1689 11.7559C56.9646 10.5624 55.7711 1.94215 47.6813 2.34001Z" fill="#FAF9F9" stroke="#16141F" stroke-width="0.984598"/>
<path d="M53.9135 7.90988C53.1708 7.5916 52.8967 8.30774 52.8525 8.7056C52.8525 8.92663 52.9852 9.39522 53.5156 9.50132C54.1787 9.63394 54.8418 8.30774 53.9135 7.90988Z" fill="#FAF9F9" stroke="#16141F" stroke-width="0.984598"/>
<path d="M51.3953 4.46213C50.3344 4.35603 50.3344 5.21364 50.467 5.6557C50.7323 6.05355 51.6607 6.1066 52.1911 5.78831C52.8542 5.39046 52.7215 4.59475 51.3953 4.46213Z" fill="#FAF9F9" stroke="#16141F" stroke-width="0.984598"/>
<path d="M46.7534 7.5124C46.2511 7.31147 46.4882 6.71667 47.0186 6.58407C48.0796 6.31883 48.2944 6.70331 48.2121 7.11454C48.0795 7.77757 47.4163 7.77757 46.7534 7.5124Z" fill="#FAF9F9" stroke="#16141F" stroke-width="0.984598"/>
<path d="M56.1693 14.2751C49.6975 14.5934 47.6375 20.2429 47.4165 23.0279C50.4667 29.1284 63.8612 24.8846 64.657 23.691C65.4527 22.4974 64.2591 13.8772 56.1693 14.2751Z" fill="#FAF9F9" stroke="#16141F" stroke-width="0.984598"/>
<path d="M62.4032 19.8449C61.6606 19.5267 61.3865 20.2428 61.3423 20.6407C61.3423 20.8617 61.4749 21.3303 62.0054 21.4364C62.6685 21.569 63.3316 20.2428 62.4032 19.8449Z" fill="#FAF9F9" stroke="#16141F" stroke-width="0.984598"/>
<path d="M59.8816 16.3972C58.8207 16.2911 58.8207 17.1487 58.9533 17.5908C59.2187 17.9886 60.147 18.0417 60.6775 17.7234C61.3406 17.3255 61.2078 16.5298 59.8816 16.3972Z" fill="#FAF9F9" stroke="#16141F" stroke-width="0.984598"/>
<path d="M55.2414 19.4475C54.7391 19.2465 54.9762 18.6517 55.5067 18.5191C56.5677 18.2539 56.7824 18.6384 56.7002 19.0496C56.5675 19.7126 55.9043 19.7126 55.2414 19.4475Z" fill="#FAF9F9" stroke="#16141F" stroke-width="0.984598"/>
<path d="M37.3378 9.48796C30.866 9.80624 28.806 15.4558 28.585 18.2408C31.6352 24.3413 45.0297 20.0975 45.8254 18.9039C46.6211 17.7103 45.4276 9.0901 37.3378 9.48796Z" fill="#FAF9F9" stroke="#16141F" stroke-width="0.984598"/>
<path d="M43.57 15.0578C42.8273 14.7395 42.5532 15.4557 42.509 15.8535C42.509 16.0746 42.6417 16.5432 43.1721 16.6493C43.8352 16.7819 44.4983 15.4557 43.57 15.0578Z" fill="#FAF9F9" stroke="#16141F" stroke-width="0.984598"/>
<path d="M41.0518 11.6096C39.9908 11.5035 39.9908 12.3611 40.1235 12.8032C40.3888 13.201 41.3172 13.2541 41.8476 12.9358C42.5107 12.5379 42.378 11.7422 41.0518 11.6096Z" fill="#FAF9F9" stroke="#16141F" stroke-width="0.984598"/>
<path d="M36.4099 14.6599C35.9076 14.4589 36.1447 13.8641 36.6751 13.7315C37.7361 13.4663 37.9509 13.8508 37.8686 14.262C37.736 14.925 37.0728 14.925 36.4099 14.6599Z" fill="#FAF9F9" stroke="#16141F" stroke-width="0.984598"/>
<path d="M65.984 1.01335C59.5122 1.33163 57.4522 6.98119 57.2312 9.76619C60.2814 15.8667 73.6759 11.6229 74.4716 10.4293C75.2674 9.23571 74.0738 0.61549 65.984 1.01335Z" fill="#FAF9F9" stroke="#16141F" stroke-width="0.984598"/>
<path d="M72.2162 6.58322C71.4736 6.26494 71.1995 6.98108 71.1553 7.37894C71.1553 7.59997 71.2879 8.06856 71.8184 8.17466C72.4815 8.30728 73.1446 6.98108 72.2162 6.58322Z" fill="#FAF9F9" stroke="#16141F" stroke-width="0.984598"/>
<path d="M69.698 3.13498C68.6371 3.02889 68.6371 3.88649 68.7697 4.32855C69.0351 4.7264 69.9634 4.77945 70.4939 4.46117C71.157 4.06331 71.0242 3.2676 69.698 3.13498Z" fill="#FAF9F9" stroke="#16141F" stroke-width="0.984598"/>
<path d="M65.0561 6.18574C64.5538 5.98481 64.7909 5.39001 65.3214 5.25741C66.3824 4.99217 66.5971 5.37665 66.5149 5.78788C66.3822 6.45091 65.719 6.45091 65.0561 6.18574Z" fill="#FAF9F9" stroke="#16141F" stroke-width="0.984598"/>
<path d="M74.7358 9.76628C68.264 10.0846 66.2039 15.7341 65.9829 18.5191C69.0331 24.6196 82.4276 20.3758 83.2234 19.1822C84.0191 17.9886 82.8255 9.36842 74.7358 9.76628Z" fill="#FAF9F9" stroke="#16141F" stroke-width="0.984598"/>
<path d="M80.9679 15.3362C80.2253 15.0179 79.9512 15.734 79.907 16.1319C79.907 16.3529 80.0396 16.8215 80.5701 16.9276C81.2332 17.0602 81.8963 15.734 80.9679 15.3362Z" fill="#FAF9F9" stroke="#16141F" stroke-width="0.984598"/>
<path d="M78.448 11.8879C77.3871 11.7818 77.3871 12.6394 77.5197 13.0815C77.7851 13.4793 78.7134 13.5324 79.2439 13.2141C79.907 12.8162 79.7742 12.0205 78.448 11.8879Z" fill="#FAF9F9" stroke="#16141F" stroke-width="0.984598"/>
<path d="M73.8078 14.9387C73.3055 14.7377 73.5426 14.1429 74.0731 14.0103C75.1341 13.7451 75.3488 14.1296 75.2666 14.5408C75.1339 15.2038 74.4707 15.2038 73.8078 14.9387Z" fill="#FAF9F9" stroke="#16141F" stroke-width="0.984598"/>
<path d="M20.434 50.7812L19.5172 50.6875L19.541 50.4542L20.1731 50.5188L20.6446 45.9054L20.0125 45.8408L20.0364 45.6074L20.9532 45.7011L20.434 50.7812Z" fill="#16141F"/>
<path d="M21.8215 50.923L22.3407 45.8429L23.2574 45.9366L23.2336 46.17L22.6015 46.1054L22.13 50.7188L22.7621 50.7834L22.7382 51.0167L21.8215 50.923Z" fill="#16141F"/>
<path d="M23.9151 51.137L22.9983 51.0433L23.0221 50.8099L23.6542 50.8745L24.1257 46.2612L23.4936 46.1966L23.5175 45.9632L24.4343 46.0569L23.9151 51.137Z" fill="#16141F"/>
<path d="M25.3026 51.2788L25.8217 46.1987L26.7385 46.2924L26.7147 46.5258L26.0826 46.4612L25.6111 51.0745L26.2432 51.1391L26.2193 51.3725L25.3026 51.2788Z" fill="#16141F"/>
<path d="M27.3961 51.4928L26.4794 51.3991L26.5032 51.1657L27.1353 51.2303L27.6068 46.6169L26.9747 46.5523L26.9986 46.319L27.9153 46.4127L27.3961 51.4928Z" fill="#16141F"/>
<path d="M28.7836 51.6346L29.3028 46.5545L30.2196 46.6482L30.1958 46.8815L29.5637 46.8169L29.0922 51.4303L29.7243 51.4949L29.7004 51.7283L28.7836 51.6346Z" fill="#16141F"/>
<path d="M30.8772 51.8486L29.9605 51.7549L29.9843 51.5215L30.6164 51.5861L31.0879 46.9727L30.4558 46.9081L30.4796 46.6747L31.3964 46.7684L30.8772 51.8486Z" fill="#16141F"/>
<path d="M32.2647 51.9904L32.7839 46.9102L33.7007 47.0039L33.6769 47.2373L33.0448 47.1727L32.5733 51.7861L33.2054 51.8507L33.1815 52.0841L32.2647 51.9904Z" fill="#16141F"/>
<path d="M34.3583 52.2043L33.4415 52.1106L33.4654 51.8772L34.0975 51.9418L34.569 47.3285L33.9369 47.2639L33.9607 47.0305L34.8775 47.1242L34.3583 52.2043Z" fill="#16141F"/>
<path d="M35.7458 52.3461L36.265 47.266L37.1818 47.3597L37.1579 47.5931L36.5259 47.5285L36.0544 52.1418L36.6865 52.2064L36.6626 52.4398L35.7458 52.3461Z" fill="#16141F"/>
<path d="M50.1376 53.166L49.2171 53.2097L49.206 52.9754L49.8406 52.9452L49.6206 48.3131L48.986 48.3432L48.9749 48.1089L49.8954 48.0652L50.1376 53.166Z" fill="#16141F"/>
<path d="M51.5308 53.0998L51.2885 47.999L52.2091 47.9553L52.2202 48.1896L51.5855 48.2198L51.8055 52.8519L52.4402 52.8218L52.4513 53.0561L51.5308 53.0998Z" fill="#16141F"/>
<path d="M53.6329 53L52.7124 53.0437L52.7013 52.8094L53.3359 52.7793L53.1159 48.1471L52.4813 48.1772L52.4701 47.9429L53.3907 47.8992L53.6329 53Z" fill="#16141F"/>
<path d="M55.0261 52.9338L54.7838 47.833L55.7043 47.7893L55.7155 48.0236L55.0808 48.0538L55.3008 52.6859L55.9355 52.6558L55.9466 52.8901L55.0261 52.9338Z" fill="#16141F"/>
<path d="M57.1282 52.834L56.2077 52.8777L56.1965 52.6434L56.8312 52.6133L56.6112 47.9811L55.9765 48.0112L55.9654 47.7769L56.8859 47.7332L57.1282 52.834Z" fill="#16141F"/>
<path d="M58.5213 52.7678L58.2791 47.667L59.1996 47.6233L59.2107 47.8576L58.5761 47.8878L58.7961 52.5199L59.4307 52.4898L59.4419 52.7241L58.5213 52.7678Z" fill="#16141F"/>
<path d="M60.6235 52.668L59.703 52.7117L59.6918 52.4774L60.3265 52.4473L60.1065 47.8151L59.4718 47.8452L59.4607 47.6109L60.3812 47.5672L60.6235 52.668Z" fill="#16141F"/>
<path d="M62.0166 52.6018L61.7744 47.501L62.6949 47.4573L62.706 47.6916L62.0714 47.7218L62.2914 52.3539L62.926 52.3238L62.9372 52.5581L62.0166 52.6018Z" fill="#16141F"/>
<path d="M64.1188 52.502L63.1982 52.5457L63.1871 52.3114L63.8218 52.2813L63.6018 47.6491L62.9671 47.6792L62.956 47.4449L63.8765 47.4012L64.1188 52.502Z" fill="#16141F"/>
<path d="M65.5119 52.4358L65.2697 47.335L66.1902 47.2913L66.2013 47.5256L65.5667 47.5558L65.7867 52.1879L66.4213 52.1578L66.4324 52.3921L65.5119 52.4358Z" fill="#16141F"/>
<path d="M79.2586 50.8684L78.3543 51.0455L78.3092 50.8153L78.9327 50.6932L78.0412 46.1423L77.4177 46.2644L77.3726 46.0342L78.2769 45.857L79.2586 50.8684Z" fill="#16141F"/>
<path d="M80.6273 50.6002L79.6456 45.5889L80.55 45.4117L80.5951 45.642L79.9716 45.7641L80.8631 50.315L81.4866 50.1929L81.5317 50.4231L80.6273 50.6002Z" fill="#16141F"/>
<path d="M82.6926 50.1957L81.7882 50.3728L81.7431 50.1426L82.3666 50.0205L81.4751 45.4696L80.8516 45.5917L80.8065 45.3615L81.7109 45.1843L82.6926 50.1957Z" fill="#16141F"/>
<path d="M84.0613 49.9275L83.0796 44.9162L83.984 44.739L84.0291 44.9693L83.4056 45.0914L84.297 49.6423L84.9206 49.5202L84.9657 49.7504L84.0613 49.9275Z" fill="#16141F"/>
<path d="M86.1265 49.523L85.2222 49.7001L85.1771 49.4699L85.8006 49.3478L84.9091 44.7969L84.2856 44.919L84.2405 44.6888L85.1448 44.5116L86.1265 49.523Z" fill="#16141F"/>
<path d="M87.4952 49.2548L86.5135 44.2435L87.4179 44.0663L87.463 44.2966L86.8395 44.4187L87.731 48.9696L88.3545 48.8475L88.3996 49.0777L87.4952 49.2548Z" fill="#16141F"/>
<path d="M89.5605 48.8503L88.6561 49.0274L88.611 48.7972L89.2345 48.6751L88.343 44.1242L87.7195 44.2463L87.6744 44.0161L88.5788 43.8389L89.5605 48.8503Z" fill="#16141F"/>
<path d="M90.9292 48.5822L89.9475 43.5708L90.8519 43.3937L90.897 43.6239L90.2735 43.746L91.165 48.2969L91.7885 48.1748L91.8336 48.405L90.9292 48.5822Z" fill="#16141F"/>
<path d="M92.9944 48.1776L92.0901 48.3547L92.045 48.1245L92.6685 48.0024L91.777 43.4515L91.1535 43.5736L91.1084 43.3434L92.0127 43.1662L92.9944 48.1776Z" fill="#16141F"/>
<path d="M94.3632 47.9095L93.3815 42.8981L94.2858 42.721L94.3309 42.9512L93.7074 43.0733L94.5989 47.6242L95.2224 47.5021L95.2675 47.7323L94.3632 47.9095Z" fill="#16141F"/>
<path d="M97.2839 26.9816L97.2638 26.0603L97.4983 26.0551L97.5122 26.6903L102.148 26.5891L102.135 25.9539L102.369 25.9487L102.389 26.8701L97.2839 26.9816Z" fill="#16141F"/>
<path d="M97.3144 28.376L102.42 28.2645L102.44 29.1858L102.205 29.1909L102.191 28.5557L97.5551 28.657L97.569 29.2922L97.3345 29.2973L97.3144 28.376Z" fill="#16141F"/>
<path d="M97.3603 30.48L97.3402 29.5586L97.5747 29.5535L97.5886 30.1887L102.225 30.0875L102.211 29.4522L102.446 29.4471L102.466 30.3685L97.3603 30.48Z" fill="#16141F"/>
<path d="M97.3908 31.8744L102.496 31.7629L102.516 32.6842L102.282 32.6893L102.268 32.0541L97.6316 32.1554L97.6454 32.7906L97.4109 32.7957L97.3908 31.8744Z" fill="#16141F"/>
<path d="M97.4367 33.9784L97.4166 33.057L97.6512 33.0519L97.665 33.6871L102.301 33.5858L102.287 32.9506L102.522 32.9455L102.542 33.8668L97.4367 33.9784Z" fill="#16141F"/>
<path d="M97.4672 35.3728L102.573 35.2612L102.593 36.1826L102.358 36.1877L102.344 35.5525L97.708 35.6538L97.7219 36.289L97.4873 36.2941L97.4672 35.3728Z" fill="#16141F"/>
<path d="M97.5132 37.4768L97.493 36.5554L97.7276 36.5503L97.7415 37.1855L102.378 37.0842L102.364 36.449L102.598 36.4439L102.619 37.3652L97.5132 37.4768Z" fill="#16141F"/>
<path d="M97.5436 38.8712L102.649 38.7596L102.669 39.681L102.435 39.6861L102.421 39.0509L97.7844 39.1522L97.7983 39.7874L97.5637 39.7925L97.5436 38.8712Z" fill="#16141F"/>
<path d="M97.5896 40.9751L97.5695 40.0538L97.804 40.0487L97.8179 40.6839L102.454 40.5826L102.44 39.9474L102.675 39.9423L102.695 40.8636L97.5896 40.9751Z" fill="#16141F"/>
<path d="M97.62 42.3695L102.725 42.258L102.746 43.1794L102.511 43.1845L102.497 42.5493L97.8608 42.6505L97.8747 43.2858L97.6402 43.2909L97.62 42.3695Z" fill="#16141F"/>
<path d="M8.59326 30.5216L8.57561 29.714L8.78122 29.7095L8.79338 30.2663L12.8576 30.1775L12.8454 29.6207L13.051 29.6162L13.0687 30.4239L8.59326 30.5216Z" fill="#16141F"/>
<path d="M8.61996 31.744L13.0954 31.6462L13.113 32.4539L12.9074 32.4583L12.8952 31.9015L8.83104 31.9903L8.8432 32.5471L8.6376 32.5516L8.61996 31.744Z" fill="#16141F"/>
<path d="M8.66025 33.5883L8.64261 32.7807L8.84821 32.7762L8.86037 33.333L12.9246 33.2442L12.9124 32.6874L13.118 32.6829L13.1357 33.4906L8.66025 33.5883Z" fill="#16141F"/>
<path d="M8.68695 34.8107L13.1624 34.7129L13.18 35.5206L12.9744 35.5251L12.9622 34.9682L8.89803 35.057L8.91019 35.6138L8.70459 35.6183L8.68695 34.8107Z" fill="#16141F"/>
<path d="M8.72724 36.6551L8.7096 35.8474L8.9152 35.8429L8.92736 36.3997L12.9916 36.311L12.9794 35.7541L13.185 35.7496L13.2027 36.5573L8.72724 36.6551Z" fill="#16141F"/>
<path d="M8.75394 37.8774L13.2294 37.7796L13.247 38.5873L13.0414 38.5918L13.0292 38.035L8.96502 38.1237L8.97719 38.6806L8.77158 38.6851L8.75394 37.8774Z" fill="#16141F"/>
<path d="M8.79423 39.7218L8.77659 38.9141L8.98219 38.9096L8.99435 39.4665L13.0586 39.3777L13.0464 38.8209L13.252 38.8164L13.2696 39.624L8.79423 39.7218Z" fill="#16141F"/>
<path d="M8.82093 40.9441L13.2963 40.8464L13.314 41.654L13.1084 41.6585L13.0962 41.1017L9.03201 41.1905L9.04418 41.7473L8.83858 41.7518L8.82093 40.9441Z" fill="#16141F"/>
<path d="M8.86122 42.7885L8.84358 41.9808L9.04918 41.9764L9.06134 42.5332L13.1256 42.4444L13.1134 41.8876L13.319 41.8831L13.3366 42.6907L8.86122 42.7885Z" fill="#16141F"/>
<path d="M8.88792 44.0108L13.3633 43.9131L13.381 44.7207L13.1754 44.7252L13.1632 44.1684L9.099 44.2572L9.11117 44.814L8.90557 44.8185L8.88792 44.0108Z" fill="#16141F"/>
<path d="M31.3566 58.2325V56.427H31.5355V58.2325H31.3566ZM31.446 55.9877C31.4055 55.9877 31.3709 55.9738 31.3423 55.9462C31.3136 55.9185 31.2993 55.8862 31.2993 55.8493C31.2993 55.8101 31.3136 55.7767 31.3423 55.749C31.3709 55.7214 31.4055 55.7075 31.446 55.7075C31.489 55.7075 31.5236 55.7214 31.5498 55.749C31.5784 55.7744 31.5927 55.8067 31.5927 55.8459C31.5927 55.8851 31.5784 55.9185 31.5498 55.9462C31.5236 55.9738 31.489 55.9877 31.446 55.9877Z" fill="#16141F"/>
<path d="M32.2896 58.2325V56.427H32.4685V58.2325H32.2896ZM32.379 55.9877C32.3385 55.9877 32.3039 55.9738 32.2753 55.9462C32.2467 55.9185 32.2323 55.8862 32.2323 55.8493C32.2323 55.8101 32.2467 55.7767 32.2753 55.749C32.3039 55.7214 32.3385 55.7075 32.379 55.7075C32.422 55.7075 32.4566 55.7214 32.4828 55.749C32.5114 55.7744 32.5258 55.8067 32.5258 55.8459C32.5258 55.8851 32.5114 55.9185 32.4828 55.9462C32.4566 55.9738 32.422 55.9877 32.379 55.9877Z" fill="#16141F"/>
<path d="M33.2226 58.2325V56.427H33.4015V58.2325H33.2226ZM33.3121 55.9877C33.2715 55.9877 33.2369 55.9738 33.2083 55.9462C33.1797 55.9185 33.1654 55.8862 33.1654 55.8493C33.1654 55.8101 33.1797 55.7767 33.2083 55.749C33.2369 55.7214 33.2715 55.7075 33.3121 55.7075C33.355 55.7075 33.3896 55.7214 33.4158 55.749C33.4445 55.7744 33.4588 55.8067 33.4588 55.8459C33.4588 55.8851 33.4445 55.9185 33.4158 55.9462C33.3896 55.9738 33.355 55.9877 33.3121 55.9877Z" fill="#16141F"/>
<path d="M34.1556 58.2325V56.427H34.3346V58.2325H34.1556ZM34.2451 55.9877C34.2045 55.9877 34.1699 55.9738 34.1413 55.9462C34.1127 55.9185 34.0984 55.8862 34.0984 55.8493C34.0984 55.8101 34.1127 55.7767 34.1413 55.749C34.1699 55.7214 34.2045 55.7075 34.2451 55.7075C34.288 55.7075 34.3226 55.7214 34.3489 55.749C34.3775 55.7744 34.3918 55.8067 34.3918 55.8459C34.3918 55.8851 34.3775 55.9185 34.3489 55.9462C34.3226 55.9738 34.288 55.9877 34.2451 55.9877Z" fill="#16141F"/>
<path d="M35.0887 58.2325V56.427H35.2676V58.2325H35.0887ZM35.1781 55.9877C35.1376 55.9877 35.103 55.9738 35.0743 55.9462C35.0457 55.9185 35.0314 55.8862 35.0314 55.8493C35.0314 55.8101 35.0457 55.7767 35.0743 55.749C35.103 55.7214 35.1376 55.7075 35.1781 55.7075C35.2211 55.7075 35.2556 55.7214 35.2819 55.749C35.3105 55.7744 35.3248 55.8067 35.3248 55.8459C35.3248 55.8851 35.3105 55.9185 35.2819 55.9462C35.2556 55.9738 35.2211 55.9877 35.1781 55.9877Z" fill="#16141F"/>
<path d="M36.0217 58.2325V56.427H36.2006V58.2325H36.0217ZM36.1111 55.9877C36.0706 55.9877 36.036 55.9738 36.0074 55.9462C35.9787 55.9185 35.9644 55.8862 35.9644 55.8493C35.9644 55.8101 35.9787 55.7767 36.0074 55.749C36.036 55.7214 36.0706 55.7075 36.1111 55.7075C36.1541 55.7075 36.1887 55.7214 36.2149 55.749C36.2435 55.7744 36.2578 55.8067 36.2578 55.8459C36.2578 55.8851 36.2435 55.9185 36.2149 55.9462C36.1887 55.9738 36.1541 55.9877 36.1111 55.9877Z" fill="#16141F"/>
<path d="M36.9547 58.2325V56.427H37.1336V58.2325H36.9547ZM37.0442 55.9877C37.0036 55.9877 36.969 55.9738 36.9404 55.9462C36.9118 55.9185 36.8974 55.8862 36.8974 55.8493C36.8974 55.8101 36.9118 55.7767 36.9404 55.749C36.969 55.7214 37.0036 55.7075 37.0442 55.7075C37.0871 55.7075 37.1217 55.7214 37.1479 55.749C37.1766 55.7744 37.1909 55.8067 37.1909 55.8459C37.1909 55.8851 37.1766 55.9185 37.1479 55.9462C37.1217 55.9738 37.0871 55.9877 37.0442 55.9877Z" fill="#16141F"/>
<path d="M42.2987 58.2325V56.427H42.4776V58.2325H42.2987ZM42.3882 55.9877C42.3476 55.9877 42.313 55.9738 42.2844 55.9462C42.2558 55.9185 42.2415 55.8862 42.2415 55.8493C42.2415 55.8101 42.2558 55.7767 42.2844 55.749C42.313 55.7214 42.3476 55.7075 42.3882 55.7075C42.4311 55.7075 42.4657 55.7214 42.4919 55.749C42.5206 55.7744 42.5349 55.8067 42.5349 55.8459C42.5349 55.8851 42.5206 55.9185 42.4919 55.9462C42.4657 55.9738 42.4311 55.9877 42.3882 55.9877Z" fill="#16141F"/>
<path d="M43.2317 58.2325V56.427H43.4106V58.2325H43.2317ZM43.3212 55.9877C43.2806 55.9877 43.246 55.9738 43.2174 55.9462C43.1888 55.9185 43.1745 55.8862 43.1745 55.8493C43.1745 55.8101 43.1888 55.7767 43.2174 55.749C43.246 55.7214 43.2806 55.7075 43.3212 55.7075C43.3641 55.7075 43.3987 55.7214 43.425 55.749C43.4536 55.7744 43.4679 55.8067 43.4679 55.8459C43.4679 55.8851 43.4536 55.9185 43.425 55.9462C43.3987 55.9738 43.3641 55.9877 43.3212 55.9877Z" fill="#16141F"/>
<path d="M44.1648 58.2325V56.427H44.3437V58.2325H44.1648ZM44.2542 55.9877C44.2137 55.9877 44.1791 55.9738 44.1504 55.9462C44.1218 55.9185 44.1075 55.8862 44.1075 55.8493C44.1075 55.8101 44.1218 55.7767 44.1504 55.749C44.1791 55.7214 44.2137 55.7075 44.2542 55.7075C44.2971 55.7075 44.3317 55.7214 44.358 55.749C44.3866 55.7744 44.4009 55.8067 44.4009 55.8459C44.4009 55.8851 44.3866 55.9185 44.358 55.9462C44.3317 55.9738 44.2971 55.9877 44.2542 55.9877Z" fill="#16141F"/>
<path d="M45.0978 58.2325V56.427H45.2767V58.2325H45.0978ZM45.1872 55.9877C45.1467 55.9877 45.1121 55.9738 45.0835 55.9462C45.0548 55.9185 45.0405 55.8862 45.0405 55.8493C45.0405 55.8101 45.0548 55.7767 45.0835 55.749C45.1121 55.7214 45.1467 55.7075 45.1872 55.7075C45.2302 55.7075 45.2648 55.7214 45.291 55.749C45.3196 55.7744 45.3339 55.8067 45.3339 55.8459C45.3339 55.8851 45.3196 55.9185 45.291 55.9462C45.2648 55.9738 45.2302 55.9877 45.1872 55.9877Z" fill="#16141F"/>
<path d="M46.0308 58.2325V56.427H46.2097V58.2325H46.0308ZM46.1203 55.9877C46.0797 55.9877 46.0451 55.9738 46.0165 55.9462C45.9879 55.9185 45.9735 55.8862 45.9735 55.8493C45.9735 55.8101 45.9879 55.7767 46.0165 55.749C46.0451 55.7214 46.0797 55.7075 46.1203 55.7075C46.1632 55.7075 46.1978 55.7214 46.224 55.749C46.2527 55.7744 46.267 55.8067 46.267 55.8459C46.267 55.8851 46.2527 55.9185 46.224 55.9462C46.1978 55.9738 46.1632 55.9877 46.1203 55.9877Z" fill="#16141F"/>
<path d="M46.9638 58.2325V56.427H47.1427V58.2325H46.9638ZM47.0533 55.9877C47.0127 55.9877 46.9781 55.9738 46.9495 55.9462C46.9209 55.9185 46.9066 55.8862 46.9066 55.8493C46.9066 55.8101 46.9209 55.7767 46.9495 55.749C46.9781 55.7214 47.0127 55.7075 47.0533 55.7075C47.0962 55.7075 47.1308 55.7214 47.157 55.749C47.1857 55.7744 47.2 55.8067 47.2 55.8459C47.2 55.8851 47.1857 55.9185 47.157 55.9462C47.1308 55.9738 47.0962 55.9877 47.0533 55.9877Z" fill="#16141F"/>
<path d="M47.8968 58.2325V56.427H48.0758V58.2325H47.8968ZM47.9863 55.9877C47.9457 55.9877 47.9112 55.9738 47.8825 55.9462C47.8539 55.9185 47.8396 55.8862 47.8396 55.8493C47.8396 55.8101 47.8539 55.7767 47.8825 55.749C47.9112 55.7214 47.9457 55.7075 47.9863 55.7075C48.0292 55.7075 48.0638 55.7214 48.0901 55.749C48.1187 55.7744 48.133 55.8067 48.133 55.8459C48.133 55.8851 48.1187 55.9185 48.0901 55.9462C48.0638 55.9738 48.0292 55.9877 47.9863 55.9877Z" fill="#16141F"/>
<path d="M56.6071 58.2325V56.427H56.786V58.2325H56.6071ZM56.6965 55.9877C56.656 55.9877 56.6214 55.9738 56.5927 55.9462C56.5641 55.9185 56.5498 55.8862 56.5498 55.8493C56.5498 55.8101 56.5641 55.7767 56.5927 55.749C56.6214 55.7214 56.656 55.7075 56.6965 55.7075C56.7395 55.7075 56.774 55.7214 56.8003 55.749C56.8289 55.7744 56.8432 55.8067 56.8432 55.8459C56.8432 55.8851 56.8289 55.9185 56.8003 55.9462C56.774 55.9738 56.7395 55.9877 56.6965 55.9877Z" fill="#16141F"/>
<path d="M57.5401 58.2325V56.427H57.719V58.2325H57.5401ZM57.6295 55.9877C57.589 55.9877 57.5544 55.9738 57.5258 55.9462C57.4971 55.9185 57.4828 55.8862 57.4828 55.8493C57.4828 55.8101 57.4971 55.7767 57.5258 55.749C57.5544 55.7214 57.589 55.7075 57.6295 55.7075C57.6725 55.7075 57.7071 55.7214 57.7333 55.749C57.7619 55.7744 57.7762 55.8067 57.7762 55.8459C57.7762 55.8851 57.7619 55.9185 57.7333 55.9462C57.7071 55.9738 57.6725 55.9877 57.6295 55.9877Z" fill="#16141F"/>
<path d="M58.4731 58.2325V56.427H58.652V58.2325H58.4731ZM58.5626 55.9877C58.522 55.9877 58.4874 55.9738 58.4588 55.9462C58.4302 55.9185 58.4158 55.8862 58.4158 55.8493C58.4158 55.8101 58.4302 55.7767 58.4588 55.749C58.4874 55.7214 58.522 55.7075 58.5626 55.7075C58.6055 55.7075 58.6401 55.7214 58.6663 55.749C58.695 55.7744 58.7093 55.8067 58.7093 55.8459C58.7093 55.8851 58.695 55.9185 58.6663 55.9462C58.6401 55.9738 58.6055 55.9877 58.5626 55.9877Z" fill="#16141F"/>
<path d="M59.4061 58.2325V56.427H59.585V58.2325H59.4061ZM59.4956 55.9877C59.455 55.9877 59.4204 55.9738 59.3918 55.9462C59.3632 55.9185 59.3489 55.8862 59.3489 55.8493C59.3489 55.8101 59.3632 55.7767 59.3918 55.749C59.4204 55.7214 59.455 55.7075 59.4956 55.7075C59.5385 55.7075 59.5731 55.7214 59.5994 55.749C59.628 55.7744 59.6423 55.8067 59.6423 55.8459C59.6423 55.8851 59.628 55.9185 59.5994 55.9462C59.5731 55.9738 59.5385 55.9877 59.4956 55.9877Z" fill="#16141F"/>
<path d="M60.3391 58.2325V56.427H60.5181V58.2325H60.3391ZM60.4286 55.9877C60.388 55.9877 60.3535 55.9738 60.3248 55.9462C60.2962 55.9185 60.2819 55.8862 60.2819 55.8493C60.2819 55.8101 60.2962 55.7767 60.3248 55.749C60.3535 55.7214 60.388 55.7075 60.4286 55.7075C60.4715 55.7075 60.5061 55.7214 60.5324 55.749C60.561 55.7744 60.5753 55.8067 60.5753 55.8459C60.5753 55.8851 60.561 55.9185 60.5324 55.9462C60.5061 55.9738 60.4715 55.9877 60.4286 55.9877Z" fill="#16141F"/>
<path d="M61.2722 58.2325V56.427H61.4511V58.2325H61.2722ZM61.3616 55.9877C61.3211 55.9877 61.2865 55.9738 61.2579 55.9462C61.2292 55.9185 61.2149 55.8862 61.2149 55.8493C61.2149 55.8101 61.2292 55.7767 61.2579 55.749C61.2865 55.7214 61.3211 55.7075 61.3616 55.7075C61.4046 55.7075 61.4392 55.7214 61.4654 55.749C61.494 55.7744 61.5083 55.8067 61.5083 55.8459C61.5083 55.8851 61.494 55.9185 61.4654 55.9462C61.4392 55.9738 61.4046 55.9877 61.3616 55.9877Z" fill="#16141F"/>
<path d="M62.2052 58.2325V56.427H62.3841V58.2325H62.2052ZM62.2946 55.9877C62.2541 55.9877 62.2195 55.9738 62.1909 55.9462C62.1622 55.9185 62.1479 55.8862 62.1479 55.8493C62.1479 55.8101 62.1622 55.7767 62.1909 55.749C62.2195 55.7214 62.2541 55.7075 62.2946 55.7075C62.3376 55.7075 62.3722 55.7214 62.3984 55.749C62.427 55.7744 62.4414 55.8067 62.4414 55.8459C62.4414 55.8851 62.427 55.9185 62.3984 55.9462C62.3722 55.9738 62.3376 55.9877 62.2946 55.9877Z" fill="#16141F"/>
<path d="M70.9152 57.3907V55.5852H71.0941V57.3907H70.9152ZM71.0046 55.1459C70.9641 55.1459 70.9295 55.1321 70.9009 55.1044C70.8722 55.0767 70.8579 55.0444 70.8579 55.0075C70.8579 54.9683 70.8722 54.9349 70.9009 54.9072C70.9295 54.8796 70.9641 54.8657 71.0046 54.8657C71.0476 54.8657 71.0822 54.8796 71.1084 54.9072C71.137 54.9326 71.1513 54.9649 71.1513 55.0041C71.1513 55.0433 71.137 55.0767 71.1084 55.1044C71.0822 55.1321 71.0476 55.1459 71.0046 55.1459Z" fill="#16141F"/>
<path d="M71.8482 57.3907V55.5852H72.0271V57.3907H71.8482ZM71.9376 55.1459C71.8971 55.1459 71.8625 55.1321 71.8339 55.1044C71.8052 55.0767 71.7909 55.0444 71.7909 55.0075C71.7909 54.9683 71.8052 54.9349 71.8339 54.9072C71.8625 54.8796 71.8971 54.8657 71.9376 54.8657C71.9806 54.8657 72.0152 54.8796 72.0414 54.9072C72.07 54.9326 72.0844 54.9649 72.0844 55.0041C72.0844 55.0433 72.07 55.0767 72.0414 55.1044C72.0152 55.1321 71.9806 55.1459 71.9376 55.1459Z" fill="#16141F"/>
<path d="M72.7812 57.3907V55.5852H72.9601V57.3907H72.7812ZM72.8707 55.1459C72.8301 55.1459 72.7955 55.1321 72.7669 55.1044C72.7383 55.0767 72.724 55.0444 72.724 55.0075C72.724 54.9683 72.7383 54.9349 72.7669 54.9072C72.7955 54.8796 72.8301 54.8657 72.8707 54.8657C72.9136 54.8657 72.9482 54.8796 72.9744 54.9072C73.0031 54.9326 73.0174 54.9649 73.0174 55.0041C73.0174 55.0433 73.0031 55.0767 72.9744 55.1044C72.9482 55.1321 72.9136 55.1459 72.8707 55.1459Z" fill="#16141F"/>
<path d="M73.7142 57.3907V55.5852H73.8931V57.3907H73.7142ZM73.8037 55.1459C73.7631 55.1459 73.7285 55.1321 73.6999 55.1044C73.6713 55.0767 73.657 55.0444 73.657 55.0075C73.657 54.9683 73.6713 54.9349 73.6999 54.9072C73.7285 54.8796 73.7631 54.8657 73.8037 54.8657C73.8466 54.8657 73.8812 54.8796 73.9075 54.9072C73.9361 54.9326 73.9504 54.9649 73.9504 55.0041C73.9504 55.0433 73.9361 55.0767 73.9075 55.1044C73.8812 55.1321 73.8466 55.1459 73.8037 55.1459Z" fill="#16141F"/>
<path d="M74.6472 57.3907V55.5852H74.8262V57.3907H74.6472ZM74.7367 55.1459C74.6962 55.1459 74.6616 55.1321 74.6329 55.1044C74.6043 55.0767 74.59 55.0444 74.59 55.0075C74.59 54.9683 74.6043 54.9349 74.6329 54.9072C74.6616 54.8796 74.6962 54.8657 74.7367 54.8657C74.7796 54.8657 74.8142 54.8796 74.8405 54.9072C74.8691 54.9326 74.8834 54.9649 74.8834 55.0041C74.8834 55.0433 74.8691 55.0767 74.8405 55.1044C74.8142 55.1321 74.7796 55.1459 74.7367 55.1459Z" fill="#16141F"/>
<path d="M75.5803 57.3907V55.5852H75.7592V57.3907H75.5803ZM75.6697 55.1459C75.6292 55.1459 75.5946 55.1321 75.566 55.1044C75.5373 55.0767 75.523 55.0444 75.523 55.0075C75.523 54.9683 75.5373 54.9349 75.566 54.9072C75.5946 54.8796 75.6292 54.8657 75.6697 54.8657C75.7127 54.8657 75.7473 54.8796 75.7735 54.9072C75.8021 54.9326 75.8164 54.9649 75.8164 55.0041C75.8164 55.0433 75.8021 55.0767 75.7735 55.1044C75.7473 55.1321 75.7127 55.1459 75.6697 55.1459Z" fill="#16141F"/>
<path d="M76.5133 57.3907V55.5852H76.6922V57.3907H76.5133ZM76.6028 55.1459C76.5622 55.1459 76.5276 55.1321 76.499 55.1044C76.4704 55.0767 76.456 55.0444 76.456 55.0075C76.456 54.9683 76.4704 54.9349 76.499 54.9072C76.5276 54.8796 76.5622 54.8657 76.6028 54.8657C76.6457 54.8657 76.6803 54.8796 76.7065 54.9072C76.7351 54.9326 76.7495 54.9649 76.7495 55.0041C76.7495 55.0433 76.7351 55.0767 76.7065 55.1044C76.6803 55.1321 76.6457 55.1459 76.6028 55.1459Z" fill="#16141F"/>
</svg>
