<svg width="289" height="325" viewBox="0 0 289 325" fill="none" xmlns="http://www.w3.org/2000/svg">
<rect x="384.674" y="88.1939" width="235.836" height="331.325" transform="rotate(105.238 384.674 88.1939)" fill="#FAF9F9" stroke="#16141F" stroke-width="1.03514"/>
<path d="M57.2993 218.413L44.5825 196.173L295.268 264.464L275.026 277.725L57.2993 218.413Z" fill="#16141F" stroke="#16141F" stroke-width="1.03514"/>
<circle cx="81.5256" cy="170.832" r="27.9488" transform="rotate(15.2384 81.5256 170.832)" fill="#FAF9F9" stroke="#16141F" stroke-width="1.03514"/>
<path d="M83.3887 166.636C85.5802 162.555 89.3357 153.789 86.8256 151.378C83.6879 148.364 78.4824 155.583 83.3887 166.636Z" fill="#FAF9F9" stroke="#16141F" stroke-width="1.03514"/>
<path d="M87.5018 170.472C92.1169 170.874 101.653 170.864 102.878 167.606C104.408 163.533 95.7206 161.6 87.5018 170.472Z" fill="#FAF9F9" stroke="#16141F" stroke-width="1.03514"/>
<path d="M84.4457 173.54C84.0619 178.157 84.1101 187.693 87.3731 188.904C91.4519 190.419 93.35 181.723 84.4457 173.54Z" fill="#FAF9F9" stroke="#16141F" stroke-width="1.03514"/>
<path d="M78.0105 174.472C73.8085 176.422 65.545 181.182 66.1066 184.617C66.8086 188.911 75.3043 186.259 78.0105 174.472Z" fill="#FAF9F9" stroke="#16141F" stroke-width="1.03514"/>
<path d="M78.3273 167.876C75.0306 164.622 67.6818 158.544 64.6599 160.271C60.8826 162.43 66.3384 169.462 78.3273 167.876Z" fill="#FAF9F9" stroke="#16141F" stroke-width="1.03514"/>
<path d="M265.296 239.472L274.22 221.756C267.063 215.286 249.569 199.809 236.857 189.659C220.967 176.973 190.246 143.115 167.637 185.548C145.027 227.98 221.844 240.57 233.048 237.036C242.012 234.209 258.282 237.482 265.296 239.472Z" fill="#FAF9F9"/>
<path d="M274.22 221.756L265.296 239.472L300.13 251.538C301.278 257.242 305.178 267.423 311.59 262.512C318.003 257.601 317.198 251.449 315.994 248.987C320.543 246.408 327.559 239.507 319.235 232.531C310.911 225.556 307.811 231.828 307.301 235.836L274.22 221.756Z" fill="#FAF9F9"/>
<path d="M300.13 251.538L300.638 251.436L300.579 251.145L300.3 251.049L300.13 251.538ZM315.994 248.987L315.739 248.537L315.316 248.777L315.53 249.214L315.994 248.987ZM307.301 235.836L307.098 236.312L307.728 236.58L307.814 235.901L307.301 235.836ZM233.048 237.036L232.893 236.543L233.048 237.036ZM236.857 189.659L237.18 189.255L236.857 189.659ZM273.758 221.523L264.834 239.239L265.758 239.705L274.682 221.989L273.758 221.523ZM265.126 239.961L299.961 252.027L300.3 251.049L265.465 238.983L265.126 239.961ZM299.623 251.64C300.203 254.521 301.483 258.577 303.467 261.31C304.459 262.676 305.672 263.773 307.119 264.17C308.597 264.576 310.207 264.223 311.905 262.923L311.276 262.101C309.767 263.256 308.485 263.472 307.393 263.172C306.269 262.864 305.233 261.979 304.305 260.701C302.449 258.145 301.206 254.259 300.638 251.436L299.623 251.64ZM311.905 262.923C318.548 257.836 317.751 251.402 316.459 248.76L315.53 249.214C316.645 251.497 317.458 257.367 311.276 262.101L311.905 262.923ZM316.25 249.437C318.57 248.121 321.57 245.681 322.916 242.616C323.595 241.069 323.857 239.351 323.38 237.55C322.904 235.753 321.707 233.928 319.567 232.135L318.903 232.928C320.925 234.623 321.972 236.276 322.38 237.815C322.786 239.35 322.571 240.827 321.968 242.2C320.75 244.974 317.967 247.274 315.739 248.537L316.25 249.437ZM319.567 232.135C315.345 228.597 312.23 228.246 310.06 229.628C309.011 230.296 308.261 231.329 307.742 232.427C307.223 233.527 306.921 234.725 306.788 235.771L307.814 235.901C307.936 234.943 308.213 233.854 308.678 232.869C309.145 231.881 309.785 231.031 310.616 230.501C312.205 229.489 314.801 229.491 318.903 232.928L319.567 232.135ZM307.504 235.36L274.423 221.28L274.017 222.233L307.098 236.312L307.504 235.36ZM265.437 238.974C261.907 237.973 256.059 236.651 249.964 235.934C243.887 235.219 237.485 235.094 232.893 236.543L233.204 237.53C237.575 236.151 243.79 236.25 249.843 236.962C255.877 237.672 261.67 238.982 265.155 239.97L265.437 238.974ZM232.893 236.543C231.58 236.957 229.229 237.15 226.108 237.061C223.006 236.973 219.197 236.608 215.003 235.938C206.613 234.597 196.713 232.039 187.875 228.057C179.026 224.07 171.307 218.685 167.189 211.727C163.096 204.811 162.514 196.262 168.094 185.791L167.18 185.304C161.455 196.049 161.996 204.986 166.298 212.254C170.574 219.48 178.52 224.978 187.45 229.001C196.39 233.029 206.382 235.608 214.84 236.96C219.07 237.636 222.924 238.006 226.079 238.096C229.215 238.185 231.715 237.999 233.204 237.53L232.893 236.543ZM168.094 185.791C173.713 175.246 179.795 169.517 185.953 166.983C192.104 164.453 198.418 165.075 204.583 167.418C210.756 169.763 216.743 173.82 222.198 178.105C224.922 180.245 227.507 182.437 229.912 184.493C232.312 186.547 234.539 188.471 236.534 190.064L237.18 189.255C235.203 187.676 232.994 185.767 230.585 183.707C228.179 181.649 225.58 179.445 222.837 177.291C217.356 172.985 211.27 168.851 204.951 166.45C198.623 164.046 192.025 163.367 185.559 166.026C179.102 168.682 172.866 174.633 167.18 185.304L168.094 185.791ZM236.534 190.064C249.234 200.203 266.717 215.672 273.873 222.14L274.567 221.372C267.408 214.901 249.905 199.415 237.18 189.255L236.534 190.064Z" fill="#16141F"/>
<path d="M38.7207 213.804L68.7102 202.778C75.8898 212.897 90.3972 233.129 90.9896 233.107C91.7301 233.079 89.562 224.75 89.8764 223.254C90.1907 221.758 93.2461 224.116 94.6899 223.073C96.1337 222.029 91.7998 215.266 91.7253 213.289C91.6507 211.313 96.1685 213.122 97.9453 211.076C99.7221 209.03 94.3706 204.779 94.2961 202.803C94.2215 200.827 99.8315 202.099 100.553 201.577C101.275 201.055 95.4417 193.854 98.348 192.26C100.673 190.985 102.327 186.338 102.863 184.174L69.2084 196.328L50.3546 168.344C53.3933 178.124 48.9567 180.435 46.3586 180.368C50.4629 186.942 46.5893 189.76 44.1395 190.347C47.5916 195.362 44.3328 198.75 42.2719 199.818C44.0064 206.481 40.6272 211.918 38.7207 213.804Z" fill="#E84355" stroke="#16141F" stroke-width="1.03514"/>
<path d="M253.472 277.854L272.331 252.061C283.913 256.508 307.199 265.315 307.68 264.968C308.281 264.535 301.862 258.802 301.295 257.382C300.728 255.962 304.578 256.233 305.202 254.564C305.826 252.895 298.471 249.666 297.314 248.062C296.157 246.458 300.921 245.461 301.266 242.773C301.612 240.085 294.802 239.511 293.645 237.907C292.488 236.303 297.864 234.255 298.176 233.42C298.488 232.586 289.642 229.822 291.178 226.885C292.407 224.536 291.21 219.751 290.458 217.652L269.172 246.414L237.973 233.561C245.921 240.02 243.508 244.402 241.308 245.786C248.366 248.985 246.702 253.477 244.988 255.323C250.64 257.586 249.804 262.212 248.68 264.242C253.815 268.828 254.014 275.227 253.472 277.854Z" fill="#E84355" stroke="#16141F" stroke-width="1.03514"/>
<path d="M199.751 215.543L166.099 223.946C158.524 215.334 143.208 198.112 142.551 198.115C141.729 198.119 143.818 205.11 143.413 206.348C143.009 207.586 139.711 205.543 138.072 206.374C136.432 207.206 140.981 212.95 140.989 214.597C140.997 216.245 136.058 214.622 134.012 216.279C131.966 217.937 137.736 221.615 137.744 223.262C137.753 224.91 131.583 223.705 130.763 224.12C129.944 224.536 136.137 230.684 132.856 231.936C130.232 232.937 128.224 236.763 127.548 238.551L165.304 229.304L185.144 253.094C182.145 244.872 187.149 243.062 190.026 243.185C185.725 237.605 190.124 235.36 192.862 234.934C189.225 230.669 192.964 227.932 195.288 227.097C193.617 221.504 197.567 217.064 199.751 215.543Z" fill="#E84355" stroke="#16141F" stroke-width="1.03514"/>
<circle cx="123.115" cy="199.328" r="27.9488" transform="rotate(15.2384 123.115 199.328)" fill="#FAF9F9" stroke="#16141F" stroke-width="1.03514"/>
<path d="M124.978 195.131C127.17 191.05 130.925 182.284 128.415 179.873C125.277 176.859 120.072 184.078 124.978 195.131Z" fill="#FAF9F9" stroke="#16141F" stroke-width="1.03514"/>
<path d="M129.091 198.967C133.706 199.369 143.243 199.359 144.467 196.101C145.998 192.028 137.31 190.095 129.091 198.967Z" fill="#FAF9F9" stroke="#16141F" stroke-width="1.03514"/>
<path d="M126.035 202.035C125.651 206.652 125.699 216.188 128.962 217.399C133.041 218.914 134.939 210.218 126.035 202.035Z" fill="#FAF9F9" stroke="#16141F" stroke-width="1.03514"/>
<path d="M119.6 202.967C115.398 204.918 107.134 209.678 107.696 213.113C108.398 217.406 116.894 214.754 119.6 202.967Z" fill="#FAF9F9" stroke="#16141F" stroke-width="1.03514"/>
<path d="M119.917 196.371C116.62 193.117 109.271 187.039 106.249 188.766C102.472 190.925 107.928 197.957 119.917 196.371Z" fill="#FAF9F9" stroke="#16141F" stroke-width="1.03514"/>
<path d="M86.9384 39.2379C86.5256 39.1255 86.1424 38.9567 85.7889 38.7317C85.4317 38.5199 85.1593 38.2598 84.9715 37.9511L85.5724 37.3209C85.9066 37.8268 86.42 38.1741 87.1124 38.3627C87.7117 38.5259 88.2201 38.4713 88.6376 38.1988C89.0685 37.93 89.3764 37.456 89.5614 36.7768L92.6739 25.3512L93.6727 25.6232L90.5493 37.0888C90.3099 37.9677 89.8713 38.6064 89.2334 39.0049C88.6089 39.4069 87.8439 39.4846 86.9384 39.2379ZM93.8644 22.9504C93.638 22.8887 93.4667 22.7562 93.3504 22.5529C93.2341 22.3496 93.205 22.1414 93.2631 21.9283C93.3247 21.7019 93.4572 21.5306 93.6606 21.4143C93.8639 21.298 94.0788 21.2708 94.3051 21.3324C94.5448 21.3977 94.7162 21.5302 94.8191 21.7299C94.939 21.9199 94.9681 22.1281 94.9065 22.3545C94.8448 22.5809 94.7123 22.7522 94.509 22.8685C94.3189 22.9884 94.1041 23.0157 93.8644 22.9504ZM101.611 38.9865L102.259 36.6095L102.317 36.239L103.383 32.324C103.648 31.3518 103.583 30.5402 103.188 29.8891C102.807 29.2416 102.11 28.78 101.098 28.5043C100.379 28.3084 99.6719 28.2517 98.9771 28.3342C98.2992 28.407 97.688 28.5767 97.1433 28.8432L96.8398 27.988C97.4862 27.6634 98.21 27.4744 99.0113 27.4209C99.8163 27.3541 100.618 27.4295 101.417 27.6471C102.709 27.999 103.612 28.5955 104.127 29.4367C104.642 30.2778 104.723 31.3443 104.371 32.636L102.57 39.2477L101.611 38.9865ZM97.8342 38.0434C97.0618 37.833 96.422 37.53 95.9146 37.1343C95.4243 36.7289 95.0876 36.2581 94.9047 35.7219C94.735 35.1893 94.73 34.6301 94.8897 34.0441C95.0348 33.5115 95.2852 33.0647 95.641 32.7039C96.0137 32.3334 96.5227 32.0929 97.1678 31.9826C97.8166 31.8589 98.6204 31.9277 99.5792 32.1889L103.414 33.2336L103.202 34.0127L99.387 32.9734C98.3083 32.6795 97.4949 32.6725 96.9466 32.9523C96.4116 33.2357 96.0625 33.677 95.8993 34.2763C95.7179 34.9421 95.8258 35.5437 96.223 36.081C96.6202 36.6184 97.2782 37.0122 98.1971 37.2625C99.076 37.5019 99.8695 37.5035 100.578 37.2673C101.299 37.0346 101.91 36.5787 102.409 35.8995L102.504 36.6548C102.017 37.3377 101.373 37.813 100.571 38.0807C99.785 38.3388 98.8729 38.3264 97.8342 38.0434ZM114.641 31.2494C115.493 31.4816 116.187 31.8494 116.722 32.3528C117.274 32.8465 117.633 33.4735 117.797 34.2336C117.979 34.9841 117.938 35.8454 117.673 36.8175L116.013 42.9098L115.015 42.6378L116.652 36.6253C116.972 35.4534 116.915 34.4796 116.483 33.7038C116.064 32.9316 115.321 32.4004 114.256 32.1102C113.444 31.8889 112.693 31.8631 112.003 32.0328C111.313 32.2025 110.726 32.5434 110.244 33.0556C109.774 33.5714 109.425 34.2488 109.196 35.0877L107.684 40.6407L106.685 40.3687L109.525 29.9418L110.484 30.2029L109.695 33.0993L109.642 32.7416C110.187 32.0031 110.889 31.5005 111.748 31.2339C112.611 30.9541 113.575 30.9592 114.641 31.2494ZM123.14 44.937C122.221 44.6867 121.584 44.2414 121.229 43.6011C120.887 42.9645 120.836 42.2067 121.076 41.3278L123.786 31.3803L124.784 31.6524L122.102 41.5C121.92 42.1659 121.947 42.7239 122.182 43.1741C122.417 43.6244 122.848 43.9347 123.473 44.1052C124.126 44.283 124.718 44.2368 125.249 43.9667L125.478 44.7801C125.143 44.9606 124.766 45.0581 124.347 45.0728C123.942 45.0911 123.539 45.0458 123.14 44.937ZM121.014 33.994L121.248 33.1351L127.48 34.8328L127.246 35.6917L121.014 33.994ZM134.656 47.9883L135.303 45.6113L135.361 45.2408L136.428 41.3257C136.693 40.3536 136.628 39.542 136.233 38.8909C135.851 38.2434 135.154 37.7818 134.142 37.5061C133.423 37.3102 132.716 37.2535 132.022 37.336C131.344 37.4088 130.732 37.5785 130.188 37.8449L129.884 36.9898C130.531 36.6652 131.254 36.4762 132.056 36.4227C132.861 36.3558 133.663 36.4313 134.462 36.6489C135.753 37.0008 136.657 37.5973 137.171 38.4385C137.686 39.2796 137.767 40.3461 137.416 41.6378L135.614 48.2495L134.656 47.9883ZM130.879 47.0452C130.106 46.8348 129.466 46.5317 128.959 46.136C128.469 45.7307 128.132 45.2599 127.949 44.7237C127.779 44.1911 127.774 43.6319 127.934 43.0459C128.079 42.5133 128.33 42.0665 128.685 41.7057C129.058 41.3352 129.567 41.0947 130.212 40.9844C130.861 40.8607 131.665 40.9295 132.624 41.1907L136.459 42.2354L136.247 43.0145L132.431 41.9751C131.353 41.6813 130.539 41.6743 129.991 41.9541C129.456 42.2375 129.107 42.6788 128.944 43.278C128.762 43.9439 128.87 44.5455 129.267 45.0828C129.665 45.6202 130.323 46.014 131.242 46.2643C132.12 46.5037 132.914 46.5053 133.622 46.2691C134.343 46.0364 134.954 45.5805 135.454 44.9013L135.548 45.6566C135.062 46.3394 134.417 46.8148 133.615 47.0825C132.829 47.3406 131.917 47.3281 130.879 47.0452ZM139.729 49.3704L142.57 38.9435L143.529 39.2047L142.751 42.0611L142.738 41.7143C143.259 40.9552 143.928 40.4436 144.744 40.1794C145.56 39.9153 146.487 39.9247 147.525 40.2077L147.259 41.1864C147.219 41.1756 147.179 41.1647 147.139 41.1538C147.103 41.1296 147.065 41.1121 147.025 41.1012C145.866 40.7856 144.861 40.9051 144.009 41.4598C143.16 42.0011 142.56 42.9176 142.208 44.2093L140.728 49.6425L139.729 49.3704ZM149.926 56.3966C149.513 56.2841 149.13 56.1154 148.776 55.8903C148.419 55.6786 148.147 55.4184 147.959 55.1098L148.56 54.4795C148.894 54.9854 149.407 55.3327 150.1 55.5213C150.699 55.6846 151.207 55.63 151.625 55.3575C152.056 55.0886 152.364 54.6146 152.549 53.9355L155.661 42.5098L156.66 42.7819L153.537 54.2475C153.297 55.1264 152.859 55.7651 152.221 56.1635C151.596 56.5656 150.831 56.6433 149.926 56.3966ZM156.852 40.109C156.625 40.0474 156.454 39.9149 156.338 39.7115C156.221 39.5082 156.192 39.3 156.25 39.0869C156.312 38.8606 156.445 38.6892 156.648 38.573C156.851 38.4567 157.066 38.4294 157.292 38.4911C157.532 38.5564 157.703 38.6889 157.806 38.8886C157.926 39.0786 157.955 39.2868 157.894 39.5132C157.832 39.7396 157.7 39.9109 157.496 40.0271C157.306 40.147 157.091 40.1743 156.852 40.109ZM164.599 56.1451L165.246 53.7681L165.304 53.3977L166.371 49.4826C166.635 48.5105 166.57 47.6989 166.176 47.0477C165.794 46.4002 165.097 45.9386 164.085 45.6629C163.366 45.467 162.659 45.4103 161.964 45.4929C161.287 45.5657 160.675 45.7353 160.131 46.0018L159.827 45.1467C160.473 44.8221 161.197 44.633 161.999 44.5795C162.804 44.5127 163.606 44.5881 164.405 44.8058C165.696 45.1577 166.6 45.7542 167.114 46.5953C167.629 47.4365 167.71 48.5029 167.358 49.7946L165.557 56.4063L164.599 56.1451ZM160.821 55.2021C160.049 54.9916 159.409 54.6886 158.902 54.2929C158.412 53.8875 158.075 53.4168 157.892 52.8806C157.722 52.348 157.717 51.7887 157.877 51.2028C158.022 50.6701 158.273 50.2234 158.628 49.8625C159.001 49.492 159.51 49.2516 160.155 49.1412C160.804 49.0176 161.608 49.0863 162.567 49.3475L166.402 50.3923L166.19 51.1713L162.374 50.132C161.296 49.8382 160.482 49.8311 159.934 50.1109C159.399 50.3943 159.05 50.8357 158.887 51.4349C158.705 52.1007 158.813 52.7023 159.21 53.2397C159.608 53.777 160.266 54.1709 161.184 54.4212C162.063 54.6606 162.857 54.6622 163.565 54.4259C164.286 54.1933 164.897 53.7374 165.397 53.0581L165.491 53.8135C165.005 54.4963 164.36 54.9716 163.558 55.2394C162.772 55.4975 161.86 55.485 160.821 55.2021ZM177.628 48.4081C178.48 48.6402 179.174 49.008 179.709 49.5115C180.261 50.0052 180.62 50.6321 180.785 51.3923C180.967 52.1427 180.925 53.004 180.66 53.9761L179.001 60.0685L178.002 59.7964L179.64 53.784C179.959 52.6121 179.902 51.6383 179.47 50.8624C179.051 50.0903 178.309 49.5591 177.243 49.2689C176.431 49.0476 175.68 49.0218 174.99 49.1914C174.3 49.3611 173.714 49.702 173.231 50.2142C172.761 50.73 172.412 51.4074 172.184 52.2464L170.671 57.7994L169.672 57.5273L172.513 47.1004L173.472 47.3616L172.683 50.258L172.63 49.9003C173.174 49.1617 173.876 48.6591 174.736 48.3926C175.599 48.1127 176.563 48.1179 177.628 48.4081ZM186.127 62.0956C185.208 61.8453 184.571 61.4 184.216 60.7598C183.875 60.1231 183.824 59.3654 184.063 58.4865L186.773 48.539L187.772 48.811L185.089 58.6587C184.908 59.3245 184.935 59.8825 185.169 60.3328C185.404 60.783 185.835 61.0934 186.461 61.2639C187.113 61.4416 187.705 61.3955 188.237 61.1254L188.466 61.9388C188.13 62.1192 187.753 62.2168 187.334 62.2314C186.929 62.2497 186.526 62.2044 186.127 62.0956ZM184.001 51.1527L184.235 50.2937L190.467 51.9915L190.233 52.8504L184.001 51.1527ZM197.643 65.1469L198.291 62.7699L198.349 62.3995L199.415 58.4844C199.68 57.5123 199.615 56.7007 199.22 56.0495C198.839 55.402 198.142 54.9404 197.13 54.6647C196.411 54.4688 195.704 54.4121 195.009 54.4946C194.331 54.5675 193.72 54.7371 193.175 55.0036L192.872 54.1485C193.518 53.8239 194.242 53.6348 195.043 53.5813C195.848 53.5145 196.65 53.5899 197.449 53.8076C198.741 54.1595 199.644 54.756 200.159 55.5971C200.673 56.4383 200.755 57.5047 200.403 58.7964L198.602 65.4081L197.643 65.1469ZM193.866 64.2038C193.094 63.9934 192.454 63.6904 191.946 63.2947C191.456 62.8893 191.119 62.4185 190.936 61.8823C190.767 61.3498 190.762 60.7905 190.921 60.2046C191.067 59.6719 191.317 59.2252 191.673 58.8643C192.045 58.4938 192.554 58.2534 193.2 58.143C193.848 58.0194 194.652 58.0881 195.611 58.3493L199.446 59.3941L199.234 60.1731L195.419 59.1338C194.34 58.8399 193.527 58.8329 192.978 59.1127C192.443 59.3961 192.094 59.8375 191.931 60.4367C191.75 61.1025 191.858 61.7041 192.255 62.2415C192.652 62.7788 193.31 63.1726 194.229 63.423C195.108 63.6624 195.901 63.664 196.609 63.4277C197.331 63.1951 197.941 62.7391 198.441 62.0599L198.536 62.8152C198.049 63.4981 197.405 63.9734 196.602 64.2412C195.817 64.4992 194.905 64.4868 193.866 64.2038ZM202.717 66.5291L205.557 56.1022L206.516 56.3634L205.738 59.2198L205.725 58.873C206.247 58.1138 206.915 57.6022 207.731 57.3381C208.547 57.074 209.474 57.0834 210.513 57.3663L210.246 58.3451C210.206 58.3342 210.166 58.3233 210.126 58.3125C210.09 58.2883 210.052 58.2707 210.012 58.2598C208.853 57.9442 207.848 58.0638 206.996 58.6184C206.148 59.1598 205.547 60.0763 205.196 61.368L203.716 66.8012L202.717 66.5291ZM212.913 73.5552C212.5 73.4428 212.117 73.274 211.764 73.049C211.406 72.8372 211.134 72.5771 210.946 72.2684L211.547 71.6382C211.881 72.1441 212.395 72.4914 213.087 72.68C213.686 72.8432 214.195 72.7886 214.612 72.5161C215.043 72.2473 215.351 71.7733 215.536 71.0941L218.649 59.6685L219.647 59.9405L216.524 71.4062C216.285 72.285 215.846 72.9237 215.208 73.3222C214.584 73.7242 213.819 73.8019 212.913 73.5552ZM219.839 57.2677C219.613 57.206 219.441 57.0735 219.325 56.8702C219.209 56.6669 219.18 56.4587 219.238 56.2456C219.299 56.0192 219.432 55.8479 219.635 55.7316C219.839 55.6154 220.053 55.5881 220.28 55.6497C220.52 55.715 220.691 55.8475 220.794 56.0472C220.914 56.2372 220.943 56.4454 220.881 56.6718C220.819 56.8982 220.687 57.0695 220.484 57.1858C220.294 57.3057 220.079 57.333 219.839 57.2677ZM227.586 73.3038L228.233 70.9268L228.291 70.5563L229.358 66.6413C229.623 65.6692 229.558 64.8575 229.163 64.2064C228.781 63.5589 228.085 63.0973 227.073 62.8216C226.353 62.6257 225.647 62.569 224.952 62.6515C224.274 62.7243 223.663 62.894 223.118 63.1605L222.814 62.3053C223.461 61.9807 224.185 61.7917 224.986 61.7382C225.791 61.6714 226.593 61.7468 227.392 61.9644C228.684 62.3163 229.587 62.9128 230.102 63.754C230.616 64.5951 230.698 65.6616 230.346 66.9533L228.545 73.565L227.586 73.3038ZM223.809 72.3607C223.036 72.1503 222.397 71.8473 221.889 71.4516C221.399 71.0462 221.062 70.5754 220.879 70.0392C220.71 69.5066 220.705 68.9474 220.864 68.3614C221.009 67.8288 221.26 67.382 221.616 67.0212C221.988 66.6507 222.497 66.4102 223.142 66.2999C223.791 66.1762 224.595 66.245 225.554 66.5062L229.389 67.551L229.177 68.33L225.362 67.2907C224.283 66.9968 223.47 66.9898 222.921 67.2696C222.386 67.553 222.037 67.9943 221.874 68.5936C221.693 69.2594 221.8 69.861 222.198 70.3983C222.595 70.9357 223.253 71.3295 224.172 71.5798C225.051 71.8192 225.844 71.8208 226.552 71.5846C227.274 71.3519 227.884 70.896 228.384 70.2168L228.479 70.9721C227.992 71.655 227.348 72.1303 226.545 72.398C225.76 72.6561 224.848 72.6437 223.809 72.3607ZM240.615 65.5667C241.468 65.7989 242.161 66.1667 242.697 66.6701C243.249 67.1638 243.607 67.7908 243.772 68.5509C243.954 69.3014 243.912 70.1627 243.648 71.1348L241.988 77.2271L240.989 76.9551L242.627 70.9426C242.946 69.7707 242.89 68.7969 242.457 68.0211C242.038 67.2489 241.296 66.7177 240.231 66.4275C239.418 66.2062 238.667 66.1804 237.977 66.3501C237.287 66.5198 236.701 66.8607 236.218 67.3729C235.749 67.8887 235.4 68.5661 235.171 69.405L233.658 74.958L232.66 74.686L235.5 64.2591L236.459 64.5203L235.67 67.4166L235.617 67.0589C236.162 66.3204 236.864 65.8178 237.723 65.5512C238.586 65.2714 239.55 65.2765 240.615 65.5667ZM249.114 79.2543C248.195 79.0039 247.559 78.5587 247.204 77.9184C246.862 77.2818 246.811 76.524 247.05 75.6451L249.76 65.6976L250.759 65.9697L248.076 75.8173C247.895 76.4832 247.922 77.0412 248.157 77.4914C248.392 77.9417 248.822 78.252 249.448 78.4225C250.101 78.6003 250.693 78.5541 251.224 78.284L251.453 79.0974C251.118 79.2779 250.741 79.3754 250.322 79.3901C249.916 79.4084 249.514 79.3631 249.114 79.2543ZM246.988 68.3113L247.222 67.4524L253.455 69.1501L253.221 70.009L246.988 68.3113ZM260.63 82.3056L261.278 79.9286L261.336 79.5581L262.402 75.643C262.667 74.6709 262.602 73.8593 262.207 73.2082C261.826 72.5607 261.129 72.0991 260.117 71.8234C259.398 71.6275 258.691 71.5708 257.996 71.6533C257.318 71.7261 256.707 71.8958 256.162 72.1622L255.859 71.3071C256.505 70.9825 257.229 70.7935 258.03 70.74C258.835 70.6731 259.637 70.7486 260.436 70.9662C261.728 71.3181 262.631 71.9146 263.146 72.7558C263.661 73.5969 263.742 74.6634 263.39 75.9551L261.589 82.5668L260.63 82.3056ZM256.853 81.3625C256.081 81.1521 255.441 80.849 254.934 80.4534C254.443 80.048 254.107 79.5772 253.924 79.041C253.754 78.5084 253.749 77.9492 253.909 77.3632C254.054 76.8306 254.304 76.3838 254.66 76.023C255.033 75.6525 255.542 75.412 256.187 75.3017C256.836 75.178 257.64 75.2468 258.598 75.508L262.434 76.5527L262.221 77.3318L258.406 76.2924C257.327 75.9986 256.514 75.9916 255.966 76.2714C255.431 76.5548 255.082 76.9961 254.918 77.5954C254.737 78.2612 254.845 78.8628 255.242 79.4001C255.639 79.9375 256.297 80.3313 257.216 80.5816C258.095 80.821 258.889 80.8226 259.597 80.5864C260.318 80.3537 260.929 79.8978 261.428 79.2186L261.523 79.9739C261.037 80.6568 260.392 81.1321 259.59 81.3998C258.804 81.6579 257.892 81.6454 256.853 81.3625ZM265.704 83.6877L268.545 73.2608L269.503 73.522L268.725 76.3784L268.712 76.0316C269.234 75.2725 269.903 74.7609 270.718 74.4967C271.534 74.2326 272.461 74.242 273.5 74.525L273.233 75.5037C273.194 75.4929 273.154 75.482 273.114 75.4711C273.077 75.4469 273.039 75.4294 272.999 75.4185C271.841 75.1029 270.835 75.2224 269.983 75.7771C269.135 76.3184 268.535 77.2349 268.183 78.5266L266.703 83.9598L265.704 83.6877ZM275.9 90.7139C275.488 90.6014 275.104 90.4327 274.751 90.2076C274.394 89.9959 274.121 89.7357 273.934 89.4271L274.534 88.7968C274.869 89.3027 275.382 89.65 276.074 89.8386C276.674 90.0019 277.182 89.9473 277.6 89.6748C278.03 89.4059 278.338 88.9319 278.523 88.2528L281.636 76.8271L282.635 77.0992L279.511 88.5648C279.272 89.4437 278.833 90.0824 278.195 90.4808C277.571 90.8829 276.806 90.9606 275.9 90.7139ZM282.826 74.4263C282.6 74.3647 282.429 74.2322 282.312 74.0288C282.196 73.8255 282.167 73.6173 282.225 73.4042C282.287 73.1779 282.419 73.0065 282.623 72.8903C282.826 72.774 283.041 72.7467 283.267 72.8084C283.507 72.8737 283.678 73.0062 283.781 73.2059C283.901 73.3959 283.93 73.6041 283.868 73.8305C283.807 74.0569 283.674 74.2282 283.471 74.3444C283.281 74.4643 283.066 74.4916 282.826 74.4263ZM290.573 90.4624L291.221 88.0854L291.279 87.715L292.345 83.7999C292.61 82.8278 292.545 82.0162 292.15 81.365C291.769 80.7175 291.072 80.2559 290.06 79.9802C289.341 79.7843 288.634 79.7276 287.939 79.8102C287.261 79.883 286.65 80.0526 286.105 80.3191L285.802 79.464C286.448 79.1394 287.172 78.9503 287.973 78.8968C288.778 78.83 289.58 78.9054 290.379 79.1231C291.671 79.475 292.574 80.0715 293.089 80.9126C293.604 81.7538 293.685 82.8202 293.333 84.1119L291.532 90.7236L290.573 90.4624ZM286.796 89.5194C286.024 89.3089 285.384 89.0059 284.877 88.6102C284.386 88.2048 284.05 87.734 283.867 87.1978C283.697 86.6653 283.692 86.106 283.852 85.5201C283.997 84.9874 284.247 84.5407 284.603 84.1798C284.976 83.8093 285.485 83.5689 286.13 83.4585C286.779 83.3349 287.582 83.4036 288.541 83.6648L292.376 84.7096L292.164 85.4886L288.349 84.4493C287.27 84.1555 286.457 84.1484 285.909 84.4282C285.374 84.7116 285.024 85.153 284.861 85.7522C284.68 86.418 284.788 87.0196 285.185 87.557C285.582 88.0943 286.24 88.4882 287.159 88.7385C288.038 88.9779 288.831 88.9795 289.54 88.7432C290.261 88.5106 290.871 88.0547 291.371 87.3754L291.466 88.1308C290.979 88.8136 290.335 89.2889 289.532 89.5567C288.747 89.8148 287.835 89.8023 286.796 89.5194ZM303.603 82.7254C304.455 82.9575 305.149 83.3253 305.684 83.8288C306.236 84.3225 306.595 84.9494 306.759 85.7096C306.941 86.46 306.9 87.3213 306.635 88.2934L304.975 94.3858L303.977 94.1137L305.614 88.1013C305.934 86.9294 305.877 85.9556 305.445 85.1797C305.026 84.4076 304.283 83.8764 303.218 83.5862C302.406 83.3649 301.655 83.3391 300.965 83.5087C300.275 83.6784 299.688 84.0193 299.206 84.5315C298.736 85.0473 298.387 85.7247 298.158 86.5637L296.646 92.1167L295.647 91.8446L298.487 81.4177L299.446 81.6789L298.657 84.5753L298.604 84.2176C299.149 83.479 299.851 82.9764 300.71 82.7099C301.573 82.43 302.537 82.4352 303.603 82.7254ZM312.102 96.4129C311.183 96.1626 310.546 95.7173 310.191 95.0771C309.849 94.4404 309.798 93.6827 310.038 92.8038L312.748 82.8563L313.746 83.1283L311.064 92.976C310.882 93.6418 310.909 94.1999 311.144 94.6501C311.379 95.1003 311.81 95.4107 312.435 95.5812C313.088 95.759 313.68 95.7128 314.211 95.4427L314.44 96.2561C314.105 96.4365 313.728 96.5341 313.309 96.5487C312.904 96.567 312.501 96.5217 312.102 96.4129ZM309.976 85.47L310.21 84.611L316.442 86.3088L316.208 87.1677L309.976 85.47ZM323.618 99.4642L324.265 97.0872L324.323 96.7168L325.39 92.8017C325.655 91.8296 325.59 91.018 325.195 90.3668C324.813 89.7193 324.116 89.2577 323.104 88.982C322.385 88.7861 321.678 88.7294 320.984 88.8119C320.306 88.8848 319.694 89.0544 319.15 89.3209L318.846 88.4658C319.493 88.1412 320.216 87.9521 321.018 87.8986C321.823 87.8318 322.625 87.9072 323.424 88.1249C324.715 88.4768 325.619 89.0733 326.133 89.9144C326.648 90.7556 326.729 91.822 326.378 93.1137L324.576 99.7254L323.618 99.4642ZM319.841 98.5211C319.068 98.3107 318.428 98.0077 317.921 97.612C317.431 97.2066 317.094 96.7358 316.911 96.1996C316.741 95.6671 316.736 95.1078 316.896 94.5219C317.041 93.9892 317.292 93.5425 317.647 93.1816C318.02 92.8111 318.529 92.5707 319.174 92.4603C319.823 92.3367 320.627 92.4054 321.586 92.6666L325.421 93.7114L325.209 94.4904L321.393 93.4511C320.315 93.1572 319.501 93.1502 318.953 93.43C318.418 93.7134 318.069 94.1548 317.906 94.754C317.724 95.4198 317.832 96.0214 318.229 96.5588C318.627 97.0961 319.285 97.4899 320.204 97.7403C321.082 97.9797 321.876 97.9813 322.584 97.745C323.305 97.5124 323.916 97.0564 324.416 96.3772L324.51 97.1325C324.024 97.8154 323.379 98.2907 322.577 98.5585C321.791 98.8165 320.879 98.8041 319.841 98.5211ZM328.691 100.846L331.532 90.4195L332.491 90.6807L331.713 93.5371L331.7 93.1903C332.221 92.4312 332.89 91.9195 333.706 91.6554C334.522 91.3913 335.449 91.4007 336.487 91.6836L336.221 92.6624C336.181 92.6515 336.141 92.6406 336.101 92.6298C336.065 92.6056 336.027 92.588 335.987 92.5771C334.828 92.2615 333.823 92.3811 332.971 92.9357C332.122 93.4771 331.522 94.3936 331.17 95.6853L329.69 101.118L328.691 100.846ZM80.3675 63.3589C79.9547 63.2465 79.5715 63.0777 79.2179 62.8527C78.8608 62.641 78.5883 62.3808 78.4006 62.0721L79.0015 61.4419C79.3357 61.9478 79.8491 62.2951 80.5415 62.4837C81.1408 62.6469 81.6492 62.5923 82.0667 62.3198C82.4976 62.051 82.8055 61.577 82.9905 60.8978L86.103 49.4722L87.1018 49.7443L83.9784 61.2099C83.739 62.0888 83.3003 62.7274 82.6625 63.1259C82.038 63.5279 81.273 63.6056 80.3675 63.3589ZM87.2935 47.0714C87.0671 47.0097 86.8958 46.8772 86.7795 46.6739C86.6632 46.4706 86.6341 46.2624 86.6922 46.0493C86.7538 45.8229 86.8863 45.6516 87.0897 45.5353C87.293 45.4191 87.5078 45.3918 87.7342 45.4534C87.9739 45.5187 88.1453 45.6512 88.2482 45.8509C88.3681 46.0409 88.3972 46.2491 88.3355 46.4755C88.2739 46.7019 88.1414 46.8732 87.938 46.9895C87.748 47.1094 87.5332 47.1367 87.2935 47.0714ZM95.0403 63.1075L95.6878 60.7305L95.7458 60.3601L96.8124 56.445C97.0772 55.4729 97.0122 54.6612 96.6174 54.0101C96.2359 53.3626 95.5391 52.901 94.527 52.6253C93.8079 52.4294 93.101 52.3727 92.4062 52.4552C91.7283 52.528 91.1171 52.6977 90.5724 52.9642L90.2689 52.109C90.9152 51.7844 91.6391 51.5954 92.4404 51.5419C93.2454 51.4751 94.0474 51.5505 94.8464 51.7682C96.1381 52.12 97.0413 52.7165 97.556 53.5577C98.0707 54.3989 98.1521 55.4653 97.8002 56.757L95.9991 63.3687L95.0403 63.1075ZM91.2633 62.1644C90.4909 61.954 89.8511 61.651 89.3437 61.2553C88.8534 60.8499 88.5167 60.3791 88.3338 59.8429C88.1641 59.3103 88.1591 58.7511 88.3188 58.1652C88.4639 57.6325 88.7143 57.1857 89.0701 56.8249C89.4428 56.4544 89.9518 56.2139 90.5969 56.1036C91.2457 55.9799 92.0495 56.0487 93.0083 56.3099L96.8435 57.3547L96.6313 58.1337L92.8161 57.0944C91.7374 56.8005 90.924 56.7935 90.3757 57.0733C89.8407 57.3567 89.4916 57.798 89.3284 58.3973C89.147 59.0631 89.2549 59.6647 89.6521 60.202C90.0493 60.7394 90.7073 61.1332 91.6262 61.3835C92.5051 61.623 93.2986 61.6245 94.0066 61.3883C94.728 61.1557 95.3386 60.6997 95.8383 60.0205L95.933 60.7758C95.4466 61.4587 94.8021 61.934 93.9996 62.2017C93.2141 62.4598 92.302 62.4474 91.2633 62.1644ZM108.07 55.3704C108.922 55.6026 109.616 55.9704 110.151 56.4738C110.703 56.9675 111.062 57.5945 111.227 58.3546C111.408 59.1051 111.367 59.9664 111.102 60.9385L109.442 67.0308L108.444 66.7588L110.082 60.7463C110.401 59.5744 110.344 58.6006 109.912 57.8248C109.493 57.0526 108.751 56.5214 107.685 56.2312C106.873 56.0099 106.122 55.9841 105.432 56.1538C104.742 56.3235 104.156 56.6644 103.673 57.1766C103.203 57.6924 102.854 58.3698 102.626 59.2087L101.113 64.7617L100.114 64.4897L102.955 54.0628L103.913 54.324L103.124 57.2203L103.072 56.8626C103.616 56.1241 104.318 55.6215 105.177 55.3549C106.04 55.0751 107.005 55.0802 108.07 55.3704ZM116.569 69.058C115.65 68.8077 115.013 68.3624 114.658 67.7221C114.317 67.0855 114.265 66.3277 114.505 65.4488L117.215 55.5013L118.214 55.7734L115.531 65.621C115.349 66.2869 115.376 66.8449 115.611 67.2951C115.846 67.7454 116.277 68.0558 116.903 68.2263C117.555 68.404 118.147 68.3578 118.678 68.0877L118.907 68.9011C118.572 69.0816 118.195 69.1792 117.776 69.1938C117.371 69.2121 116.968 69.1668 116.569 69.058ZM114.443 58.115L114.677 57.2561L120.909 58.9538L120.675 59.8127L114.443 58.115ZM128.085 72.1093L128.732 69.7323L128.79 69.3618L129.857 65.4468C130.122 64.4746 130.057 63.663 129.662 63.0119C129.28 62.3644 128.584 61.9028 127.571 61.6271C126.852 61.4312 126.145 61.3745 125.451 61.457C124.773 61.5298 124.162 61.6995 123.617 61.9659L123.313 61.1108C123.96 60.7862 124.684 60.5972 125.485 60.5437C126.29 60.4769 127.092 60.5523 127.891 60.7699C129.183 61.1218 130.086 61.7183 130.6 62.5595C131.115 63.4006 131.197 64.4671 130.845 65.7588L129.044 72.3705L128.085 72.1093ZM124.308 71.1662C123.535 70.9558 122.896 70.6527 122.388 70.2571C121.898 69.8517 121.561 69.3809 121.378 68.8447C121.209 68.3121 121.204 67.7529 121.363 67.1669C121.508 66.6343 121.759 66.1875 122.115 65.8267C122.487 65.4562 122.996 65.2157 123.641 65.1054C124.29 64.9817 125.094 65.0505 126.053 65.3117L129.888 66.3564L129.676 67.1355L125.861 66.0961C124.782 65.8023 123.968 65.7953 123.42 66.0751C122.885 66.3585 122.536 66.7998 122.373 67.3991C122.191 68.0649 122.299 68.6665 122.697 69.2038C123.094 69.7412 123.752 70.135 124.671 70.3853C125.55 70.6247 126.343 70.6263 127.051 70.3901C127.772 70.1574 128.383 69.7015 128.883 69.0223L128.977 69.7776C128.491 70.4605 127.847 70.9358 127.044 71.2035C126.259 71.4616 125.346 71.4491 124.308 71.1662ZM133.159 73.4915L135.999 63.0645L136.958 63.3257L136.18 66.1822L136.167 65.8353C136.688 65.0762 137.357 64.5646 138.173 64.3004C138.989 64.0363 139.916 64.0457 140.955 64.3287L140.688 65.3075C140.648 65.2966 140.608 65.2857 140.568 65.2748C140.532 65.2506 140.494 65.2331 140.454 65.2222C139.295 64.9066 138.29 65.0261 137.438 65.5808C136.589 66.1221 135.989 67.0386 135.637 68.3304L134.157 73.7635L133.159 73.4915ZM143.355 80.5176C142.942 80.4051 142.559 80.2364 142.205 80.0113C141.848 79.7996 141.576 79.5394 141.388 79.2308L141.989 78.6006C142.323 79.1065 142.836 79.4537 143.529 79.6424C144.128 79.8056 144.637 79.751 145.054 79.4785C145.485 79.2096 145.793 78.7356 145.978 78.0565L149.09 66.6308L150.089 66.9029L146.966 78.3685C146.726 79.2474 146.288 79.8861 145.65 80.2845C145.025 80.6866 144.26 80.7643 143.355 80.5176ZM150.281 64.2301C150.054 64.1684 149.883 64.0359 149.767 63.8325C149.651 63.6292 149.621 63.421 149.679 63.208C149.741 62.9816 149.874 62.8102 150.077 62.694C150.28 62.5777 150.495 62.5504 150.722 62.6121C150.961 62.6774 151.133 62.8099 151.236 63.0096C151.355 63.1996 151.385 63.4078 151.323 63.6342C151.261 63.8606 151.129 64.0319 150.925 64.1482C150.735 64.268 150.521 64.2953 150.281 64.2301ZM158.028 80.2662L158.675 77.8891L158.733 77.5187L159.8 73.6036C160.065 72.6315 160 71.8199 159.605 71.1687C159.223 70.5212 158.526 70.0596 157.514 69.7839C156.795 69.588 156.088 69.5314 155.393 69.6139C154.716 69.6867 154.104 69.8563 153.56 70.1228L153.256 69.2677C153.903 68.9431 154.626 68.754 155.428 68.7005C156.233 68.6337 157.035 68.7091 157.834 68.9268C159.125 69.2787 160.029 69.8752 160.543 70.7164C161.058 71.5575 161.139 72.6239 160.788 73.9156L158.986 80.5273L158.028 80.2662ZM154.251 79.3231C153.478 79.1127 152.838 78.8096 152.331 78.4139C151.841 78.0085 151.504 77.5378 151.321 77.0016C151.151 76.469 151.146 75.9097 151.306 75.3238C151.451 74.7911 151.702 74.3444 152.057 73.9836C152.43 73.613 152.939 73.3726 153.584 73.2623C154.233 73.1386 155.037 73.2074 155.996 73.4685L159.831 74.5133L159.619 75.2923L155.803 74.253C154.725 73.9592 153.911 73.9521 153.363 74.2319C152.828 74.5153 152.479 74.9567 152.316 75.5559C152.134 76.2218 152.242 76.8233 152.639 77.3607C153.037 77.898 153.695 78.2919 154.614 78.5422C155.492 78.7816 156.286 78.7832 156.994 78.5469C157.715 78.3143 158.326 77.8584 158.826 77.1791L158.92 77.9345C158.434 78.6173 157.789 79.0926 156.987 79.3604C156.201 79.6185 155.289 79.606 154.251 79.3231ZM171.057 72.5291C171.909 72.7613 172.603 73.129 173.138 73.6325C173.691 74.1262 174.049 74.7531 174.214 75.5133C174.396 76.2637 174.354 77.125 174.089 78.0971L172.43 84.1895L171.431 83.9174L173.069 77.905C173.388 76.7331 173.331 75.7593 172.899 74.9835C172.48 74.2113 171.738 73.6801 170.673 73.3899C169.86 73.1686 169.109 73.1428 168.419 73.3124C167.729 73.4821 167.143 73.823 166.66 74.3352C166.19 74.851 165.841 75.5284 165.613 76.3674L164.1 81.9204L163.101 81.6483L165.942 71.2214L166.901 71.4826L166.112 74.379L166.059 74.0213C166.603 73.2827 167.305 72.7802 168.165 72.5136C169.028 72.2337 169.992 72.2389 171.057 72.5291ZM179.556 86.2166C178.637 85.9663 178 85.521 177.645 84.8808C177.304 84.2442 177.253 83.4864 177.492 82.6075L180.202 72.66L181.201 72.9321L178.518 82.7797C178.337 83.4455 178.364 84.0036 178.599 84.4538C178.834 84.904 179.264 85.2144 179.89 85.3849C180.542 85.5627 181.134 85.5165 181.666 85.2464L181.895 86.0598C181.559 86.2402 181.182 86.3378 180.764 86.3524C180.358 86.3707 179.955 86.3254 179.556 86.2166ZM177.43 75.2737L177.664 74.4147L183.896 76.1125L183.662 76.9714L177.43 75.2737ZM191.072 89.2679L191.72 86.8909L191.778 86.5205L192.844 82.6054C193.109 81.6333 193.044 80.8217 192.649 80.1705C192.268 79.523 191.571 79.0614 190.559 78.7857C189.84 78.5898 189.133 78.5331 188.438 78.6157C187.76 78.6885 187.149 78.8581 186.604 79.1246L186.301 78.2695C186.947 77.9449 187.671 77.7558 188.472 77.7023C189.277 77.6355 190.079 77.7109 190.878 77.9286C192.17 78.2805 193.073 78.877 193.588 79.7181C194.102 80.5593 194.184 81.6257 193.832 82.9174L192.031 89.5291L191.072 89.2679ZM187.295 88.3248C186.523 88.1144 185.883 87.8114 185.376 87.4157C184.885 87.0103 184.548 86.5395 184.366 86.0033C184.196 85.4708 184.191 84.9115 184.351 84.3256C184.496 83.7929 184.746 83.3462 185.102 82.9853C185.475 82.6148 185.984 82.3744 186.629 82.264C187.277 82.1404 188.081 82.2091 189.04 82.4703L192.875 83.5151L192.663 84.2941L188.848 83.2548C187.769 82.961 186.956 82.9539 186.407 83.2337C185.872 83.5171 185.523 83.9585 185.36 84.5577C185.179 85.2235 185.287 85.8251 185.684 86.3625C186.081 86.8998 186.739 87.2937 187.658 87.544C188.537 87.7834 189.33 87.785 190.038 87.5487C190.76 87.3161 191.37 86.8602 191.87 86.1809L191.965 86.9362C191.478 87.6191 190.834 88.0944 190.031 88.3622C189.246 88.6202 188.334 88.6078 187.295 88.3248ZM196.146 90.6501L198.986 80.2232L199.945 80.4844L199.167 83.3408L199.154 82.994C199.676 82.2349 200.344 81.7232 201.16 81.4591C201.976 81.195 202.903 81.2044 203.942 81.4873L203.675 82.4661C203.635 82.4552 203.595 82.4443 203.555 82.4335C203.519 82.4093 203.481 82.3917 203.441 82.3808C202.282 82.0652 201.277 82.1848 200.425 82.7394C199.577 83.2808 198.977 84.1973 198.625 85.489L197.145 90.9222L196.146 90.6501ZM206.342 97.6763C205.929 97.5638 205.546 97.395 205.193 97.17C204.835 96.9583 204.563 96.6981 204.375 96.3895L204.976 95.7592C205.31 96.2651 205.824 96.6124 206.516 96.801C207.115 96.9643 207.624 96.9096 208.041 96.6371C208.472 96.3683 208.78 95.8943 208.965 95.2151L212.078 83.7895L213.076 84.0616L209.953 95.5272C209.714 96.4061 209.275 97.0447 208.637 97.4432C208.013 97.8452 207.248 97.9229 206.342 97.6763ZM213.268 81.3887C213.042 81.327 212.87 81.1945 212.754 80.9912C212.638 80.7879 212.609 80.5797 212.667 80.3666C212.728 80.1402 212.861 79.9689 213.064 79.8526C213.268 79.7364 213.483 79.7091 213.709 79.7707C213.949 79.836 214.12 79.9685 214.223 80.1682C214.343 80.3583 214.372 80.5664 214.31 80.7928C214.249 81.0192 214.116 81.1905 213.913 81.3068C213.723 81.4267 213.508 81.454 213.268 81.3887ZM221.015 97.4248L221.662 95.0478L221.72 94.6774L222.787 90.7623C223.052 89.7902 222.987 88.9785 222.592 88.3274C222.211 87.6799 221.514 87.2183 220.502 86.9426C219.783 86.7467 219.076 86.69 218.381 86.7725C217.703 86.8454 217.092 87.015 216.547 87.2815L216.244 86.4263C216.89 86.1017 217.614 85.9127 218.415 85.8592C219.22 85.7924 220.022 85.8678 220.821 86.0855C222.113 86.4373 223.016 87.0339 223.531 87.875C224.045 88.7162 224.127 89.7826 223.775 91.0743L221.974 97.686L221.015 97.4248ZM217.238 96.4817C216.466 96.2713 215.826 95.9683 215.318 95.5726C214.828 95.1672 214.491 94.6964 214.308 94.1602C214.139 93.6276 214.134 93.0684 214.293 92.4825C214.439 91.9498 214.689 91.503 215.045 91.1422C215.417 90.7717 215.926 90.5313 216.572 90.4209C217.22 90.2972 218.024 90.366 218.983 90.6272L222.818 91.672L222.606 92.451L218.791 91.4117C217.712 91.1178 216.899 91.1108 216.35 91.3906C215.815 91.674 215.466 92.1153 215.303 92.7146C215.122 93.3804 215.23 93.982 215.627 94.5193C216.024 95.0567 216.682 95.4505 217.601 95.7008C218.48 95.9403 219.273 95.9418 219.981 95.7056C220.703 95.473 221.313 95.017 221.813 94.3378L221.908 95.0931C221.421 95.776 220.777 96.2513 219.974 96.519C219.189 96.7771 218.277 96.7647 217.238 96.4817ZM234.045 89.6877C234.897 89.9199 235.591 90.2877 236.126 90.7911C236.678 91.2848 237.036 91.9118 237.201 92.6719C237.383 93.4224 237.342 94.2837 237.077 95.2558L235.417 101.348L234.418 101.076L236.056 95.0636C236.375 93.8918 236.319 92.9179 235.886 92.1421C235.467 91.3699 234.725 90.8387 233.66 90.5485C232.848 90.3272 232.096 90.3014 231.406 90.4711C230.717 90.6408 230.13 90.9817 229.647 91.4939C229.178 92.0097 228.829 92.6871 228.6 93.526L227.088 99.0791L226.089 98.807L228.929 88.3801L229.888 88.6413L229.099 91.5376L229.046 91.1799C229.591 90.4414 230.293 89.9388 231.152 89.6722C232.015 89.3924 232.979 89.3975 234.045 89.6877ZM242.543 103.375C241.624 103.125 240.988 102.68 240.633 102.039C240.291 101.403 240.24 100.645 240.48 99.7661L243.189 89.8186L244.188 90.0907L241.506 99.9383C241.324 100.604 241.351 101.162 241.586 101.612C241.821 102.063 242.251 102.373 242.877 102.544C243.53 102.721 244.122 102.675 244.653 102.405L244.882 103.218C244.547 103.399 244.17 103.496 243.751 103.511C243.345 103.529 242.943 103.484 242.543 103.375ZM240.418 92.4323L240.651 91.5734L246.884 93.2711L246.65 94.13L240.418 92.4323ZM254.059 106.427L254.707 104.05L254.765 103.679L255.831 99.7641C256.096 98.7919 256.031 97.9803 255.636 97.3292C255.255 96.6817 254.558 96.2201 253.546 95.9444C252.827 95.7485 252.12 95.6918 251.425 95.7743C250.747 95.8471 250.136 96.0168 249.592 96.2833L249.288 95.4281C249.934 95.1035 250.658 94.9145 251.46 94.861C252.264 94.7942 253.066 94.8696 253.865 95.0872C255.157 95.4391 256.06 96.0356 256.575 96.8768C257.09 97.7179 257.171 98.7844 256.819 100.076L255.018 106.688L254.059 106.427ZM250.282 105.483C249.51 105.273 248.87 104.97 248.363 104.574C247.872 104.169 247.536 103.698 247.353 103.162C247.183 102.629 247.178 102.07 247.338 101.484C247.483 100.952 247.733 100.505 248.089 100.144C248.462 99.7735 248.971 99.533 249.616 99.4227C250.265 99.299 251.069 99.3678 252.027 99.629L255.863 100.674L255.65 101.453L251.835 100.413C250.757 100.12 249.943 100.113 249.395 100.392C248.86 100.676 248.511 101.117 248.347 101.716C248.166 102.382 248.274 102.984 248.671 103.521C249.068 104.058 249.726 104.452 250.645 104.703C251.524 104.942 252.318 104.944 253.026 104.707C253.747 104.475 254.358 104.019 254.857 103.34L254.952 104.095C254.466 104.778 253.821 105.253 253.019 105.521C252.233 105.779 251.321 105.766 250.282 105.483ZM259.133 107.809L261.974 97.3818L262.932 97.643L262.154 100.499L262.141 100.153C262.663 99.3935 263.332 98.8819 264.147 98.6177C264.963 98.3536 265.89 98.363 266.929 98.646L266.663 99.6248C266.623 99.6139 266.583 99.603 266.543 99.5921C266.506 99.5679 266.468 99.5504 266.428 99.5395C265.27 99.2239 264.264 99.3434 263.412 99.8981C262.564 100.439 261.964 101.356 261.612 102.648L260.132 108.081L259.133 107.809ZM269.329 114.835C268.917 114.722 268.533 114.554 268.18 114.329C267.823 114.117 267.55 113.857 267.363 113.548L267.963 112.918C268.298 113.424 268.811 113.771 269.504 113.96C270.103 114.123 270.611 114.068 271.029 113.796C271.46 113.527 271.767 113.053 271.953 112.374L275.065 100.948L276.064 101.22L272.94 112.686C272.701 113.565 272.262 114.203 271.624 114.602C271 115.004 270.235 115.082 269.329 114.835ZM276.255 98.5474C276.029 98.4857 275.858 98.3532 275.741 98.1499C275.625 97.9465 275.596 97.7383 275.654 97.5253C275.716 97.2989 275.848 97.1275 276.052 97.0113C276.255 96.895 276.47 96.8677 276.696 96.9294C276.936 96.9947 277.107 97.1272 277.21 97.3269C277.33 97.5169 277.359 97.7251 277.298 97.9515C277.236 98.1779 277.103 98.3492 276.9 98.4655C276.71 98.5853 276.495 98.6126 276.255 98.5474ZM284.002 114.583L284.65 112.206L284.708 111.836L285.774 107.921C286.039 106.949 285.974 106.137 285.579 105.486C285.198 104.839 284.501 104.377 283.489 104.101C282.77 103.905 282.063 103.849 281.368 103.931C280.69 104.004 280.079 104.174 279.534 104.44L279.231 103.585C279.877 103.26 280.601 103.071 281.402 103.018C282.207 102.951 283.009 103.026 283.808 103.244C285.1 103.596 286.003 104.192 286.518 105.034C287.033 105.875 287.114 106.941 286.762 108.233L284.961 114.845L284.002 114.583ZM280.225 113.64C279.453 113.43 278.813 113.127 278.306 112.731C277.815 112.326 277.479 111.855 277.296 111.319C277.126 110.786 277.121 110.227 277.281 109.641C277.426 109.108 277.676 108.662 278.032 108.301C278.405 107.93 278.914 107.69 279.559 107.58C280.208 107.456 281.011 107.525 281.97 107.786L285.805 108.831L285.593 109.61L281.778 108.57C280.699 108.276 279.886 108.269 279.338 108.549C278.803 108.833 278.454 109.274 278.29 109.873C278.109 110.539 278.217 111.141 278.614 111.678C279.011 112.215 279.669 112.609 280.588 112.859C281.467 113.099 282.261 113.1 282.969 112.864C283.69 112.632 284.301 112.176 284.8 111.496L284.895 112.252C284.409 112.935 283.764 113.41 282.962 113.678C282.176 113.936 281.264 113.923 280.225 113.64ZM297.032 106.846C297.884 107.079 298.578 107.446 299.113 107.95C299.665 108.443 300.024 109.07 300.189 109.831C300.37 110.581 300.329 111.442 300.064 112.414L298.404 118.507L297.406 118.235L299.043 112.222C299.363 111.05 299.306 110.077 298.874 109.301C298.455 108.529 297.713 107.997 296.647 107.707C295.835 107.486 295.084 107.46 294.394 107.63C293.704 107.799 293.117 108.14 292.635 108.653C292.165 109.168 291.816 109.846 291.588 110.685L290.075 116.238L289.076 115.966L291.917 105.539L292.875 105.8L292.086 108.696L292.034 108.339C292.578 107.6 293.28 107.097 294.139 106.831C295.002 106.551 295.967 106.556 297.032 106.846ZM305.531 120.534C304.612 120.284 303.975 119.838 303.62 119.198C303.279 118.561 303.227 117.804 303.467 116.925L306.177 106.977L307.175 107.249L304.493 117.097C304.311 117.763 304.338 118.321 304.573 118.771C304.808 119.221 305.239 119.532 305.865 119.702C306.517 119.88 307.109 119.834 307.64 119.564L307.869 120.377C307.534 120.558 307.157 120.655 306.738 120.67C306.333 120.688 305.93 120.643 305.531 120.534ZM303.405 109.591L303.639 108.732L309.871 110.43L309.637 111.289L303.405 109.591ZM317.047 123.585L317.694 121.208L317.752 120.838L318.819 116.923C319.084 115.951 319.019 115.139 318.624 114.488C318.242 113.84 317.546 113.379 316.533 113.103C315.814 112.907 315.107 112.85 314.413 112.933C313.735 113.006 313.123 113.175 312.579 113.442L312.275 112.587C312.922 112.262 313.645 112.073 314.447 112.02C315.252 111.953 316.054 112.028 316.853 112.246C318.144 112.598 319.048 113.194 319.562 114.035C320.077 114.877 320.159 115.943 319.807 117.235L318.006 123.846L317.047 123.585ZM313.27 122.642C312.497 122.432 311.857 122.129 311.35 121.733C310.86 121.328 310.523 120.857 310.34 120.321C310.171 119.788 310.166 119.229 310.325 118.643C310.47 118.11 310.721 117.663 311.077 117.303C311.449 116.932 311.958 116.692 312.603 116.581C313.252 116.458 314.056 116.526 315.015 116.788L318.85 117.832L318.638 118.611L314.822 117.572C313.744 117.278 312.93 117.271 312.382 117.551C311.847 117.834 311.498 118.276 311.335 118.875C311.153 119.541 311.261 120.142 311.659 120.68C312.056 121.217 312.714 121.611 313.633 121.861C314.512 122.101 315.305 122.102 316.013 121.866C316.734 121.633 317.345 121.177 317.845 120.498L317.939 121.254C317.453 121.936 316.809 122.412 316.006 122.679C315.22 122.938 314.308 122.925 313.27 122.642ZM322.121 124.967L324.961 114.541L325.92 114.802L325.142 117.658L325.129 117.311C325.65 116.552 326.319 116.041 327.135 115.776C327.951 115.512 328.878 115.522 329.917 115.805L329.65 116.783C329.61 116.773 329.57 116.762 329.53 116.751C329.494 116.727 329.456 116.709 329.416 116.698C328.257 116.383 327.252 116.502 326.4 117.057C325.551 117.598 324.951 118.515 324.599 119.806L323.119 125.239L322.121 124.967ZM73.7966 87.48C73.3837 87.3675 73.0006 87.1987 72.647 86.9737C72.2899 86.762 72.0174 86.5018 71.8297 86.1932L72.4306 85.5629C72.7648 86.0688 73.2782 86.4161 73.9706 86.6047C74.5699 86.768 75.0783 86.7133 75.4958 86.4409C75.9267 86.172 76.2346 85.698 76.4196 85.0188L79.5321 73.5932L80.5309 73.8653L77.4075 85.3309C77.1681 86.2098 76.7294 86.8484 76.0916 87.2469C75.4671 87.6489 74.7021 87.7266 73.7966 87.48ZM80.7226 71.1924C80.4962 71.1307 80.3249 70.9982 80.2086 70.7949C80.0923 70.5916 80.0632 70.3834 80.1213 70.1703C80.1829 69.9439 80.3154 69.7726 80.5188 69.6563C80.7221 69.5401 80.9369 69.5128 81.1633 69.5744C81.403 69.6397 81.5743 69.7722 81.6773 69.9719C81.7972 70.162 81.8263 70.3702 81.7646 70.5965C81.703 70.8229 81.5705 70.9942 81.3671 71.1105C81.1771 71.2304 80.9623 71.2577 80.7226 71.1924ZM88.4694 87.2285L89.1169 84.8515L89.1749 84.4811L90.2415 80.566C90.5063 79.5939 90.4413 78.7822 90.0465 78.1311C89.665 77.4836 88.9682 77.022 87.9561 76.7463C87.237 76.5504 86.5301 76.4937 85.8353 76.5762C85.1574 76.6491 84.5461 76.8187 84.0015 77.0852L83.698 76.23C84.3443 75.9054 85.0682 75.7164 85.8695 75.6629C86.6745 75.5961 87.4764 75.6715 88.2754 75.8892C89.5672 76.241 90.4704 76.8376 90.9851 77.6787C91.4998 78.5199 91.5812 79.5863 91.2293 80.878L89.4282 87.4897L88.4694 87.2285ZM84.6923 86.2854C83.92 86.075 83.2801 85.772 82.7728 85.3763C82.2825 84.9709 81.9458 84.5001 81.7629 83.9639C81.5932 83.4313 81.5882 82.8721 81.7478 82.2862C81.8929 81.7535 82.1434 81.3068 82.4992 80.9459C82.8719 80.5754 83.3808 80.335 84.026 80.2246C84.6748 80.101 85.4786 80.1697 86.4374 80.4309L90.2726 81.4757L90.0604 82.2547L86.2452 81.2154C85.1665 80.9215 84.3531 80.9145 83.8048 81.1943C83.2698 81.4777 82.9207 81.919 82.7575 82.5183C82.5761 83.1841 82.684 83.7857 83.0812 84.3231C83.4784 84.8604 84.1364 85.2542 85.0553 85.5045C85.9342 85.744 86.7277 85.7455 87.4357 85.5093C88.1571 85.2767 88.7677 84.8207 89.2674 84.1415L89.3621 84.8968C88.8757 85.5797 88.2312 86.055 87.4287 86.3228C86.6432 86.5808 85.731 86.5684 84.6923 86.2854ZM101.499 79.4914C102.351 79.7236 103.045 80.0914 103.58 80.5948C104.132 81.0885 104.491 81.7155 104.656 82.4756C104.837 83.2261 104.796 84.0874 104.531 85.0595L102.871 91.1518L101.873 90.8798L103.511 84.8673C103.83 83.6955 103.773 82.7216 103.341 81.9458C102.922 81.1736 102.18 80.6424 101.114 80.3522C100.302 80.1309 99.5509 80.1051 98.8609 80.2748C98.171 80.4445 97.5846 80.7854 97.1018 81.2976C96.6322 81.8134 96.2832 82.4908 96.0547 83.3297L94.5419 88.8828L93.5432 88.6107L96.3836 78.1838L97.3424 78.445L96.5534 81.3413L96.5006 80.9836C97.0452 80.2451 97.7471 79.7425 98.6065 79.476C99.4695 79.1961 100.434 79.2012 101.499 79.4914ZM109.998 93.179C109.079 92.9287 108.442 92.4834 108.087 91.8431C107.746 91.2065 107.695 90.4488 107.934 89.5699L110.644 79.6223L111.643 79.8944L108.96 89.7421C108.779 90.4079 108.805 90.9659 109.04 91.4162C109.275 91.8664 109.706 92.1768 110.332 92.3473C110.984 92.525 111.576 92.4788 112.107 92.2088L112.336 93.0221C112.001 93.2026 111.624 93.3002 111.205 93.3148C110.8 93.3331 110.397 93.2878 109.998 93.179ZM107.872 82.236L108.106 81.3771L114.338 83.0748L114.104 83.9338L107.872 82.236ZM121.514 96.2303L122.161 93.8533L122.219 93.4828L123.286 89.5678C123.551 88.5957 123.486 87.784 123.091 87.1329C122.709 86.4854 122.013 86.0238 121.001 85.7481C120.281 85.5522 119.575 85.4955 118.88 85.578C118.202 85.6508 117.591 85.8205 117.046 86.087L116.742 85.2318C117.389 84.9072 118.113 84.7182 118.914 84.6647C119.719 84.5979 120.521 84.6733 121.32 84.8909C122.612 85.2428 123.515 85.8393 124.03 86.6805C124.544 87.5216 124.626 88.5881 124.274 89.8798L122.473 96.4915L121.514 96.2303ZM117.737 95.2872C116.964 95.0768 116.325 94.7738 115.817 94.3781C115.327 93.9727 114.99 93.5019 114.807 92.9657C114.638 92.4331 114.633 91.8739 114.792 91.2879C114.937 90.7553 115.188 90.3085 115.544 89.9477C115.916 89.5772 116.425 89.3367 117.07 89.2264C117.719 89.1027 118.523 89.1715 119.482 89.4327L123.317 90.4775L123.105 91.2565L119.29 90.2172C118.211 89.9233 117.398 89.9163 116.849 90.1961C116.314 90.4795 115.965 90.9208 115.802 91.5201C115.621 92.1859 115.728 92.7875 116.126 93.3248C116.523 93.8622 117.181 94.256 118.1 94.5063C118.979 94.7457 119.772 94.7473 120.48 94.5111C121.202 94.2784 121.812 93.8225 122.312 93.1433L122.407 93.8986C121.92 94.5815 121.276 95.0568 120.473 95.3245C119.688 95.5826 118.775 95.5702 117.737 95.2872ZM126.588 97.6125L129.428 87.1856L130.387 87.4467L129.609 90.3032L129.596 89.9564C130.117 89.1972 130.786 88.6856 131.602 88.4215C132.418 88.1573 133.345 88.1667 134.384 88.4497L134.117 89.4285C134.077 89.4176 134.037 89.4067 133.997 89.3958C133.961 89.3716 133.923 89.3541 133.883 89.3432C132.724 89.0276 131.719 89.1471 130.867 89.7018C130.018 90.2431 129.418 91.1597 129.066 92.4514L127.586 97.8845L126.588 97.6125ZM136.784 104.639C136.371 104.526 135.988 104.357 135.634 104.132C135.277 103.921 135.005 103.66 134.817 103.352L135.418 102.722C135.752 103.227 136.265 103.575 136.958 103.763C137.557 103.927 138.066 103.872 138.483 103.6C138.914 103.331 139.222 102.857 139.407 102.177L142.519 90.7518L143.518 91.0239L140.395 102.49C140.155 103.368 139.717 104.007 139.079 104.406C138.454 104.808 137.689 104.885 136.784 104.639ZM143.71 88.3511C143.484 88.2894 143.312 88.1569 143.196 87.9536C143.08 87.7502 143.051 87.542 143.109 87.329C143.17 87.1026 143.303 86.9313 143.506 86.815C143.709 86.6987 143.924 86.6714 144.151 86.7331C144.39 86.7984 144.562 86.9309 144.665 87.1306C144.785 87.3206 144.814 87.5288 144.752 87.7552C144.69 87.9816 144.558 88.1529 144.354 88.2692C144.164 88.3891 143.95 88.4164 143.71 88.3511ZM151.457 104.387L152.104 102.01L152.162 101.64L153.229 97.7246C153.494 96.7525 153.429 95.9409 153.034 95.2898C152.652 94.6422 151.956 94.1806 150.943 93.9049C150.224 93.7091 149.517 93.6524 148.823 93.7349C148.145 93.8077 147.533 93.9774 146.989 94.2438L146.685 93.3887C147.332 93.0641 148.055 92.875 148.857 92.8215C149.662 92.7547 150.464 92.8302 151.263 93.0478C152.554 93.3997 153.458 93.9962 153.972 94.8374C154.487 95.6785 154.569 96.7449 154.217 98.0367L152.416 104.648L151.457 104.387ZM147.68 103.444C146.907 103.234 146.267 102.931 145.76 102.535C145.27 102.13 144.933 101.659 144.75 101.123C144.581 100.59 144.576 100.031 144.735 99.4448C144.88 98.9122 145.131 98.4654 145.486 98.1046C145.859 97.734 146.368 97.4936 147.013 97.3833C147.662 97.2596 148.466 97.3284 149.425 97.5896L153.26 98.6343L153.048 99.4133L149.232 98.374C148.154 98.0802 147.34 98.0732 146.792 98.3529C146.257 98.6364 145.908 99.0777 145.745 99.6769C145.563 100.343 145.671 100.944 146.069 101.482C146.466 102.019 147.124 102.413 148.043 102.663C148.921 102.903 149.715 102.904 150.423 102.668C151.144 102.435 151.755 101.979 152.255 101.3L152.349 102.055C151.863 102.738 151.219 103.214 150.416 103.481C149.63 103.739 148.718 103.727 147.68 103.444ZM164.486 96.6501C165.339 96.8823 166.032 97.2501 166.568 97.7535C167.12 98.2472 167.478 98.8741 167.643 99.6343C167.825 100.385 167.783 101.246 167.518 102.218L165.859 108.31L164.86 108.038L166.498 102.026C166.817 100.854 166.761 99.8803 166.328 99.1045C165.909 98.3323 165.167 97.8011 164.102 97.5109C163.289 97.2896 162.538 97.2638 161.848 97.4335C161.158 97.6031 160.572 97.9441 160.089 98.4562C159.62 98.9721 159.271 99.6494 159.042 100.488L157.529 106.041L156.531 105.769L159.371 95.3424L160.33 95.6036L159.541 98.5L159.488 98.1423C160.032 97.4037 160.734 96.9012 161.594 96.6346C162.457 96.3547 163.421 96.3599 164.486 96.6501ZM172.985 110.338C172.066 110.087 171.429 109.642 171.075 109.002C170.733 108.365 170.682 107.607 170.921 106.729L173.631 96.781L174.63 97.0531L171.947 106.901C171.766 107.567 171.793 108.125 172.028 108.575C172.263 109.025 172.693 109.335 173.319 109.506C173.971 109.684 174.563 109.637 175.095 109.367L175.324 110.181C174.988 110.361 174.611 110.459 174.193 110.473C173.787 110.492 173.385 110.446 172.985 110.338ZM170.859 99.3947L171.093 98.5358L177.325 100.233L177.091 101.092L170.859 99.3947ZM184.501 113.389L185.149 111.012L185.207 110.641L186.273 106.726C186.538 105.754 186.473 104.943 186.078 104.292C185.697 103.644 185 103.182 183.988 102.907C183.269 102.711 182.562 102.654 181.867 102.737C181.189 102.809 180.578 102.979 180.033 103.246L179.73 102.39C180.376 102.066 181.1 101.877 181.901 101.823C182.706 101.757 183.508 101.832 184.307 102.05C185.599 102.401 186.502 102.998 187.017 103.839C187.532 104.68 187.613 105.747 187.261 107.038L185.46 113.65L184.501 113.389ZM180.724 112.446C179.952 112.235 179.312 111.932 178.805 111.537C178.314 111.131 177.978 110.661 177.795 110.124C177.625 109.592 177.62 109.033 177.78 108.447C177.925 107.914 178.175 107.467 178.531 107.106C178.904 106.736 179.413 106.495 180.058 106.385C180.707 106.261 181.51 106.33 182.469 106.591L186.304 107.636L186.092 108.415L182.277 107.376C181.198 107.082 180.385 107.075 179.837 107.355C179.302 107.638 178.952 108.079 178.789 108.679C178.608 109.345 178.716 109.946 179.113 110.483C179.51 111.021 180.168 111.415 181.087 111.665C181.966 111.904 182.759 111.906 183.468 111.67C184.189 111.437 184.799 110.981 185.299 110.302L185.394 111.057C184.907 111.74 184.263 112.215 183.46 112.483C182.675 112.741 181.763 112.729 180.724 112.446ZM189.575 114.771L192.415 104.344L193.374 104.605L192.596 107.462L192.583 107.115C193.105 106.356 193.773 105.844 194.589 105.58C195.405 105.316 196.332 105.325 197.371 105.608L197.104 106.587C197.064 106.576 197.024 106.565 196.984 106.554C196.948 106.53 196.91 106.513 196.87 106.502C195.712 106.186 194.706 106.306 193.854 106.86C193.006 107.402 192.406 108.318 192.054 109.61L190.574 115.043L189.575 114.771ZM199.771 121.797C199.358 121.685 198.975 121.516 198.622 121.291C198.265 121.079 197.992 120.819 197.804 120.51L198.405 119.88C198.739 120.386 199.253 120.733 199.945 120.922C200.545 121.085 201.053 121.031 201.47 120.758C201.901 120.489 202.209 120.015 202.394 119.336L205.507 107.91L206.506 108.183L203.382 119.648C203.143 120.527 202.704 121.166 202.066 121.564C201.442 121.966 200.677 122.044 199.771 121.797ZM206.697 105.51C206.471 105.448 206.3 105.316 206.183 105.112C206.067 104.909 206.038 104.701 206.096 104.488C206.158 104.261 206.29 104.09 206.493 103.974C206.697 103.857 206.912 103.83 207.138 103.892C207.378 103.957 207.549 104.09 207.652 104.289C207.772 104.479 207.801 104.687 207.739 104.914C207.678 105.14 207.545 105.312 207.342 105.428C207.152 105.548 206.937 105.575 206.697 105.51ZM214.444 121.546L215.092 119.169L215.15 118.798L216.216 114.883C216.481 113.911 216.416 113.1 216.021 112.448C215.64 111.801 214.943 111.339 213.931 111.064C213.212 110.868 212.505 110.811 211.81 110.894C211.132 110.966 210.521 111.136 209.976 111.402L209.673 110.547C210.319 110.223 211.043 110.034 211.844 109.98C212.649 109.913 213.451 109.989 214.25 110.206C215.542 110.558 216.445 111.155 216.96 111.996C217.474 112.837 217.556 113.904 217.204 115.195L215.403 121.807L214.444 121.546ZM210.667 120.603C209.895 120.392 209.255 120.089 208.747 119.694C208.257 119.288 207.92 118.817 207.738 118.281C207.568 117.749 207.563 117.189 207.722 116.603C207.868 116.071 208.118 115.624 208.474 115.263C208.847 114.893 209.356 114.652 210.001 114.542C210.649 114.418 211.453 114.487 212.412 114.748L216.247 115.793L216.035 116.572L212.22 115.533C211.141 115.239 210.328 115.232 209.779 115.512C209.244 115.795 208.895 116.236 208.732 116.836C208.551 117.501 208.659 118.103 209.056 118.64C209.453 119.178 210.111 119.572 211.03 119.822C211.909 120.061 212.702 120.063 213.41 119.827C214.132 119.594 214.742 119.138 215.242 118.459L215.337 119.214C214.85 119.897 214.206 120.372 213.403 120.64C212.618 120.898 211.706 120.886 210.667 120.603ZM227.474 113.809C228.326 114.041 229.02 114.409 229.555 114.912C230.107 115.406 230.465 116.033 230.63 116.793C230.812 117.543 230.771 118.405 230.506 119.377L228.846 125.469L227.847 125.197L229.485 119.185C229.804 118.013 229.748 117.039 229.316 116.263C228.896 115.491 228.154 114.96 227.089 114.67C226.277 114.448 225.526 114.422 224.836 114.592C224.146 114.762 223.559 115.103 223.076 115.615C222.607 116.131 222.258 116.808 222.029 117.647L220.517 123.2L219.518 122.928L222.358 112.501L223.317 112.762L222.528 115.659L222.475 115.301C223.02 114.562 223.722 114.06 224.581 113.793C225.444 113.513 226.408 113.519 227.474 113.809ZM235.972 127.496C235.054 127.246 234.417 126.801 234.062 126.16C233.72 125.524 233.669 124.766 233.909 123.887L236.618 113.94L237.617 114.212L234.935 124.059C234.753 124.725 234.78 125.283 235.015 125.733C235.25 126.184 235.68 126.494 236.306 126.665C236.959 126.842 237.551 126.796 238.082 126.526L238.311 127.339C237.976 127.52 237.599 127.617 237.18 127.632C236.774 127.65 236.372 127.605 235.972 127.496ZM233.847 116.553L234.081 115.694L240.313 117.392L240.079 118.251L233.847 116.553ZM247.489 130.548L248.136 128.171L248.194 127.8L249.261 123.885C249.525 122.913 249.46 122.101 249.066 121.45C248.684 120.803 247.987 120.341 246.975 120.065C246.256 119.869 245.549 119.813 244.854 119.895C244.177 119.968 243.565 120.138 243.021 120.404L242.717 119.549C243.363 119.225 244.087 119.035 244.889 118.982C245.694 118.915 246.496 118.991 247.295 119.208C248.586 119.56 249.489 120.157 250.004 120.998C250.519 121.839 250.6 122.905 250.248 124.197L248.447 130.809L247.489 130.548ZM243.711 129.605C242.939 129.394 242.299 129.091 241.792 128.695C241.302 128.29 240.965 127.819 240.782 127.283C240.612 126.75 240.607 126.191 240.767 125.605C240.912 125.073 241.163 124.626 241.518 124.265C241.891 123.894 242.4 123.654 243.045 123.544C243.694 123.42 244.498 123.489 245.457 123.75L249.292 124.795L249.079 125.574L245.264 124.534C244.186 124.241 243.372 124.234 242.824 124.513C242.289 124.797 241.94 125.238 241.777 125.837C241.595 126.503 241.703 127.105 242.1 127.642C242.498 128.179 243.156 128.573 244.074 128.824C244.953 129.063 245.747 129.065 246.455 128.828C247.176 128.596 247.787 128.14 248.287 127.461L248.381 128.216C247.895 128.899 247.25 129.374 246.448 129.642C245.662 129.9 244.75 129.887 243.711 129.605ZM252.562 131.93L255.403 121.503L256.362 121.764L255.583 124.62L255.571 124.274C256.092 123.515 256.761 123.003 257.577 122.739C258.392 122.475 259.32 122.484 260.358 122.767L260.092 123.746C260.052 123.735 260.012 123.724 259.972 123.713C259.935 123.689 259.897 123.671 259.857 123.66C258.699 123.345 257.694 123.464 256.842 124.019C255.993 124.56 255.393 125.477 255.041 126.769L253.561 132.202L252.562 131.93ZM262.759 138.956C262.346 138.843 261.963 138.675 261.609 138.45C261.252 138.238 260.979 137.978 260.792 137.669L261.393 137.039C261.727 137.545 262.24 137.892 262.933 138.081C263.532 138.244 264.04 138.189 264.458 137.917C264.889 137.648 265.197 137.174 265.382 136.495L268.494 125.069L269.493 125.341L266.369 136.807C266.13 137.686 265.691 138.324 265.054 138.723C264.429 139.125 263.664 139.203 262.759 138.956ZM269.685 122.668C269.458 122.607 269.287 122.474 269.171 122.271C269.054 122.068 269.025 121.859 269.083 121.646C269.145 121.42 269.277 121.249 269.481 121.132C269.684 121.016 269.899 120.989 270.125 121.05C270.365 121.116 270.536 121.248 270.639 121.448C270.759 121.638 270.788 121.846 270.727 122.072C270.665 122.299 270.532 122.47 270.329 122.586C270.139 122.706 269.924 122.734 269.685 122.668ZM277.431 138.704L278.079 136.327L278.137 135.957L279.203 132.042C279.468 131.07 279.403 130.258 279.008 129.607C278.627 128.96 277.93 128.498 276.918 128.222C276.199 128.026 275.492 127.97 274.797 128.052C274.119 128.125 273.508 128.295 272.963 128.561L272.66 127.706C273.306 127.381 274.03 127.192 274.831 127.139C275.636 127.072 276.438 127.147 277.237 127.365C278.529 127.717 279.432 128.314 279.947 129.155C280.462 129.996 280.543 131.062 280.191 132.354L278.39 138.966L277.431 138.704ZM273.654 137.761C272.882 137.551 272.242 137.248 271.735 136.852C271.244 136.447 270.908 135.976 270.725 135.44C270.555 134.907 270.55 134.348 270.71 133.762C270.855 133.229 271.105 132.783 271.461 132.422C271.834 132.051 272.343 131.811 272.988 131.701C273.637 131.577 274.441 131.646 275.399 131.907L279.235 132.952L279.022 133.731L275.207 132.691C274.128 132.397 273.315 132.39 272.767 132.67C272.232 132.954 271.883 133.395 271.719 133.994C271.538 134.66 271.646 135.262 272.043 135.799C272.44 136.336 273.098 136.73 274.017 136.98C274.896 137.22 275.69 137.221 276.398 136.985C277.119 136.753 277.73 136.297 278.229 135.617L278.324 136.373C277.838 137.056 277.193 137.531 276.391 137.799C275.605 138.057 274.693 138.044 273.654 137.761ZM290.461 130.967C291.313 131.2 292.007 131.567 292.542 132.071C293.094 132.565 293.453 133.191 293.618 133.952C293.799 134.702 293.758 135.563 293.493 136.535L291.833 142.628L290.835 142.356L292.473 136.343C292.792 135.171 292.735 134.198 292.303 133.422C291.884 132.65 291.142 132.118 290.076 131.828C289.264 131.607 288.513 131.581 287.823 131.751C287.133 131.92 286.547 132.261 286.064 132.774C285.594 133.289 285.245 133.967 285.017 134.806L283.504 140.359L282.505 140.087L285.346 129.66L286.304 129.921L285.515 132.817L285.463 132.46C286.007 131.721 286.709 131.218 287.568 130.952C288.431 130.672 289.396 130.677 290.461 130.967ZM298.96 144.655C298.041 144.405 297.404 143.959 297.049 143.319C296.708 142.682 296.657 141.925 296.896 141.046L299.606 131.098L300.605 131.37L297.922 141.218C297.741 141.884 297.767 142.442 298.002 142.892C298.237 143.342 298.668 143.653 299.294 143.823C299.946 144.001 300.538 143.955 301.069 143.685L301.298 144.498C300.963 144.679 300.586 144.776 300.167 144.791C299.762 144.809 299.359 144.764 298.96 144.655ZM296.834 133.712L297.068 132.853L303.3 134.551L303.066 135.41L296.834 133.712ZM310.476 147.706L311.123 145.329L311.181 144.959L312.248 141.044C312.513 140.072 312.448 139.26 312.053 138.609C311.671 137.961 310.975 137.5 309.963 137.224C309.243 137.028 308.536 136.971 307.842 137.054C307.164 137.127 306.553 137.296 306.008 137.563L305.704 136.708C306.351 136.383 307.075 136.194 307.876 136.141C308.681 136.074 309.483 136.149 310.282 136.367C311.574 136.719 312.477 137.315 312.991 138.156C313.506 138.998 313.588 140.064 313.236 141.356L311.435 147.967L310.476 147.706ZM306.699 146.763C305.926 146.553 305.287 146.25 304.779 145.854C304.289 145.449 303.952 144.978 303.769 144.442C303.6 143.909 303.595 143.35 303.754 142.764C303.899 142.231 304.15 141.784 304.506 141.424C304.878 141.053 305.387 140.813 306.032 140.702C306.681 140.579 307.485 140.647 308.444 140.909L312.279 141.953L312.067 142.732L308.252 141.693C307.173 141.399 306.359 141.392 305.811 141.672C305.276 141.955 304.927 142.397 304.764 142.996C304.583 143.662 304.69 144.263 305.088 144.801C305.485 145.338 306.143 145.732 307.062 145.982C307.941 146.222 308.734 146.223 309.442 145.987C310.164 145.754 310.774 145.298 311.274 144.619L311.368 145.375C310.882 146.057 310.238 146.533 309.435 146.8C308.65 147.059 307.737 147.046 306.699 146.763ZM315.55 149.088L318.39 138.662L319.349 138.923L318.571 141.779L318.558 141.432C319.079 140.673 319.748 140.162 320.564 139.897C321.38 139.633 322.307 139.643 323.346 139.926L323.079 140.904C323.039 140.894 322.999 140.883 322.959 140.872C322.923 140.848 322.885 140.83 322.845 140.819C321.686 140.504 320.681 140.623 319.829 141.178C318.98 141.719 318.38 142.636 318.028 143.927L316.548 149.36L315.55 149.088ZM67.2257 111.601C66.8128 111.489 66.4297 111.32 66.0761 111.095C65.719 110.883 65.4465 110.623 65.2588 110.314L65.8596 109.684C66.1939 110.19 66.7072 110.537 67.3997 110.726C67.999 110.889 68.5074 110.834 68.9249 110.562C69.3558 110.293 69.6637 109.819 69.8487 109.14L72.9612 97.7142L73.96 97.9863L70.8366 109.452C70.5971 110.331 70.1585 110.969 69.5207 111.368C68.8962 111.77 68.1312 111.848 67.2257 111.601ZM74.1517 95.3134C73.9253 95.2517 73.7539 95.1192 73.6377 94.9159C73.5214 94.7126 73.4923 94.5044 73.5503 94.2913C73.612 94.0649 73.7445 93.8936 73.9478 93.7773C74.1512 93.6611 74.366 93.6338 74.5924 93.6955C74.8321 93.7607 75.0034 93.8932 75.1064 94.093C75.2263 94.283 75.2554 94.4912 75.1937 94.7175C75.1321 94.9439 74.9996 95.1153 74.7962 95.2315C74.6062 95.3514 74.3914 95.3787 74.1517 95.3134ZM81.8985 111.35L82.546 108.973L82.604 108.602L83.6705 104.687C83.9354 103.715 83.8704 102.903 83.4756 102.252C83.0941 101.605 82.3973 101.143 81.3852 100.867C80.6661 100.671 79.9592 100.615 79.2644 100.697C78.5865 100.77 77.9752 100.94 77.4306 101.206L77.1271 100.351C77.7734 100.026 78.4972 99.8374 79.2986 99.7839C80.1036 99.7171 80.9055 99.7925 81.7045 100.01C82.9962 100.362 83.8995 100.959 84.4142 101.8C84.9289 102.641 85.0103 103.707 84.6584 104.999L82.8573 111.611L81.8985 111.35ZM78.1214 110.406C77.3491 110.196 76.7092 109.893 76.2019 109.497C75.7115 109.092 75.3749 108.621 75.1919 108.085C75.0223 107.552 75.0173 106.993 75.1769 106.407C75.322 105.875 75.5725 105.428 75.9283 105.067C76.301 104.696 76.8099 104.456 77.4551 104.346C78.1039 104.222 78.9077 104.291 79.8665 104.552L83.7017 105.597L83.4895 106.376L79.6743 105.336C78.5956 105.043 77.7821 105.036 77.2339 105.315C76.6989 105.599 76.3498 106.04 76.1866 106.639C76.0052 107.305 76.1131 107.907 76.5103 108.444C76.9075 108.981 77.5655 109.375 78.4844 109.626C79.3633 109.865 80.1567 109.867 80.8648 109.63C81.5862 109.398 82.1968 108.942 82.6965 108.263L82.7912 109.018C82.3047 109.701 81.6603 110.176 80.8578 110.444C80.0723 110.702 79.1601 110.689 78.1214 110.406ZM94.9281 103.612C95.7804 103.845 96.4741 104.212 97.0093 104.716C97.5614 105.21 97.9199 105.836 98.0847 106.597C98.2665 107.347 98.225 108.208 97.9602 109.181L96.3006 115.273L95.3018 115.001L96.9397 108.988C97.2589 107.816 97.2024 106.843 96.77 106.067C96.3509 105.295 95.6087 104.763 94.5434 104.473C93.7311 104.252 92.98 104.226 92.29 104.396C91.6001 104.565 91.0137 104.906 90.5308 105.419C90.0613 105.934 89.7123 106.612 89.4837 107.451L87.971 113.004L86.9723 112.732L89.8127 102.305L90.7715 102.566L89.9825 105.462L89.9297 105.105C90.4743 104.366 91.1762 103.864 92.0356 103.597C92.8986 103.317 93.8628 103.322 94.9281 103.612ZM103.427 117.3C102.508 117.05 101.871 116.604 101.516 115.964C101.175 115.328 101.124 114.57 101.363 113.691L104.073 103.743L105.072 104.015L102.389 113.863C102.208 114.529 102.234 115.087 102.469 115.537C102.704 115.987 103.135 116.298 103.761 116.468C104.413 116.646 105.005 116.6 105.536 116.33L105.766 117.143C105.43 117.324 105.053 117.421 104.634 117.436C104.229 117.454 103.826 117.409 103.427 117.3ZM101.301 106.357L101.535 105.498L107.767 107.196L107.533 108.055L101.301 106.357ZM114.943 120.351L115.59 117.974L115.648 117.604L116.715 113.689C116.98 112.717 116.915 111.905 116.52 111.254C116.139 110.606 115.442 110.145 114.43 109.869C113.711 109.673 113.004 109.617 112.309 109.699C111.631 109.772 111.02 109.941 110.475 110.208L110.172 109.353C110.818 109.028 111.542 108.839 112.343 108.786C113.148 108.719 113.95 108.794 114.749 109.012C116.041 109.364 116.944 109.96 117.459 110.802C117.973 111.643 118.055 112.709 117.703 114.001L115.902 120.612L114.943 120.351ZM111.166 119.408C110.394 119.198 109.754 118.895 109.246 118.499C108.756 118.094 108.419 117.623 108.236 117.087C108.067 116.554 108.062 115.995 108.221 115.409C108.366 114.876 108.617 114.43 108.973 114.069C109.345 113.698 109.854 113.458 110.5 113.347C111.148 113.224 111.952 113.293 112.911 113.554L116.746 114.598L116.534 115.377L112.719 114.338C111.64 114.044 110.827 114.037 110.278 114.317C109.743 114.601 109.394 115.042 109.231 115.641C109.05 116.307 109.158 116.908 109.555 117.446C109.952 117.983 110.61 118.377 111.529 118.627C112.408 118.867 113.201 118.868 113.909 118.632C114.631 118.399 115.241 117.944 115.741 117.264L115.836 118.02C115.349 118.702 114.705 119.178 113.902 119.446C113.117 119.704 112.205 119.691 111.166 119.408ZM120.017 121.733L122.857 111.307L123.816 111.568L123.038 114.424L123.025 114.077C123.547 113.318 124.215 112.807 125.031 112.542C125.847 112.278 126.774 112.288 127.813 112.571L127.546 113.549C127.506 113.539 127.466 113.528 127.426 113.517C127.39 113.493 127.352 113.475 127.312 113.464C126.153 113.149 125.148 113.268 124.296 113.823C123.448 114.364 122.847 115.281 122.496 116.572L121.015 122.006L120.017 121.733ZM130.213 128.76C129.8 128.647 129.417 128.478 129.063 128.253C128.706 128.042 128.434 127.781 128.246 127.473L128.847 126.843C129.181 127.348 129.695 127.696 130.387 127.884C130.986 128.048 131.495 127.993 131.912 127.721C132.343 127.452 132.651 126.978 132.836 126.299L135.949 114.873L136.947 115.145L133.824 126.611C133.584 127.489 133.146 128.128 132.508 128.527C131.884 128.929 131.119 129.006 130.213 128.76ZM137.139 112.472C136.913 112.41 136.741 112.278 136.625 112.075C136.509 111.871 136.48 111.663 136.538 111.45C136.599 111.224 136.732 111.052 136.935 110.936C137.139 110.82 137.353 110.792 137.58 110.854C137.819 110.919 137.991 111.052 138.094 111.252C138.214 111.442 138.243 111.65 138.181 111.876C138.119 112.103 137.987 112.274 137.784 112.39C137.594 112.51 137.379 112.537 137.139 112.472ZM144.886 128.508L145.533 126.131L145.591 125.761L146.658 121.846C146.923 120.874 146.858 120.062 146.463 119.411C146.081 118.763 145.385 118.302 144.373 118.026C143.653 117.83 142.946 117.773 142.252 117.856C141.574 117.929 140.963 118.098 140.418 118.365L140.114 117.51C140.761 117.185 141.485 116.996 142.286 116.943C143.091 116.876 143.893 116.951 144.692 117.169C145.984 117.521 146.887 118.117 147.401 118.958C147.916 119.8 147.998 120.866 147.646 122.158L145.845 128.769L144.886 128.508ZM141.109 127.565C140.336 127.355 139.697 127.052 139.189 126.656C138.699 126.251 138.362 125.78 138.179 125.244C138.01 124.711 138.005 124.152 138.164 123.566C138.309 123.033 138.56 122.586 138.916 122.226C139.288 121.855 139.797 121.615 140.442 121.504C141.091 121.381 141.895 121.449 142.854 121.711L146.689 122.755L146.477 123.534L142.662 122.495C141.583 122.201 140.769 122.194 140.221 122.474C139.686 122.757 139.337 123.199 139.174 123.798C138.993 124.464 139.1 125.065 139.498 125.603C139.895 126.14 140.553 126.534 141.472 126.784C142.351 127.024 143.144 127.025 143.852 126.789C144.574 126.556 145.184 126.1 145.684 125.421L145.778 126.176C145.292 126.859 144.648 127.335 143.845 127.602C143.06 127.86 142.147 127.848 141.109 127.565ZM157.915 120.771C158.768 121.003 159.461 121.371 159.997 121.874C160.549 122.368 160.907 122.995 161.072 123.755C161.254 124.506 161.212 125.367 160.948 126.339L159.288 132.432L158.289 132.159L159.927 126.147C160.246 124.975 160.19 124.001 159.757 123.225C159.338 122.453 158.596 121.922 157.531 121.632C156.718 121.411 155.967 121.385 155.277 121.554C154.587 121.724 154.001 122.065 153.518 122.577C153.049 123.093 152.7 123.77 152.471 124.609L150.958 130.162L149.96 129.89L152.8 119.463L153.759 119.725L152.97 122.621L152.917 122.263C153.462 121.525 154.164 121.022 155.023 120.756C155.886 120.476 156.85 120.481 157.915 120.771ZM166.414 134.459C165.495 134.208 164.858 133.763 164.504 133.123C164.162 132.486 164.111 131.728 164.35 130.85L167.06 120.902L168.059 121.174L165.376 131.022C165.195 131.688 165.222 132.246 165.457 132.696C165.692 133.146 166.122 133.456 166.748 133.627C167.401 133.805 167.992 133.759 168.524 133.488L168.753 134.302C168.418 134.482 168.041 134.58 167.622 134.594C167.216 134.613 166.814 134.567 166.414 134.459ZM164.288 123.516L164.522 122.657L170.755 124.354L170.521 125.213L164.288 123.516ZM177.93 137.51L178.578 135.133L178.636 134.763L179.702 130.847C179.967 129.875 179.902 129.064 179.507 128.413C179.126 127.765 178.429 127.303 177.417 127.028C176.698 126.832 175.991 126.775 175.296 126.858C174.618 126.93 174.007 127.1 173.462 127.367L173.159 126.511C173.805 126.187 174.529 125.998 175.33 125.944C176.135 125.878 176.937 125.953 177.736 126.171C179.028 126.522 179.931 127.119 180.446 127.96C180.961 128.801 181.042 129.868 180.69 131.159L178.889 137.771L177.93 137.51ZM174.153 136.567C173.381 136.356 172.741 136.053 172.234 135.658C171.743 135.252 171.407 134.782 171.224 134.245C171.054 133.713 171.049 133.154 171.209 132.568C171.354 132.035 171.604 131.588 171.96 131.227C172.333 130.857 172.842 130.616 173.487 130.506C174.136 130.382 174.939 130.451 175.898 130.712L179.733 131.757L179.521 132.536L175.706 131.497C174.627 131.203 173.814 131.196 173.266 131.476C172.731 131.759 172.382 132.2 172.218 132.8C172.037 133.466 172.145 134.067 172.542 134.604C172.939 135.142 173.597 135.536 174.516 135.786C175.395 136.025 176.189 136.027 176.897 135.791C177.618 135.558 178.229 135.102 178.728 134.423L178.823 135.178C178.337 135.861 177.692 136.336 176.89 136.604C176.104 136.862 175.192 136.85 174.153 136.567ZM183.004 138.892L185.844 128.465L186.803 128.726L186.025 131.583L186.012 131.236C186.534 130.477 187.203 129.965 188.018 129.701C188.834 129.437 189.761 129.446 190.8 129.729L190.533 130.708C190.493 130.697 190.454 130.686 190.414 130.675C190.377 130.651 190.339 130.634 190.299 130.623C189.141 130.307 188.135 130.427 187.283 130.981C186.435 131.523 185.835 132.439 185.483 133.731L184.003 139.164L183.004 138.892ZM193.2 145.918C192.788 145.806 192.404 145.637 192.051 145.412C191.694 145.2 191.421 144.94 191.233 144.631L191.834 144.001C192.169 144.507 192.682 144.854 193.374 145.043C193.974 145.206 194.482 145.152 194.9 144.879C195.33 144.61 195.638 144.136 195.823 143.457L198.936 132.032L199.935 132.304L196.811 143.769C196.572 144.648 196.133 145.287 195.495 145.685C194.871 146.087 194.106 146.165 193.2 145.918ZM200.126 129.631C199.9 129.569 199.729 129.437 199.612 129.233C199.496 129.03 199.467 128.822 199.525 128.609C199.587 128.382 199.719 128.211 199.923 128.095C200.126 127.978 200.341 127.951 200.567 128.013C200.807 128.078 200.978 128.211 201.081 128.41C201.201 128.6 201.23 128.808 201.168 129.035C201.107 129.261 200.974 129.433 200.771 129.549C200.581 129.669 200.366 129.696 200.126 129.631ZM207.873 145.667L208.521 143.29L208.579 142.919L209.645 139.004C209.91 138.032 209.845 137.221 209.45 136.569C209.069 135.922 208.372 135.46 207.36 135.185C206.641 134.989 205.934 134.932 205.239 135.015C204.561 135.087 203.95 135.257 203.405 135.523L203.102 134.668C203.748 134.344 204.472 134.155 205.273 134.101C206.078 134.034 206.88 134.11 207.679 134.327C208.971 134.679 209.874 135.276 210.389 136.117C210.904 136.958 210.985 138.025 210.633 139.316L208.832 145.928L207.873 145.667ZM204.096 144.724C203.324 144.513 202.684 144.21 202.177 143.815C201.686 143.409 201.35 142.938 201.167 142.402C200.997 141.87 200.992 141.31 201.152 140.724C201.297 140.192 201.547 139.745 201.903 139.384C202.276 139.014 202.785 138.773 203.43 138.663C204.079 138.539 204.882 138.608 205.841 138.869L209.676 139.914L209.464 140.693L205.649 139.654C204.57 139.36 203.757 139.353 203.209 139.633C202.674 139.916 202.324 140.357 202.161 140.957C201.98 141.622 202.088 142.224 202.485 142.761C202.882 143.299 203.54 143.693 204.459 143.943C205.338 144.182 206.131 144.184 206.839 143.948C207.561 143.715 208.171 143.259 208.671 142.58L208.766 143.335C208.279 144.018 207.635 144.493 206.832 144.761C206.047 145.019 205.135 145.007 204.096 144.724ZM220.903 137.93C221.755 138.162 222.449 138.53 222.984 139.033C223.536 139.527 223.895 140.154 224.059 140.914C224.241 141.664 224.2 142.526 223.935 143.498L222.275 149.59L221.276 149.318L222.914 143.306C223.234 142.134 223.177 141.16 222.745 140.384C222.326 139.612 221.583 139.081 220.518 138.791C219.706 138.569 218.955 138.543 218.265 138.713C217.575 138.883 216.988 139.224 216.506 139.736C216.036 140.252 215.687 140.929 215.458 141.768L213.946 147.321L212.947 147.049L215.787 136.622L216.746 136.883L215.957 139.78L215.904 139.422C216.449 138.683 217.151 138.181 218.01 137.914C218.873 137.634 219.837 137.64 220.903 137.93ZM229.401 151.617C228.483 151.367 227.846 150.922 227.491 150.281C227.149 149.645 227.098 148.887 227.338 148.008L230.048 138.061L231.046 138.333L228.364 148.18C228.182 148.846 228.209 149.404 228.444 149.854C228.679 150.305 229.109 150.615 229.735 150.786C230.388 150.963 230.98 150.917 231.511 150.647L231.74 151.46C231.405 151.641 231.028 151.738 230.609 151.753C230.203 151.771 229.801 151.726 229.401 151.617ZM227.276 140.674L227.51 139.815L233.742 141.513L233.508 142.372L227.276 140.674ZM240.918 154.669L241.565 152.292L241.623 151.921L242.69 148.006C242.954 147.034 242.889 146.222 242.495 145.571C242.113 144.924 241.416 144.462 240.404 144.186C239.685 143.99 238.978 143.934 238.283 144.016C237.606 144.089 236.994 144.259 236.45 144.525L236.146 143.67C236.793 143.346 237.516 143.156 238.318 143.103C239.123 143.036 239.925 143.112 240.724 143.329C242.015 143.681 242.919 144.278 243.433 145.119C243.948 145.96 244.029 147.026 243.678 148.318L241.876 154.93L240.918 154.669ZM237.141 153.726C236.368 153.515 235.728 153.212 235.221 152.816C234.731 152.411 234.394 151.94 234.211 151.404C234.041 150.871 234.036 150.312 234.196 149.726C234.341 149.194 234.592 148.747 234.947 148.386C235.32 148.015 235.829 147.775 236.474 147.665C237.123 147.541 237.927 147.61 238.886 147.871L242.721 148.916L242.509 149.695L238.693 148.655C237.615 148.362 236.801 148.355 236.253 148.634C235.718 148.918 235.369 149.359 235.206 149.958C235.024 150.624 235.132 151.226 235.529 151.763C235.927 152.301 236.585 152.694 237.503 152.945C238.382 153.184 239.176 153.186 239.884 152.949C240.605 152.717 241.216 152.261 241.716 151.582L241.81 152.337C241.324 153.02 240.679 153.495 239.877 153.763C239.091 154.021 238.179 154.008 237.141 153.726ZM245.991 156.051L248.832 145.624L249.791 145.885L249.012 148.741L249 148.395C249.521 147.636 250.19 147.124 251.006 146.86C251.821 146.596 252.749 146.605 253.787 146.888L253.521 147.867C253.481 147.856 253.441 147.845 253.401 147.834C253.365 147.81 253.326 147.792 253.286 147.782C252.128 147.466 251.123 147.585 250.271 148.14C249.422 148.681 248.822 149.598 248.47 150.89L246.99 156.323L245.991 156.051ZM256.188 163.077C255.775 162.964 255.392 162.796 255.038 162.571C254.681 162.359 254.409 162.099 254.221 161.79L254.822 161.16C255.156 161.666 255.669 162.013 256.362 162.202C256.961 162.365 257.469 162.31 257.887 162.038C258.318 161.769 258.626 161.295 258.811 160.616L261.923 149.19L262.922 149.462L259.799 160.928C259.559 161.807 259.12 162.445 258.483 162.844C257.858 163.246 257.093 163.324 256.188 163.077ZM263.114 146.789C262.887 146.728 262.716 146.595 262.6 146.392C262.483 146.189 262.454 145.98 262.512 145.767C262.574 145.541 262.706 145.37 262.91 145.253C263.113 145.137 263.328 145.11 263.554 145.171C263.794 145.237 263.965 145.369 264.068 145.569C264.188 145.759 264.217 145.967 264.156 146.193C264.094 146.42 263.962 146.591 263.758 146.707C263.568 146.827 263.353 146.855 263.114 146.789ZM270.86 162.825L271.508 160.448L271.566 160.078L272.633 156.163C272.897 155.191 272.832 154.379 272.438 153.728C272.056 153.081 271.359 152.619 270.347 152.343C269.628 152.147 268.921 152.091 268.226 152.173C267.548 152.246 266.937 152.416 266.393 152.682L266.089 151.827C266.735 151.502 267.459 151.313 268.261 151.26C269.066 151.193 269.868 151.268 270.666 151.486C271.958 151.838 272.861 152.435 273.376 153.276C273.891 154.117 273.972 155.183 273.62 156.475L271.819 163.087L270.86 162.825ZM267.083 161.882C266.311 161.672 265.671 161.369 265.164 160.973C264.674 160.568 264.337 160.097 264.154 159.561C263.984 159.028 263.979 158.469 264.139 157.883C264.284 157.35 264.534 156.904 264.89 156.543C265.263 156.172 265.772 155.932 266.417 155.822C267.066 155.698 267.87 155.767 268.828 156.028L272.664 157.073L272.451 157.852L268.636 156.812C267.558 156.518 266.744 156.511 266.196 156.791C265.661 157.075 265.312 157.516 265.149 158.115C264.967 158.781 265.075 159.383 265.472 159.92C265.869 160.457 266.527 160.851 267.446 161.101C268.325 161.341 269.119 161.343 269.827 161.106C270.548 160.874 271.159 160.418 271.658 159.738L271.753 160.494C271.267 161.177 270.622 161.652 269.82 161.92C269.034 162.178 268.122 162.165 267.083 161.882ZM283.89 155.088C284.742 155.321 285.436 155.688 285.971 156.192C286.523 156.686 286.882 157.312 287.047 158.073C287.229 158.823 287.187 159.684 286.922 160.656L285.263 166.749L284.264 166.477L285.902 160.464C286.221 159.292 286.164 158.319 285.732 157.543C285.313 156.771 284.571 156.239 283.505 155.949C282.693 155.728 281.942 155.702 281.252 155.872C280.562 156.041 279.976 156.382 279.493 156.895C279.023 157.41 278.674 158.088 278.446 158.927L276.933 164.48L275.934 164.208L278.775 153.781L279.733 154.042L278.944 156.938L278.892 156.581C279.436 155.842 280.138 155.339 280.998 155.073C281.861 154.793 282.825 154.798 283.89 155.088ZM292.389 168.776C291.47 168.526 290.833 168.08 290.478 167.44C290.137 166.803 290.086 166.046 290.325 165.167L293.035 155.219L294.034 155.491L291.351 165.339C291.17 166.005 291.196 166.563 291.431 167.013C291.666 167.463 292.097 167.774 292.723 167.944C293.375 168.122 293.967 168.076 294.498 167.806L294.727 168.619C294.392 168.8 294.015 168.897 293.596 168.912C293.191 168.93 292.788 168.885 292.389 168.776ZM290.263 157.833L290.497 156.974L296.729 158.672L296.495 159.531L290.263 157.833ZM303.905 171.827L304.552 169.45L304.61 169.08L305.677 165.165C305.942 164.193 305.877 163.381 305.482 162.73C305.1 162.082 304.404 161.621 303.392 161.345C302.673 161.149 301.966 161.092 301.271 161.175C300.593 161.248 299.982 161.417 299.437 161.684L299.134 160.829C299.78 160.504 300.504 160.315 301.305 160.262C302.11 160.195 302.912 160.27 303.711 160.488C305.003 160.84 305.906 161.436 306.421 162.277C306.935 163.119 307.017 164.185 306.665 165.477L304.864 172.088L303.905 171.827ZM300.128 170.884C299.356 170.674 298.716 170.371 298.208 169.975C297.718 169.57 297.381 169.099 297.198 168.563C297.029 168.03 297.024 167.471 297.183 166.885C297.328 166.352 297.579 165.905 297.935 165.545C298.307 165.174 298.816 164.934 299.462 164.823C300.11 164.7 300.914 164.768 301.873 165.03L305.708 166.074L305.496 166.853L301.681 165.814C300.602 165.52 299.789 165.513 299.24 165.793C298.705 166.076 298.356 166.518 298.193 167.117C298.012 167.783 298.12 168.384 298.517 168.922C298.914 169.459 299.572 169.853 300.491 170.103C301.37 170.343 302.163 170.344 302.871 170.108C303.593 169.875 304.203 169.419 304.703 168.74L304.798 169.496C304.311 170.178 303.667 170.654 302.864 170.921C302.079 171.18 301.167 171.167 300.128 170.884ZM308.979 173.209L311.819 162.783L312.778 163.044L312 165.9L311.987 165.553C312.509 164.794 313.177 164.283 313.993 164.018C314.809 163.754 315.736 163.764 316.775 164.047L316.508 165.025C316.468 165.015 316.428 165.004 316.388 164.993C316.352 164.969 316.314 164.951 316.274 164.94C315.115 164.625 314.11 164.744 313.258 165.299C312.41 165.84 311.809 166.757 311.458 168.048L309.977 173.482L308.979 173.209Z" fill="#16141F"/>
</svg>
