<svg width="252" height="205" viewBox="0 0 252 205" fill="none" xmlns="http://www.w3.org/2000/svg">
<path d="M25.7563 130.122L13.8735 66.0035C16.8442 49.9735 1.00049 62.9976 1.00049 54.9828C1.00049 45.4827 21.4797 57.6033 23.5992 51.1947C23.7149 50.845 23.7758 50.4401 23.7758 49.9735C23.7758 40.9565 19.8149 47.9698 19.8149 41.9587C19.8149 38.4625 23.8346 36.322 27.1981 34.9457C25.3972 31.9401 21.7954 25.3279 21.7954 22.9234C21.7954 19.9179 27.7368 20.9197 26.7465 22.9234C25.9543 24.5264 28.4519 30.9383 29.7997 33.9438C30.9366 33.5132 31.6977 33.1955 31.6977 32.942C31.6977 31.9401 35.6586 28.9346 34.6684 25.929C33.6782 22.9234 33.6782 18.916 35.6586 18.916C37.6391 18.916 39.6196 14.9092 39.6196 11.9036C39.6196 8.89807 34.6684 3.88816 36.6489 4.89002C38.2332 5.6915 42.5903 3.22068 44.5707 1.88508C59.0941 1.21718 88.141 0.282113 88.141 1.88508C88.141 3.88879 86.1605 4.89065 86.1605 7.89622C86.1605 10.9018 86.1605 9.89993 88.141 11.9036C90.1214 13.9073 85.1702 14.9092 88.141 14.9092C91.1116 14.9092 96.0628 20.9203 97.053 21.9216C98.0433 22.9228 94.0823 20.9203 94.0823 23.9259C94.0823 26.3304 96.5441 27.9567 98.8547 28.9583C99.8449 16.9361 111.907 21.9216 107.946 21.9216C104.777 21.9216 102.664 27.9327 102.004 30.9383L102.994 31.797L108.936 36.9494L105.222 41.9587L102.994 44.9642L108.936 52.9798C119.828 43.9631 126.76 54.9831 120.819 53.9812C116.066 53.1797 112.897 56.9868 111.907 58.9905C109.697 72.683 104.807 100.919 100.484 120.103L102.004 120.103C109.926 120.103 111.907 140.141 107.946 140.141C103.985 140.141 102.994 138.137 102.994 131.124C102.994 128.774 101.257 127.514 98.8738 126.916C98.5921 128.044 98.3149 129.115 98.0433 130.122C94.9547 141.58 87.0493 146.54 77.2484 148.521C75.4649 153.552 76.1724 160.367 77.1945 165.187C79.1929 164.519 83.5859 164.786 85.1702 171.198C89.1312 173.202 96.2609 178.612 93.0921 184.222C93.0921 186.226 94.0823 190.434 98.0433 191.235C102.004 192.037 102.994 194.241 102.994 195.243H93.0921L87.1507 187.517C82.609 188.931 76.0229 190.024 68.9859 190.604L67.3461 199.25H62.3949L60.4144 191.042C52.0379 191.204 43.9193 190.556 38.6293 188.787L36.6489 195.243H24.7661V191.042H30.7075L32.6879 184.222C30.3114 175.406 35.6586 173.202 38.6293 173.202C40.4478 164.003 46.8593 164.185 48.9938 165.187C51.6099 160.146 49.2729 152.661 47.5414 149.158C30.9055 148.356 26.0864 136.133 25.7563 130.122Z" fill="#FAF9F9"/>
<path d="M47.5414 149.158C30.9055 148.356 26.0864 136.133 25.7563 130.122L13.8735 66.0035C16.8442 49.9735 1.00049 62.9976 1.00049 54.9828C1.00049 45.4827 21.4797 57.6033 23.5992 51.1947M47.5414 149.158C57.5262 149.639 68.1958 150.351 77.2484 148.521M47.5414 149.158C49.2729 152.661 51.6099 160.146 48.9938 165.187M108.936 52.9798C119.828 43.9631 126.76 54.9831 120.819 53.9812C116.066 53.1797 112.897 56.9868 111.907 58.9905C109.697 72.683 104.807 100.919 100.484 120.103M108.936 52.9798L102.994 44.9642L105.222 41.9587M108.936 52.9798C65.3656 65.804 33.8905 57.1332 23.5992 51.1947M102.004 30.9383C102.664 27.9327 104.777 21.9216 107.946 21.9216C111.907 21.9216 99.8449 16.9361 98.8547 28.9583M102.004 30.9383L102.994 31.797M102.004 30.9383L98.8547 28.9583M98.8547 28.9583C96.5441 27.9567 94.0823 26.3304 94.0823 23.9259M94.0823 23.9259C94.0823 20.9203 98.0433 22.9228 97.053 21.9216C96.0628 20.9203 91.1116 14.9092 88.141 14.9092C85.1703 14.9092 90.1214 13.9074 88.141 11.9036C86.1605 9.89993 86.1605 10.9018 86.1605 7.89622M94.0823 23.9259L34.6684 25.929M86.1605 7.89622C86.1605 4.89065 88.141 3.88879 88.141 1.88508C88.141 0.282113 59.0941 1.21718 44.5707 1.88508C42.5903 3.22068 38.2332 5.6915 36.6489 4.89002C34.6684 3.88816 39.6196 8.89807 39.6196 11.9036M86.1605 7.89622L39.6196 11.9036M39.6196 11.9036C39.6196 14.9092 37.6391 18.916 35.6586 18.916C33.6782 18.916 33.6782 22.9234 34.6684 25.929M34.6684 25.929C35.6586 28.9346 31.6977 31.9401 31.6977 32.942M31.6977 32.942L102.994 31.797M31.6977 32.942C31.6977 33.1955 30.9366 33.5132 29.7997 33.9438M19.8149 41.9587C19.8149 47.9698 23.7758 40.9565 23.7758 49.9735C23.7758 50.4401 23.7149 50.845 23.5992 51.1947M19.8149 41.9587H105.222M19.8149 41.9587C19.8149 38.4625 23.8346 36.322 27.1981 34.9457M102.994 31.797L108.936 36.9494L105.222 41.9587M77.2484 148.521C87.0493 146.54 94.9547 141.58 98.0433 130.122C98.3149 129.115 98.5921 128.044 98.8738 126.916M77.2484 148.521C75.4649 153.552 76.1724 160.367 77.1945 165.187M48.9938 165.187C48.6176 165.912 48.139 166.586 47.5414 167.191C41.6 173.202 75.2679 174.204 78.2386 169.194C77.9091 168.172 77.5344 166.79 77.1945 165.187M48.9938 165.187C46.8593 164.185 40.4478 164.003 38.6293 173.202M38.6293 173.202C36.6489 183.22 87.3983 180.215 85.1702 171.198M38.6293 173.202C35.6586 173.202 30.3114 175.406 32.6879 184.222M85.1702 171.198C83.5859 164.786 79.1929 164.519 77.1945 165.187M85.1702 171.198C89.1312 173.202 96.2609 178.612 93.0921 184.222M32.6879 184.222C33.2233 186.208 35.3989 187.706 38.6293 188.787M32.6879 184.222L30.7075 191.042H24.7661V195.243H36.6489L38.6293 188.787M93.0921 184.222C92.4099 185.43 90.2592 186.549 87.1507 187.517M93.0921 184.222C93.0921 186.226 94.0823 190.434 98.0433 191.235C102.004 192.037 102.994 194.241 102.994 195.243H93.0921L87.1507 187.517M87.1507 187.517C82.609 188.931 76.0229 190.024 68.9859 190.604M60.4144 191.042L62.3949 199.25H67.3461L68.9859 190.604M60.4144 191.042C63.2756 190.987 66.1669 190.837 68.9859 190.604M60.4144 191.042C52.0379 191.204 43.9193 190.556 38.6293 188.787M29.7997 33.9438C28.4519 30.9383 25.9543 24.5264 26.7465 22.9234C27.7368 20.9197 21.7954 19.9179 21.7954 22.9234C21.7954 25.3279 25.3972 31.9401 27.1981 34.9457M29.7997 33.9438C29.0571 34.2251 28.1541 34.5545 27.1981 34.9457M88.141 127.116C86.4547 132.126 78.2386 137.135 77.1945 127.116C75.5191 111.04 89.1312 113.09 88.141 120.103M88.141 127.116C84.18 123.91 86.4906 121.105 88.141 120.103M88.141 127.116C91.0182 126.534 95.5675 126.087 98.8738 126.916M88.141 120.103C89.9624 120.103 94.7573 120.103 100.484 120.103M98.8738 126.916C101.257 127.514 102.994 128.774 102.994 131.124C102.994 138.137 103.985 140.141 107.946 140.141C111.907 140.141 109.926 120.103 102.004 120.103C101.491 120.103 100.984 120.103 100.484 120.103" stroke="#16141F"/>
<path d="M103.303 75.9792C79.9194 87.6709 43.9972 82.1216 28.959 77.8855V99.6774C56.9173 112.028 87.6291 105.545 99.4902 100.76L103.303 75.9792Z" fill="#E84355" stroke="#16141F"/>
<path d="M37.9336 93.4634C37.3766 93.3013 36.9131 93.045 36.543 92.6943C36.1748 92.3372 35.9245 91.9207 35.7922 91.4448C35.6663 90.9708 35.6778 90.4777 35.8268 89.9656C35.9776 89.4471 36.2324 89.0248 36.5911 88.6987C36.9581 88.368 37.3918 88.154 37.8923 88.0566C38.3946 87.9528 38.9243 87.9819 39.4812 88.1439C40.0253 88.3022 40.4654 88.5552 40.8017 88.903C41.1398 89.2444 41.3434 89.6542 41.4125 90.1326L40.0691 90.4187C40.0054 90.1364 39.888 89.9078 39.7166 89.7329C39.5517 89.56 39.3508 89.4391 39.114 89.3702C38.8579 89.2957 38.6107 89.2862 38.3724 89.3419C38.134 89.3975 37.9233 89.5132 37.7402 89.6891C37.5635 89.8668 37.4314 90.1061 37.3439 90.407C37.2564 90.7078 37.2395 90.9806 37.2932 91.2254C37.3534 91.472 37.4692 91.6827 37.6405 91.8576C37.8118 92.0324 38.0255 92.157 38.2815 92.2315C38.5184 92.3004 38.7518 92.3093 38.9819 92.2582C39.2203 92.2026 39.443 92.0695 39.6501 91.859L40.6275 92.8307C40.3144 93.1909 39.9227 93.4276 39.4524 93.5407C38.9839 93.6474 38.4777 93.6217 37.9336 93.4634Z" fill="#FAF9F9"/>
<path d="M46.9845 95.4881L47.1784 94.4561L47.1226 94.2116L47.4698 92.3639C47.5313 92.0363 47.4778 91.7617 47.3092 91.5401C47.1471 91.3197 46.8596 91.1707 46.4469 91.0932C46.1651 91.0402 45.878 91.0338 45.5856 91.0738C45.301 91.1085 45.0495 91.1833 44.8312 91.2983L44.4821 90.1236C44.8086 89.9747 45.1854 89.8827 45.6125 89.8477C46.0397 89.8126 46.4629 89.8345 46.8823 89.9133C47.6881 90.0647 48.2782 90.3723 48.6523 90.836C49.0264 91.2998 49.1378 91.9346 48.9863 92.7405L48.4194 95.7577L46.9845 95.4881ZM45.3579 95.2638C44.9451 95.1862 44.6042 95.051 44.3353 94.858C44.0675 94.6584 43.8778 94.4227 43.7661 94.1507C43.6544 93.8787 43.6269 93.592 43.6835 93.2906C43.7426 92.9761 43.8697 92.7151 44.0647 92.5076C44.2662 92.3012 44.5464 92.1639 44.9052 92.0957C45.2652 92.0209 45.7138 92.034 46.2511 92.1349L47.6565 92.399L47.4884 93.2934L46.2501 93.0607C45.8898 92.993 45.6297 93.0051 45.47 93.0972C45.3167 93.1905 45.2235 93.3256 45.1903 93.5025C45.1533 93.6991 45.1991 93.8705 45.3277 94.0168C45.464 94.1577 45.6665 94.2534 45.9351 94.3039C46.1906 94.3519 46.431 94.336 46.6563 94.2563C46.8828 94.1699 47.0641 94.0175 47.2001 93.7988L47.303 94.5508C47.1276 94.8705 46.8759 95.0912 46.5478 95.2127C46.2197 95.3342 45.8231 95.3512 45.3579 95.2638Z" fill="#FAF9F9"/>
<path d="M53.2934 96.4518L53.7 91.0872L55.3253 91.2104L57.0714 95.0333L56.4232 94.9841L58.8652 91.4787L60.321 91.589L59.9343 96.9551L58.5284 96.8486L58.814 93.0794L59.0413 93.2571L56.9623 96.2084L56.3042 96.1585L54.6921 92.8171L54.9865 92.7692L54.6993 96.5584L53.2934 96.4518Z" fill="#FAF9F9"/>
<path d="M67.0175 97.055C66.4444 97.0688 65.9316 96.9611 65.4793 96.7319C65.0337 96.5025 64.676 96.1843 64.4061 95.7773C64.1428 95.3636 64.0047 94.8901 63.9919 94.3569C63.9789 93.817 64.0941 93.3375 64.3375 92.9182C64.5873 92.4921 64.9294 92.1571 65.3636 91.9132C65.8044 91.6626 66.3114 91.5304 66.8845 91.5166C67.451 91.503 67.9604 91.6108 68.4127 91.84C68.8649 92.0626 69.2225 92.3774 69.4857 92.7845C69.7489 93.1917 69.8871 93.6685 69.9002 94.215C69.913 94.7482 69.7978 95.2278 69.5546 95.6537C69.3113 96.073 68.9692 96.408 68.5285 96.6586C68.0877 96.9093 67.584 97.0414 67.0175 97.055ZM66.9868 95.7754C67.2467 95.7692 67.4786 95.7036 67.6823 95.5786C67.886 95.4537 68.0452 95.2798 68.1599 95.057C68.2744 94.8275 68.328 94.5595 68.3206 94.2529C68.3131 93.9397 68.2467 93.6745 68.1215 93.4575C67.9962 93.2404 67.8289 93.0744 67.6194 92.9594C67.4099 92.8444 67.1752 92.79 66.9153 92.7963C66.6553 92.8025 66.4235 92.8681 66.2198 92.993C66.0161 93.1179 65.8535 93.2919 65.7322 93.5149C65.6175 93.7377 65.5639 94.0057 65.5714 94.319C65.5788 94.6255 65.6452 94.8907 65.7706 95.1144C65.9025 95.3313 66.0732 95.4972 66.2827 95.6123C66.4922 95.7273 66.7269 95.7816 66.9868 95.7754Z" fill="#FAF9F9"/>
<path d="M73.9124 96.6271L73.3376 91.2779L76.0719 90.9841C76.7414 90.9122 77.2782 90.9785 77.6824 91.1832C78.0859 91.3812 78.3111 91.699 78.3581 92.1365C78.4051 92.5739 78.2632 92.9379 77.9323 93.2282C77.6073 93.5112 77.1532 93.684 76.5699 93.7467L76.6905 93.3717C77.3401 93.3019 77.8368 93.3692 78.1806 93.5737C78.5311 93.7774 78.7308 94.1079 78.78 94.5653C78.8306 95.0359 78.6915 95.4263 78.3627 95.7366C78.034 96.0468 77.5017 96.2414 76.766 96.3205L73.9124 96.6271ZM75.221 95.4204L76.5235 95.2805C76.8085 95.2498 77.0156 95.1806 77.1449 95.0729C77.28 94.9578 77.3369 94.8008 77.3155 94.602C77.2934 94.3965 77.2111 94.2545 77.0686 94.1759C76.9253 94.0907 76.7112 94.0634 76.4262 94.0941L75.0938 94.2372L75.221 95.4204ZM74.9956 93.3225L76.1688 93.1964C76.4406 93.1672 76.6374 93.0958 76.7593 92.9821C76.8878 92.8677 76.9421 92.7177 76.9221 92.5321C76.9015 92.3399 76.8166 92.2049 76.6674 92.127C76.5249 92.0485 76.3177 92.0238 76.0459 92.053L74.8727 92.1791L74.9956 93.3225Z" fill="#FAF9F9"/>
<path d="M86.3656 94.8296L86.1672 93.7985L86.0256 93.5915L85.6704 91.7454C85.6074 91.418 85.4568 91.1823 85.2186 91.038C84.9869 90.8925 84.6648 90.8594 84.2524 90.9388C83.9709 90.9929 83.7015 91.0923 83.4442 91.2369C83.1921 91.3736 82.9857 91.5355 82.8248 91.7226L82.0689 90.7581C82.3179 90.4997 82.6347 90.2758 83.0191 90.0864C83.4036 89.897 83.8053 89.762 84.2243 89.6814C85.0296 89.5265 85.6913 89.596 86.2095 89.8901C86.7277 90.1841 87.0643 90.7338 87.2193 91.539L87.7993 94.5537L86.3656 94.8296ZM84.7703 95.218C84.3579 95.2974 83.9911 95.2966 83.6701 95.2158C83.3478 95.1285 83.0847 94.9788 82.881 94.7668C82.6773 94.5549 82.5465 94.2983 82.4885 93.9971C82.428 93.6829 82.4504 93.3935 82.5556 93.1288C82.6674 92.8629 82.8776 92.6324 83.1863 92.4372C83.4938 92.2355 83.9159 92.083 84.4527 91.9797L85.8569 91.7095L86.0289 92.6031L84.7916 92.8412C84.4315 92.9104 84.1941 93.0172 84.0793 93.1615C83.971 93.3046 83.9339 93.4644 83.9679 93.6412C84.0057 93.8376 84.1112 93.9802 84.2845 94.0691C84.463 94.1502 84.6865 94.1649 84.9549 94.1132C85.2102 94.0641 85.428 93.9611 85.6082 93.8042C85.7873 93.6408 85.8999 93.4324 85.9462 93.1791L86.3179 93.8408C86.2722 94.2026 86.119 94.5002 85.8584 94.7337C85.5978 94.9671 85.2351 95.1286 84.7703 95.218Z" fill="#FAF9F9"/>
<path d="M94.8304 92.8192C94.3952 92.9462 93.9864 92.9614 93.604 92.8647C93.2216 92.768 92.8806 92.5515 92.581 92.2153C92.286 91.8708 92.0507 91.3978 91.8751 90.7963C91.6976 90.1883 91.6383 89.6639 91.6971 89.2231C91.756 88.7823 91.9205 88.4183 92.1909 88.131C92.4612 87.8437 92.8235 87.6338 93.2779 87.5011C93.7643 87.3592 94.2321 87.3441 94.6815 87.456C95.1354 87.5596 95.5322 87.7771 95.8721 88.1085C96.2183 88.438 96.4698 88.8716 96.6268 89.4091C96.7856 89.9531 96.8077 90.4571 96.6931 90.9211C96.585 91.3833 96.3675 91.7801 96.0406 92.1117C95.7202 92.4414 95.3167 92.6772 94.8304 92.8192ZM92.299 95.4958L90.2477 88.4691L91.678 88.0515L91.9863 89.1075L92.4059 90.6518L92.9474 92.15L93.7965 95.0586L92.299 95.4958ZM94.2125 91.6661C94.4621 91.5933 94.6661 91.4712 94.8244 91.3C94.9892 91.1269 95.0983 90.9179 95.1519 90.6731C95.2099 90.42 95.196 90.1463 95.1101 89.8519C95.0223 89.5511 94.8867 89.3129 94.7035 89.1372C94.5267 88.9596 94.3222 88.8422 94.0902 88.785C93.8646 88.7258 93.627 88.7327 93.3774 88.8055C93.1278 88.8784 92.9207 89.0014 92.7559 89.1745C92.5912 89.3476 92.482 89.5565 92.4285 89.8013C92.3749 90.0462 92.3921 90.319 92.4799 90.6197C92.5658 90.9141 92.6981 91.1533 92.8768 91.3372C93.0537 91.5148 93.2581 91.6322 93.4901 91.6895C93.7221 91.7468 93.9629 91.739 94.2125 91.6661Z" fill="#FAF9F9"/>
<path d="M139.256 179.623C142.358 185.008 133.907 190.703 126.612 190.617C103.685 190.348 112.113 177.914 116.705 175.116C121.296 172.318 135.379 172.891 139.256 179.623Z" fill="#FAF9F9" stroke="#16141F"/>
<path d="M88.4234 200.283C85.6045 197.97 81.1484 191.859 85.8758 185.915C82.4966 182.245 77.833 173.079 86.212 165.77C96.6857 156.635 111.193 160.267 112.556 170.029C113.645 177.839 111.488 180.563 110.273 180.948C111.293 181.615 112.218 182.44 113.016 183.435C119.455 191.474 111.954 212.381 88.4234 200.283Z" fill="#FAF9F9"/>
<path d="M85.8758 185.915C81.1484 191.859 85.6045 197.97 88.4234 200.283C111.954 212.381 119.455 191.474 113.016 183.435C112.218 182.44 111.293 181.615 110.273 180.948M85.8758 185.915C82.4966 182.245 77.833 173.079 86.212 165.77C96.6857 156.635 111.193 160.267 112.556 170.029C113.645 177.839 111.488 180.563 110.273 180.948M85.8758 185.915C86.7097 184.867 87.7204 183.905 88.8597 183.048M99.4103 191.13C99.9787 193.105 102.707 195.422 109.073 188.887M109.073 188.887C109.123 189.753 109.156 190.732 109.194 191.827C109.371 196.983 104.753 197.142 101.144 196.749C98.2568 196.435 97.9596 198.751 98.1719 199.948C96.1196 200.019 94.9342 195.413 92.3335 194.47C89.7328 193.527 90.7235 192.46 90.5997 188.851C90.4758 185.241 93.9965 183.056 97.535 181.386C101.073 179.715 104.789 183.202 106.859 183.646C108.489 183.997 108.89 185.671 109.073 188.887ZM96.1373 185.563C95.1323 186.216 93.4434 187.893 94.7272 189.379M110.273 180.948C108.888 180.044 107.328 179.429 105.674 179.072M88.8597 183.048C86.3494 179.754 83.0381 172.074 89.8743 167.71C98.4195 162.254 108.029 172.828 105.674 179.072M88.8597 183.048C93.4379 179.606 100.091 177.868 105.674 179.072M90.0866 173.897C91.0715 172.659 93.7703 170.467 96.6859 171.606" stroke="#16141F"/>
<path d="M19.2572 169.392C22.1758 167.207 29.1738 164.339 33.8175 170.348C38.1879 167.943 48.2028 165.603 53.2995 175.484C59.6705 187.836 52.6798 201.057 42.8749 200.049C35.0309 199.243 32.9007 196.498 32.8161 195.226C31.9248 196.057 30.9031 196.759 29.7464 197.296C20.4024 201.63 1.891 189.354 19.2572 169.392Z" fill="#FAF9F9"/>
<path d="M33.8175 170.348C29.1738 164.339 22.1758 167.207 19.2572 169.392C1.891 189.354 20.4024 201.63 29.7464 197.296C30.9031 196.759 31.9248 196.057 32.8161 195.226M33.8175 170.348C38.1879 167.943 48.2028 165.603 53.2995 175.484C59.6705 187.836 52.6798 201.057 42.8749 200.049C35.0309 199.243 32.9007 196.498 32.8161 195.226M33.8175 170.348C34.6367 171.409 35.3296 172.62 35.8894 173.931M25.5224 182.247C23.4683 182.327 20.5669 184.423 25.3939 192.166M25.3939 192.166C24.5405 192.007 23.5821 191.806 22.51 191.581C17.4604 190.522 18.409 186 19.6517 182.589C20.6459 179.86 18.4679 179.018 17.2547 178.939C17.6763 176.929 22.4313 176.877 23.9682 174.577C25.5051 172.277 26.3042 173.493 29.8389 174.235C33.3735 174.976 34.6556 178.917 35.4327 182.752C36.2098 186.587 31.9374 189.362 31.0112 191.266C30.2816 192.766 28.5599 192.756 25.3939 192.166ZM31.7096 180.397C31.3154 179.266 30.0898 177.225 28.3409 178.117M32.8161 195.226C34.0255 194.097 34.9948 192.729 35.736 191.208M35.8894 173.931C39.6877 172.279 47.9356 170.897 50.5419 178.578C53.7997 188.178 41.238 194.985 35.736 191.208M35.8894 173.931C38.1392 179.198 38.2386 186.074 35.736 191.208M44.4825 177.307C45.4499 178.559 46.9342 181.703 45.1321 184.262" stroke="#16141F"/>
<path fill-rule="evenodd" clip-rule="evenodd" d="M204.51 115.878C209.206 108.054 222.98 90.9958 240.511 85.362C262.426 78.3198 244.425 75.9724 236.598 79.8847C230.879 82.7439 217.635 93.9605 207.865 102.236C204.266 105.284 201.138 107.933 199.031 109.618C198.51 110.922 196.996 114.47 195.118 118.225C193.24 121.981 194.335 125.268 195.118 126.442C199.712 123.254 203.036 118.662 204.51 115.878ZM190.422 128.934C190.161 126.93 188.7 122.92 184.944 122.92C181.187 122.92 177.014 120.834 175.396 119.79C173.941 123.156 176.306 130.59 185.726 129.963C187.368 129.853 188.937 129.487 190.422 128.934Z" fill="#FAF9F9"/>
<path d="M199.031 109.618C191.205 115.878 191.205 102.576 184.161 108.053C177.117 113.531 181.031 117.443 177.117 118.225C176.344 118.38 175.755 118.962 175.396 119.79C177.014 120.834 181.187 122.92 184.944 122.92C188.7 122.92 190.161 126.93 190.422 128.934C192.101 128.309 193.672 127.445 195.118 126.442C194.335 125.268 193.24 121.981 195.118 118.225C196.996 114.47 198.51 110.922 199.031 109.618Z" fill="#E84355"/>
<path d="M204.51 115.878L204.081 115.621L204.074 115.633L204.068 115.644L204.51 115.878ZM240.511 85.362L240.664 85.838L240.511 85.362ZM236.598 79.8847L236.375 79.4375L236.598 79.8847ZM199.031 109.618L198.719 109.228L199.031 109.618ZM177.117 118.225L177.215 118.716L177.117 118.225ZM185.726 129.963L185.76 130.461L185.726 129.963ZM190.422 128.934L190.597 129.403L190.422 128.934ZM207.865 102.236L208.188 102.617L207.865 102.236ZM204.939 116.136C207.264 112.261 211.853 106.076 218.043 100.16C224.234 94.2428 231.997 88.6235 240.664 85.838L240.359 84.886C231.495 87.7344 223.605 93.4609 217.352 99.4372C211.097 105.415 206.452 111.671 204.081 115.621L204.939 116.136ZM240.664 85.838C243.415 84.954 245.551 84.1402 247.165 83.3986C248.771 82.6604 249.889 81.9811 250.581 81.356C251.251 80.7508 251.655 80.0657 251.447 79.3606C251.251 78.7002 250.584 78.2973 249.876 78.0445C248.405 77.5193 246.02 77.3793 243.548 77.6017C241.065 77.8251 238.406 78.422 236.375 79.4375L236.822 80.3319C238.704 79.3912 241.229 78.8144 243.638 78.5977C246.058 78.3799 248.271 78.5334 249.539 78.9863C250.201 79.2225 250.439 79.4798 250.488 79.6447C250.523 79.7648 250.512 80.0701 249.91 80.6141C249.33 81.1382 248.32 81.7672 246.747 82.49C245.182 83.2095 243.086 84.0095 240.359 84.886L240.664 85.838ZM198.719 109.228C196.826 110.742 195.513 110.991 194.51 110.757C193.459 110.514 192.601 109.72 191.656 108.776C190.76 107.879 189.765 106.819 188.517 106.394C187.192 105.943 185.697 106.225 183.854 107.659L184.468 108.448C186.147 107.143 187.293 107.034 188.194 107.341C189.172 107.674 189.987 108.521 190.949 109.483C191.864 110.397 192.913 111.413 194.284 111.732C195.701 112.061 197.324 111.625 199.344 110.009L198.719 109.228ZM183.854 107.659C182.052 109.06 180.931 110.377 180.21 111.588C179.487 112.8 179.179 113.883 178.977 114.791C178.871 115.272 178.81 115.619 178.722 115.993C178.639 116.343 178.553 116.619 178.435 116.845C178.322 117.062 178.178 117.235 177.972 117.376C177.761 117.52 177.463 117.647 177.019 117.735L177.215 118.716C177.75 118.609 178.185 118.442 178.537 118.201C178.894 117.957 179.142 117.652 179.322 117.308C179.497 116.971 179.606 116.599 179.695 116.222C179.778 115.868 179.864 115.409 179.953 115.008C180.143 114.156 180.421 113.186 181.069 112.099C181.717 111.011 182.749 109.785 184.468 108.448L183.854 107.659ZM177.019 117.735C176.038 117.931 175.339 118.663 174.937 119.592L175.855 119.989C176.17 119.261 176.651 118.829 177.215 118.716L177.019 117.735ZM174.937 119.592C174.13 121.459 174.402 124.344 176.077 126.667C177.778 129.025 180.901 130.785 185.76 130.461L185.693 129.464C181.131 129.768 178.361 128.124 176.888 126.082C175.39 124.003 175.207 121.488 175.855 119.989L174.937 119.592ZM175.125 120.211C175.963 120.751 177.442 121.55 179.19 122.214C180.935 122.877 182.981 123.42 184.944 123.42V122.42C183.15 122.42 181.231 121.92 179.545 121.279C177.863 120.64 176.447 119.873 175.667 119.37L175.125 120.211ZM185.76 130.461C187.454 130.349 189.071 129.971 190.597 129.403L190.248 128.466C188.803 129.004 187.281 129.358 185.693 129.464L185.76 130.461ZM184.944 123.42C186.613 123.42 187.78 124.3 188.583 125.46C189.395 126.633 189.804 128.056 189.926 128.999L190.918 128.87C190.78 127.809 190.328 126.224 189.405 124.891C188.473 123.545 187.031 122.42 184.944 122.42V123.42ZM190.597 129.403C192.321 128.761 193.929 127.876 195.403 126.853L194.833 126.031C193.416 127.015 191.881 127.858 190.248 128.466L190.597 129.403ZM195.403 126.853C200.077 123.609 203.45 118.949 204.952 116.112L204.068 115.644C202.622 118.375 199.347 122.899 194.833 126.031L195.403 126.853ZM195.534 126.164C194.837 125.118 193.778 122.023 195.565 118.449L194.671 118.002C192.701 121.94 193.834 125.418 194.702 126.719L195.534 126.164ZM195.565 118.449C197.45 114.68 198.969 111.12 199.496 109.804L198.567 109.433C198.05 110.725 196.542 114.26 194.671 118.002L195.565 118.449ZM236.375 79.4375C233.459 80.895 228.677 84.4497 223.438 88.6387C218.185 92.8398 212.426 97.7175 207.542 101.854L208.188 102.617C213.075 98.4786 218.822 93.6104 224.063 89.4197C229.319 85.2167 234.018 81.7336 236.822 80.3319L236.375 79.4375ZM207.542 101.854C203.94 104.905 200.819 107.548 198.719 109.228L199.344 110.009C201.457 108.318 204.592 105.663 208.188 102.617L207.542 101.854Z" fill="#16141F"/>
<path d="M144.947 176.385C148.041 170.257 160.198 158 184.07 158C207.941 158 226.729 172.445 233.139 179.668C236.676 180.106 243.351 182.689 241.759 189.517C241.096 191.049 239.24 193.326 237.118 190.174C236.057 195.427 233.581 194.989 232.476 194.114C229.824 197.265 226.066 196.74 224.519 196.083C222.53 201.336 219.214 198.71 216.9 198.71C215.019 200.023 210.726 201.993 208.604 199.366C207.278 200.68 203.83 202.65 200.647 200.023C199.763 201.555 197.199 203.831 194.016 200.68C193.132 201.993 190.436 203.831 186.722 200.68C185.396 202.431 182.213 204.882 180.091 200.68C178.323 202.212 174.256 204.094 172.134 199.366C170.366 201.336 165.901 204.094 162.188 199.366C159.984 200.094 155.95 200.61 154.648 198.053C152.445 198.428 148.354 198.161 147.229 194.77C144.497 194.583 139.817 193.37 139.853 190.061C137.793 190.317 134.337 189.517 136.99 184.264C135.398 184.264 135 182.513 135 181.638C136.061 174.809 142.074 175.291 144.947 176.385Z" fill="#FAF9F9"/>
<path d="M144.947 176.385C148.041 170.257 160.198 158 184.07 158C207.941 158 226.729 172.445 233.139 179.668M144.947 176.385C142.074 175.291 136.061 174.809 135 181.638C135 182.513 135.398 184.264 136.99 184.264M144.947 176.385C145.585 176.37 146.801 177.068 146.566 179.974M233.139 179.668C236.676 180.106 243.351 182.689 241.759 189.517C241.096 191.049 239.24 193.326 237.118 190.174M233.139 179.668C232.034 180.325 229.956 181.769 230.487 182.295M230.487 182.295C231.15 182.951 238.444 183.608 237.118 190.174M230.487 182.295C226.773 181.769 225.845 183.389 225.845 184.264M237.118 190.174C236.057 195.427 233.581 194.989 232.476 194.114M232.476 194.114C232.697 190.612 231.68 183.739 225.845 184.264M232.476 194.114C229.824 197.265 226.066 196.74 224.519 196.083M225.845 184.264C220.01 184.79 219.877 186.672 220.54 187.547M220.54 187.547C222.308 187.766 226.785 190.1 224.519 196.083M220.54 187.547C218.012 186.672 213.118 185.84 213.765 189.517M224.519 196.083C222.53 201.336 219.214 198.71 216.9 198.71M207.941 190.174C210.485 188.215 212.426 188.403 213.765 189.517M207.941 190.174C209.047 191.487 210.726 195.164 208.604 199.366M207.941 190.174C205.952 189.517 201.841 188.729 201.31 190.831M213.765 189.517C215.568 191.018 216.279 194.199 215.899 196.083C215.723 196.952 216.151 197.913 216.9 198.71M216.9 198.71C215.019 200.023 210.726 201.993 208.604 199.366M208.604 199.366C207.278 200.68 203.83 202.65 200.647 200.023M200.647 200.023C205.422 196.346 203.079 192.363 201.31 190.831M200.647 200.023C199.763 201.555 197.199 203.831 194.016 200.68M201.31 190.831C199.085 189.068 196.704 190.571 195.342 192.006M194.016 200.68C190.038 196.74 196.006 200.023 194.679 192.8C194.857 192.554 195.081 192.281 195.342 192.006M194.016 200.68C193.132 201.993 190.436 203.831 186.722 200.68M195.342 192.006C193.353 191.303 188.844 190.319 186.722 192.006M186.722 192.006C188.269 193.146 190.436 196.477 186.722 200.68M186.722 192.006C185.396 191.395 182.478 190.305 181.417 190.831M186.722 200.68C185.396 202.431 182.213 204.882 180.091 200.68M181.417 190.831C180.091 191.487 184.733 195.427 180.091 200.68M181.417 190.831C178.371 189.609 175.604 190.065 173.76 191.487M180.091 200.68C178.323 202.212 174.256 204.094 172.134 199.366M172.134 199.366C170.366 201.336 165.901 204.094 162.188 199.366M172.134 199.366C170.7 196.172 171.591 193.161 173.76 191.487M162.188 199.366C158.961 195.258 162.753 190.833 167.492 190.061M162.188 199.366C159.984 200.094 155.95 200.61 154.648 198.053M173.76 191.487C171.83 190.086 169.57 189.722 167.492 190.061M167.492 190.061C165.325 187.869 162.716 187.487 160.387 188.204M154.648 198.053C154.382 197.532 154.23 196.884 154.23 196.083C154.23 192.588 157.014 189.243 160.387 188.204M154.648 198.053C152.445 198.428 148.354 198.161 147.229 194.77M160.387 188.204C157.398 185.719 154.545 184.976 152.241 185.437M147.229 194.77C147.041 194.204 146.936 193.552 146.936 192.8C146.936 188.996 149.067 186.073 152.241 185.437M147.229 194.77C144.497 194.583 139.817 193.37 139.853 190.061M152.241 185.437C151.491 183.156 149.987 182.148 148.262 182.095M139.853 190.061C139.859 189.503 139.999 188.886 140.305 188.204C141.958 184.522 145.412 182.006 148.262 182.095M139.853 190.061C137.793 190.317 134.337 189.517 136.99 184.264M136.99 184.264C139.437 179.419 144.05 178.646 146.566 179.974M148.262 182.095C148.089 181.182 147.46 180.446 146.566 179.974" stroke="#16141F"/>
<path d="M151 172.765L152.488 171.682L154.869 172.529L154.795 170.003L156.307 168.903L156.392 172.917L160.51 174.363L158.99 175.468L156.351 174.566L156.413 177.344L154.925 178.427L154.842 174.131L151 172.765Z" fill="#16141F"/>
<path d="M161.329 173.981C161.224 174.035 161.109 174.084 160.984 174.127C160.864 174.167 160.73 174.208 160.581 174.248L160.046 173.007C160.139 172.988 160.23 172.956 160.317 172.91C160.555 172.786 160.692 172.593 160.725 172.331C160.756 172.064 160.705 171.732 160.572 171.335C160.44 170.938 160.246 170.473 159.99 169.94L158.787 167.416L163.481 164.971L166.663 171.08L165.267 171.807L162.517 166.527L163.008 166.682L160.312 168.086L160.422 167.596L161.211 169.238C161.506 169.846 161.742 170.4 161.92 170.899C162.099 171.397 162.206 171.845 162.242 172.24C162.278 172.636 162.223 172.978 162.079 173.268C161.934 173.558 161.684 173.796 161.329 173.981Z" fill="#16141F"/>
<path d="M167.867 166.298L171.019 165.271L171.403 166.45L168.251 167.476L167.867 166.298ZM168.857 168.956L172.421 167.795L172.817 169.011L167.747 170.663L165.614 164.113L170.563 162.501L170.959 163.717L167.516 164.839L168.857 168.956Z" fill="#16141F"/>
<path d="M173.831 168.774L172.844 161.957L178.346 161.16L178.527 162.416L174.594 162.986L174.797 164.388L176.686 164.115C177.51 163.996 178.161 164.077 178.64 164.359C179.124 164.64 179.414 165.109 179.509 165.764C179.607 166.439 179.443 167 179.017 167.446C178.591 167.892 177.94 168.179 177.064 168.306L173.831 168.774ZM175.229 167.378L176.807 167.15C177.209 167.091 177.506 166.969 177.698 166.782C177.889 166.589 177.962 166.34 177.918 166.034C177.831 165.437 177.373 165.199 176.542 165.319L174.964 165.547L175.229 167.378Z" fill="#16141F"/>
<path d="M183.981 167.875L184.412 161L185.992 161.099L185.712 165.577L189.272 161.304L190.765 161.398L190.334 168.273L188.763 168.174L189.043 163.706L185.483 167.969L183.981 167.875Z" fill="#16141F"/>
<path d="M197.969 169.925C197.456 169.787 197 169.576 196.601 169.292C196.21 169.003 195.894 168.66 195.655 168.263C195.415 167.866 195.26 167.434 195.188 166.966C195.123 166.5 195.158 166.017 195.292 165.517C195.427 165.016 195.639 164.581 195.929 164.21C196.225 163.841 196.576 163.545 196.982 163.322C197.395 163.1 197.842 162.965 198.324 162.918C198.807 162.864 199.308 162.907 199.827 163.047C200.404 163.202 200.896 163.443 201.304 163.77C201.72 164.092 202.034 164.489 202.247 164.961L201.014 165.608C200.855 165.287 200.654 165.025 200.409 164.824C200.166 164.616 199.88 164.467 199.551 164.379C199.24 164.295 198.942 164.269 198.655 164.301C198.368 164.333 198.104 164.418 197.863 164.557C197.622 164.696 197.412 164.881 197.235 165.112C197.064 165.344 196.936 165.619 196.851 165.935C196.765 166.252 196.739 166.554 196.77 166.841C196.808 167.13 196.897 167.395 197.036 167.636C197.174 167.877 197.36 168.083 197.593 168.254C197.825 168.425 198.097 168.553 198.407 168.636C198.736 168.725 199.057 168.743 199.37 168.691C199.685 168.633 199.991 168.502 200.291 168.297L201.034 169.475C200.613 169.776 200.142 169.965 199.618 170.042C199.102 170.12 198.552 170.081 197.969 169.925Z" fill="#16141F"/>
<path d="M204.701 172.502C204.213 172.26 203.8 171.956 203.462 171.59C203.13 171.227 202.882 170.825 202.72 170.386C202.563 169.949 202.496 169.494 202.519 169.022C202.547 168.552 202.675 168.089 202.902 167.63C203.13 167.172 203.422 166.79 203.78 166.484C204.143 166.181 204.548 165.961 204.997 165.825C205.445 165.689 205.914 165.644 206.404 165.69C206.894 165.736 207.38 165.878 207.862 166.118C208.349 166.36 208.756 166.661 209.083 167.021C209.415 167.384 209.659 167.784 209.816 168.221C209.978 168.66 210.048 169.116 210.026 169.589C210.007 170.055 209.882 170.521 209.651 170.985C209.424 171.443 209.127 171.827 208.761 172.135C208.398 172.439 207.992 172.658 207.544 172.794C207.104 172.927 206.639 172.971 206.149 172.925C205.665 172.882 205.182 172.741 204.701 172.502ZM205.296 171.281C205.572 171.419 205.848 171.497 206.124 171.517C206.405 171.54 206.678 171.507 206.942 171.418C207.206 171.33 207.444 171.188 207.658 170.994C207.878 170.803 208.06 170.56 208.206 170.267C208.352 169.973 208.435 169.681 208.455 169.39C208.481 169.103 208.449 168.827 208.36 168.563C208.278 168.302 208.142 168.066 207.954 167.856C207.766 167.645 207.534 167.471 207.258 167.334C206.981 167.196 206.703 167.116 206.421 167.094C206.145 167.074 205.875 167.108 205.612 167.197C205.348 167.286 205.106 167.425 204.887 167.617C204.673 167.811 204.493 168.055 204.347 168.349C204.204 168.636 204.118 168.927 204.09 169.221C204.07 169.511 204.102 169.787 204.184 170.048C204.273 170.311 204.411 170.549 204.6 170.76C204.788 170.97 205.02 171.144 205.296 171.281Z" fill="#16141F"/>
<path d="M208.786 174.751C208.691 174.681 208.596 174.599 208.502 174.506C208.413 174.417 208.317 174.314 208.214 174.199L209.089 173.168C209.148 173.244 209.217 173.31 209.296 173.368C209.513 173.527 209.746 173.563 209.996 173.478C210.249 173.387 210.524 173.194 210.821 172.899C211.118 172.603 211.448 172.223 211.812 171.758L213.54 169.56L217.814 172.683L213.751 178.245L212.48 177.316L215.992 172.509L216.071 173.018L213.616 171.224L214.104 171.106L212.983 172.541C212.569 173.075 212.178 173.532 211.81 173.913C211.442 174.295 211.089 174.589 210.75 174.797C210.412 175.004 210.081 175.108 209.757 175.106C209.433 175.105 209.109 174.987 208.786 174.751Z" fill="#16141F"/>
<path d="M220.654 177.634C221.342 178.104 221.767 178.621 221.93 179.185C222.096 179.744 221.97 180.329 221.551 180.941C221.107 181.591 220.562 181.941 219.915 181.992C219.274 182.046 218.588 181.824 217.858 181.324L215.291 179.569L219.179 173.883L220.486 174.777L219.209 176.645L220.654 177.634ZM218.451 180.299C218.787 180.529 219.109 180.626 219.419 180.591C219.729 180.557 219.993 180.38 220.211 180.06C220.426 179.746 220.482 179.455 220.38 179.186C220.286 178.916 220.069 178.664 219.728 178.431L218.542 177.62L217.265 179.488L218.451 180.299Z" fill="#16141F"/>
<path d="M175.666 177.369V176.788H177.549V177.369H175.666ZM178.986 179V174.38L179.287 174.709H177.88V174.1H179.679V179H178.986ZM182.662 179.056C182.265 179.056 181.922 178.998 181.633 178.881C181.343 178.764 181.119 178.599 180.961 178.384C180.802 178.165 180.723 177.908 180.723 177.614C180.723 177.325 180.797 177.08 180.947 176.879C181.101 176.674 181.322 176.52 181.612 176.417C181.901 176.31 182.251 176.256 182.662 176.256C183.072 176.256 183.422 176.31 183.712 176.417C184.006 176.52 184.23 176.674 184.384 176.879C184.538 177.084 184.615 177.329 184.615 177.614C184.615 177.908 184.535 178.165 184.377 178.384C184.218 178.599 183.992 178.764 183.698 178.881C183.404 178.998 183.058 179.056 182.662 179.056ZM182.662 178.489C183.054 178.489 183.359 178.41 183.579 178.251C183.803 178.088 183.915 177.868 183.915 177.593C183.915 177.322 183.803 177.11 183.579 176.956C183.359 176.797 183.054 176.718 182.662 176.718C182.274 176.718 181.971 176.797 181.752 176.956C181.532 177.11 181.423 177.322 181.423 177.593C181.423 177.868 181.532 178.088 181.752 178.251C181.971 178.41 182.274 178.489 182.662 178.489ZM182.662 176.634C182.288 176.634 181.971 176.585 181.71 176.487C181.448 176.384 181.248 176.24 181.108 176.053C180.968 175.862 180.898 175.635 180.898 175.374C180.898 175.099 180.97 174.863 181.115 174.667C181.264 174.466 181.472 174.312 181.738 174.205C182.004 174.098 182.312 174.044 182.662 174.044C183.016 174.044 183.327 174.098 183.593 174.205C183.859 174.312 184.066 174.466 184.216 174.667C184.365 174.863 184.44 175.099 184.44 175.374C184.44 175.635 184.37 175.862 184.23 176.053C184.09 176.24 183.887 176.384 183.621 176.487C183.355 176.585 183.035 176.634 182.662 176.634ZM182.662 176.186C183.002 176.186 183.268 176.116 183.46 175.976C183.656 175.836 183.754 175.645 183.754 175.402C183.754 175.155 183.653 174.961 183.453 174.821C183.252 174.681 182.988 174.611 182.662 174.611C182.335 174.611 182.074 174.681 181.878 174.821C181.686 174.961 181.591 175.155 181.591 175.402C181.591 175.645 181.684 175.836 181.871 175.976C182.062 176.116 182.326 176.186 182.662 176.186ZM186.102 179L188.181 174.394L188.363 174.709H185.451L185.801 174.366V175.584H185.129V174.1H188.825V174.576L186.844 179H186.102ZM190.882 179.056C190.537 179.056 190.201 179.002 189.874 178.895C189.552 178.788 189.289 178.643 189.083 178.461L189.405 177.908C189.569 178.062 189.781 178.188 190.042 178.286C190.304 178.384 190.584 178.433 190.882 178.433C191.246 178.433 191.529 178.356 191.729 178.202C191.935 178.043 192.037 177.831 192.037 177.565C192.037 177.308 191.939 177.103 191.743 176.949C191.552 176.79 191.246 176.711 190.826 176.711H190.434V176.221L191.89 174.429L191.988 174.709H189.307V174.1H192.541V174.576L191.092 176.361L190.728 176.144H190.959C191.552 176.144 191.995 176.277 192.289 176.543C192.588 176.809 192.737 177.147 192.737 177.558C192.737 177.833 192.67 178.085 192.534 178.314C192.399 178.543 192.194 178.725 191.918 178.86C191.648 178.991 191.302 179.056 190.882 179.056ZM193.453 177.369V176.788H195.336V177.369H193.453Z" fill="#16141F"/>
</svg>
