<svg width="88" height="52" viewBox="0 0 88 52" fill="none" xmlns="http://www.w3.org/2000/svg">
<path d="M7.34035 28.5562C5.20706 23.9614 3.10658 14.6734 11.771 14.2796C16.9725 14.0431 19.3589 14.6228 20.2936 15.337C19.566 11.7084 19.5863 6.40297 24.0784 6.40297C29.1983 6.40297 31.1347 7.38757 31.4629 7.87987C31.7911 5.74657 33.8259 1.47998 39.3397 1.47998C46.2318 1.47998 54.6009 7.38757 54.6009 9.84906C54.6009 12.3106 62.97 2.95688 67.893 6.40297C71.8314 9.15985 73.8006 15.7567 74.2929 18.7104C77.4108 15.5924 84.1389 10.8333 86.1081 16.7411C88.0773 22.6488 85.2876 29.0487 83.6466 31.5102C86.2722 35.4486 89.948 43.4239 83.6466 43.8177C77.6227 44.1942 75.6178 42.8012 75.3095 41.9609C76.0879 44.78 75.6653 50.0102 67.893 49.233C60.0162 48.4453 59.0316 43.9818 59.5239 41.8485C58.7034 44.8023 55.4871 50.4145 49.1856 49.233C42.8842 48.0515 41.3088 45.1305 41.3088 43.8177C40.4883 46.1151 37.3705 50.7099 31.4629 50.7099C25.5553 50.7099 24.7348 46.1151 25.063 43.8177C22.6016 47.4279 16.4972 53.5652 11.771 49.233C7.04486 44.9008 8.81711 39.2229 10.294 36.9255C7.99661 38.0743 3.00798 39.1902 1.43263 34.464C-0.142731 29.7378 4.71471 28.5562 7.34035 28.5562Z" fill="#E84355"/>
<path d="M7.34035 28.5562C5.20706 23.9614 3.10658 14.6734 11.771 14.2796C20.4355 13.8857 21.2887 15.7565 20.6323 16.7411C19.6477 13.295 18.9585 6.40297 24.0784 6.40297C29.1983 6.40297 31.1347 7.38757 31.4629 7.87987C31.7911 5.74657 33.8259 1.47998 39.3397 1.47998C46.2318 1.47998 54.6009 7.38757 54.6009 9.84906C54.6009 12.3106 62.97 2.95688 67.893 6.40297C71.8314 9.15985 73.8006 15.7567 74.2929 18.7104C77.4108 15.5924 84.1389 10.8333 86.1081 16.7411C88.0773 22.6488 85.2876 29.0487 83.6466 31.5102C86.2722 35.4486 89.948 43.4239 83.6466 43.8177C77.3451 44.2115 75.4416 42.669 75.2775 41.8485C76.098 44.6382 75.7698 50.0207 67.893 49.233C60.0162 48.4453 59.0316 43.9818 59.5239 41.8485C58.7034 44.8023 55.4871 50.4145 49.1856 49.233C42.8842 48.0515 41.3088 45.1305 41.3088 43.8177C40.4884 46.1151 37.3705 50.7099 31.4629 50.7099C25.5553 50.7099 24.7348 46.1151 25.063 43.8177C22.6016 47.4279 16.4972 53.5652 11.771 49.233C7.04486 44.9008 8.81711 39.2229 10.294 36.9255C7.99661 38.0743 3.00798 39.1902 1.43263 34.464C-0.142731 29.7378 4.71471 28.5562 7.34035 28.5562Z" stroke="#16141F" stroke-width="0.984598"/>
</svg>
