<svg width="83" height="48" viewBox="0 0 83 48" fill="none" xmlns="http://www.w3.org/2000/svg">
<path d="M18.1712 4.45031C14.6266 11.1456 7.50472 10.522 4.38683 9.3733C6.68423 11.1784 10.0975 15.1824 5.37143 16.7578C7.66882 17.5783 10.8852 20.3023 5.37143 24.6346C6.84833 26.1115 8.6206 29.9514 3.89453 33.4959C6.19193 33.4959 9.80212 34.8744 5.86373 40.3881C9.96622 40.0599 17.6789 40.6835 15.7097 45.8034C18.3353 43.3419 24.1772 39.6989 26.5403 44.8188C30.4787 42.3573 38.8478 38.9112 40.817 44.8188C44.0989 43.3419 51.2537 41.1758 53.6167 44.3265C56.7346 41.7009 63.5612 37.7297 65.9242 42.8496C67.237 40.5522 71.241 36.6467 76.7548 39.4035C73.2102 34.6775 76.9189 31.1986 79.2163 30.0499C73.7025 28.4745 76.9189 24.1423 79.2163 22.1731C75.2779 21.7792 76.5907 18.3988 77.7394 16.7578C73.4072 15.9701 74.9497 10.522 76.2625 7.8964C68.7795 10.2594 66.9088 6.9118 66.9088 4.94261C58.6382 10.0625 52.9603 6.4195 51.1552 3.95801C44.46 9.07792 40.1606 6.4195 38.8478 4.45031C31.7587 10.3579 28.0172 7.24 27.0326 4.94261C21.9127 8.881 18.9917 6.2554 18.1712 4.45031Z" fill="#E84355" stroke="#16141F" stroke-width="0.984598"/>
<path d="M0.939453 47.28V1.00391H81.6765V47.28H0.939453Z" stroke="#16141F" stroke-width="0.984598"/>
</svg>
