<svg width="121" height="64" viewBox="0 0 121 64" fill="none" xmlns="http://www.w3.org/2000/svg">
<path d="M10.704 35.1663L25.2294 63.0551L100.65 61.9395L111.823 36.8397C109.589 37.5834 105.007 38.2899 104.561 35.1663C101.395 39.2567 93.1637 44.6485 85.5658 33.493C82.4 38.1411 73.6102 44.6485 63.7776 33.493C58.9358 38.8848 47.4645 46.4334 40.3135 33.493C38.2651 37.9552 31.4865 44.2023 20.7601 33.493C18.7116 35.7241 13.8326 39.1823 10.704 35.1663Z" fill="#FAF9F9"/>
<path fill-rule="evenodd" clip-rule="evenodd" d="M10.704 35.1663C6.04843 33.1212 -2.03367 27.8037 2.88263 22.8953C9.028 16.7598 12.9381 18.4331 16.8491 20.6642C18.2157 21.4438 19.4459 19.6353 21.2547 16.976C24.6222 12.0252 29.9954 4.12564 41.9892 4.48851C56.7381 4.93473 61.1702 9.88027 61.5427 12.2973C64.1498 5.97588 73.3865 -4.43581 89.4762 4.48851C105.566 13.4128 108.098 18.9908 107.354 20.6642C109.775 18.6191 115.51 16.2021 119.086 22.8953C123.555 31.2618 116.293 36.242 111.823 36.8397C109.589 37.5834 105.007 38.2899 104.561 35.1663C101.395 39.2567 93.1637 44.6485 85.5658 33.493C82.4 38.1411 73.6102 44.6485 63.7776 33.493C58.9358 38.8848 47.4645 46.4334 40.3135 33.493C38.2651 37.9552 31.4865 44.2023 20.7601 33.493C18.7116 35.7241 13.8326 39.1823 10.704 35.1663ZM43.1066 9.50857C40.4249 9.50857 40.127 11.7397 40.3132 12.8552C40.8719 13.2271 42.1009 14.1939 42.5479 15.0863C43.1066 16.2019 48.1346 13.9708 48.1346 10.6241C48.1346 8.43323 47.4163 8.63279 45.9797 9.03193C45.2219 9.24248 44.2642 9.50857 43.1066 9.50857ZM58.1906 13.413C57.4458 13.0411 55.956 12.6321 55.956 13.9708C55.956 15.6441 59.8667 21.2218 60.984 20.1063C62.1013 18.9907 61.5427 13.9708 58.1906 13.413ZM76.6267 9.50857C73.9451 7.72369 71.0401 8.02117 69.9227 8.39302C69.9227 11.3144 72.4769 12.1105 75.3557 13.0078C75.7748 13.1384 76.2008 13.2712 76.6267 13.413C79.9788 14.5287 79.9788 11.7397 76.6267 9.50857Z" fill="#FAF9F9"/>
<path d="M40.3132 12.8552C40.127 11.7397 40.4249 9.50857 43.1066 9.50857C44.2642 9.50857 45.2219 9.24248 45.9797 9.03193C47.4163 8.63279 48.1346 8.43323 48.1346 10.6241C48.1346 13.9708 43.1066 16.2019 42.5479 15.0863C42.1009 14.1939 40.8719 13.2271 40.3132 12.8552Z" fill="#FAF9F9"/>
<path d="M58.1906 13.413C57.4458 13.0411 55.956 12.6321 55.956 13.9708C55.956 15.6441 59.8667 21.2218 60.984 20.1063C62.1013 18.9907 61.5427 13.9708 58.1906 13.413Z" fill="#FAF9F9"/>
<path d="M69.9227 8.39302C71.0401 8.02117 73.9451 7.72369 76.6267 9.50857C79.9788 11.7397 79.9788 14.5287 76.6267 13.413C76.2008 13.2712 75.7748 13.1384 75.3557 13.0078C72.4769 12.1105 69.9227 11.3144 69.9227 8.39302Z" fill="#FAF9F9"/>
<path d="M10.704 35.1663L11.0924 34.8638L11.0159 34.7657L10.902 34.7156L10.704 35.1663ZM25.2294 63.0551L24.7928 63.2825L24.9331 63.5518L25.2367 63.5473L25.2294 63.0551ZM100.65 61.9395L100.657 62.4318L100.972 62.4271L101.1 62.1397L100.65 61.9395ZM111.823 36.8397L111.758 36.3517L111.712 36.3579L111.668 36.3726L111.823 36.8397ZM104.561 35.1663L105.048 35.0966L104.883 33.9452L104.171 34.865L104.561 35.1663ZM85.5658 33.493L85.9727 33.2159L85.5658 32.6185L85.1589 33.2159L85.5658 33.493ZM63.7776 33.493L64.147 33.1675L63.7811 32.7524L63.4114 33.1641L63.7776 33.493ZM40.3135 33.493L40.7444 33.2549L40.2729 32.4016L39.8661 33.2876L40.3135 33.493ZM20.7601 33.493L21.1079 33.1446L20.7446 32.7819L20.3974 33.1601L20.7601 33.493ZM2.88263 22.8953L2.5348 22.5469L2.88263 22.8953ZM41.9892 4.48851L42.0041 3.99643L41.9892 4.48851ZM61.5427 12.2973L61.0561 12.3722L61.3249 14.1165L61.9978 12.485L61.5427 12.2973ZM107.354 20.6642L106.904 20.464L106.861 20.5596V20.6642H107.354ZM119.086 22.8953L119.52 22.6633L119.086 22.8953ZM58.1906 13.413L57.9708 13.8535L58.0369 13.8865L58.1098 13.8986L58.1906 13.413ZM69.9227 8.39302L69.7673 7.92591L69.4304 8.03801V8.39302H69.9227ZM76.6267 9.50857L76.354 9.91839L76.6267 9.50857ZM76.6267 13.413L76.4713 13.8801L76.6267 13.413ZM40.3132 12.8552L39.8276 12.9363L39.8628 13.1468L40.0404 13.265L40.3132 12.8552ZM42.5479 15.0863L42.9881 14.8659L42.5479 15.0863ZM21.2547 16.976L20.8476 16.6992V16.6992L21.2547 16.976ZM45.9797 9.03193L45.8479 8.5576V8.5576L45.9797 9.03193ZM75.3557 13.0078L75.5022 12.5378L75.5022 12.5378L75.3557 13.0078ZM10.2674 35.3938L24.7928 63.2825L25.6661 62.8277L11.1406 34.9389L10.2674 35.3938ZM25.2367 63.5473L100.657 62.4318L100.643 61.4473L25.2221 62.5628L25.2367 63.5473ZM101.1 62.1397L112.273 37.0399L111.374 36.6395L100.2 61.7393L101.1 62.1397ZM111.668 36.3726C110.585 36.7331 108.951 37.076 107.562 36.9626C106.868 36.906 106.278 36.739 105.848 36.4441C105.435 36.1611 105.14 35.7419 105.048 35.0966L104.073 35.2361C104.204 36.1526 104.65 36.8164 105.291 37.2562C105.916 37.684 106.694 37.8796 107.481 37.9439C109.053 38.0722 110.827 37.69 111.979 37.3068L111.668 36.3726ZM104.171 34.865C102.633 36.8523 99.8877 39.1181 96.6586 39.5591C93.4894 39.9919 89.6976 38.685 85.9727 33.2159L85.1589 33.7702C89.0318 39.4566 93.1545 41.0314 96.7918 40.5346C100.369 40.0461 103.322 37.5708 104.95 35.4677L104.171 34.865ZM85.1589 33.2159C83.6207 35.4743 80.7279 38.1593 77.0693 38.9379C73.4598 39.706 68.9746 38.6446 64.147 33.1675L63.4083 33.8185C68.4133 39.4969 73.2392 40.7596 77.2742 39.9009C81.2601 39.0526 84.345 36.1599 85.9727 33.7702L85.1589 33.2159ZM63.4114 33.1641C61.0246 35.822 57.0318 38.9737 52.8075 39.8864C50.7089 40.3399 48.5677 40.2383 46.5275 39.2661C44.4853 38.2928 42.4955 36.4236 40.7444 33.2549L39.8826 33.7311C41.707 37.0326 43.8328 39.0725 46.1039 40.1549C48.3772 41.2382 50.7472 41.3389 53.0155 40.8488C57.5252 39.8744 61.6889 36.5559 64.1439 33.8219L63.4114 33.1641ZM39.8661 33.2876C38.8796 35.4365 36.7708 37.9694 33.6774 38.7033C30.6165 39.4295 26.4062 38.4345 21.1079 33.1446L20.4122 33.8414C25.8404 39.2608 30.3826 40.4969 33.9047 39.6613C37.3943 38.8334 39.6989 36.0117 40.7609 33.6984L39.8661 33.2876ZM20.3974 33.1601C19.405 34.241 17.739 35.6014 15.9771 36.2068C15.1021 36.5074 14.2299 36.6129 13.4134 36.4322C12.6062 36.2536 11.8108 35.7861 11.0924 34.8638L10.3156 35.4689C11.1615 36.5546 12.1492 37.1608 13.2007 37.3935C14.243 37.6242 15.3052 37.4787 16.297 37.1379C18.2689 36.4604 20.0666 34.9762 21.1227 33.826L20.3974 33.1601ZM10.902 34.7156C8.60259 33.7055 5.49008 31.899 3.56902 29.7744C2.60898 28.7126 1.98777 27.6167 1.8651 26.5401C1.74572 25.4923 2.0895 24.3828 3.23046 23.2437L2.5348 22.5469C1.21761 23.862 0.728038 25.2578 0.886831 26.6515C1.04234 28.0163 1.81081 29.2979 2.8387 30.4347C4.89352 32.7072 8.14984 34.582 10.506 35.6171L10.902 34.7156ZM3.23046 23.2437C6.25334 20.2257 8.65526 19.1987 10.7191 19.1343C12.8024 19.0693 14.65 19.9765 16.6051 21.0918L17.093 20.2366C15.1371 19.1208 13.0742 18.0758 10.6884 18.1502C8.28309 18.2253 5.65729 19.4294 2.5348 22.5469L3.23046 23.2437ZM41.9743 4.98058C49.3002 5.20222 54.0148 6.54052 56.926 8.08851C59.8534 9.64517 60.903 11.3788 61.0561 12.3722L62.0292 12.2223C61.8099 10.7988 60.4572 8.85109 57.3882 7.21918C54.303 5.5786 49.4271 4.22101 42.0041 3.99643L41.9743 4.98058ZM61.9978 12.485C63.2677 9.40593 66.1572 5.33 70.6701 3.11779C75.1516 0.921046 81.3124 0.523325 89.2374 4.91902L89.715 4.058C81.5503 -0.470626 75.0479 -0.124663 70.2368 2.2337C65.4572 4.5766 62.4248 8.86721 61.0876 12.1096L61.9978 12.485ZM89.2374 4.91902C97.2598 9.36874 101.867 12.9652 104.369 15.6323C105.62 16.9662 106.33 18.0517 106.685 18.8794C107.045 19.7213 107.009 20.2267 106.904 20.464L107.803 20.8644C108.07 20.265 107.998 19.4457 107.59 18.4921C107.176 17.5244 106.387 16.3439 105.087 14.9586C102.487 12.1872 97.7822 8.53259 89.715 4.058L89.2374 4.91902ZM107.671 21.0403C108.827 20.0638 110.76 19.0168 112.792 18.9952C114.77 18.9741 116.939 19.9221 118.651 23.1273L119.52 22.6633C117.657 19.1754 115.171 17.9852 112.781 18.0106C110.447 18.0355 108.301 19.2195 107.036 20.2881L107.671 21.0403ZM118.651 23.1273C119.732 25.1507 120.088 26.9383 119.974 28.4834C119.86 30.0284 119.273 31.3643 118.416 32.4811C116.689 34.7314 113.88 36.0681 111.758 36.3517L111.889 37.3276C114.237 37.0137 117.293 35.5613 119.197 33.0805C120.156 31.8318 120.826 30.3165 120.956 28.556C121.086 26.7955 120.674 24.8232 119.52 22.6633L118.651 23.1273ZM58.4105 12.9725C58.0092 12.7722 57.3619 12.5351 56.7743 12.5585C56.4725 12.5706 56.1295 12.6543 55.8609 12.9101C55.5847 13.1731 55.4637 13.5445 55.4637 13.9708H56.4483C56.4483 13.7277 56.5135 13.6482 56.5399 13.6231C56.5739 13.5907 56.6499 13.5489 56.8136 13.5423C57.1572 13.5286 57.6272 13.6819 57.9708 13.8535L58.4105 12.9725ZM55.4637 13.9708C55.4637 14.262 55.5457 14.5936 55.6617 14.9238C55.7806 15.2622 55.9482 15.6347 56.1474 16.0188C56.5458 16.7872 57.0853 17.6304 57.6596 18.383C58.2298 19.1302 58.8554 19.8159 59.4319 20.2476C59.7167 20.4609 60.0259 20.6401 60.3372 20.7114C60.6692 20.7875 61.0418 20.7442 61.3318 20.4547L60.6362 19.7579C60.6325 19.7616 60.6317 19.7615 60.6339 19.7603C60.6361 19.7591 60.6375 19.7588 60.6365 19.759C60.634 19.7596 60.6108 19.764 60.5571 19.7517C60.4406 19.725 60.261 19.6384 60.0221 19.4595C59.551 19.1068 58.9895 18.5027 58.4423 17.7857C57.8993 17.0741 57.3913 16.2789 57.0215 15.5656C56.8366 15.209 56.69 14.88 56.5906 14.5974C56.4885 14.3066 56.4483 14.0979 56.4483 13.9708H55.4637ZM61.3318 20.4547C61.7364 20.0507 61.9255 19.3822 61.9809 18.7087C62.0384 18.0101 61.9616 17.201 61.7366 16.415C61.2916 14.8599 60.2135 13.2505 58.2715 12.9274L58.1098 13.8986C59.5198 14.1332 60.3971 15.3128 60.79 16.6859C60.9841 17.3641 61.0469 18.054 60.9996 18.6279C60.9503 19.2268 60.7902 19.6041 60.6362 19.7579L61.3318 20.4547ZM70.0782 8.86013C71.0865 8.52456 73.8264 8.23606 76.354 9.91839L76.8995 9.09875C74.0638 7.21133 70.9936 7.51779 69.7673 7.92591L70.0782 8.86013ZM76.354 9.91839C77.1546 10.4513 77.7392 11.0073 78.1186 11.5125C78.5061 12.0282 78.6485 12.4479 78.6485 12.7158C78.6485 12.8417 78.6178 12.9209 78.5817 12.972C78.5463 13.0221 78.4822 13.0785 78.3568 13.1203C78.0864 13.2103 77.5805 13.2116 76.7822 12.9459L76.4713 13.8801C77.349 14.1722 78.1001 14.2434 78.6677 14.0545C78.9613 13.9568 79.2115 13.7867 79.3856 13.5404C79.559 13.2952 79.6331 13.0083 79.6331 12.7158C79.6331 12.1471 79.3564 11.5209 78.9059 10.9211C78.4473 10.3107 77.7749 9.68137 76.8995 9.09875L76.354 9.91839ZM40.7988 12.7742C40.7176 12.2881 40.7487 11.5731 41.065 11.0022C41.3577 10.4741 41.9298 10.0009 43.1066 10.0009V9.01627C41.6017 9.01627 40.684 9.65858 40.2038 10.5249C39.7474 11.3485 39.7225 12.3068 39.8276 12.9363L40.7988 12.7742ZM47.6423 10.6241C47.6423 12.0466 46.5586 13.311 45.2882 14.1121C44.6637 14.5059 44.0402 14.7562 43.5645 14.8467C43.3242 14.8924 43.1521 14.8914 43.0474 14.8699C42.946 14.8491 42.9675 14.8249 42.9881 14.8659L42.1077 15.3068C42.2679 15.6266 42.5688 15.7768 42.8493 15.8344C43.1265 15.8913 43.4388 15.8729 43.7485 15.814C44.3726 15.6953 45.1109 15.3879 45.8133 14.945C47.1966 14.0727 48.6269 12.5483 48.6269 10.6241H47.6423ZM42.9881 14.8659C42.7241 14.3387 42.2521 13.8253 41.8064 13.4138C41.3529 12.9951 40.8852 12.6446 40.586 12.4454L40.0404 13.265C40.2999 13.4377 40.7261 13.7565 41.1385 14.1373C41.5587 14.5252 41.9248 14.9414 42.1077 15.3068L42.9881 14.8659ZM16.3664 20.7609C16.7965 22.9083 17.5493 24.2429 18.5846 24.9491C19.6281 25.6608 20.8414 25.6551 21.998 25.3976C23.1478 25.1417 24.3389 24.6135 25.3823 24.1773C25.9137 23.9552 26.4079 23.7558 26.8619 23.6117C27.3189 23.4665 27.705 23.3875 28.0225 23.3875V22.4029C27.5578 22.4029 27.0605 22.5155 26.5639 22.6732C26.0642 22.8319 25.5345 23.0465 25.0026 23.2689C23.9196 23.7217 22.8271 24.2044 21.7841 24.4366C20.7479 24.6672 19.8592 24.6266 19.1394 24.1357C18.4115 23.6392 17.7396 22.6033 17.3318 20.5675L16.3664 20.7609ZM28.0225 23.3875C28.8934 23.3875 29.8981 23.7008 31.0214 24.2144C32.1402 24.726 33.3227 25.4101 34.5524 26.1116C35.7719 26.8074 37.0342 27.5181 38.2765 28.0535C39.5167 28.588 40.7753 28.9652 41.9892 28.9652V27.9806C40.9685 27.9806 39.8527 27.6606 38.6662 27.1493C37.4818 26.6388 36.265 25.9551 35.0403 25.2564C33.8258 24.5635 32.5991 23.8532 31.4308 23.319C30.267 22.7868 29.1069 22.4029 28.0225 22.4029V23.3875ZM41.9892 28.9652C44.3393 28.9652 45.9607 28.2253 47.5 27.5268C49.0334 26.8309 50.4847 26.1763 52.6039 26.1763V25.1917C50.2539 25.1917 48.6324 25.9316 47.0931 26.6302C45.5598 27.326 44.1085 27.9806 41.9892 27.9806V28.9652ZM52.6039 26.1763C54.7543 26.1763 57.0572 26.8486 59.4486 27.5508C61.8059 28.243 64.2517 28.9652 66.5707 28.9652V27.9806C64.4203 27.9806 62.1175 27.3083 59.726 26.6061C57.3688 25.9139 54.923 25.1917 52.6039 25.1917V26.1763ZM66.5707 28.9652C71.026 28.9652 75.0922 28.9767 79.1473 26.0848L78.5756 25.2832C74.8093 27.9691 71.0541 27.9806 66.5707 27.9806V28.9652ZM79.1473 26.0848C80.8898 24.8422 83.323 25.1776 85.7673 25.9446C86.9727 26.3228 88.119 26.7845 89.1381 27.1649C89.6421 27.3531 90.1173 27.5221 90.5413 27.6441C90.9589 27.7644 91.3613 27.8496 91.7108 27.8496V26.8651C91.5017 26.8651 91.2058 26.8109 90.8137 26.698C90.4281 26.5869 89.9823 26.4291 89.4825 26.2425C88.4939 25.8734 87.3008 25.3938 86.062 25.0051C83.6179 24.2382 80.7438 23.737 78.5756 25.2832L79.1473 26.0848ZM91.7108 27.8496C92.3702 27.8496 93.1442 27.6078 93.9501 27.293C94.762 26.9758 95.6945 26.5468 96.6532 26.1366C98.6062 25.301 100.759 24.503 102.884 24.503V23.5184C100.54 23.5184 98.2236 24.3937 96.2659 25.2314C95.2692 25.6579 94.3861 26.0656 93.5918 26.3759C92.7915 26.6886 92.1689 26.8651 91.7108 26.8651V27.8496ZM102.884 24.503C104.781 24.503 106.035 23.9074 106.815 23.097C107.582 22.2989 107.846 21.3359 107.846 20.6642H106.861C106.861 21.108 106.678 21.8182 106.105 22.4145C105.543 22.9985 104.563 23.5184 102.884 23.5184V24.503ZM42.0041 3.99643C29.7247 3.62493 24.2157 11.7475 20.8476 16.6992L21.6618 17.2529C25.0287 12.3029 30.2662 4.62636 41.9743 4.98058L42.0041 3.99643ZM20.8476 16.6992C19.931 18.0468 19.2028 19.1131 18.5423 19.7573C18.215 20.0765 17.944 20.251 17.7172 20.3196C17.5147 20.3807 17.321 20.3667 17.093 20.2366L16.6051 21.0918C17.0605 21.3516 17.533 21.4038 18.002 21.2621C18.4468 21.1277 18.8526 20.83 19.2298 20.4621C19.9783 19.7321 20.7696 18.5646 21.6618 17.2529L20.8476 16.6992ZM48.6269 10.6241C48.6269 10.059 48.5817 9.60113 48.4692 9.24612C48.3528 8.87902 48.1485 8.57756 47.8106 8.41376C47.496 8.26129 47.1505 8.27199 46.8491 8.31743C46.5438 8.36346 46.1975 8.46048 45.8479 8.5576L46.1115 9.50626C46.4802 9.40381 46.7625 9.32621 46.9959 9.29103C47.2331 9.25526 47.3366 9.27816 47.3811 9.29977C47.4023 9.31004 47.4675 9.34454 47.5306 9.54373C47.5976 9.75503 47.6423 10.0938 47.6423 10.6241H48.6269ZM45.8479 8.5576C45.0899 8.76819 44.1902 9.01627 43.1066 9.01627V10.0009C44.3382 10.0009 45.3538 9.71677 46.1115 9.50626L45.8479 8.5576ZM69.4304 8.39302C69.4304 9.19844 69.6074 9.88175 69.939 10.464C70.2692 11.0439 70.7378 11.4973 71.2835 11.867C72.3547 12.5927 73.7915 13.0359 75.2092 13.4778L75.5022 12.5378C74.0411 12.0824 72.7614 11.6789 71.8358 11.0518C71.3831 10.7452 71.0332 10.3957 70.7946 9.97672C70.5573 9.55999 70.415 9.04828 70.415 8.39302H69.4304ZM75.2092 13.4778C75.629 13.6086 76.0505 13.74 76.4713 13.8801L76.7822 12.9459C76.351 12.8024 75.9206 12.6682 75.5022 12.5378L75.2092 13.4778Z" fill="#16141F"/>
<path d="M20.0574 48.3215V40.4693H27.031V48.3215H26.2664V40.9206L26.4805 41.1463H20.6079L20.822 40.9206V48.3215H20.0574Z" fill="#16141F"/>
<path d="M30.3324 48.3215V40.4693H31.0971V47.1632L36.7861 40.4693H37.459V48.3215H36.6944V41.6276L31.0053 48.3215H30.3324Z" fill="#16141F"/>
<path d="M44.7789 48.3817C44.0754 48.3817 43.4382 48.2212 42.8673 47.9003C42.3065 47.5794 41.8579 47.1231 41.5215 46.5315C41.1952 45.9298 41.0321 45.2178 41.0321 44.3954C41.0321 43.5731 41.1952 42.8661 41.5215 42.2744C41.8579 41.6727 42.3065 41.2114 42.8673 40.8905C43.4382 40.5696 44.0754 40.4092 44.7789 40.4092C45.5334 40.4092 46.2063 40.5797 46.7976 40.9206C47.3991 41.2516 47.8681 41.7179 48.2046 42.3196C48.5512 42.9213 48.7245 43.6132 48.7245 44.3954C48.7245 45.1776 48.5512 45.8696 48.2046 46.4713C47.8681 47.073 47.3991 47.5443 46.7976 47.8853C46.2063 48.2162 45.5334 48.3817 44.7789 48.3817ZM40.7721 51.2398V40.4693H41.5062V43.0416L41.3839 44.4105L41.5368 45.7793V51.2398H40.7721ZM44.733 47.7048C45.3448 47.7048 45.8953 47.5694 46.3847 47.2986C46.8741 47.0178 47.2564 46.6267 47.5317 46.1253C47.8172 45.6239 47.9599 45.0473 47.9599 44.3954C47.9599 43.7336 47.8172 43.1569 47.5317 42.6656C47.2564 42.1641 46.8741 41.778 46.3847 41.5073C45.8953 41.2265 45.3448 41.0861 44.733 41.0861C44.1213 41.0861 43.5708 41.2265 43.0814 41.5073C42.6022 41.778 42.2199 42.1641 41.9344 42.6656C41.6591 43.1569 41.5215 43.7336 41.5215 44.3954C41.5215 45.0473 41.6591 45.6239 41.9344 46.1253C42.2199 46.6267 42.6022 47.0178 43.0814 47.2986C43.5708 47.5694 44.1213 47.7048 44.733 47.7048Z" fill="#16141F"/>
<path d="M54.3921 48.3817C53.6274 48.3817 52.9443 48.2112 52.3428 47.8702C51.7515 47.5293 51.2774 47.058 50.9205 46.4563C50.5739 45.8546 50.4006 45.1676 50.4006 44.3954C50.4006 43.6132 50.5739 42.9263 50.9205 42.3346C51.2774 41.7329 51.7515 41.2616 52.3428 40.9206C52.9443 40.5797 53.6274 40.4092 54.3921 40.4092C55.1567 40.4092 55.8398 40.5797 56.4413 40.9206C57.0429 41.2616 57.517 41.7329 57.8636 42.3346C58.2103 42.9263 58.3836 43.6132 58.3836 44.3954C58.3836 45.1676 58.2103 45.8546 57.8636 46.4563C57.517 47.058 57.0429 47.5293 56.4413 47.8702C55.8398 48.2112 55.1567 48.3817 54.3921 48.3817ZM54.3921 47.7048C55.0038 47.7048 55.5543 47.5694 56.0437 47.2986C56.5331 47.0178 56.9154 46.6267 57.1907 46.1253C57.466 45.6239 57.6036 45.0473 57.6036 44.3954C57.6036 43.7336 57.466 43.1569 57.1907 42.6656C56.9154 42.1641 56.5331 41.778 56.0437 41.5073C55.5543 41.2265 55.0038 41.0861 54.3921 41.0861C53.7803 41.0861 53.2298 41.2265 52.7404 41.5073C52.2612 41.778 51.8789 42.1641 51.5934 42.6656C51.3182 43.1569 51.1805 43.7336 51.1805 44.3954C51.1805 45.0473 51.3182 45.6239 51.5934 46.1253C51.8789 46.6267 52.2612 47.0178 52.7404 47.2986C53.2298 47.5694 53.7803 47.7048 54.3921 47.7048Z" fill="#16141F"/>
<path d="M60.8738 48.3215V40.4693H66.3335V41.1463H61.4244L61.6385 40.9357V48.3215H60.8738Z" fill="#16141F"/>
<path d="M35.9179 60.1971C35.2144 60.1971 34.5772 60.0367 34.0063 59.7158C33.4455 59.3949 32.9969 58.9386 32.6605 58.3469C32.3342 57.7452 32.1711 57.0332 32.1711 56.2109C32.1711 55.3885 32.3342 54.6815 32.6605 54.0899C32.9969 53.4882 33.4455 53.0269 34.0063 52.706C34.5772 52.3851 35.2144 52.2246 35.9179 52.2246C36.6724 52.2246 37.3453 52.3951 37.9366 52.7361C38.5381 53.067 39.0071 53.5333 39.3436 54.135C39.6902 54.7367 39.8636 55.4287 39.8636 56.2109C39.8636 56.9931 39.6902 57.685 39.3436 58.2867C39.0071 58.8884 38.5381 59.3598 37.9366 59.7007C37.3453 60.0317 36.6724 60.1971 35.9179 60.1971ZM31.9111 63.0552V52.2848H32.6452V54.857L32.5229 56.2259L32.6758 57.5948V63.0552H31.9111ZM35.872 59.5202C36.4838 59.5202 37.0343 59.3848 37.5237 59.1141C38.0131 58.8333 38.3954 58.4422 38.6707 57.9407C38.9562 57.4393 39.0989 56.8627 39.0989 56.2109C39.0989 55.549 38.9562 54.9724 38.6707 54.481C38.3954 53.9796 38.0131 53.5935 37.5237 53.3227C37.0343 53.0419 36.4838 52.9015 35.872 52.9015C35.2603 52.9015 34.7098 53.0419 34.2204 53.3227C33.7412 53.5935 33.3589 53.9796 33.0734 54.481C32.7981 54.9724 32.6605 55.549 32.6605 56.2109C32.6605 56.8627 32.7981 57.4393 33.0734 57.9407C33.3589 58.4422 33.7412 58.8333 34.2204 59.1141C34.7098 59.3848 35.2603 59.5202 35.872 59.5202Z" fill="#16141F"/>
<path d="M45.5311 60.1971C44.7664 60.1971 44.0833 60.0266 43.4818 59.6857C42.8905 59.3447 42.4164 58.8734 42.0595 58.2717C41.7129 57.67 41.5396 56.983 41.5396 56.2109C41.5396 55.4287 41.7129 54.7417 42.0595 54.15C42.4164 53.5483 42.8905 53.077 43.4818 52.7361C44.0833 52.3951 44.7664 52.2246 45.5311 52.2246C46.2957 52.2246 46.9788 52.3951 47.5804 52.7361C48.1819 53.077 48.656 53.5483 49.0026 54.15C49.3493 54.7417 49.5226 55.4287 49.5226 56.2109C49.5226 56.983 49.3493 57.67 49.0026 58.2717C48.656 58.8734 48.1819 59.3447 47.5804 59.6857C46.9788 60.0266 46.2957 60.1971 45.5311 60.1971ZM45.5311 59.5202C46.1428 59.5202 46.6934 59.3848 47.1827 59.1141C47.6721 58.8333 48.0544 58.4422 48.3297 57.9407C48.605 57.4393 48.7426 56.8627 48.7426 56.2109C48.7426 55.549 48.605 54.9724 48.3297 54.481C48.0544 53.9796 47.6721 53.5935 47.1827 53.3227C46.6934 53.0419 46.1428 52.9015 45.5311 52.9015C44.9194 52.9015 44.3688 53.0419 43.8794 53.3227C43.4002 53.5935 43.0179 53.9796 42.7324 54.481C42.4572 54.9724 42.3195 55.549 42.3195 56.2109C42.3195 56.8627 42.4572 57.4393 42.7324 57.9407C43.0179 58.4422 43.4002 58.8333 43.8794 59.1141C44.3688 59.3848 44.9194 59.5202 45.5311 59.5202Z" fill="#16141F"/>
<path d="M52.0128 60.1369V52.2848H57.4725V52.9617H52.5634L52.7775 52.7511V60.1369H52.0128Z" fill="#16141F"/>
<path fill-rule="evenodd" clip-rule="evenodd" d="M21.4714 52.2848V56.577L22.2361 57.6851V52.2848H21.4714ZM22.7287 58.399L23.1287 58.9787L27.8334 53.443V60.1369H28.598V52.2848H27.9251L22.7287 58.399Z" fill="#16141F"/>
<path d="M60.4265 60.1369V52.2848H67.4002V60.1369H66.6355V52.7361L66.8496 52.9617H60.9771L61.1912 52.7361V60.1369H60.4265Z" fill="#16141F"/>
<path d="M70.7016 60.1369V52.2848H71.4662V58.9787L77.1553 52.2848H77.8282V60.1369H77.0635V53.443L71.3745 60.1369H70.7016Z" fill="#16141F"/>
<path d="M85.1481 60.1971C84.4446 60.1971 83.8074 60.0367 83.2364 59.7158C82.6757 59.3949 82.2271 58.9386 81.8906 58.3469C81.5644 57.7452 81.4013 57.0332 81.4013 56.2109C81.4013 55.3885 81.5644 54.6815 81.8906 54.0899C82.2271 53.4882 82.6757 53.0269 83.2364 52.706C83.8074 52.3851 84.4446 52.2246 85.1481 52.2246C85.9025 52.2246 86.5754 52.3951 87.1668 52.7361C87.7683 53.067 88.2373 53.5333 88.5737 54.135C88.9204 54.7367 89.0937 55.4287 89.0937 56.2109C89.0937 56.9931 88.9204 57.685 88.5737 58.2867C88.2373 58.8884 87.7683 59.3598 87.1668 59.7007C86.5754 60.0317 85.9025 60.1971 85.1481 60.1971ZM81.1413 63.0552V52.2848H81.8753V54.857L81.753 56.2259L81.9059 57.5948V63.0552H81.1413ZM85.1022 59.5202C85.7139 59.5202 86.2645 59.3848 86.7538 59.1141C87.2432 58.8333 87.6255 58.4422 87.9008 57.9407C88.1863 57.4393 88.329 56.8627 88.329 56.2109C88.329 55.549 88.1863 54.9724 87.9008 54.481C87.6255 53.9796 87.2432 53.5935 86.7538 53.3227C86.2645 53.0419 85.7139 52.9015 85.1022 52.9015C84.4905 52.9015 83.9399 53.0419 83.4505 53.3227C82.9713 53.5935 82.589 53.9796 82.3035 54.481C82.0283 54.9724 81.8906 55.549 81.8906 56.2109C81.8906 56.8627 82.0283 57.4393 82.3035 57.9407C82.589 58.4422 82.9713 58.8333 83.4505 59.1141C83.9399 59.3848 84.4905 59.5202 85.1022 59.5202Z" fill="#16141F"/>
<path d="M94.7612 60.1971C93.9966 60.1971 93.3135 60.0266 92.7119 59.6857C92.1206 59.3447 91.6465 58.8734 91.2897 58.2717C90.943 57.67 90.7697 56.983 90.7697 56.2109C90.7697 55.4287 90.943 54.7417 91.2897 54.15C91.6465 53.5483 92.1206 53.077 92.7119 52.7361C93.3135 52.3951 93.9966 52.2246 94.7612 52.2246C95.5259 52.2246 96.209 52.3951 96.8105 52.7361C97.412 53.077 97.8861 53.5483 98.2327 54.15C98.5794 54.7417 98.7527 55.4287 98.7527 56.2109C98.7527 56.983 98.5794 57.67 98.2327 58.2717C97.8861 58.8734 97.412 59.3447 96.8105 59.6857C96.209 60.0266 95.5259 60.1971 94.7612 60.1971ZM94.7612 59.5202C95.3729 59.5202 95.9235 59.3848 96.4129 59.1141C96.9022 58.8333 97.2846 58.4422 97.5599 57.9407C97.8351 57.4393 97.9728 56.8627 97.9728 56.2109C97.9728 55.549 97.8351 54.9724 97.5599 54.481C97.2846 53.9796 96.9022 53.5935 96.4129 53.3227C95.9235 53.0419 95.3729 52.9015 94.7612 52.9015C94.1495 52.9015 93.5989 53.0419 93.1096 53.3227C92.6304 53.5935 92.248 53.9796 91.9626 54.481C91.6873 54.9724 91.5497 55.549 91.5497 56.2109C91.5497 56.8627 91.6873 57.4393 91.9626 57.9407C92.248 58.4422 92.6304 58.8333 93.1096 59.1141C93.5989 59.3848 94.1495 59.5202 94.7612 59.5202Z" fill="#16141F"/>
<path d="M99.4294 62.0706V52.2848H104.889V52.9617H99.98L100.194 52.7511V62.0706H99.4294Z" fill="#16141F"/>
<path d="M69.2878 48.3215V40.4693H76.2615V48.3215H75.4968V40.9206L75.7109 41.1463H69.8384L70.0525 40.9206V48.3215H69.2878Z" fill="#16141F"/>
<path d="M79.5629 48.3215V40.4693H80.3276V47.1632L86.0166 40.4693H86.6895V48.3215H85.9248V41.6276L80.2358 48.3215H79.5629Z" fill="#16141F"/>
<path d="M94.0094 48.3817C93.3059 48.3817 92.6687 48.2212 92.0978 47.9003C91.537 47.5794 91.0884 47.1231 90.752 46.5315C90.4257 45.9298 90.2626 45.2178 90.2626 44.3954C90.2626 43.5731 90.4257 42.8661 90.752 42.2744C91.0884 41.6727 91.537 41.2114 92.0978 40.8905C92.6687 40.5696 93.3059 40.4092 94.0094 40.4092C94.7638 40.4092 95.4367 40.5797 96.0281 40.9206C96.6296 41.2516 97.0986 41.7179 97.435 42.3196C97.7817 42.9213 97.955 43.6132 97.955 44.3954C97.955 45.1776 97.7817 45.8696 97.435 46.4713C97.0986 47.073 96.6296 47.5443 96.0281 47.8853C95.4367 48.2162 94.7638 48.3817 94.0094 48.3817ZM90.0026 49.7629V40.4693H90.7367V43.0416L90.6143 44.4105L90.7673 45.7793V49.7629H90.0026ZM93.9635 47.7048C94.5752 47.7048 95.1258 47.5694 95.6152 47.2986C96.1045 47.0178 96.4869 46.6267 96.7621 46.1253C97.0476 45.6239 97.1904 45.0473 97.1904 44.3954C97.1904 43.7336 97.0476 43.1569 96.7621 42.6655C96.4869 42.1641 96.1045 41.778 95.6152 41.5073C95.1258 41.2265 94.5752 41.0861 93.9635 41.0861C93.3518 41.0861 92.8012 41.2265 92.3119 41.5073C91.8327 41.778 91.4503 42.1641 91.1649 42.6655C90.8896 43.1569 90.752 43.7336 90.752 44.3954C90.752 45.0473 90.8896 45.6239 91.1649 46.1253C91.4503 46.6267 91.8327 47.0178 92.3119 47.2986C92.8012 47.5694 93.3518 47.7048 93.9635 47.7048Z" fill="#16141F"/>
<path d="M103.623 48.3817C102.858 48.3817 102.175 48.2112 101.573 47.8702C100.982 47.5293 100.508 47.058 100.151 46.4563C99.8044 45.8546 99.631 45.1676 99.631 44.3954C99.631 43.6132 99.8044 42.9263 100.151 42.3346C100.508 41.7329 100.982 41.2616 101.573 40.9206C102.175 40.5797 102.858 40.4092 103.623 40.4092C104.387 40.4092 105.07 40.5797 105.672 40.9206C106.273 41.2616 106.747 41.7329 107.094 42.3346C107.441 42.9263 107.614 43.6132 107.614 44.3954C107.614 45.1676 107.441 45.8546 107.094 46.4563C106.747 47.058 106.273 47.5293 105.672 47.8702C105.07 48.2112 104.387 48.3817 103.623 48.3817ZM103.623 47.7048C104.234 47.7048 104.785 47.5694 105.274 47.2986C105.764 47.0178 106.146 46.6267 106.421 46.1253C106.696 45.6239 106.834 45.0473 106.834 44.3954C106.834 43.7336 106.696 43.1569 106.421 42.6655C106.146 42.1641 105.764 41.778 105.274 41.5073C104.785 41.2265 104.234 41.0861 103.623 41.0861C103.011 41.0861 102.46 41.2265 101.971 41.5073C101.492 41.778 101.109 42.1641 100.824 42.6655C100.549 43.1569 100.411 43.7336 100.411 44.3954C100.411 45.0473 100.549 45.6239 100.824 46.1253C101.109 46.6267 101.492 47.0178 101.971 47.2986C102.46 47.5694 103.011 47.7048 103.623 47.7048Z" fill="#16141F"/>
</svg>
