<svg width="56" height="34" viewBox="0 0 56 34" fill="none" xmlns="http://www.w3.org/2000/svg">
<path d="M9.23082 17.4481C9.30429 17.4643 9.37891 17.4757 9.45467 17.4822C12.7449 17.764 31.1155 19.4109 41.3368 20.3275C41.9541 20.3829 42.5424 20.4356 43.0951 20.4852L54.8867 21.5428C54.8867 25.2563 53.5523 26.4887 52.4769 26.7144H51.7283H6.05327C1.38858 26.7144 0.546352 20.0041 0.708321 16.6837L9.23082 17.4481Z" fill="#E84355"/>
<path d="M43.0951 20.4852C46.0105 18.6226 51.2911 12.2344 49.5418 0.961426H4.83857C4.9178 6.26961 5.91868 16.7171 9.23082 17.4481M43.0951 20.4852C42.5424 20.4356 41.9541 20.3829 41.3368 20.3275M43.0951 20.4852L54.8867 21.5428M54.8867 21.5428C54.8867 25.2563 53.5523 26.4887 52.4769 26.7144M54.8867 21.5428L41.3368 20.3275M6.05327 26.7144C1.38858 26.7144 0.546352 20.0041 0.708321 16.6837L9.23082 17.4481M6.05327 26.7144C10.718 26.7144 38.4469 26.7144 51.7283 26.7144M6.05327 26.7144H0.708321C0.870289 28.658 1.68013 32.5452 3.62375 32.5452C5.56737 32.5452 36.8273 32.5452 52.2142 32.5452C53.1051 32.3023 54.8867 30.796 54.8867 26.7144H52.4769M6.05327 26.7144H51.7283M51.7283 26.7144H52.4769M51.7283 26.7144C51.943 26.7639 52.2015 26.7722 52.4769 26.7144M9.23082 17.4481C9.30429 17.4643 9.37891 17.4757 9.45467 17.4822C12.7449 17.764 31.1155 19.4109 41.3368 20.3275M9.23082 17.4481L41.3368 20.3275" stroke="#16141F" stroke-width="0.984598"/>
</svg>
