<svg width="293" height="314" viewBox="0 0 293 314" fill="none" xmlns="http://www.w3.org/2000/svg">
<path d="M122 300V224H187.469V300H176.829V230.623L179.434 233.446H130.034L132.749 230.623V300H122Z" fill="#16141F"/>
<path d="M213 300V224H278.469V300H267.829V230.623L270.434 233.446H221.034L223.749 230.623V300H213Z" fill="#16141F"/>
<path d="M111.215 70.9427C128.171 61.617 142.301 68.47 147.246 73.0622C148.306 80.1273 145.975 93.8336 128.171 92.138C110.367 90.4424 109.449 87.8991 111.215 86.8393C107.682 86.8393 100.405 84.9318 99.5569 77.3016C98.7091 69.6714 106.976 69.8831 111.215 70.9427Z" fill="#FAF9F9"/>
<path d="M111.215 70.9427C115.807 74.8284 129.443 80.6924 147.246 73.0622M111.215 70.9427C128.171 61.617 142.301 68.47 147.246 73.0622M111.215 70.9427C106.976 69.8831 98.7091 69.6714 99.5569 77.3016C100.405 84.9318 107.682 86.8393 111.215 86.8393C109.449 87.8991 110.367 90.4424 128.171 92.138C145.975 93.8336 148.306 80.1273 147.246 73.0622M111.215 74.1224V83.6601C109.095 84.0133 104.855 83.6601 104.855 79.4211C104.855 75.1821 109.095 74.1224 111.215 74.1224Z" stroke="#16141F"/>
<path d="M134.526 58.2263C137.352 56.8133 146.82 53.9873 162.08 53.9873C177.34 53.9873 184.688 56.8133 186.454 58.2263C192.106 56.8133 203.411 57.1665 203.411 69.8835C203.411 82.6004 188.575 85.7797 181.157 85.7797C181.157 90.8664 168.439 91.4316 162.08 91.0784C146.438 91.0784 138.819 84.9549 135.588 77.3831C134.704 75.3129 134.149 73.1344 133.847 70.9432C133.233 66.4892 133.668 61.9828 134.526 58.2263Z" fill="#FAF9F9"/>
<path d="M134.526 58.2263C137.352 56.8133 146.82 53.9873 162.08 53.9873C177.34 53.9873 184.688 56.8133 186.454 58.2263M134.526 58.2263C139.472 59.6393 151.906 62.4653 162.08 62.4653C172.253 62.4653 182.568 59.6393 186.454 58.2263M134.526 58.2263C133.668 61.9828 133.233 66.4892 133.847 70.9432M186.454 58.2263C192.106 56.8133 203.411 57.1665 203.411 69.8835C203.411 82.6004 188.575 85.7797 181.157 85.7797C181.157 90.8664 168.439 91.4316 162.08 91.0784C146.438 91.0784 138.819 84.9549 135.588 77.3831M184.865 72.003L186.454 63.525C189.634 63.1718 196.205 64.1609 197.053 70.9432C197.901 77.7256 188.222 80.1277 183.276 80.4809L183.857 77.3831M184.865 72.003L133.847 70.9432M184.865 72.003L183.857 77.3831M133.847 70.9432C134.149 73.1344 134.704 75.3129 135.588 77.3831M135.588 77.3831H183.857" stroke="#16141F"/>
<path d="M278.653 104.854H10.5375C8.77125 104.854 5.23877 103.582 5.23877 98.4955C5.23877 93.4088 8.77125 92.1371 10.5375 92.1371H278.653C281.479 91.7838 287.131 92.561 287.131 98.4955C287.131 104.43 281.479 105.207 278.653 104.854Z" fill="#FAF9F9" stroke="#16141F"/>
<path d="M278.414 312.789H10.2987C8.53248 312.789 5 311.517 5 306.43C5 301.343 8.53248 300.072 10.2987 300.072H278.414C281.24 299.718 286.892 300.496 286.892 306.43C286.892 312.365 281.24 313.142 278.414 312.789Z" fill="#FAF9F9" stroke="#16141F"/>
<path d="M114.393 138.767C108.458 138.767 92.8448 127.463 85.7799 121.811L84.7201 122.988L76.2422 132.408L49.7485 153.603C64.2317 178.331 97.4371 223.546 114.393 206.591C129.798 191.185 115.461 168.782 103.968 156.866C101.428 155.718 100.616 154.401 100.616 153.603C101.683 154.573 102.811 155.666 103.968 156.866C105.924 157.75 108.907 158.533 113.333 158.902C126.05 159.962 121.811 138.767 114.393 138.767Z" fill="#E84355"/>
<path fill-rule="evenodd" clip-rule="evenodd" d="M78.3617 109.094C83.6604 109.094 84.7201 111.213 84.7201 113.333V122.988L76.2422 132.408V121.811H74.0431L74.1227 112.273C74.0887 112.171 74.0612 112.059 74.0431 111.941C73.8734 110.825 74.5307 109.094 78.3617 109.094ZM163.141 113.333C162.788 111.92 163.141 109.094 167.38 109.094C171.619 109.094 172.679 111.92 172.679 113.333H199.173C199.526 111.92 201.08 109.094 204.471 109.094C207.862 109.094 208.71 111.92 208.71 113.333C208.555 114.111 208.208 115.23 207.651 116.241V128.169C207.651 128.876 207.015 130.289 204.471 130.289C206.238 130.995 209.77 134.104 209.77 140.886C210.83 137.707 213.797 131.561 217.188 132.408C219.952 133.099 220.914 137.393 220.074 140.886H228.845V149.364C236.264 149.364 234.144 158.902 230.965 159.962C232.378 161.728 234.356 166.108 230.965 169.499C230.404 170.06 229.681 170.378 228.845 170.502C229.199 172.994 229.057 178.401 225.666 180.097C224.578 180.641 223.075 180.108 221.427 178.981C222.134 181.826 222.063 187.727 216.129 188.575C213.843 188.901 212.113 187.143 210.83 184.474C210.83 186.548 209.134 190.694 202.352 190.694C199.417 190.694 198.327 188.049 198.228 184.474C194.758 185.991 187.334 187.708 185.396 182.441L191.754 175.697L199.596 167.38L206.591 159.962L193.511 147.245L172.679 126.992L168.44 121.811L163.141 130.289V113.333ZM103.968 156.866C101.428 155.718 100.616 154.401 100.616 153.603C101.683 154.573 102.811 155.666 103.968 156.866ZM141.946 159.962L168.44 131.349L198.113 158.902L171.619 188.575L141.946 159.962Z" fill="#FAF9F9"/>
<path fill-rule="evenodd" clip-rule="evenodd" d="M168.44 121.811L163.141 130.289L134.528 159.962L171.619 197.053L185.396 182.441L191.754 175.697L199.596 167.38L206.591 159.962L193.511 147.245L172.679 126.992L168.44 121.811ZM168.44 131.349L141.946 159.962L171.619 188.575L198.113 158.902L168.44 131.349Z" fill="#E84355"/>
<path d="M74.1227 112.273L74.6227 112.277L74.6233 112.194L74.597 112.115L74.1227 112.273ZM74.0431 121.811L73.5431 121.807L73.5389 122.311H74.0431V121.811ZM76.2422 121.811H76.7422V121.311H76.2422V121.811ZM76.2422 132.408L76.5545 132.799L76.5864 132.773L76.6138 132.743L76.2422 132.408ZM85.7799 121.811L86.0922 121.421L85.7238 121.126L85.4082 121.476L85.7799 121.811ZM113.333 158.902L113.292 159.4L113.333 158.902ZM100.616 153.603L100.953 153.233L100.116 152.473V153.603H100.616ZM114.393 206.591L114.039 206.237L114.393 206.591ZM49.7485 153.603L49.4362 153.213L49.0986 153.483L49.3171 153.856L49.7485 153.603ZM163.141 130.289L163.501 130.636L163.538 130.598L163.565 130.554L163.141 130.289ZM168.44 121.811L168.827 121.494L168.385 120.955L168.016 121.546L168.44 121.811ZM206.591 159.962L206.955 160.305L207.292 159.947L206.939 159.603L206.591 159.962ZM171.619 197.053L171.266 197.406L171.63 197.771L171.983 197.396L171.619 197.053ZM134.528 159.962L134.168 159.615L133.827 159.968L134.175 160.315L134.528 159.962ZM172.679 126.992L172.292 127.309L172.31 127.331L172.33 127.35L172.679 126.992ZM141.946 159.962L141.579 159.622L141.247 159.982L141.599 160.322L141.946 159.962ZM168.44 131.349L168.78 130.982L168.413 130.642L168.073 131.009L168.44 131.349ZM198.113 158.902L198.486 159.235L198.812 158.869L198.453 158.536L198.113 158.902ZM171.619 188.575L171.272 188.935L171.646 189.295L171.992 188.908L171.619 188.575ZM201.025 128.169H200.525V128.201L200.529 128.232L201.025 128.169ZM217.188 132.408L217.31 131.923L217.188 132.408ZM208.432 146L208.307 145.516L207.806 145.645L207.952 146.141L208.432 146ZM211.583 150.424L211.472 149.937L211.583 150.424ZM228.845 140.886H229.345V140.386H228.845V140.886ZM230.965 159.962L230.807 159.487L230.965 159.962ZM230.965 169.499L230.611 169.146L230.965 169.499ZM225.666 180.097L225.443 179.65L225.666 180.097ZM228.845 170.502L228.772 170.008L228.845 170.502ZM216.129 188.575L216.058 188.08L216.129 188.575ZM221.427 178.981L221.71 178.568L221.427 178.981ZM210.83 184.474L211.28 184.258L210.83 184.474ZM216.129 174.091L215.757 174.425L216.129 174.091ZM209.77 178.981V179.481H209.912L210.032 179.407L209.77 178.981ZM198.228 184.474L198.728 184.461L198.228 184.474ZM185.396 182.441L185.032 182.098L185.396 182.441ZM201.237 134.528L201.668 134.782L201.237 134.528ZM199.182 140.514L199.681 140.537L199.182 140.514ZM199.596 167.38L199.233 167.037L199.596 167.38ZM51.868 112.773H74.1227V111.773H51.868V112.773ZM78.3617 109.594C80.9602 109.594 82.407 110.116 83.2025 110.798C83.9785 111.463 84.2201 112.356 84.2201 113.333H85.2201C85.2201 112.191 84.9319 110.964 83.8533 110.039C82.7943 109.131 81.0619 108.594 78.3617 108.594V109.594ZM84.2201 113.333C84.2201 114.154 83.5826 115.085 82.5656 115.847C81.5627 116.599 80.341 117.072 79.4214 117.072V118.072C80.6213 118.072 82.0489 117.485 83.1656 116.647C84.268 115.82 85.2201 114.631 85.2201 113.333H84.2201ZM74.597 112.115C74.572 112.04 74.5513 111.956 74.5374 111.865L73.5488 112.016C73.5712 112.163 73.6053 112.302 73.6483 112.431L74.597 112.115ZM74.5374 111.865C74.4728 111.44 74.5631 110.906 75.0407 110.467C75.5327 110.014 76.5087 109.594 78.3617 109.594V108.594C76.3837 108.594 75.1156 109.039 74.3636 109.731C73.5972 110.436 73.4438 111.326 73.5488 112.016L74.5374 111.865ZM79.4214 117.072C79.1661 117.072 78.7963 116.921 78.3221 116.559C77.8629 116.208 77.3716 115.709 76.8848 115.136C75.9126 113.992 75.0087 112.611 74.4759 111.69L73.6104 112.191C74.1638 113.147 75.1012 114.582 76.1227 115.784C76.6328 116.384 77.1764 116.942 77.7148 117.353C78.2383 117.753 78.8289 118.072 79.4214 118.072V117.072ZM73.6227 112.269L73.5431 121.807L74.5431 121.815L74.6227 112.277L73.6227 112.269ZM74.0431 122.311H76.2422V121.311H74.0431V122.311ZM75.7422 121.811V132.408H76.7422V121.811H75.7422ZM85.4675 122.201C89.0099 125.035 94.6941 129.285 100.241 132.83C103.014 134.602 105.762 136.203 108.197 137.364C110.611 138.514 112.788 139.267 114.393 139.267V138.267C113.031 138.267 111.031 137.607 108.627 136.461C106.244 135.325 103.535 133.748 100.78 131.987C95.2699 128.466 89.6148 124.239 86.0922 121.421L85.4675 122.201ZM114.393 139.267C115.994 139.267 117.518 140.418 118.722 142.329C119.916 144.223 120.722 146.759 120.915 149.27C121.109 151.788 120.682 154.208 119.496 155.918C118.334 157.593 116.396 158.656 113.375 158.404L113.292 159.4C116.629 159.678 118.93 158.489 120.318 156.488C121.682 154.522 122.116 151.842 121.912 149.193C121.708 146.538 120.858 143.842 119.568 141.795C118.289 139.766 116.501 138.267 114.393 138.267V139.267ZM114.039 206.237C111.993 208.283 109.72 209.378 107.276 209.7C104.823 210.024 102.166 209.576 99.358 208.476C93.7314 206.273 87.5974 201.497 81.4977 195.375C69.3083 183.142 57.4109 165.696 50.18 153.351L49.3171 153.856C56.5694 166.238 68.5162 183.764 80.7893 196.081C86.9207 202.235 93.1725 207.128 98.9934 209.407C101.909 210.549 104.741 211.044 107.407 210.692C110.081 210.339 112.554 209.137 114.747 206.944L114.039 206.237ZM50.0609 153.994L76.5545 132.799L75.9298 132.018L49.4362 153.213L50.0609 153.994ZM76.6138 132.743L85.0918 123.323L84.3485 122.654L75.8705 132.074L76.6138 132.743ZM85.0918 123.323L86.1515 122.145L85.4082 121.476L84.3485 122.654L85.0918 123.323ZM84.2201 113.333V122.988H85.2201V113.333H84.2201ZM84.7201 113.833H163.141V112.833H84.7201V113.833ZM163.626 113.212C163.472 112.596 163.481 111.689 163.958 110.956C164.414 110.254 165.377 109.594 167.38 109.594V108.594C165.145 108.594 163.811 109.347 163.119 110.411C162.448 111.444 162.457 112.657 162.656 113.454L163.626 113.212ZM167.38 109.594C169.379 109.594 170.561 110.255 171.248 111.018C171.949 111.797 172.179 112.733 172.179 113.333H173.179C173.179 112.52 172.879 111.336 171.991 110.349C171.088 109.346 169.621 108.594 167.38 108.594V109.594ZM172.232 113.109C171.892 113.789 171.278 114.812 170.551 115.656C170.188 116.078 169.81 116.441 169.437 116.695C169.061 116.951 168.726 117.072 168.44 117.072V118.072C169.002 118.072 169.532 117.84 170 117.522C170.47 117.201 170.913 116.769 171.309 116.308C172.102 115.387 172.76 114.29 173.126 113.557L172.232 113.109ZM168.44 117.072C168.145 117.072 167.759 116.945 167.297 116.676C166.844 116.413 166.362 116.039 165.887 115.611C164.936 114.754 164.057 113.72 163.541 113.033L162.741 113.633C163.286 114.359 164.208 115.444 165.218 116.354C165.722 116.809 166.261 117.23 166.794 117.541C167.32 117.846 167.888 118.072 168.44 118.072V117.072ZM162.641 113.333V130.289H163.641V113.333H162.641ZM163.565 130.554L168.864 122.076L168.016 121.546L162.717 130.024L163.565 130.554ZM171.973 196.699L134.882 159.608L134.175 160.315L171.266 197.406L171.973 196.699ZM134.888 160.309L163.501 130.636L162.781 129.942L134.168 159.615L134.888 160.309ZM168.053 122.128L172.292 127.309L173.066 126.675L168.827 121.494L168.053 122.128ZM172.179 113.333V126.992H173.179V113.333H172.179ZM142.313 160.301L168.807 131.688L168.073 131.009L141.579 159.622L142.313 160.301ZM168.1 131.715L197.773 159.268L198.453 158.536L168.78 130.982L168.1 131.715ZM197.74 158.569L171.246 188.242L171.992 188.908L198.486 159.235L197.74 158.569ZM171.966 188.215L142.293 159.602L141.599 160.322L171.272 188.935L171.966 188.215ZM172.679 113.833H199.173V112.833H172.679V113.833ZM199.658 113.454C199.986 112.141 201.415 109.594 204.471 109.594V108.594C200.745 108.594 199.066 111.699 198.688 113.212L199.658 113.454ZM204.471 109.594C206.004 109.594 206.914 110.221 207.457 110.976C208.018 111.756 208.21 112.706 208.21 113.333H209.21C209.21 112.546 208.978 111.378 208.268 110.391C207.54 109.38 206.33 108.594 204.471 108.594V109.594ZM204.471 118.132C203.388 118.132 202.329 117.337 201.415 116.199L200.635 116.825C201.592 118.017 202.91 119.132 204.471 119.132V118.132ZM201.415 116.199C200.587 115.169 199.962 113.959 199.637 113.147L198.708 113.519C199.062 114.403 199.734 115.703 200.635 116.825L201.415 116.199ZM200.525 116.512V128.169H201.525V116.512H200.525ZM200.529 128.232C200.653 129.215 201.703 130.789 204.471 130.789V129.789C202.152 129.789 201.575 128.537 201.521 128.107L200.529 128.232ZM204.471 130.789C205.837 130.789 206.764 130.408 207.354 129.861C207.937 129.321 208.151 128.657 208.151 128.169H207.151C207.151 128.389 207.046 128.784 206.675 129.127C206.312 129.464 205.649 129.789 204.471 129.789V130.789ZM208.22 113.235C208.073 113.972 207.74 115.042 207.213 115.999L208.088 116.482C208.675 115.419 209.037 114.249 209.201 113.431L208.22 113.235ZM207.213 115.999C206.526 117.245 205.607 118.132 204.471 118.132V119.132C206.183 119.132 207.359 117.805 208.088 116.482L207.213 115.999ZM208.151 128.169V116.241H207.151V128.169H208.151ZM204.286 130.753C205.845 131.377 209.27 134.29 209.27 140.886H210.27C210.27 133.918 206.63 130.614 204.657 129.825L204.286 130.753ZM210.244 141.044C210.765 139.484 211.752 137.202 213.013 135.427C213.643 134.538 214.323 133.805 215.022 133.346C215.713 132.892 216.392 132.725 217.067 132.893L217.31 131.923C216.289 131.668 215.325 131.951 214.473 132.51C213.629 133.065 212.865 133.908 212.197 134.848C210.861 136.729 209.835 139.11 209.296 140.728L210.244 141.044ZM209.27 140.886C209.27 141.664 209.298 142.355 209.312 142.931C209.325 143.52 209.323 143.984 209.273 144.359C209.223 144.73 209.132 144.965 209.002 145.127C208.878 145.281 208.678 145.42 208.307 145.516L208.557 146.484C209.076 146.35 209.488 146.119 209.782 145.753C210.071 145.393 210.202 144.956 210.264 144.492C210.326 144.03 210.325 143.495 210.311 142.908C210.297 142.31 210.27 141.649 210.27 140.886H209.27ZM198.691 140.752C198.241 142.368 197.788 144.813 197.916 146.878C197.98 147.907 198.19 148.9 198.669 149.65C199.167 150.432 199.944 150.924 201.025 150.924V149.924C200.303 149.924 199.836 149.621 199.512 149.112C199.166 148.57 198.973 147.775 198.914 146.817C198.796 144.908 199.219 142.584 199.654 141.02L198.691 140.752ZM207.952 146.141C208.009 146.333 208.007 146.548 207.962 146.807C207.914 147.079 207.833 147.334 207.748 147.654C207.597 148.229 207.424 149.041 208.072 149.712L208.791 149.017C208.561 148.778 208.56 148.496 208.715 147.909C208.784 147.649 208.889 147.307 208.946 146.98C209.006 146.64 209.028 146.254 208.912 145.859L207.952 146.141ZM201.025 150.924C202.132 150.924 203.126 150.989 204.007 151.055C204.877 151.12 205.663 151.189 206.314 151.189C206.955 151.189 207.561 151.126 208.035 150.86C208.555 150.57 208.842 150.082 208.928 149.429L207.936 149.299C207.883 149.706 207.737 149.881 207.547 149.988C207.31 150.12 206.926 150.189 206.314 150.189C205.711 150.189 204.979 150.125 204.081 150.058C203.194 149.991 202.171 149.924 201.025 149.924V150.924ZM208.072 149.712C208.979 150.65 210.201 151.252 211.694 150.912L211.472 149.937C210.413 150.178 209.529 149.78 208.791 149.017L208.072 149.712ZM211.694 150.912C213.441 150.514 215.406 148.858 217.61 145.394L216.766 144.857C214.593 148.273 212.814 149.631 211.472 149.937L211.694 150.912ZM211.103 150.287C210.792 151.375 210.482 153.028 210.587 154.435C210.64 155.136 210.799 155.834 211.165 156.369C211.552 156.935 212.147 157.283 212.949 157.283V156.283C212.48 156.283 212.193 156.1 211.991 155.805C211.768 155.479 211.631 154.985 211.585 154.361C211.492 153.119 211.77 151.593 212.064 150.561L211.103 150.287ZM229.345 149.364C229.345 149.359 229.345 149.354 229.345 149.349C229.345 149.344 229.345 149.339 229.345 149.334C229.345 149.329 229.345 149.324 229.345 149.319C229.345 149.314 229.345 149.309 229.345 149.304C229.345 149.299 229.345 149.294 229.345 149.289C229.345 149.284 229.345 149.279 229.345 149.274C229.345 149.269 229.345 149.264 229.345 149.259C229.345 149.254 229.345 149.249 229.345 149.244C229.345 149.239 229.345 149.234 229.345 149.229C229.345 149.224 229.345 149.219 229.345 149.213C229.345 149.208 229.345 149.203 229.345 149.198C229.345 149.193 229.345 149.188 229.345 149.183C229.345 149.178 229.345 149.173 229.345 149.167C229.345 149.162 229.345 149.157 229.345 149.152C229.345 149.147 229.345 149.142 229.345 149.137C229.345 149.132 229.345 149.126 229.345 149.121C229.345 149.116 229.345 149.111 229.345 149.106C229.345 149.101 229.345 149.095 229.345 149.09C229.345 149.085 229.345 149.08 229.345 149.075C229.345 149.069 229.345 149.064 229.345 149.059C229.345 149.054 229.345 149.049 229.345 149.043C229.345 149.038 229.345 149.033 229.345 149.028C229.345 149.023 229.345 149.017 229.345 149.012C229.345 149.007 229.345 149.002 229.345 148.996C229.345 148.991 229.345 148.986 229.345 148.981C229.345 148.975 229.345 148.97 229.345 148.965C229.345 148.96 229.345 148.954 229.345 148.949C229.345 148.944 229.345 148.938 229.345 148.933C229.345 148.928 229.345 148.923 229.345 148.917C229.345 148.912 229.345 148.907 229.345 148.901C229.345 148.896 229.345 148.891 229.345 148.885C229.345 148.88 229.345 148.875 229.345 148.869C229.345 148.864 229.345 148.859 229.345 148.853C229.345 148.848 229.345 148.843 229.345 148.837C229.345 148.832 229.345 148.827 229.345 148.821C229.345 148.816 229.345 148.81 229.345 148.805C229.345 148.8 229.345 148.794 229.345 148.789C229.345 148.784 229.345 148.778 229.345 148.773C229.345 148.767 229.345 148.762 229.345 148.757C229.345 148.751 229.345 148.746 229.345 148.74C229.345 148.735 229.345 148.73 229.345 148.724C229.345 148.719 229.345 148.713 229.345 148.708C229.345 148.702 229.345 148.697 229.345 148.691C229.345 148.686 229.345 148.681 229.345 148.675C229.345 148.67 229.345 148.664 229.345 148.659C229.345 148.653 229.345 148.648 229.345 148.642C229.345 148.637 229.345 148.631 229.345 148.626C229.345 148.62 229.345 148.615 229.345 148.609C229.345 148.604 229.345 148.598 229.345 148.593C229.345 148.587 229.345 148.582 229.345 148.576C229.345 148.571 229.345 148.565 229.345 148.56C229.345 148.554 229.345 148.549 229.345 148.543C229.345 148.538 229.345 148.532 229.345 148.527C229.345 148.521 229.345 148.516 229.345 148.51C229.345 148.505 229.345 148.499 229.345 148.493C229.345 148.488 229.345 148.482 229.345 148.477C229.345 148.471 229.345 148.466 229.345 148.46C229.345 148.454 229.345 148.449 229.345 148.443C229.345 148.438 229.345 148.432 229.345 148.426C229.345 148.421 229.345 148.415 229.345 148.41C229.345 148.404 229.345 148.398 229.345 148.393C229.345 148.387 229.345 148.382 229.345 148.376C229.345 148.37 229.345 148.365 229.345 148.359C229.345 148.354 229.345 148.348 229.345 148.342C229.345 148.337 229.345 148.331 229.345 148.325C229.345 148.32 229.345 148.314 229.345 148.308C229.345 148.303 229.345 148.297 229.345 148.291C229.345 148.286 229.345 148.28 229.345 148.274C229.345 148.269 229.345 148.263 229.345 148.257C229.345 148.252 229.345 148.246 229.345 148.24C229.345 148.235 229.345 148.229 229.345 148.223C229.345 148.218 229.345 148.212 229.345 148.206C229.345 148.2 229.345 148.195 229.345 148.189C229.345 148.183 229.345 148.178 229.345 148.172C229.345 148.166 229.345 148.16 229.345 148.155C229.345 148.149 229.345 148.143 229.345 148.137C229.345 148.132 229.345 148.126 229.345 148.12C229.345 148.115 229.345 148.109 229.345 148.103C229.345 148.097 229.345 148.091 229.345 148.086C229.345 148.08 229.345 148.074 229.345 148.068C229.345 148.063 229.345 148.057 229.345 148.051C229.345 148.045 229.345 148.04 229.345 148.034C229.345 148.028 229.345 148.022 229.345 148.016C229.345 148.011 229.345 148.005 229.345 147.999C229.345 147.993 229.345 147.987 229.345 147.982C229.345 147.976 229.345 147.97 229.345 147.964C229.345 147.958 229.345 147.953 229.345 147.947C229.345 147.941 229.345 147.935 229.345 147.929C229.345 147.923 229.345 147.918 229.345 147.912C229.345 147.906 229.345 147.9 229.345 147.894C229.345 147.888 229.345 147.883 229.345 147.877C229.345 147.871 229.345 147.865 229.345 147.859C229.345 147.853 229.345 147.848 229.345 147.842C229.345 147.836 229.345 147.83 229.345 147.824C229.345 147.818 229.345 147.812 229.345 147.806C229.345 147.801 229.345 147.795 229.345 147.789C229.345 147.783 229.345 147.777 229.345 147.771C229.345 147.765 229.345 147.759 229.345 147.753C229.345 147.748 229.345 147.742 229.345 147.736C229.345 147.73 229.345 147.724 229.345 147.718C229.345 147.712 229.345 147.706 229.345 147.7C229.345 147.694 229.345 147.689 229.345 147.683C229.345 147.677 229.345 147.671 229.345 147.665C229.345 147.659 229.345 147.653 229.345 147.647C229.345 147.641 229.345 147.635 229.345 147.629C229.345 147.623 229.345 147.617 229.345 147.611C229.345 147.605 229.345 147.6 229.345 147.594C229.345 147.588 229.345 147.582 229.345 147.576C229.345 147.57 229.345 147.564 229.345 147.558C229.345 147.552 229.345 147.546 229.345 147.54C229.345 147.534 229.345 147.528 229.345 147.522C229.345 147.516 229.345 147.51 229.345 147.504C229.345 147.498 229.345 147.492 229.345 147.486C229.345 147.48 229.345 147.474 229.345 147.468C229.345 147.462 229.345 147.456 229.345 147.45C229.345 147.444 229.345 147.438 229.345 147.432C229.345 147.426 229.345 147.42 229.345 147.414C229.345 147.408 229.345 147.402 229.345 147.396C229.345 147.39 229.345 147.384 229.345 147.378C229.345 147.372 229.345 147.366 229.345 147.36C229.345 147.354 229.345 147.348 229.345 147.342C229.345 147.336 229.345 147.33 229.345 147.324C229.345 147.318 229.345 147.312 229.345 147.306C229.345 147.3 229.345 147.294 229.345 147.288C229.345 147.282 229.345 147.276 229.345 147.27C229.345 147.263 229.345 147.257 229.345 147.251C229.345 147.245 229.345 147.239 229.345 147.233C229.345 147.227 229.345 147.221 229.345 147.215C229.345 147.209 229.345 147.203 229.345 147.197C229.345 147.191 229.345 147.185 229.345 147.179C229.345 147.173 229.345 147.166 229.345 147.16C229.345 147.154 229.345 147.148 229.345 147.142C229.345 147.136 229.345 147.13 229.345 147.124C229.345 147.118 229.345 147.112 229.345 147.106C229.345 147.1 229.345 147.093 229.345 147.087C229.345 147.081 229.345 147.075 229.345 147.069C229.345 147.063 229.345 147.057 229.345 147.051C229.345 147.045 229.345 147.039 229.345 147.032C229.345 147.026 229.345 147.02 229.345 147.014C229.345 147.008 229.345 147.002 229.345 146.996C229.345 146.99 229.345 146.984 229.345 146.977C229.345 146.971 229.345 146.965 229.345 146.959C229.345 146.953 229.345 146.947 229.345 146.941C229.345 146.935 229.345 146.928 229.345 146.922C229.345 146.916 229.345 146.91 229.345 146.904C229.345 146.898 229.345 146.892 229.345 146.886C229.345 146.879 229.345 146.873 229.345 146.867C229.345 146.861 229.345 146.855 229.345 146.849C229.345 146.843 229.345 146.836 229.345 146.83C229.345 146.824 229.345 146.818 229.345 146.812C229.345 146.806 229.345 146.799 229.345 146.793C229.345 146.787 229.345 146.781 229.345 146.775C229.345 146.769 229.345 146.763 229.345 146.756C229.345 146.75 229.345 146.744 229.345 146.738C229.345 146.732 229.345 146.726 229.345 146.719C229.345 146.713 229.345 146.707 229.345 146.701C229.345 146.695 229.345 146.689 229.345 146.682C229.345 146.676 229.345 146.67 229.345 146.664C229.345 146.658 229.345 146.651 229.345 146.645C229.345 146.639 229.345 146.633 229.345 146.627C229.345 146.621 229.345 146.614 229.345 146.608C229.345 146.602 229.345 146.596 229.345 146.59C229.345 146.583 229.345 146.577 229.345 146.571C229.345 146.565 229.345 146.559 229.345 146.552C229.345 146.546 229.345 146.54 229.345 146.534C229.345 146.528 229.345 146.521 229.345 146.515C229.345 146.509 229.345 146.503 229.345 146.497C229.345 146.49 229.345 146.484 229.345 146.478C229.345 146.472 229.345 146.466 229.345 146.459C229.345 146.453 229.345 146.447 229.345 146.441C229.345 146.435 229.345 146.428 229.345 146.422C229.345 146.416 229.345 146.41 229.345 146.404C229.345 146.397 229.345 146.391 229.345 146.385C229.345 146.379 229.345 146.373 229.345 146.366C229.345 146.36 229.345 146.354 229.345 146.348C229.345 146.341 229.345 146.335 229.345 146.329C229.345 146.323 229.345 146.317 229.345 146.31C229.345 146.304 229.345 146.298 229.345 146.292C229.345 146.285 229.345 146.279 229.345 146.273C229.345 146.267 229.345 146.261 229.345 146.254C229.345 146.248 229.345 146.242 229.345 146.236C229.345 146.229 229.345 146.223 229.345 146.217C229.345 146.211 229.345 146.204 229.345 146.198C229.345 146.192 229.345 146.186 229.345 146.18C229.345 146.173 229.345 146.167 229.345 146.161C229.345 146.155 229.345 146.148 229.345 146.142C229.345 146.136 229.345 146.13 229.345 146.123C229.345 146.117 229.345 146.111 229.345 146.105C229.345 146.098 229.345 146.092 229.345 146.086C229.345 146.08 229.345 146.074 229.345 146.067C229.345 146.061 229.345 146.055 229.345 146.049C229.345 146.042 229.345 146.036 229.345 146.03C229.345 146.024 229.345 146.017 229.345 146.011C229.345 146.005 229.345 145.999 229.345 145.992C229.345 145.986 229.345 145.98 229.345 145.974C229.345 145.967 229.345 145.961 229.345 145.955C229.345 145.949 229.345 145.942 229.345 145.936C229.345 145.93 229.345 145.924 229.345 145.917C229.345 145.911 229.345 145.905 229.345 145.899C229.345 145.892 229.345 145.886 229.345 145.88C229.345 145.874 229.345 145.867 229.345 145.861C229.345 145.855 229.345 145.849 229.345 145.842C229.345 145.836 229.345 145.83 229.345 145.824C229.345 145.817 229.345 145.811 229.345 145.805C229.345 145.799 229.345 145.793 229.345 145.786C229.345 145.78 229.345 145.774 229.345 145.768C229.345 145.761 229.345 145.755 229.345 145.749C229.345 145.743 229.345 145.736 229.345 145.73C229.345 145.724 229.345 145.718 229.345 145.711C229.345 145.705 229.345 145.699 229.345 145.693C229.345 145.686 229.345 145.68 229.345 145.674C229.345 145.668 229.345 145.661 229.345 145.655C229.345 145.649 229.345 145.643 229.345 145.636C229.345 145.63 229.345 145.624 229.345 145.618C229.345 145.611 229.345 145.605 229.345 145.599C229.345 145.593 229.345 145.586 229.345 145.58C229.345 145.574 229.345 145.568 229.345 145.561C229.345 145.555 229.345 145.549 229.345 145.543C229.345 145.536 229.345 145.53 229.345 145.524C229.345 145.518 229.345 145.511 229.345 145.505C229.345 145.499 229.345 145.493 229.345 145.486C229.345 145.48 229.345 145.474 229.345 145.468C229.345 145.461 229.345 145.455 229.345 145.449C229.345 145.443 229.345 145.437 229.345 145.43C229.345 145.424 229.345 145.418 229.345 145.412C229.345 145.405 229.345 145.399 229.345 145.393C229.345 145.387 229.345 145.38 229.345 145.374C229.345 145.368 229.345 145.362 229.345 145.355C229.345 145.349 229.345 145.343 229.345 145.337C229.345 145.33 229.345 145.324 229.345 145.318C229.345 145.312 229.345 145.306 229.345 145.299C229.345 145.293 229.345 145.287 229.345 145.281C229.345 145.274 229.345 145.268 229.345 145.262C229.345 145.256 229.345 145.25 229.345 145.243C229.345 145.237 229.345 145.231 229.345 145.225C229.345 145.218 229.345 145.212 229.345 145.206C229.345 145.2 229.345 145.193 229.345 145.187C229.345 145.181 229.345 145.175 229.345 145.169C229.345 145.162 229.345 145.156 229.345 145.15C229.345 145.144 229.345 145.138 229.345 145.131C229.345 145.125 229.345 145.119 229.345 145.113C229.345 145.106 229.345 145.1 229.345 145.094C229.345 145.088 229.345 145.082 229.345 145.075C229.345 145.069 229.345 145.063 229.345 145.057C229.345 145.051 229.345 145.044 229.345 145.038C229.345 145.032 229.345 145.026 229.345 145.02C229.345 145.013 229.345 145.007 229.345 145.001C229.345 144.995 229.345 144.989 229.345 144.982C229.345 144.976 229.345 144.97 229.345 144.964C229.345 144.958 229.345 144.951 229.345 144.945C229.345 144.939 229.345 144.933 229.345 144.927C229.345 144.92 229.345 144.914 229.345 144.908C229.345 144.902 229.345 144.896 229.345 144.89C229.345 144.883 229.345 144.877 229.345 144.871C229.345 144.865 229.345 144.859 229.345 144.852C229.345 144.846 229.345 144.84 229.345 144.834C229.345 144.828 229.345 144.822 229.345 144.815C229.345 144.809 229.345 144.803 229.345 144.797C229.345 144.791 229.345 144.785 229.345 144.778C229.345 144.772 229.345 144.766 229.345 144.76C229.345 144.754 229.345 144.748 229.345 144.741C229.345 144.735 229.345 144.729 229.345 144.723C229.345 144.717 229.345 144.711 229.345 144.704C229.345 144.698 229.345 144.692 229.345 144.686C229.345 144.68 229.345 144.674 229.345 144.668C229.345 144.661 229.345 144.655 229.345 144.649C229.345 144.643 229.345 144.637 229.345 144.631C229.345 144.625 229.345 144.618 229.345 144.612C229.345 144.606 229.345 144.6 229.345 144.594C229.345 144.588 229.345 144.582 229.345 144.576C229.345 144.569 229.345 144.563 229.345 144.557C229.345 144.551 229.345 144.545 229.345 144.539C229.345 144.533 229.345 144.527 229.345 144.52C229.345 144.514 229.345 144.508 229.345 144.502C229.345 144.496 229.345 144.49 229.345 144.484C229.345 144.478 229.345 144.472 229.345 144.465C229.345 144.459 229.345 144.453 229.345 144.447C229.345 144.441 229.345 144.435 229.345 144.429C229.345 144.423 229.345 144.417 229.345 144.411C229.345 144.404 229.345 144.398 229.345 144.392C229.345 144.386 229.345 144.38 229.345 144.374C229.345 144.368 229.345 144.362 229.345 144.356C229.345 144.35 229.345 144.344 229.345 144.338C229.345 144.331 229.345 144.325 229.345 144.319C229.345 144.313 229.345 144.307 229.345 144.301C229.345 144.295 229.345 144.289 229.345 144.283C229.345 144.277 229.345 144.271 229.345 144.265C229.345 144.259 229.345 144.253 229.345 144.247C229.345 144.241 229.345 144.235 229.345 144.229C229.345 144.222 229.345 144.216 229.345 144.21C229.345 144.204 229.345 144.198 229.345 144.192C229.345 144.186 229.345 144.18 229.345 144.174C229.345 144.168 229.345 144.162 229.345 144.156C229.345 144.15 229.345 144.144 229.345 144.138C229.345 144.132 229.345 144.126 229.345 144.12C229.345 144.114 229.345 144.108 229.345 144.102C229.345 144.096 229.345 144.09 229.345 144.084C229.345 144.078 229.345 144.072 229.345 144.066C229.345 144.06 229.345 144.054 229.345 144.048C229.345 144.042 229.345 144.036 229.345 144.03C229.345 144.024 229.345 144.018 229.345 144.012C229.345 144.006 229.345 144 229.345 143.994C229.345 143.988 229.345 143.982 229.345 143.976C229.345 143.97 229.345 143.964 229.345 143.958C229.345 143.952 229.345 143.946 229.345 143.94C229.345 143.934 229.345 143.928 229.345 143.923C229.345 143.917 229.345 143.911 229.345 143.905C229.345 143.899 229.345 143.893 229.345 143.887C229.345 143.881 229.345 143.875 229.345 143.869C229.345 143.863 229.345 143.857 229.345 143.851C229.345 143.845 229.345 143.839 229.345 143.833C229.345 143.828 229.345 143.822 229.345 143.816C229.345 143.81 229.345 143.804 229.345 143.798C229.345 143.792 229.345 143.786 229.345 143.78C229.345 143.774 229.345 143.768 229.345 143.763C229.345 143.757 229.345 143.751 229.345 143.745C229.345 143.739 229.345 143.733 229.345 143.727C229.345 143.721 229.345 143.715 229.345 143.71C229.345 143.704 229.345 143.698 229.345 143.692C229.345 143.686 229.345 143.68 229.345 143.674C229.345 143.669 229.345 143.663 229.345 143.657C229.345 143.651 229.345 143.645 229.345 143.639C229.345 143.633 229.345 143.628 229.345 143.622C229.345 143.616 229.345 143.61 229.345 143.604C229.345 143.598 229.345 143.593 229.345 143.587C229.345 143.581 229.345 143.575 229.345 143.569C229.345 143.563 229.345 143.558 229.345 143.552C229.345 143.546 229.345 143.54 229.345 143.534C229.345 143.529 229.345 143.523 229.345 143.517C229.345 143.511 229.345 143.505 229.345 143.5C229.345 143.494 229.345 143.488 229.345 143.482C229.345 143.476 229.345 143.471 229.345 143.465C229.345 143.459 229.345 143.453 229.345 143.448C229.345 143.442 229.345 143.436 229.345 143.43C229.345 143.424 229.345 143.419 229.345 143.413C229.345 143.407 229.345 143.401 229.345 143.396C229.345 143.39 229.345 143.384 229.345 143.379C229.345 143.373 229.345 143.367 229.345 143.361C229.345 143.356 229.345 143.35 229.345 143.344C229.345 143.338 229.345 143.333 229.345 143.327C229.345 143.321 229.345 143.316 229.345 143.31C229.345 143.304 229.345 143.298 229.345 143.293C229.345 143.287 229.345 143.281 229.345 143.276C229.345 143.27 229.345 143.264 229.345 143.259C229.345 143.253 229.345 143.247 229.345 143.242C229.345 143.236 229.345 143.23 229.345 143.225C229.345 143.219 229.345 143.213 229.345 143.208C229.345 143.202 229.345 143.196 229.345 143.191C229.345 143.185 229.345 143.179 229.345 143.174C229.345 143.168 229.345 143.162 229.345 143.157C229.345 143.151 229.345 143.146 229.345 143.14C229.345 143.134 229.345 143.129 229.345 143.123C229.345 143.117 229.345 143.112 229.345 143.106C229.345 143.101 229.345 143.095 229.345 143.089C229.345 143.084 229.345 143.078 229.345 143.073C229.345 143.067 229.345 143.061 229.345 143.056C229.345 143.05 229.345 143.045 229.345 143.039C229.345 143.034 229.345 143.028 229.345 143.022C229.345 143.017 229.345 143.011 229.345 143.006C229.345 143 229.345 142.995 229.345 142.989C229.345 142.984 229.345 142.978 229.345 142.973C229.345 142.967 229.345 142.961 229.345 142.956C229.345 142.95 229.345 142.945 229.345 142.939C229.345 142.934 229.345 142.928 229.345 142.923C229.345 142.917 229.345 142.912 229.345 142.906C229.345 142.901 229.345 142.895 229.345 142.89C229.345 142.884 229.345 142.879 229.345 142.873C229.345 142.868 229.345 142.863 229.345 142.857C229.345 142.852 229.345 142.846 229.345 142.841C229.345 142.835 229.345 142.83 229.345 142.824C229.345 142.819 229.345 142.813 229.345 142.808C229.345 142.803 229.345 142.797 229.345 142.792C229.345 142.786 229.345 142.781 229.345 142.775C229.345 142.77 229.345 142.765 229.345 142.759C229.345 142.754 229.345 142.748 229.345 142.743C229.345 142.738 229.345 142.732 229.345 142.727C229.345 142.721 229.345 142.716 229.345 142.711C229.345 142.705 229.345 142.7 229.345 142.695C229.345 142.689 229.345 142.684 229.345 142.678C229.345 142.673 229.345 142.668 229.345 142.662C229.345 142.657 229.345 142.652 229.345 142.646C229.345 142.641 229.345 142.636 229.345 142.63C229.345 142.625 229.345 142.62 229.345 142.614C229.345 142.609 229.345 142.604 229.345 142.599C229.345 142.593 229.345 142.588 229.345 142.583C229.345 142.577 229.345 142.572 229.345 142.567C229.345 142.561 229.345 142.556 229.345 142.551C229.345 142.546 229.345 142.54 229.345 142.535C229.345 142.53 229.345 142.525 229.345 142.519C229.345 142.514 229.345 142.509 229.345 142.504C229.345 142.498 229.345 142.493 229.345 142.488C229.345 142.483 229.345 142.477 229.345 142.472C229.345 142.467 229.345 142.462 229.345 142.457C229.345 142.451 229.345 142.446 229.345 142.441C229.345 142.436 229.345 142.431 229.345 142.425C229.345 142.42 229.345 142.415 229.345 142.41C229.345 142.405 229.345 142.4 229.345 142.394C229.345 142.389 229.345 142.384 229.345 142.379C229.345 142.374 229.345 142.369 229.345 142.364C229.345 142.358 229.345 142.353 229.345 142.348C229.345 142.343 229.345 142.338 229.345 142.333C229.345 142.328 229.345 142.323 229.345 142.317C229.345 142.312 229.345 142.307 229.345 142.302C229.345 142.297 229.345 142.292 229.345 142.287C229.345 142.282 229.345 142.277 229.345 142.272C229.345 142.267 229.345 142.262 229.345 142.256C229.345 142.251 229.345 142.246 229.345 142.241C229.345 142.236 229.345 142.231 229.345 142.226C229.345 142.221 229.345 142.216 229.345 142.211C229.345 142.206 229.345 142.201 229.345 142.196C229.345 142.191 229.345 142.186 229.345 142.181C229.345 142.176 229.345 142.171 229.345 142.166C229.345 142.161 229.345 142.156 229.345 142.151C229.345 142.146 229.345 142.141 229.345 142.136C229.345 142.131 229.345 142.126 229.345 142.121C229.345 142.117 229.345 142.112 229.345 142.107C229.345 142.102 229.345 142.097 229.345 142.092C229.345 142.087 229.345 142.082 229.345 142.077C229.345 142.072 229.345 142.067 229.345 142.062C229.345 142.058 229.345 142.053 229.345 142.048C229.345 142.043 229.345 142.038 229.345 142.033C229.345 142.028 229.345 142.023 229.345 142.019C229.345 142.014 229.345 142.009 229.345 142.004C229.345 141.999 229.345 141.994 229.345 141.99C229.345 141.985 229.345 141.98 229.345 141.975C229.345 141.97 229.345 141.965 229.345 141.961C229.345 141.956 229.345 141.951 229.345 141.946C229.345 141.941 229.345 141.937 229.345 141.932C229.345 141.927 229.345 141.922 229.345 141.918C229.345 141.913 229.345 141.908 229.345 141.903C229.345 141.899 229.345 141.894 229.345 141.889C229.345 141.884 229.345 141.88 229.345 141.875C229.345 141.87 229.345 141.865 229.345 141.861C229.345 141.856 229.345 141.851 229.345 141.847C229.345 141.842 229.345 141.837 229.345 141.833C229.345 141.828 229.345 141.823 229.345 141.818C229.345 141.814 229.345 141.809 229.345 141.805C229.345 141.8 229.345 141.795 229.345 141.791C229.345 141.786 229.345 141.781 229.345 141.777C229.345 141.772 229.345 141.767 229.345 141.763C229.345 141.758 229.345 141.754 229.345 141.749C229.345 141.744 229.345 141.74 229.345 141.735C229.345 141.731 229.345 141.726 229.345 141.721C229.345 141.717 229.345 141.712 229.345 141.708C229.345 141.703 229.345 141.699 229.345 141.694C229.345 141.69 229.345 141.685 229.345 141.681C229.345 141.676 229.345 141.671 229.345 141.667C229.345 141.662 229.345 141.658 229.345 141.653C229.345 141.649 229.345 141.644 229.345 141.64C229.345 141.635 229.345 141.631 229.345 141.627C229.345 141.622 229.345 141.618 229.345 141.613C229.345 141.609 229.345 141.604 229.345 141.6C229.345 141.595 229.345 141.591 229.345 141.586C229.345 141.582 229.345 141.578 229.345 141.573C229.345 141.569 229.345 141.564 229.345 141.56C229.345 141.556 229.345 141.551 229.345 141.547C229.345 141.542 229.345 141.538 229.345 141.534C229.345 141.529 229.345 141.525 229.345 141.521C229.345 141.516 229.345 141.512 229.345 141.508C229.345 141.503 229.345 141.499 229.345 141.495C229.345 141.49 229.345 141.486 229.345 141.482C229.345 141.477 229.345 141.473 229.345 141.469C229.345 141.464 229.345 141.46 229.345 141.456C229.345 141.452 229.345 141.447 229.345 141.443C229.345 141.439 229.345 141.435 229.345 141.43C229.345 141.426 229.345 141.422 229.345 141.418C229.345 141.413 229.345 141.409 229.345 141.405C229.345 141.401 229.345 141.397 229.345 141.392C229.345 141.388 229.345 141.384 229.345 141.38C229.345 141.376 229.345 141.371 229.345 141.367C229.345 141.363 229.345 141.359 229.345 141.355C229.345 141.351 229.345 141.347 229.345 141.342C229.345 141.338 229.345 141.334 229.345 141.33C229.345 141.326 229.345 141.322 229.345 141.318C229.345 141.314 229.345 141.309 229.345 141.305C229.345 141.301 229.345 141.297 229.345 141.293C229.345 141.289 229.345 141.285 229.345 141.281C229.345 141.277 229.345 141.273 229.345 141.269C229.345 141.265 229.345 141.261 229.345 141.257C229.345 141.253 229.345 141.249 229.345 141.245C229.345 141.241 229.345 141.237 229.345 141.233C229.345 141.229 229.345 141.225 229.345 141.221C229.345 141.217 229.345 141.213 229.345 141.209C229.345 141.205 229.345 141.201 229.345 141.197C229.345 141.193 229.345 141.189 229.345 141.185C229.345 141.181 229.345 141.177 229.345 141.173C229.345 141.17 229.345 141.166 229.345 141.162C229.345 141.158 229.345 141.154 229.345 141.15C229.345 141.146 229.345 141.142 229.345 141.139C229.345 141.135 229.345 141.131 229.345 141.127C229.345 141.123 229.345 141.119 229.345 141.116C229.345 141.112 229.345 141.108 229.345 141.104C229.345 141.1 229.345 141.096 229.345 141.093C229.345 141.089 229.345 141.085 229.345 141.081C229.345 141.078 229.345 141.074 229.345 141.07C229.345 141.066 229.345 141.063 229.345 141.059C229.345 141.055 229.345 141.051 229.345 141.048C229.345 141.044 229.345 141.04 229.345 141.037C229.345 141.033 229.345 141.029 229.345 141.025C229.345 141.022 229.345 141.018 229.345 141.014C229.345 141.011 229.345 141.007 229.345 141.003C229.345 141 229.345 140.996 229.345 140.993C229.345 140.989 229.345 140.985 229.345 140.982C229.345 140.978 229.345 140.974 229.345 140.971C229.345 140.967 229.345 140.964 229.345 140.96C229.345 140.957 229.345 140.953 229.345 140.949C229.345 140.946 229.345 140.942 229.345 140.939C229.345 140.935 229.345 140.932 229.345 140.928C229.345 140.925 229.345 140.921 229.345 140.918C229.345 140.914 229.345 140.911 229.345 140.907C229.345 140.904 229.345 140.9 229.345 140.897C229.345 140.893 229.345 140.89 229.345 140.886H228.345C228.345 140.89 228.345 140.893 228.345 140.897C228.345 140.9 228.345 140.904 228.345 140.907C228.345 140.911 228.345 140.914 228.345 140.918C228.345 140.921 228.345 140.925 228.345 140.928C228.345 140.932 228.345 140.935 228.345 140.939C228.345 140.942 228.345 140.946 228.345 140.949C228.345 140.953 228.345 140.957 228.345 140.96C228.345 140.964 228.345 140.967 228.345 140.971C228.345 140.974 228.345 140.978 228.345 140.982C228.345 140.985 228.345 140.989 228.345 140.993C228.345 140.996 228.345 141 228.345 141.003C228.345 141.007 228.345 141.011 228.345 141.014C228.345 141.018 228.345 141.022 228.345 141.025C228.345 141.029 228.345 141.033 228.345 141.037C228.345 141.04 228.345 141.044 228.345 141.048C228.345 141.051 228.345 141.055 228.345 141.059C228.345 141.063 228.345 141.066 228.345 141.07C228.345 141.074 228.345 141.078 228.345 141.081C228.345 141.085 228.345 141.089 228.345 141.093C228.345 141.096 228.345 141.1 228.345 141.104C228.345 141.108 228.345 141.112 228.345 141.116C228.345 141.119 228.345 141.123 228.345 141.127C228.345 141.131 228.345 141.135 228.345 141.139C228.345 141.142 228.345 141.146 228.345 141.15C228.345 141.154 228.345 141.158 228.345 141.162C228.345 141.166 228.345 141.17 228.345 141.173C228.345 141.177 228.345 141.181 228.345 141.185C228.345 141.189 228.345 141.193 228.345 141.197C228.345 141.201 228.345 141.205 228.345 141.209C228.345 141.213 228.345 141.217 228.345 141.221C228.345 141.225 228.345 141.229 228.345 141.233C228.345 141.237 228.345 141.241 228.345 141.245C228.345 141.249 228.345 141.253 228.345 141.257C228.345 141.261 228.345 141.265 228.345 141.269C228.345 141.273 228.345 141.277 228.345 141.281C228.345 141.285 228.345 141.289 228.345 141.293C228.345 141.297 228.345 141.301 228.345 141.305C228.345 141.309 228.345 141.314 228.345 141.318C228.345 141.322 228.345 141.326 228.345 141.33C228.345 141.334 228.345 141.338 228.345 141.342C228.345 141.347 228.345 141.351 228.345 141.355C228.345 141.359 228.345 141.363 228.345 141.367C228.345 141.371 228.345 141.376 228.345 141.38C228.345 141.384 228.345 141.388 228.345 141.392C228.345 141.397 228.345 141.401 228.345 141.405C228.345 141.409 228.345 141.413 228.345 141.418C228.345 141.422 228.345 141.426 228.345 141.43C228.345 141.435 228.345 141.439 228.345 141.443C228.345 141.447 228.345 141.452 228.345 141.456C228.345 141.46 228.345 141.464 228.345 141.469C228.345 141.473 228.345 141.477 228.345 141.482C228.345 141.486 228.345 141.49 228.345 141.495C228.345 141.499 228.345 141.503 228.345 141.508C228.345 141.512 228.345 141.516 228.345 141.521C228.345 141.525 228.345 141.529 228.345 141.534C228.345 141.538 228.345 141.542 228.345 141.547C228.345 141.551 228.345 141.556 228.345 141.56C228.345 141.564 228.345 141.569 228.345 141.573C228.345 141.578 228.345 141.582 228.345 141.586C228.345 141.591 228.345 141.595 228.345 141.6C228.345 141.604 228.345 141.609 228.345 141.613C228.345 141.618 228.345 141.622 228.345 141.627C228.345 141.631 228.345 141.635 228.345 141.64C228.345 141.644 228.345 141.649 228.345 141.653C228.345 141.658 228.345 141.662 228.345 141.667C228.345 141.671 228.345 141.676 228.345 141.681C228.345 141.685 228.345 141.69 228.345 141.694C228.345 141.699 228.345 141.703 228.345 141.708C228.345 141.712 228.345 141.717 228.345 141.721C228.345 141.726 228.345 141.731 228.345 141.735C228.345 141.74 228.345 141.744 228.345 141.749C228.345 141.754 228.345 141.758 228.345 141.763C228.345 141.767 228.345 141.772 228.345 141.777C228.345 141.781 228.345 141.786 228.345 141.791C228.345 141.795 228.345 141.8 228.345 141.805C228.345 141.809 228.345 141.814 228.345 141.818C228.345 141.823 228.345 141.828 228.345 141.833C228.345 141.837 228.345 141.842 228.345 141.847C228.345 141.851 228.345 141.856 228.345 141.861C228.345 141.865 228.345 141.87 228.345 141.875C228.345 141.88 228.345 141.884 228.345 141.889C228.345 141.894 228.345 141.899 228.345 141.903C228.345 141.908 228.345 141.913 228.345 141.918C228.345 141.922 228.345 141.927 228.345 141.932C228.345 141.937 228.345 141.941 228.345 141.946C228.345 141.951 228.345 141.956 228.345 141.961C228.345 141.965 228.345 141.97 228.345 141.975C228.345 141.98 228.345 141.985 228.345 141.99C228.345 141.994 228.345 141.999 228.345 142.004C228.345 142.009 228.345 142.014 228.345 142.019C228.345 142.023 228.345 142.028 228.345 142.033C228.345 142.038 228.345 142.043 228.345 142.048C228.345 142.053 228.345 142.058 228.345 142.062C228.345 142.067 228.345 142.072 228.345 142.077C228.345 142.082 228.345 142.087 228.345 142.092C228.345 142.097 228.345 142.102 228.345 142.107C228.345 142.112 228.345 142.117 228.345 142.121C228.345 142.126 228.345 142.131 228.345 142.136C228.345 142.141 228.345 142.146 228.345 142.151C228.345 142.156 228.345 142.161 228.345 142.166C228.345 142.171 228.345 142.176 228.345 142.181C228.345 142.186 228.345 142.191 228.345 142.196C228.345 142.201 228.345 142.206 228.345 142.211C228.345 142.216 228.345 142.221 228.345 142.226C228.345 142.231 228.345 142.236 228.345 142.241C228.345 142.246 228.345 142.251 228.345 142.256C228.345 142.262 228.345 142.267 228.345 142.272C228.345 142.277 228.345 142.282 228.345 142.287C228.345 142.292 228.345 142.297 228.345 142.302C228.345 142.307 228.345 142.312 228.345 142.317C228.345 142.323 228.345 142.328 228.345 142.333C228.345 142.338 228.345 142.343 228.345 142.348C228.345 142.353 228.345 142.358 228.345 142.364C228.345 142.369 228.345 142.374 228.345 142.379C228.345 142.384 228.345 142.389 228.345 142.394C228.345 142.4 228.345 142.405 228.345 142.41C228.345 142.415 228.345 142.42 228.345 142.425C228.345 142.431 228.345 142.436 228.345 142.441C228.345 142.446 228.345 142.451 228.345 142.457C228.345 142.462 228.345 142.467 228.345 142.472C228.345 142.477 228.345 142.483 228.345 142.488C228.345 142.493 228.345 142.498 228.345 142.504C228.345 142.509 228.345 142.514 228.345 142.519C228.345 142.525 228.345 142.53 228.345 142.535C228.345 142.54 228.345 142.546 228.345 142.551C228.345 142.556 228.345 142.561 228.345 142.567C228.345 142.572 228.345 142.577 228.345 142.583C228.345 142.588 228.345 142.593 228.345 142.599C228.345 142.604 228.345 142.609 228.345 142.614C228.345 142.62 228.345 142.625 228.345 142.63C228.345 142.636 228.345 142.641 228.345 142.646C228.345 142.652 228.345 142.657 228.345 142.662C228.345 142.668 228.345 142.673 228.345 142.678C228.345 142.684 228.345 142.689 228.345 142.695C228.345 142.7 228.345 142.705 228.345 142.711C228.345 142.716 228.345 142.721 228.345 142.727C228.345 142.732 228.345 142.738 228.345 142.743C228.345 142.748 228.345 142.754 228.345 142.759C228.345 142.765 228.345 142.77 228.345 142.775C228.345 142.781 228.345 142.786 228.345 142.792C228.345 142.797 228.345 142.803 228.345 142.808C228.345 142.813 228.345 142.819 228.345 142.824C228.345 142.83 228.345 142.835 228.345 142.841C228.345 142.846 228.345 142.852 228.345 142.857C228.345 142.863 228.345 142.868 228.345 142.873C228.345 142.879 228.345 142.884 228.345 142.89C228.345 142.895 228.345 142.901 228.345 142.906C228.345 142.912 228.345 142.917 228.345 142.923C228.345 142.928 228.345 142.934 228.345 142.939C228.345 142.945 228.345 142.95 228.345 142.956C228.345 142.961 228.345 142.967 228.345 142.973C228.345 142.978 228.345 142.984 228.345 142.989C228.345 142.995 228.345 143 228.345 143.006C228.345 143.011 228.345 143.017 228.345 143.022C228.345 143.028 228.345 143.034 228.345 143.039C228.345 143.045 228.345 143.05 228.345 143.056C228.345 143.061 228.345 143.067 228.345 143.073C228.345 143.078 228.345 143.084 228.345 143.089C228.345 143.095 228.345 143.101 228.345 143.106C228.345 143.112 228.345 143.117 228.345 143.123C228.345 143.129 228.345 143.134 228.345 143.14C228.345 143.146 228.345 143.151 228.345 143.157C228.345 143.162 228.345 143.168 228.345 143.174C228.345 143.179 228.345 143.185 228.345 143.191C228.345 143.196 228.345 143.202 228.345 143.208C228.345 143.213 228.345 143.219 228.345 143.225C228.345 143.23 228.345 143.236 228.345 143.242C228.345 143.247 228.345 143.253 228.345 143.259C228.345 143.264 228.345 143.27 228.345 143.276C228.345 143.281 228.345 143.287 228.345 143.293C228.345 143.298 228.345 143.304 228.345 143.31C228.345 143.316 228.345 143.321 228.345 143.327C228.345 143.333 228.345 143.338 228.345 143.344C228.345 143.35 228.345 143.356 228.345 143.361C228.345 143.367 228.345 143.373 228.345 143.379C228.345 143.384 228.345 143.39 228.345 143.396C228.345 143.401 228.345 143.407 228.345 143.413C228.345 143.419 228.345 143.424 228.345 143.43C228.345 143.436 228.345 143.442 228.345 143.448C228.345 143.453 228.345 143.459 228.345 143.465C228.345 143.471 228.345 143.476 228.345 143.482C228.345 143.488 228.345 143.494 228.345 143.5C228.345 143.505 228.345 143.511 228.345 143.517C228.345 143.523 228.345 143.529 228.345 143.534C228.345 143.54 228.345 143.546 228.345 143.552C228.345 143.558 228.345 143.563 228.345 143.569C228.345 143.575 228.345 143.581 228.345 143.587C228.345 143.593 228.345 143.598 228.345 143.604C228.345 143.61 228.345 143.616 228.345 143.622C228.345 143.628 228.345 143.633 228.345 143.639C228.345 143.645 228.345 143.651 228.345 143.657C228.345 143.663 228.345 143.669 228.345 143.674C228.345 143.68 228.345 143.686 228.345 143.692C228.345 143.698 228.345 143.704 228.345 143.71C228.345 143.715 228.345 143.721 228.345 143.727C228.345 143.733 228.345 143.739 228.345 143.745C228.345 143.751 228.345 143.757 228.345 143.763C228.345 143.768 228.345 143.774 228.345 143.78C228.345 143.786 228.345 143.792 228.345 143.798C228.345 143.804 228.345 143.81 228.345 143.816C228.345 143.822 228.345 143.828 228.345 143.833C228.345 143.839 228.345 143.845 228.345 143.851C228.345 143.857 228.345 143.863 228.345 143.869C228.345 143.875 228.345 143.881 228.345 143.887C228.345 143.893 228.345 143.899 228.345 143.905C228.345 143.911 228.345 143.917 228.345 143.923C228.345 143.928 228.345 143.934 228.345 143.94C228.345 143.946 228.345 143.952 228.345 143.958C228.345 143.964 228.345 143.97 228.345 143.976C228.345 143.982 228.345 143.988 228.345 143.994C228.345 144 228.345 144.006 228.345 144.012C228.345 144.018 228.345 144.024 228.345 144.03C228.345 144.036 228.345 144.042 228.345 144.048C228.345 144.054 228.345 144.06 228.345 144.066C228.345 144.072 228.345 144.078 228.345 144.084C228.345 144.09 228.345 144.096 228.345 144.102C228.345 144.108 228.345 144.114 228.345 144.12C228.345 144.126 228.345 144.132 228.345 144.138C228.345 144.144 228.345 144.15 228.345 144.156C228.345 144.162 228.345 144.168 228.345 144.174C228.345 144.18 228.345 144.186 228.345 144.192C228.345 144.198 228.345 144.204 228.345 144.21C228.345 144.216 228.345 144.222 228.345 144.229C228.345 144.235 228.345 144.241 228.345 144.247C228.345 144.253 228.345 144.259 228.345 144.265C228.345 144.271 228.345 144.277 228.345 144.283C228.345 144.289 228.345 144.295 228.345 144.301C228.345 144.307 228.345 144.313 228.345 144.319C228.345 144.325 228.345 144.331 228.345 144.338C228.345 144.344 228.345 144.35 228.345 144.356C228.345 144.362 228.345 144.368 228.345 144.374C228.345 144.38 228.345 144.386 228.345 144.392C228.345 144.398 228.345 144.404 228.345 144.411C228.345 144.417 228.345 144.423 228.345 144.429C228.345 144.435 228.345 144.441 228.345 144.447C228.345 144.453 228.345 144.459 228.345 144.465C228.345 144.472 228.345 144.478 228.345 144.484C228.345 144.49 228.345 144.496 228.345 144.502C228.345 144.508 228.345 144.514 228.345 144.52C228.345 144.527 228.345 144.533 228.345 144.539C228.345 144.545 228.345 144.551 228.345 144.557C228.345 144.563 228.345 144.569 228.345 144.576C228.345 144.582 228.345 144.588 228.345 144.594C228.345 144.6 228.345 144.606 228.345 144.612C228.345 144.618 228.345 144.625 228.345 144.631C228.345 144.637 228.345 144.643 228.345 144.649C228.345 144.655 228.345 144.661 228.345 144.668C228.345 144.674 228.345 144.68 228.345 144.686C228.345 144.692 228.345 144.698 228.345 144.704C228.345 144.711 228.345 144.717 228.345 144.723C228.345 144.729 228.345 144.735 228.345 144.741C228.345 144.748 228.345 144.754 228.345 144.76C228.345 144.766 228.345 144.772 228.345 144.778C228.345 144.785 228.345 144.791 228.345 144.797C228.345 144.803 228.345 144.809 228.345 144.815C228.345 144.822 228.345 144.828 228.345 144.834C228.345 144.84 228.345 144.846 228.345 144.852C228.345 144.859 228.345 144.865 228.345 144.871C228.345 144.877 228.345 144.883 228.345 144.89C228.345 144.896 228.345 144.902 228.345 144.908C228.345 144.914 228.345 144.92 228.345 144.927C228.345 144.933 228.345 144.939 228.345 144.945C228.345 144.951 228.345 144.958 228.345 144.964C228.345 144.97 228.345 144.976 228.345 144.982C228.345 144.989 228.345 144.995 228.345 145.001C228.345 145.007 228.345 145.013 228.345 145.02C228.345 145.026 228.345 145.032 228.345 145.038C228.345 145.044 228.345 145.051 228.345 145.057C228.345 145.063 228.345 145.069 228.345 145.075C228.345 145.082 228.345 145.088 228.345 145.094C228.345 145.1 228.345 145.106 228.345 145.113C228.345 145.119 228.345 145.125 228.345 145.131C228.345 145.138 228.345 145.144 228.345 145.15C228.345 145.156 228.345 145.162 228.345 145.169C228.345 145.175 228.345 145.181 228.345 145.187C228.345 145.193 228.345 145.2 228.345 145.206C228.345 145.212 228.345 145.218 228.345 145.225C228.345 145.231 228.345 145.237 228.345 145.243C228.345 145.25 228.345 145.256 228.345 145.262C228.345 145.268 228.345 145.274 228.345 145.281C228.345 145.287 228.345 145.293 228.345 145.299C228.345 145.306 228.345 145.312 228.345 145.318C228.345 145.324 228.345 145.33 228.345 145.337C228.345 145.343 228.345 145.349 228.345 145.355C228.345 145.362 228.345 145.368 228.345 145.374C228.345 145.38 228.345 145.387 228.345 145.393C228.345 145.399 228.345 145.405 228.345 145.412C228.345 145.418 228.345 145.424 228.345 145.43C228.345 145.437 228.345 145.443 228.345 145.449C228.345 145.455 228.345 145.461 228.345 145.468C228.345 145.474 228.345 145.48 228.345 145.486C228.345 145.493 228.345 145.499 228.345 145.505C228.345 145.511 228.345 145.518 228.345 145.524C228.345 145.53 228.345 145.536 228.345 145.543C228.345 145.549 228.345 145.555 228.345 145.561C228.345 145.568 228.345 145.574 228.345 145.58C228.345 145.586 228.345 145.593 228.345 145.599C228.345 145.605 228.345 145.611 228.345 145.618C228.345 145.624 228.345 145.63 228.345 145.636C228.345 145.643 228.345 145.649 228.345 145.655C228.345 145.661 228.345 145.668 228.345 145.674C228.345 145.68 228.345 145.686 228.345 145.693C228.345 145.699 228.345 145.705 228.345 145.711C228.345 145.718 228.345 145.724 228.345 145.73C228.345 145.736 228.345 145.743 228.345 145.749C228.345 145.755 228.345 145.761 228.345 145.768C228.345 145.774 228.345 145.78 228.345 145.786C228.345 145.793 228.345 145.799 228.345 145.805C228.345 145.811 228.345 145.817 228.345 145.824C228.345 145.83 228.345 145.836 228.345 145.842C228.345 145.849 228.345 145.855 228.345 145.861C228.345 145.867 228.345 145.874 228.345 145.88C228.345 145.886 228.345 145.892 228.345 145.899C228.345 145.905 228.345 145.911 228.345 145.917C228.345 145.924 228.345 145.93 228.345 145.936C228.345 145.942 228.345 145.949 228.345 145.955C228.345 145.961 228.345 145.967 228.345 145.974C228.345 145.98 228.345 145.986 228.345 145.992C228.345 145.999 228.345 146.005 228.345 146.011C228.345 146.017 228.345 146.024 228.345 146.03C228.345 146.036 228.345 146.042 228.345 146.049C228.345 146.055 228.345 146.061 228.345 146.067C228.345 146.074 228.345 146.08 228.345 146.086C228.345 146.092 228.345 146.098 228.345 146.105C228.345 146.111 228.345 146.117 228.345 146.123C228.345 146.13 228.345 146.136 228.345 146.142C228.345 146.148 228.345 146.155 228.345 146.161C228.345 146.167 228.345 146.173 228.345 146.18C228.345 146.186 228.345 146.192 228.345 146.198C228.345 146.204 228.345 146.211 228.345 146.217C228.345 146.223 228.345 146.229 228.345 146.236C228.345 146.242 228.345 146.248 228.345 146.254C228.345 146.261 228.345 146.267 228.345 146.273C228.345 146.279 228.345 146.285 228.345 146.292C228.345 146.298 228.345 146.304 228.345 146.31C228.345 146.317 228.345 146.323 228.345 146.329C228.345 146.335 228.345 146.341 228.345 146.348C228.345 146.354 228.345 146.36 228.345 146.366C228.345 146.373 228.345 146.379 228.345 146.385C228.345 146.391 228.345 146.397 228.345 146.404C228.345 146.41 228.345 146.416 228.345 146.422C228.345 146.428 228.345 146.435 228.345 146.441C228.345 146.447 228.345 146.453 228.345 146.459C228.345 146.466 228.345 146.472 228.345 146.478C228.345 146.484 228.345 146.49 228.345 146.497C228.345 146.503 228.345 146.509 228.345 146.515C228.345 146.521 228.345 146.528 228.345 146.534C228.345 146.54 228.345 146.546 228.345 146.552C228.345 146.559 228.345 146.565 228.345 146.571C228.345 146.577 228.345 146.583 228.345 146.59C228.345 146.596 228.345 146.602 228.345 146.608C228.345 146.614 228.345 146.621 228.345 146.627C228.345 146.633 228.345 146.639 228.345 146.645C228.345 146.651 228.345 146.658 228.345 146.664C228.345 146.67 228.345 146.676 228.345 146.682C228.345 146.689 228.345 146.695 228.345 146.701C228.345 146.707 228.345 146.713 228.345 146.719C228.345 146.726 228.345 146.732 228.345 146.738C228.345 146.744 228.345 146.75 228.345 146.756C228.345 146.763 228.345 146.769 228.345 146.775C228.345 146.781 228.345 146.787 228.345 146.793C228.345 146.799 228.345 146.806 228.345 146.812C228.345 146.818 228.345 146.824 228.345 146.83C228.345 146.836 228.345 146.843 228.345 146.849C228.345 146.855 228.345 146.861 228.345 146.867C228.345 146.873 228.345 146.879 228.345 146.886C228.345 146.892 228.345 146.898 228.345 146.904C228.345 146.91 228.345 146.916 228.345 146.922C228.345 146.928 228.345 146.935 228.345 146.941C228.345 146.947 228.345 146.953 228.345 146.959C228.345 146.965 228.345 146.971 228.345 146.977C228.345 146.984 228.345 146.99 228.345 146.996C228.345 147.002 228.345 147.008 228.345 147.014C228.345 147.02 228.345 147.026 228.345 147.032C228.345 147.039 228.345 147.045 228.345 147.051C228.345 147.057 228.345 147.063 228.345 147.069C228.345 147.075 228.345 147.081 228.345 147.087C228.345 147.093 228.345 147.1 228.345 147.106C228.345 147.112 228.345 147.118 228.345 147.124C228.345 147.13 228.345 147.136 228.345 147.142C228.345 147.148 228.345 147.154 228.345 147.16C228.345 147.166 228.345 147.173 228.345 147.179C228.345 147.185 228.345 147.191 228.345 147.197C228.345 147.203 228.345 147.209 228.345 147.215C228.345 147.221 228.345 147.227 228.345 147.233C228.345 147.239 228.345 147.245 228.345 147.251C228.345 147.257 228.345 147.263 228.345 147.27C228.345 147.276 228.345 147.282 228.345 147.288C228.345 147.294 228.345 147.3 228.345 147.306C228.345 147.312 228.345 147.318 228.345 147.324C228.345 147.33 228.345 147.336 228.345 147.342C228.345 147.348 228.345 147.354 228.345 147.36C228.345 147.366 228.345 147.372 228.345 147.378C228.345 147.384 228.345 147.39 228.345 147.396C228.345 147.402 228.345 147.408 228.345 147.414C228.345 147.42 228.345 147.426 228.345 147.432C228.345 147.438 228.345 147.444 228.345 147.45C228.345 147.456 228.345 147.462 228.345 147.468C228.345 147.474 228.345 147.48 228.345 147.486C228.345 147.492 228.345 147.498 228.345 147.504C228.345 147.51 228.345 147.516 228.345 147.522C228.345 147.528 228.345 147.534 228.345 147.54C228.345 147.546 228.345 147.552 228.345 147.558C228.345 147.564 228.345 147.57 228.345 147.576C228.345 147.582 228.345 147.588 228.345 147.594C228.345 147.6 228.345 147.605 228.345 147.611C228.345 147.617 228.345 147.623 228.345 147.629C228.345 147.635 228.345 147.641 228.345 147.647C228.345 147.653 228.345 147.659 228.345 147.665C228.345 147.671 228.345 147.677 228.345 147.683C228.345 147.689 228.345 147.694 228.345 147.7C228.345 147.706 228.345 147.712 228.345 147.718C228.345 147.724 228.345 147.73 228.345 147.736C228.345 147.742 228.345 147.748 228.345 147.753C228.345 147.759 228.345 147.765 228.345 147.771C228.345 147.777 228.345 147.783 228.345 147.789C228.345 147.795 228.345 147.801 228.345 147.806C228.345 147.812 228.345 147.818 228.345 147.824C228.345 147.83 228.345 147.836 228.345 147.842C228.345 147.848 228.345 147.853 228.345 147.859C228.345 147.865 228.345 147.871 228.345 147.877C228.345 147.883 228.345 147.888 228.345 147.894C228.345 147.9 228.345 147.906 228.345 147.912C228.345 147.918 228.345 147.923 228.345 147.929C228.345 147.935 228.345 147.941 228.345 147.947C228.345 147.953 228.345 147.958 228.345 147.964C228.345 147.97 228.345 147.976 228.345 147.982C228.345 147.987 228.345 147.993 228.345 147.999C228.345 148.005 228.345 148.011 228.345 148.016C228.345 148.022 228.345 148.028 228.345 148.034C228.345 148.04 228.345 148.045 228.345 148.051C228.345 148.057 228.345 148.063 228.345 148.068C228.345 148.074 228.345 148.08 228.345 148.086C228.345 148.091 228.345 148.097 228.345 148.103C228.345 148.109 228.345 148.115 228.345 148.12C228.345 148.126 228.345 148.132 228.345 148.137C228.345 148.143 228.345 148.149 228.345 148.155C228.345 148.16 228.345 148.166 228.345 148.172C228.345 148.178 228.345 148.183 228.345 148.189C228.345 148.195 228.345 148.2 228.345 148.206C228.345 148.212 228.345 148.218 228.345 148.223C228.345 148.229 228.345 148.235 228.345 148.24C228.345 148.246 228.345 148.252 228.345 148.257C228.345 148.263 228.345 148.269 228.345 148.274C228.345 148.28 228.345 148.286 228.345 148.291C228.345 148.297 228.345 148.303 228.345 148.308C228.345 148.314 228.345 148.32 228.345 148.325C228.345 148.331 228.345 148.337 228.345 148.342C228.345 148.348 228.345 148.354 228.345 148.359C228.345 148.365 228.345 148.37 228.345 148.376C228.345 148.382 228.345 148.387 228.345 148.393C228.345 148.398 228.345 148.404 228.345 148.41C228.345 148.415 228.345 148.421 228.345 148.426C228.345 148.432 228.345 148.438 228.345 148.443C228.345 148.449 228.345 148.454 228.345 148.46C228.345 148.466 228.345 148.471 228.345 148.477C228.345 148.482 228.345 148.488 228.345 148.493C228.345 148.499 228.345 148.505 228.345 148.51C228.345 148.516 228.345 148.521 228.345 148.527C228.345 148.532 228.345 148.538 228.345 148.543C228.345 148.549 228.345 148.554 228.345 148.56C228.345 148.565 228.345 148.571 228.345 148.576C228.345 148.582 228.345 148.587 228.345 148.593C228.345 148.598 228.345 148.604 228.345 148.609C228.345 148.615 228.345 148.62 228.345 148.626C228.345 148.631 228.345 148.637 228.345 148.642C228.345 148.648 228.345 148.653 228.345 148.659C228.345 148.664 228.345 148.67 228.345 148.675C228.345 148.681 228.345 148.686 228.345 148.691C228.345 148.697 228.345 148.702 228.345 148.708C228.345 148.713 228.345 148.719 228.345 148.724C228.345 148.73 228.345 148.735 228.345 148.74C228.345 148.746 228.345 148.751 228.345 148.757C228.345 148.762 228.345 148.767 228.345 148.773C228.345 148.778 228.345 148.784 228.345 148.789C228.345 148.794 228.345 148.8 228.345 148.805C228.345 148.81 228.345 148.816 228.345 148.821C228.345 148.827 228.345 148.832 228.345 148.837C228.345 148.843 228.345 148.848 228.345 148.853C228.345 148.859 228.345 148.864 228.345 148.869C228.345 148.875 228.345 148.88 228.345 148.885C228.345 148.891 228.345 148.896 228.345 148.901C228.345 148.907 228.345 148.912 228.345 148.917C228.345 148.923 228.345 148.928 228.345 148.933C228.345 148.938 228.345 148.944 228.345 148.949C228.345 148.954 228.345 148.96 228.345 148.965C228.345 148.97 228.345 148.975 228.345 148.981C228.345 148.986 228.345 148.991 228.345 148.996C228.345 149.002 228.345 149.007 228.345 149.012C228.345 149.017 228.345 149.023 228.345 149.028C228.345 149.033 228.345 149.038 228.345 149.043C228.345 149.049 228.345 149.054 228.345 149.059C228.345 149.064 228.345 149.069 228.345 149.075C228.345 149.08 228.345 149.085 228.345 149.09C228.345 149.095 228.345 149.101 228.345 149.106C228.345 149.111 228.345 149.116 228.345 149.121C228.345 149.126 228.345 149.132 228.345 149.137C228.345 149.142 228.345 149.147 228.345 149.152C228.345 149.157 228.345 149.162 228.345 149.167C228.345 149.173 228.345 149.178 228.345 149.183C228.345 149.188 228.345 149.193 228.345 149.198C228.345 149.203 228.345 149.208 228.345 149.213C228.345 149.219 228.345 149.224 228.345 149.229C228.345 149.234 228.345 149.239 228.345 149.244C228.345 149.249 228.345 149.254 228.345 149.259C228.345 149.264 228.345 149.269 228.345 149.274C228.345 149.279 228.345 149.284 228.345 149.289C228.345 149.294 228.345 149.299 228.345 149.304C228.345 149.309 228.345 149.314 228.345 149.319C228.345 149.324 228.345 149.329 228.345 149.334C228.345 149.339 228.345 149.344 228.345 149.349C228.345 149.354 228.345 149.359 228.345 149.364H229.345ZM217.067 132.893C218.204 133.178 219.047 134.224 219.504 135.741C219.957 137.245 219.989 139.101 219.588 140.769L220.56 141.003C220.999 139.178 220.97 137.141 220.461 135.452C219.956 133.776 218.936 132.33 217.31 131.923L217.067 132.893ZM219.588 140.769C219.157 142.563 218.254 144.034 216.965 144.678L217.412 145.573C219.074 144.742 220.095 142.94 220.56 141.003L219.588 140.769ZM228.845 140.386H220.074V141.386H228.845V140.386ZM212.475 156.941L213.535 160.12L214.483 159.804L213.424 156.624L212.475 156.941ZM231.123 160.436C232.1 160.111 232.909 159.178 233.464 158.085C234.028 156.975 234.379 155.606 234.379 154.266C234.379 152.927 234.027 151.571 233.13 150.542C232.222 149.502 230.814 148.864 228.845 148.864V149.864C230.586 149.864 231.695 150.419 232.377 151.2C233.069 151.993 233.379 153.087 233.379 154.266C233.379 155.442 233.068 156.657 232.572 157.632C232.068 158.626 231.42 159.283 230.807 159.487L231.123 160.436ZM213.509 159.962V164.201H214.509V159.962H213.509ZM231.318 169.853C233.143 168.028 233.527 165.919 233.262 164.051C232.999 162.205 232.105 160.587 231.355 159.649L230.574 160.274C231.238 161.103 232.039 162.558 232.271 164.192C232.501 165.803 232.178 167.58 230.611 169.146L231.318 169.853ZM213.575 163.952L211.149 168.191L212.017 168.688L214.443 164.449L213.575 163.952ZM228.919 170.997C229.838 170.86 230.667 170.505 231.318 169.853L230.611 169.146C230.141 169.616 229.525 169.895 228.772 170.008L228.919 170.997ZM225.89 180.544C227.784 179.597 228.72 177.641 229.148 175.706C229.579 173.76 229.524 171.723 229.341 170.432L228.35 170.573C228.521 171.773 228.571 173.686 228.172 175.49C227.77 177.306 226.94 178.901 225.443 179.65L225.89 180.544ZM211.453 167.957L207.52 169.017L207.781 169.982L211.714 168.923L211.453 167.957ZM221.145 179.394C221.992 179.973 222.829 180.42 223.618 180.646C224.409 180.873 225.196 180.891 225.89 180.544L225.443 179.65C225.048 179.847 224.539 179.87 223.894 179.685C223.248 179.499 222.51 179.116 221.71 178.568L221.145 179.394ZM216.199 189.07C217.767 188.846 218.976 188.283 219.886 187.497C220.795 186.712 221.382 185.726 221.741 184.69C222.453 182.635 222.281 180.344 221.912 178.86L220.942 179.102C221.28 180.463 221.426 182.545 220.796 184.363C220.483 185.265 219.984 186.091 219.233 186.74C218.483 187.387 217.458 187.88 216.058 188.08L216.199 189.07ZM207.651 168.999H201.025V169.999H207.651V168.999ZM210.379 184.691C211.674 187.384 213.555 189.448 216.199 189.07L216.058 188.08C214.131 188.355 212.553 186.903 211.28 184.258L210.379 184.691ZM202.352 191.194C205.85 191.194 208.108 190.121 209.491 188.712C210.863 187.314 211.33 185.63 211.33 184.474H210.33C210.33 185.392 209.949 186.818 208.777 188.012C207.617 189.194 205.636 190.194 202.352 190.194V191.194ZM212.949 157.283C213.765 157.283 215.091 157.033 216.603 156.634C218.131 156.231 219.895 155.662 221.608 154.995L221.246 154.063C219.566 154.716 217.838 155.274 216.348 155.667C214.842 156.065 213.625 156.283 212.949 156.283V157.283ZM221.608 154.995C223.542 154.243 225.432 153.359 226.848 152.439C227.554 151.98 228.163 151.498 228.6 151.005C229.031 150.518 229.345 149.963 229.345 149.364H228.345C228.345 149.609 228.212 149.935 227.852 150.342C227.497 150.742 226.971 151.166 226.303 151.601C224.968 152.468 223.149 153.323 221.246 154.063L221.608 154.995ZM213.971 160.46C215.859 160.606 218.626 160.774 221.411 160.865L221.443 159.865C218.675 159.776 215.923 159.607 214.047 159.463L213.971 160.46ZM221.411 160.865C223.416 160.93 225.437 160.955 227.149 160.9C228.838 160.845 230.293 160.713 231.123 160.436L230.807 159.487C230.135 159.711 228.822 159.845 227.117 159.9C225.436 159.954 223.438 159.93 221.443 159.865L221.411 160.865ZM220.927 154.529V160.365H221.927V154.529H220.927ZM213.709 164.601C215.258 165.763 217.476 167.23 219.842 168.472L220.306 167.586C217.994 166.373 215.822 164.935 214.309 163.801L213.709 164.601ZM219.842 168.472C221.392 169.285 223.016 170.007 224.566 170.481C226.109 170.953 227.618 171.191 228.919 170.997L228.772 170.008C227.681 170.171 226.337 169.977 224.859 169.525C223.387 169.075 221.822 168.382 220.306 167.586L219.842 168.472ZM220.935 160.278L219.582 167.942L220.566 168.116L221.92 160.452L220.935 160.278ZM211.177 168.73C212.32 170.331 213.959 172.431 215.757 174.425L216.5 173.756C214.73 171.793 213.115 169.723 211.99 168.149L211.177 168.73ZM219.655 167.756L215.709 173.818L216.548 174.363L220.493 168.302L219.655 167.756ZM215.757 174.425C215.947 174.636 216.138 174.845 216.331 175.053L217.064 174.372C216.874 174.168 216.686 173.963 216.5 173.756L215.757 174.425ZM216.331 175.053C217.9 176.74 219.577 178.321 221.145 179.394L221.71 178.568C220.23 177.556 218.611 176.036 217.064 174.372L216.331 175.053ZM216.435 174.287L209.508 178.555L210.032 179.407L216.96 175.138L216.435 174.287ZM207.151 169.526C207.289 172.136 207.701 175.72 208.501 179.096L209.474 178.866C208.691 175.56 208.285 172.037 208.15 169.473L207.151 169.526ZM208.501 179.096C208.976 181.105 209.593 183.057 210.379 184.691L211.28 184.258C210.536 182.711 209.94 180.835 209.474 178.866L208.501 179.096ZM209.77 178.481H208.987V179.481H209.77V178.481ZM200.551 169.34C199.678 171.927 198.713 175.454 198.166 178.903L199.154 179.059C199.691 175.677 200.639 172.206 201.499 169.659L200.551 169.34ZM198.66 179.481H209.77V178.481H198.66V179.481ZM198.166 178.903C197.859 180.839 197.681 182.762 197.729 184.488L198.728 184.461C198.683 182.817 198.852 180.959 199.154 179.059L198.166 178.903ZM197.729 184.488C197.779 186.308 198.081 187.963 198.796 189.178C199.532 190.431 200.698 191.194 202.352 191.194V190.194C201.071 190.194 200.224 189.635 199.658 188.671C199.069 187.671 198.777 186.216 198.728 184.461L197.729 184.488ZM185.032 182.098L171.255 196.71L171.983 197.396L185.76 182.784L185.032 182.098ZM198.028 184.016C196.333 184.757 193.683 185.54 191.245 185.502C188.816 185.464 186.732 184.626 185.865 182.269L184.927 182.614C185.997 185.523 188.595 186.46 191.23 186.502C193.857 186.543 196.654 185.708 198.429 184.933L198.028 184.016ZM191.391 175.354L185.032 182.098L185.76 182.784L192.118 176.04L191.391 175.354ZM198.875 178.529L191.969 175.246L191.54 176.149L198.445 179.433L198.875 178.529ZM201.668 134.782C202.733 132.981 203.99 131.477 204.825 130.642L204.118 129.935C203.228 130.826 201.917 132.395 200.807 134.273L201.668 134.782ZM188.013 139.871C188.163 138.203 188.992 135.982 190.941 134.679C192.867 133.391 196.027 132.908 201.046 134.99L201.429 134.066C196.23 131.909 192.688 132.308 190.386 133.847C188.108 135.37 187.185 137.918 187.017 139.782L188.013 139.871ZM172.33 127.35L193.162 147.603L193.859 146.886L173.028 126.633L172.33 127.35ZM193.162 147.603L206.242 160.32L206.939 159.603L193.859 146.886L193.162 147.603ZM199.673 140.886C199.673 140.771 199.675 140.654 199.681 140.537L198.682 140.49C198.676 140.622 198.673 140.754 198.673 140.886H199.673ZM199.681 140.537C199.773 138.6 200.612 136.568 201.668 134.782L200.807 134.273C199.713 136.124 198.785 138.32 198.682 140.49L199.681 140.537ZM199.421 151.918L201.273 150.858L200.777 149.99L198.924 151.05L199.421 151.918ZM206.227 159.619L199.233 167.037L199.96 167.723L206.955 160.305L206.227 159.619ZM199.233 167.037L191.391 175.354L192.118 176.04L199.96 167.723L199.233 167.037ZM201.439 169.22L200.011 167.101L199.182 167.659L200.61 169.779L201.439 169.22ZM208.71 113.833H242.622V112.833H208.71V113.833ZM193.884 147.577L199.546 141.219L198.799 140.554L193.137 146.912L193.884 147.577ZM209.77 140.386H199.173V141.386H209.77V140.386ZM209.522 141.32L216.94 145.559L217.436 144.691L210.018 140.452L209.522 141.32ZM221.883 154.324L217.644 144.92L216.732 145.331L220.971 154.735L221.883 154.324ZM228.345 140.886V149.364H229.345V140.886H228.345ZM113.375 158.404C108.983 158.038 106.062 157.263 104.174 156.41L103.762 157.321C105.787 158.236 108.83 159.028 113.292 159.4L113.375 158.404ZM103.608 157.213C109.328 163.144 115.732 171.662 118.795 180.582C121.851 189.484 121.563 198.713 114.039 206.237L114.747 206.944C122.628 199.063 122.875 189.388 119.74 180.258C116.612 171.146 110.101 162.504 104.328 156.519L103.608 157.213ZM104.174 156.41C102.948 155.856 102.172 155.276 101.71 154.767C101.242 154.253 101.116 153.839 101.116 153.603H100.116C100.116 154.166 100.396 154.809 100.97 155.44C101.548 156.076 102.448 156.728 103.762 157.321L104.174 156.41ZM100.28 153.973C101.338 154.935 102.458 156.021 103.608 157.213L104.328 156.519C103.163 155.311 102.027 154.21 100.953 153.233L100.28 153.973Z" fill="#16141F"/>
<path d="M283.953 131.348C282.54 128.522 281.197 123.082 287.132 123.93C294.55 124.99 293.49 139.826 283.953 138.767C274.415 137.707 273.355 129.229 276.534 119.691C279.714 110.154 272.295 102.735 268.056 105.915C263.817 109.094 263.817 114.393 268.056 114.393" stroke="#16141F"/>
<path d="M250.041 111.213C248.275 115.099 244.106 120.539 241.563 111.213C238.384 99.5556 268.056 106.974 265.937 117.571C263.818 128.169 255.34 138.767 250.041 131.349C245.801 125.414 251.806 125.343 255.339 126.05" stroke="#16141F"/>
<path d="M22.5925 114.956C25.0653 114.956 29.7988 113.896 28.951 109.657C27.8912 104.358 18.3535 104.358 17.2938 111.777C16.234 119.195 22.5925 134.031 11.9951 134.031C1.39761 134.031 -1.78162 127.673 3.5171 123.434C7.75609 120.043 9.52219 125.553 9.87536 128.732" stroke="#16141F"/>
<path d="M41.2703 111.213C41.9768 114.746 44.6615 120.539 49.7482 115.452C56.1067 109.094 47.6288 104.855 41.2703 104.855C34.9118 104.855 17.9559 122.871 30.6728 132.408C43.3898 141.946 50.1167 123.93 38.0912 123.93" stroke="#16141F"/>
<path d="M268.056 81.5406C268.056 86.6274 262.404 90.7251 259.578 92.1381H225.666C222.275 92.1381 219.307 85.0731 218.248 81.5406V51.8678C210.617 51.8678 205.884 44.8028 204.471 41.2703H218.248V35.9716C215.775 34.2053 210.829 29.8251 210.829 26.4339H219.307C221.427 20.7819 227.785 9.26601 236.263 8.41822C236.263 5.94548 237.747 1 243.682 1C249.616 1 251.1 5.94548 251.1 8.41822C256.398 10.5377 266.996 17.1081 266.996 26.4339H274.414C273.708 29.6131 271.447 35.9716 268.056 35.9716V41.2703H280.773C280.773 47.2049 272.295 50.1015 268.056 50.808V81.5406Z" fill="#FAF9F9"/>
<path d="M268.056 35.9716H218.248M268.056 35.9716C268.056 37.5502 268.056 39.3379 268.056 41.2703M268.056 35.9716C271.447 35.9716 273.708 29.6131 274.414 26.4339H266.996M218.248 35.9716V41.2703M218.248 35.9716C215.775 34.2053 210.829 29.8251 210.829 26.4339H219.307M268.056 50.808C268.056 63.6229 268.056 77.9975 268.056 81.5406C268.056 86.6274 262.404 90.7251 259.578 92.1381C249.687 92.1381 229.057 92.1381 225.666 92.1381C222.275 92.1381 219.307 85.0731 218.248 81.5406V51.8678M268.056 50.808C272.295 50.1015 280.773 47.2049 280.773 41.2703H268.056M268.056 50.808C268.056 47.447 268.056 44.1932 268.056 41.2703M218.248 41.2703H204.471C205.884 44.8028 210.617 51.8678 218.248 51.8678M218.248 41.2703V51.8678M219.307 26.4339C221.427 20.7819 227.785 9.26601 236.263 8.41822M219.307 26.4339H266.996M236.263 8.41822C236.97 10.5377 239.443 14.7767 243.682 14.7767C247.92 14.7767 250.393 10.5377 251.1 8.41822M236.263 8.41822C236.263 5.94548 237.747 1 243.682 1C249.616 1 251.1 5.94548 251.1 8.41822M251.1 8.41822C256.398 10.5377 266.996 17.1081 266.996 26.4339" stroke="#16141F"/>
<path d="M33.5699 224L99.9897 249.794L96.1206 300.093H11V249.794L17.4485 243.99L33.5699 224Z" fill="#FAF9F9"/>
<path d="M17.4485 243.99L99.9897 249.794M17.4485 243.99L33.5699 224L99.9897 249.794M17.4485 243.99L11 249.794V300.093H96.1206L99.9897 249.794M28.411 264.626C30.1306 265.056 33.5699 266.947 33.5699 271.074M37.439 260.757C41.0931 260.757 48.0146 262.433 46.4669 269.14M87.7375 264.626C83.8684 263.121 76.1301 261.917 76.1301 269.14C76.1301 278.168 87.7375 267.85 87.7375 274.299C87.7375 280.747 81.289 288.485 76.1301 284.616M28.411 288.485C28.411 291.495 30.2166 296.61 37.439 292.999C44.6613 289.388 43.8875 285.906 42.5978 284.616" stroke="#16141F"/>
<path d="M92.0273 146L100.459 180L96.9484 182.737L65.9998 166.287L69.7231 163.385L97.8568 178.783L96.4384 179.888L88.375 148.847L92.0273 146ZM92.1583 156.041L93.4492 159.672L79.478 170.561L76.2014 168.479L92.1583 156.041Z" fill="#16141F"/>
<path d="M171.222 175.919L153 157.697L168.697 142L186.919 160.222L184.368 162.773L167.734 146.139L169.035 146.191L157.191 158.035L157.165 156.708L173.799 173.342L171.222 175.919Z" fill="#16141F"/>
</svg>
