<svg width="379" height="409" viewBox="0 0 379 409" fill="none" xmlns="http://www.w3.org/2000/svg">
<mask id="mask0_111_251" style="mask-type:alpha" maskUnits="userSpaceOnUse" x="0" y="0" width="379" height="409">
<rect x="0.54834" y="127.775" width="236.872" height="332.36" transform="rotate(-32.3816 0.54834 127.775)" fill="#D9D9D9"/>
</mask>
<g mask="url(#mask0_111_251)">
<rect x="0.54834" y="127.775" width="236.872" height="332.36" transform="rotate(-32.3816 0.54834 127.775)" fill="#16141F"/>
<path d="M146.029 13.581L113.027 49.4288L152.754 86.0011C159.949 76.424 166.986 67.7607 174.307 61.6904L146.029 13.581Z" fill="#FAF9F9"/>
<path d="M248.266 9.36091C232.261 -7.04596 214.982 -12.1412 198.963 -11.214L193.116 52.9155C199.4 52.3758 203.448 53.3929 205.712 55.5847L248.266 9.36091Z" fill="#FAF9F9"/>
<path fill-rule="evenodd" clip-rule="evenodd" d="M185.614 149.367L162.063 198.932L118.692 161.012L162.799 128.363L185.614 149.367ZM208.649 135.452C216.358 129.587 224.274 122.449 231.625 114.457L196.353 88.0068C191.657 94.9732 185.972 102.273 180.134 109.201L208.649 135.452ZM260.529 67.9906L206.492 69.2438C208.584 63.2656 208.655 58.4331 205.712 55.5847L248.266 9.36091C265.378 26.9025 267.099 47.7337 260.529 67.9906ZM198.963 -11.214C176.533 -9.91588 156.572 3.18867 146.029 13.581L174.307 61.6904C180.305 56.717 186.493 53.4843 193.116 52.9155L198.963 -11.214ZM146.089 95.0042C148.334 91.9497 150.551 88.9326 152.754 86.0011L113.027 49.4288L31.5234 137.962C88.2708 173.679 119.16 131.647 146.089 95.0042Z" fill="#E84355"/>
<path d="M180.134 109.201C174.224 116.214 168.157 122.846 162.799 128.363L185.614 149.367C192.428 146.522 200.42 141.713 208.649 135.452L180.134 109.201Z" fill="#FAF9F9"/>
<path d="M260.529 67.9906L206.492 69.2438C204.567 74.7456 200.929 81.2178 196.353 88.0068L231.625 114.457C244.219 100.765 255.151 84.5703 260.529 67.9906Z" fill="#FAF9F9"/>
<path d="M31.5234 137.962L31.1427 137.611L30.7216 138.069L31.2477 138.4L31.5234 137.962ZM146.029 13.581L145.665 13.2124L145.656 13.2212L145.648 13.2304L146.029 13.581ZM248.266 9.36091L248.637 8.99949L248.266 9.36091ZM162.063 198.932L161.722 199.322L162.237 199.772L162.531 199.154L162.063 198.932ZM118.692 161.012L118.384 160.596L117.867 160.978L118.351 161.401L118.692 161.012ZM152.754 86.0011L153.168 86.312L152.754 86.0011ZM174.307 61.6904L174.637 62.0888L174.307 61.6904ZM206.492 69.2438L206.004 69.0729L206.492 69.2438ZM196.353 88.0068L195.924 87.7175L196.353 88.0068ZM146.089 95.0042L146.506 95.3107L146.089 95.0042ZM185.146 149.145L161.596 198.71L162.531 199.154L186.081 149.589L185.146 149.145ZM162.404 198.543L119.033 160.622L118.351 161.401L161.722 199.322L162.404 198.543ZM119 161.428L163.107 128.779L162.491 127.947L118.384 160.596L119 161.428ZM31.9042 138.312L113.408 49.7793L112.646 49.0782L31.1427 137.611L31.9042 138.312ZM113.408 49.7793L146.409 13.9315L145.648 13.2304L112.646 49.0782L113.408 49.7793ZM153.104 85.6203L113.378 49.048L112.677 49.8096L152.403 86.3819L153.104 85.6203ZM193.071 52.3999C186.306 52.9809 180.02 56.281 173.977 61.292L174.637 62.0888C180.59 57.1531 186.681 53.9876 193.16 53.4312L193.071 52.3999ZM173.977 61.292C166.604 67.4048 159.536 76.1122 152.34 85.6902L153.168 86.312C160.362 76.7358 167.368 68.1166 174.637 62.0888L173.977 61.292ZM145.582 13.8433L173.861 61.9526L174.753 61.4281L146.475 13.3187L145.582 13.8433ZM146.392 13.9496C156.88 3.61109 176.73 -9.40883 198.993 -10.6973L198.933 -11.7307C176.336 -10.4229 156.263 2.76624 145.665 13.2124L146.392 13.9496ZM198.993 -10.6973C214.864 -11.6159 231.996 -6.57615 247.896 9.72233L248.637 8.99949C232.525 -7.51576 215.101 -12.6665 198.933 -11.7307L198.993 -10.6973ZM193.631 52.9625L199.478 -11.167L198.447 -11.261L192.6 52.8685L193.631 52.9625ZM206.072 55.2128C203.643 52.8606 199.399 51.8565 193.071 52.3999L193.16 53.4312C199.401 52.8952 203.254 53.9252 205.352 55.9565L206.072 55.2128ZM206.093 55.9352L248.647 9.71146L247.885 9.01036L205.332 55.2341L206.093 55.9352ZM206.981 69.4148C209.079 63.418 209.256 58.2948 206.072 55.2128L205.352 55.9565C208.054 58.5714 208.089 63.1133 206.004 69.0729L206.981 69.4148ZM247.896 9.72233C264.844 27.0958 266.562 47.7123 260.037 67.8309L261.021 68.1503C267.637 47.755 265.913 26.7092 248.637 8.99949L247.896 9.72233ZM206.504 69.7613L260.541 68.5081L260.517 67.4732L206.48 68.7264L206.504 69.7613ZM196.782 88.2961C201.368 81.4931 205.034 74.9782 206.981 69.4148L206.004 69.0729C204.1 74.513 200.491 80.9424 195.924 87.7175L196.782 88.2961ZM260.037 67.8309C254.689 84.3167 243.807 100.449 231.244 114.107L232.006 114.808C244.631 101.082 255.613 84.8239 261.021 68.1503L260.037 67.8309ZM196.042 88.4209L231.314 114.871L231.935 114.043L196.664 87.5927L196.042 88.4209ZM163.17 128.724C168.536 123.198 174.612 116.558 180.53 109.534L179.739 108.867C173.837 115.871 167.778 122.493 162.428 128.003L163.17 128.724ZM180.53 109.534C186.376 102.598 192.073 95.2824 196.782 88.2961L195.924 87.7175C191.241 94.664 185.569 101.949 179.739 108.867L180.53 109.534ZM231.244 114.107C223.914 122.076 216.02 129.194 208.336 135.04L208.963 135.864C216.696 129.981 224.635 122.821 232.006 114.808L231.244 114.107ZM208.336 135.04C200.13 141.283 192.176 146.066 185.415 148.889L185.813 149.844C192.68 146.977 200.711 142.142 208.963 135.864L208.336 135.04ZM179.784 109.582L208.299 135.833L209 135.071L180.485 108.82L179.784 109.582ZM162.448 128.744L185.263 149.748L185.964 148.986L163.149 127.982L162.448 128.744ZM152.34 85.6902C150.136 88.6243 147.917 91.6436 145.672 94.6977L146.506 95.3107C148.751 92.2558 150.967 89.2409 153.168 86.312L152.34 85.6902ZM145.672 94.6977C132.19 113.043 117.798 132.612 99.7272 143.171C90.7084 148.44 80.7834 151.458 69.6011 150.954C58.4146 150.449 45.9298 146.418 31.7991 137.524L31.2477 138.4C45.4908 147.364 58.1475 151.473 69.5545 151.988C80.9657 152.502 91.0862 149.419 100.249 144.065C118.542 133.376 133.06 113.608 146.506 95.3107L145.672 94.6977Z" fill="#16141F"/>
<path d="M339.268 165.6L306.267 201.448L345.993 238.02C353.189 228.443 360.226 219.78 367.547 213.71L339.268 165.6Z" fill="#FAF9F9"/>
<path d="M441.506 161.38C425.5 144.973 408.222 139.878 392.203 140.805L386.355 204.935C392.64 204.395 396.688 205.412 398.952 207.604L441.506 161.38Z" fill="#FAF9F9"/>
<path fill-rule="evenodd" clip-rule="evenodd" d="M378.854 301.386L355.303 350.951L311.932 313.031L356.039 280.382L378.854 301.386ZM401.889 287.471C409.598 281.606 417.514 274.468 424.865 266.477L389.593 240.026C384.897 246.992 379.212 254.293 373.374 261.22L401.889 287.471ZM453.769 220.01L399.732 221.263C401.824 215.285 401.895 210.452 398.952 207.604L441.506 161.38C458.618 178.922 460.339 199.753 453.769 220.01ZM392.203 140.805C369.773 142.103 349.811 155.208 339.268 165.6L367.547 213.71C373.545 208.736 379.733 205.504 386.355 204.935L392.203 140.805ZM339.329 247.024C341.574 243.969 343.791 240.952 345.993 238.02L306.267 201.448L224.763 289.981C281.511 325.698 312.4 283.666 339.329 247.024Z" fill="#E84355"/>
<path d="M373.374 261.22C367.464 268.233 361.397 274.865 356.039 280.382L378.854 301.386C385.668 298.541 393.66 293.732 401.889 287.471L373.374 261.22Z" fill="#FAF9F9"/>
<path d="M453.769 220.01L399.732 221.263C397.807 226.765 394.169 233.237 389.593 240.026L424.865 266.477C437.459 252.785 448.391 236.59 453.769 220.01Z" fill="#FAF9F9"/>
<path d="M224.763 289.981L224.382 289.631L223.961 290.088L224.487 290.419L224.763 289.981ZM339.268 165.6L338.905 165.232L338.896 165.24L338.888 165.25L339.268 165.6ZM441.506 161.38L441.876 161.019L441.506 161.38ZM355.303 350.951L354.962 351.341L355.477 351.791L355.77 351.174L355.303 350.951ZM311.932 313.031L311.624 312.615L311.107 312.998L311.591 313.421L311.932 313.031ZM345.993 238.02L346.407 238.331L345.993 238.02ZM367.547 213.71L367.877 214.108L367.547 213.71ZM399.732 221.263L399.243 221.092L399.732 221.263ZM389.593 240.026L389.164 239.737L389.593 240.026ZM339.329 247.024L339.746 247.33L339.329 247.024ZM378.386 301.164L354.835 350.729L355.77 351.174L379.321 301.608L378.386 301.164ZM355.644 350.562L312.273 312.641L311.591 313.421L354.962 351.341L355.644 350.562ZM312.24 313.447L356.347 280.798L355.731 279.966L311.624 312.615L312.24 313.447ZM225.144 290.332L306.648 201.799L305.886 201.098L224.382 289.631L225.144 290.332ZM306.648 201.799L339.649 165.951L338.888 165.25L305.886 201.098L306.648 201.799ZM346.344 237.64L306.617 201.067L305.916 201.829L345.643 238.401L346.344 237.64ZM386.311 204.419C379.545 205 373.26 208.3 367.216 213.311L367.877 214.108C373.83 209.172 379.921 206.007 386.4 205.451L386.311 204.419ZM367.216 213.311C359.844 219.424 352.776 228.131 345.58 237.71L346.407 238.331C353.602 228.755 360.607 220.136 367.877 214.108L367.216 213.311ZM338.822 165.863L367.1 213.972L367.993 213.447L339.715 165.338L338.822 165.863ZM339.632 165.969C350.12 155.63 369.97 142.61 392.232 141.322L392.173 140.289C369.576 141.596 349.503 154.786 338.905 165.232L339.632 165.969ZM392.232 141.322C408.104 140.403 425.236 145.443 441.135 161.742L441.876 161.019C425.765 144.504 408.34 139.353 392.173 140.289L392.232 141.322ZM386.871 204.982L392.718 140.852L391.687 140.758L385.84 204.888L386.871 204.982ZM399.312 207.232C396.882 204.88 392.639 203.876 386.311 204.419L386.4 205.451C392.641 204.915 396.494 205.944 398.592 207.976L399.312 207.232ZM399.333 207.954L441.887 161.731L441.125 161.03L398.571 207.253L399.333 207.954ZM400.22 221.434C402.319 215.437 402.496 210.314 399.312 207.232L398.592 207.976C401.293 210.591 401.329 215.133 399.243 221.092L400.22 221.434ZM441.135 161.742C458.084 179.115 459.802 199.732 453.276 219.85L454.261 220.17C460.876 199.774 459.153 178.729 441.876 161.019L441.135 161.742ZM399.744 221.781L453.781 220.527L453.757 219.492L399.72 220.746L399.744 221.781ZM390.022 240.315C394.608 233.512 398.274 226.997 400.22 221.434L399.243 221.092C397.34 226.532 393.731 232.962 389.164 239.737L390.022 240.315ZM453.276 219.85C447.929 236.336 437.047 252.468 424.484 266.126L425.246 266.827C437.87 253.101 448.853 236.843 454.261 220.17L453.276 219.85ZM389.282 240.44L424.554 266.891L425.175 266.063L389.903 239.612L389.282 240.44ZM356.41 280.743C361.776 275.218 367.851 268.577 373.77 261.554L372.978 260.887C367.077 267.89 361.017 274.513 355.667 280.022L356.41 280.743ZM373.77 261.554C379.616 254.617 385.313 247.302 390.022 240.315L389.164 239.737C384.481 246.683 378.809 253.968 372.978 260.887L373.77 261.554ZM424.484 266.126C417.154 274.095 409.26 281.213 401.576 287.059L402.203 287.883C409.935 282 417.874 274.841 425.246 266.827L424.484 266.126ZM401.576 287.059C393.37 293.302 385.416 298.085 378.654 300.908L379.053 301.864C385.92 298.997 393.95 294.161 402.203 287.883L401.576 287.059ZM373.024 261.601L401.539 287.852L402.24 287.09L373.725 260.839L373.024 261.601ZM355.688 280.763L378.503 301.767L379.204 301.005L356.389 280.002L355.688 280.763ZM345.58 237.71C343.375 240.644 341.156 243.663 338.912 246.717L339.746 247.33C341.991 244.275 344.207 241.26 346.407 238.331L345.58 237.71ZM338.912 246.717C325.43 265.062 311.038 284.631 292.967 295.19C283.948 300.46 274.023 303.477 262.841 302.973C251.654 302.468 239.17 298.437 225.039 289.543L224.487 290.419C238.731 299.384 251.387 303.492 262.794 304.007C274.205 304.522 284.326 301.438 293.489 296.084C311.782 285.395 326.299 265.627 339.746 247.33L338.912 246.717Z" fill="#16141F"/>
<path fill-rule="evenodd" clip-rule="evenodd" d="M105.413 228.736L157.138 210.409L160.916 267.896L106.653 259.722L105.413 228.736ZM79.2933 222.252C69.6972 220.935 59.0525 220.371 48.2037 220.81L54.3836 264.463C62.6322 262.868 71.8153 261.738 80.843 260.979L79.2933 222.252ZM-5.10779 233.158L33.9386 270.533C28.2284 273.274 24.7569 276.636 24.818 280.731L-37.9605 283.243C-37.6245 258.74 -24.0905 242.811 -5.10779 233.158ZM-17.7119 332.681C-0.953612 347.646 22.4212 352.526 37.2245 352.652L51.3187 298.656C43.5618 297.921 36.9027 295.822 31.8236 291.535L-17.7119 332.681ZM94.8329 295.11C91.0849 295.678 87.3829 296.238 83.752 296.749L85.9109 350.703L206.152 345.892C191.367 280.491 139.794 288.301 94.8329 295.11Z" fill="#E84355"/>
<path d="M37.2245 352.652L85.9109 350.703L83.752 296.749C71.8898 298.418 60.7865 299.553 51.3187 298.656L37.2245 352.652Z" fill="#FAF9F9"/>
<path d="M-5.10779 233.158L33.9386 270.533C39.1938 268.011 46.345 266.016 54.3836 264.463L48.2037 220.81C29.6158 221.562 10.429 225.258 -5.10779 233.158Z" fill="#FAF9F9"/>
<path d="M80.843 260.979C89.9823 260.211 98.9623 259.824 106.653 259.722L105.413 228.736C98.5864 225.92 89.5374 223.657 79.2933 222.252L80.843 260.979Z" fill="#FAF9F9"/>
<path d="M206.152 345.892L206.172 346.409L206.794 346.384L206.656 345.778L206.152 345.892ZM37.2245 352.652L37.2201 353.169L37.2327 353.169L37.2452 353.169L37.2245 352.652ZM-37.9605 283.243L-38.478 283.236L-37.9605 283.243ZM157.138 210.409L157.654 210.375L157.61 209.693L156.965 209.921L157.138 210.409ZM160.916 267.896L160.839 268.408L161.475 268.503L161.432 267.862L160.916 267.896ZM83.752 296.749L83.6799 296.237L83.752 296.749ZM51.3187 298.656L51.3675 298.141L51.3187 298.656ZM33.9386 270.533L34.1625 271L33.9386 270.533ZM54.3836 264.463L54.4818 264.971L54.3836 264.463ZM94.8329 295.11L94.7554 294.598L94.8329 295.11ZM105.585 229.224L157.311 210.897L156.965 209.921L105.24 228.248L105.585 229.224ZM156.621 210.443L160.399 267.93L161.432 267.862L157.654 210.375L156.621 210.443ZM160.993 267.384L106.73 259.21L106.575 260.234L160.839 268.408L160.993 267.384ZM206.131 345.375L85.8902 350.186L85.9316 351.221L206.172 346.409L206.131 345.375ZM85.8902 350.186L37.2038 352.134L37.2452 353.169L85.9316 351.221L85.8902 350.186ZM83.2348 296.77L85.3938 350.724L86.4281 350.683L84.2691 296.728L83.2348 296.77ZM31.4897 291.931C36.6789 296.311 43.4543 298.431 51.2699 299.171L51.3675 298.141C43.6693 297.412 37.1266 295.334 32.1574 291.14L31.4897 291.931ZM51.2699 299.171C60.804 300.074 71.9608 298.93 83.8241 297.262L83.6799 296.237C71.8189 297.905 60.769 299.031 51.3675 298.141L51.2699 299.171ZM37.7253 352.782L51.8195 298.787L50.8179 298.525L36.7237 352.521L37.7253 352.782ZM37.2289 352.134C22.5023 352.009 -0.733609 347.149 -17.3672 332.295L-18.0567 333.068C-1.1736 348.143 22.3401 353.042 37.2201 353.169L37.2289 352.134ZM-17.3672 332.295C-29.2255 321.707 -37.7552 306.017 -37.443 283.25L-38.478 283.236C-38.7944 306.306 -30.1363 322.281 -18.0567 333.068L-17.3672 332.295ZM31.4929 291.137L-18.0427 332.283L-17.3812 333.08L32.1543 291.933L31.4929 291.137ZM24.3005 280.739C24.3509 284.121 26.6367 287.834 31.4897 291.931L32.1574 291.14C27.3707 287.099 25.3791 283.644 25.3355 280.723L24.3005 280.739ZM24.7973 280.214L-37.9812 282.726L-37.9398 283.76L24.8387 281.248L24.7973 280.214ZM33.7147 270.067C27.9867 272.816 24.2343 276.308 24.3005 280.739L25.3355 280.723C25.2794 276.964 28.4701 273.732 34.1625 271L33.7147 270.067ZM-37.443 283.25C-37.1102 258.982 -23.7262 243.206 -4.8732 233.62L-5.34238 232.697C-24.4548 242.415 -38.1388 258.498 -38.478 283.236L-37.443 283.25ZM34.2965 270.16L-4.74989 232.784L-5.46568 233.532L33.5807 270.907L34.2965 270.16ZM54.2854 263.954C46.2302 265.512 39.0287 267.517 33.7147 270.067L34.1625 271C39.3588 268.506 46.4597 266.521 54.4818 264.971L54.2854 263.954ZM-4.8732 233.62C10.5755 225.764 29.6822 222.077 48.2247 221.327L48.1828 220.293C29.5493 221.047 10.2824 224.752 -5.34238 232.697L-4.8732 233.62ZM54.8961 264.39L48.7162 220.737L47.6913 220.883L53.8711 264.535L54.8961 264.39ZM106.646 259.204C98.9442 259.307 89.9519 259.695 80.7996 260.464L80.8863 261.495C90.0126 260.728 98.9804 260.342 106.659 260.239L106.646 259.204ZM80.7996 260.464C71.76 261.223 62.5576 262.355 54.2854 263.954L54.4818 264.971C62.7069 263.381 71.8706 262.253 80.8863 261.495L80.7996 260.464ZM48.2247 221.327C59.0428 220.89 69.6571 221.452 79.2229 222.765L79.3637 221.739C69.7374 220.419 59.0621 219.853 48.1828 220.293L48.2247 221.327ZM79.2229 222.765C89.4383 224.166 98.4416 226.42 105.215 229.214L105.61 228.257C98.7312 225.42 89.6365 223.149 79.3637 221.739L79.2229 222.765ZM81.3601 260.959L79.8105 222.231L78.7761 222.273L80.3258 261L81.3601 260.959ZM107.17 259.701L105.93 228.715L104.895 228.756L106.135 259.743L107.17 259.701ZM83.8241 297.262C87.4582 296.75 91.1629 296.189 94.9104 295.622L94.7554 294.598C91.0069 295.166 87.3076 295.726 83.6799 296.237L83.8241 297.262ZM94.9104 295.622C117.42 292.213 141.439 288.584 161.676 293.923C171.776 296.587 180.922 301.483 188.461 309.757C196.003 318.034 201.965 329.721 205.647 346.006L206.656 345.778C202.946 329.363 196.917 317.5 189.226 309.06C181.532 300.617 172.202 295.629 161.94 292.922C141.455 287.518 117.206 291.198 94.7554 294.598L94.9104 295.622Z" fill="#16141F"/>
<rect x="1.26262" y="127.935" width="235.836" height="331.325" transform="rotate(-32.3816 1.26262 127.935)" stroke="#16141F" stroke-width="1.03514"/>
</g>
</svg>
