<svg width="92" height="116" viewBox="0 0 92 116" fill="none" xmlns="http://www.w3.org/2000/svg">
<path fill-rule="evenodd" clip-rule="evenodd" d="M81.8874 1.26953H9.51947V105.637H45.7035H81.8874V1.26953Z" fill="#FAF9F9"/>
<path d="M1.15039 1.26953L2.62729 114.991H90.7488V1.26953H81.8874V105.637H45.7035H9.51947V1.26953H1.15039Z" fill="#16141F"/>
<path d="M1.15039 1.26953V0.777232H0.651657L0.658133 1.27592L1.15039 1.26953ZM2.62729 114.991L2.13503 114.997L2.14134 115.483H2.62729V114.991ZM90.7488 114.991V115.483H91.2411V114.991H90.7488ZM90.7488 1.26953H91.2411V0.777232H90.7488V1.26953ZM81.8874 105.637V106.129H82.3797V105.637H81.8874ZM9.51947 105.637H9.02717V106.129H9.51947V105.637ZM0.658133 1.27592L2.13503 114.997L3.11955 114.984L1.64265 1.26314L0.658133 1.27592ZM2.62729 115.483H90.7488V114.498H2.62729V115.483ZM91.2411 114.991V1.26953H90.2565V114.991H91.2411ZM90.7488 0.777232H81.8874V1.76183H90.7488V0.777232ZM81.3951 1.26953V105.637H82.3797V1.26953H81.3951ZM10.0118 105.637V1.26953H9.02717V105.637H10.0118ZM9.51947 0.777232H1.15039V1.76183H9.51947V0.777232ZM9.51947 1.76183H81.8874V0.777232H9.51947V1.76183ZM81.8874 105.145H45.7035V106.129H81.8874V105.145ZM45.7035 105.145H9.51947V106.129H45.7035V105.145Z" fill="#16141F"/>
<path d="M60.5911 10.6348L67.9427 7.4631L67.9427 9.30101L61.4313 12.0736L61.4313 10.9919L67.9427 13.8065L67.9427 15.4974L60.5911 12.3152L60.5911 10.6348ZM60.5911 16.088L66.2413 16.088L66.2413 17.7264L60.5911 17.7264L60.5911 16.088ZM67.029 16.9072C67.029 16.6061 67.1165 16.3611 67.2916 16.172C67.4666 15.983 67.6837 15.8885 67.9427 15.8885C68.2018 15.8885 68.4188 15.983 68.5939 16.172C68.7689 16.3611 68.8564 16.6061 68.8564 16.9072C68.8564 17.2083 68.7724 17.4533 68.6044 17.6424C68.4433 17.8314 68.2333 17.9259 67.9742 17.9259C67.7012 17.9259 67.4736 17.8314 67.2916 17.6424C67.1165 17.4603 67.029 17.2153 67.029 16.9072ZM60.507 22.051C60.507 21.4069 60.6331 20.8398 60.8851 20.3497C61.1372 19.8666 61.4803 19.492 61.9144 19.2259C62.3555 18.9599 62.8561 18.8268 63.4162 18.8268C63.9833 18.8268 64.4839 18.9564 64.918 19.2154C65.3591 19.4815 65.7022 19.842 65.9473 20.2972C66.1993 20.7523 66.3254 21.2669 66.3254 21.841C66.3254 22.3941 66.2063 22.8912 65.9683 23.3323C65.7372 23.7804 65.4011 24.134 64.96 24.3931C64.526 24.6521 64.0043 24.7817 63.3952 24.7817C63.3322 24.7817 63.2587 24.7782 63.1746 24.7712C63.0976 24.7642 63.0241 24.7572 62.9541 24.7502L62.9541 20.1606L63.9098 20.1606L63.9098 23.889L63.6262 23.2588C63.9203 23.2588 64.1759 23.1993 64.3929 23.0803C64.61 22.9613 64.778 22.7967 64.897 22.5867C65.0231 22.3766 65.0861 22.1316 65.0861 21.8515C65.0861 21.5714 65.0231 21.3229 64.897 21.1058C64.778 20.8958 64.6065 20.7313 64.3824 20.6122C64.1654 20.4932 63.9063 20.4337 63.6052 20.4337L63.3532 20.4337C63.0451 20.4337 62.7721 20.5002 62.534 20.6332C62.3029 20.7733 62.1244 20.9658 61.9984 21.2109C61.8794 21.4629 61.8198 21.757 61.8198 22.0931C61.8198 22.3941 61.8654 22.6567 61.9564 22.8807C62.0474 23.1118 62.1839 23.3218 62.366 23.5109L61.4208 24.3826C61.1267 24.1235 60.8991 23.7979 60.7381 23.4059C60.5841 23.0138 60.507 22.5622 60.507 22.051ZM60.507 28.183C60.507 27.5178 60.6751 26.9997 61.0112 26.6286C61.3542 26.2575 61.8619 26.072 62.534 26.072L67.4911 26.072L67.4911 27.7103L62.555 27.7103C62.317 27.7103 62.1314 27.7734 61.9984 27.8994C61.8724 28.0254 61.8093 28.197 61.8093 28.414C61.8093 28.6731 61.8794 28.8936 62.0194 29.0757L60.8641 29.5168C60.7451 29.3487 60.6541 29.1457 60.5911 28.9076C60.5351 28.6766 60.507 28.435 60.507 28.183ZM64.855 25.2003L66.1153 25.2003L66.1153 29.1177L64.855 29.1177L64.855 25.2003ZM66.3254 33.8707C66.3254 34.3188 66.2343 34.7179 66.0523 35.068C65.8773 35.4251 65.6042 35.7051 65.2331 35.9082C64.869 36.1112 64.3999 36.2128 63.8258 36.2128L60.5911 36.2128L60.5911 34.5744L63.5737 34.5744C64.0288 34.5744 64.3649 34.4729 64.582 34.2698C64.799 34.0738 64.9075 33.7937 64.9075 33.4296C64.9075 33.1706 64.8515 32.936 64.7395 32.726C64.6345 32.5229 64.4699 32.3619 64.2459 32.2429C64.0218 32.1308 63.7348 32.0748 63.3847 32.0748L60.5911 32.0748L60.5911 30.4364L66.2413 30.4364L66.2413 32.0013L64.6765 32.0013L65.1491 31.7072C65.5272 31.9103 65.8177 32.2008 66.0208 32.5789C66.2238 32.957 66.3254 33.3876 66.3254 33.8707ZM60.5911 41.1636L61.6938 41.1636L61.9354 41.0586L63.9098 41.0586C64.2599 41.0586 64.533 40.9501 64.729 40.733C64.925 40.523 65.0231 40.1974 65.0231 39.7563C65.0231 39.4552 64.9741 39.1577 64.876 38.8636C64.785 38.5765 64.659 38.3315 64.4979 38.1284L65.6427 37.5403C65.8598 37.8484 66.0278 38.2195 66.1468 38.6536C66.2658 39.0877 66.3254 39.5288 66.3254 39.9769C66.3254 40.8381 66.1223 41.5067 65.7162 41.9828C65.3101 42.4589 64.6765 42.697 63.8153 42.697L60.5911 42.697L60.5911 41.1636ZM60.507 39.4412C60.507 39.0001 60.5806 38.6221 60.7276 38.307C60.8816 37.9919 61.0882 37.7504 61.3472 37.5823C61.6063 37.4143 61.8969 37.3303 62.2189 37.3303C62.555 37.3303 62.8491 37.4108 63.1011 37.5718C63.3532 37.7399 63.5492 38.0024 63.6893 38.3595C63.8363 38.7166 63.9098 39.1822 63.9098 39.7563L63.9098 41.2582L62.9541 41.2582L62.9541 39.9349C62.9541 39.5498 62.8911 39.2837 62.7651 39.1367C62.639 38.9966 62.4815 38.9266 62.2924 38.9266C62.0824 38.9266 61.9144 39.0071 61.7883 39.1682C61.6693 39.3362 61.6098 39.5638 61.6098 39.8508C61.6098 40.1239 61.6728 40.369 61.7988 40.586C61.9319 40.8031 62.1244 40.9606 62.3765 41.0586L61.6203 41.3107C61.2562 41.1916 60.9797 40.9746 60.7906 40.6595C60.6016 40.3444 60.507 39.9384 60.507 39.4412ZM66.3254 51.4159C66.3254 51.864 66.2343 52.2596 66.0523 52.6027C65.8773 52.9528 65.6042 53.2258 65.2331 53.4219C64.869 53.6249 64.3999 53.7264 63.8258 53.7264L60.5911 53.7264L60.5911 52.0881L63.5737 52.0881C64.0288 52.0881 64.3649 51.9935 64.582 51.8045C64.799 51.6155 64.9075 51.3494 64.9075 51.0063C64.9075 50.7683 64.8515 50.5547 64.7395 50.3657C64.6345 50.1766 64.4734 50.0296 64.2564 49.9246C64.0393 49.8196 63.7628 49.767 63.4267 49.767L60.5911 49.767L60.5911 48.1287L63.5737 48.1287C64.0288 48.1287 64.3649 48.0341 64.582 47.8451C64.799 47.6631 64.9075 47.4005 64.9075 47.0574C64.9075 46.8194 64.8515 46.6058 64.7395 46.4168C64.6345 46.2277 64.4734 46.0807 64.2564 45.9757C64.0393 45.8707 63.7628 45.8182 63.4267 45.8182L60.5911 45.8182L60.5911 44.1798L66.2413 44.1798L66.2413 45.7446L64.6975 45.7446L65.1491 45.4506C65.5342 45.6466 65.8247 45.9232 66.0208 46.2803C66.2238 46.6443 66.3254 47.0574 66.3254 47.5195C66.3254 48.0377 66.1923 48.4893 65.9263 48.8743C65.6672 49.2664 65.2681 49.5255 64.729 49.6515L64.8865 49.0739C65.3276 49.2629 65.6777 49.564 65.9368 49.9771C66.1958 50.3972 66.3254 50.8768 66.3254 51.4159ZM59.5408 54.0922L69.4341 57.558L69.4341 59.0178L59.5408 55.552L59.5408 54.0922ZM47.465 11.6955C47.465 10.6523 47.7556 9.83663 48.3367 9.2485C48.9179 8.66036 49.7476 8.3663 50.8258 8.3663L54.9427 8.3663L54.9427 10.0677L50.8888 10.0677C50.1886 10.0677 49.6845 10.2112 49.3765 10.4983C49.0684 10.7853 48.9144 11.1879 48.9144 11.7061C48.9144 12.2242 49.0684 12.6268 49.3765 12.9138C49.6845 13.2009 50.1886 13.3444 50.8888 13.3444L54.9427 13.3444L54.9427 15.0248L50.8258 15.0248C49.7476 15.0248 48.9179 14.7307 48.3367 14.1426C47.7556 13.5545 47.465 12.7388 47.465 11.6955ZM53.3254 20.0248C53.3254 20.4729 53.2343 20.872 53.0523 21.2221C52.8773 21.5792 52.6042 21.8592 52.2331 22.0623C51.869 22.2653 51.3999 22.3669 50.8258 22.3669L47.5911 22.3669L47.5911 20.7285L50.5737 20.7285C51.0288 20.7285 51.3649 20.627 51.582 20.4239C51.799 20.2279 51.9075 19.9478 51.9075 19.5837C51.9075 19.3247 51.8515 19.0901 51.7395 18.8801C51.6345 18.677 51.4699 18.516 51.2459 18.397C51.0218 18.2849 50.7348 18.2289 50.3847 18.2289L47.5911 18.2289L47.5911 16.5906L53.2413 16.5906L53.2413 18.1554L51.6765 18.1554L52.1491 17.8613C52.5272 18.0644 52.8177 18.355 53.0208 18.733C53.2238 19.1111 53.3254 19.5417 53.3254 20.0248ZM47.5911 23.852L53.2413 23.852L53.2413 25.4903L47.5911 25.4903L47.5911 23.852ZM54.029 24.6711C54.029 24.3701 54.1165 24.125 54.2916 23.936C54.4666 23.7469 54.6837 23.6524 54.9427 23.6524C55.2018 23.6524 55.4188 23.7469 55.5939 23.936C55.7689 24.125 55.8564 24.3701 55.8564 24.6711C55.8564 24.9722 55.7724 25.2173 55.6044 25.4063C55.4433 25.5953 55.2333 25.6899 54.9742 25.6899C54.7012 25.6899 54.4736 25.5953 54.2916 25.4063C54.1165 25.2243 54.029 24.9792 54.029 24.6711ZM47.507 29.3214C47.507 28.6562 47.6751 28.1381 48.0112 27.767C48.3542 27.396 48.8619 27.2104 49.534 27.2104L54.4911 27.2104L54.4911 28.8488L49.555 28.8488C49.317 28.8488 49.1314 28.9118 48.9984 29.0378C48.8724 29.1639 48.8093 29.3354 48.8093 29.5524C48.8093 29.8115 48.8794 30.0321 49.0194 30.2141L47.8641 30.6552C47.7451 30.4872 47.6541 30.2841 47.5911 30.0461C47.5351 29.815 47.507 29.5734 47.507 29.3214ZM51.855 26.3387L53.1153 26.3387L53.1153 30.2561L51.855 30.2561L51.855 26.3387ZM47.507 34.2047C47.507 33.5605 47.6331 32.9934 47.8851 32.5033C48.1372 32.0202 48.4803 31.6456 48.9144 31.3795C49.3555 31.1135 49.8561 30.9804 50.4162 30.9804C50.9833 30.9804 51.4839 31.11 51.918 31.369C52.3591 31.6351 52.7022 31.9957 52.9473 32.4508C53.1993 32.9059 53.3254 33.4205 53.3254 33.9946C53.3254 34.5477 53.2063 35.0449 52.9683 35.486C52.7372 35.9341 52.4011 36.2876 51.96 36.5467C51.526 36.8058 51.0043 36.9353 50.3952 36.9353C50.3322 36.9353 50.2587 36.9318 50.1746 36.9248C50.0976 36.9178 50.0241 36.9108 49.9541 36.9038L49.9541 32.3142L50.9098 32.3142L50.9098 36.0426L50.6262 35.4124C50.9203 35.4124 51.1759 35.3529 51.3929 35.2339C51.61 35.1149 51.778 34.9503 51.897 34.7403C52.0231 34.5302 52.0861 34.2852 52.0861 34.0051C52.0861 33.7251 52.0231 33.4765 51.897 33.2595C51.778 33.0494 51.6065 32.8849 51.3824 32.7658C51.1654 32.6468 50.9063 32.5873 50.6052 32.5873L50.3532 32.5873C50.0451 32.5873 49.7721 32.6538 49.534 32.7868C49.3029 32.9269 49.1244 33.1194 48.9984 33.3645C48.8794 33.6165 48.8198 33.9106 48.8198 34.2467C48.8198 34.5477 48.8654 34.8103 48.9564 35.0344C49.0474 35.2654 49.1839 35.4755 49.366 35.6645L48.4208 36.5362C48.1267 36.2771 47.8991 35.9516 47.7381 35.5595C47.5841 35.1674 47.507 34.7158 47.507 34.2047ZM47.507 40.4521C47.507 39.92 47.6261 39.4404 47.8641 39.0133C48.1092 38.5862 48.4488 38.2466 48.8829 37.9945C49.317 37.7495 49.8281 37.627 50.4162 37.627C51.0113 37.627 51.526 37.7495 51.96 37.9945C52.3941 38.2466 52.7302 38.5862 52.9683 39.0133C53.2063 39.4404 53.3254 39.92 53.3254 40.4521C53.3254 40.9282 53.2203 41.3448 53.0103 41.7019C52.8002 42.059 52.4817 42.3355 52.0546 42.5316C51.6275 42.7276 51.0813 42.8256 50.4162 42.8256C49.7581 42.8256 49.2119 42.7311 48.7778 42.5421C48.3507 42.353 48.0322 42.08 47.8221 41.7229C47.6121 41.3728 47.507 40.9492 47.507 40.4521ZM48.8513 40.7357C48.8513 41.0017 48.9144 41.2433 49.0404 41.4603C49.1664 41.6774 49.345 41.8489 49.576 41.9749C49.8141 42.108 50.0941 42.1745 50.4162 42.1745C50.7453 42.1745 51.0253 42.108 51.2564 41.9749C51.4874 41.8489 51.666 41.6774 51.792 41.4603C51.918 41.2433 51.9811 41.0017 51.9811 40.7357C51.9811 40.4626 51.918 40.2175 51.792 40.0005C51.666 39.7834 51.4874 39.6084 51.2564 39.4754C51.0253 39.3493 50.7453 39.2863 50.4162 39.2863C50.0941 39.2863 49.8141 39.3493 49.576 39.4754C49.345 39.6084 49.1664 39.7834 49.0404 40.0005C48.9144 40.2175 48.8513 40.4626 48.8513 40.7357ZM47.5911 42.2165L48.7463 42.2165L50.4267 42.248L52.0966 42.143L55.3838 42.143L55.3838 43.7813L47.5911 43.7813L47.5911 42.2165ZM47.465 53.8898C47.465 53.3016 47.5421 52.738 47.6961 52.1989C47.8571 51.6598 48.0637 51.2257 48.3157 50.8966L49.597 51.4742C49.373 51.7893 49.1874 52.1604 49.0404 52.5875C48.9004 53.0216 48.8303 53.4592 48.8303 53.9003C48.8303 54.2364 48.8618 54.5059 48.9249 54.709C48.9949 54.919 49.0894 55.073 49.2084 55.1711C49.3275 55.2691 49.464 55.3181 49.618 55.3181C49.8141 55.3181 49.9681 55.2411 50.0801 55.087C50.1992 54.933 50.2937 54.73 50.3637 54.4779C50.4407 54.2259 50.5107 53.9458 50.5737 53.6377C50.6438 53.3367 50.7278 53.0321 50.8258 52.724C50.9238 52.4229 51.0498 52.1464 51.2039 51.8943C51.3579 51.6423 51.561 51.4357 51.813 51.2747C52.0651 51.1207 52.3871 51.0436 52.7792 51.0436C53.1993 51.0436 53.5809 51.1557 53.924 51.3797C54.2741 51.6108 54.5506 51.9538 54.7537 52.4089C54.9637 52.871 55.0687 53.4487 55.0687 54.1418C55.0687 54.6039 55.0127 55.059 54.9007 55.5071C54.7957 55.9552 54.6347 56.3508 54.4176 56.6939L53.1258 56.1688C53.3219 55.8257 53.4654 55.4826 53.5564 55.1396C53.6544 54.7965 53.7034 54.4604 53.7034 54.1313C53.7034 53.8023 53.6649 53.5327 53.5879 53.3226C53.5109 53.1126 53.4094 52.9621 53.2833 52.871C53.1643 52.78 53.0243 52.7345 52.8633 52.7345C52.6742 52.7345 52.5202 52.8115 52.4011 52.9656C52.2891 53.1196 52.1981 53.3226 52.1281 53.5747C52.0581 53.8268 51.9881 54.1033 51.918 54.4044C51.848 54.7125 51.7675 55.017 51.6765 55.3181C51.5855 55.6262 51.4629 55.9062 51.3089 56.1583C51.1549 56.4103 50.9518 56.6134 50.6998 56.7674C50.4477 56.9285 50.1291 57.009 49.744 57.009C49.331 57.009 48.9529 56.8935 48.6098 56.6624C48.2667 56.4313 47.9902 56.0848 47.7801 55.6227C47.5701 55.1676 47.465 54.5899 47.465 53.8898ZM47.507 60.3665C47.507 59.7014 47.6751 59.1833 48.0112 58.8122C48.3542 58.4411 48.8618 58.2556 49.534 58.2556L54.4911 58.2556L54.4911 59.8939L49.555 59.8939C49.317 59.8939 49.1314 59.9569 48.9984 60.083C48.8724 60.209 48.8093 60.3805 48.8093 60.5976C48.8093 60.8566 48.8794 61.0772 49.0194 61.2592L47.8641 61.7003C47.7451 61.5323 47.6541 61.3293 47.5911 61.0912C47.535 60.8601 47.507 60.6186 47.507 60.3665ZM51.855 57.3839L53.1153 57.3839L53.1153 61.3012L51.855 61.3012L51.855 57.3839ZM47.5911 66.0858L48.6938 66.0858L48.9354 65.9808L50.9098 65.9808C51.2599 65.9808 51.533 65.8723 51.729 65.6552C51.925 65.4452 52.0231 65.1196 52.0231 64.6785C52.0231 64.3774 51.9741 64.0799 51.876 63.7858C51.785 63.4987 51.659 63.2537 51.4979 63.0506L52.6427 62.4625C52.8597 62.7706 53.0278 63.1416 53.1468 63.5757C53.2658 64.0098 53.3254 64.4509 53.3254 64.899C53.3254 65.7602 53.1223 66.4289 52.7162 66.905C52.3101 67.3811 51.6765 67.6192 50.8153 67.6192L47.5911 67.6192L47.5911 66.0858ZM47.507 64.3634C47.507 63.9223 47.5806 63.5442 47.7276 63.2292C47.8816 62.9141 48.0882 62.6725 48.3472 62.5045C48.6063 62.3365 48.8969 62.2524 49.2189 62.2524C49.555 62.2524 49.8491 62.333 50.1011 62.494C50.3532 62.662 50.5492 62.9246 50.6893 63.2817C50.8363 63.6388 50.9098 64.1044 50.9098 64.6785L50.9098 66.1803L49.9541 66.1803L49.9541 64.857C49.9541 64.4719 49.8911 64.2059 49.7651 64.0589C49.639 63.9188 49.4815 63.8488 49.2924 63.8488C49.0824 63.8488 48.9144 63.9293 48.7883 64.0904C48.6693 64.2584 48.6098 64.486 48.6098 64.773C48.6098 65.0461 48.6728 65.2911 48.7988 65.5082C48.9319 65.7252 49.1244 65.8828 49.3765 65.9808L48.6203 66.2328C48.2562 66.1138 47.9796 65.8968 47.7906 65.5817C47.6016 65.2666 47.507 64.8605 47.507 64.3634ZM47.507 71.4125C47.507 70.7473 47.6751 70.2292 48.0112 69.8581C48.3542 69.487 48.8618 69.3015 49.534 69.3015L54.4911 69.3015L54.4911 70.9399L49.555 70.9399C49.317 70.9399 49.1314 71.0029 48.9984 71.1289C48.8724 71.2549 48.8093 71.4265 48.8093 71.6435C48.8093 71.9026 48.8794 72.1231 49.0194 72.3052L47.8641 72.7463C47.7451 72.5782 47.6541 72.3752 47.5911 72.1371C47.535 71.9061 47.507 71.6645 47.507 71.4125ZM51.855 68.4298L53.1153 68.4298L53.1153 72.3472L51.855 72.3472L51.855 68.4298ZM47.507 76.2958C47.507 75.6516 47.6331 75.0845 47.8851 74.5944C48.1372 74.1113 48.4803 73.7367 48.9144 73.4706C49.3555 73.2046 49.8561 73.0715 50.4162 73.0715C50.9833 73.0715 51.4839 73.2011 51.918 73.4601C52.3591 73.7262 52.7022 74.0868 52.9473 74.5419C53.1993 74.997 53.3254 75.5116 53.3254 76.0857C53.3254 76.6388 53.2063 77.1359 52.9683 77.577C52.7372 78.0252 52.4011 78.3787 51.96 78.6378C51.5259 78.8968 51.0043 79.0264 50.3952 79.0264C50.3322 79.0264 50.2587 79.0229 50.1746 79.0159C50.0976 79.0089 50.0241 79.0019 49.9541 78.9949L49.9541 74.4053L50.9098 74.4053L50.9098 78.1337L50.6262 77.5035C50.9203 77.5035 51.1759 77.444 51.3929 77.325C51.61 77.206 51.778 77.0414 51.897 76.8314C52.0231 76.6213 52.0861 76.3763 52.0861 76.0962C52.0861 75.8162 52.0231 75.5676 51.897 75.3505C51.778 75.1405 51.6065 74.976 51.3824 74.8569C51.1654 74.7379 50.9063 74.6784 50.6052 74.6784L50.3532 74.6784C50.0451 74.6784 49.7721 74.7449 49.534 74.8779C49.3029 75.018 49.1244 75.2105 48.9984 75.4556C48.8794 75.7076 48.8198 76.0017 48.8198 76.3378C48.8198 76.6388 48.8653 76.9014 48.9564 77.1254C49.0474 77.3565 49.1839 77.5665 49.366 77.7556L48.4207 78.6273C48.1267 78.3682 47.8991 78.0427 47.7381 77.6506C47.5841 77.2585 47.507 76.8069 47.507 76.2958ZM47.507 82.0181C47.507 81.535 47.5631 81.0694 47.6751 80.6213C47.7941 80.1802 47.9411 79.8301 48.1162 79.571L49.2924 80.1171C49.1314 80.3762 48.9984 80.6808 48.8934 81.0308C48.7953 81.3879 48.7463 81.738 48.7463 82.0811C48.7463 82.4592 48.7918 82.7252 48.8829 82.8793C48.9739 83.0403 49.0999 83.1208 49.2609 83.1208C49.394 83.1208 49.492 83.0578 49.555 82.9318C49.625 82.8127 49.6775 82.6517 49.7125 82.4487C49.7475 82.2456 49.7826 82.0216 49.8176 81.7765C49.8526 81.5385 49.8981 81.2969 49.9541 81.0518C50.0171 80.8068 50.1081 80.5827 50.2272 80.3797C50.3462 80.1767 50.5072 80.0121 50.7103 79.8861C50.9133 79.7671 51.1759 79.7075 51.4979 79.7075C51.855 79.7075 52.1701 79.8091 52.4432 80.0121C52.7162 80.2222 52.9298 80.5232 53.0838 80.9153C53.2448 81.3074 53.3254 81.7765 53.3254 82.3226C53.3254 82.7077 53.2833 83.0998 53.1993 83.4989C53.1153 83.898 52.9928 84.2306 52.8317 84.4966L51.666 83.9505C51.827 83.6774 51.9355 83.4009 51.9916 83.1208C52.0546 82.8478 52.0861 82.5817 52.0861 82.3226C52.0861 81.9586 52.0371 81.6925 51.939 81.5245C51.841 81.3564 51.715 81.2724 51.561 81.2724C51.4209 81.2724 51.3159 81.3319 51.2459 81.4509C51.1759 81.577 51.1199 81.7415 51.0778 81.9446C51.0358 82.1476 50.9973 82.3681 50.9623 82.6062C50.9343 82.8513 50.8888 83.0963 50.8258 83.3414C50.7628 83.5864 50.6718 83.807 50.5527 84.003C50.4407 84.2061 50.2832 84.3706 50.0801 84.4966C49.8841 84.6227 49.625 84.6857 49.3029 84.6857C48.9529 84.6857 48.6413 84.5806 48.3682 84.3706C48.1022 84.1606 47.8921 83.856 47.7381 83.4569C47.5841 83.0648 47.507 82.5852 47.507 82.0181ZM46.5408 84.5938L56.4341 88.0596L56.4341 89.5194L46.5408 86.0536L46.5408 84.5938ZM34.5911 9.95216L40.5564 9.95216L40.5564 7.59963L41.9427 7.59963L41.9427 14.0061L40.5564 14.0061L40.5564 11.6535L34.5911 11.6535L34.5911 9.95216ZM34.507 17.0669C34.507 16.5978 34.5981 16.1777 34.7801 15.8067C34.9621 15.4426 35.2387 15.159 35.6098 14.956C35.9879 14.7529 36.4675 14.6514 37.0486 14.6514L40.2413 14.6514L40.2413 16.2898L37.2902 16.2898C36.8211 16.2898 36.4745 16.3878 36.2504 16.5838C36.0334 16.7869 35.9249 17.0704 35.9249 17.4345C35.9249 17.6866 35.9774 17.9106 36.0824 18.1067C36.1944 18.3027 36.3625 18.4567 36.5865 18.5688C36.8176 18.6808 37.1046 18.7368 37.4477 18.7368L40.2413 18.7368L40.2413 20.3752L34.5911 20.3752L34.5911 18.8208L36.1454 18.8208L35.6938 19.1044C35.3017 18.9154 35.0042 18.6353 34.8011 18.2642C34.6051 17.9001 34.507 17.501 34.507 17.0669ZM34.5911 21.893L40.2413 21.893L40.2413 23.4579L38.645 23.4579L39.1071 23.2373C39.5062 23.4054 39.8072 23.6749 40.0103 24.046C40.2203 24.4171 40.3254 24.8687 40.3254 25.4008L38.813 25.4008C38.82 25.3308 38.8235 25.2678 38.8235 25.2118C38.8305 25.1558 38.834 25.0962 38.834 25.0332C38.834 24.5851 38.7045 24.221 38.4454 23.941C38.1934 23.6679 37.7978 23.5314 37.2587 23.5314L34.5911 23.5314L34.5911 21.893ZM35.7463 27.74L37.7418 27.7821L40.2413 30.4182L40.2413 32.3716L37.6683 29.8405L36.9751 28.9898L35.7463 27.74ZM34.5911 26.3852L42.3838 26.3852L42.3838 28.0236L34.5911 28.0236L34.5911 26.3852ZM34.5911 30.5967L36.9646 28.6853L38.2354 29.7145L34.5911 32.5816L34.5911 30.5967ZM34.507 35.8867C34.507 35.2425 34.6331 34.6754 34.8851 34.1853C35.1372 33.7022 35.4803 33.3276 35.9144 33.0615C36.3555 32.7955 36.8561 32.6625 37.4162 32.6625C37.9833 32.6625 38.4839 32.792 38.918 33.051C39.3591 33.3171 39.7022 33.6777 39.9473 34.1328C40.1993 34.5879 40.3254 35.1025 40.3254 35.6766C40.3254 36.2298 40.2063 36.7269 39.9683 37.168C39.7372 37.6161 39.4011 37.9697 38.96 38.2287C38.5259 38.4878 38.0043 38.6173 37.3952 38.6173C37.3322 38.6173 37.2587 38.6138 37.1746 38.6068C37.0976 38.5998 37.0241 38.5928 36.9541 38.5858L36.9541 33.9963L37.9098 33.9963L37.9098 37.7246L37.6262 37.0945C37.9203 37.0945 38.1759 37.0349 38.3929 36.9159C38.61 36.7969 38.778 36.6324 38.897 36.4223C39.0231 36.2123 39.0861 35.9672 39.0861 35.6871C39.0861 35.4071 39.0231 35.1585 38.897 34.9415C38.778 34.7314 38.6065 34.5669 38.3824 34.4479C38.1654 34.3288 37.9063 34.2693 37.6052 34.2693L37.3532 34.2693C37.0451 34.2693 36.7721 34.3358 36.534 34.4689C36.3029 34.6089 36.1244 34.8014 35.9984 35.0465C35.8794 35.2986 35.8198 35.5926 35.8198 35.9287C35.8198 36.2298 35.8654 36.4923 35.9564 36.7164C36.0474 36.9474 36.1839 37.1575 36.366 37.3465L35.4208 38.2182C35.1267 37.9592 34.8991 37.6336 34.7381 37.2415C34.5841 36.8494 34.507 36.3978 34.507 35.8867ZM32.4696 40.3197C32.4696 40.0256 32.5151 39.735 32.6061 39.448C32.6971 39.1609 32.8232 38.9264 32.9842 38.7443L34.15 39.3429C34.0379 39.469 33.9504 39.6125 33.8874 39.7735C33.8244 39.9416 33.7929 40.1061 33.7929 40.2672C33.7929 40.4982 33.8489 40.6802 33.9609 40.8133C34.0659 40.9533 34.2445 41.0793 34.4965 41.1914L35.1897 41.4854L35.3682 41.6115L40.2413 43.6384L40.2413 45.2138L34.2445 42.6617C33.7894 42.4797 33.4323 42.2696 33.1732 42.0316C32.9142 41.8005 32.7321 41.5414 32.6271 41.2544C32.5221 40.9743 32.4696 40.6627 32.4696 40.3197ZM34.3705 41.2859L40.2413 38.7653L40.2413 40.4562L35.5153 42.4096L34.3705 41.2859ZM33.5408 44.4103L43.4341 47.8761L43.4341 49.336L33.5408 45.8702L33.5408 44.4103ZM34.5911 49.7414L41.9427 49.7414L41.9427 52.9236C41.9427 53.5817 41.8342 54.1489 41.6171 54.625C41.4071 55.1011 41.1025 55.4686 40.7034 55.7277C40.3044 55.9868 39.8282 56.1163 39.2751 56.1163C38.729 56.1163 38.2564 55.9868 37.8573 55.7277C37.4652 55.4686 37.1641 55.1011 36.9541 54.625C36.744 54.1489 36.639 53.5817 36.639 52.9236L36.639 50.6866L37.3847 51.4427L34.5911 51.4427L34.5911 49.7414ZM34.5911 54.4149L37.2587 52.577L37.2587 54.3939L34.5911 56.2528L34.5911 54.4149ZM37.1956 51.4427L37.9938 50.6866L37.9938 52.8291C37.9938 53.3542 38.1059 53.7463 38.3299 54.0053C38.561 54.2644 38.876 54.3939 39.2751 54.3939C39.6812 54.3939 39.9963 54.2644 40.2203 54.0053C40.4444 53.7463 40.5564 53.3542 40.5564 52.8291L40.5564 50.6866L41.3651 51.4427L37.1956 51.4427ZM34.507 59.7328C34.507 59.2637 34.5981 58.8436 34.7801 58.4725C34.9621 58.1084 35.2387 57.8249 35.6098 57.6218C35.9879 57.4188 36.4675 57.3173 37.0486 57.3173L40.2413 57.3173L40.2413 58.9556L37.2902 58.9556C36.8211 58.9556 36.4745 59.0536 36.2504 59.2497C36.0334 59.4527 35.9249 59.7363 35.9249 60.1004C35.9249 60.3524 35.9774 60.5765 36.0824 60.7725C36.1944 60.9686 36.3625 61.1226 36.5865 61.2346C36.8176 61.3467 37.1046 61.4027 37.4477 61.4027L40.2413 61.4027L40.2413 63.041L34.5911 63.041L34.5911 61.4867L36.1454 61.4867L35.6938 61.7703C35.3017 61.5812 35.0042 61.3012 34.8011 60.9301C34.6051 60.566 34.507 60.1669 34.507 59.7328ZM34.507 66.4598C34.507 65.9767 34.5631 65.5111 34.6751 65.063C34.7941 64.6219 34.9411 64.2718 35.1162 64.0128L36.2924 64.5589C36.1314 64.8179 35.9984 65.1225 35.8934 65.4726C35.7953 65.8297 35.7463 66.1797 35.7463 66.5228C35.7463 66.9009 35.7918 67.167 35.8829 67.321C35.9739 67.482 36.0999 67.5626 36.2609 67.5626C36.394 67.5626 36.492 67.4995 36.555 67.3735C36.625 67.2545 36.6775 67.0935 36.7125 66.8904C36.7475 66.6874 36.7826 66.4633 36.8176 66.2183C36.8526 65.9802 36.8981 65.7387 36.9541 65.4936C37.0171 65.2485 37.1081 65.0245 37.2272 64.8214C37.3462 64.6184 37.5072 64.4539 37.7103 64.3278C37.9133 64.2088 38.1759 64.1493 38.4979 64.1493C38.855 64.1493 39.1701 64.2508 39.4432 64.4539C39.7162 64.6639 39.9298 64.965 40.0838 65.3571C40.2448 65.7492 40.3254 66.2183 40.3254 66.7644C40.3254 67.1495 40.2833 67.5416 40.1993 67.9406C40.1153 68.3397 39.9928 68.6723 39.8317 68.9384L38.666 68.3922C38.827 68.1192 38.9355 67.8426 38.9916 67.5626C39.0546 67.2895 39.0861 67.0234 39.0861 66.7644C39.0861 66.4003 39.0371 66.1342 38.939 65.9662C38.841 65.7982 38.715 65.7141 38.561 65.7141C38.4209 65.7141 38.3159 65.7737 38.2459 65.8927C38.1759 66.0187 38.1199 66.1833 38.0778 66.3863C38.0358 66.5893 37.9973 66.8099 37.9623 67.0479C37.9343 67.293 37.8888 67.5381 37.8258 67.7831C37.7628 68.0282 37.6718 68.2487 37.5527 68.4448C37.4407 68.6478 37.2832 68.8123 37.0801 68.9384C36.8841 69.0644 36.625 69.1274 36.3029 69.1274C35.9529 69.1274 35.6413 69.0224 35.3682 68.8123C35.1022 68.6023 34.8921 68.2977 34.7381 67.8986C34.5841 67.5065 34.507 67.0269 34.507 66.4598ZM34.507 72.0392C34.507 71.5561 34.5631 71.0905 34.6751 70.6424C34.7941 70.2013 34.9411 69.8512 35.1162 69.5921L36.2924 70.1383C36.1314 70.3973 35.9984 70.7019 35.8934 71.052C35.7953 71.4091 35.7463 71.7591 35.7463 72.1022C35.7463 72.4803 35.7918 72.7464 35.8829 72.9004C35.9739 73.0614 36.0999 73.1419 36.2609 73.1419C36.394 73.1419 36.492 73.0789 36.555 72.9529C36.625 72.8339 36.6775 72.6728 36.7125 72.4698C36.7475 72.2667 36.7826 72.0427 36.8176 71.7976C36.8526 71.5596 36.8981 71.318 36.9541 71.073C37.0171 70.8279 37.1081 70.6039 37.2272 70.4008C37.3462 70.1978 37.5072 70.0332 37.7103 69.9072C37.9133 69.7882 38.1759 69.7287 38.4979 69.7287C38.855 69.7287 39.1701 69.8302 39.4432 70.0332C39.7162 70.2433 39.9298 70.5444 40.0838 70.9364C40.2448 71.3285 40.3254 71.7976 40.3254 72.3438C40.3254 72.7289 40.2833 73.1209 40.1993 73.52C40.1153 73.9191 39.9928 74.2517 39.8317 74.5178L38.666 73.9716C38.827 73.6986 38.9355 73.422 38.9916 73.1419C39.0546 72.8689 39.0861 72.6028 39.0861 72.3438C39.0861 71.9797 39.0371 71.7136 38.939 71.5456C38.841 71.3775 38.715 71.2935 38.561 71.2935C38.4209 71.2935 38.3159 71.353 38.2459 71.4721C38.1759 71.5981 38.1199 71.7626 38.0778 71.9657C38.0358 72.1687 37.9973 72.3893 37.9623 72.6273C37.9343 72.8724 37.8888 73.1174 37.8258 73.3625C37.7628 73.6076 37.6718 73.8281 37.5527 74.0241C37.4407 74.2272 37.2832 74.3917 37.0801 74.5178C36.8841 74.6438 36.625 74.7068 36.3029 74.7068C35.9529 74.7068 35.6413 74.6018 35.3682 74.3917C35.1022 74.1817 34.8921 73.8771 34.7381 73.478C34.5841 73.0859 34.507 72.6063 34.507 72.0392ZM34.5911 75.7176L40.2413 75.7176L40.2413 77.356L34.5911 77.356L34.5911 75.7176ZM41.029 76.5368C41.029 76.2358 41.1165 75.9907 41.2916 75.8017C41.4666 75.6126 41.6837 75.5181 41.9427 75.5181C42.2018 75.5181 42.4188 75.6126 42.5939 75.8017C42.7689 75.9907 42.8564 76.2358 42.8564 76.5368C42.8564 76.8379 42.7724 77.083 42.6044 77.272C42.4433 77.461 42.2333 77.5556 41.9742 77.5556C41.7012 77.5556 41.4736 77.461 41.2916 77.272C41.1165 77.09 41.029 76.8449 41.029 76.5368ZM34.5911 82.3423L35.6938 82.3423L35.9354 82.2373L37.9098 82.2373C38.2599 82.2373 38.5329 82.1288 38.729 81.9117C38.925 81.7017 39.0231 81.3761 39.0231 80.935C39.0231 80.634 38.974 80.3364 38.876 80.0423C38.785 79.7553 38.659 79.5102 38.4979 79.3072L39.6427 78.719C39.8597 79.0271 40.0278 79.3982 40.1468 79.8323C40.2658 80.2664 40.3254 80.7075 40.3254 81.1556C40.3254 82.0168 40.1223 82.6854 39.7162 83.1615C39.3101 83.6376 38.6765 83.8757 37.8153 83.8757L34.5911 83.8757L34.5911 82.3423ZM34.507 80.62C34.507 80.1789 34.5806 79.8008 34.7276 79.4857C34.8816 79.1706 35.0882 78.9291 35.3472 78.761C35.6063 78.593 35.8969 78.509 36.2189 78.509C36.555 78.509 36.8491 78.5895 37.1011 78.7505C37.3532 78.9186 37.5492 79.1811 37.6893 79.5382C37.8363 79.8953 37.9098 80.3609 37.9098 80.935L37.9098 82.4369L36.9541 82.4369L36.9541 81.1136C36.9541 80.7285 36.8911 80.4624 36.7651 80.3154C36.639 80.1754 36.4815 80.1053 36.2924 80.1053C36.0824 80.1053 35.9144 80.1859 35.7883 80.3469C35.6693 80.5149 35.6098 80.7425 35.6098 81.0295C35.6098 81.3026 35.6728 81.5477 35.7988 81.7647C35.9319 81.9818 36.1244 82.1393 36.3765 82.2373L35.6203 82.4894C35.2562 82.3703 34.9796 82.1533 34.7906 81.8382C34.6016 81.5232 34.507 81.1171 34.507 80.62ZM33.5408 84.2557L43.4341 87.7215L43.4341 89.1814L33.5408 85.7156L33.5408 84.2557ZM21.5911 8.42931L28.9427 8.42931L28.9427 11.6115C28.9427 12.2697 28.8342 12.8368 28.6171 13.3129C28.4071 13.789 28.1025 14.1566 27.7034 14.4157C27.3044 14.6747 26.8282 14.8042 26.2751 14.8042C25.729 14.8042 25.2564 14.6747 24.8573 14.4157C24.4582 14.1566 24.1501 13.789 23.9331 13.3129C23.723 12.8368 23.618 12.2697 23.618 11.6115L23.618 9.37452L24.3847 10.1307L21.5911 10.1307L21.5911 8.42931ZM24.1957 10.1307L25.0043 9.37452L25.0043 11.517C25.0043 12.0421 25.1164 12.4342 25.3404 12.6933C25.5645 12.9523 25.876 13.0819 26.2751 13.0819C26.6812 13.0819 26.9963 12.9523 27.2203 12.6933C27.4444 12.4342 27.5564 12.0421 27.5564 11.517L27.5564 9.37452L28.3651 10.1307L24.1957 10.1307ZM21.507 18.5817C21.507 17.9796 21.6331 17.444 21.8851 16.9749C22.1372 16.5128 22.4803 16.1452 22.9144 15.8721C23.3555 15.6061 23.8561 15.473 24.4162 15.473C24.9833 15.473 25.4839 15.6061 25.918 15.8721C26.3591 16.1452 26.7022 16.5128 26.9473 16.9749C27.1993 17.444 27.3254 17.9796 27.3254 18.5817C27.3254 19.1769 27.1993 19.709 26.9473 20.1781C26.7022 20.6472 26.3626 21.0148 25.9285 21.2808C25.4944 21.5469 24.9903 21.6799 24.4162 21.6799C23.8561 21.6799 23.3555 21.5469 22.9144 21.2808C22.4803 21.0148 22.1372 20.6472 21.8851 20.1781C21.6331 19.709 21.507 19.1769 21.507 18.5817ZM22.8513 18.5817C22.8513 18.8548 22.9144 19.0999 23.0404 19.3169C23.1664 19.534 23.345 19.7055 23.576 19.8315C23.8141 19.9575 24.0941 20.0206 24.4162 20.0206C24.7453 20.0206 25.0253 19.9575 25.2564 19.8315C25.4874 19.7055 25.666 19.534 25.792 19.3169C25.918 19.0999 25.9811 18.8548 25.9811 18.5817C25.9811 18.3087 25.918 18.0636 25.792 17.8466C25.666 17.6295 25.4874 17.4545 25.2564 17.3215C25.0253 17.1954 24.7453 17.1324 24.4162 17.1324C24.0941 17.1324 23.8141 17.1954 23.576 17.3215C23.345 17.4545 23.1664 17.6295 23.0404 17.8466C22.9144 18.0636 22.8513 18.3087 22.8513 18.5817ZM21.5911 22.7751L29.3838 22.7751L29.3838 24.4134L21.5911 24.4134L21.5911 22.7751ZM21.5911 29.3997L22.6938 29.3997L22.9354 29.2947L24.9098 29.2947C25.2599 29.2947 25.533 29.1862 25.729 28.9692C25.925 28.7591 26.0231 28.4335 26.0231 27.9924C26.0231 27.6914 25.9741 27.3938 25.876 27.0997C25.785 26.8127 25.659 26.5676 25.4979 26.3646L26.6427 25.7764C26.8598 26.0845 27.0278 26.4556 27.1468 26.8897C27.2658 27.3238 27.3254 27.7649 27.3254 28.213C27.3254 29.0742 27.1223 29.7428 26.7162 30.2189C26.3101 30.695 25.6765 30.9331 24.8153 30.9331L21.5911 30.9331L21.5911 29.3997ZM21.507 27.6774C21.507 27.2363 21.5806 26.8582 21.7276 26.5431C21.8816 26.228 22.0882 25.9865 22.3472 25.8184C22.6063 25.6504 22.8969 25.5664 23.2189 25.5664C23.555 25.5664 23.8491 25.6469 24.1011 25.8079C24.3532 25.976 24.5492 26.2385 24.6893 26.5956C24.8363 26.9527 24.9098 27.4183 24.9098 27.9924L24.9098 29.4943L23.9541 29.4943L23.9541 28.171C23.9541 27.7859 23.8911 27.5198 23.7651 27.3728C23.639 27.2328 23.4815 27.1627 23.2924 27.1627C23.0824 27.1627 22.9144 27.2433 22.7883 27.4043C22.6693 27.5723 22.6098 27.7999 22.6098 28.087C22.6098 28.36 22.6728 28.6051 22.7988 28.8221C22.9319 29.0392 23.1244 29.1967 23.3765 29.2947L22.6203 29.5468C22.2562 29.4278 21.9797 29.2107 21.7906 28.8956C21.6016 28.5806 21.507 28.1745 21.507 27.6774ZM27.3254 35.8502C27.3254 36.2983 27.2343 36.6974 27.0523 37.0474C26.8773 37.4045 26.6042 37.6846 26.2331 37.8876C25.869 38.0907 25.3999 38.1922 24.8258 38.1922L21.5911 38.1922L21.5911 36.5538L24.5737 36.5538C25.0288 36.5538 25.3649 36.4523 25.582 36.2493C25.799 36.0532 25.9075 35.7732 25.9075 35.4091C25.9075 35.15 25.8515 34.9155 25.7395 34.7054C25.6345 34.5024 25.4699 34.3413 25.2459 34.2223C25.0218 34.1103 24.7348 34.0543 24.3847 34.0543L21.5911 34.0543L21.5911 32.4159L27.2413 32.4159L27.2413 33.9808L25.6765 33.9808L26.1491 33.6867C26.5272 33.8897 26.8177 34.1803 27.0208 34.5584C27.2238 34.9365 27.3254 35.3671 27.3254 35.8502ZM21.507 42.1444C21.507 41.6123 21.6261 41.1326 21.8641 40.7055C22.1092 40.2785 22.4488 39.9389 22.8829 39.6868C23.317 39.4418 23.8281 39.3192 24.4162 39.3192C25.0113 39.3192 25.5259 39.4418 25.96 39.6868C26.3941 39.9389 26.7302 40.2785 26.9683 40.7055C27.2063 41.1326 27.3254 41.6123 27.3254 42.1444C27.3254 42.6205 27.2203 43.0371 27.0103 43.3942C26.8002 43.7512 26.4817 44.0278 26.0546 44.2238C25.6275 44.4199 25.0813 44.5179 24.4162 44.5179C23.7581 44.5179 23.2119 44.4234 22.7778 44.2343C22.3507 44.0453 22.0322 43.7722 21.8221 43.4152C21.6121 43.0651 21.507 42.6415 21.507 42.1444ZM22.8513 42.4279C22.8513 42.694 22.9144 42.9356 23.0404 43.1526C23.1664 43.3696 23.345 43.5412 23.576 43.6672C23.8141 43.8002 24.0941 43.8668 24.4162 43.8668C24.7453 43.8668 25.0253 43.8002 25.2564 43.6672C25.4874 43.5412 25.666 43.3696 25.792 43.1526C25.918 42.9356 25.9811 42.694 25.9811 42.4279C25.9811 42.1549 25.918 41.9098 25.792 41.6928C25.666 41.4757 25.4874 41.3007 25.2564 41.1677C25.0253 41.0416 24.7453 40.9786 24.4162 40.9786C24.0941 40.9786 23.8141 41.0416 23.576 41.1677C23.345 41.3007 23.1664 41.4757 23.0404 41.6928C22.9144 41.9098 22.8513 42.1549 22.8513 42.4279ZM21.5911 43.9088L22.7463 43.9088L24.4267 43.9403L26.0966 43.8353L29.3838 43.8353L29.3838 45.4736L21.5911 45.4736L21.5911 43.9088ZM21.5596 50.3402C21.5596 49.8151 21.6541 49.3285 21.8431 48.8804C22.0322 48.4323 22.2947 48.0402 22.6308 47.7041C22.9739 47.3681 23.3695 47.1055 23.8176 46.9165C24.2657 46.7344 24.7488 46.6434 25.2669 46.6434C25.785 46.6434 26.2681 46.7379 26.7162 46.927C27.1643 47.116 27.5564 47.3786 27.8925 47.7146C28.2356 48.0507 28.5016 48.4428 28.6907 48.8909C28.8797 49.346 28.9742 49.8361 28.9742 50.3612C28.9742 50.8864 28.8797 51.373 28.6907 51.8211C28.5086 52.2762 28.2496 52.6683 27.9135 52.9973C27.5774 53.3334 27.1853 53.5925 26.7372 53.7745C26.2961 53.9636 25.813 54.0581 25.2879 54.0581C24.7628 54.0581 24.2727 53.9636 23.8176 53.7745C23.3695 53.5855 22.9739 53.3194 22.6308 52.9763C22.2947 52.6403 22.0322 52.2482 21.8431 51.8001C21.6541 51.352 21.5596 50.8654 21.5596 50.3402ZM23.2294 51.3275L24.7838 50.3192L24.7838 51.4115L23.2294 52.4197L23.2294 51.3275ZM22.2422 50.3402C22.2422 50.7673 22.3192 51.1629 22.4733 51.527C22.6343 51.8911 22.8513 52.2097 23.1244 52.4827C23.3975 52.7558 23.7195 52.9658 24.0906 53.1129C24.4617 53.2669 24.8608 53.3439 25.2879 53.3439C25.715 53.3439 26.1106 53.2669 26.4747 53.1129C26.8457 52.9658 27.1643 52.7593 27.4304 52.4932C27.7034 52.2342 27.9135 51.9226 28.0605 51.5585C28.2146 51.1944 28.2916 50.7953 28.2916 50.3612C28.2916 49.9341 28.2146 49.5351 28.0605 49.164C27.9065 48.7999 27.6894 48.4813 27.4094 48.2083C27.1363 47.9422 26.8177 47.7357 26.4537 47.5886C26.0896 47.4416 25.694 47.3681 25.2669 47.3681C24.8398 47.3681 24.4407 47.4416 24.0696 47.5886C23.7055 47.7357 23.387 47.9422 23.1139 48.2083C22.8408 48.4743 22.6273 48.7894 22.4733 49.1535C22.3192 49.5176 22.2422 49.9131 22.2422 50.3402ZM23.2294 48.7439L27.3044 48.7439L27.3044 50.5188C27.3044 51.0719 27.1748 51.506 26.9158 51.8211C26.6567 52.1361 26.3031 52.2937 25.855 52.2937C25.3859 52.2937 25.0253 52.1361 24.7733 51.8211C24.5282 51.506 24.4057 51.0719 24.4057 50.5188L24.4057 49.8361L23.2294 49.8361L23.2294 48.7439ZM25.2249 49.8256L25.2249 50.4453C25.2249 50.6903 25.2809 50.8794 25.3929 51.0124C25.5049 51.1524 25.659 51.2224 25.855 51.2224C26.0581 51.2224 26.2156 51.1524 26.3276 51.0124C26.4397 50.8794 26.4957 50.6903 26.4957 50.4453L26.4957 49.8256L25.2249 49.8256Z" fill="#16141F"/>
</svg>
