<svg width="1292" height="233" viewBox="0 0 1292 233" fill="none" xmlns="http://www.w3.org/2000/svg">
<path d="M34 -19V118H1266V-19H34Z" fill="#E84355"/>
<path d="M1289 232L1278 175H11L1 232H42H1250H1289Z" fill="#E84355"/>
<path d="M1266 118H34H1V157L8 175H11H1278H1281L1291 156V118H1266Z" fill="#16141F"/>
<path d="M34 -19V-19.5H33.5V-19H34ZM1266 -19H1266.5V-19.5H1266V-19ZM1 118V117.5H0.5V118H1ZM1 157H0.5V157.094L0.533998 157.181L1 157ZM8 175L7.534 175.181L7.65797 175.5H8V175ZM1281 175V175.5H1281.3L1281.44 175.233L1281 175ZM1291 156L1291.44 156.233L1291.5 156.124V156H1291ZM1291 118H1291.5V117.5H1291V118ZM1289 232V232.5H1289.61L1289.49 231.905L1289 232ZM1 232L0.507521 231.914L0.404644 232.5H1V232ZM33.5 -19V118H34.5V-19H33.5ZM34 118.5H1266V117.5H34V118.5ZM1266.5 118V-19H1265.5V118H1266.5ZM1266 -19.5H34V-18.5H1266V-19.5ZM34 117.5H1V118.5H34V117.5ZM0.5 118V157H1.5V118H0.5ZM0.533998 157.181L7.534 175.181L8.466 174.819L1.466 156.819L0.533998 157.181ZM1281.44 175.233L1291.44 156.233L1290.56 155.767L1280.56 174.767L1281.44 175.233ZM1291.5 156V118H1290.5V156H1291.5ZM1291 117.5H1266V118.5H1291V117.5ZM1278 175.5H1281V174.5H1278V175.5ZM1277.51 175.095L1288.51 232.095L1289.49 231.905L1278.49 174.905L1277.51 175.095ZM8 175.5H11V174.5H8V175.5ZM11 175.5H1278V174.5H11V175.5ZM1.49248 232.086L11.4925 175.086L10.5075 174.914L0.507521 231.914L1.49248 232.086ZM42 231.5H1V232.5H42V231.5ZM1289 231.5H1250V232.5H1289V231.5ZM1250 231.5H42V232.5H1250V231.5Z" fill="#16141F"/>
</svg>
