<svg width="121" height="64" viewBox="0 0 121 64" fill="none" xmlns="http://www.w3.org/2000/svg">
<path d="M10.3537 35.141L24.8791 63.0297L100.3 61.9141L111.473 36.8143C109.238 37.558 104.657 38.2645 104.21 35.141C101.044 39.2313 92.8133 44.6231 85.2154 33.4676C82.0496 38.1158 73.2599 44.6231 63.4273 33.4676C58.5855 38.8595 47.1141 46.408 39.9632 33.4676C37.9147 37.9298 31.1362 44.1769 20.4097 33.4676C18.3613 35.6987 13.4822 39.1569 10.3537 35.141Z" fill="#FAF9F9"/>
<path fill-rule="evenodd" clip-rule="evenodd" d="M10.3537 35.141C5.69808 33.0958 -2.38401 27.7783 2.53229 22.8699C8.67766 16.7344 12.5877 18.4077 16.4987 20.6388C17.8654 21.4185 19.0955 19.6099 20.9044 16.9506C24.2719 11.9998 29.6451 4.10025 41.6389 4.46312C56.3878 4.90934 60.8199 9.85488 61.1923 12.2719C63.7994 5.95049 73.0361 -4.4612 89.1258 4.46312C105.216 13.3874 107.748 18.9654 107.003 20.6388C109.424 18.5937 115.16 16.1768 118.735 22.8699C123.205 31.2364 115.943 36.2166 111.473 36.8143C109.238 37.558 104.657 38.2645 104.21 35.141C101.044 39.2313 92.8133 44.6231 85.2154 33.4676C82.0496 38.1158 73.2599 44.6231 63.4273 33.4676C58.5855 38.8595 47.1141 46.408 39.9632 33.4676C37.9147 37.9298 31.1362 44.1769 20.4097 33.4676C18.3613 35.6987 13.4822 39.1569 10.3537 35.141ZM42.7562 9.48318C40.0746 9.48318 39.7766 11.7143 39.9629 12.8298C40.5215 13.2017 41.7506 14.1685 42.1975 15.0609C42.7562 16.1765 47.7842 13.9454 47.7842 10.5987C47.7842 8.40784 47.066 8.6074 45.6294 9.00654C44.8715 9.21709 43.9138 9.48318 42.7562 9.48318ZM57.8403 13.3876C57.0954 13.0158 55.6056 12.6067 55.6056 13.9454C55.6056 15.6187 59.5163 21.1964 60.6337 20.0809C61.751 18.9653 61.1923 13.9454 57.8403 13.3876ZM76.2764 9.48318C73.5948 7.6983 70.6897 7.99578 69.5724 8.36763C69.5724 11.289 72.1266 12.0851 75.0053 12.9824C75.4244 13.113 75.8504 13.2458 76.2764 13.3876C79.6284 14.5033 79.6284 11.7143 76.2764 9.48318Z" fill="#FAF9F9"/>
<path d="M39.9629 12.8298C39.7766 11.7143 40.0746 9.48318 42.7562 9.48318C43.9138 9.48318 44.8715 9.21709 45.6294 9.00654C47.066 8.6074 47.7842 8.40784 47.7842 10.5987C47.7842 13.9454 42.7562 16.1765 42.1975 15.0609C41.7506 14.1685 40.5215 13.2017 39.9629 12.8298Z" fill="#FAF9F9"/>
<path d="M57.8403 13.3876C57.0954 13.0158 55.6056 12.6067 55.6056 13.9454C55.6056 15.6187 59.5163 21.1964 60.6337 20.0809C61.751 18.9653 61.1923 13.9454 57.8403 13.3876Z" fill="#FAF9F9"/>
<path d="M69.5724 8.36763C70.6897 7.99578 73.5948 7.6983 76.2764 9.48318C79.6284 11.7143 79.6284 14.5033 76.2764 13.3876C75.8504 13.2458 75.4244 13.113 75.0053 12.9824C72.1266 12.0851 69.5724 11.289 69.5724 8.36763Z" fill="#FAF9F9"/>
<path d="M10.3537 35.141L10.742 34.8384L10.6656 34.7403L10.5517 34.6902L10.3537 35.141ZM24.8791 63.0297L24.4425 63.2571L24.5827 63.5264L24.8864 63.5219L24.8791 63.0297ZM100.3 61.9141L100.307 62.4064L100.621 62.4017L100.749 62.1143L100.3 61.9141ZM111.473 36.8143L111.408 36.3263L111.362 36.3325L111.317 36.3472L111.473 36.8143ZM104.21 35.141L104.698 35.0712L104.533 33.9198L103.821 34.8396L104.21 35.141ZM85.2154 33.4676L85.6223 33.1905L85.2154 32.5931L84.8085 33.1905L85.2154 33.4676ZM63.4273 33.4676L63.7966 33.1421L63.4307 32.727L63.061 33.1387L63.4273 33.4676ZM39.9632 33.4676L40.3941 33.2295L39.9225 32.3762L39.5158 33.2622L39.9632 33.4676ZM20.4097 33.4676L20.7576 33.1192L20.3943 32.7565L20.0471 33.1347L20.4097 33.4676ZM2.53229 22.8699L2.18446 22.5215L2.18446 22.5215L2.53229 22.8699ZM41.6389 4.46312L41.6538 3.97104L41.6389 4.46312ZM61.1923 12.2719L60.7058 12.3468L60.9745 14.0911L61.6474 12.4596L61.1923 12.2719ZM107.003 20.6388L106.554 20.4386L106.511 20.5342V20.6388H107.003ZM118.735 22.8699L119.17 22.638L119.17 22.638L118.735 22.8699ZM57.8403 13.3876L57.6204 13.8281L57.6866 13.8611L57.7595 13.8732L57.8403 13.3876ZM69.5724 8.36763L69.4169 7.90052L69.0801 8.01262V8.36763H69.5724ZM76.2764 9.48318L76.0036 9.893L76.0036 9.893L76.2764 9.48318ZM76.2764 13.3876L76.1209 13.8547L76.1209 13.8547L76.2764 13.3876ZM39.9629 12.8298L39.4773 12.9109L39.5124 13.1214L39.6901 13.2396L39.9629 12.8298ZM42.1975 15.0609L42.6377 14.8405L42.1975 15.0609ZM20.9044 16.9506L20.4973 16.6738L20.4973 16.6738L20.9044 16.9506ZM45.6294 9.00654L45.4976 8.5322L45.4976 8.5322L45.6294 9.00654ZM75.0053 12.9824L75.1518 12.5124L75.1518 12.5124L75.0053 12.9824ZM9.91704 35.3684L24.4425 63.2571L25.3157 62.8023L10.7903 34.9135L9.91704 35.3684ZM24.8864 63.5219L100.307 62.4064L100.292 61.4219L24.8718 62.5374L24.8864 63.5219ZM100.749 62.1143L111.923 37.0145L111.023 36.6141L99.8498 61.7139L100.749 62.1143ZM111.317 36.3472C110.234 36.7077 108.601 37.0506 107.211 36.9372C106.518 36.8806 105.928 36.7136 105.498 36.4187C105.085 36.1357 104.79 35.7165 104.698 35.0712L103.723 35.2107C103.854 36.1272 104.299 36.791 104.941 37.2308C105.565 37.6587 106.344 37.8543 107.131 37.9185C108.702 38.0468 110.477 37.6646 111.628 37.2814L111.317 36.3472ZM103.821 34.8396C102.283 36.8269 99.5374 39.0927 96.3082 39.5337C93.1391 39.9666 89.3473 38.6596 85.6223 33.1905L84.8085 33.7448C88.6815 39.4312 92.8042 41.006 96.4415 40.5093C100.019 40.0207 102.972 37.5454 104.6 35.4423L103.821 34.8396ZM84.8085 33.1905C83.2704 35.4489 80.3775 38.1339 76.7189 38.9125C73.1095 39.6806 68.6242 38.6192 63.7966 33.1421L63.058 33.7932C68.063 39.4715 72.8889 40.7342 76.9239 39.8755C80.9098 39.0273 83.9947 36.1345 85.6223 33.7448L84.8085 33.1905ZM63.061 33.1387C60.6743 35.7966 56.6814 38.9483 52.4572 39.861C50.3586 40.3145 48.2173 40.2129 46.1772 39.2407C44.1349 38.2674 42.1451 36.3982 40.3941 33.2295L39.5323 33.7057C41.3567 37.0072 43.4824 39.0471 45.7536 40.1295C48.0268 41.2128 50.3969 41.3135 52.6651 40.8234C57.1748 39.849 61.3385 36.5305 63.7936 33.7966L63.061 33.1387ZM39.5158 33.2622C38.5293 35.4111 36.4205 37.944 33.3271 38.6779C30.2662 39.4041 26.0559 38.4091 20.7576 33.1192L20.0619 33.816C25.49 39.2354 30.0322 40.4715 33.5543 39.6359C37.0439 38.8081 39.3486 35.9864 40.4106 33.673L39.5158 33.2622ZM20.0471 33.1347C19.0547 34.2156 17.3887 35.576 15.6268 36.1814C14.7517 36.482 13.8795 36.5875 13.0631 36.4068C12.2558 36.2282 11.4605 35.7607 10.742 34.8384L9.9653 35.4435C10.8111 36.5292 11.7989 37.1355 12.8503 37.3682C13.8927 37.5988 14.9548 37.4533 15.9467 37.1125C17.9186 36.435 19.7163 34.9508 20.7724 33.8006L20.0471 33.1347ZM10.5517 34.6902C8.25225 33.6801 5.13974 31.8736 3.21868 29.749C2.25864 28.6872 1.63743 27.5913 1.51476 26.5147C1.39538 25.4669 1.73916 24.3574 2.88012 23.2183L2.18446 22.5215C0.867268 23.8366 0.377696 25.2325 0.536489 26.6261C0.691993 27.9909 1.46047 29.2725 2.48836 30.4093C4.54318 32.6819 7.7995 34.5566 10.1557 35.5917L10.5517 34.6902ZM2.88012 23.2183C5.90299 20.2003 8.30491 19.1733 10.3687 19.109C12.452 19.044 14.2997 19.9511 16.2548 21.0664L16.7427 20.2112C14.7868 19.0954 12.7239 18.0504 10.338 18.1248C7.93275 18.1999 5.30695 19.404 2.18446 22.5215L2.88012 23.2183ZM41.624 4.95519C48.9499 5.17683 53.6645 6.51513 56.5756 8.06312C59.5031 9.61978 60.5527 11.3534 60.7058 12.3468L61.6789 12.1969C61.4595 10.7734 60.1069 8.8257 57.0379 7.19379C53.9526 5.55321 49.0767 4.19562 41.6538 3.97104L41.624 4.95519ZM61.6474 12.4596C62.9173 9.38054 65.8068 5.30461 70.3198 3.0924C74.8012 0.895656 80.962 0.497934 88.887 4.89363L89.3646 4.03261C81.1999 -0.496016 74.6975 -0.150054 69.8864 2.20831C65.1068 4.55121 62.0745 8.84181 60.7372 12.0842L61.6474 12.4596ZM88.887 4.89363C96.9095 9.34335 101.516 12.9398 104.018 15.6069C105.27 16.9408 105.98 18.0263 106.334 18.854C106.694 19.6959 106.659 20.2013 106.554 20.4386L107.453 20.839C107.72 20.2397 107.647 19.4203 107.239 18.4667C106.825 17.499 106.036 16.3185 104.737 14.9332C102.136 12.1618 97.4319 8.5072 89.3646 4.03261L88.887 4.89363ZM107.321 21.0149C108.477 20.0384 110.409 18.9914 112.442 18.9698C114.419 18.9487 116.589 19.8967 118.301 23.1019L119.17 22.638C117.306 19.15 114.82 17.9598 112.431 17.9852C110.096 18.0101 107.951 19.1941 106.686 20.2628L107.321 21.0149ZM118.301 23.1019C119.382 25.1253 119.738 26.9129 119.624 28.458C119.509 30.003 118.923 31.3389 118.066 32.4557C116.339 34.706 113.529 36.0427 111.408 36.3263L111.538 37.3022C113.886 36.9883 116.943 35.5359 118.847 33.0551C119.805 31.8064 120.475 30.2911 120.606 28.5306C120.736 26.7702 120.323 24.7978 119.17 22.638L118.301 23.1019ZM58.0602 12.9471C57.6589 12.7468 57.0115 12.5097 56.424 12.5331C56.1221 12.5452 55.7791 12.6289 55.5105 12.8847C55.2343 13.1477 55.1133 13.5191 55.1133 13.9454H56.0979C56.0979 13.7024 56.1631 13.6228 56.1895 13.5977C56.2236 13.5653 56.2996 13.5235 56.4633 13.517C56.8068 13.5032 57.2768 13.6565 57.6204 13.8281L58.0602 12.9471ZM55.1133 13.9454C55.1133 14.2366 55.1953 14.5682 55.3114 14.8984C55.4303 15.2368 55.5979 15.6093 55.7971 15.9935C56.1955 16.7618 56.735 17.605 57.3093 18.3576C57.8794 19.1048 58.5051 19.7906 59.0816 20.2222C59.3664 20.4355 59.6756 20.6147 59.9868 20.686C60.3189 20.7621 60.6915 20.7188 60.9815 20.4293L60.2858 19.7325C60.2821 19.7362 60.2813 19.7361 60.2835 19.7349C60.2857 19.7337 60.2872 19.7334 60.2862 19.7336C60.2837 19.7342 60.2604 19.7386 60.2068 19.7263C60.0903 19.6996 59.9106 19.613 59.6717 19.4341C59.2007 19.0814 58.6392 18.4773 58.092 17.7603C57.549 17.0487 57.041 16.2535 56.6712 15.5403C56.4863 15.1836 56.3396 14.8546 56.2403 14.572C56.1381 14.2812 56.0979 14.0725 56.0979 13.9454H55.1133ZM60.9815 20.4293C61.3861 20.0253 61.5751 19.3568 61.6306 18.6833C61.6881 17.9847 61.6112 17.1756 61.3863 16.3896C60.9412 14.8345 59.8632 13.2251 57.9211 12.902L57.7595 13.8732C59.1694 14.1078 60.0467 15.2874 60.4397 16.6605C60.6338 17.3387 60.6965 18.0286 60.6493 18.6025C60.6 19.2014 60.4399 19.5787 60.2858 19.7325L60.9815 20.4293ZM69.7278 8.83474C70.7362 8.49917 73.4761 8.21067 76.0036 9.893L76.5492 9.07336C73.7135 7.18593 70.6433 7.4924 69.4169 7.90052L69.7278 8.83474ZM76.0036 9.893C76.8043 10.4259 77.3888 10.9819 77.7683 11.4871C78.1558 12.0029 78.2981 12.4225 78.2981 12.6905C78.2981 12.8163 78.2675 12.8955 78.2313 12.9466C78.1959 12.9967 78.1318 13.0531 78.0065 13.0949C77.736 13.1849 77.2302 13.1862 76.4319 12.9205L76.1209 13.8547C76.9986 14.1469 77.7498 14.218 78.3174 14.0291C78.611 13.9314 78.8612 13.7613 79.0353 13.515C79.2086 13.2698 79.2827 12.9829 79.2827 12.6905C79.2827 12.1217 79.0061 11.4955 78.5555 10.8957C78.097 10.2853 77.4245 9.65598 76.5492 9.07336L76.0036 9.893ZM40.4484 12.7488C40.3673 12.2627 40.3983 11.5477 40.7147 10.9768C41.0074 10.4487 41.5795 9.97548 42.7562 9.97548V8.99088C41.2513 8.99088 40.3337 9.63319 39.8535 10.4995C39.3971 11.3231 39.3722 12.2814 39.4773 12.9109L40.4484 12.7488ZM47.2919 10.5987C47.2919 12.0212 46.2082 13.2856 44.9378 14.0867C44.3133 14.4805 43.6899 14.7309 43.2142 14.8213C42.9739 14.867 42.8018 14.866 42.697 14.8445C42.5956 14.8237 42.6172 14.7995 42.6377 14.8405L41.7574 15.2814C41.9176 15.6012 42.2185 15.7514 42.499 15.809C42.7761 15.8659 43.0885 15.8475 43.3981 15.7886C44.0223 15.6699 44.7606 15.3625 45.463 14.9196C46.8462 14.0473 48.2765 12.5229 48.2765 10.5987H47.2919ZM42.6377 14.8405C42.3737 14.3134 41.9018 13.7999 41.4561 13.3884C41.0025 12.9697 40.5349 12.6192 40.2356 12.42L39.6901 13.2396C39.9495 13.4123 40.3758 13.7311 40.7882 14.1119C41.2084 14.4999 41.5744 14.9161 41.7574 15.2814L42.6377 14.8405ZM16.016 20.7355C16.4462 22.8829 17.1989 24.2176 18.2343 24.9237C19.2778 25.6354 20.4911 25.6297 21.6477 25.3723C22.7975 25.1163 23.9886 24.5881 25.032 24.1519C25.5633 23.9298 26.0575 23.7304 26.5115 23.5863C26.9686 23.4411 27.3546 23.3621 27.6721 23.3621V22.3775C27.2075 22.3775 26.7102 22.4901 26.2135 22.6479C25.7139 22.8065 25.1841 23.0212 24.6522 23.2435C23.5692 23.6963 22.4767 24.179 21.4338 24.4112C20.3976 24.6418 19.5089 24.6012 18.7891 24.1103C18.0611 23.6138 17.3893 22.5779 16.9814 20.5421L16.016 20.7355ZM27.6721 23.3621C28.543 23.3621 29.5478 23.6754 30.671 24.189C31.7898 24.7006 32.9724 25.3847 34.202 26.0862C35.4215 26.782 36.6839 27.4927 37.9262 28.0281C39.1664 28.5626 40.425 28.9398 41.6389 28.9398V27.9552C40.6181 27.9552 39.5024 27.6352 38.3158 27.1239C37.1314 26.6134 35.9146 25.9297 34.69 25.231C33.4754 24.5381 32.2487 23.8278 31.0805 23.2936C29.9166 22.7614 28.7566 22.3775 27.6721 22.3775V23.3621ZM41.6389 28.9398C43.989 28.9398 45.6104 28.1999 47.1497 27.5014C48.6831 26.8055 50.1343 26.1509 52.2536 26.1509V25.1663C49.9035 25.1663 48.2821 25.9062 46.7428 26.6048C45.2094 27.3007 43.7581 27.9552 41.6389 27.9552V28.9398ZM52.2536 26.1509C54.404 26.1509 56.7068 26.8232 59.0983 27.5254C61.4555 28.2176 63.9013 28.9398 66.2204 28.9398V27.9552C64.07 27.9552 61.7671 27.283 59.3757 26.5807C57.0184 25.8885 54.5726 25.1663 52.2536 25.1663V26.1509ZM66.2204 28.9398C70.6757 28.9398 74.7419 28.9513 78.7969 26.0595L78.2253 25.2578C74.4589 27.9437 70.7038 27.9552 66.2204 27.9552V28.9398ZM78.7969 26.0595C80.5394 24.8168 82.9727 25.1522 85.4169 25.9192C86.6223 26.2974 87.7687 26.7591 88.7878 27.1395C89.2918 27.3277 89.767 27.4967 90.191 27.6187C90.6086 27.739 91.011 27.8243 91.3605 27.8243V26.8397C91.1514 26.8397 90.8554 26.7855 90.4634 26.6726C90.0777 26.5615 89.632 26.4037 89.1321 26.2171C88.1435 25.848 86.9504 25.3685 85.7117 24.9798C83.2675 24.2128 80.3934 23.7116 78.2253 25.2578L78.7969 26.0595ZM91.3605 27.8243C92.0198 27.8243 92.7939 27.5824 93.5997 27.2676C94.4116 26.9504 95.3442 26.5214 96.3029 26.1112C98.2558 25.2756 100.409 24.4776 102.534 24.4776V23.493C100.19 23.493 97.8733 24.3683 95.9155 25.206C94.9189 25.6325 94.0357 26.0402 93.2415 26.3505C92.4411 26.6632 91.8185 26.8397 91.3605 26.8397V27.8243ZM102.534 24.4776C104.43 24.4776 105.685 23.882 106.464 23.0716C107.232 22.2736 107.496 21.3105 107.496 20.6388H106.511C106.511 21.0826 106.328 21.7928 105.755 22.3892C105.193 22.9731 104.213 23.493 102.534 23.493V24.4776ZM41.6538 3.97104C29.3743 3.59954 23.8654 11.7221 20.4973 16.6738L21.3114 17.2275C24.6784 12.2775 29.9158 4.60097 41.624 4.95519L41.6538 3.97104ZM20.4973 16.6738C19.5807 18.0214 18.8524 19.0878 18.192 19.7319C17.8647 20.0511 17.5937 20.2256 17.3669 20.2942C17.1644 20.3554 16.9706 20.3413 16.7427 20.2112L16.2548 21.0664C16.7101 21.3262 17.1826 21.3784 17.6517 21.2367C18.0964 21.1023 18.5023 20.8046 18.8795 20.4368C19.628 19.7067 20.4192 18.5392 21.3114 17.2275L20.4973 16.6738ZM48.2765 10.5987C48.2765 10.0336 48.2314 9.57574 48.1188 9.22073C48.0024 8.85363 47.7982 8.55217 47.4602 8.38837C47.1457 8.2359 46.8002 8.2466 46.4987 8.29204C46.1934 8.33807 45.8471 8.43509 45.4976 8.5322L45.7612 9.48087C46.1299 9.37842 46.4121 9.30082 46.6455 9.26564C46.8828 9.22987 46.9862 9.25277 47.0308 9.27438C47.052 9.28465 47.1171 9.31915 47.1803 9.51834C47.2473 9.72964 47.2919 10.0684 47.2919 10.5987H48.2765ZM45.4976 8.5322C44.7396 8.7428 43.8398 8.99088 42.7562 8.99088V9.97548C43.9878 9.97548 45.0035 9.69138 45.7612 9.48087L45.4976 8.5322ZM69.0801 8.36763C69.0801 9.17305 69.2571 9.85636 69.5886 10.4386C69.9189 11.0185 70.3875 11.4719 70.9332 11.8416C72.0044 12.5673 73.4411 13.0105 74.8589 13.4524L75.1518 12.5124C73.6908 12.057 72.4111 11.6535 71.4854 11.0265C71.0327 10.7198 70.6829 10.3703 70.4442 9.95133C70.2069 9.5346 70.0647 9.02289 70.0647 8.36763H69.0801ZM74.8589 13.4524C75.2787 13.5833 75.7002 13.7146 76.1209 13.8547L76.4319 12.9205C76.0007 12.777 75.5702 12.6428 75.1518 12.5124L74.8589 13.4524Z" fill="#16141F"/>
<path d="M19.707 48.2961V40.444H26.6807V48.2961H25.916V40.8952L26.1301 41.1209H20.2576L20.4717 40.8952V48.2961H19.707Z" fill="#16141F"/>
<path d="M29.9821 48.2961V40.444H30.7467V47.1379L36.4358 40.444H37.1087V48.2961H36.344V41.6022L30.655 48.2961H29.9821Z" fill="#16141F"/>
<path d="M44.4286 48.3563C43.7251 48.3563 43.0879 48.1958 42.5169 47.8749C41.9562 47.554 41.5076 47.0977 41.1711 46.5061C40.8449 45.9044 40.6818 45.1924 40.6818 44.37C40.6818 43.5477 40.8449 42.8407 41.1711 42.2491C41.5076 41.6474 41.9562 41.1861 42.5169 40.8651C43.0879 40.5442 43.7251 40.3838 44.4286 40.3838C45.183 40.3838 45.8559 40.5543 46.4473 40.8952C47.0488 41.2262 47.5178 41.6925 47.8542 42.2942C48.2009 42.8959 48.3742 43.5878 48.3742 44.37C48.3742 45.1523 48.2009 45.8442 47.8542 46.4459C47.5178 47.0476 47.0488 47.5189 46.4473 47.8599C45.8559 48.1908 45.183 48.3563 44.4286 48.3563ZM40.4218 51.2144V40.444H41.1559V43.0162L41.0335 44.3851L41.1864 45.754V51.2144H40.4218ZM44.3827 47.6794C44.9944 47.6794 45.545 47.544 46.0344 47.2732C46.5237 46.9924 46.9061 46.6013 47.1813 46.0999C47.4668 45.5985 47.6095 45.0219 47.6095 44.37C47.6095 43.7082 47.4668 43.1315 47.1813 42.6402C46.9061 42.1387 46.5237 41.7527 46.0344 41.4819C45.545 41.2011 44.9944 41.0607 44.3827 41.0607C43.771 41.0607 43.2204 41.2011 42.731 41.4819C42.2519 41.7527 41.8695 42.1387 41.5841 42.6402C41.3088 43.1315 41.1711 43.7082 41.1711 44.37C41.1711 45.0219 41.3088 45.5985 41.5841 46.0999C41.8695 46.6013 42.2519 46.9924 42.731 47.2732C43.2204 47.544 43.771 47.6794 44.3827 47.6794Z" fill="#16141F"/>
<path d="M54.0417 48.3563C53.2771 48.3563 52.594 48.1858 51.9925 47.8449C51.4011 47.5039 50.927 47.0326 50.5702 46.4309C50.2236 45.8292 50.0502 45.1422 50.0502 44.37C50.0502 43.5878 50.2236 42.9009 50.5702 42.3092C50.927 41.7075 51.4011 41.2362 51.9925 40.8952C52.594 40.5543 53.2771 40.3838 54.0417 40.3838C54.8064 40.3838 55.4895 40.5543 56.091 40.8952C56.6925 41.2362 57.1666 41.7075 57.5133 42.3092C57.8599 42.9009 58.0332 43.5878 58.0332 44.37C58.0332 45.1422 57.8599 45.8292 57.5133 46.4309C57.1666 47.0326 56.6925 47.5039 56.091 47.8449C55.4895 48.1858 54.8064 48.3563 54.0417 48.3563ZM54.0417 47.6794C54.6535 47.6794 55.204 47.544 55.6934 47.2732C56.1828 46.9924 56.5651 46.6013 56.8404 46.0999C57.1156 45.5985 57.2533 45.0219 57.2533 44.37C57.2533 43.7082 57.1156 43.1315 56.8404 42.6402C56.5651 42.1387 56.1828 41.7527 55.6934 41.4819C55.204 41.2011 54.6535 41.0607 54.0417 41.0607C53.43 41.0607 52.8795 41.2011 52.3901 41.4819C51.9109 41.7527 51.5286 42.1387 51.2431 42.6402C50.9678 43.1315 50.8302 43.7082 50.8302 44.37C50.8302 45.0219 50.9678 45.5985 51.2431 46.0999C51.5286 46.6013 51.9109 46.9924 52.3901 47.2732C52.8795 47.544 53.43 47.6794 54.0417 47.6794Z" fill="#16141F"/>
<path d="M60.5235 48.2961V40.444H65.9831V41.1209H61.0741L61.2882 40.9103V48.2961H60.5235Z" fill="#16141F"/>
<path d="M35.5676 60.1717C34.8641 60.1717 34.2269 60.0113 33.6559 59.6904C33.0952 59.3695 32.6466 58.9132 32.3102 58.3215C31.9839 57.7198 31.8208 57.0078 31.8208 56.1855C31.8208 55.3632 31.9839 54.6562 32.3102 54.0645C32.6466 53.4628 33.0952 53.0015 33.6559 52.6806C34.2269 52.3597 34.8641 52.1992 35.5676 52.1992C36.322 52.1992 36.9949 52.3697 37.5863 52.7107C38.1878 53.0416 38.6568 53.5079 38.9932 54.1096C39.3399 54.7113 39.5132 55.4033 39.5132 56.1855C39.5132 56.9677 39.3399 57.6596 38.9932 58.2613C38.6568 58.863 38.1878 59.3344 37.5863 59.6753C36.9949 60.0063 36.322 60.1717 35.5676 60.1717ZM31.5608 63.0298V52.2594H32.2949V54.8317L32.1725 56.2005L32.3254 57.5694V63.0298H31.5608ZM35.5217 59.4948C36.1334 59.4948 36.684 59.3594 37.1734 59.0887C37.6627 58.8079 38.0451 58.4168 38.3203 57.9154C38.6058 57.4139 38.7486 56.8373 38.7486 56.1855C38.7486 55.5236 38.6058 54.947 38.3203 54.4556C38.0451 53.9542 37.6627 53.5681 37.1734 53.2973C36.684 53.0165 36.1334 52.8761 35.5217 52.8761C34.91 52.8761 34.3594 53.0165 33.8701 53.2973C33.3909 53.5681 33.0085 53.9542 32.7231 54.4556C32.4478 54.947 32.3102 55.5236 32.3102 56.1855C32.3102 56.8373 32.4478 57.4139 32.7231 57.9154C33.0085 58.4168 33.3909 58.8079 33.8701 59.0887C34.3594 59.3594 34.91 59.4948 35.5217 59.4948Z" fill="#16141F"/>
<path d="M45.1807 60.1717C44.4161 60.1717 43.733 60.0012 43.1315 59.6603C42.5401 59.3193 42.066 58.848 41.7092 58.2463C41.3626 57.6446 41.1892 56.9577 41.1892 56.1855C41.1892 55.4033 41.3626 54.7163 41.7092 54.1247C42.066 53.523 42.5401 53.0516 43.1315 52.7107C43.733 52.3697 44.4161 52.1992 45.1807 52.1992C45.9454 52.1992 46.6285 52.3697 47.23 52.7107C47.8315 53.0516 48.3056 53.523 48.6523 54.1247C48.9989 54.7163 49.1722 55.4033 49.1722 56.1855C49.1722 56.9577 48.9989 57.6446 48.6523 58.2463C48.3056 58.848 47.8315 59.3193 47.23 59.6603C46.6285 60.0012 45.9454 60.1717 45.1807 60.1717ZM45.1807 59.4948C45.7925 59.4948 46.343 59.3594 46.8324 59.0887C47.3218 58.8079 47.7041 58.4168 47.9794 57.9154C48.2547 57.4139 48.3923 56.8373 48.3923 56.1855C48.3923 55.5236 48.2547 54.947 47.9794 54.4556C47.7041 53.9542 47.3218 53.5681 46.8324 53.2973C46.343 53.0165 45.7925 52.8761 45.1807 52.8761C44.569 52.8761 44.0185 53.0165 43.5291 53.2973C43.0499 53.5681 42.6676 53.9542 42.3821 54.4556C42.1068 54.947 41.9692 55.5236 41.9692 56.1855C41.9692 56.8373 42.1068 57.4139 42.3821 57.9154C42.6676 58.4168 43.0499 58.8079 43.5291 59.0887C44.0185 59.3594 44.569 59.4948 45.1807 59.4948Z" fill="#16141F"/>
<path d="M51.6625 60.1116V52.2594H57.1221V52.9363H52.2131L52.4272 52.7257V60.1116H51.6625Z" fill="#16141F"/>
<path fill-rule="evenodd" clip-rule="evenodd" d="M21.1211 52.2594V56.5516L21.8857 57.6597V52.2594H21.1211ZM22.3784 58.3736L22.7784 58.9533L27.483 53.4177V60.1116H28.2477V52.2594H27.5748L22.3784 58.3736Z" fill="#16141F"/>
<path d="M60.0762 60.1116V52.2594H67.0498V60.1116H66.2852V52.7107L66.4993 52.9363H60.6267L60.8408 52.7107V60.1116H60.0762Z" fill="#16141F"/>
<path d="M70.3512 60.1116V52.2594H71.1159V58.9533L76.8049 52.2594H77.4778V60.1116H76.7132V53.4177L71.0241 60.1116H70.3512Z" fill="#16141F"/>
<path d="M84.7977 60.1717C84.0942 60.1717 83.457 60.0113 82.8861 59.6904C82.3253 59.3695 81.8767 58.9132 81.5403 58.3215C81.214 57.7198 81.0509 57.0078 81.0509 56.1855C81.0509 55.3632 81.214 54.6562 81.5403 54.0645C81.8767 53.4628 82.3253 53.0015 82.8861 52.6806C83.457 52.3597 84.0942 52.1992 84.7977 52.1992C85.5522 52.1992 86.2251 52.3697 86.8164 52.7107C87.4179 53.0416 87.8869 53.5079 88.2234 54.1096C88.57 54.7113 88.7433 55.4033 88.7433 56.1855C88.7433 56.9677 88.57 57.6596 88.2234 58.2613C87.8869 58.863 87.4179 59.3344 86.8164 59.6753C86.2251 60.0063 85.5522 60.1717 84.7977 60.1717ZM80.7909 63.0298V52.2594H81.525V54.8317L81.4026 56.2005L81.5556 57.5694V63.0298H80.7909ZM84.7518 59.4948C85.3636 59.4948 85.9141 59.3594 86.4035 59.0887C86.8929 58.8079 87.2752 58.4168 87.5505 57.9154C87.836 57.4139 87.9787 56.8373 87.9787 56.1855C87.9787 55.5236 87.836 54.947 87.5505 54.4556C87.2752 53.9542 86.8929 53.5681 86.4035 53.2973C85.9141 53.0165 85.3636 52.8761 84.7518 52.8761C84.1401 52.8761 83.5896 53.0165 83.1002 53.2973C82.621 53.5681 82.2387 53.9542 81.9532 54.4556C81.6779 54.947 81.5403 55.5236 81.5403 56.1855C81.5403 56.8373 81.6779 57.4139 81.9532 57.9154C82.2387 58.4168 82.621 58.8079 83.1002 59.0887C83.5896 59.3594 84.1401 59.4948 84.7518 59.4948Z" fill="#16141F"/>
<path d="M94.4109 60.1717C93.6462 60.1717 92.9631 60.0012 92.3616 59.6603C91.7703 59.3193 91.2962 58.848 90.9393 58.2463C90.5927 57.6446 90.4194 56.9577 90.4194 56.1855C90.4194 55.4033 90.5927 54.7163 90.9393 54.1247C91.2962 53.523 91.7703 53.0516 92.3616 52.7107C92.9631 52.3697 93.6462 52.1992 94.4109 52.1992C95.1755 52.1992 95.8586 52.3697 96.4601 52.7107C97.0617 53.0516 97.5358 53.523 97.8824 54.1247C98.2291 54.7163 98.4024 55.4033 98.4024 56.1855C98.4024 56.9577 98.2291 57.6446 97.8824 58.2463C97.5358 58.848 97.0617 59.3193 96.4601 59.6603C95.8586 60.0012 95.1755 60.1717 94.4109 60.1717ZM94.4109 59.4948C95.0226 59.4948 95.5731 59.3594 96.0625 59.0887C96.5519 58.8079 96.9342 58.4168 97.2095 57.9154C97.4848 57.4139 97.6224 56.8373 97.6224 56.1855C97.6224 55.5236 97.4848 54.947 97.2095 54.4556C96.9342 53.9542 96.5519 53.5681 96.0625 53.2973C95.5731 53.0165 95.0226 52.8761 94.4109 52.8761C93.7991 52.8761 93.2486 53.0165 92.7592 53.2973C92.28 53.5681 91.8977 53.9542 91.6122 54.4556C91.337 54.947 91.1993 55.5236 91.1993 56.1855C91.1993 56.8373 91.337 57.4139 91.6122 57.9154C91.8977 58.4168 92.28 58.8079 92.7592 59.0887C93.2486 59.3594 93.7991 59.4948 94.4109 59.4948Z" fill="#16141F"/>
<path d="M99.0791 62.0452V52.2594H104.539V52.9363H99.6297L99.8438 52.7257V62.0452H99.0791Z" fill="#16141F"/>
<path d="M68.9375 48.2961V40.444H75.9112V48.2961H75.1465V40.8952L75.3606 41.1209H69.4881L69.7022 40.8952V48.2961H68.9375Z" fill="#16141F"/>
<path d="M79.2126 48.2961V40.444H79.9772V47.1379L85.6662 40.444H86.3391V48.2961H85.5745V41.6022L79.8855 48.2961H79.2126Z" fill="#16141F"/>
<path d="M93.659 48.3563C92.9556 48.3563 92.3184 48.1958 91.7474 47.8749C91.1867 47.554 90.7381 47.0977 90.4016 46.5061C90.0754 45.9044 89.9122 45.1924 89.9122 44.37C89.9122 43.5477 90.0754 42.8407 90.4016 42.2491C90.7381 41.6474 91.1867 41.1861 91.7474 40.8651C92.3184 40.5442 92.9556 40.3838 93.659 40.3838C94.4135 40.3838 95.0864 40.5543 95.6777 40.8952C96.2793 41.2262 96.7483 41.6925 97.0847 42.2942C97.4313 42.8959 97.6047 43.5878 97.6047 44.37C97.6047 45.1523 97.4313 45.8442 97.0847 46.4459C96.7483 47.0476 96.2793 47.5189 95.6777 47.8599C95.0864 48.1908 94.4135 48.3563 93.659 48.3563ZM89.6523 49.7375V40.444H90.3863V43.0162L90.264 44.3851L90.4169 45.754V49.7375H89.6523ZM93.6132 47.6794C94.2249 47.6794 94.7754 47.544 95.2648 47.2732C95.7542 46.9924 96.1365 46.6013 96.4118 46.0999C96.6973 45.5985 96.84 45.0219 96.84 44.37C96.84 43.7082 96.6973 43.1315 96.4118 42.6402C96.1365 42.1387 95.7542 41.7527 95.2648 41.4819C94.7754 41.2011 94.2249 41.0607 93.6132 41.0607C93.0014 41.0607 92.4509 41.2011 91.9615 41.4819C91.4823 41.7527 91.1 42.1387 90.8145 42.6402C90.5393 43.1315 90.4016 43.7082 90.4016 44.37C90.4016 45.0219 90.5393 45.5985 90.8145 46.0999C91.1 46.6013 91.4823 46.9924 91.9615 47.2732C92.4509 47.544 93.0014 47.6794 93.6132 47.6794Z" fill="#16141F"/>
<path d="M103.272 48.3563C102.508 48.3563 101.824 48.1858 101.223 47.8449C100.632 47.5039 100.158 47.0326 99.8007 46.4309C99.454 45.8292 99.2807 45.1422 99.2807 44.37C99.2807 43.5878 99.454 42.9009 99.8007 42.3092C100.158 41.7075 100.632 41.2362 101.223 40.8952C101.824 40.5543 102.508 40.3838 103.272 40.3838C104.037 40.3838 104.72 40.5543 105.321 40.8952C105.923 41.2362 106.397 41.7075 106.744 42.3092C107.09 42.9009 107.264 43.5878 107.264 44.37C107.264 45.1422 107.09 45.8292 106.744 46.4309C106.397 47.0326 105.923 47.5039 105.321 47.8449C104.72 48.1858 104.037 48.3563 103.272 48.3563ZM103.272 47.6794C103.884 47.6794 104.434 47.544 104.924 47.2732C105.413 46.9924 105.796 46.6013 106.071 46.0999C106.346 45.5985 106.484 45.0219 106.484 44.37C106.484 43.7082 106.346 43.1315 106.071 42.6402C105.796 42.1387 105.413 41.7527 104.924 41.4819C104.434 41.2011 103.884 41.0607 103.272 41.0607C102.66 41.0607 102.11 41.2011 101.621 41.4819C101.141 41.7527 100.759 42.1387 100.474 42.6402C100.198 43.1315 100.061 43.7082 100.061 44.37C100.061 45.0219 100.198 45.5985 100.474 46.0999C100.759 46.6013 101.141 46.9924 101.621 47.2732C102.11 47.544 102.66 47.6794 103.272 47.6794Z" fill="#16141F"/>
</svg>
