<svg width="116" height="58" viewBox="0 0 116 58" fill="none" xmlns="http://www.w3.org/2000/svg">
<path d="M12.0347 23.3288L15.9614 25.078L16.834 19.8305L12.0347 23.3288Z" fill="#FAF9F9"/>
<path d="M33.4131 21.1424C33.1223 20.4136 32.8896 18.8685 34.2857 18.5187C35.6819 18.1688 37.4852 18.0814 38.2124 18.0814C37.4852 19.2475 35.5073 21.4922 33.4131 21.1424Z" fill="#FAF9F9"/>
<path d="M46.9382 19.3932C45.4839 18.6644 42.6625 16.6821 43.0116 14.5831C43.4479 11.9593 45.1931 10.2102 46.9382 10.6475C48.6834 11.0848 52.1737 18.956 46.9382 19.3932Z" fill="#FAF9F9"/>
<path d="M53.0463 13.2712C52.61 12.1051 52.261 9.77289 54.3552 9.77289C56.4494 9.77289 57.8456 10.3559 58.2819 10.6475C57.5547 12.2509 55.4896 15.0204 53.0463 13.2712Z" fill="#FAF9F9"/>
<path d="M55.2278 19.8305L53.0463 18.0814L56.973 16.3322L55.2278 19.8305Z" fill="#FAF9F9"/>
<path d="M82.7143 16.7695L82.4699 5.40002L84.0232 6.27458L84.4595 11.9593L90.5676 15.0204L82.7143 16.7695Z" fill="#FAF9F9"/>
<path d="M91.4402 22.017C90.4221 21.7254 88.4734 21.0549 88.8224 20.7051C89.2587 20.2678 91.8765 19.3932 93.1853 19.8305C94.4942 20.2678 94.0579 22.017 91.4402 22.017Z" fill="#FAF9F9"/>
<path d="M2 27.2644L9.05769 36.0101L18.2327 47.3796L25.9961 57H32.5405H40.8301H46.9382H55.6641H62.8795H70.9344H77.4788H84.8958H89.695H92.3127L100.082 46.0678L110.201 31.8307L115 25.0779L110.637 25.1623L47.3745 26.3864L40.3938 26.5215L7.67181 27.1546L2 27.2644Z" fill="#FAF9F9"/>
<path fill-rule="evenodd" clip-rule="evenodd" d="M19.888 16.3322C12.9073 14.9328 8.83526 22.9641 7.67181 27.1546L40.3938 26.5215C39.9575 25.02 39.9575 22.017 43.4479 22.017C46.9382 22.017 47.5199 24.9299 47.3745 26.3864L110.637 25.1623C110.986 17.8834 107.583 17.1173 105.838 17.6441C105.838 15.4576 104.965 10.7349 101.475 9.3356C97.9846 7.93628 93.0399 8.75255 91.0039 9.3356C89.695 6.71187 85.9429 1.37697 81.4054 1.02713C76.868 0.677303 72.5341 3.79663 70.9344 5.40002C70.6435 3.94239 68.8402 1.02713 63.9537 1.02713C59.0672 1.02713 58.4273 5.1085 58.7181 7.14918C58.2819 6.56612 55.8386 5.40002 49.556 5.40002C43.2734 5.40002 41.4118 10.0644 41.2664 12.3965C41.2664 9.94771 37.7761 8.02375 31.668 8.46097C25.5598 8.89819 19.4517 13.5627 19.888 16.3322ZM15.9614 25.078L12.0347 23.3288L16.834 19.8305L15.9614 25.078ZM22.9421 19.3932C21.1969 20.0929 21.0515 22.017 21.1969 22.8916C24.3382 24.2909 26.5779 19.9763 27.305 17.6441L22.9421 19.3932ZM31.2317 14.5831C31.2317 16.6821 28.323 14.8746 26.8687 13.7085C26.5779 12.8339 26.6069 11.0848 29.0502 11.0848C32.1042 11.0848 31.2317 11.9593 31.2317 14.5831ZM34.2857 18.5187C32.8896 18.8685 33.1223 20.4136 33.4131 21.1424C35.5073 21.4922 37.4852 19.2475 38.2124 18.0814C37.4852 18.0814 35.6819 18.1688 34.2857 18.5187ZM43.0116 14.5831C42.6625 16.6821 45.4839 18.6644 46.9382 19.3932C52.1737 18.956 48.6834 11.0848 46.9382 10.6475C45.1931 10.2102 43.4479 11.9593 43.0116 14.5831ZM54.3552 9.77289C52.261 9.77289 52.61 12.1051 53.0463 13.2712C55.4896 15.0204 57.5547 12.2509 58.2819 10.6475C57.8456 10.3559 56.4494 9.77289 54.3552 9.77289ZM53.0463 18.0814L55.2278 19.8305L56.973 16.3322L53.0463 18.0814ZM61.3359 11.522C59.5907 14.3207 62.9357 15.3119 64.8263 15.4576C65.9897 14.1458 68.6656 11.4346 70.0618 11.0848C71.4579 10.7349 68.6075 8.31527 67.0077 7.14918C65.8443 7.4407 63.0811 8.7234 61.3359 11.522ZM60.8996 22.8916L61.7722 21.1424L65.6988 19.8305L66.1351 22.017L60.8996 22.8916ZM76.1699 16.7695C74.0757 16.7695 72.6795 18.2271 72.2432 18.956C72.6795 19.6848 73.9012 21.4922 75.2973 22.8916C77.0425 24.6407 80.0965 21.1424 80.9691 20.2678C81.8417 19.3932 78.7876 16.7695 76.1699 16.7695ZM82.4699 5.40002L82.7143 16.7695L90.5676 15.0204L84.4595 11.9593L84.0232 6.27458L82.4699 5.40002ZM88.8224 20.7051C88.4734 21.0549 90.4221 21.7254 91.4402 22.017C94.0579 22.017 94.4942 20.2678 93.1853 19.8305C91.8765 19.3932 89.2587 20.2678 88.8224 20.7051ZM98.8571 18.0814H93.6216L94.0579 14.5831L97.112 11.0848L101.039 14.5831H98.8571V18.0814Z" fill="#FAF9F9"/>
<path d="M21.1969 22.8916C21.0515 22.017 21.1969 20.0929 22.9421 19.3932L27.305 17.6441C26.5779 19.9763 24.3382 24.2909 21.1969 22.8916Z" fill="#FAF9F9"/>
<path d="M26.8687 13.7085C28.323 14.8746 31.2317 16.6821 31.2317 14.5831C31.2317 11.9593 32.1042 11.0848 29.0502 11.0848C26.6069 11.0848 26.5779 12.8339 26.8687 13.7085Z" fill="#FAF9F9"/>
<path d="M43.4479 22.017C39.9575 22.017 39.9575 25.02 40.3938 26.5215L47.3745 26.3864C47.5199 24.9299 46.9382 22.017 43.4479 22.017Z" fill="#FAF9F9"/>
<path d="M64.8263 15.4576C62.9357 15.3119 59.5907 14.3207 61.3359 11.522C63.0811 8.7234 65.8443 7.4407 67.0077 7.14918C68.6075 8.31527 71.4579 10.7349 70.0618 11.0848C68.6656 11.4346 65.9897 14.1458 64.8263 15.4576Z" fill="#FAF9F9"/>
<path d="M61.7722 21.1424L60.8996 22.8916L66.1351 22.017L65.6988 19.8305L61.7722 21.1424Z" fill="#FAF9F9"/>
<path d="M72.2432 18.956C72.6795 18.2271 74.0757 16.7695 76.1699 16.7695C78.7876 16.7695 81.8417 19.3932 80.9691 20.2678C80.0965 21.1424 77.0425 24.6407 75.2973 22.8916C73.9012 21.4922 72.6795 19.6848 72.2432 18.956Z" fill="#FAF9F9"/>
<path d="M93.6216 18.0814H98.8571V14.5831H101.039L97.112 11.0848L94.0579 14.5831L93.6216 18.0814Z" fill="#FAF9F9"/>
<path d="M2 27.2644L1.99048 26.7722L0.98588 26.7916L1.61689 27.5735L2 27.2644ZM25.9961 57L25.613 57.3092L25.7608 57.4923H25.9961V57ZM92.3127 57V57.4923H92.5668L92.714 57.2852L92.3127 57ZM115 25.0779L115.401 25.3631L115.967 24.5668L114.99 24.5857L115 25.0779ZM9.05769 36.0101L8.67458 36.3193L8.67458 36.3193L9.05769 36.0101ZM110.201 31.8307L110.602 32.1159L110.602 32.1159L110.201 31.8307ZM18.2327 47.3796L18.6158 47.0705L18.6158 47.0705L18.2327 47.3796ZM100.082 46.0678L99.6811 45.7826L99.6811 45.7826L100.082 46.0678ZM7.67181 27.1546L7.68134 27.6468L7.67181 27.1546ZM19.888 16.3322L19.7913 16.8149L20.4843 16.9538L20.3743 16.2555L19.888 16.3322ZM41.2664 12.3965H40.7741L41.7578 12.4272L41.2664 12.3965ZM58.7181 7.14918L58.324 7.44412L59.2055 7.07971L58.7181 7.14918ZM70.9344 5.40002L70.4516 5.49636L70.6319 6.40015L71.2829 5.74773L70.9344 5.40002ZM91.0039 9.3356L90.5633 9.55536L90.746 9.92153L91.1394 9.80888L91.0039 9.3356ZM105.838 17.6441H105.346V18.3069L105.98 18.1154L105.838 17.6441ZM110.637 25.1623L110.647 25.6546L110.647 25.6546L110.637 25.1623ZM12.0347 23.3288L11.7448 22.931L11.0571 23.4323L11.8344 23.7785L12.0347 23.3288ZM15.9614 25.078L15.7611 25.5277L16.3426 25.7867L16.447 25.1587L15.9614 25.078ZM16.834 19.8305L17.3196 19.9113L17.5171 18.7233L16.544 19.4327L16.834 19.8305ZM21.1969 22.8916L20.7113 22.9723L20.7547 23.2335L20.9966 23.3412L21.1969 22.8916ZM27.305 17.6441L27.775 17.7906L28.0834 16.8017L27.1218 17.1871L27.305 17.6441ZM26.8687 13.7085L26.4016 13.8638L26.4474 14.0017L26.5608 14.0926L26.8687 13.7085ZM33.4131 21.1424L32.9559 21.3249L33.0586 21.5823L33.332 21.628L33.4131 21.1424ZM38.2124 18.0814L38.6301 18.3419L39.0995 17.5891H38.2124V18.0814ZM40.3938 26.5215L40.4033 27.0137L40.4033 27.0137L40.3938 26.5215ZM46.9382 19.3932L46.7177 19.8334L46.8413 19.8953L46.9792 19.8838L46.9382 19.3932ZM43.0116 14.5831L42.526 14.5023L43.0116 14.5831ZM53.0463 13.2712L52.5853 13.4437L52.6378 13.5842L52.7598 13.6715L53.0463 13.2712ZM58.2819 10.6475L58.7302 10.8508L58.9028 10.4703L58.5554 10.2381L58.2819 10.6475ZM55.2278 19.8305L54.9198 20.2146L55.3959 20.5963L55.6683 20.0503L55.2278 19.8305ZM53.0463 18.0814L52.846 17.6317L52.1083 17.9603L52.7384 18.4655L53.0463 18.0814ZM56.973 16.3322L57.4135 16.552L58.026 15.3242L56.7726 15.8825L56.973 16.3322ZM64.8263 15.4576L64.7884 15.9485L65.0323 15.9673L65.1946 15.7843L64.8263 15.4576ZM67.0077 7.14918L67.2977 6.75135L67.1115 6.61564L66.8881 6.67164L67.0077 7.14918ZM61.7722 21.1424L61.6162 20.6755L61.4227 20.7401L61.3317 20.9226L61.7722 21.1424ZM60.8996 22.8916L60.4591 22.6718L60.0278 23.5363L60.9807 23.3771L60.8996 22.8916ZM66.1351 22.017L66.2163 22.5025L66.7173 22.4188L66.6179 21.9206L66.1351 22.017ZM65.6988 19.8305L66.1816 19.7342L66.0724 19.1867L65.5428 19.3636L65.6988 19.8305ZM72.2432 18.956L71.8208 18.7031L71.6695 18.956L71.8208 19.2088L72.2432 18.956ZM75.2973 22.8916L75.6458 22.5438L75.2973 22.8916ZM82.7143 16.7695L82.2221 16.7801L82.235 17.3806L82.8213 17.25L82.7143 16.7695ZM82.4699 5.40002L82.7114 4.97104L81.9591 4.54749L81.9777 5.4106L82.4699 5.40002ZM84.0232 6.27458L84.514 6.23691L84.4939 5.97465L84.2647 5.8456L84.0232 6.27458ZM84.4595 11.9593L83.9686 11.997L83.9899 12.2747L84.2389 12.3995L84.4595 11.9593ZM90.5676 15.0204L90.6746 15.5009L92.025 15.2001L90.7881 14.5802L90.5676 15.0204ZM91.4402 22.017L91.3046 22.4902L91.3711 22.5093H91.4402V22.017ZM88.8224 20.7051L89.1709 21.0528L88.8224 20.7051ZM93.6216 18.0814L93.1331 18.0204L93.0641 18.5737H93.6216V18.0814ZM98.8571 18.0814V18.5737H99.3494V18.0814H98.8571ZM98.8571 14.5831V14.0908H98.3649V14.5831H98.8571ZM101.039 14.5831V15.0754H102.331L101.366 14.2155L101.039 14.5831ZM97.112 11.0848L97.4395 10.7172L97.0682 10.3864L96.7411 10.761L97.112 11.0848ZM94.0579 14.5831L93.6871 14.2593L93.588 14.3727L93.5694 14.5221L94.0579 14.5831ZM1.61689 27.5735L8.67458 36.3193L9.4408 35.701L2.38311 26.9552L1.61689 27.5735ZM110.602 32.1159L115.401 25.3631L114.599 24.7927L109.799 31.5455L110.602 32.1159ZM8.67458 36.3193L17.8496 47.6888L18.6158 47.0705L9.4408 35.701L8.67458 36.3193ZM17.8496 47.6888L25.613 57.3092L26.3793 56.6908L18.6158 47.0705L17.8496 47.6888ZM92.714 57.2852L100.484 46.353L99.6811 45.7826L91.9115 56.7148L92.714 57.2852ZM100.484 46.353L110.602 32.1159L109.799 31.5455L99.6811 45.7826L100.484 46.353ZM25.9961 57.4923H32.5405V56.5077H25.9961V57.4923ZM32.5405 57.4923H40.8301V56.5077H32.5405V57.4923ZM40.8301 57.4923H46.9382V56.5077H40.8301V57.4923ZM46.9382 57.4923H55.6641V56.5077H46.9382V57.4923ZM55.6641 57.4923H62.8795V56.5077H55.6641V57.4923ZM62.8795 57.4923H70.9344V56.5077H62.8795V57.4923ZM70.9344 57.4923H77.4788V56.5077H70.9344V57.4923ZM77.4788 57.4923H84.8958V56.5077H77.4788V57.4923ZM84.8958 57.4923H89.695V56.5077H84.8958V57.4923ZM89.695 57.4923H92.3127V56.5077H89.695V57.4923ZM7.66229 26.6624L1.99048 26.7722L2.00952 27.7566L7.68134 27.6468L7.66229 26.6624ZM8.14617 27.2863C8.71449 25.2393 9.99541 22.2558 11.971 19.969C13.9406 17.6892 16.5383 16.1628 19.7913 16.8149L19.9848 15.8495C16.257 15.1022 13.3284 16.8917 11.2259 19.3254C9.12943 21.7521 7.79259 24.8794 7.19746 27.0229L8.14617 27.2863ZM20.3743 16.2555C20.2952 15.7533 20.5075 15.0767 21.0837 14.2851C21.6499 13.5071 22.5193 12.6869 23.6064 11.9251C25.7823 10.4003 28.7524 9.16323 31.7031 8.95202L31.6328 7.96993C28.4754 8.19594 25.3374 9.50972 23.0413 11.1188C21.8924 11.924 20.9348 12.8165 20.2876 13.7057C19.6503 14.5812 19.2627 15.5263 19.4017 16.4088L20.3743 16.2555ZM31.7031 8.95202C34.7077 8.73695 37.0189 9.10743 38.5566 9.79581C40.1002 10.4868 40.7741 11.4445 40.7741 12.3965H41.7587C41.7587 10.8998 40.6875 9.671 38.9589 8.89716C37.2244 8.12066 34.7364 7.74778 31.6328 7.96993L31.7031 8.95202ZM41.7578 12.4272C41.8248 11.3524 42.2936 9.71103 43.4811 8.34695C44.6531 7.00056 46.5519 5.89232 49.556 5.89232V4.90772C46.2774 4.90772 44.1041 6.13165 42.7384 7.70047C41.3881 9.25159 40.8535 11.1085 40.7751 12.3659L41.7578 12.4272ZM49.556 5.89232C52.6694 5.89232 54.8086 6.1815 56.2095 6.53342C56.9102 6.70943 57.4185 6.89921 57.7685 7.07156C58.1323 7.25065 58.2842 7.39094 58.324 7.44412L59.1123 6.85423C58.934 6.61588 58.6169 6.39176 58.2034 6.18823C57.7764 5.97795 57.1994 5.76689 56.4494 5.57849C54.949 5.20159 52.7252 4.90772 49.556 4.90772V5.89232ZM59.2055 7.07971C59.0705 6.1323 59.1572 4.72137 59.821 3.56856C60.462 2.4555 61.6749 1.51943 63.9537 1.51943V0.534835C61.3459 0.534835 59.7957 1.63945 58.9678 3.07724C58.1627 4.47528 58.0749 6.12537 58.2308 7.21864L59.2055 7.07971ZM63.9537 1.51943C68.6006 1.51943 70.2057 4.2642 70.4516 5.49636L71.4171 5.30368C71.0813 3.62058 69.0797 0.534835 63.9537 0.534835V1.51943ZM71.2829 5.74773C72.0472 4.98166 73.4883 3.83241 75.2905 2.92037C77.0939 2.00774 79.2196 1.35237 81.3676 1.51798L81.4432 0.536292C79.0538 0.352067 76.7438 1.08144 74.846 2.04186C72.9469 3.00288 71.4213 4.21499 70.5859 5.05231L71.2829 5.74773ZM81.3676 1.51798C83.4608 1.67936 85.4274 3.00101 87.0635 4.67297C88.691 6.3362 89.928 8.28188 90.5633 9.55536L91.4444 9.11584C90.7708 7.76559 89.4773 5.73196 87.7672 3.98435C86.0656 2.24546 83.8874 0.724735 81.4432 0.536292L81.3676 1.51798ZM91.1394 9.80888C92.1232 9.52714 93.8317 9.18381 95.72 9.08382C97.6146 8.98351 99.6415 9.13096 101.292 9.79255L101.658 8.87866C99.8179 8.14091 97.6274 7.99685 95.668 8.1006C93.7024 8.20468 91.9205 8.56101 90.8683 8.86233L91.1394 9.80888ZM101.292 9.79255C102.864 10.4227 103.88 11.8151 104.508 13.3782C105.136 14.9391 105.346 16.6024 105.346 17.6441H106.33C106.33 16.4993 106.104 14.708 105.422 13.0111C104.741 11.3165 103.577 9.64782 101.658 8.87866L101.292 9.79255ZM114.99 24.5857L110.628 24.6701L110.647 25.6546L115.01 25.5701L114.99 24.5857ZM105.98 18.1154C106.718 17.8927 107.803 17.9434 108.673 18.8224C109.557 19.7151 110.317 21.5579 110.145 25.1388L111.129 25.1859C111.306 21.4878 110.539 19.3081 109.373 18.1297C108.192 16.9376 106.703 16.8687 105.696 17.1728L105.98 18.1154ZM11.8344 23.7785L15.7611 25.5277L16.1617 24.6283L12.2351 22.8791L11.8344 23.7785ZM16.447 25.1587L17.3196 19.9113L16.3483 19.7498L15.4758 24.9972L16.447 25.1587ZM16.544 19.4327L11.7448 22.931L12.3247 23.7267L17.124 20.2284L16.544 19.4327ZM21.6825 22.8108C21.621 22.4408 21.6206 21.8262 21.8254 21.2389C22.0253 20.6656 22.4116 20.1363 23.1253 19.8502L22.7589 18.9363C21.7274 19.3498 21.1684 20.1324 20.8957 20.9147C20.6278 21.683 20.6274 22.4678 20.7113 22.9723L21.6825 22.8108ZM23.1253 19.8502C24.8704 19.1505 26.7611 18.3926 27.4882 18.101L27.1218 17.1871C26.3947 17.4787 24.5041 18.2366 22.7589 18.9363L23.1253 19.8502ZM26.835 17.4976C26.4832 18.6261 25.7681 20.2178 24.7854 21.3434C24.2958 21.9043 23.7633 22.3221 23.2042 22.528C22.6603 22.7282 22.0642 22.739 21.3972 22.4419L20.9966 23.3412C21.9002 23.7438 22.7622 23.7399 23.5444 23.4519C24.3114 23.1695 24.9733 22.6253 25.5271 21.9909C26.6314 20.726 27.3997 18.9943 27.775 17.7906L26.835 17.4976ZM26.5608 14.0926C27.301 14.6861 28.4412 15.4691 29.4252 15.8321C29.8982 16.0065 30.4526 16.1297 30.9228 15.9585C31.1791 15.8653 31.3933 15.6902 31.5348 15.4339C31.6702 15.1887 31.724 14.8974 31.724 14.5831H30.7394C30.7394 14.7934 30.7022 14.9048 30.6729 14.958C30.6497 15 30.6252 15.019 30.5861 15.0333C30.4656 15.0772 30.2019 15.0691 29.7659 14.9083C28.9321 14.6007 27.8908 13.897 27.1767 13.3244L26.5608 14.0926ZM31.724 14.5831C31.724 13.951 31.7762 13.4296 31.8112 12.9667C31.8439 12.5334 31.8703 12.0845 31.7578 11.7088C31.6969 11.5052 31.5939 11.3139 31.4295 11.1506C31.2677 10.9899 31.068 10.8777 30.8437 10.7983C30.4113 10.6453 29.8207 10.5925 29.0502 10.5925V11.5771C29.8067 11.5771 30.2523 11.6335 30.5153 11.7265C30.6386 11.7701 30.7013 11.8151 30.7356 11.8491C30.7672 11.8805 30.7937 11.9215 30.8146 11.9912C30.8657 12.1621 30.8648 12.4238 30.8294 12.8925C30.7962 13.3315 30.7394 13.9033 30.7394 14.5831H31.724ZM29.0502 10.5925C27.7016 10.5925 26.8785 11.0876 26.4948 11.8466C26.1378 12.5527 26.2327 13.356 26.4016 13.8638L27.3359 13.5531C27.2139 13.1864 27.1779 12.6778 27.3735 12.2908C27.5425 11.9564 27.9556 11.5771 29.0502 11.5771V10.5925ZM33.8704 20.9599C33.7447 20.6451 33.6411 20.1687 33.7034 19.7631C33.7334 19.5675 33.7987 19.4085 33.8988 19.2875C33.9952 19.171 34.1475 19.0608 34.4054 18.9962L34.1661 18.0411C33.7259 18.1514 33.3837 18.3655 33.1402 18.6599C32.9003 18.9498 32.7802 19.2882 32.7302 19.6137C32.6325 20.2503 32.7907 20.9109 32.9559 21.3249L33.8704 20.9599ZM34.4054 18.9962C35.7448 18.6606 37.5021 18.5737 38.2124 18.5737V17.5891C37.4683 17.5891 35.6189 17.6771 34.1661 18.0411L34.4054 18.9962ZM37.7946 17.8209C37.4551 18.3653 36.8153 19.1715 36.0219 19.7927C35.2201 20.4204 34.342 20.7984 33.4942 20.6568L33.332 21.628C34.5785 21.8362 35.7364 21.2667 36.6289 20.568C37.5297 19.8627 38.2424 18.9636 38.6301 18.3419L37.7946 17.8209ZM40.3843 26.0293L7.66229 26.6624L7.68134 27.6468L40.4033 27.0137L40.3843 26.0293ZM40.8666 26.3841C40.6654 25.6919 40.5799 24.6892 40.9044 23.8917C41.0618 23.5046 41.3137 23.1691 41.6993 22.9262C42.0877 22.6814 42.6457 22.5093 43.4479 22.5093V21.5247C42.5049 21.5247 41.7541 21.7279 41.1744 22.0931C40.592 22.4602 40.2166 22.9693 39.9924 23.5207C39.5533 24.6 39.6859 25.8496 39.9211 26.6589L40.8666 26.3841ZM110.628 24.6701L47.365 25.8942L47.384 26.8786L110.647 25.6546L110.628 24.6701ZM47.365 25.8942L40.3843 26.0293L40.4033 27.0137L47.384 26.8786L47.365 25.8942ZM43.4479 22.5093C45.0297 22.5093 45.8859 23.1553 46.356 23.9146C46.8476 24.7086 46.9498 25.6846 46.8847 26.3375L47.8644 26.4353C47.9446 25.6317 47.8287 24.423 47.1932 23.3964C46.5362 22.3351 45.3564 21.5247 43.4479 21.5247V22.5093ZM47.1588 18.9531C46.4662 18.606 45.4447 17.9571 44.6479 17.155C43.8324 16.3341 43.3634 15.4685 43.4972 14.6638L42.526 14.5023C42.3107 15.7966 43.0779 16.9717 43.9494 17.8489C44.8396 18.745 45.956 19.4517 46.7177 19.8334L47.1588 18.9531ZM43.4972 14.6638C43.7018 13.4336 44.2088 12.4403 44.8326 11.8151C45.4539 11.1924 46.1567 10.9592 46.8186 11.125L47.0579 10.1699C45.9746 9.89848 44.9322 10.3212 44.1356 11.1197C43.3414 11.9156 42.7577 13.1088 42.526 14.5023L43.4972 14.6638ZM46.8186 11.125C46.9047 11.1466 47.072 11.2399 47.302 11.4751C47.5213 11.6993 47.7584 12.0122 47.9902 12.393C48.4542 13.1552 48.8684 14.1418 49.0742 15.1216C49.2823 16.1121 49.2633 17.0261 48.9474 17.693C48.652 18.317 48.059 18.8056 46.8973 18.9027L46.9792 19.8838C48.4352 19.7622 49.3692 19.103 49.8373 18.1144C50.285 17.1689 50.266 16.0057 50.0378 14.9192C49.8073 13.8218 49.3489 12.7313 48.8312 11.881C48.5722 11.4556 48.2912 11.0783 48.006 10.7867C47.7316 10.506 47.4081 10.2577 47.0579 10.1699L46.8186 11.125ZM53.5074 13.0987C53.3031 12.5525 53.1376 11.7722 53.2376 11.1647C53.2861 10.8698 53.3903 10.6561 53.5409 10.5162C53.6853 10.3821 53.9265 10.2652 54.3552 10.2652V9.28059C53.7368 9.28059 53.2363 9.45525 52.8708 9.79485C52.5115 10.1286 52.3375 10.5709 52.2661 11.0048C52.1261 11.855 52.3533 12.8238 52.5853 13.4437L53.5074 13.0987ZM54.3552 10.2652C56.3716 10.2652 57.6678 10.8293 58.0083 11.0568L58.5554 10.2381C58.0233 9.88261 56.5273 9.28059 54.3552 9.28059V10.2652ZM57.8335 10.4441C57.4893 11.2031 56.8356 12.2144 56.0151 12.8206C55.6104 13.1195 55.1881 13.3032 54.7582 13.3336C54.3371 13.3633 53.8617 13.2495 53.3329 12.8709L52.7598 13.6715C53.4526 14.1675 54.1516 14.3634 54.8275 14.3157C55.4948 14.2686 56.0922 13.9877 56.6001 13.6125C57.6048 12.8703 58.3472 11.6953 58.7302 10.8508L57.8335 10.4441ZM55.5358 19.4465L53.3543 17.6973L52.7384 18.4655L54.9198 20.2146L55.5358 19.4465ZM53.2467 18.5311L57.1733 16.7819L56.7726 15.8825L52.846 17.6317L53.2467 18.5311ZM56.5324 16.1125L54.7873 19.6108L55.6683 20.0503L57.4135 16.552L56.5324 16.1125ZM64.8641 14.9668C63.9525 14.8965 62.7513 14.6228 62.0055 14.0853C61.6431 13.8241 61.4277 13.5299 61.3619 13.2007C61.2963 12.8724 61.3602 12.4135 61.7536 11.7825L60.9182 11.2616C60.4391 12.0299 60.2666 12.7444 60.3964 13.3937C60.526 14.042 60.9378 14.5294 61.4298 14.884C62.3929 15.5782 63.8094 15.873 64.7884 15.9485L64.8641 14.9668ZM61.7536 11.7825C63.4175 9.11426 66.0598 7.89421 67.1274 7.62671L66.8881 6.67164C65.6287 6.98718 62.7446 8.33254 60.9182 11.2616L61.7536 11.7825ZM66.7177 7.547C67.5077 8.12286 68.591 8.99771 69.2975 9.75815C69.6638 10.1523 69.8709 10.4559 69.9305 10.6388C69.9579 10.7229 69.9272 10.6999 69.9594 10.6374C69.9954 10.5676 70.0391 10.5829 69.9421 10.6072L70.1814 11.5623C70.4335 11.4991 70.6935 11.3623 70.8346 11.0886C70.9719 10.8223 70.9351 10.5438 70.8666 10.3337C70.7344 9.92805 70.3907 9.4882 70.0189 9.08798C69.2492 8.25962 68.1074 7.34159 67.2977 6.75135L66.7177 7.547ZM69.9421 10.6072C69.5035 10.7171 69.0145 10.9948 68.5371 11.327C68.0493 11.6665 67.5312 12.0934 67.0284 12.5437C66.0224 13.4445 65.0492 14.4643 64.4579 15.131L65.1946 15.7843C65.7668 15.1391 66.7133 14.1474 67.6852 13.2772C68.1712 12.8419 68.6566 12.4435 69.0995 12.1352C69.5529 11.8197 69.922 11.6273 70.1814 11.5623L69.9421 10.6072ZM61.3317 20.9226L60.4591 22.6718L61.3401 23.1113L62.2127 21.3622L61.3317 20.9226ZM60.9807 23.3771L66.2163 22.5025L66.054 21.5314L60.8185 22.406L60.9807 23.3771ZM66.6179 21.9206L66.1816 19.7342L65.2161 19.9269L65.6524 22.1133L66.6179 21.9206ZM65.5428 19.3636L61.6162 20.6755L61.9282 21.6093L65.8548 20.2975L65.5428 19.3636ZM72.6656 19.2088C73.0482 18.5697 74.3078 17.2618 76.1699 17.2618V16.2772C73.8436 16.2772 72.3108 17.8846 71.8208 18.7031L72.6656 19.2088ZM76.1699 17.2618C77.3347 17.2618 78.6487 17.8563 79.5757 18.579C80.038 18.9393 80.3645 19.3014 80.5249 19.5909C80.6051 19.7356 80.6271 19.8322 80.6288 19.8826C80.6299 19.9173 80.6234 19.9173 80.6206 19.9201L81.3176 20.6155C81.7786 20.1534 81.621 19.5374 81.3861 19.1136C81.1375 18.6651 80.7004 18.2073 80.1811 17.8024C79.1447 16.9945 77.6229 16.2772 76.1699 16.2772V17.2618ZM80.6206 19.9201C80.1578 20.384 79.2221 21.4278 78.1777 22.1606C77.656 22.5266 77.1533 22.7802 76.712 22.8576C76.298 22.9302 75.9506 22.8494 75.6458 22.5438L74.9488 23.2393C75.5165 23.8083 76.2053 23.9461 76.8821 23.8274C77.5315 23.7135 78.1741 23.3658 78.7432 22.9666C79.8802 22.1689 80.9079 21.0262 81.3176 20.6155L80.6206 19.9201ZM75.6458 22.5438C74.2874 21.1823 73.0894 19.4109 72.6656 18.7031L71.8208 19.2088C72.2697 19.9586 73.5149 21.8021 74.9488 23.2393L75.6458 22.5438ZM83.2065 16.7589L82.9621 5.38944L81.9777 5.4106L82.2221 16.7801L83.2065 16.7589ZM82.2283 5.829L83.7816 6.70356L84.2647 5.8456L82.7114 4.97104L82.2283 5.829ZM83.5323 6.31225L83.9686 11.997L84.9503 11.9217L84.514 6.23691L83.5323 6.31225ZM84.2389 12.3995L90.347 15.4605L90.7881 14.5802L84.68 11.5192L84.2389 12.3995ZM90.4605 14.5398L82.6073 16.289L82.8213 17.25L90.6746 15.5009L90.4605 14.5398ZM91.5757 21.5437C91.0764 21.4007 90.3576 21.167 89.8147 20.9313C89.5352 20.81 89.3412 20.7045 89.2438 20.6285C89.1874 20.5845 89.219 20.5928 89.2472 20.6603C89.2656 20.7043 89.2837 20.778 89.2665 20.8672C89.2493 20.957 89.2047 21.0189 89.1709 21.0528L88.4739 20.3574C88.3964 20.435 88.3262 20.5432 88.2996 20.6814C88.2732 20.819 88.2984 20.9432 88.3386 21.0396C88.4106 21.2119 88.5451 21.3322 88.6383 21.4049C88.8399 21.5621 89.1313 21.708 89.4226 21.8345C90.0213 22.0944 90.7859 22.3417 91.3046 22.4902L91.5757 21.5437ZM89.1709 21.0528C89.1704 21.0534 89.173 21.0506 89.1802 21.0448C89.1872 21.0391 89.1972 21.0315 89.2106 21.0222C89.2378 21.0032 89.2746 20.9801 89.322 20.9536C89.4172 20.9003 89.5424 20.84 89.6938 20.7768C89.9963 20.6504 90.3817 20.5213 90.7963 20.4174C91.2113 20.3134 91.6443 20.2376 92.0436 20.2125C92.4491 20.1871 92.7868 20.2164 93.0293 20.2975L93.3413 19.3636C92.9294 19.226 92.4491 19.2006 91.982 19.2299C91.5087 19.2595 91.0146 19.3476 90.557 19.4623C90.099 19.5771 89.6663 19.7212 89.3144 19.8682C89.1386 19.9416 88.9775 20.018 88.8409 20.0945C88.7114 20.167 88.5763 20.2548 88.4739 20.3574L89.1709 21.0528ZM93.0293 20.2975C93.2564 20.3733 93.3507 20.4851 93.3846 20.56C93.4161 20.6294 93.4234 20.7251 93.3547 20.8491C93.2079 21.1138 92.6689 21.5247 91.4402 21.5247V22.5093C92.8292 22.5093 93.8172 22.0455 94.2158 21.3264C94.4198 20.9584 94.4543 20.5348 94.2813 20.1533C94.1107 19.7772 93.7687 19.5064 93.3413 19.3636L93.0293 20.2975ZM93.6216 18.5737H98.8571V17.5891H93.6216V18.5737ZM99.3494 18.0814V14.5831H98.3649V18.0814H99.3494ZM98.8571 15.0754H101.039V14.0908H98.8571V15.0754ZM101.366 14.2155L97.4395 10.7172L96.7845 11.4523L100.711 14.9506L101.366 14.2155ZM96.7411 10.761L93.6871 14.2593L94.4288 14.9068L97.4828 11.4085L96.7411 10.761ZM93.5694 14.5221L93.1331 18.0204L94.1101 18.1423L94.5464 14.644L93.5694 14.5221ZM27.1218 17.1871L22.7589 18.9363L23.1253 19.8502L27.4882 18.101L27.1218 17.1871Z" fill="#16141F"/>
<path d="M29.1557 36.7789L29.1557 36.7503L29.1309 36.7361C27.837 35.9962 26.3449 35.4244 24.6551 35.0201C22.965 34.6157 21.1335 34.4136 19.1609 34.4136C17.1883 34.4136 15.3498 34.6157 13.6456 35.02C11.9274 35.4243 10.4421 35.9963 9.19027 36.7365L9.1661 36.7508L9.1661 36.7789L9.1661 37.1753L9.1661 37.261L9.24013 37.2178C10.5954 36.4277 12.0994 35.8523 13.7523 35.4916L13.7528 35.4915C15.3921 35.1169 17.1947 34.9294 19.1609 34.9294C21.1271 34.9294 22.9368 35.1169 24.5903 35.4915L24.5906 35.4916C26.2294 35.8522 27.7263 36.4277 29.0816 37.2178L29.1557 37.261L29.1557 37.1753L29.1557 36.7789Z" fill="#16141F" stroke="#16141F" stroke-width="0.0984598"/>
<path d="M49.0468 36.7789L49.0468 36.7503L49.022 36.7361C47.7281 35.9962 46.236 35.4244 44.5463 35.0201C42.8561 34.6157 41.0246 34.4136 39.052 34.4136C37.0794 34.4136 35.2409 34.6157 33.5367 35.02C31.8186 35.4243 30.3332 35.9963 29.0814 36.7365L29.0572 36.7508L29.0572 36.7789L29.0572 37.1753L29.0572 37.261L29.1312 37.2178C30.4865 36.4277 31.9905 35.8523 33.6434 35.4916L33.6439 35.4915C35.2832 35.1169 37.0858 34.9294 39.052 34.9294C41.0182 34.9294 42.8279 35.1169 44.4814 35.4915L44.4817 35.4916C46.1205 35.8522 47.6174 36.4277 48.9728 37.2178L49.0468 37.261L49.0468 37.1753L49.0468 36.7789Z" fill="#16141F" stroke="#16141F" stroke-width="0.0984598"/>
<path d="M68.9381 36.7789L68.9381 36.7503L68.9133 36.7361C67.6194 35.9962 66.1273 35.4244 64.4376 35.0201C62.7475 34.6157 60.916 34.4136 58.9434 34.4136C56.9708 34.4136 55.1323 34.6157 53.428 35.02C51.7099 35.4243 50.2246 35.9963 48.9727 36.7365L48.9486 36.7508L48.9486 36.7789L48.9486 37.1753L48.9486 37.261L49.0226 37.2178C50.3779 36.4277 51.8818 35.8523 53.5348 35.4916L53.5353 35.4915C55.1746 35.1169 56.9772 34.9294 58.9434 34.9294C60.9095 34.9294 62.7193 35.1169 64.3728 35.4915L64.3731 35.4916C66.0118 35.8522 67.5088 36.4277 68.8641 37.2178L68.9381 37.261L68.9381 37.1753L68.9381 36.7789Z" fill="#16141F" stroke="#16141F" stroke-width="0.0984598"/>
<path d="M88.829 36.7789L88.829 36.7503L88.8042 36.7361C87.5103 35.9962 86.0182 35.4244 84.3285 35.0201C82.6383 34.6157 80.8068 34.4136 78.8342 34.4136C76.8616 34.4136 75.0231 34.6157 73.3189 35.02C71.6008 35.4243 70.1154 35.9963 68.8636 36.7365L68.8394 36.7508L68.8394 36.7789L68.8394 37.1753L68.8394 37.261L68.9135 37.2178C70.2688 36.4277 71.7727 35.8523 73.4257 35.4916L73.4261 35.4915C75.0654 35.1169 76.868 34.9294 78.8342 34.9294C80.8004 34.9294 82.6101 35.1169 84.2636 35.4915L84.2639 35.4916C85.9027 35.8522 87.3996 36.4277 88.755 37.2178L88.829 37.261L88.829 37.1753L88.829 36.7789Z" fill="#16141F" stroke="#16141F" stroke-width="0.0984598"/>
<path d="M106.912 36.7789L106.912 36.7517L106.889 36.7372C105.712 35.997 104.355 35.4248 102.818 35.0203C101.281 34.6157 99.6151 34.4136 97.8212 34.4136C96.0273 34.4136 94.3552 34.6157 92.8051 35.0203C91.2425 35.4248 89.8915 35.997 88.7529 36.7376L88.7306 36.7522L88.7306 36.7789L88.7306 37.1753L88.7306 37.2653L88.8064 37.2167C90.0379 36.427 91.4044 35.8518 92.9063 35.4914L92.9068 35.4913C94.3963 35.1168 96.0344 34.9294 97.8212 34.9294C99.608 34.9294 101.253 35.1168 102.755 35.4913L102.755 35.4914C104.244 35.8518 105.604 36.427 106.836 37.2167L106.912 37.2653L106.912 37.1753L106.912 36.7789Z" fill="#16141F" stroke="#16141F" stroke-width="0.0984598"/>
<path d="M9.31139 32C8.96698 32 8.66231 31.8636 8.39739 31.5909C8.13246 31.2879 8 30.9242 8 30.5C8 30.0758 8.13246 29.7273 8.39739 29.4545C8.66231 29.1515 8.96698 29 9.31139 29C9.68228 29 9.98695 29.1515 10.2254 29.4545C10.4903 29.7273 10.6228 30.0758 10.6228 30.5C10.6228 30.9242 10.4903 31.2879 10.2254 31.5909C9.98695 31.8636 9.68228 32 9.31139 32Z" fill="#16141F"/>
<path d="M16.8789 32C16.5345 32 16.2298 31.8636 15.9649 31.5909C15.6999 31.2879 15.5675 30.9242 15.5675 30.5C15.5675 30.0758 15.6999 29.7273 15.9649 29.4545C16.2298 29.1515 16.5345 29 16.8789 29C17.2498 29 17.5544 29.1515 17.7929 29.4545C18.0578 29.7273 18.1902 30.0758 18.1902 30.5C18.1902 30.9242 18.0578 31.2879 17.7929 31.5909C17.5544 31.8636 17.2498 32 16.8789 32Z" fill="#16141F"/>
<path d="M24.4463 32C24.1019 32 23.7973 31.8636 23.5323 31.5909C23.2674 31.2879 23.135 30.9242 23.135 30.5C23.135 30.0758 23.2674 29.7273 23.5323 29.4545C23.7973 29.1515 24.1019 29 24.4463 29C24.8172 29 25.1219 29.1515 25.3603 29.4545C25.6253 29.7273 25.7577 30.0758 25.7577 30.5C25.7577 30.9242 25.6253 31.2879 25.3603 31.5909C25.1219 31.8636 24.8172 32 24.4463 32Z" fill="#16141F"/>
<path d="M32.0138 32C31.6694 32 31.3648 31.8636 31.0998 31.5909C30.8349 31.2879 30.7024 30.9242 30.7024 30.5C30.7024 30.0758 30.8349 29.7273 31.0998 29.4545C31.3648 29.1515 31.6694 29 32.0138 29C32.3847 29 32.6894 29.1515 32.9278 29.4545C33.1927 29.7273 33.3252 30.0758 33.3252 30.5C33.3252 30.9242 33.1927 31.2879 32.9278 31.5909C32.6894 31.8636 32.3847 32 32.0138 32Z" fill="#16141F"/>
<path d="M39.5813 32C39.2369 32 38.9322 31.8636 38.6673 31.5909C38.4024 31.2879 38.2699 30.9242 38.2699 30.5C38.2699 30.0758 38.4024 29.7273 38.6673 29.4545C38.9322 29.1515 39.2369 29 39.5813 29C39.9522 29 40.2569 29.1515 40.4953 29.4545C40.7602 29.7273 40.8927 30.0758 40.8927 30.5C40.8927 30.9242 40.7602 31.2879 40.4953 31.5909C40.2569 31.8636 39.9522 32 39.5813 32Z" fill="#16141F"/>
<path d="M47.1488 32C46.8044 32 46.4997 31.8636 46.2348 31.5909C45.9699 31.2879 45.8374 30.9242 45.8374 30.5C45.8374 30.0758 45.9699 29.7273 46.2348 29.4545C46.4997 29.1515 46.8044 29 47.1488 29C47.5197 29 47.8243 29.1515 48.0628 29.4545C48.3277 29.7273 48.4602 30.0758 48.4602 30.5C48.4602 30.9242 48.3277 31.2879 48.0628 31.5909C47.8243 31.8636 47.5197 32 47.1488 32Z" fill="#16141F"/>
<path d="M54.7163 32C54.3719 32 54.0672 31.8636 53.8023 31.5909C53.5373 31.2879 53.4049 30.9242 53.4049 30.5C53.4049 30.0758 53.5373 29.7273 53.8023 29.4545C54.0672 29.1515 54.3719 29 54.7163 29C55.0872 29 55.3918 29.1515 55.6303 29.4545C55.8952 29.7273 56.0276 30.0758 56.0276 30.5C56.0276 30.9242 55.8952 31.2879 55.6303 31.5909C55.3918 31.8636 55.0872 32 54.7163 32Z" fill="#16141F"/>
<path d="M62.2837 32C61.9393 32 61.6347 31.8636 61.3697 31.5909C61.1048 31.2879 60.9724 30.9242 60.9724 30.5C60.9724 30.0758 61.1048 29.7273 61.3697 29.4545C61.6347 29.1515 61.9393 29 62.2837 29C62.6546 29 62.9593 29.1515 63.1977 29.4545C63.4627 29.7273 63.5951 30.0758 63.5951 30.5C63.5951 30.9242 63.4627 31.2879 63.1977 31.5909C62.9593 31.8636 62.6546 32 62.2837 32Z" fill="#16141F"/>
<path d="M69.8512 32C69.5068 32 69.2022 31.8636 68.9372 31.5909C68.6723 31.2879 68.5398 30.9242 68.5398 30.5C68.5398 30.0758 68.6723 29.7273 68.9372 29.4545C69.2022 29.1515 69.5068 29 69.8512 29C70.2221 29 70.5268 29.1515 70.7652 29.4545C71.0301 29.7273 71.1626 30.0758 71.1626 30.5C71.1626 30.9242 71.0301 31.2879 70.7652 31.5909C70.5268 31.8636 70.2221 32 69.8512 32Z" fill="#16141F"/>
<path d="M77.4187 32C77.0743 32 76.7696 31.8636 76.5047 31.5909C76.2398 31.2879 76.1073 30.9242 76.1073 30.5C76.1073 30.0758 76.2398 29.7273 76.5047 29.4545C76.7696 29.1515 77.0743 29 77.4187 29C77.7896 29 78.0943 29.1515 78.3327 29.4545C78.5976 29.7273 78.7301 30.0758 78.7301 30.5C78.7301 30.9242 78.5976 31.2879 78.3327 31.5909C78.0943 31.8636 77.7896 32 77.4187 32Z" fill="#16141F"/>
<path d="M84.9862 32C84.6418 32 84.3371 31.8636 84.0722 31.5909C83.8073 31.2879 83.6748 30.9242 83.6748 30.5C83.6748 30.0758 83.8073 29.7273 84.0722 29.4545C84.3371 29.1515 84.6418 29 84.9862 29C85.3571 29 85.6617 29.1515 85.9002 29.4545C86.1651 29.7273 86.2976 30.0758 86.2976 30.5C86.2976 30.9242 86.1651 31.2879 85.9002 31.5909C85.6617 31.8636 85.3571 32 84.9862 32Z" fill="#16141F"/>
<path d="M92.5537 32C92.2092 32 91.9046 31.8636 91.6397 31.5909C91.3747 31.2879 91.2423 30.9242 91.2423 30.5C91.2423 30.0758 91.3747 29.7273 91.6397 29.4545C91.9046 29.1515 92.2092 29 92.5537 29C92.9246 29 93.2292 29.1515 93.4677 29.4545C93.7326 29.7273 93.865 30.0758 93.865 30.5C93.865 30.9242 93.7326 31.2879 93.4677 31.5909C93.2292 31.8636 92.9246 32 92.5537 32Z" fill="#16141F"/>
<path d="M100.121 32C99.7767 32 99.4721 31.8636 99.2071 31.5909C98.9422 31.2879 98.8098 30.9242 98.8098 30.5C98.8098 30.0758 98.9422 29.7273 99.2071 29.4545C99.4721 29.1515 99.7767 29 100.121 29C100.492 29 100.797 29.1515 101.035 29.4545C101.3 29.7273 101.433 30.0758 101.433 30.5C101.433 30.9242 101.3 31.2879 101.035 31.5909C100.797 31.8636 100.492 32 100.121 32Z" fill="#16141F"/>
<path d="M107.689 32C107.344 32 107.04 31.8636 106.775 31.5909C106.51 31.2879 106.377 30.9242 106.377 30.5C106.377 30.0758 106.51 29.7273 106.775 29.4545C107.04 29.1515 107.344 29 107.689 29C108.06 29 108.364 29.1515 108.603 29.4545C108.868 29.7273 109 30.0758 109 30.5C109 30.9242 108.868 31.2879 108.603 31.5909C108.364 31.8636 108.06 32 107.689 32Z" fill="#16141F"/>
</svg>
