<svg width="111" height="67" viewBox="0 0 111 67" fill="none" xmlns="http://www.w3.org/2000/svg">
<path fill-rule="evenodd" clip-rule="evenodd" d="M109.7 0.979004H1.63624C-0.589279 37.9328 12.8342 51.2023 30.331 55.4086L27.8889 65.9625H73.3737V55.638C97.3065 54.1804 107.563 18.5913 109.7 0.979004ZM63.2997 17.984C42.2421 21.9815 25.3198 16.9013 14.1519 10.6236C16.0852 8.01605 20.9898 3.77269 25.1415 7.65955C28.1941 6.04002 35.2763 3.34756 39.1837 5.53392C43.0911 7.72028 44.0679 9.48151 44.0679 10.0888C46.103 7.86199 51.2112 3.83342 55.3628 5.53392C59.5144 7.23442 60.3488 9.27907 60.247 10.0888C61.3663 8.26687 64.765 4.9266 69.405 6.14124C74.045 7.35589 75.205 9.27907 75.205 10.0888C75.8156 8.06443 78.1967 4.07635 82.8367 4.31928C88.6367 4.62294 90.1631 6.36559 89.5525 11.4157C82.8459 13.6365 74.2221 15.9106 63.2997 17.984Z" fill="#FAF9F9"/>
<path d="M14.1519 10.6236C25.3198 16.9013 42.2421 21.9815 63.2997 17.984C74.2221 15.9106 82.8459 13.6365 89.5525 11.4157C90.1631 6.36559 88.6367 4.62294 82.8367 4.31928C78.1967 4.07635 75.8156 8.06443 75.205 10.0888C75.205 9.27907 74.045 7.35589 69.405 6.14124C64.765 4.9266 61.3663 8.26687 60.247 10.0888C60.3488 9.27907 59.5144 7.23442 55.3628 5.53392C51.2112 3.83342 46.103 7.86199 44.0679 10.0888C44.0679 9.48151 43.0911 7.72028 39.1837 5.53392C35.2763 3.34756 28.1941 6.04002 25.1415 7.65955C20.9898 3.77269 16.0852 8.01605 14.1519 10.6236Z" fill="#FAF9F9"/>
<path d="M1.63624 0.979004V0.486705H1.1727L1.14483 0.949409L1.63624 0.979004ZM109.7 0.979004L110.189 1.0383L110.256 0.486705H109.7V0.979004ZM73.3737 55.638L73.3438 55.1466L73.3737 55.638ZM27.8889 65.9625L27.4092 65.8515L27.2696 66.4548H27.8889V65.9625ZM73.3737 65.9625V66.4548H73.866V65.9625H73.3737ZM63.2997 17.984L63.3915 18.4677L63.2997 17.984ZM71.2366 55.7781L71.2024 55.287L71.2366 55.7781ZM55.3628 56.914L55.3886 57.4056L55.3628 56.914ZM44.9837 57.1175L44.973 57.6097L44.9837 57.1175ZM36.7416 56.5512L36.8017 56.0625L36.7416 56.5512ZM14.1519 10.6236L13.9107 11.0527L14.1519 10.6236ZM25.1415 7.65955L24.805 8.01893L25.0616 8.25919L25.3722 8.09444L25.1415 7.65955ZM44.0679 10.0888H43.5756V11.3573L44.4313 10.4209L44.0679 10.0888ZM60.247 10.0888L59.7586 10.0275L60.6665 10.3465L60.247 10.0888ZM75.205 10.0888H74.7127L75.6764 10.231L75.205 10.0888ZM82.8367 4.31928L82.811 4.8109L82.8367 4.31928ZM1.63624 1.4713H109.7V0.486705H1.63624V1.4713ZM109.212 0.919709C108.148 9.6857 105.062 22.9257 99.273 34.1407C93.4748 45.374 85.0441 54.434 73.3438 55.1466L73.4036 56.1294C85.6362 55.3844 94.3003 45.9212 100.148 34.5923C106.005 23.2454 109.116 9.88465 110.189 1.0383L109.212 0.919709ZM30.4461 54.9299C21.7905 52.8491 14.1862 48.5409 9.00576 40.2141C3.81551 31.8715 1.01816 19.4313 2.12765 1.0086L1.14483 0.949409C0.0288066 19.4806 2.83044 32.152 8.16975 40.7342C13.5189 49.3321 21.3747 53.7618 30.2159 55.8872L30.4461 54.9299ZM29.8514 55.2976L27.4092 65.8515L28.3685 66.0735L30.8106 55.5196L29.8514 55.2976ZM27.8889 66.4548H73.3737V65.4702H27.8889V66.4548ZM73.866 65.9625V55.638H72.8814V65.9625H73.866ZM73.3438 55.1466C72.6382 55.1896 71.9241 55.2368 71.2024 55.287L71.2708 56.2692C71.9902 56.2191 72.7014 56.1722 73.4036 56.1294L73.3438 55.1466ZM71.2024 55.287C66.1812 55.6368 60.8163 56.1344 55.3369 56.4224L55.3886 57.4056C60.8752 57.1173 66.2837 56.6166 71.2708 56.2692L71.2024 55.287ZM55.3369 56.4224C51.8992 56.6031 48.4288 56.7003 44.9945 56.6253L44.973 57.6097C48.4394 57.6854 51.9356 57.5871 55.3886 57.4056L55.3369 56.4224ZM44.9945 56.6253C42.2263 56.5649 39.4833 56.3927 36.8017 56.0625L36.6814 57.0398C39.4021 57.3747 42.1787 57.5487 44.973 57.6097L44.9945 56.6253ZM36.8017 56.0625C34.6359 55.7959 32.5111 55.4264 30.4461 54.9299L30.2159 55.8872C32.3219 56.3935 34.4839 56.7692 36.6814 57.0398L36.8017 56.0625ZM1.26688 1.30447C3.77788 4.15411 8.07082 7.77002 13.9107 11.0527L14.3931 10.1944C8.63501 6.95767 4.43305 3.40835 2.00561 0.653535L1.26688 1.30447ZM13.9107 11.0527C25.1647 17.3789 42.2041 22.4898 63.3915 18.4677L63.2079 17.5004C42.2801 21.4732 25.4749 16.4238 14.3931 10.1944L13.9107 11.0527ZM14.5474 10.9168C15.4837 9.65399 17.1326 8.00954 19.0181 7.15452C19.9551 6.72963 20.9298 6.5089 21.8955 6.60605C22.8538 6.70246 23.8398 7.11526 24.805 8.01893L25.4779 7.30017C24.3673 6.26041 23.1834 5.74605 21.994 5.6264C20.812 5.50748 19.6613 5.78177 18.6115 6.25781C16.5235 7.20464 14.7535 8.98563 13.7564 10.3304L14.5474 10.9168ZM25.3722 8.09444C26.868 7.30084 29.361 6.24035 31.9515 5.6495C34.5676 5.05282 37.1577 4.96442 38.9433 5.96354L39.4241 5.1043C37.3023 3.91706 34.3976 4.08171 31.7326 4.68955C29.042 5.30323 26.4675 6.39874 24.9107 7.22466L25.3722 8.09444ZM38.9433 5.96354C40.8656 7.03913 42.0417 7.99638 42.7302 8.73838C43.0745 9.1094 43.2917 9.42101 43.4204 9.661C43.5542 9.91061 43.5756 10.0514 43.5756 10.0888H44.5602C44.5602 9.82264 44.4596 9.5155 44.2881 9.19575C44.1115 8.86637 43.8403 8.48716 43.452 8.06865C42.6752 7.23162 41.4092 6.21507 39.4241 5.1043L38.9433 5.96354ZM44.4313 10.4209C45.4191 9.34011 47.1608 7.8157 49.1499 6.77481C51.1507 5.72783 53.2998 5.22091 55.1762 5.98948L55.5494 5.07836C53.2742 4.14642 50.7934 4.80354 48.6934 5.90243C46.5818 7.00741 44.7519 8.61072 43.7045 9.75673L44.4313 10.4209ZM55.1762 5.98948C57.2015 6.81907 58.3765 7.71614 59.0279 8.4678C59.6896 9.23152 59.7858 9.8104 59.7586 10.0275L60.7355 10.1502C60.81 9.55751 60.5399 8.70919 59.772 7.82302C58.9936 6.92478 57.6756 5.94928 55.5494 5.07836L55.1762 5.98948ZM60.6665 10.3465C61.1887 9.49655 62.2618 8.26748 63.7529 7.40209C65.2332 6.5429 67.1098 6.0493 69.2803 6.61749L69.5297 5.66499C67.0602 5.01854 64.9174 5.58775 63.2586 6.55053C61.6105 7.50711 60.4247 8.85915 59.8276 9.83114L60.6665 10.3465ZM69.2803 6.61749C71.5522 7.21222 72.9292 7.9697 73.7276 8.64318C74.541 9.3293 74.7127 9.88758 74.7127 10.0888H75.6973C75.6973 9.48033 75.289 8.67214 74.3624 7.89056C73.4209 7.09635 71.8978 6.28491 69.5297 5.66499L69.2803 6.61749ZM75.6764 10.231C75.9612 9.28655 76.6699 7.85969 77.8534 6.70638C79.0265 5.56317 80.6535 4.69795 82.811 4.8109L82.8624 3.82765C80.3799 3.69768 78.4963 4.70503 77.1662 6.00124C75.8465 7.28733 75.0594 8.86671 74.7337 9.94669L75.6764 10.231ZM63.3915 18.4677C74.3316 16.3909 82.9768 14.1117 89.7073 11.883L89.3978 10.9483C82.715 13.1613 74.1126 15.4303 63.2079 17.5004L63.3915 18.4677ZM89.7073 11.883C96.1978 9.73372 100.913 7.62952 104.191 5.79537C107.449 3.97198 109.336 2.38805 110.107 1.25611L109.293 0.701894C108.657 1.63649 106.939 3.12887 103.71 4.93616C100.499 6.7327 95.8444 8.81356 89.3978 10.9483L89.7073 11.883ZM82.811 4.8109C85.7037 4.96235 87.3524 5.473 88.2385 6.4233C89.1085 7.35626 89.3665 8.85254 89.0638 11.3566L90.0413 11.4747C90.3491 8.92871 90.1492 7.02863 88.9586 5.75183C87.7842 4.49237 85.7697 3.97986 82.8624 3.82765L82.811 4.8109Z" fill="#16141F"/>
<path d="M17.1501 49.7167L16.881 41.3477H24.6722L24.5345 53.6551L17.1501 49.7167Z" fill="#16141F"/>
<path d="M28.4729 54.6397L28.4271 41.3477H36.2182V56.1166L28.4729 54.6397Z" fill="#16141F"/>
<path d="M39.9731 56.6089V41.3477H47.7643V57.1012L39.9731 56.6089Z" fill="#16141F"/>
<path d="M51.5192 57.1012V41.84H59.3104V56.6089L51.5192 57.1012Z" fill="#16141F"/>
<path d="M63.0653 56.1166V41.3477H70.8565V56.1166H63.0653Z" fill="#16141F"/>
<path d="M74.6114 55.6243V41.3477H82.4026V53.1628L74.6114 55.6243Z" fill="#16141F"/>
<path d="M86.1575 51.1936V41.3477H93.9487L92.4718 45.286L86.1575 51.1936Z" fill="#16141F"/>
<path d="M9.23047 41.3477H13.1261V46.244L9.23047 41.3477Z" fill="#16141F"/>
<path d="M28.9648 59.6875V59.0703H41.0073V59.6875H28.9648ZM28.9648 63.0087V62.3915H41.0073V63.0087H28.9648Z" fill="#16141F"/>
<path d="M45.0971 59.6875V59.0703H57.1395V59.6875H45.0971ZM45.0971 63.0087V62.3915H57.1395V63.0087H45.0971Z" fill="#16141F"/>
<path d="M61.2293 59.6875V59.0703H73.2718V59.6875H61.2293ZM61.2293 63.0087V62.3915H73.2718V63.0087H61.2293Z" fill="#16141F"/>
<path d="M6.67348 19.4892C5.78078 19.4892 4.9931 19.1741 4.31045 18.544C3.6803 17.8613 3.36523 17.0474 3.36523 16.1022C3.36523 15.157 3.6803 14.3693 4.31045 13.7392C4.9931 13.109 5.78078 12.7939 6.67348 12.7939C7.56619 12.7939 8.32761 13.109 8.95775 13.7392C9.64041 14.3693 9.98173 15.157 9.98173 16.1022C9.98173 17.0474 9.64041 17.8613 8.95775 18.544C8.32761 19.1741 7.56619 19.4892 6.67348 19.4892Z" fill="#16141F"/>
<path d="M85.5182 19.4892C84.6255 19.4892 83.8379 19.1741 83.1552 18.544C82.5251 17.8613 82.21 17.0474 82.21 16.1022C82.21 15.157 82.5251 14.3693 83.1552 13.7392C83.8379 13.109 84.6255 12.7939 85.5182 12.7939C86.4109 12.7939 87.1724 13.109 87.8025 13.7392C88.4852 14.3693 88.8265 15.157 88.8265 16.1022C88.8265 17.0474 88.4852 17.8613 87.8025 18.544C87.1724 19.1741 86.4109 19.4892 85.5182 19.4892Z" fill="#16141F"/>
<path d="M101.287 19.4892C100.395 19.4892 99.6068 19.1741 98.9242 18.544C98.294 17.8613 97.979 17.0474 97.979 16.1022C97.979 15.157 98.294 14.3693 98.9242 13.7392C99.6068 13.109 100.395 12.7939 101.287 12.7939C102.18 12.7939 102.941 13.109 103.571 13.7392C104.254 14.3693 104.595 15.157 104.595 16.1022C104.595 17.0474 104.254 17.8613 103.571 18.544C102.941 19.1741 102.18 19.4892 101.287 19.4892Z" fill="#16141F"/>
<path fill-rule="evenodd" clip-rule="evenodd" d="M67.3863 18.544C68.0689 19.1741 68.8566 19.4892 69.7493 19.4892C70.642 19.4892 71.4034 19.1741 72.0336 18.544C72.7162 17.8613 73.0575 17.0474 73.0575 16.1022L66.6645 17.3879C66.8219 17.8079 67.0625 18.1933 67.3863 18.544Z" fill="#16141F"/>
<path fill-rule="evenodd" clip-rule="evenodd" d="M35.8484 18.544C36.531 19.1741 37.3187 19.4892 38.2114 19.4892C38.8845 19.4892 39.4829 19.3101 40.0067 18.9519L35.5723 18.2092C35.6564 18.3241 35.7484 18.4357 35.8484 18.544Z" fill="#16141F"/>
<path fill-rule="evenodd" clip-rule="evenodd" d="M20.0794 18.544C20.7621 19.1741 21.5497 19.4892 22.4424 19.4892C23.3351 19.4892 24.0966 19.1741 24.7267 18.544C25.4094 17.8613 25.7507 17.0474 25.7507 16.1022L20.0794 13.7392C19.4493 14.3693 19.1342 15.157 19.1342 16.1022C19.1342 17.0474 19.4493 17.8613 20.0794 18.544Z" fill="#16141F"/>
</svg>
