<svg width="118" height="70" viewBox="0 0 118 70" fill="none" xmlns="http://www.w3.org/2000/svg">
<path d="M2.07582 58.1171V62.4452H9.33764H106.7H112.079V58.1171H108.313H93.5209H85.9901H71.1976H64.2047H62.591H50.219H40.2676H32.1989H28.1646H15.1202H7.18599H2.07582Z" fill="#FAF9F9"/>
<path d="M9.33764 62.4452L15.5236 68.9373H98.6311L106.7 62.4452H9.33764Z" fill="#FAF9F9"/>
<path d="M6.64808 48.8223C14.3134 48.6878 16.0907 50.5074 15.8973 51.6251C16.8692 49.1554 18.7798 46.9277 22.2475 46.1864C21.3153 43.6274 17.8774 41.62 14.4478 40.311C10.951 38.9764 7.46278 38.3678 6.64808 38.6409C5.35709 39.0737 6.11017 45.6088 6.64808 48.8223Z" fill="#FAF9F9"/>
<path d="M108.313 58.1171C110.555 55.5925 114.553 49.7316 112.617 46.4855C112.019 46.4555 111.347 46.4528 110.621 46.4855C106.812 46.6575 101.533 47.8058 97.7635 51.084C95.7973 52.7942 94.2421 55.084 93.5209 58.1171H108.313Z" fill="#FAF9F9"/>
<path d="M93.5209 58.1171C94.2421 55.084 95.7973 52.7942 97.7635 51.084C98.1423 48.1987 98.2545 42.3738 95.6726 42.1574C92.4459 41.887 83.3051 45.6721 82.2256 51.3503C84.0847 53.1513 85.3895 56.1036 85.9901 58.1171H93.5209Z" fill="#FAF9F9"/>
<path d="M71.1976 58.1171C71.1079 56.4941 72.112 52.6529 76.8456 50.2725C74.1561 45.5838 67.5935 36.8556 62.8599 39.4524C62.6054 41.0734 62.3456 43.2703 62.2036 45.6C63.2406 45.3465 64.3546 45.1841 65.5495 45.133C66.2667 48.92 66.6791 56.8188 62.591 58.1171H64.2047H71.1976Z" fill="#FAF9F9"/>
<path d="M50.219 58.1171H62.591C66.6791 56.8188 66.2667 48.92 65.5495 45.133C64.3546 45.1841 63.2406 45.3465 62.2036 45.6C61.7822 45.7031 61.3735 45.8211 60.9772 45.9529C58.3409 46.8294 56.2553 48.312 54.6434 50.002C52.0476 52.7237 50.6802 55.9835 50.219 58.1171Z" fill="#FAF9F9"/>
<path d="M40.2676 58.1171C40.078 52.7786 41.4251 49.691 43.384 48.1085C43.3314 45.0428 42.6344 38.9114 40.2676 38.9114C37.4138 38.9114 29.7672 44.7248 29.0247 47.0551C32.6826 49.4174 32.8052 54.933 32.1989 58.1171H40.2676Z" fill="#FAF9F9"/>
<path d="M15.1202 58.1171C14.9022 56.4032 14.9978 53.9105 15.8973 51.6251C16.0907 50.5074 14.3134 48.6878 6.64808 48.8223C5.03746 48.8505 3.16688 48.9651 1 49.1905C1.98617 52.1661 4.60401 58.1171 7.18599 58.1171H15.1202Z" fill="#FAF9F9"/>
<path d="M28.1646 58.1171H32.1989C32.8052 54.933 32.6826 49.4174 29.0247 47.0551C27.8142 46.2733 26.2167 45.8369 24.1302 45.9445C23.7574 45.9637 23.399 45.9976 23.0544 46.0452C22.7765 46.0835 22.5076 46.1308 22.2475 46.1864C18.7798 46.9277 16.8692 49.1554 15.8973 51.6251C14.9978 53.9105 14.9022 56.4032 15.1202 58.1171H28.1646Z" fill="#FAF9F9"/>
<path d="M50.219 58.1171C50.6802 55.9835 52.0476 52.7237 54.6434 50.002C53.742 48.8144 52.0906 47.7195 50.219 47.1446C47.9497 46.4475 45.3566 46.515 43.384 48.1085C41.4251 49.691 40.078 52.7786 40.2676 58.1171H50.219Z" fill="#FAF9F9"/>
<path d="M71.1976 58.1171H85.9901C85.3895 56.1036 84.0847 53.1513 82.2256 51.3503C80.7546 49.9253 78.9365 49.221 76.8456 50.2725C72.112 52.6529 71.1079 56.4941 71.1976 58.1171Z" fill="#FAF9F9"/>
<path fill-rule="evenodd" clip-rule="evenodd" d="M95.6726 42.1574C98.2545 42.3738 98.1423 48.1987 97.7635 51.084C101.533 47.8058 106.812 46.6575 110.621 46.4855C112.468 43.4559 106.983 40.1738 104.01 38.9114C102.419 35.8775 100.693 33.0688 98.8659 30.4711C100.334 24.2989 104.633 18.9528 106.7 16.7302L105.424 14.8367L102.691 10.7792L101.052 8.34465C100.98 8.7042 94.6934 12.4473 84.2377 15.0462C72.3641 5.74211 59.9682 2.02061 53.1775 1.35858C17.5087 -2.49902 12.4957 25.7195 14.4478 40.311C17.8774 41.62 21.3153 43.6274 22.2475 46.1864C22.5076 46.1308 22.7765 46.0835 23.0544 46.0452C23.399 45.9976 23.7574 45.9637 24.1302 45.9445C26.2167 45.8369 27.8142 46.2733 29.0247 47.0551C29.7672 44.7248 37.4138 38.9114 40.2676 38.9114C42.6344 38.9114 43.3314 45.0428 43.384 48.1085C45.3566 46.515 47.9497 46.4475 50.219 47.1446C52.0906 47.7195 53.742 48.8144 54.6434 50.002C56.2553 48.312 58.3409 46.8294 60.9772 45.9529C61.3735 45.8211 61.7822 45.7031 62.2036 45.6C62.3456 43.2703 62.6054 41.0734 62.8599 39.4524C67.5935 36.8556 74.1561 45.5838 76.8456 50.2725C78.9365 49.221 80.7546 49.9253 82.2256 51.3503C83.3051 45.6721 92.4459 41.887 95.6726 42.1574Z" fill="#FAF9F9"/>
<path d="M2.07582 58.1171V57.6248H1.58353V58.1171H2.07582ZM2.07582 62.4452H1.58353V62.9375H2.07582V62.4452ZM112.079 62.4452V62.9375H112.571V62.4452H112.079ZM112.079 58.1171H112.571V57.6248H112.079V58.1171ZM15.5236 68.9373L15.1672 69.2769L15.3127 69.4296H15.5236V68.9373ZM98.6311 68.9373V69.4296H98.8046L98.9397 69.3208L98.6311 68.9373ZM112.617 46.4855L113.04 46.2333L112.905 46.0071L112.642 45.9939L112.617 46.4855ZM97.7635 51.084L98.0866 51.4555L98.0866 51.4555L97.7635 51.084ZM76.8456 50.2725L77.0668 50.7123L76.8456 50.2725ZM62.8599 39.4524L62.6231 39.0208L62.4111 39.1371L62.3736 39.376L62.8599 39.4524ZM65.5495 45.133L66.0332 45.0414L65.9539 44.6229L65.5284 44.6411L65.5495 45.133ZM24.1302 45.9445L24.1556 46.4361L24.1302 45.9445ZM15.8973 51.6251L16.3554 51.8053L15.8973 51.6251ZM1 49.1905L0.949055 48.7009L0.340082 48.7642L0.532697 49.3454L1 49.1905ZM6.64808 38.6409L6.4916 38.1741L6.4916 38.1741L6.64808 38.6409ZM22.2475 46.1864L22.3504 46.6678L22.2475 46.1864ZM14.4478 40.311L14.2723 40.7709L14.2723 40.7709L14.4478 40.311ZM53.1775 1.35858L53.1246 1.84806L53.1297 1.84856L53.1775 1.35858ZM104.01 38.9114L103.574 39.1401L103.656 39.2958L103.818 39.3646L104.01 38.9114ZM110.621 46.4855L110.644 46.9773L110.621 46.4855ZM60.9772 45.9529L61.1325 46.42L61.1325 46.42L60.9772 45.9529ZM75.5009 16.7302L75.5685 17.2179L75.5009 16.7302ZM101.052 8.34465L101.46 8.06963L100.799 7.08893L100.569 8.24864L101.052 8.34465ZM106.7 16.7302L107.06 17.0655L107.326 16.7793L107.108 16.4552L106.7 16.7302ZM111.272 1.31158L111.493 0.871762L111.493 0.871762L111.272 1.31158ZM112.617 5.09862L112.145 4.9579L111.948 5.61939L112.637 5.59049L112.617 5.09862ZM110.734 10.5087L110.845 10.0291L110.61 9.97454L110.423 10.1271L110.734 10.5087ZM105.424 14.8367L105.016 15.1117L105.016 15.1117L105.424 14.8367ZM50.219 47.1446L50.0744 47.6152L50.219 47.1446ZM47.2605 38.1L47.6096 37.7529L47.6096 37.7529L47.2605 38.1ZM84.2377 15.0462L84.3564 15.5239L84.3564 15.5239L84.2377 15.0462ZM98.8659 30.4711L98.387 30.3572L98.387 30.3572L98.8659 30.4711ZM1.58353 58.1171V62.4452H2.56812V58.1171H1.58353ZM112.571 62.4452V58.1171H111.587V62.4452H112.571ZM2.07582 62.9375H9.33764V61.9529H2.07582V62.9375ZM8.98123 62.7848L15.1672 69.2769L15.88 68.5977L9.69405 62.1056L8.98123 62.7848ZM15.5236 69.4296H98.6311V68.445H15.5236V69.4296ZM9.33764 62.9375H106.7V61.9529H9.33764V62.9375ZM106.7 62.9375H112.079V61.9529H106.7V62.9375ZM98.9397 69.3208L107.008 62.8288L106.391 62.0616L98.3225 68.5537L98.9397 69.3208ZM112.079 57.6248H108.313V58.6094H112.079V57.6248ZM108.682 58.444C109.824 57.1574 111.414 55.0226 112.477 52.7829C113.008 51.6629 113.418 50.4957 113.565 49.3816C113.711 48.2666 113.598 47.1697 113.04 46.2333L112.194 46.7378C112.604 47.4244 112.717 48.2774 112.588 49.2531C112.46 50.2298 112.093 51.2942 111.587 52.3608C110.575 54.4942 109.044 56.5522 107.945 57.7903L108.682 58.444ZM108.313 57.6248H93.5209V58.6094H108.313V57.6248ZM97.4404 50.7126C95.4031 52.4846 93.7888 54.862 93.042 58.0033L93.9999 58.231C94.6954 55.3059 96.1915 53.1038 98.0866 51.4555L97.4404 50.7126ZM98.2516 51.1481C98.4442 49.6811 98.5714 47.4567 98.3163 45.5544C98.1892 44.6068 97.9621 43.6979 97.5718 42.998C97.176 42.2883 96.5765 41.7392 95.7137 41.6668L95.6315 42.648C96.0596 42.6839 96.4144 42.9441 96.7119 43.4775C97.0148 44.0208 97.2202 44.789 97.3404 45.6853C97.5799 47.4709 97.4616 49.6016 97.2754 51.0199L98.2516 51.1481ZM93.5209 57.6248H85.9901V58.6094H93.5209V57.6248ZM85.9901 57.6248H71.1976V58.6094H85.9901V57.6248ZM76.6245 49.8327C71.7107 52.3037 70.6059 56.3315 70.706 58.1443L71.6891 58.09C71.6099 56.6568 72.5133 53.0022 77.0668 50.7123L76.6245 49.8327ZM77.2727 50.0276C75.9138 47.6587 73.5733 44.2611 70.9586 41.7737C69.6527 40.5313 68.2516 39.49 66.846 38.9307C65.4299 38.3673 63.9713 38.2812 62.6231 39.0208L63.0967 39.884C64.1154 39.3252 65.2522 39.3563 66.482 39.8456C67.7222 40.339 69.0174 41.2859 70.28 42.4871C72.8024 44.8867 75.0879 48.1976 76.4186 50.5175L77.2727 50.0276ZM71.1976 57.6248H64.2047V58.6094H71.1976V57.6248ZM64.2047 57.6248H62.591V58.6094H64.2047V57.6248ZM62.591 57.6248H50.219V58.6094H62.591V57.6248ZM65.0658 45.2246C65.4183 47.0863 65.6938 49.9542 65.3835 52.4987C65.2284 53.7713 64.9302 54.9326 64.4446 55.8411C63.9627 56.7427 63.3105 57.3721 62.4419 57.6479L62.74 58.5863C63.9155 58.213 64.7448 57.3682 65.3129 56.3052C65.8774 55.2492 66.1978 53.9557 66.3609 52.6179C66.6872 49.9418 66.3978 46.9667 66.0332 45.0414L65.0658 45.2246ZM50.7002 58.2212C51.1446 56.1649 52.4738 52.9901 54.9996 50.3418L54.2871 49.6623C51.6213 52.4574 50.2157 55.8021 49.7378 58.0131L50.7002 58.2212ZM43.0746 47.7256C40.9442 49.4466 39.5834 52.7213 39.7756 58.1346L40.7596 58.0997C40.5727 52.8359 41.9059 49.9354 43.6934 48.4915L43.0746 47.7256ZM43.8762 48.1001C43.8495 46.5458 43.6602 44.2063 43.1714 42.2415C42.9279 41.2628 42.6015 40.3405 42.1601 39.6518C41.7217 38.9675 41.1038 38.4191 40.2676 38.4191V39.4037C40.6148 39.4037 40.9715 39.6217 41.3311 40.1829C41.6878 40.7396 41.9827 41.5418 42.2159 42.4792C42.6804 44.3464 42.8658 46.6055 42.8918 48.117L43.8762 48.1001ZM50.219 57.6248H32.1989V58.6094H50.219V57.6248ZM32.1989 57.6248H28.1646V58.6094H32.1989V57.6248ZM28.1646 57.6248H15.1202V58.6094H28.1646V57.6248ZM15.4392 51.4448C14.503 53.8235 14.4059 56.4027 14.6318 58.1793L15.6086 58.055C15.3986 56.4038 15.4927 53.9975 16.3554 51.8053L15.4392 51.4448ZM15.1202 57.6248H7.18599V58.6094H15.1202V57.6248ZM7.18599 57.6248H2.07582V58.6094H7.18599V57.6248ZM0.532697 49.3454C1.03302 50.855 1.94719 53.1214 3.07089 55.0204C3.63196 55.9685 4.25796 56.847 4.9263 57.4944C5.5855 58.133 6.35109 58.6094 7.18599 58.6094V57.6248C6.7299 57.6248 6.20002 57.3574 5.61137 56.7872C5.03187 56.2258 4.45766 55.4305 3.91825 54.519C2.84098 52.6985 1.95315 50.5016 1.4673 49.0357L0.532697 49.3454ZM16.3824 51.709C16.5399 50.7985 15.8541 49.9054 14.41 49.3001C12.9395 48.6836 10.4993 48.2623 6.63944 48.3301L6.65672 49.3145C10.4622 49.2477 12.7433 49.669 14.0294 50.2081C15.3419 50.7583 15.448 51.3339 15.4122 51.5411L16.3824 51.709ZM6.63944 48.3301C5.01247 48.3586 3.1276 48.4742 0.949055 48.7009L1.05095 49.6802C3.20615 49.456 5.06244 49.3425 6.65672 49.3145L6.63944 48.3301ZM7.13362 48.741C6.86655 47.1455 6.54697 44.7295 6.45404 42.6667C6.40742 41.6318 6.41913 40.7098 6.51523 40.0315C6.56357 39.6903 6.62962 39.4388 6.70427 39.2729C6.78317 39.0977 6.83421 39.0977 6.80456 39.1077L6.4916 38.1741C6.1392 38.2923 5.93137 38.5913 5.80645 38.8688C5.67728 39.1557 5.59457 39.5109 5.54037 39.8934C5.43139 40.6626 5.42293 41.6564 5.47044 42.711C5.56578 44.8273 5.8917 47.2856 6.16254 48.9036L7.13362 48.741ZM22.1446 45.705C18.4842 46.4875 16.4588 48.8539 15.4392 51.4448L16.3554 51.8053C17.2796 49.4568 19.0754 47.3679 22.3504 46.6678L22.1446 45.705ZM6.80456 39.1077C6.90309 39.0747 7.18223 39.0501 7.67968 39.0897C8.15064 39.1272 8.75198 39.2158 9.44473 39.3556C10.8293 39.6351 12.5494 40.1134 14.2723 40.7709L14.6234 39.8511C12.8493 39.174 11.0769 38.6806 9.63956 38.3905C8.92131 38.2455 8.27929 38.1497 7.75781 38.1082C7.26282 38.0688 6.80042 38.0706 6.4916 38.1741L6.80456 39.1077ZM14.2723 40.7709C15.9639 41.4166 17.6408 42.2285 19.0015 43.183C20.3702 44.1431 21.3688 45.2123 21.785 46.3549L22.7101 46.0179C22.1941 44.6014 21.0076 43.3875 19.5669 42.3769C18.1181 41.3606 16.3614 40.5144 14.6234 39.8511L14.2723 40.7709ZM14.9358 40.2457C13.9692 33.0208 14.7352 22.4498 20.1173 14.185C25.4681 5.96849 35.4436 -0.064175 53.1246 1.84803L53.2304 0.869139C35.2426 -1.07626 24.8772 5.07155 19.2923 13.6477C13.7387 22.1757 12.9743 33.0097 13.9599 40.3763L14.9358 40.2457ZM112.642 45.9939C112.027 45.9629 111.339 45.9603 110.599 45.9937L110.644 46.9773C111.354 46.9453 112.011 46.948 112.592 46.9772L112.642 45.9939ZM110.599 45.9937C106.735 46.1681 101.328 47.3314 97.4404 50.7126L98.0866 51.4555C101.737 48.2802 106.889 47.1468 110.644 46.9773L110.599 45.9937ZM103.818 39.3646C105.277 39.9842 107.338 41.0949 108.794 42.4021C109.524 43.0572 110.067 43.7309 110.328 44.3841C110.58 45.014 110.571 45.6219 110.201 46.2293L111.042 46.7417C111.595 45.8344 111.593 44.896 111.243 44.0189C110.902 43.1652 110.234 42.3713 109.452 41.6694C107.885 40.2626 105.716 39.101 104.203 38.4583L103.818 39.3646ZM54.9996 50.3418C56.5638 48.7018 58.5827 47.2678 61.1325 46.42L60.8219 45.4857C58.099 46.391 55.9468 47.9222 54.2871 49.6623L54.9996 50.3418ZM61.4202 45.7381C59.663 42.1137 58.1304 35.6479 59.5768 29.7669C60.297 26.8383 61.7531 24.063 64.2821 21.8427C66.8118 19.6216 70.4465 17.9284 75.5685 17.2179L75.4332 16.2426C70.1612 16.974 66.3351 18.73 63.6325 21.1028C60.929 23.4764 59.3811 26.4397 58.6207 29.5317C57.1057 35.6919 58.7054 42.3955 60.5342 46.1676L61.4202 45.7381ZM97.8698 34.5834C97.8698 37.2692 97.6007 38.88 97.1689 39.9036C96.7533 40.8889 96.178 41.3523 95.4514 41.7176L95.8937 42.5973C96.7809 42.1512 97.5504 41.5325 98.0761 40.2863C98.5857 39.0782 98.8544 37.3077 98.8544 34.5834H97.8698ZM100.643 8.61967L102.283 11.0542L103.1 10.5042L101.46 8.06963L100.643 8.61967ZM102.967 11.1874C103.778 10.6404 104.997 9.7645 106.017 8.91172C106.525 8.4865 106.997 8.05689 107.346 7.66997C107.52 7.47703 107.673 7.2831 107.787 7.09636C107.892 6.92174 107.999 6.69536 107.999 6.45113H107.014C107.014 6.42331 107.021 6.46067 106.945 6.58614C106.876 6.69949 106.766 6.842 106.614 7.01085C106.311 7.34753 105.88 7.74295 105.385 8.15629C104.399 8.98063 103.21 9.83595 102.416 10.371L102.967 11.1874ZM107.999 6.45113C107.999 6.25667 108.081 5.79051 108.264 5.18076C108.442 4.58689 108.7 3.90709 109.019 3.29811C109.342 2.67959 109.705 2.17935 110.075 1.89727C110.255 1.75982 110.419 1.68708 110.569 1.66377C110.711 1.64146 110.868 1.65958 111.051 1.7514L111.493 0.871762C111.138 0.693077 110.774 0.635117 110.416 0.690996C110.065 0.745882 109.751 0.905606 109.477 1.11474C108.939 1.52583 108.495 2.17522 108.146 2.84159C107.793 3.5175 107.513 4.25784 107.321 4.89814C107.134 5.52255 107.014 6.10459 107.014 6.45113H107.999ZM111.051 1.7514C111.749 2.10268 112.078 2.67981 112.209 3.29416C112.344 3.92442 112.261 4.56999 112.145 4.9579L113.089 5.23934C113.242 4.72557 113.347 3.91043 113.172 3.08899C112.994 2.25164 112.516 1.38609 111.493 0.871762L111.051 1.7514ZM112.637 5.59049C113.694 5.54619 115.094 5.64567 115.969 6.02961C116.408 6.22184 116.609 6.43811 116.668 6.63931C116.724 6.83116 116.7 7.18463 116.256 7.77986L117.046 8.36845C117.57 7.66526 117.795 6.98632 117.613 6.36271C117.433 5.74846 116.908 5.36624 116.365 5.12792C115.277 4.65075 113.691 4.56088 112.596 4.60675L112.637 5.59049ZM116.256 7.77986C114.467 10.1796 111.875 10.268 110.845 10.0291L110.623 10.9882C111.924 11.2903 114.962 11.1623 117.046 8.36845L116.256 7.77986ZM102.283 11.0542L105.016 15.1117L105.833 14.5617L103.1 10.5042L102.283 11.0542ZM105.016 15.1117L106.291 17.0053L107.108 16.4552L105.833 14.5617L105.016 15.1117ZM110.423 10.1271L105.113 14.4551L105.735 15.2183L111.045 10.8903L110.423 10.1271ZM55.0355 49.7044C54.0587 48.4174 52.3109 47.2721 50.3635 46.674L50.0744 47.6152C51.8703 48.1668 53.4253 49.2114 54.2513 50.2997L55.0355 49.7044ZM50.3635 46.674C48.0003 45.9481 45.2182 45.9939 43.0746 47.7256L43.6934 48.4915C45.495 47.036 47.8991 46.947 50.0744 47.6152L50.3635 46.674ZM50.7107 47.1674C50.7577 46.1552 50.6594 44.4948 50.2189 42.7507C49.7793 41.0102 48.9866 39.1379 47.6096 37.7529L46.9114 38.4471C48.1163 39.6589 48.8477 41.3425 49.2643 42.9918C49.6799 44.6376 49.7699 46.2011 49.7272 47.1218L50.7107 47.1674ZM47.6096 37.7529C47.3445 37.4863 47.2324 37.1155 47.3031 36.574C47.3758 36.0182 47.6378 35.3351 48.064 34.5417C48.915 32.9573 50.3333 31.0886 51.8185 29.1705C53.2891 27.2712 54.824 25.3252 55.8508 23.6342C56.3641 22.7888 56.7692 21.9776 56.9719 21.245C57.1731 20.5177 57.1965 19.7856 56.8249 19.1783L55.985 19.6922C56.1514 19.9641 56.1915 20.3731 56.0229 20.9825C55.8558 21.5866 55.5045 22.3075 55.0092 23.1232C54.0188 24.7543 52.528 26.646 51.04 28.5677C49.5668 30.4703 48.0937 32.4056 47.1966 34.0757C46.7487 34.9096 46.4223 35.7163 46.3269 36.4464C46.2295 37.1909 46.3695 37.9022 46.9114 38.4471L47.6096 37.7529ZM24.1049 45.4529C23.7185 45.4728 23.3461 45.5079 22.9871 45.5575L23.1217 46.5328C23.4519 46.4873 23.7963 46.4547 24.1556 46.4361L24.1049 45.4529ZM22.9871 45.5575C22.6976 45.5975 22.4168 45.6468 22.1446 45.705L22.3504 46.6678C22.5985 46.6148 22.8555 46.5696 23.1217 46.5328L22.9871 45.5575ZM56.8249 19.1783C56.5945 18.8018 56.189 18.5975 55.7622 18.4885C55.3276 18.3775 54.7957 18.3451 54.2001 18.3713C53.0059 18.4238 51.4564 18.7177 49.6982 19.2155C46.1763 20.2126 41.7341 22.0521 37.4645 24.5419C33.1977 27.0301 29.0731 30.1854 26.214 33.8278C23.3523 37.4734 21.7291 41.6485 22.5705 46.1359L23.5383 45.9544C22.766 41.836 24.2358 37.9425 26.9885 34.4357C29.7438 30.9256 33.7552 27.8448 37.9605 25.3925C42.1631 22.9417 46.5291 21.136 49.9665 20.1628C51.688 19.6754 53.1558 19.4028 54.2434 19.3549C54.7889 19.3309 55.214 19.3647 55.5186 19.4425C55.8308 19.5223 55.9465 19.6292 55.985 19.6922L56.8249 19.1783ZM75.5685 17.2179C78.7454 16.7772 81.6859 16.1877 84.3564 15.5239L84.1189 14.5684C81.4801 15.2243 78.5737 15.807 75.4332 16.2426L75.5685 17.2179ZM84.3564 15.5239C89.6149 14.2169 93.8286 12.6213 96.7416 11.3043C98.1976 10.6459 99.332 10.0557 100.112 9.60393C100.5 9.37863 100.807 9.18426 101.023 9.03025C101.13 8.95411 101.224 8.88133 101.297 8.81472C101.333 8.78192 101.374 8.74225 101.41 8.6976C101.434 8.66748 101.508 8.57497 101.535 8.44067L100.569 8.24864C100.582 8.18422 100.605 8.13941 100.616 8.11973C100.629 8.09761 100.64 8.08358 100.644 8.07868C100.651 8.06944 100.651 8.07151 100.635 8.08652C100.603 8.11551 100.544 8.16255 100.452 8.22824C100.27 8.35791 99.9919 8.53526 99.6178 8.75205C98.8717 9.18445 97.7675 9.75985 96.3359 10.4071C93.4737 11.7012 89.3161 13.2766 84.1189 14.5684L84.3564 15.5239ZM53.1297 1.84856C59.827 2.50148 72.1342 6.18739 83.934 15.4337L84.5413 14.6587C72.594 5.29683 60.1093 1.53974 53.2253 0.868608L53.1297 1.84856ZM98.4632 30.7542C100.278 33.3347 101.993 36.1252 103.574 39.1401L104.446 38.6827C102.845 35.6298 101.107 32.8028 99.2686 30.1879L98.4632 30.7542ZM106.339 16.395C104.254 18.6374 99.8846 24.0598 98.387 30.3572L99.3449 30.585C100.783 24.538 105.012 19.2683 107.06 17.0655L106.339 16.395ZM98.387 30.3572C98.0608 31.7288 97.8698 33.1459 97.8698 34.5834H98.8544C98.8544 33.2329 99.0339 31.8927 99.3449 30.585L98.387 30.3572ZM61.1325 46.42C61.5162 46.2925 61.9121 46.1781 62.3205 46.0783L62.0867 45.1218C61.6523 45.228 61.2308 45.3498 60.8219 45.4857L61.1325 46.42ZM62.3205 46.0783C63.3255 45.8326 64.4073 45.6746 65.5705 45.6248L65.5284 44.6411C64.302 44.6936 63.1558 44.8605 62.0867 45.1218L62.3205 46.0783ZM62.3736 39.376C62.1168 41.0118 61.8552 43.2242 61.7122 45.5701L62.695 45.63C62.836 43.3165 63.0941 41.1351 63.3463 39.5288L62.3736 39.376ZM50.219 57.6248H40.2676V58.6094H50.219V57.6248ZM40.2676 57.6248H32.1989V58.6094H40.2676V57.6248ZM32.6825 58.2092C32.9948 56.5693 33.1207 54.329 32.6937 52.1819C32.267 50.0364 31.2738 47.9215 29.2918 46.6415L28.7576 47.4686C30.4335 48.5509 31.3305 50.375 31.728 52.3739C32.1252 54.3712 32.0093 56.4808 31.7153 58.0251L32.6825 58.2092ZM29.4938 47.2045C29.5622 46.9897 29.7255 46.6954 29.9981 46.331C30.2661 45.9727 30.6204 45.572 31.0428 45.1463C31.8874 44.2951 32.982 43.3661 34.147 42.5053C35.3121 41.6444 36.536 40.8603 37.6366 40.2939C38.7594 39.7161 39.6812 39.4037 40.2676 39.4037V38.4191C39.4271 38.4191 38.3229 38.8334 37.1861 39.4184C36.0271 40.0149 34.7579 40.8297 33.5618 41.7135C32.3656 42.5973 31.231 43.5587 30.3439 44.4528C29.9004 44.8998 29.5132 45.3355 29.2097 45.7412C28.9109 46.1407 28.6728 46.5378 28.5556 46.9056L29.4938 47.2045ZM29.2918 46.6415C27.9795 45.794 26.2752 45.3409 24.1049 45.4529L24.1556 46.4361C26.1581 46.3329 27.649 46.7527 28.7576 47.4686L29.2918 46.6415ZM28.5556 46.9056C28.5204 47.0163 28.4942 47.13 28.4819 47.2447L29.461 47.3493C29.4649 47.3127 29.4746 47.2648 29.4938 47.2045L28.5556 46.9056ZM95.7137 41.6668C94.8155 41.5916 93.5692 41.7977 92.2182 42.2104C90.8555 42.6267 89.3426 43.2666 87.8986 44.0963C85.0403 45.7386 82.3232 48.2012 81.7419 51.2584L82.7092 51.4423C83.2075 48.8212 85.6006 46.5522 88.3891 44.95C89.7687 44.1574 91.2134 43.5469 92.5059 43.152C93.8101 42.7536 94.9163 42.5881 95.6315 42.648L95.7137 41.6668ZM81.883 51.7039C83.654 53.4194 84.9278 56.2778 85.5184 58.2579L86.4619 57.9764C85.8513 55.9293 84.5155 52.8832 82.5681 50.9967L81.883 51.7039ZM82.5681 50.9967C81.7919 50.2448 80.8958 49.6548 79.8864 49.4049C78.8659 49.1522 77.7686 49.2573 76.6245 49.8327L77.0668 50.7123C78.0136 50.2362 78.8708 50.1678 79.6498 50.3606C80.4398 50.5562 81.1882 51.0308 81.883 51.7039L82.5681 50.9967ZM81.7419 51.2586L81.7411 51.2629L82.7084 51.4462L82.7092 51.442L81.7419 51.2586Z" fill="#16141F"/>
<path d="M16.6783 68.9371C16.1178 68.9371 15.6204 68.798 15.186 68.5197C14.7516 68.2414 14.4118 67.8467 14.1666 67.3354C13.9214 66.8177 13.7988 66.2029 13.7988 65.491C13.7988 64.7791 13.9214 64.1676 14.1666 63.6563C14.4118 63.1386 14.7516 62.7406 15.186 62.4623C15.6204 62.1841 16.1178 62.0449 16.6783 62.0449C17.2457 62.0449 17.7432 62.1841 18.1705 62.4623C18.6049 62.7406 18.9447 63.1386 19.1899 63.6563C19.4351 64.1676 19.5577 64.7791 19.5577 65.491C19.5577 66.2029 19.4351 66.8177 19.1899 67.3354C18.9447 67.8467 18.6049 68.2414 18.1705 68.5197C17.7432 68.798 17.2457 68.9371 16.6783 68.9371ZM16.6783 68.4809C17.1477 68.4809 17.5575 68.3644 17.9078 68.1314C18.2581 67.892 18.5313 67.549 18.7275 67.1024C18.9237 66.6559 19.0217 66.1188 19.0217 65.491C19.0217 64.8568 18.9237 64.3197 18.7275 63.8796C18.5313 63.4331 18.2581 63.0933 17.9078 62.8603C17.5575 62.6209 17.1477 62.5012 16.6783 62.5012C16.2159 62.5012 15.806 62.6209 15.4487 62.8603C15.0984 63.0933 14.8252 63.4331 14.629 63.8796C14.4329 64.3197 14.3348 64.8568 14.3348 65.491C14.3348 66.1188 14.4329 66.6559 14.629 67.1024C14.8252 67.549 15.0984 67.892 15.4487 68.1314C15.806 68.3644 16.2159 68.4809 16.6783 68.4809Z" fill="#16141F"/>
<path d="M23.5952 68.9371C23.0348 68.9371 22.5373 68.798 22.103 68.5197C21.6686 68.2414 21.3288 67.8467 21.0836 67.3354C20.8384 66.8177 20.7158 66.2029 20.7158 65.491C20.7158 64.7791 20.8384 64.1676 21.0836 63.6563C21.3288 63.1386 21.6686 62.7406 22.103 62.4623C22.5373 62.1841 23.0348 62.0449 23.5952 62.0449C24.1627 62.0449 24.6601 62.1841 25.0875 62.4623C25.5219 62.7406 25.8616 63.1386 26.1069 63.6563C26.3521 64.1676 26.4747 64.7791 26.4747 65.491C26.4747 66.2029 26.3521 66.8177 26.1069 67.3354C25.8616 67.8467 25.5219 68.2414 25.0875 68.5197C24.6601 68.798 24.1627 68.9371 23.5952 68.9371ZM23.5952 68.4809C24.0646 68.4809 24.4745 68.3644 24.8248 68.1314C25.1751 67.892 25.4483 67.549 25.6445 67.1024C25.8406 66.6559 25.9387 66.1188 25.9387 65.491C25.9387 64.8568 25.8406 64.3197 25.6445 63.8796C25.4483 63.4331 25.1751 63.0933 24.8248 62.8603C24.4745 62.6209 24.0646 62.5012 23.5952 62.5012C23.1328 62.5012 22.723 62.6209 22.3657 62.8603C22.0154 63.0933 21.7422 63.4331 21.546 63.8796C21.3498 64.3197 21.2518 64.8568 21.2518 65.491C21.2518 66.1188 21.3498 66.6559 21.546 67.1024C21.7422 67.549 22.0154 67.892 22.3657 68.1314C22.723 68.3644 23.1328 68.4809 23.5952 68.4809Z" fill="#16141F"/>
<path d="M30.5122 68.9371C29.9517 68.9371 29.4543 68.798 29.0199 68.5197C28.5856 68.2414 28.2458 67.8467 28.0006 67.3354C27.7554 66.8177 27.6328 66.2029 27.6328 65.491C27.6328 64.7791 27.7554 64.1676 28.0006 63.6563C28.2458 63.1386 28.5856 62.7406 29.0199 62.4623C29.4543 62.1841 29.9517 62.0449 30.5122 62.0449C31.0797 62.0449 31.5771 62.1841 32.0045 62.4623C32.4388 62.7406 32.7786 63.1386 33.0238 63.6563C33.269 64.1676 33.3916 64.7791 33.3916 65.491C33.3916 66.2029 33.269 66.8177 33.0238 67.3354C32.7786 67.8467 32.4388 68.2414 32.0045 68.5197C31.5771 68.798 31.0797 68.9371 30.5122 68.9371ZM30.5122 68.4809C30.9816 68.4809 31.3915 68.3644 31.7417 68.1314C32.092 67.892 32.3653 67.549 32.5614 67.1024C32.7576 66.6559 32.8557 66.1188 32.8557 65.491C32.8557 64.8568 32.7576 64.3197 32.5614 63.8796C32.3653 63.4331 32.092 63.0933 31.7417 62.8603C31.3915 62.6209 30.9816 62.5012 30.5122 62.5012C30.0498 62.5012 29.64 62.6209 29.2827 62.8603C28.9324 63.0933 28.6591 63.4331 28.463 63.8796C28.2668 64.3197 28.1687 64.8568 28.1687 65.491C28.1687 66.1188 28.2668 66.6559 28.463 67.1024C28.6591 67.549 28.9324 67.892 29.2827 68.1314C29.64 68.3644 30.0498 68.4809 30.5122 68.4809Z" fill="#16141F"/>
<path d="M37.4292 68.9371C36.8687 68.9371 36.3713 68.798 35.9369 68.5197C35.5026 68.2414 35.1628 67.8467 34.9176 67.3354C34.6724 66.8177 34.5498 66.2029 34.5498 65.491C34.5498 64.7791 34.6724 64.1676 34.9176 63.6563C35.1628 63.1386 35.5026 62.7406 35.9369 62.4623C36.3713 62.1841 36.8687 62.0449 37.4292 62.0449C37.9967 62.0449 38.4941 62.1841 38.9214 62.4623C39.3558 62.7406 39.6956 63.1386 39.9408 63.6563C40.186 64.1676 40.3086 64.7791 40.3086 65.491C40.3086 66.2029 40.186 66.8177 39.9408 67.3354C39.6956 67.8467 39.3558 68.2414 38.9214 68.5197C38.4941 68.798 37.9967 68.9371 37.4292 68.9371ZM37.4292 68.4809C37.8986 68.4809 38.3084 68.3644 38.6587 68.1314C39.009 67.892 39.2822 67.549 39.4784 67.1024C39.6746 66.6559 39.7727 66.1188 39.7727 65.491C39.7727 64.8568 39.6746 64.3197 39.4784 63.8796C39.2822 63.4331 39.009 63.0933 38.6587 62.8603C38.3084 62.6209 37.8986 62.5012 37.4292 62.5012C36.9668 62.5012 36.5569 62.6209 36.1996 62.8603C35.8493 63.0933 35.5761 63.4331 35.38 63.8796C35.1838 64.3197 35.0857 64.8568 35.0857 65.491C35.0857 66.1188 35.1838 66.6559 35.38 67.1024C35.5761 67.549 35.8493 67.892 36.1996 68.1314C36.5569 68.3644 36.9668 68.4809 37.4292 68.4809Z" fill="#16141F"/>
<path d="M44.3462 68.9371C43.7857 68.9371 43.2883 68.798 42.8539 68.5197C42.4195 68.2414 42.0797 67.8467 41.8345 67.3354C41.5893 66.8177 41.4667 66.2029 41.4667 65.491C41.4667 64.7791 41.5893 64.1676 41.8345 63.6563C42.0797 63.1386 42.4195 62.7406 42.8539 62.4623C43.2883 62.1841 43.7857 62.0449 44.3462 62.0449C44.9136 62.0449 45.4111 62.1841 45.8384 62.4623C46.2728 62.7406 46.6126 63.1386 46.8578 63.6563C47.103 64.1676 47.2256 64.7791 47.2256 65.491C47.2256 66.2029 47.103 66.8177 46.8578 67.3354C46.6126 67.8467 46.2728 68.2414 45.8384 68.5197C45.4111 68.798 44.9136 68.9371 44.3462 68.9371ZM44.3462 68.4809C44.8156 68.4809 45.2254 68.3644 45.5757 68.1314C45.926 67.892 46.1992 67.549 46.3954 67.1024C46.5916 66.6559 46.6896 66.1188 46.6896 65.491C46.6896 64.8568 46.5916 64.3197 46.3954 63.8796C46.1992 63.4331 45.926 63.0933 45.5757 62.8603C45.2254 62.6209 44.8156 62.5012 44.3462 62.5012C43.8838 62.5012 43.4739 62.6209 43.1166 62.8603C42.7663 63.0933 42.4931 63.4331 42.2969 63.8796C42.1008 64.3197 42.0027 64.8568 42.0027 65.491C42.0027 66.1188 42.1008 66.6559 42.2969 67.1024C42.4931 67.549 42.7663 67.892 43.1166 68.1314C43.4739 68.3644 43.8838 68.4809 44.3462 68.4809Z" fill="#16141F"/>
<path d="M51.2631 68.9371C50.7027 68.9371 50.2052 68.798 49.7709 68.5197C49.3365 68.2414 48.9967 67.8467 48.7515 67.3354C48.5063 66.8177 48.3837 66.2029 48.3837 65.491C48.3837 64.7791 48.5063 64.1676 48.7515 63.6563C48.9967 63.1386 49.3365 62.7406 49.7709 62.4623C50.2052 62.1841 50.7027 62.0449 51.2631 62.0449C51.8306 62.0449 52.328 62.1841 52.7554 62.4623C53.1898 62.7406 53.5295 63.1386 53.7748 63.6563C54.02 64.1676 54.1426 64.7791 54.1426 65.491C54.1426 66.2029 54.02 66.8177 53.7748 67.3354C53.5295 67.8467 53.1898 68.2414 52.7554 68.5197C52.328 68.798 51.8306 68.9371 51.2631 68.9371ZM51.2631 68.4809C51.7325 68.4809 52.1424 68.3644 52.4927 68.1314C52.843 67.892 53.1162 67.549 53.3124 67.1024C53.5085 66.6559 53.6066 66.1188 53.6066 65.491C53.6066 64.8568 53.5085 64.3197 53.3124 63.8796C53.1162 63.4331 52.843 63.0933 52.4927 62.8603C52.1424 62.6209 51.7325 62.5012 51.2631 62.5012C50.8007 62.5012 50.3909 62.6209 50.0336 62.8603C49.6833 63.0933 49.4101 63.4331 49.2139 63.8796C49.0177 64.3197 48.9196 64.8568 48.9196 65.491C48.9196 66.1188 49.0177 66.6559 49.2139 67.1024C49.4101 67.549 49.6833 67.892 50.0336 68.1314C50.3909 68.3644 50.8007 68.4809 51.2631 68.4809Z" fill="#16141F"/>
<path d="M58.1801 68.9371C57.6196 68.9371 57.1222 68.798 56.6878 68.5197C56.2535 68.2414 55.9137 67.8467 55.6685 67.3354C55.4233 66.8177 55.3007 66.2029 55.3007 65.491C55.3007 64.7791 55.4233 64.1676 55.6685 63.6563C55.9137 63.1386 56.2535 62.7406 56.6878 62.4623C57.1222 62.1841 57.6196 62.0449 58.1801 62.0449C58.7476 62.0449 59.245 62.1841 59.6724 62.4623C60.1067 62.7406 60.4465 63.1386 60.6917 63.6563C60.9369 64.1676 61.0595 64.7791 61.0595 65.491C61.0595 66.2029 60.9369 66.8177 60.6917 67.3354C60.4465 67.8467 60.1067 68.2414 59.6724 68.5197C59.245 68.798 58.7476 68.9371 58.1801 68.9371ZM58.1801 68.4809C58.6495 68.4809 59.0593 68.3644 59.4096 68.1314C59.7599 67.892 60.0332 67.549 60.2293 67.1024C60.4255 66.6559 60.5236 66.1188 60.5236 65.491C60.5236 64.8568 60.4255 64.3197 60.2293 63.8796C60.0332 63.4331 59.7599 63.0933 59.4096 62.8603C59.0593 62.6209 58.6495 62.5012 58.1801 62.5012C57.7177 62.5012 57.3079 62.6209 56.9506 62.8603C56.6003 63.0933 56.327 63.4331 56.1309 63.8796C55.9347 64.3197 55.8366 64.8568 55.8366 65.491C55.8366 66.1188 55.9347 66.6559 56.1309 67.1024C56.327 67.549 56.6003 67.892 56.9506 68.1314C57.3079 68.3644 57.7177 68.4809 58.1801 68.4809Z" fill="#16141F"/>
<path d="M65.9087 68.9371C65.3483 68.9371 64.8508 68.798 64.4165 68.5197C63.9821 68.2414 63.6423 67.8467 63.3971 67.3354C63.1519 66.8177 63.0293 66.2029 63.0293 65.491C63.0293 64.7791 63.1519 64.1676 63.3971 63.6563C63.6423 63.1386 63.9821 62.7406 64.4165 62.4623C64.8508 62.1841 65.3483 62.0449 65.9087 62.0449C66.4762 62.0449 66.9736 62.1841 67.401 62.4623C67.8354 62.7406 68.1751 63.1386 68.4203 63.6563C68.6656 64.1676 68.7882 64.7791 68.7882 65.491C68.7882 66.2029 68.6656 66.8177 68.4203 67.3354C68.1751 67.8467 67.8354 68.2414 67.401 68.5197C66.9736 68.798 66.4762 68.9371 65.9087 68.9371ZM65.9087 68.4809C66.3781 68.4809 66.788 68.3644 67.1383 68.1314C67.4886 67.892 67.7618 67.549 67.958 67.1024C68.1541 66.6559 68.2522 66.1188 68.2522 65.491C68.2522 64.8568 68.1541 64.3197 67.958 63.8796C67.7618 63.4331 67.4886 63.0933 67.1383 62.8603C66.788 62.6209 66.3781 62.5012 65.9087 62.5012C65.4463 62.5012 65.0365 62.6209 64.6792 62.8603C64.3289 63.0933 64.0557 63.4331 63.8595 63.8796C63.6633 64.3197 63.5652 64.8568 63.5652 65.491C63.5652 66.1188 63.6633 66.6559 63.8595 67.1024C64.0557 67.549 64.3289 67.892 64.6792 68.1314C65.0365 68.3644 65.4463 68.4809 65.9087 68.4809Z" fill="#16141F"/>
<path d="M72.8257 68.9371C72.2652 68.9371 71.7678 68.798 71.3334 68.5197C70.8991 68.2414 70.5593 67.8467 70.3141 67.3354C70.0689 66.8177 69.9463 66.2029 69.9463 65.491C69.9463 64.7791 70.0689 64.1676 70.3141 63.6563C70.5593 63.1386 70.8991 62.7406 71.3334 62.4623C71.7678 62.1841 72.2652 62.0449 72.8257 62.0449C73.3932 62.0449 73.8906 62.1841 74.318 62.4623C74.7523 62.7406 75.0921 63.1386 75.3373 63.6563C75.5825 64.1676 75.7051 64.7791 75.7051 65.491C75.7051 66.2029 75.5825 66.8177 75.3373 67.3354C75.0921 67.8467 74.7523 68.2414 74.318 68.5197C73.8906 68.798 73.3932 68.9371 72.8257 68.9371ZM72.8257 68.4809C73.2951 68.4809 73.7049 68.3644 74.0552 68.1314C74.4055 67.892 74.6788 67.549 74.8749 67.1024C75.0711 66.6559 75.1692 66.1188 75.1692 65.491C75.1692 64.8568 75.0711 64.3197 74.8749 63.8796C74.6788 63.4331 74.4055 63.0933 74.0552 62.8603C73.7049 62.6209 73.2951 62.5012 72.8257 62.5012C72.3633 62.5012 71.9535 62.6209 71.5962 62.8603C71.2459 63.0933 70.9726 63.4331 70.7765 63.8796C70.5803 64.3197 70.4822 64.8568 70.4822 65.491C70.4822 66.1188 70.5803 66.6559 70.7765 67.1024C70.9726 67.549 71.2459 67.892 71.5962 68.1314C71.9535 68.3644 72.3633 68.4809 72.8257 68.4809Z" fill="#16141F"/>
<path d="M79.7427 68.9371C79.1822 68.9371 78.6848 68.798 78.2504 68.5197C77.816 68.2414 77.4763 67.8467 77.2311 67.3354C76.9858 66.8177 76.8632 66.2029 76.8632 65.491C76.8632 64.7791 76.9858 64.1676 77.2311 63.6563C77.4763 63.1386 77.816 62.7406 78.2504 62.4623C78.6848 62.1841 79.1822 62.0449 79.7427 62.0449C80.3102 62.0449 80.8076 62.1841 81.2349 62.4623C81.6693 62.7406 82.0091 63.1386 82.2543 63.6563C82.4995 64.1676 82.6221 64.7791 82.6221 65.491C82.6221 66.2029 82.4995 66.8177 82.2543 67.3354C82.0091 67.8467 81.6693 68.2414 81.2349 68.5197C80.8076 68.798 80.3102 68.9371 79.7427 68.9371ZM79.7427 68.4809C80.2121 68.4809 80.6219 68.3644 80.9722 68.1314C81.3225 67.892 81.5957 67.549 81.7919 67.1024C81.9881 66.6559 82.0862 66.1188 82.0862 65.491C82.0862 64.8568 81.9881 64.3197 81.7919 63.8796C81.5957 63.4331 81.3225 63.0933 80.9722 62.8603C80.6219 62.6209 80.2121 62.5012 79.7427 62.5012C79.2803 62.5012 78.8704 62.6209 78.5131 62.8603C78.1628 63.0933 77.8896 63.4331 77.6934 63.8796C77.4973 64.3197 77.3992 64.8568 77.3992 65.491C77.3992 66.1188 77.4973 66.6559 77.6934 67.1024C77.8896 67.549 78.1628 67.892 78.5131 68.1314C78.8704 68.3644 79.2803 68.4809 79.7427 68.4809Z" fill="#16141F"/>
<path d="M86.6596 68.9371C86.0992 68.9371 85.6018 68.798 85.1674 68.5197C84.733 68.2414 84.3932 67.8467 84.148 67.3354C83.9028 66.8177 83.7802 66.2029 83.7802 65.491C83.7802 64.7791 83.9028 64.1676 84.148 63.6563C84.3932 63.1386 84.733 62.7406 85.1674 62.4623C85.6018 62.1841 86.0992 62.0449 86.6596 62.0449C87.2271 62.0449 87.7245 62.1841 88.1519 62.4623C88.5863 62.7406 88.9261 63.1386 89.1713 63.6563C89.4165 64.1676 89.5391 64.7791 89.5391 65.491C89.5391 66.2029 89.4165 66.8177 89.1713 67.3354C88.9261 67.8467 88.5863 68.2414 88.1519 68.5197C87.7245 68.798 87.2271 68.9371 86.6596 68.9371ZM86.6596 68.4809C87.129 68.4809 87.5389 68.3644 87.8892 68.1314C88.2395 67.892 88.5127 67.549 88.7089 67.1024C88.905 66.6559 89.0031 66.1188 89.0031 65.491C89.0031 64.8568 88.905 64.3197 88.7089 63.8796C88.5127 63.4331 88.2395 63.0933 87.8892 62.8603C87.5389 62.6209 87.129 62.5012 86.6596 62.5012C86.1973 62.5012 85.7874 62.6209 85.4301 62.8603C85.0798 63.0933 84.8066 63.4331 84.6104 63.8796C84.4143 64.3197 84.3162 64.8568 84.3162 65.491C84.3162 66.1188 84.4143 66.6559 84.6104 67.1024C84.8066 67.549 85.0798 67.892 85.4301 68.1314C85.7874 68.3644 86.1973 68.4809 86.6596 68.4809Z" fill="#16141F"/>
<path d="M93.5766 68.9371C93.0162 68.9371 92.5187 68.798 92.0844 68.5197C91.65 68.2414 91.3102 67.8467 91.065 67.3354C90.8198 66.8177 90.6972 66.2029 90.6972 65.491C90.6972 64.7791 90.8198 64.1676 91.065 63.6563C91.3102 63.1386 91.65 62.7406 92.0844 62.4623C92.5187 62.1841 93.0162 62.0449 93.5766 62.0449C94.1441 62.0449 94.6415 62.1841 95.0689 62.4623C95.5033 62.7406 95.843 63.1386 96.0882 63.6563C96.3335 64.1676 96.4561 64.7791 96.4561 65.491C96.4561 66.2029 96.3335 66.8177 96.0882 67.3354C95.843 67.8467 95.5033 68.2414 95.0689 68.5197C94.6415 68.798 94.1441 68.9371 93.5766 68.9371ZM93.5766 68.4809C94.046 68.4809 94.4559 68.3644 94.8062 68.1314C95.1565 67.892 95.4297 67.549 95.6259 67.1024C95.822 66.6559 95.9201 66.1188 95.9201 65.491C95.9201 64.8568 95.822 64.3197 95.6259 63.8796C95.4297 63.4331 95.1565 63.0933 94.8062 62.8603C94.4559 62.6209 94.046 62.5012 93.5766 62.5012C93.1142 62.5012 92.7044 62.6209 92.3471 62.8603C91.9968 63.0933 91.7236 63.4331 91.5274 63.8796C91.3312 64.3197 91.2331 64.8568 91.2331 65.491C91.2331 66.1188 91.3312 66.6559 91.5274 67.1024C91.7236 67.549 91.9968 67.892 92.3471 68.1314C92.7044 68.3644 93.1142 68.4809 93.5766 68.4809Z" fill="#16141F"/>
<path fill-rule="evenodd" clip-rule="evenodd" d="M97.982 67.3354C98.2272 67.8467 98.567 68.2414 99.0013 68.5197L99.4247 68.2264C99.37 68.1972 99.3165 68.1656 99.2641 68.1314C98.9138 67.892 98.6405 67.549 98.4444 67.1024C98.2482 66.6559 98.1501 66.1188 98.1501 65.491C98.1501 64.8568 98.2482 64.3197 98.4444 63.8796C98.6405 63.4331 98.9138 63.0933 99.2641 62.8603C99.6214 62.6209 100.031 62.5012 100.494 62.5012C100.963 62.5012 101.373 62.6209 101.723 62.8603C102.073 63.0933 102.347 63.4331 102.543 63.8796C102.739 64.3197 102.837 64.8568 102.837 65.491C102.837 65.6216 102.833 65.7484 102.824 65.8711L103.373 65.491C103.373 64.7791 103.25 64.1676 103.005 63.6563C102.76 63.1386 102.42 62.7406 101.986 62.4623C101.558 62.1841 101.061 62.0449 100.494 62.0449C99.9331 62.0449 99.4357 62.1841 99.0013 62.4623C98.567 62.7406 98.2272 63.1386 97.982 63.6563C97.7368 64.1676 97.6142 64.7791 97.6142 65.491C97.6142 66.2029 97.7368 66.8177 97.982 67.3354Z" fill="#16141F"/>
</svg>
