<svg width="702" height="1006" viewBox="0 0 702 1006" fill="none" xmlns="http://www.w3.org/2000/svg">
<rect x="150.709" y="0.576616" width="709" height="898" transform="rotate(9.62421 150.709 0.576616)" fill="#E84355" stroke="#16141F"/>
<rect x="180.149" y="54.2541" width="634" height="802" transform="rotate(9.62421 180.149 54.2541)" fill="#FAF9F9" stroke="#16141F"/>
<path d="M359.053 633.253L322.932 484.44C320.966 477.804 323.593 463.292 349.834 458.324C382.635 452.114 454.266 454.629 508.645 485.254C520.593 492.631 542.827 510.028 536.183 520.601C529.539 531.175 458.69 628.389 445.394 647.894C440.381 655.249 450.704 692.314 418.576 726.106C413.58 734.533 410.699 751.524 409.052 761.233L485.337 774.169L494.569 719.729L451.745 712.467L453.744 700.678L460.506 701.824L623.011 729.381L621.012 741.17L521.268 724.256L512.037 778.696L532.148 782.106L529.914 795.283L521.506 844.868L513.531 843.516L511.473 855.652C517.853 856.734 516.92 864.899 515.656 868.847C504.865 873.58 498.908 868.741 497.278 865.73C499.019 855.466 503.537 854.068 505.578 854.652L507.636 842.516L280.862 804.062L278.216 819.665C284.041 820.653 283.044 829.759 281.817 834.188C274.501 836.943 267.211 833.376 264.48 831.248C266.173 821.262 271.338 818.856 273.708 818.901L276.354 803.297L273.58 802.827L281.988 753.242L284.223 740.065L292.891 741.535L293.773 736.334L128.573 708.321L131.043 693.757L345.135 730.061L342.665 744.625L334.343 743.213L333.461 748.415L353.572 751.825C355.867 744.604 359.304 724.759 354.693 703.144C350.082 681.53 355.679 647.544 359.053 633.253Z" fill="#FAF9F9"/>
<path d="M409.052 761.233C410.699 751.524 413.58 734.533 418.576 726.106C450.704 692.314 440.381 655.249 445.394 647.894C458.69 628.389 529.539 531.175 536.183 520.601C542.827 510.028 520.593 492.631 508.645 485.254C454.266 454.629 382.635 452.114 349.834 458.324C323.593 463.292 320.966 477.804 322.932 484.44L359.053 633.253C355.679 647.544 350.082 681.53 354.693 703.144C359.304 724.759 355.867 744.604 353.572 751.825M409.052 761.233L353.572 751.825M409.052 761.233L485.337 774.169L494.569 719.729L451.745 712.467L453.744 700.678L460.506 701.824L623.011 729.381L621.012 741.17L521.268 724.256L512.037 778.696L532.148 782.106L529.914 795.283M353.572 751.825L333.461 748.415L334.343 743.213M334.343 743.213L293.773 736.334M334.343 743.213L342.665 744.625L345.135 730.061L131.043 693.757L128.573 708.321L293.773 736.334M293.773 736.334L292.891 741.535L284.223 740.065L281.988 753.242M281.988 753.242L529.914 795.283M281.988 753.242L273.58 802.827L276.354 803.297M529.914 795.283L521.506 844.868L513.531 843.516M276.354 803.297L273.708 818.901M276.354 803.297L280.862 804.062M273.708 818.901L278.216 819.665M273.708 818.901C271.338 818.856 266.173 821.262 264.48 831.248C267.211 833.376 274.501 836.943 281.817 834.188C283.044 829.759 284.041 820.653 278.216 819.665M278.216 819.665L280.862 804.062M280.862 804.062L507.636 842.516M507.636 842.516L505.578 854.652M507.636 842.516L513.531 843.516M505.578 854.652L511.473 855.652M505.578 854.652C503.537 854.068 499.019 855.466 497.278 865.73C498.908 868.741 504.865 873.58 515.656 868.847C516.92 864.899 517.853 856.734 511.473 855.652M511.473 855.652L513.531 843.516M343.062 481.432L354.254 531.131C368.095 530.148 401.741 529.195 425.597 533.24C449.453 537.286 475.587 548.376 485.672 553.416L517.823 511.067C501.525 502.001 462.131 482.717 434.946 478.107C390.562 470.581 362.363 478.403 343.062 481.432Z" stroke="#16141F" stroke-width="1.09681"/>
<path d="M428.06 515.108L431.496 503.563L434.138 504.011L430.702 515.556L428.06 515.108ZM422.458 511.785L422.886 509.258L434.114 511.162L433.686 513.689L422.458 511.785ZM423.783 514.383L427.219 502.837L429.861 503.285L426.425 514.831L423.783 514.383ZM423.807 507.231L424.236 504.705L435.464 506.609L435.035 509.135L423.807 507.231Z" fill="#16141F"/>
<path d="M357.001 500.205C367.936 497.422 397.922 493.232 430.378 498.736C462.833 504.239 488.985 519.851 498.004 526.969" stroke="#16141F" stroke-width="1.09681"/>
<path d="M358.208 504.509L357.786 502.693L358.125 502.615L359.219 503.776L359.082 503.808L359.571 502.279L359.879 502.207L360.301 504.022L360.003 504.092L359.667 502.646L359.729 502.664L359.277 504.044L359.133 504.077L358.11 503.015L358.172 502.986L358.51 504.439L358.208 504.509Z" fill="#16141F"/>
<path d="M362.117 503.649L362.038 503.263L362.006 503.194L361.872 502.536C361.843 502.396 361.78 502.296 361.682 502.237C361.586 502.175 361.456 502.161 361.293 502.194C361.185 502.216 361.083 502.256 360.987 502.314C360.891 502.37 360.813 502.434 360.754 502.509L360.565 502.289C360.644 502.194 360.745 502.113 360.868 502.048C360.993 501.979 361.128 501.93 361.272 501.901C361.523 501.85 361.728 501.871 361.889 501.965C362.049 502.06 362.155 502.232 362.206 502.482L362.43 503.585L362.117 503.649ZM361.521 503.792C361.386 503.819 361.261 503.821 361.149 503.796C361.038 503.77 360.947 503.723 360.876 503.654C360.804 503.582 360.757 503.495 360.736 503.392C360.716 503.293 360.721 503.199 360.75 503.109C360.782 503.019 360.846 502.939 360.942 502.869C361.04 502.799 361.18 502.745 361.361 502.708L361.94 502.59L361.989 502.828L361.424 502.943C361.258 502.977 361.152 503.027 361.106 503.094C361.06 503.161 361.045 503.233 361.061 503.311C361.079 503.401 361.129 503.466 361.212 503.507C361.294 503.545 361.398 503.551 361.524 503.525C361.648 503.5 361.751 503.451 361.831 503.377C361.914 503.302 361.966 503.208 361.986 503.094L362.097 503.308C362.076 503.425 362.016 503.527 361.919 503.614C361.821 503.698 361.689 503.758 361.521 503.792Z" fill="#16141F"/>
<path d="M364.433 503.208L363.56 502.447L363.802 502.23L364.824 503.136L364.433 503.208ZM363.105 503.453L362.767 501.62L363.099 501.559L363.437 503.392L363.105 503.453ZM363.194 502.636L363.142 502.352L363.747 502.241L363.799 502.524L363.194 502.636ZM363.863 502.405L363.548 502.42L364.081 501.378L364.437 501.312L363.863 502.405Z" fill="#16141F"/>
<path d="M365.921 502.973C365.734 503.005 365.559 502.992 365.397 502.936C365.238 502.88 365.105 502.788 364.998 502.661C364.891 502.534 364.822 502.379 364.791 502.197C364.761 502.014 364.775 501.845 364.834 501.69C364.894 501.535 364.99 501.406 365.122 501.303C365.257 501.197 365.417 501.128 365.605 501.097C365.771 501.069 365.925 501.077 366.066 501.123C366.208 501.165 366.326 501.245 366.42 501.362L366.194 501.568C366.119 501.488 366.034 501.435 365.939 501.408C365.846 501.378 365.75 501.372 365.65 501.389C365.53 501.409 365.427 501.454 365.341 501.523C365.255 501.592 365.193 501.68 365.154 501.786C365.114 501.89 365.106 502.008 365.128 502.14C365.15 502.272 365.197 502.382 365.269 502.469C365.341 502.557 365.429 502.62 365.532 502.657C365.636 502.694 365.748 502.703 365.868 502.682C365.968 502.666 366.057 502.629 366.135 502.573C366.216 502.514 366.278 502.435 366.323 502.335L366.603 502.451C366.553 502.591 366.468 502.706 366.348 502.798C366.23 502.886 366.087 502.945 365.921 502.973Z" fill="#16141F"/>
<path d="M367.403 502.73C367.338 502.74 367.279 502.727 367.226 502.69C367.172 502.651 367.14 502.597 367.129 502.527C367.118 502.458 367.132 502.397 367.172 502.346C367.211 502.295 367.264 502.264 367.328 502.254C367.391 502.244 367.448 502.258 367.499 502.295C367.552 502.332 367.584 502.385 367.595 502.455C367.606 502.524 367.591 502.586 367.552 502.639C367.515 502.69 367.465 502.72 367.403 502.73Z" fill="#16141F"/>
<path d="M370.131 502.299L369.803 499.859L370.898 499.712C371.179 499.674 371.403 499.702 371.569 499.796C371.735 499.887 371.831 500.03 371.857 500.225C371.875 500.358 371.86 500.473 371.812 500.572C371.766 500.671 371.696 500.751 371.603 500.813C371.509 500.875 371.405 500.914 371.288 500.93L371.337 500.817C371.477 500.798 371.603 500.806 371.716 500.84C371.83 500.875 371.924 500.935 372 501.022C372.075 501.107 372.122 501.219 372.141 501.358C372.169 501.567 372.112 501.741 371.969 501.878C371.829 502.013 371.604 502.101 371.295 502.143L370.131 502.299ZM370.442 501.97L371.243 501.862C371.436 501.836 371.579 501.784 371.673 501.705C371.766 501.626 371.804 501.517 371.785 501.378C371.766 501.236 371.701 501.139 371.59 501.088C371.479 501.037 371.327 501.024 371.134 501.05L370.301 501.162L370.263 500.88L371.009 500.779C371.186 500.756 371.318 500.705 371.407 500.626C371.496 500.548 371.532 500.444 371.514 500.314C371.497 500.184 371.435 500.093 371.329 500.041C371.222 499.989 371.081 499.975 370.904 499.998L370.19 500.095L370.442 501.97Z" fill="#16141F"/>
<path d="M372.844 501.941L372.527 499.35L372.862 499.309L373.18 501.899L372.844 501.941Z" fill="#16141F"/>
<path d="M375.297 501.651L375.253 501.259L375.227 501.188L375.151 500.52C375.135 500.378 375.081 500.274 374.988 500.206C374.898 500.136 374.77 500.111 374.605 500.129C374.495 500.142 374.39 500.173 374.289 500.222C374.188 500.268 374.105 500.326 374.04 500.395L373.872 500.159C373.959 500.072 374.066 500 374.194 499.946C374.325 499.888 374.463 499.852 374.61 499.835C374.864 499.806 375.067 499.846 375.218 499.954C375.37 500.061 375.46 500.242 375.489 500.496L375.615 501.615L375.297 501.651ZM374.692 501.741C374.554 501.756 374.43 501.747 374.32 501.712C374.212 501.677 374.126 501.622 374.061 501.547C373.995 501.469 373.957 501.378 373.945 501.273C373.933 501.173 373.946 501.079 373.984 500.992C374.023 500.905 374.094 500.831 374.196 500.77C374.3 500.709 374.444 500.668 374.628 500.647L375.215 500.58L375.242 500.822L374.669 500.887C374.501 500.906 374.392 500.946 374.34 501.009C374.288 501.071 374.266 501.142 374.275 501.221C374.285 501.312 374.33 501.382 374.408 501.429C374.487 501.475 374.59 501.49 374.718 501.476C374.844 501.461 374.95 501.421 375.037 501.355C375.126 501.288 375.186 501.198 375.216 501.087L375.308 501.31C375.276 501.424 375.208 501.52 375.104 501.598C374.999 501.674 374.862 501.721 374.692 501.741Z" fill="#16141F"/>
<path d="M377.338 501.454C377.149 501.474 376.976 501.45 376.818 501.383C376.663 501.317 376.536 501.217 376.437 501.083C376.339 500.949 376.28 500.79 376.262 500.606C376.243 500.421 376.268 500.254 376.338 500.103C376.407 499.952 376.512 499.83 376.651 499.735C376.792 499.639 376.957 499.581 377.145 499.561C377.313 499.544 377.466 499.563 377.604 499.617C377.743 499.669 377.856 499.757 377.941 499.88L377.703 500.07C377.633 499.986 377.551 499.927 377.458 499.894C377.368 499.858 377.272 499.846 377.172 499.856C377.051 499.868 376.945 499.906 376.855 499.969C376.764 500.033 376.696 500.116 376.65 500.22C376.604 500.321 376.588 500.438 376.601 500.571C376.615 500.704 376.654 500.817 376.72 500.909C376.786 501.001 376.87 501.07 376.971 501.113C377.072 501.157 377.183 501.173 377.304 501.161C377.405 501.151 377.496 501.12 377.578 501.069C377.662 501.016 377.73 500.941 377.781 500.844L378.053 500.979C377.994 501.114 377.901 501.224 377.775 501.307C377.652 501.388 377.506 501.437 377.338 501.454Z" fill="#16141F"/>
<path d="M378.619 500.853L378.587 500.422L379.568 499.348L379.974 499.312L379.227 500.191L379.059 500.362L378.619 500.853ZM378.386 501.326L378.153 498.727L378.489 498.697L378.722 501.296L378.386 501.326ZM379.805 501.199L378.995 500.36L379.188 500.071L380.218 501.161L379.805 501.199Z" fill="#16141F"/>
<path d="M414.276 514.951L414.688 512.523L415.36 512.637L416.063 514.387L415.709 514.327L416.921 512.902L417.594 513.016L417.189 515.444L416.443 515.318L416.658 514.013L416.775 514.033L415.946 515.009L415.586 514.948L415.097 513.748L415.243 513.773L415.022 515.077L414.276 514.951ZM418.848 515.783C418.651 515.749 418.474 515.687 418.316 515.596C418.16 515.506 418.03 515.393 417.927 515.259C417.824 515.123 417.751 514.971 417.708 514.805C417.667 514.638 417.662 514.464 417.693 514.281C417.725 514.097 417.787 513.933 417.88 513.792C417.975 513.649 418.094 513.531 418.236 513.439C418.378 513.344 418.537 513.279 418.714 513.245C418.894 513.212 419.082 513.211 419.278 513.245C419.477 513.278 419.654 513.34 419.81 513.431C419.966 513.522 420.095 513.635 420.198 513.772C420.302 513.906 420.374 514.056 420.414 514.222C420.458 514.386 420.464 514.561 420.433 514.746C420.402 514.929 420.338 515.091 420.243 515.235C420.149 515.378 420.032 515.497 419.89 515.592C419.748 515.685 419.588 515.748 419.411 515.782C419.234 515.816 419.046 515.817 418.848 515.783ZM418.96 515.121C419.036 515.133 419.109 515.132 419.179 515.115C419.25 515.098 419.315 515.069 419.372 515.026C419.432 514.982 419.482 514.925 419.522 514.856C419.563 514.784 419.591 514.701 419.607 514.606C419.623 514.511 419.624 514.425 419.609 514.346C419.594 514.265 419.565 514.195 419.523 514.135C419.484 514.074 419.433 514.023 419.37 513.984C419.31 513.946 419.242 513.92 419.166 513.907C419.089 513.894 419.015 513.896 418.944 513.912C418.874 513.929 418.81 513.959 418.75 514.004C418.693 514.047 418.644 514.104 418.603 514.175C418.563 514.245 418.535 514.327 418.518 514.421C418.502 514.516 418.502 514.604 418.517 514.685C418.532 514.764 418.559 514.834 418.599 514.895C418.641 514.955 418.692 515.004 418.752 515.042C418.814 515.082 418.884 515.108 418.96 515.121ZM420.524 516.01L420.935 513.583L421.608 513.697L422.592 515.383L422.28 515.33L422.53 513.853L423.328 513.988L422.916 516.416L422.244 516.302L421.26 514.615L421.572 514.668L421.321 516.145L420.524 516.01ZM423.838 516.572L424.142 514.779L423.431 514.659L423.538 514.024L425.778 514.404L425.671 515.038L424.96 514.918L424.656 516.711L423.838 516.572ZM426.475 517.076C426.272 517.042 426.079 516.985 425.897 516.907C425.716 516.828 425.57 516.742 425.46 516.647L425.824 516.095C425.929 516.182 426.048 516.258 426.182 516.324C426.318 516.387 426.454 516.43 426.588 516.453C426.666 516.467 426.728 516.472 426.774 516.47C426.822 516.467 426.858 516.457 426.882 516.442C426.906 516.425 426.921 516.403 426.926 516.375C426.933 516.331 426.915 516.292 426.87 516.259C426.826 516.225 426.765 516.193 426.687 516.163C426.611 516.131 426.528 516.098 426.436 516.064C426.345 516.027 426.254 515.984 426.162 515.935C426.073 515.887 425.992 515.829 425.92 515.762C425.851 515.696 425.799 515.615 425.765 515.522C425.731 515.426 425.725 515.313 425.747 515.183C425.773 515.033 425.837 514.904 425.941 514.795C426.048 514.685 426.191 514.607 426.37 514.561C426.551 514.516 426.767 514.514 427.016 514.557C427.18 514.585 427.339 514.629 427.493 514.691C427.647 514.753 427.781 514.83 427.896 514.924L427.549 515.475C427.439 515.394 427.33 515.329 427.222 515.28C427.116 515.231 427.01 515.198 426.904 515.18C426.825 515.166 426.761 515.163 426.713 515.169C426.664 515.175 426.628 515.188 426.603 515.207C426.58 515.227 426.567 515.251 426.562 515.279C426.555 515.32 426.574 515.358 426.618 515.392C426.663 515.423 426.723 515.454 426.799 515.483C426.877 515.513 426.962 515.545 427.053 515.58C427.147 515.615 427.239 515.656 427.328 515.705C427.418 515.753 427.497 515.811 427.567 515.877C427.638 515.944 427.691 516.024 427.725 516.118C427.759 516.212 427.766 516.322 427.744 516.45C427.719 516.597 427.653 516.727 427.546 516.837C427.442 516.945 427.301 517.024 427.121 517.072C426.942 517.117 426.727 517.119 426.475 517.076ZM428.866 515.855L429.948 516.038L429.848 516.628L428.766 516.444L428.866 515.855ZM428.767 516.773L429.981 516.979L429.876 517.596L427.858 517.254L428.27 514.826L430.243 515.161L430.138 515.778L428.97 515.58L428.767 516.773ZM430.191 517.649L430.603 515.222L431.772 515.42C431.998 515.459 432.187 515.529 432.339 515.631C432.493 515.733 432.603 515.861 432.67 516.015C432.737 516.166 432.754 516.336 432.722 516.523C432.691 516.71 432.618 516.865 432.505 516.986C432.392 517.105 432.246 517.186 432.068 517.229C431.891 517.273 431.69 517.276 431.463 517.237L430.749 517.116L431.17 516.841L431.01 517.788L430.191 517.649ZM431.644 517.896L431.198 516.91L432.065 517.057L432.518 518.044L431.644 517.896ZM431.155 516.932L430.854 516.499L431.516 516.611C431.629 516.63 431.717 516.619 431.779 516.577C431.843 516.536 431.882 516.471 431.897 516.383C431.912 516.295 431.896 516.221 431.849 516.161C431.805 516.101 431.726 516.062 431.613 516.042L430.95 515.93L431.377 515.621L431.155 516.932ZM432.775 518.087L433.187 515.66L434.355 515.858C434.582 515.897 434.771 515.967 434.922 516.069C435.076 516.171 435.187 516.299 435.253 516.453C435.32 516.605 435.338 516.774 435.306 516.961C435.274 517.149 435.202 517.303 435.089 517.424C434.976 517.543 434.83 517.624 434.651 517.667C434.475 517.711 434.274 517.714 434.047 517.675L433.333 517.554L433.754 517.28L433.593 518.226L432.775 518.087ZM434.228 518.334L433.782 517.348L434.648 517.495L435.102 518.482L434.228 518.334ZM433.739 517.37L433.438 516.937L434.1 517.049C434.213 517.068 434.301 517.057 434.362 517.015C434.426 516.974 434.466 516.909 434.481 516.821C434.496 516.734 434.48 516.659 434.433 516.599C434.388 516.539 434.309 516.5 434.196 516.481L433.534 516.368L433.961 516.059L433.739 517.37ZM435.095 518.481L436.568 516.234L437.372 516.37L438.022 518.977L437.176 518.834L436.738 516.662L437.057 516.716L435.927 518.622L435.095 518.481ZM435.798 518.165L436.106 517.611L437.223 517.8L437.331 518.425L435.798 518.165ZM438.558 519.068L438.862 517.275L438.151 517.155L438.258 516.52L440.498 516.9L440.391 517.535L439.68 517.414L439.376 519.207L438.558 519.068Z" fill="#16141F"/>
<path d="M410.798 517.325L412.05 517.538L412 517.836L410.748 517.624L410.798 517.325ZM410.616 518.611L410.269 518.552L410.681 516.125L412.394 516.415L412.343 516.717L410.976 516.485L410.616 518.611ZM412.388 518.911L412.7 517.073L413.019 517.128L412.934 517.627L412.924 517.497C412.996 517.378 413.098 517.296 413.23 517.249C413.361 517.202 413.515 517.194 413.691 517.224L413.636 517.546C413.623 517.542 413.609 517.538 413.595 517.536C413.583 517.534 413.572 517.532 413.56 517.53C413.382 517.5 413.232 517.529 413.11 517.618C412.988 517.706 412.91 517.851 412.876 518.052L412.721 518.968L412.388 518.911ZM414.553 519.3C414.368 519.268 414.211 519.2 414.081 519.095C413.952 518.99 413.857 518.86 413.798 518.704C413.739 518.547 413.725 518.378 413.755 518.198C413.786 518.015 413.855 517.86 413.963 517.734C414.07 517.607 414.202 517.516 414.358 517.462C414.515 517.405 414.686 517.393 414.871 517.424C415.054 517.455 415.21 517.523 415.34 517.628C415.472 517.731 415.566 517.86 415.623 518.015C415.683 518.168 415.697 518.337 415.666 518.522C415.635 518.704 415.566 518.859 415.459 518.986C415.354 519.113 415.222 519.205 415.063 519.261C414.906 519.318 414.736 519.331 414.553 519.3ZM414.602 519.009C414.72 519.029 414.83 519.02 414.932 518.982C415.035 518.945 415.122 518.883 415.192 518.795C415.262 518.704 415.308 518.594 415.33 518.465C415.352 518.333 415.345 518.215 415.308 518.111C415.271 518.005 415.21 517.918 415.124 517.848C415.04 517.78 414.94 517.735 414.822 517.715C414.704 517.695 414.594 517.704 414.493 517.741C414.391 517.779 414.305 517.841 414.233 517.929C414.161 518.015 414.114 518.123 414.092 518.255C414.07 518.384 414.078 518.503 414.117 518.612C414.156 518.719 414.217 518.806 414.3 518.875C414.384 518.944 414.485 518.989 414.602 519.009ZM418.584 518.053C418.732 518.079 418.858 518.13 418.961 518.207C419.065 518.284 419.138 518.386 419.18 518.515C419.225 518.644 419.232 518.798 419.201 518.979L419.022 520.036L418.689 519.98L418.862 518.96C418.892 518.782 418.873 518.641 418.805 518.537C418.737 518.433 418.628 518.368 418.478 518.342C418.367 518.323 418.266 518.33 418.175 518.362C418.084 518.394 418.008 518.452 417.946 518.534C417.887 518.617 417.846 518.725 417.823 518.859L417.663 519.806L417.33 519.749L417.503 518.73C417.533 518.552 417.514 518.411 417.446 518.306C417.38 518.203 417.271 518.138 417.119 518.112C417.01 518.093 416.91 518.1 416.819 518.132C416.728 518.164 416.652 518.222 416.59 518.304C416.529 518.386 416.487 518.495 416.464 518.629L416.303 519.575L415.971 519.519L416.282 517.681L416.601 517.735L416.518 518.224L416.487 518.09C416.566 517.98 416.67 517.901 416.802 517.855C416.934 517.808 417.079 517.798 417.239 517.825C417.414 517.855 417.558 517.925 417.671 518.034C417.783 518.141 417.844 518.286 417.854 518.468L417.728 518.39C417.807 518.258 417.924 518.161 418.077 518.099C418.23 518.037 418.399 518.022 418.584 518.053ZM421.096 520.388L421.457 518.262L420.624 518.121L420.676 517.82L422.683 518.16L422.632 518.462L421.8 518.321L421.439 520.446L421.096 520.388ZM423.897 518.954C424.047 518.98 424.174 519.031 424.277 519.108C424.383 519.185 424.458 519.289 424.503 519.417C424.548 519.546 424.555 519.701 424.524 519.881L424.345 520.939L424.012 520.882L424.185 519.863C424.215 519.685 424.194 519.543 424.121 519.438C424.051 519.334 423.937 519.268 423.78 519.241C423.662 519.221 423.556 519.227 423.46 519.258C423.364 519.29 423.284 519.346 423.221 519.428C423.159 519.511 423.117 519.619 423.094 519.753L422.934 520.7L422.601 520.643L423.037 518.07L423.37 518.127L423.161 519.358L423.118 519.215C423.198 519.105 423.306 519.027 423.443 518.981C423.579 518.935 423.73 518.926 423.897 518.954ZM424.961 521.043L425.273 519.206L425.605 519.262L425.294 521.1L424.961 521.043ZM425.499 518.88C425.434 518.869 425.383 518.839 425.347 518.79C425.312 518.741 425.3 518.687 425.31 518.627C425.321 518.564 425.35 518.516 425.399 518.481C425.45 518.447 425.508 518.436 425.573 518.447C425.637 518.458 425.687 518.487 425.721 518.536C425.759 518.583 425.772 518.636 425.762 518.696C425.751 518.759 425.722 518.808 425.673 518.845C425.624 518.88 425.566 518.891 425.499 518.88ZM427.225 519.519C427.376 519.544 427.502 519.596 427.606 519.673C427.712 519.75 427.787 519.853 427.832 519.982C427.876 520.111 427.883 520.265 427.853 520.446L427.674 521.503L427.341 521.447L427.514 520.427C427.544 520.249 427.523 520.108 427.45 520.003C427.38 519.898 427.266 519.832 427.109 519.806C426.991 519.786 426.884 519.792 426.788 519.823C426.693 519.854 426.613 519.911 426.549 519.993C426.488 520.075 426.446 520.183 426.423 520.317L426.262 521.264L425.929 521.208L426.241 519.37L426.56 519.424L426.476 519.92L426.446 519.779C426.527 519.669 426.635 519.591 426.771 519.545C426.908 519.499 427.059 519.491 427.225 519.519ZM429.848 521.893C429.663 521.862 429.529 521.788 429.444 521.671C429.359 521.555 429.332 521.404 429.363 521.219L429.649 519.534L429.982 519.59L429.699 521.262C429.682 521.361 429.693 521.441 429.733 521.503C429.775 521.565 429.842 521.603 429.934 521.619C430.038 521.637 430.13 521.623 430.209 521.576L430.272 521.833C430.214 521.869 430.147 521.891 430.072 521.899C429.999 521.908 429.925 521.906 429.848 521.893ZM429.222 520.157L429.269 519.883L430.441 520.082L430.394 520.356L429.222 520.157ZM431.379 522.153C431.194 522.122 431.037 522.053 430.907 521.948C430.778 521.843 430.683 521.713 430.624 521.558C430.565 521.4 430.551 521.231 430.582 521.051C430.613 520.868 430.682 520.714 430.789 520.587C430.896 520.46 431.028 520.369 431.184 520.315C431.341 520.258 431.512 520.246 431.697 520.277C431.88 520.308 432.036 520.376 432.166 520.481C432.298 520.585 432.393 520.714 432.45 520.868C432.509 521.021 432.523 521.19 432.492 521.375C432.461 521.558 432.392 521.712 432.285 521.839C432.18 521.967 432.048 522.058 431.889 522.115C431.732 522.171 431.562 522.184 431.379 522.153ZM431.429 521.862C431.547 521.882 431.656 521.873 431.758 521.836C431.861 521.798 431.948 521.736 432.018 521.648C432.088 521.557 432.134 521.447 432.156 521.318C432.178 521.186 432.171 521.068 432.134 520.965C432.097 520.859 432.036 520.771 431.95 520.702C431.867 520.633 431.766 520.588 431.648 520.568C431.53 520.548 431.42 520.557 431.319 520.595C431.217 520.632 431.131 520.695 431.059 520.782C430.987 520.868 430.94 520.976 430.918 521.108C430.896 521.238 430.904 521.357 430.943 521.465C430.982 521.572 431.043 521.66 431.127 521.729C431.21 521.797 431.311 521.842 431.429 521.862ZM433.776 522.538L434.188 520.111L435.277 520.296C435.557 520.343 435.762 520.436 435.893 520.575C436.024 520.711 436.074 520.877 436.041 521.071C436.018 521.202 435.97 521.308 435.894 521.388C435.821 521.469 435.731 521.525 435.623 521.556C435.515 521.588 435.404 521.594 435.288 521.575L435.368 521.481C435.507 521.505 435.625 521.55 435.724 521.616C435.822 521.683 435.894 521.769 435.94 521.874C435.987 521.977 435.999 522.098 435.975 522.237C435.94 522.445 435.834 522.593 435.657 522.682C435.483 522.769 435.242 522.787 434.935 522.735L433.776 522.538ZM434.171 522.316L434.968 522.451C435.16 522.484 435.312 522.476 435.425 522.429C435.538 522.381 435.606 522.288 435.629 522.15C435.653 522.009 435.62 521.897 435.529 521.815C435.439 521.733 435.297 521.676 435.105 521.643L434.277 521.503L434.324 521.222L435.066 521.348C435.242 521.378 435.384 521.368 435.492 521.32C435.6 521.272 435.665 521.183 435.687 521.054C435.709 520.924 435.677 520.819 435.591 520.738C435.505 520.656 435.374 520.601 435.198 520.571L434.487 520.451L434.171 522.316ZM436.352 522.975L436.789 520.402L437.121 520.458L436.685 523.031L436.352 522.975ZM438.461 523.333L438.527 522.944L438.522 522.868L438.635 522.206C438.659 522.065 438.635 521.949 438.565 521.859C438.498 521.767 438.382 521.707 438.218 521.679C438.109 521.66 437.999 521.661 437.889 521.68C437.779 521.697 437.683 521.73 437.601 521.778L437.505 521.505C437.613 521.444 437.736 521.406 437.874 521.389C438.015 521.37 438.159 521.373 438.304 521.398C438.556 521.44 438.74 521.534 438.856 521.68C438.971 521.826 439.008 522.025 438.965 522.277L438.777 523.386L438.461 523.333ZM437.855 523.251C437.718 523.228 437.602 523.184 437.506 523.121C437.412 523.057 437.344 522.98 437.302 522.89C437.261 522.797 437.249 522.699 437.267 522.595C437.284 522.496 437.322 522.409 437.382 522.336C437.444 522.264 437.533 522.212 437.647 522.181C437.764 522.151 437.914 522.152 438.096 522.183L438.679 522.281L438.638 522.521L438.07 522.424C437.903 522.396 437.786 522.405 437.719 522.45C437.652 522.496 437.612 522.558 437.598 522.637C437.583 522.727 437.607 522.806 437.669 522.874C437.732 522.939 437.826 522.982 437.954 523.004C438.078 523.025 438.192 523.016 438.294 522.976C438.398 522.937 438.48 522.867 438.539 522.768L438.566 523.008C438.504 523.109 438.412 523.183 438.29 523.229C438.169 523.272 438.023 523.28 437.855 523.251ZM440.191 523.647C440.003 523.615 439.843 523.547 439.708 523.441C439.576 523.335 439.481 523.205 439.421 523.049C439.362 522.894 439.348 522.725 439.379 522.543C439.41 522.36 439.479 522.205 439.586 522.079C439.693 521.952 439.826 521.861 439.985 521.807C440.147 521.752 440.321 521.74 440.509 521.771C440.675 521.8 440.817 521.858 440.935 521.947C441.056 522.034 441.141 522.149 441.191 522.29L440.91 522.41C440.866 522.31 440.803 522.231 440.722 522.175C440.644 522.116 440.555 522.079 440.456 522.062C440.336 522.042 440.224 522.05 440.12 522.087C440.016 522.124 439.928 522.187 439.856 522.274C439.785 522.36 439.738 522.468 439.715 522.6C439.693 522.732 439.701 522.851 439.74 522.957C439.779 523.064 439.842 523.152 439.927 523.221C440.013 523.29 440.116 523.335 440.236 523.355C440.336 523.372 440.432 523.367 440.524 523.34C440.62 523.311 440.705 523.256 440.78 523.176L441.007 523.379C440.913 523.494 440.795 523.575 440.651 523.622C440.511 523.667 440.357 523.675 440.191 523.647ZM441.696 523.424L441.775 522.999L442.997 522.211L443.399 522.279L442.453 522.939L442.246 523.061L441.696 523.424ZM441.35 523.822L441.787 521.25L442.119 521.306L441.683 523.879L441.35 523.822ZM442.755 524.061L442.185 523.044L442.445 522.813L443.164 524.13L442.755 524.061Z" fill="#16141F"/>
<path d="M357.752 489.887L357.241 487.876L356.45 488.077L356.354 487.702L358.379 487.187L358.474 487.562L357.684 487.763L358.195 489.774L357.752 489.887Z" fill="#16141F"/>
<path d="M360.663 487.301C360.809 487.269 360.946 487.27 361.073 487.303C361.202 487.335 361.313 487.404 361.405 487.509C361.497 487.611 361.562 487.755 361.602 487.941L361.828 488.993L361.398 489.086L361.184 488.088C361.149 487.926 361.084 487.812 360.989 487.749C360.896 487.685 360.781 487.668 360.643 487.697C360.543 487.719 360.458 487.759 360.389 487.817C360.319 487.875 360.272 487.95 360.246 488.041C360.222 488.13 360.223 488.237 360.25 488.361L360.449 489.289L360.019 489.381L359.472 486.83L359.902 486.738L360.161 487.948L360.036 487.817C360.075 487.686 360.149 487.577 360.257 487.489C360.367 487.398 360.502 487.335 360.663 487.301Z" fill="#16141F"/>
<path d="M362.791 488.833L362.445 486.987L362.877 486.906L363.223 488.752L362.791 488.833ZM362.606 486.642C362.526 486.657 362.454 486.644 362.391 486.603C362.331 486.562 362.294 486.506 362.281 486.434C362.267 486.361 362.281 486.295 362.323 486.237C362.366 486.176 362.428 486.138 362.509 486.123C362.59 486.108 362.66 486.12 362.72 486.159C362.781 486.195 362.819 486.249 362.832 486.32C362.846 486.396 362.833 486.466 362.792 486.528C362.751 486.588 362.689 486.626 362.606 486.642Z" fill="#16141F"/>
<path d="M364.94 486.521C365.088 486.495 365.225 486.501 365.35 486.538C365.478 486.575 365.586 486.648 365.674 486.756C365.762 486.862 365.822 487.009 365.855 487.196L366.042 488.256L365.609 488.332L365.432 487.327C365.403 487.163 365.342 487.048 365.25 486.981C365.159 486.914 365.045 486.892 364.906 486.916C364.805 486.934 364.718 486.971 364.647 487.026C364.576 487.082 364.526 487.155 364.496 487.246C364.469 487.334 364.466 487.44 364.488 487.565L364.653 488.5L364.22 488.576L363.894 486.727L364.307 486.654L364.394 487.153L364.295 487.013C364.339 486.884 364.416 486.778 364.528 486.694C364.641 486.607 364.779 486.55 364.94 486.521Z" fill="#16141F"/>
<path d="M368.574 486.431L369.785 486.253L369.84 486.625L368.629 486.803L368.574 486.431ZM368.762 487.47L370.137 487.267L370.193 487.647L368.366 487.916L368.007 485.48L369.785 485.218L369.841 485.598L368.515 485.793L368.762 487.47Z" fill="#16141F"/>
<path d="M370.984 487.555L371.665 486.381L371.689 486.616L370.773 485.689L371.258 485.626L371.901 486.287L371.716 486.311L372.172 485.507L372.643 485.445L371.989 486.577L371.962 486.343L372.917 487.304L372.425 487.368L371.748 486.665L371.933 486.666L371.466 487.492L370.984 487.555Z" fill="#16141F"/>
<path d="M374.075 487.202C373.87 487.226 373.705 487.193 373.581 487.101C373.457 487.007 373.382 486.857 373.358 486.649L373.16 484.976L373.596 484.925L373.793 486.587C373.804 486.676 373.834 486.742 373.884 486.785C373.936 486.829 374.003 486.846 374.085 486.836C374.182 486.824 374.261 486.789 374.32 486.73L374.479 487.027C374.433 487.075 374.374 487.114 374.302 487.143C374.23 487.173 374.154 487.193 374.075 487.202ZM372.944 485.788L372.903 485.439L374.146 485.292L374.188 485.641L372.944 485.788Z" fill="#16141F"/>
<path d="M375.363 487.038L375.162 485.171L375.578 485.126L375.634 485.64L375.568 485.495C375.611 485.363 375.688 485.258 375.8 485.18C375.914 485.102 376.061 485.053 376.24 485.034L376.285 485.45C376.266 485.447 376.248 485.447 376.232 485.448C376.215 485.448 376.199 485.448 376.183 485.45C376.017 485.468 375.891 485.531 375.803 485.64C375.716 485.746 375.682 485.894 375.703 486.085L375.8 486.991L375.363 487.038Z" fill="#16141F"/>
<path d="M378.654 486.711L378.617 486.333L378.585 486.255L378.521 485.593C378.509 485.465 378.46 485.369 378.377 485.307C378.293 485.242 378.173 485.217 378.016 485.232C377.911 485.242 377.809 485.268 377.709 485.311C377.612 485.353 377.531 485.407 377.467 485.472L377.265 485.17C377.358 485.084 377.471 485.015 377.605 484.964C377.741 484.911 377.884 484.877 378.034 484.863C378.304 484.837 378.519 484.882 378.679 484.998C378.841 485.112 378.935 485.305 378.961 485.575L379.067 486.671L378.654 486.711ZM378.068 486.792C377.928 486.806 377.803 486.794 377.694 486.758C377.584 486.719 377.496 486.66 377.429 486.582C377.365 486.501 377.327 486.407 377.317 486.299C377.307 486.194 377.322 486.097 377.363 486.009C377.406 485.92 377.483 485.845 377.593 485.785C377.702 485.725 377.852 485.686 378.041 485.668L378.583 485.615L378.611 485.906L378.1 485.955C377.951 485.97 377.853 486.004 377.806 486.058C377.759 486.109 377.739 486.17 377.746 486.24C377.754 486.32 377.791 486.38 377.859 486.42C377.926 486.461 378.016 486.476 378.128 486.465C378.235 486.455 378.329 486.421 378.408 486.364C378.49 486.306 378.545 486.228 378.573 486.129L378.672 486.384C378.64 486.498 378.572 486.59 378.469 486.662C378.367 486.733 378.234 486.776 378.068 486.792Z" fill="#16141F"/>
<path d="M380.503 486.557L380.301 484.104L380.756 484.066L380.927 486.134L382.209 486.029L382.241 486.414L380.503 486.557Z" fill="#16141F"/>
<path d="M382.568 486.401L382.433 484.528L382.872 484.497L383.007 486.37L382.568 486.401ZM382.632 484.204C382.55 484.209 382.48 484.189 382.423 484.141C382.368 484.093 382.338 484.033 382.332 483.961C382.327 483.886 382.348 483.822 382.396 483.769C382.446 483.714 382.512 483.683 382.594 483.677C382.676 483.671 382.744 483.691 382.799 483.737C382.856 483.779 382.888 483.837 382.893 483.91C382.898 483.987 382.877 484.054 382.83 484.112C382.782 484.167 382.716 484.197 382.632 484.204Z" fill="#16141F"/>
<path d="M384.93 486.953C384.757 486.964 384.586 486.952 384.417 486.916C384.25 486.882 384.111 486.825 384 486.745L384.176 486.403C384.262 486.465 384.368 486.512 384.495 486.544C384.624 486.578 384.753 486.591 384.882 486.582C385.087 486.569 385.235 486.511 385.325 486.409C385.415 486.309 385.453 486.164 385.441 485.975L385.419 485.641L385.427 485.214L385.385 484.791L385.355 484.334L385.773 484.307L385.877 485.897C385.899 486.236 385.828 486.491 385.666 486.662C385.503 486.834 385.258 486.931 384.93 486.953ZM384.823 486.167C384.645 486.178 384.481 486.151 384.331 486.086C384.183 486.018 384.063 485.919 383.97 485.789C383.879 485.658 383.828 485.502 383.816 485.319C383.804 485.139 383.835 484.979 383.908 484.838C383.983 484.696 384.09 484.584 384.228 484.5C384.368 484.415 384.527 484.367 384.705 484.356C384.864 484.345 385.009 484.368 385.139 484.423C385.27 484.478 385.377 484.569 385.46 484.698C385.546 484.826 385.596 484.994 385.609 485.203C385.623 485.411 385.595 485.585 385.527 485.726C385.461 485.864 385.367 485.97 385.245 486.044C385.123 486.115 384.982 486.156 384.823 486.167ZM384.865 485.79C384.975 485.783 385.072 485.754 385.156 485.704C385.239 485.652 385.302 485.584 385.343 485.502C385.387 485.417 385.406 485.322 385.399 485.216C385.392 485.111 385.361 485.02 385.307 484.944C385.255 484.865 385.184 484.807 385.095 484.771C385.005 484.732 384.906 484.716 384.796 484.723C384.686 484.731 384.588 484.759 384.502 484.809C384.418 484.857 384.354 484.924 384.31 485.009C384.269 485.091 384.251 485.185 384.258 485.291C384.265 485.396 384.294 485.488 384.347 485.567C384.401 485.643 384.473 485.702 384.563 485.743C384.654 485.782 384.755 485.797 384.865 485.79Z" fill="#16141F"/>
<path d="M387.707 484.196C387.857 484.188 387.992 484.21 388.112 484.263C388.234 484.315 388.333 484.4 388.407 484.518C388.481 484.634 388.523 484.787 388.533 484.977L388.589 486.051L388.15 486.074L388.097 485.056C388.088 484.889 388.042 484.767 387.958 484.69C387.876 484.612 387.765 484.576 387.625 484.584C387.522 484.589 387.432 484.615 387.354 484.661C387.277 484.708 387.218 484.774 387.178 484.861C387.14 484.945 387.125 485.05 387.131 485.176L387.181 486.125L386.742 486.148L386.606 483.542L387.045 483.519L387.109 484.755L387.006 484.605C387.066 484.483 387.156 484.386 387.276 484.317C387.4 484.244 387.543 484.204 387.707 484.196Z" fill="#16141F"/>
<path d="M390.316 486.017C390.11 486.025 389.948 485.978 389.832 485.877C389.715 485.774 389.653 485.618 389.644 485.409L389.579 483.726L390.018 483.709L390.083 485.382C390.087 485.471 390.112 485.539 390.158 485.587C390.207 485.634 390.272 485.656 390.354 485.653C390.453 485.649 390.534 485.62 390.597 485.566L390.732 485.874C390.683 485.918 390.621 485.952 390.546 485.976C390.472 486 390.395 486.014 390.316 486.017ZM389.3 484.518L389.286 484.167L390.538 484.118L390.551 484.47L389.3 484.518Z" fill="#16141F"/>
<path d="M393.151 485.914L393.096 483.453L393.553 483.443L393.6 485.517L394.886 485.488L394.895 485.875L393.151 485.914Z" fill="#16141F"/>
<path d="M395.388 485.878L395.365 484L395.805 483.995L395.828 485.872L395.388 485.878ZM395.583 483.688C395.501 483.689 395.432 483.664 395.378 483.613C395.326 483.562 395.299 483.5 395.298 483.427C395.297 483.352 395.322 483.29 395.373 483.24C395.426 483.188 395.494 483.161 395.576 483.16C395.658 483.159 395.725 483.183 395.778 483.232C395.832 483.278 395.86 483.337 395.861 483.41C395.862 483.487 395.837 483.553 395.786 483.608C395.735 483.66 395.667 483.687 395.583 483.688Z" fill="#16141F"/>
<path d="M397.669 486.569C397.496 486.57 397.325 486.548 397.159 486.502C396.994 486.458 396.859 486.393 396.753 486.307L396.948 485.976C397.031 486.043 397.134 486.096 397.258 486.135C397.385 486.177 397.513 486.197 397.642 486.197C397.849 486.195 397.999 486.146 398.095 486.05C398.191 485.955 398.238 485.813 398.237 485.623L398.235 485.289L398.267 484.863L398.251 484.438L398.248 483.981L398.667 483.978L398.676 485.571C398.678 485.911 398.593 486.162 398.42 486.322C398.248 486.485 397.997 486.567 397.669 486.569ZM397.608 485.778C397.43 485.779 397.268 485.743 397.122 485.669C396.979 485.592 396.864 485.486 396.779 485.35C396.696 485.215 396.654 485.056 396.653 484.873C396.652 484.692 396.692 484.534 396.774 484.397C396.857 484.261 396.97 484.155 397.113 484.079C397.258 484.003 397.419 483.965 397.597 483.963C397.757 483.963 397.9 483.993 398.027 484.056C398.154 484.118 398.255 484.216 398.331 484.35C398.409 484.483 398.449 484.654 398.45 484.862C398.452 485.071 398.414 485.244 398.337 485.38C398.263 485.514 398.163 485.614 398.037 485.681C397.91 485.745 397.768 485.777 397.608 485.778ZM397.673 485.405C397.783 485.404 397.881 485.382 397.968 485.336C398.054 485.289 398.121 485.225 398.167 485.145C398.216 485.063 398.24 484.969 398.239 484.864C398.239 484.758 398.214 484.666 398.164 484.586C398.116 484.504 398.049 484.443 397.962 484.401C397.875 484.357 397.777 484.335 397.666 484.336C397.556 484.337 397.457 484.359 397.368 484.404C397.281 484.447 397.214 484.51 397.165 484.592C397.119 484.672 397.096 484.765 397.096 484.87C397.097 484.976 397.121 485.069 397.168 485.151C397.218 485.231 397.286 485.294 397.373 485.34C397.463 485.384 397.563 485.406 397.673 485.405Z" fill="#16141F"/>
<path d="M400.417 483.979C400.567 483.98 400.7 484.01 400.817 484.069C400.936 484.129 401.029 484.219 401.097 484.342C401.164 484.462 401.197 484.617 401.195 484.807L401.188 485.883L400.749 485.88L400.755 484.86C400.757 484.694 400.718 484.569 400.638 484.487C400.562 484.404 400.453 484.362 400.312 484.361C400.209 484.361 400.117 484.381 400.037 484.423C399.957 484.464 399.895 484.527 399.85 484.611C399.807 484.693 399.785 484.797 399.784 484.924L399.778 485.874L399.339 485.871L399.356 483.261L399.795 483.264L399.787 484.502L399.693 484.347C399.76 484.228 399.855 484.137 399.98 484.074C400.107 484.009 400.252 483.978 400.417 483.979Z" fill="#16141F"/>
<path d="M403.082 485.953C402.875 485.948 402.717 485.892 402.607 485.785C402.496 485.674 402.443 485.515 402.448 485.306L402.482 483.622L402.921 483.631L402.887 485.305C402.885 485.394 402.906 485.464 402.95 485.514C402.996 485.564 403.06 485.59 403.142 485.591C403.24 485.593 403.323 485.569 403.389 485.519L403.506 485.834C403.454 485.876 403.39 485.906 403.314 485.926C403.239 485.945 403.161 485.954 403.082 485.953ZM402.156 484.396L402.164 484.045L403.415 484.07L403.408 484.422L402.156 484.396Z" fill="#16141F"/>
<path d="M405.714 486.012L405.804 483.551L406.816 483.588C407.034 483.596 407.219 483.638 407.371 483.714C407.526 483.79 407.643 483.895 407.722 484.03C407.802 484.164 407.838 484.321 407.832 484.502C407.825 484.682 407.777 484.836 407.688 484.964C407.599 485.09 407.475 485.185 407.315 485.25C407.158 485.312 406.971 485.339 406.753 485.332L405.994 485.304L406.205 485.104L406.171 486.028L405.714 486.012ZM407.324 486.07L406.735 485.155L407.223 485.173L407.816 486.088L407.324 486.07ZM406.203 485.153L406.007 484.928L406.745 484.955C406.947 484.962 407.1 484.924 407.204 484.841C407.31 484.758 407.366 484.639 407.371 484.485C407.377 484.328 407.33 484.205 407.23 484.117C407.132 484.029 406.983 483.981 406.781 483.974L406.043 483.947L406.255 483.73L406.203 485.153Z" fill="#16141F"/>
<path d="M409.366 486.201C409.158 486.19 408.977 486.14 408.824 486.051C408.674 485.959 408.559 485.838 408.48 485.688C408.403 485.539 408.369 485.372 408.378 485.187C408.387 484.999 408.437 484.836 408.526 484.698C408.617 484.557 408.738 484.449 408.887 484.374C409.039 484.299 409.208 484.267 409.395 484.276C409.578 484.285 409.739 484.333 409.878 484.42C410.017 484.507 410.123 484.625 410.198 484.774C410.273 484.923 410.305 485.096 410.295 485.293C410.294 485.312 410.292 485.333 410.289 485.356C410.287 485.38 410.285 485.402 410.282 485.423L408.719 485.345L408.733 485.053L410.065 485.12L409.888 485.202C409.896 485.095 409.878 484.999 409.835 484.914C409.793 484.83 409.731 484.762 409.652 484.712C409.575 484.661 409.483 484.633 409.378 484.627C409.27 484.622 409.174 484.641 409.09 484.683C409.008 484.726 408.941 484.789 408.89 484.871C408.842 484.95 408.815 485.046 408.809 485.159L408.805 485.229C408.8 485.342 408.821 485.442 408.868 485.532C408.915 485.621 408.984 485.691 409.076 485.743C409.167 485.794 409.273 485.823 409.395 485.829C409.501 485.834 409.596 485.823 409.682 485.794C409.768 485.766 409.846 485.718 409.915 485.651L410.137 485.933C410.047 486.027 409.937 486.098 409.806 486.145C409.676 486.191 409.53 486.209 409.366 486.201Z" fill="#16141F"/>
<path d="M412.179 487.058C412.006 487.047 411.838 487.013 411.675 486.956C411.514 486.901 411.384 486.827 411.284 486.733L411.502 486.416C411.579 486.489 411.679 486.549 411.8 486.597C411.924 486.647 412.05 486.676 412.179 486.685C412.385 486.698 412.539 486.66 412.641 486.57C412.743 486.482 412.8 486.344 412.812 486.154L412.833 485.821L412.895 485.398L412.908 484.973L412.938 484.517L413.355 484.543L413.254 486.133C413.232 486.472 413.129 486.716 412.946 486.864C412.763 487.015 412.507 487.079 412.179 487.058ZM412.174 486.265C411.996 486.254 411.837 486.206 411.697 486.122C411.559 486.035 411.452 485.922 411.377 485.781C411.303 485.64 411.273 485.478 411.284 485.295C411.296 485.115 411.347 484.96 411.437 484.829C411.53 484.699 411.651 484.601 411.798 484.535C411.948 484.47 412.112 484.443 412.29 484.454C412.449 484.464 412.589 484.505 412.712 484.576C412.834 484.647 412.928 484.752 412.995 484.89C413.063 485.029 413.091 485.202 413.078 485.41C413.064 485.618 413.015 485.788 412.929 485.919C412.846 486.047 412.739 486.14 412.608 486.198C412.478 486.253 412.333 486.275 412.174 486.265ZM412.264 485.897C412.374 485.904 412.474 485.888 412.563 485.849C412.653 485.808 412.724 485.749 412.776 485.673C412.83 485.594 412.86 485.502 412.867 485.397C412.874 485.291 412.855 485.197 412.811 485.115C412.77 485.03 412.707 484.963 412.623 484.916C412.539 484.866 412.442 484.837 412.333 484.83C412.223 484.823 412.122 484.839 412.03 484.878C411.941 484.914 411.869 484.972 411.814 485.051C411.763 485.127 411.733 485.218 411.727 485.324C411.72 485.429 411.737 485.524 411.779 485.609C411.823 485.692 411.887 485.759 411.97 485.811C412.056 485.862 412.154 485.89 412.264 485.897Z" fill="#16141F"/>
<path d="M415.126 486.598C414.967 486.585 414.829 486.545 414.712 486.477C414.596 486.407 414.508 486.308 414.45 486.182C414.392 486.052 414.37 485.894 414.385 485.707L414.468 484.638L414.907 484.672L414.828 485.682C414.814 485.85 414.842 485.979 414.91 486.069C414.981 486.157 415.086 486.207 415.227 486.218C415.33 486.226 415.42 486.212 415.498 486.175C415.579 486.139 415.643 486.081 415.692 486C415.743 485.919 415.773 485.817 415.783 485.693L415.857 484.747L416.295 484.781L416.149 486.653L415.731 486.621L415.771 486.116L415.832 486.276C415.76 486.392 415.66 486.479 415.533 486.534C415.407 486.588 415.271 486.609 415.126 486.598Z" fill="#16141F"/>
<path d="M417.362 486.774L417.604 484.176L418.042 484.216L417.8 486.815L417.362 486.774Z" fill="#16141F"/>
<path d="M419.824 487.016L419.862 486.638L419.846 486.555L419.912 485.894C419.925 485.766 419.896 485.663 419.826 485.585C419.756 485.505 419.643 485.457 419.487 485.442C419.382 485.431 419.277 485.437 419.171 485.459C419.067 485.482 418.977 485.519 418.902 485.57L418.762 485.235C418.87 485.168 418.995 485.122 419.136 485.099C419.28 485.073 419.427 485.068 419.576 485.083C419.847 485.11 420.049 485.196 420.183 485.342C420.319 485.485 420.374 485.692 420.347 485.962L420.237 487.058L419.824 487.016ZM419.234 486.982C419.094 486.968 418.974 486.932 418.874 486.875C418.773 486.816 418.698 486.741 418.649 486.651C418.601 486.559 418.583 486.46 418.594 486.352C418.604 486.247 418.638 486.155 418.695 486.076C418.755 485.997 418.845 485.939 418.964 485.902C419.083 485.864 419.237 485.855 419.426 485.874L419.969 485.928L419.94 486.218L419.429 486.167C419.279 486.152 419.177 486.167 419.12 486.211C419.064 486.252 419.033 486.308 419.026 486.378C419.018 486.457 419.043 486.523 419.101 486.576C419.16 486.629 419.245 486.661 419.357 486.673C419.464 486.683 419.562 486.668 419.651 486.628C419.742 486.588 419.811 486.521 419.858 486.429L419.906 486.699C419.853 486.805 419.768 486.882 419.653 486.932C419.539 486.982 419.4 486.999 419.234 486.982Z" fill="#16141F"/>
<path d="M421.331 487.189L421.544 485.323L421.96 485.37L421.901 485.884L421.869 485.728C421.94 485.609 422.038 485.523 422.164 485.472C422.293 485.42 422.447 485.405 422.626 485.425L422.579 485.841C422.56 485.834 422.543 485.83 422.527 485.828C422.511 485.824 422.495 485.821 422.478 485.819C422.313 485.8 422.176 485.834 422.067 485.921C421.958 486.005 421.893 486.143 421.871 486.334L421.767 487.239L421.331 487.189Z" fill="#16141F"/>
<path d="M424.759 487.615L425.083 485.175L425.456 485.224L426.286 487.148L426.091 487.122L427.377 485.48L427.75 485.529L427.429 487.97L427 487.913L427.232 486.145L427.322 486.157L426.232 487.527L426.03 487.5L425.321 485.891L425.426 485.905L425.191 487.673L424.759 487.615Z" fill="#16141F"/>
<path d="M429.501 488.332C429.294 488.3 429.12 488.232 428.977 488.127C428.837 488.02 428.735 487.888 428.671 487.731C428.61 487.575 428.593 487.405 428.621 487.222C428.65 487.036 428.715 486.879 428.818 486.75C428.924 486.619 429.055 486.524 429.211 486.465C429.369 486.407 429.541 486.391 429.727 486.42C429.907 486.448 430.062 486.512 430.192 486.612C430.321 486.713 430.415 486.841 430.474 486.997C430.533 487.153 430.548 487.329 430.518 487.523C430.515 487.542 430.511 487.563 430.505 487.586C430.501 487.609 430.497 487.631 430.491 487.651L428.944 487.414L428.988 487.125L430.306 487.327L430.122 487.392C430.14 487.285 430.133 487.188 430.099 487.1C430.065 487.012 430.011 486.938 429.937 486.879C429.865 486.821 429.777 486.784 429.673 486.768C429.567 486.751 429.469 486.76 429.381 486.794C429.295 486.828 429.222 486.883 429.163 486.96C429.107 487.034 429.07 487.127 429.053 487.238L429.042 487.308C429.025 487.419 429.036 487.521 429.073 487.615C429.111 487.708 429.173 487.786 429.259 487.846C429.344 487.907 429.447 487.946 429.568 487.965C429.672 487.981 429.768 487.979 429.857 487.959C429.945 487.94 430.027 487.9 430.103 487.84L430.294 488.144C430.196 488.228 430.079 488.288 429.943 488.321C429.81 488.353 429.663 488.357 429.501 488.332Z" fill="#16141F"/>
<path d="M432.451 488.829C432.273 488.798 432.119 488.732 431.989 488.628C431.862 488.523 431.77 488.394 431.713 488.239C431.656 488.084 431.644 487.911 431.677 487.719C431.71 487.527 431.779 487.367 431.884 487.24C431.989 487.113 432.119 487.022 432.273 486.968C432.43 486.914 432.597 486.902 432.775 486.933C432.93 486.959 433.063 487.018 433.173 487.108C433.284 487.196 433.364 487.315 433.412 487.466C433.46 487.617 433.465 487.801 433.428 488.018C433.391 488.233 433.326 488.405 433.232 488.535C433.139 488.661 433.026 488.749 432.891 488.797C432.757 488.846 432.61 488.856 432.451 488.829ZM432.566 488.467C432.67 488.485 432.766 488.477 432.855 488.445C432.946 488.413 433.024 488.357 433.087 488.278C433.153 488.199 433.196 488.1 433.216 487.982C433.237 487.862 433.229 487.755 433.193 487.661C433.159 487.565 433.105 487.486 433.03 487.426C432.957 487.366 432.868 487.327 432.764 487.309C432.66 487.291 432.563 487.298 432.472 487.33C432.383 487.363 432.306 487.418 432.24 487.497C432.176 487.575 432.135 487.673 432.114 487.794C432.094 487.911 432.101 488.018 432.134 488.115C432.17 488.211 432.224 488.289 432.297 488.349C432.372 488.41 432.462 488.449 432.566 488.467ZM433.068 488.91L433.143 488.473L433.245 487.984L433.294 487.485L433.491 486.334L433.921 486.408L433.481 488.98L433.068 488.91Z" fill="#16141F"/>
<path d="M434.468 489.182L434.819 487.337L435.251 487.419L434.899 489.264L434.468 489.182ZM435.095 487.074C435.014 487.059 434.952 487.021 434.909 486.96C434.868 486.9 434.854 486.834 434.868 486.763C434.882 486.689 434.919 486.633 434.979 486.594C435.041 486.553 435.113 486.541 435.194 486.556C435.274 486.572 435.335 486.608 435.377 486.666C435.421 486.723 435.436 486.786 435.423 486.858C435.408 486.934 435.371 486.993 435.31 487.037C435.249 487.078 435.178 487.09 435.095 487.074Z" fill="#16141F"/>
<path d="M436.619 489.633C436.463 489.602 436.33 489.545 436.222 489.464C436.115 489.38 436.04 489.272 435.997 489.139C435.955 489.004 435.952 488.844 435.989 488.66L436.199 487.609L436.63 487.695L436.432 488.688C436.398 488.854 436.41 488.985 436.467 489.083C436.527 489.178 436.626 489.24 436.764 489.268C436.865 489.288 436.957 489.285 437.038 489.258C437.123 489.232 437.194 489.181 437.252 489.107C437.312 489.033 437.354 488.935 437.379 488.813L437.565 487.882L437.996 487.968L437.627 489.81L437.217 489.728L437.316 489.231L437.358 489.397C437.272 489.505 437.163 489.578 437.031 489.619C436.899 489.657 436.761 489.662 436.619 489.633Z" fill="#16141F"/>
<path d="M441.277 488.677C441.424 488.709 441.547 488.766 441.647 488.848C441.749 488.93 441.819 489.038 441.857 489.171C441.895 489.302 441.894 489.46 441.854 489.646L441.623 490.697L441.194 490.603L441.412 489.607C441.448 489.444 441.439 489.315 441.385 489.219C441.332 489.124 441.239 489.061 441.106 489.032C441.012 489.011 440.924 489.014 440.842 489.039C440.762 489.065 440.692 489.113 440.633 489.184C440.577 489.256 440.535 489.353 440.508 489.477L440.304 490.408L439.875 490.314L440.093 489.318C440.129 489.155 440.12 489.026 440.066 488.93C440.013 488.834 439.92 488.772 439.787 488.743C439.693 488.722 439.605 488.725 439.522 488.75C439.442 488.776 439.373 488.824 439.314 488.895C439.258 488.967 439.216 489.064 439.189 489.188L438.985 490.119L438.555 490.025L438.957 488.19L439.366 488.28L439.259 488.768L439.219 488.608C439.307 488.502 439.416 488.431 439.546 488.395C439.679 488.359 439.821 488.358 439.972 488.391C440.144 488.429 440.283 488.504 440.391 488.616C440.5 488.729 440.557 488.876 440.561 489.057L440.405 488.961C440.495 488.837 440.617 488.748 440.773 488.696C440.928 488.644 441.096 488.637 441.277 488.677Z" fill="#16141F"/>
<path d="M445.006 491.622C444.819 491.574 444.648 491.502 444.491 491.406C444.335 491.308 444.217 491.204 444.139 491.094L444.381 490.789C444.457 490.889 444.559 490.982 444.687 491.068C444.815 491.154 444.953 491.216 445.1 491.254C445.225 491.286 445.33 491.299 445.414 491.291C445.498 491.284 445.564 491.262 445.612 491.226C445.661 491.188 445.693 491.139 445.708 491.08C445.727 491.007 445.715 490.943 445.674 490.886C445.634 490.827 445.575 490.775 445.497 490.728C445.422 490.68 445.337 490.631 445.241 490.582C445.146 490.534 445.052 490.482 444.958 490.426C444.866 490.368 444.784 490.305 444.712 490.236C444.643 490.165 444.593 490.081 444.562 489.986C444.531 489.891 444.532 489.78 444.564 489.653C444.598 489.523 444.662 489.414 444.758 489.325C444.856 489.234 444.984 489.175 445.141 489.147C445.301 489.118 445.49 489.132 445.708 489.188C445.851 489.225 445.988 489.28 446.12 489.352C446.251 489.425 446.36 489.508 446.447 489.603L446.219 489.911C446.129 489.82 446.031 489.746 445.925 489.687C445.819 489.626 445.715 489.582 445.61 489.555C445.487 489.523 445.384 489.513 445.299 489.522C445.216 489.532 445.151 489.557 445.102 489.595C445.056 489.634 445.025 489.684 445.009 489.745C444.99 489.818 445 489.884 445.038 489.942C445.08 489.998 445.138 490.05 445.213 490.096C445.291 490.142 445.377 490.191 445.473 490.242C445.569 490.291 445.664 490.344 445.756 490.399C445.851 490.455 445.933 490.517 446.002 490.586C446.074 490.655 446.124 490.737 446.153 490.831C446.184 490.927 446.184 491.037 446.152 491.162C446.119 491.289 446.054 491.398 445.955 491.489C445.86 491.578 445.732 491.637 445.572 491.666C445.412 491.693 445.224 491.678 445.006 491.622Z" fill="#16141F"/>
<path d="M447.598 492.319C447.396 492.263 447.231 492.175 447.101 492.055C446.975 491.932 446.889 491.789 446.843 491.626C446.801 491.464 446.804 491.293 446.853 491.114C446.903 490.934 446.986 490.785 447.103 490.669C447.223 490.551 447.364 490.472 447.526 490.431C447.69 490.391 447.863 490.396 448.044 490.446C448.22 490.495 448.366 490.576 448.483 490.691C448.6 490.806 448.679 490.944 448.719 491.106C448.76 491.268 448.754 491.444 448.702 491.634C448.697 491.652 448.69 491.672 448.681 491.694C448.675 491.717 448.668 491.738 448.66 491.758L447.151 491.342L447.229 491.061L448.514 491.414L448.324 491.457C448.354 491.354 448.358 491.256 448.335 491.165C448.311 491.073 448.266 490.994 448.199 490.927C448.135 490.86 448.052 490.813 447.95 490.785C447.846 490.757 447.748 490.754 447.657 490.777C447.568 490.802 447.489 490.848 447.422 490.917C447.357 490.984 447.31 491.072 447.28 491.181L447.261 491.249C447.231 491.357 447.23 491.46 447.256 491.557C447.283 491.655 447.335 491.738 447.413 491.808C447.491 491.879 447.589 491.93 447.707 491.962C447.808 491.99 447.904 491.999 447.994 491.99C448.085 491.981 448.171 491.951 448.253 491.901L448.408 492.224C448.3 492.297 448.177 492.342 448.039 492.36C447.903 492.376 447.756 492.362 447.598 492.319Z" fill="#16141F"/>
<path d="M452.439 491.73C452.583 491.772 452.702 491.838 452.796 491.926C452.892 492.016 452.954 492.128 452.983 492.263C453.012 492.397 453 492.554 452.946 492.737L452.642 493.769L452.221 493.645L452.508 492.667C452.555 492.507 452.556 492.377 452.509 492.278C452.462 492.179 452.374 492.11 452.243 492.072C452.151 492.045 452.063 492.041 451.979 492.06C451.898 492.08 451.825 492.123 451.761 492.19C451.7 492.258 451.651 492.352 451.616 492.474L451.347 493.388L450.925 493.264L451.213 492.286C451.26 492.126 451.26 491.996 451.213 491.897C451.167 491.798 451.078 491.729 450.948 491.691C450.855 491.664 450.767 491.66 450.684 491.679C450.602 491.699 450.529 491.742 450.466 491.809C450.404 491.877 450.356 491.971 450.32 492.093L450.051 493.007L449.629 492.883L450.159 491.081L450.561 491.199L450.42 491.678L450.391 491.516C450.486 491.417 450.6 491.354 450.732 491.327C450.867 491.3 451.009 491.309 451.157 491.353C451.326 491.402 451.46 491.487 451.559 491.607C451.661 491.727 451.707 491.877 451.698 492.058L451.549 491.952C451.647 491.834 451.776 491.755 451.935 491.713C452.093 491.672 452.262 491.678 452.439 491.73Z" fill="#16141F"/>
<path d="M453.579 494.103L454.154 492.315L454.572 492.449L453.998 494.237L453.579 494.103ZM454.459 492.088C454.381 492.063 454.324 492.017 454.289 491.952C454.255 491.887 454.25 491.82 454.272 491.751C454.295 491.679 454.339 491.628 454.403 491.597C454.47 491.564 454.542 491.561 454.621 491.586C454.699 491.611 454.755 491.655 454.789 491.717C454.826 491.778 454.833 491.844 454.811 491.913C454.787 491.986 454.743 492.041 454.677 492.077C454.612 492.11 454.54 492.114 454.459 492.088Z" fill="#16141F"/>
<path d="M455.167 494.622L455.941 492.285L457.036 492.648C457.316 492.741 457.512 492.867 457.622 493.027C457.732 493.185 457.757 493.356 457.696 493.541C457.655 493.665 457.591 493.762 457.503 493.832C457.417 493.9 457.316 493.942 457.202 493.959C457.091 493.974 456.979 493.962 456.865 493.925L456.965 493.825C457.096 493.868 457.206 493.932 457.295 494.015C457.384 494.097 457.443 494.193 457.473 494.304C457.505 494.416 457.499 494.54 457.454 494.675C457.388 494.876 457.259 495.006 457.069 495.067C456.878 495.127 456.632 495.107 456.329 495.007L455.167 494.622ZM455.714 494.426L456.415 494.658C456.578 494.711 456.711 494.726 456.815 494.701C456.92 494.677 456.992 494.605 457.031 494.487C457.069 494.372 457.054 494.273 456.985 494.19C456.916 494.106 456.801 494.037 456.638 493.983L455.904 493.74L456.015 493.403L456.663 493.617C456.814 493.667 456.939 493.679 457.037 493.652C457.137 493.626 457.205 493.559 457.24 493.453C457.276 493.343 457.262 493.249 457.197 493.168C457.135 493.088 457.028 493.023 456.876 492.973L456.262 492.769L455.714 494.426Z" fill="#16141F"/>
<path d="M458.531 495.804C458.349 495.741 458.201 495.646 458.086 495.519C457.973 495.39 457.899 495.242 457.865 495.076C457.831 494.91 457.844 494.74 457.905 494.565C457.967 494.388 458.062 494.246 458.191 494.14C458.321 494.031 458.47 493.963 458.639 493.935C458.808 493.907 458.983 493.924 459.165 493.988C459.348 494.052 459.497 494.147 459.612 494.274C459.729 494.402 459.804 494.547 459.836 494.71C459.871 494.874 459.857 495.045 459.795 495.225C459.733 495.399 459.638 495.541 459.508 495.65C459.381 495.759 459.231 495.829 459.059 495.858C458.891 495.886 458.714 495.868 458.531 495.804ZM458.655 495.449C458.756 495.484 458.855 495.494 458.95 495.477C459.045 495.461 459.13 495.418 459.203 495.35C459.279 495.282 459.337 495.191 459.376 495.079C459.416 494.963 459.427 494.857 459.41 494.759C459.395 494.659 459.355 494.573 459.291 494.501C459.227 494.429 459.145 494.376 459.045 494.341C458.943 494.305 458.845 494.296 458.75 494.312C458.657 494.33 458.572 494.372 458.496 494.44C458.421 494.506 458.364 494.596 458.323 494.711C458.284 494.824 458.273 494.931 458.29 495.031C458.307 495.131 458.347 495.217 458.409 495.289C458.473 495.361 458.555 495.414 458.655 495.449Z" fill="#16141F"/>
<path d="M460.264 496.408L461.162 493.958L461.575 494.109L460.677 496.56L460.264 496.408Z" fill="#16141F"/>
<path d="M462.417 497.239C462.248 497.175 462.11 497.081 462.002 496.955C461.897 496.828 461.831 496.683 461.805 496.52C461.778 496.357 461.799 496.185 461.868 496.003C461.936 495.821 462.034 495.677 462.161 495.572C462.288 495.467 462.433 495.402 462.595 495.378C462.759 495.355 462.926 495.375 463.095 495.438C463.242 495.494 463.361 495.576 463.452 495.686C463.545 495.793 463.6 495.925 463.619 496.083C463.637 496.24 463.608 496.422 463.53 496.628C463.453 496.832 463.357 496.989 463.241 497.098C463.125 497.205 462.997 497.269 462.856 497.291C462.715 497.313 462.569 497.296 462.417 497.239ZM462.599 496.905C462.698 496.942 462.794 496.954 462.887 496.939C462.983 496.924 463.069 496.884 463.147 496.818C463.226 496.753 463.287 496.664 463.329 496.552C463.372 496.438 463.385 496.332 463.367 496.232C463.352 496.132 463.314 496.044 463.251 495.971C463.191 495.898 463.111 495.843 463.013 495.806C462.914 495.769 462.817 495.757 462.721 495.771C462.628 495.786 462.541 495.826 462.462 495.892C462.385 495.956 462.325 496.045 462.282 496.159C462.24 496.271 462.227 496.377 462.241 496.478C462.258 496.579 462.297 496.666 462.357 496.739C462.42 496.813 462.5 496.868 462.599 496.905ZM463.009 497.435L463.165 497.02L463.357 496.559L463.5 496.079L463.911 494.986L464.319 495.14L463.4 497.582L463.009 497.435Z" fill="#16141F"/>
<path d="M465.797 498.547L466.719 496.264L467.789 496.697C468.063 496.807 468.25 496.946 468.349 497.113C468.45 497.277 468.463 497.45 468.39 497.63C468.341 497.752 468.271 497.845 468.179 497.909C468.088 497.971 467.985 498.006 467.87 498.016C467.759 498.023 467.647 498.005 467.536 497.96L467.642 497.867C467.771 497.918 467.876 497.989 467.959 498.078C468.043 498.165 468.096 498.265 468.119 498.378C468.144 498.491 468.129 498.615 468.076 498.747C467.997 498.943 467.86 499.065 467.666 499.113C467.472 499.161 467.227 499.125 466.932 499.006L465.797 498.547ZM466.355 498.386L467.04 498.662C467.199 498.727 467.331 498.75 467.437 498.732C467.543 498.714 467.619 498.647 467.666 498.532C467.711 498.419 467.702 498.319 467.639 498.233C467.576 498.144 467.465 498.068 467.306 498.004L466.589 497.714L466.722 497.385L467.355 497.64C467.502 497.7 467.626 497.72 467.725 497.699C467.827 497.679 467.899 497.617 467.941 497.513C467.984 497.406 467.976 497.311 467.916 497.226C467.859 497.142 467.757 497.071 467.609 497.011L467.009 496.768L466.355 498.386Z" fill="#16141F"/>
<path d="M469.091 499.947C468.914 499.872 468.772 499.767 468.666 499.633C468.561 499.497 468.496 499.345 468.473 499.178C468.449 499.01 468.474 498.841 468.546 498.67C468.619 498.497 468.723 498.362 468.859 498.264C468.995 498.164 469.149 498.105 469.319 498.088C469.489 498.071 469.663 498.1 469.84 498.174C470.019 498.25 470.162 498.355 470.268 498.489C470.376 498.624 470.442 498.774 470.464 498.938C470.488 499.104 470.463 499.274 470.389 499.449C470.317 499.62 470.213 499.755 470.077 499.855C469.942 499.956 469.788 500.016 469.615 500.034C469.445 500.052 469.27 500.022 469.091 499.947ZM469.237 499.6C469.337 499.642 469.434 499.658 469.53 499.647C469.626 499.637 469.713 499.6 469.791 499.536C469.871 499.473 469.935 499.387 469.981 499.277C470.029 499.164 470.047 499.059 470.035 498.959C470.026 498.859 469.992 498.771 469.933 498.695C469.873 498.619 469.795 498.56 469.698 498.519C469.598 498.477 469.501 498.461 469.405 498.472C469.311 498.483 469.224 498.52 469.144 498.583C469.065 498.644 469.002 498.73 468.954 498.843C468.908 498.953 468.89 499.059 468.9 499.16C468.911 499.261 468.945 499.349 469.002 499.424C469.062 499.5 469.14 499.559 469.237 499.6Z" fill="#16141F"/>
<path d="M471.111 500.804L472.165 498.417L472.567 498.595L471.513 500.982L471.111 500.804Z" fill="#16141F"/>
<path d="M472.991 501.675C472.826 501.601 472.694 501.498 472.594 501.365C472.497 501.232 472.441 501.083 472.425 500.919C472.409 500.754 472.441 500.584 472.521 500.406C472.601 500.229 472.708 500.092 472.841 499.995C472.975 499.899 473.123 499.843 473.287 499.829C473.452 499.816 473.617 499.847 473.781 499.921C473.925 499.986 474.038 500.076 474.123 500.191C474.208 500.304 474.255 500.44 474.263 500.598C474.272 500.756 474.231 500.935 474.14 501.136C474.05 501.335 473.944 501.485 473.821 501.587C473.699 501.686 473.567 501.742 473.425 501.755C473.283 501.768 473.138 501.742 472.991 501.675ZM473.193 501.354C473.29 501.397 473.385 501.414 473.479 501.405C473.575 501.397 473.664 501.363 473.745 501.302C473.829 501.242 473.895 501.157 473.945 501.048C473.995 500.937 474.014 500.831 474.003 500.731C473.994 500.63 473.961 500.54 473.904 500.463C473.848 500.386 473.772 500.326 473.676 500.283C473.58 500.239 473.484 500.222 473.388 500.23C473.294 500.239 473.205 500.273 473.121 500.333C473.04 500.392 472.975 500.477 472.925 500.588C472.876 500.697 472.855 500.803 472.864 500.904C472.874 501.007 472.907 501.096 472.963 501.172C473.02 501.25 473.097 501.31 473.193 501.354ZM473.568 501.909L473.75 501.505L473.972 501.056L474.145 500.587L474.625 499.522L475.022 499.702L473.95 502.081L473.568 501.909Z" fill="#16141F"/>
<path d="M477.263 502.074L478.366 502.604L478.203 502.943L477.1 502.413L477.263 502.074ZM476.838 503.04L478.09 503.642L477.924 503.987L476.26 503.188L477.326 500.969L478.946 501.747L478.78 502.093L477.572 501.512L476.838 503.04Z" fill="#16141F"/>
<path d="M478.308 504.193L479.528 503.599L479.417 503.807L479.176 502.527L479.613 502.745L479.777 503.653L479.61 503.569L480.437 503.157L480.862 503.369L479.687 503.942L479.796 503.733L480.051 505.063L479.608 504.842L479.439 503.881L479.592 503.985L478.742 504.41L478.308 504.193Z" fill="#16141F"/>
<path d="M481.307 505.749C481.124 505.654 481.006 505.534 480.954 505.389C480.904 505.241 480.926 505.075 481.022 504.889L481.794 503.392L482.185 503.594L481.418 505.082C481.377 505.161 481.365 505.232 481.382 505.297C481.401 505.362 481.447 505.413 481.52 505.451C481.607 505.496 481.692 505.511 481.774 505.495L481.74 505.83C481.675 505.844 481.604 505.843 481.528 505.827C481.451 505.811 481.378 505.785 481.307 505.749ZM481.161 503.944L481.323 503.632L482.435 504.206L482.274 504.518L481.161 503.944Z" fill="#16141F"/>
<path d="M482.424 506.312L483.305 504.653L483.674 504.85L483.432 505.306L483.459 505.149C483.568 505.064 483.691 505.02 483.827 505.019C483.966 505.018 484.115 505.06 484.274 505.144L484.078 505.514C484.064 505.501 484.049 505.491 484.035 505.483C484.021 505.473 484.007 505.465 483.993 505.457C483.846 505.379 483.706 505.36 483.572 505.401C483.44 505.44 483.329 505.544 483.239 505.714L482.812 506.518L482.424 506.312Z" fill="#16141F"/>
<path d="M485.335 507.894L485.518 507.561L485.535 507.479L485.854 506.896C485.916 506.782 485.93 506.676 485.896 506.578C485.863 506.477 485.778 506.388 485.64 506.313C485.548 506.262 485.448 506.227 485.342 506.206C485.238 506.186 485.141 506.185 485.051 506.203L485.054 505.839C485.179 505.82 485.312 505.827 485.451 505.86C485.594 505.893 485.731 505.945 485.862 506.018C486.101 506.148 486.253 506.307 486.32 506.493C486.389 506.678 486.359 506.89 486.228 507.128L485.699 508.094L485.335 507.894ZM484.805 507.632C484.682 507.564 484.585 507.485 484.515 507.393C484.446 507.299 484.406 507.201 484.396 507.099C484.388 506.996 484.41 506.897 484.462 506.802C484.513 506.71 484.58 506.638 484.664 506.588C484.749 506.539 484.854 506.52 484.979 506.532C485.103 506.544 485.249 506.596 485.415 506.687L485.893 506.949L485.753 507.205L485.303 506.958C485.171 506.886 485.071 506.859 485.002 506.878C484.934 506.894 484.883 506.933 484.85 506.995C484.811 507.065 484.809 507.135 484.842 507.207C484.875 507.278 484.941 507.341 485.039 507.395C485.134 507.447 485.23 507.472 485.328 507.469C485.427 507.468 485.517 507.434 485.596 507.367L485.534 507.634C485.444 507.711 485.336 507.749 485.21 507.75C485.086 507.751 484.951 507.712 484.805 507.632Z" fill="#16141F"/>
<path d="M486.846 508.756L488.067 506.618L489.069 507.19C489.325 507.337 489.492 507.5 489.568 507.678C489.645 507.855 489.636 508.027 489.539 508.196C489.474 508.31 489.392 508.393 489.292 508.444C489.194 508.493 489.087 508.515 488.972 508.508C488.86 508.501 488.752 508.468 488.648 508.408L488.766 508.33C488.886 508.399 488.981 508.483 489.051 508.582C489.123 508.679 489.162 508.786 489.169 508.9C489.179 509.017 489.148 509.137 489.077 509.261C488.972 509.444 488.82 509.546 488.622 509.568C488.423 509.59 488.185 509.521 487.909 509.363L486.846 508.756ZM487.421 508.671L488.062 509.038C488.211 509.123 488.339 509.163 488.446 509.16C488.553 509.156 488.638 509.101 488.699 508.993C488.76 508.887 488.764 508.787 488.713 508.692C488.663 508.596 488.563 508.506 488.414 508.421L487.743 508.037L487.919 507.729L488.511 508.067C488.65 508.146 488.77 508.182 488.871 508.175C488.974 508.169 489.054 508.117 489.109 508.02C489.166 507.92 489.171 507.824 489.124 507.732C489.078 507.642 488.986 507.557 488.848 507.478L488.286 507.157L487.421 508.671Z" fill="#16141F"/>
<path d="M489.98 510.628C489.815 510.529 489.689 510.406 489.602 510.259C489.517 510.11 489.474 509.95 489.474 509.781C489.474 509.612 489.521 509.447 489.616 509.288C489.712 509.127 489.834 509.008 489.982 508.929C490.131 508.849 490.291 508.812 490.462 508.818C490.633 508.825 490.801 508.877 490.966 508.976C491.133 509.075 491.26 509.199 491.347 509.346C491.435 509.495 491.479 509.652 491.479 509.818C491.48 509.985 491.432 510.151 491.335 510.314C491.24 510.473 491.118 510.592 490.969 510.673C490.822 510.754 490.661 510.792 490.487 510.787C490.316 510.78 490.147 510.727 489.98 510.628ZM490.173 510.304C490.266 510.36 490.36 510.389 490.457 510.392C490.553 510.395 490.644 510.37 490.73 510.318C490.818 510.266 490.893 510.189 490.954 510.087C491.016 509.982 491.049 509.88 491.051 509.78C491.056 509.679 491.035 509.587 490.986 509.504C490.938 509.42 490.868 509.352 490.778 509.297C490.685 509.242 490.591 509.213 490.494 509.21C490.4 509.208 490.308 509.233 490.22 509.284C490.134 509.334 490.059 509.411 489.997 509.515C489.935 509.618 489.903 509.72 489.9 509.822C489.896 509.924 489.918 510.016 489.964 510.098C490.013 510.182 490.082 510.25 490.173 510.304Z" fill="#16141F"/>
<path d="M491.855 511.76L493.239 509.547L493.611 509.781L492.227 511.993L491.855 511.76Z" fill="#16141F"/>
<path d="M493.551 512.87C493.399 512.773 493.283 512.651 493.204 512.506C493.128 512.359 493.094 512.204 493.102 512.039C493.11 511.875 493.166 511.71 493.271 511.546C493.376 511.383 493.502 511.262 493.648 511.186C493.794 511.11 493.949 511.077 494.112 511.087C494.278 511.098 494.436 511.152 494.589 511.25C494.721 511.335 494.82 511.44 494.887 511.566C494.955 511.69 494.982 511.831 494.967 511.989C494.952 512.147 494.886 512.318 494.767 512.504C494.649 512.688 494.522 512.821 494.386 512.903C494.251 512.984 494.112 513.02 493.969 513.012C493.827 513.005 493.687 512.957 493.551 512.87ZM493.799 512.582C493.887 512.638 493.979 512.669 494.073 512.674C494.17 512.68 494.263 512.659 494.352 512.61C494.444 512.563 494.522 512.489 494.586 512.388C494.652 512.286 494.686 512.184 494.69 512.083C494.696 511.981 494.677 511.888 494.631 511.803C494.587 511.719 494.521 511.649 494.432 511.592C494.343 511.535 494.25 511.504 494.154 511.498C494.06 511.493 493.967 511.514 493.875 511.562C493.787 511.608 493.71 511.683 493.644 511.785C493.58 511.886 493.544 511.987 493.538 512.089C493.533 512.192 493.553 512.285 493.597 512.369C493.642 512.454 493.71 512.525 493.799 512.582ZM494.089 513.185L494.328 512.812L494.612 512.401L494.851 511.961L495.481 510.978L495.848 511.213L494.441 513.411L494.089 513.185Z" fill="#16141F"/>
<path d="M496.559 514.876L497.968 512.857L498.914 513.517C499.156 513.686 499.307 513.863 499.367 514.048C499.428 514.231 499.403 514.402 499.292 514.561C499.217 514.669 499.127 514.744 499.024 514.786C498.921 514.826 498.813 514.838 498.699 514.821C498.588 514.804 498.484 514.761 498.386 514.692L498.51 514.625C498.623 514.704 498.711 514.796 498.771 514.902C498.834 515.005 498.863 515.114 498.86 515.229C498.859 515.346 498.817 515.463 498.736 515.58C498.615 515.753 498.455 515.841 498.255 515.845C498.055 515.848 497.824 515.759 497.563 515.576L496.559 514.876ZM497.139 514.843L497.745 515.266C497.886 515.364 498.009 515.416 498.116 515.422C498.224 515.428 498.313 515.381 498.384 515.279C498.454 515.179 498.467 515.079 498.424 514.981C498.383 514.881 498.292 514.781 498.152 514.683L497.517 514.241L497.72 513.949L498.28 514.34C498.411 514.431 498.527 514.478 498.628 514.48C498.732 514.483 498.815 514.439 498.88 514.347C498.946 514.253 498.959 514.158 498.92 514.062C498.883 513.967 498.799 513.874 498.668 513.783L498.138 513.413L497.139 514.843Z" fill="#16141F"/>
<path d="M498.975 516.639L500.548 514.556L500.898 514.821L499.326 516.904L498.975 516.639Z" fill="#16141F"/>
</svg>
