<svg width="351" height="141" viewBox="0 0 351 141" fill="none" xmlns="http://www.w3.org/2000/svg">
<path d="M17.295 38.6547H10.2813V68.4626H0V0.637695H10.2813V27.8155H17.295V0.637695H27.5763V68.5423H17.295V38.6547Z" fill="#FAF9F9"/>
<path d="M45.2697 69.2595H43.2772C35.0681 69.2595 30.6846 64.7963 30.6846 56.4278V42.799H40.8862V54.6744C40.8862 57.7827 41.9223 59.4564 44.2336 59.4564C46.7043 59.4564 47.581 57.7827 47.581 53.6383V52.124C47.581 47.2623 47.1028 45.5886 43.3569 40.7268L36.9012 32.1989C32.5177 26.5402 31.2425 22.1567 31.2425 15.3822V13.2302C31.2425 4.22411 35.7854 0 43.9148 0H45.8276C54.2759 0 57.6233 3.74591 57.6233 11.7956V22.9537H47.6607V13.1505C47.6607 10.8392 47.1825 9.16553 44.7118 9.16553C42.2411 9.16553 41.6832 10.6798 41.6832 13.9475V15.2228C41.6832 19.0484 42.4005 21.1206 45.9073 25.6635L52.4427 34.1117C57.0654 40.1689 58.5797 43.5961 58.5797 51.2473V53.3992C58.5797 63.3617 54.2759 69.2595 45.2697 69.2595Z" fill="#FAF9F9"/>
<path d="M84.9605 0.637695V10.5205H71.8099V28.2937H82.0912V38.575H71.8099V58.1813H85.5184V68.4626H61.5286V0.637695H84.9605Z" fill="#FAF9F9"/>
<path d="M113.334 55.7107H105.842L104.487 68.4627H95.2419L103.531 0.558105H115.725L124.572 68.4627H114.609L113.334 55.7107ZM112.218 45.5888L109.508 20.4832L106.878 45.5888H112.218Z" fill="#FAF9F9"/>
<path d="M136.606 68.5423H126.325V0.637695H143.062C149.916 0.637695 153.343 3.5866 153.343 11.1581V23.1929C153.343 28.8516 150.713 31.0035 148.88 31.8802C151.191 32.9163 153.343 34.7494 153.343 39.2923V63.1227C153.343 65.8325 153.901 67.1077 154.379 68.1438V68.622H144.178C143.7 67.9047 143.142 66.7092 143.142 63.043V42.4803C143.142 39.4517 142.584 38.1765 139.316 38.1765H136.686V68.5423H136.606ZM136.606 28.5328H139.316C142.185 28.5328 143.062 26.6997 143.062 23.6711V14.1867C143.062 11.2378 142.424 9.80323 139.316 9.80323H136.606V28.5328Z" fill="#FAF9F9"/>
<path d="M174.145 10.4408V68.4626H163.943V10.4408H155.256V0.637695H182.832V10.5205H174.145V10.4408Z" fill="#FAF9F9"/>
<path d="M210.409 55.7107H202.917L201.562 68.4627H192.317L200.605 0.558105H212.8L221.646 68.4627H211.684L210.409 55.7107ZM209.293 45.5888L206.583 20.4832L203.953 45.5888H209.293Z" fill="#FAF9F9"/>
<path d="M232.645 0.637695L241.492 37.0607V0.637695H250.896V68.5423H242.528L232.645 29.4892V68.5423H223.32V0.637695H232.645Z" fill="#FAF9F9"/>
<path d="M254.722 0.637695H270.583C279.429 0.637695 282.139 5.65881 282.139 13.7085V55.073C282.139 63.3618 279.031 68.5423 270.583 68.5423H254.802V0.637695H254.722ZM265.083 58.6595H267.554C270.662 58.6595 271.539 56.9858 271.539 53.3993V15.1431C271.539 11.2378 270.503 9.88293 267.952 9.88293H265.003V58.6595H265.083Z" fill="#FAF9F9"/>
<path d="M0 72.0488H15.7807C24.6274 72.0488 27.3372 77.0699 27.3372 85.1197V126.484C27.3372 134.773 24.2289 139.953 15.7807 139.953H0V72.0488ZM10.2813 130.15H12.752C15.8604 130.15 16.7371 128.477 16.7371 124.89V86.634C16.7371 82.7287 15.701 81.3738 13.1505 81.3738H10.2016V130.15H10.2813Z" fill="#FAF9F9"/>
<path d="M54.515 72.0488V81.9317H41.3645V99.7048H51.6458V109.986H41.3645V129.592H55.0729V139.874H31.0034V72.0488H54.515Z" fill="#FAF9F9"/>
<path d="M71.4912 140.67H69.4986C61.2895 140.67 56.906 136.207 56.906 127.839V114.21H67.1076V126.085C67.1076 129.194 68.1437 130.867 70.4551 130.867C72.9258 130.867 73.8025 129.194 73.8025 125.049V123.535C73.8025 118.673 73.3243 116.999 69.5783 112.138L63.0429 103.769C58.6594 98.1105 57.3842 93.727 57.3842 86.9525V84.8006C57.3842 75.7944 61.9271 71.5703 70.0566 71.5703H71.9694C80.4973 71.5703 83.765 75.3162 83.765 83.3659V94.524H73.8025V84.7209C73.8025 82.4095 73.3243 80.7358 70.8536 80.7358C68.3828 80.7358 67.8249 82.2501 67.8249 85.5179V86.7931C67.8249 90.6187 68.5422 92.6909 72.0491 97.2338L78.5845 105.682C83.2071 111.739 84.7214 115.166 84.7214 122.818V124.969C84.8011 134.773 80.4973 140.67 71.4912 140.67Z" fill="#FAF9F9"/>
<path d="M98.0313 139.953H87.75V72.0488H98.0313V139.953Z" fill="#FAF9F9"/>
<path d="M111.421 140.91C105.364 140.91 101.538 135.491 101.538 128.477V85.9968C101.538 78.4252 104.487 71.4116 114.21 71.4116H116.203C127.281 71.4116 128.556 78.5847 128.556 86.6344V93.5683H118.514V85.9171C118.514 82.8885 117.797 81.2945 115.247 81.2945C113.095 81.2945 112.059 82.9682 112.059 85.9171V125.608C112.059 128.796 113.334 130.47 115.406 130.47C118.036 130.47 119.232 128.636 119.232 126.086V109.11H114.609V98.6691H129.035V139.954H123.217C123.137 139.555 122.34 136.208 121.463 133.259C120.746 135.57 117.239 140.831 112.059 140.831H111.421V140.91Z" fill="#FAF9F9"/>
<path d="M141.946 72.0488L150.793 108.472V72.0488H160.197V139.953H151.829L141.946 100.9V139.953H132.621V72.0488H141.946Z" fill="#FAF9F9"/>
<path d="M187.136 140.67H185.144C176.935 140.67 172.551 136.207 172.551 127.839V114.21H182.753V126.085C182.753 129.194 183.789 130.867 186.1 130.867C188.571 130.867 189.447 129.194 189.447 125.049V123.535C189.447 118.673 188.969 116.999 185.223 112.138L178.688 103.769C174.304 98.1105 173.029 93.727 173.029 86.9525V84.8006C173.029 75.7944 177.572 71.5703 185.702 71.5703H187.614C196.063 71.5703 199.41 75.3162 199.41 83.3659V94.524H189.447V84.7209C189.447 82.4095 188.969 80.7358 186.499 80.7358C184.028 80.7358 183.47 82.2501 183.47 85.5179V86.7931C183.47 90.6187 184.187 92.6909 187.694 97.2338L194.23 105.682C198.852 111.739 200.366 115.166 200.366 122.818V124.969C200.446 134.773 196.142 140.67 187.136 140.67Z" fill="#FAF9F9"/>
<path d="M220.212 126.165V110.385H230.334V126.086C230.334 133.418 227.943 140.75 217.98 140.75H215.669C205.228 140.75 202.997 133.259 202.997 126.404V84.9603C202.997 78.0264 206.025 71.3315 215.35 71.3315H217.741C229.059 71.3315 230.334 78.8234 230.334 85.4385V97.5529H220.212V85.5979C220.212 82.649 219.335 81.1347 216.705 81.1347C214.155 81.1347 213.517 82.5693 213.517 85.5979V125.926C213.517 128.955 214.553 130.549 216.785 130.549C219.335 130.788 220.212 128.955 220.212 126.165Z" fill="#FAF9F9"/>
<path d="M250.976 110.146H243.962V139.953H233.681V72.0488H243.962V99.2266H250.976V72.0488H261.257V139.953H250.976V110.146Z" fill="#FAF9F9"/>
<path d="M293.058 124.811C293.058 134.295 289.87 140.751 279.907 140.751H278.154C268.271 140.751 264.844 134.295 264.844 124.811V87.0329C264.844 77.6282 268.431 71.4116 278.074 71.4116H279.828C289.87 71.4116 293.058 77.6282 293.058 86.9532V124.811ZM282.537 86.475C282.537 82.8885 281.342 81.2945 278.951 81.2945C276.321 81.2945 275.285 83.0479 275.285 86.475V125.528C275.285 128.477 276.082 130.709 279.031 130.709C281.74 130.709 282.537 128.397 282.537 125.528V86.475Z" fill="#FAF9F9"/>
<path d="M324.54 124.811C324.54 134.295 321.352 140.751 311.389 140.751H309.636C299.753 140.751 296.326 134.295 296.326 124.811V87.0329C296.326 77.6282 299.912 71.4116 309.556 71.4116H311.309C321.352 71.4116 324.54 77.6282 324.54 86.9532V124.811ZM314.019 86.475C314.019 82.8885 312.824 81.2945 310.433 81.2945C307.803 81.2945 306.766 83.0479 306.766 86.475V125.528C306.766 128.477 307.563 130.709 310.512 130.709C313.222 130.709 314.019 128.397 314.019 125.528V86.475Z" fill="#FAF9F9"/>
<path d="M338.407 72.0488V129.433H351V139.953H328.126V72.0488H338.407Z" fill="#FAF9F9"/>
</svg>
