<svg width="1440" height="1116" viewBox="0 0 1440 1116" fill="none" xmlns="http://www.w3.org/2000/svg">
<circle cx="127.5" cy="665.5" r="327" fill="#FAF9F9" stroke="#16141F"/>
<circle cx="127" cy="666" r="302.5" fill="#E84355" stroke="#16141F"/>
<path d="M148 671.305L139.882 680.58C129.058 674.088 97.4883 688 85.7623 688C74.0363 688 85.7623 671.305 72.2324 671.305C58.7026 671.305 63.2124 656.465 60.5064 652.755C57.8004 649.045 66.8204 643.48 66.8204 636.988C66.8204 630.495 58.7024 629.567 66.8204 619.365C74.9383 609.162 79.4483 619.365 85.7623 614.727C92.0763 610.089 100.194 629.567 111.92 619.365C123.646 609.162 124.548 623.075 129.96 629.567C135.372 636.06 139.882 624.93 139.882 648.118C139.882 666.668 145.294 671.305 148 671.305Z" fill="#FAF9F9" stroke="#16141F"/>
<circle cx="238.5" cy="637.364" r="8" fill="#16141F" stroke="#16141F"/>
<path d="M112.5 551.864C112.5 556.586 108.892 560.364 104.5 560.364C100.108 560.364 96.5 556.586 96.5 551.864C96.5 547.142 100.108 543.364 104.5 543.364C108.892 543.364 112.5 547.142 112.5 551.864Z" fill="#16141F" stroke="#16141F"/>
<circle cx="209" cy="658.864" r="7.5" fill="#16141F" stroke="#16141F"/>
<path d="M-39.9918 852.857L-12.8826 812.04L-3.57139 818.389L-21.2311 844.979L15.7451 831.561L24.5358 837.555L-2.57332 878.373L-11.8267 872.063L5.79422 845.531L-31.1432 858.891L-39.9918 852.857Z" fill="#FAF9F9"/>
<path fill-rule="evenodd" clip-rule="evenodd" d="M1295.01 271.976C1179.07 330.356 1188.46 443.621 1207.64 492.956C1273.42 654.94 1530.38 602.933 1530.38 439.51C1532.72 438.924 1535.33 438.383 1538.12 437.807C1562.96 432.664 1601.13 424.763 1579.71 357.285C1563.27 305.483 1519.41 321.997 1499.54 336.728C1479.67 290.819 1410.94 213.596 1295.01 271.976ZM1315.56 287.394C1387.17 268.55 1539.81 282.068 1504.68 476.512C1475.9 635.823 1131.58 582.377 1232.31 357.285C1244.3 339.127 1277.74 299.728 1315.56 287.394ZM1530.38 412.787L1515.99 366.535C1530.03 356.6 1560.18 341.868 1568.4 362.424C1576.63 382.981 1546.48 404.565 1530.38 412.787Z" fill="#E84355"/>
<path d="M1315.56 287.394C1387.17 268.55 1539.81 282.068 1504.68 476.512C1475.9 635.823 1131.58 582.377 1232.31 357.285C1244.3 339.127 1277.74 299.728 1315.56 287.394Z" fill="#FAF9F9"/>
<path d="M1207.64 492.956L1206.68 493.329L1206.69 493.336L1206.69 493.343L1207.64 492.956ZM1499.54 336.728L1498.6 337.137L1499.11 338.326L1500.15 337.554L1499.54 336.728ZM1579.71 357.285L1580.69 356.974L1579.71 357.285ZM1530.38 439.51L1530.13 438.513L1529.35 438.708V439.51H1530.38ZM1515.99 366.535L1515.39 365.696L1514.78 366.128L1515 366.841L1515.99 366.535ZM1530.38 412.787L1529.39 413.092L1529.76 414.257L1530.84 413.702L1530.38 412.787ZM1315.56 287.394L1315.3 286.4L1315.27 286.407L1315.24 286.416L1315.56 287.394ZM1504.68 476.512L1503.67 476.329L1504.68 476.512ZM1232.31 357.285L1231.45 356.719L1231.4 356.789L1231.37 356.865L1232.31 357.285ZM1538.12 437.807L1538.32 438.814L1538.12 437.807ZM1208.6 492.584C1199.07 468.075 1191.96 427.638 1201.65 386.092C1211.33 344.593 1237.78 301.941 1295.47 272.894L1294.54 271.058C1236.29 300.392 1209.46 343.561 1199.65 385.625C1189.85 427.64 1197.03 468.502 1206.68 493.329L1208.6 492.584ZM1295.47 272.894C1353.17 243.84 1398.98 248.573 1432.82 266.156C1466.73 283.77 1488.73 314.347 1498.6 337.137L1500.48 336.32C1490.48 313.201 1468.19 282.211 1433.77 264.332C1399.3 246.421 1352.78 241.732 1294.54 271.058L1295.47 272.894ZM1500.15 337.554C1509.99 330.258 1525.7 322.589 1540.88 323.084C1548.44 323.33 1555.85 325.599 1562.39 330.943C1568.93 336.293 1574.66 344.784 1578.73 357.596L1580.69 356.974C1576.53 343.885 1570.62 335.015 1563.69 329.352C1556.76 323.683 1548.89 321.288 1540.94 321.029C1525.12 320.513 1508.96 328.467 1498.93 335.903L1500.15 337.554ZM1529.35 439.51C1529.35 520.58 1465.62 574.128 1393.49 587.249C1321.38 600.367 1241.26 572.999 1208.59 492.57L1206.69 493.343C1239.81 574.897 1321.05 602.517 1393.86 589.272C1466.65 576.03 1531.4 521.863 1531.4 439.51H1529.35ZM1515 366.841L1529.39 413.092L1531.36 412.482L1516.97 366.23L1515 366.841ZM1530.84 413.702C1538.96 409.557 1550.63 402.042 1559.26 392.938C1567.83 383.887 1573.71 372.92 1569.36 362.042L1567.45 362.806C1571.32 372.485 1566.23 382.588 1557.77 391.524C1549.35 400.407 1537.89 407.795 1529.91 411.872L1530.84 413.702ZM1569.36 362.042C1567.19 356.626 1563.54 353.469 1559.04 352.019C1554.59 350.585 1549.4 350.845 1544.15 352.043C1533.65 354.44 1522.47 360.689 1515.39 365.696L1516.58 367.374C1523.55 362.447 1534.47 356.361 1544.61 354.047C1549.68 352.89 1554.45 352.7 1558.41 353.975C1562.31 355.234 1565.51 357.944 1567.45 362.806L1569.36 362.042ZM1315.82 288.388C1351.47 279.007 1407.22 277.713 1449.62 302.854C1470.79 315.407 1488.65 334.557 1499.05 362.638C1509.46 390.736 1512.43 427.843 1503.67 476.329L1505.69 476.694C1514.5 427.959 1511.55 390.46 1500.98 361.924C1490.41 333.372 1472.22 313.863 1450.67 301.086C1407.63 275.568 1351.26 276.936 1315.3 286.4L1315.82 288.388ZM1503.67 476.329C1496.55 515.74 1469.93 542.019 1435.44 555.791C1400.92 569.573 1358.56 570.798 1320.21 560.06C1281.86 549.321 1247.63 526.656 1229.23 492.787C1210.85 458.953 1208.17 413.752 1233.25 357.705L1231.37 356.865C1206.09 413.364 1208.67 459.253 1227.42 493.768C1246.15 528.249 1280.92 551.194 1319.65 562.039C1358.39 572.885 1401.21 571.669 1436.2 557.7C1471.21 543.721 1498.42 516.939 1505.69 476.694L1503.67 476.329ZM1233.17 357.851C1239.12 348.837 1250.43 334.51 1264.95 320.905C1279.48 307.293 1297.17 294.472 1315.88 288.371L1315.24 286.416C1296.13 292.649 1278.18 305.694 1263.55 319.405C1248.9 333.123 1237.49 347.575 1231.45 356.719L1233.17 357.851ZM1578.73 357.596C1589.39 391.188 1585.11 409.578 1575.5 420.233C1565.79 430.993 1550.4 434.214 1537.91 436.801L1538.32 438.814C1550.68 436.257 1566.79 432.955 1577.03 421.61C1587.36 410.159 1591.45 390.86 1580.69 356.974L1578.73 357.596ZM1537.91 436.801C1535.13 437.375 1532.5 437.921 1530.13 438.513L1530.62 440.507C1532.95 439.927 1535.54 439.39 1538.32 438.814L1537.91 436.801Z" fill="#16141F"/>
<path d="M1403.17 361.833L1438.33 337.087L1438.32 342.119L1418.41 330.146L1424.63 328.418L1418.59 338.455L1410.99 333.882L1418.8 320.887L1448.43 338.703L1445.1 344.249L1412.47 367.422L1403.17 361.833Z" fill="#16141F"/>
<path d="M1340.28 417.234L1336.65 423.347C1329.75 420.901 1313.22 432.225 1306.51 433.527C1299.8 434.83 1304.69 424.147 1296.95 425.65C1289.21 427.152 1290.17 418.313 1288.22 416.529C1286.27 414.745 1290.82 410.617 1290.11 406.969C1289.4 403.321 1284.66 403.701 1288.19 397.067C1291.72 390.433 1295.41 395.664 1298.51 392.357C1301.62 389.05 1308.39 399.093 1313.98 392.058C1319.57 385.023 1321.61 392.74 1325.41 395.786C1329.22 398.833 1330.58 392.079 1333.11 405.107C1335.13 415.53 1338.74 417.534 1340.28 417.234Z" fill="#E84355" stroke="#16141F" stroke-width="2.05563"/>
<path d="M1273.63 482.105C1274.13 484.634 1272.5 487.053 1270.04 487.532C1267.57 488.01 1265.16 486.375 1264.67 483.846C1264.18 481.318 1265.8 478.899 1268.27 478.42C1270.73 477.942 1273.14 479.577 1273.63 482.105Z" fill="#16141F" stroke="#16141F" stroke-width="2.05563"/>
<path d="M1370.81 536.746C1371.3 539.275 1369.68 541.694 1367.22 542.172C1364.75 542.65 1362.34 541.016 1361.85 538.487C1361.36 535.958 1362.98 533.539 1365.45 533.061C1367.91 532.583 1370.32 534.217 1370.81 536.746Z" fill="#16141F" stroke="#16141F" stroke-width="2.05563"/>
<path d="M1440.7 442.187C1441.2 444.716 1439.57 447.135 1437.11 447.613C1434.64 448.092 1432.23 446.457 1431.74 443.928C1431.25 441.4 1432.87 438.98 1435.34 438.502C1437.8 438.024 1440.21 439.659 1440.7 442.187Z" fill="#16141F" stroke="#16141F" stroke-width="2.05563"/>
<path d="M1343.57 361.696C1344.06 364.225 1342.43 366.644 1339.97 367.122C1337.51 367.601 1335.09 365.966 1334.6 363.437C1334.11 360.909 1335.74 358.489 1338.2 358.011C1340.67 357.533 1343.08 359.168 1343.57 361.696Z" fill="#16141F" stroke="#16141F" stroke-width="2.05563"/>
<path d="M1405.76 411.352C1406.25 413.881 1404.62 416.3 1402.16 416.779C1399.7 417.257 1397.28 415.622 1396.79 413.094C1396.3 410.565 1397.93 408.146 1400.39 407.667C1402.85 407.189 1405.27 408.824 1405.76 411.352Z" fill="#16141F" stroke="#16141F" stroke-width="2.05563"/>
</svg>
