<svg width="54" height="71" viewBox="0 0 54 71" fill="none" xmlns="http://www.w3.org/2000/svg">
<path d="M41.0001 3.95348V6.95139C41.0306 7.13454 41.8643 7.70754 42.0001 7.95069C41.8381 8.04822 41.1945 8.58971 41.0001 9.9493C40.7571 11.6488 43.7853 12.1625 45.0001 10.9486C45.9719 9.97747 45.6702 8.51719 45.0001 7.95069C45.1373 7.77219 44.9326 7.0862 45.0001 6.95139V3.95348C49.3732 3.95348 48.7008 16.7862 47.0001 19.9423C45.6396 22.4673 46.0001 34.6963 46.0001 40.9277C44.2508 42.87 41.9719 41.737 41.0001 40.9277C41.324 38.0952 41.1381 30.6248 39.0001 19.9423C36.8621 9.25987 39.2184 4.64136 41.0001 3.95348Z" fill="#FAF9F9"/>
<path d="M10.0001 3.95348V6.95139C10.0306 7.13454 9.86432 7.70754 10.0001 7.95069C9.83812 8.04822 10.1944 8.58971 10.0001 9.9493C9.75714 11.6488 12.7853 11.1632 14.0001 9.9493C14.9719 8.97816 13.6702 7.51788 13.0001 6.95139C13.1373 6.77288 13.9326 7.0862 14.0001 6.95139V3.95348C18.3732 3.95348 17.7008 15.7868 16.0001 18.943C14.6396 21.468 14.0001 34.6963 14.0001 40.9277C12.2508 42.87 9.9719 41.737 9.00009 40.9277C9.32402 38.0952 9.13807 29.6255 7.00009 18.943C4.86211 8.26057 8.21844 4.64136 10.0001 3.95348Z" fill="#FAF9F9"/>
<path d="M45.0001 0.955566V3.95348M41.0001 0.955566V3.95348M41.0001 3.95348V6.95139C41.0306 7.13454 41.8643 7.70754 42.0001 7.95069M41.0001 3.95348C39.2184 4.64136 36.8621 9.25987 39.0001 19.9423C41.1381 30.6248 41.324 38.0952 41.0001 40.9277C41.9719 41.737 44.2508 42.87 46.0001 40.9277C46.0001 34.6963 45.6396 22.4673 47.0001 19.9423C48.7008 16.7862 49.3732 3.95348 45.0001 3.95348M45.0001 3.95348V6.95139C44.9326 7.0862 45.1373 7.77219 45.0001 7.95069M45.0001 7.95069C44.6432 8.41509 43.7021 8.95 43.0001 8.95C42.3948 8.95 42.2243 8.35216 42.0001 7.95069M45.0001 7.95069C45.6702 8.51719 45.9719 9.97747 45.0001 10.9486C43.7853 12.1625 40.7571 11.6488 41.0001 9.9493C41.1945 8.58971 41.8381 8.04822 42.0001 7.95069M10.0001 3.95348V6.95139C10.0306 7.13454 9.86432 7.70754 10.0001 7.95069M10.0001 3.95348C8.21844 4.64136 4.86211 8.26057 7.00009 18.943C9.13807 29.6255 9.32402 38.0952 9.00009 40.9277C9.9719 41.737 12.2508 42.87 14.0001 40.9277C14.0001 34.6963 14.6396 21.468 16.0001 18.943C17.7008 15.7868 18.3732 3.95348 14.0001 3.95348M10.0001 3.95348V0.955566M14.0001 3.95348V6.95139C13.9326 7.0862 13.1373 6.77288 13.0001 6.95139M14.0001 3.95348V0.955566M13.0001 6.95139C12.6432 7.41579 12.7021 7.95069 12.0001 7.95069C11.3948 7.95069 10.2243 8.35216 10.0001 7.95069M13.0001 6.95139C13.6702 7.51788 14.9719 8.97816 14.0001 9.9493C12.7853 11.1632 9.75714 11.6488 10.0001 9.9493C10.1944 8.58971 9.83812 8.04822 10.0001 7.95069" stroke="#16141F"/>
<path d="M49.3329 69.7155L49.1876 69.9422H48.9184H45.5594H44.7281L45.1277 69.2132C46.2564 67.1545 47.0869 65.0624 47.6218 62.9365C48.1384 60.7892 48.3979 58.5067 48.3979 56.0875C48.3979 53.6679 48.1383 51.3949 47.6218 49.267C47.0868 47.1218 46.2562 45.0202 45.1277 42.9618L44.7281 42.2328H45.5594H48.9184H49.1844L49.3301 42.4552C50.4743 44.201 51.35 46.2505 51.9633 48.5965L51.9633 48.5965L51.964 48.5992C52.5586 50.9274 52.8544 53.4242 52.8544 56.0875C52.8544 58.7507 52.5586 61.2475 51.964 63.5757L51.964 63.5758L51.9628 63.5804C51.3493 65.8881 50.4742 67.9349 49.3329 69.7155Z" fill="#E84355" stroke="#16141F" stroke-width="0.984598"/>
<path d="M44.4742 69.7155L44.3289 69.9422H44.0597H40.7007H39.8694L40.2691 69.2132C41.3977 67.1545 42.2283 65.0624 42.7631 62.9365C43.2798 60.7892 43.5392 58.5067 43.5392 56.0875C43.5392 53.6679 43.2797 51.3949 42.7631 49.267C42.2282 47.1218 41.3976 45.0202 40.2691 42.9618L39.8694 42.2328H40.7007H44.0597H44.3257L44.4715 42.4552C45.6156 44.201 46.4913 46.2505 47.1047 48.5965L47.1047 48.5965L47.1054 48.5992C47.7 50.9274 47.9957 53.4242 47.9957 56.0875C47.9957 58.7507 47.7 61.2475 47.1054 63.5757L47.1054 63.5758L47.1042 63.5804C46.4907 65.8881 45.6155 67.9349 44.4742 69.7155Z" fill="#E84355" stroke="#16141F" stroke-width="0.984598"/>
<path d="M36.9272 42.4588L37.0724 42.2321L37.3416 42.2321L40.7006 42.2321L41.5319 42.2321L41.1323 42.9611C40.0036 45.0198 39.1731 47.1119 38.6382 49.2378C38.1216 51.3851 37.8622 53.6676 37.8622 56.0868C37.8622 58.5065 38.1217 60.7794 38.6382 62.9073C39.1732 65.0525 40.0038 67.1541 41.1323 69.2126L41.5319 69.9415L40.7006 69.9415L37.3416 69.9415L37.0757 69.9415L36.9299 69.7191C35.7858 67.9733 34.9101 65.9238 34.2967 63.5778L34.2967 63.5778L34.296 63.5751C33.7014 61.2469 33.4057 58.7501 33.4057 56.0868C33.4057 53.4236 33.7014 50.9268 34.296 48.5986L34.296 48.5986L34.2972 48.5939C34.9107 46.2862 35.7859 44.2394 36.9272 42.4588Z" fill="#E84355" stroke="#16141F" stroke-width="0.984598"/>
<path d="M42.2716 42.4588L42.4169 42.2321L42.6861 42.2321L46.0451 42.2321L46.8764 42.2321L46.4768 42.9611C45.3481 45.0198 44.5176 47.1119 43.9827 49.2378C43.4661 51.3851 43.2066 53.6676 43.2066 56.0868C43.2066 58.5065 43.4662 60.7794 43.9827 62.9073C44.5177 65.0525 45.3483 67.1541 46.4768 69.2126L46.8764 69.9415L46.0451 69.9415L42.6861 69.9415L42.4201 69.9415L42.2744 69.7191C41.1302 67.9733 40.2545 65.9238 39.6412 63.5778L39.6412 63.5778L39.6405 63.5751C39.0459 61.2469 38.7501 58.7501 38.7501 56.0868C38.7501 53.4236 39.0459 50.9268 39.6405 48.5986L39.6405 48.5986L39.6417 48.5939C40.2552 46.2862 41.1303 44.2394 42.2716 42.4588Z" fill="#E84355" stroke="#16141F" stroke-width="0.984598"/>
<path d="M12.0987 69.3998L12.1544 69.9424H11.609H8.55035H8.10596L8.06062 69.5003L7.40396 63.098H2.93723H2.44494V62.6057V58.942V58.4497H2.93723H6.9272L6.29315 52.2679H1.82806H1.33122L1.33578 51.7711L1.36939 48.1074L1.37387 47.6196H1.86167H5.81639L5.17004 41.3178L5.11439 40.7753H5.65977H8.71841H9.1628L9.20814 41.2173L9.8648 47.6196H14.5293L13.8755 41.3184L13.8191 40.7753H14.3651H17.4238H17.8676L17.9135 41.2168L18.5778 47.6196H23.0369H23.5292V48.1119V51.7756V52.2679H23.0369H19.0601L19.7015 58.4497H24.1797H24.672V58.942V62.6057V63.098H24.1797H20.1838L20.8376 69.3993L20.894 69.9424H20.348H17.2893H16.8455L16.7997 69.5009L16.1353 63.098H11.4524L12.0987 69.3998ZM15.653 58.4497L15.0116 52.2679H10.3416L10.9756 58.4497H15.653Z" fill="#16141F" stroke="#16141F" stroke-width="0.984598"/>
</svg>
