<svg width="1279" height="236" viewBox="0 0 1279 236" fill="none" xmlns="http://www.w3.org/2000/svg">
<path fill-rule="evenodd" clip-rule="evenodd" d="M1 18.2305L32.0148 125.059V234.35H47.2761V139.336L99.9521 143.209V234.35H114.229H130.475V144.259L172.812 129.49V234.35H188.566V114.721L120.136 106.844L91.583 1L1 18.2305ZM23.1535 36.9378L47.2761 122.106L101.429 103.398L84.6908 25.1227L23.1535 36.9378Z" fill="#FAF9F9"/>
<path d="M114.229 234.35V144.259L99.9521 143.209M114.229 234.35H130.475V144.259L172.812 129.49V234.35H188.566V114.721L120.136 106.844L91.583 1L1 18.2305L32.0148 125.059V234.35H47.2761V139.336L99.9521 143.209M114.229 234.35H99.9521V143.209M47.2761 122.106L23.1535 36.9378L84.6908 25.1227L101.429 103.398L47.2761 122.106Z" stroke="#16141F" stroke-width="0.984598"/>
<path fill-rule="evenodd" clip-rule="evenodd" d="M1278.02 19.2148L1247.01 126.044V235.334H1231.75V140.32L1179.07 144.194V235.334H1164.8H1148.55V145.243L1106.21 130.474V235.334H1090.46V115.705L1158.89 107.829L1187.44 1.98438L1278.02 19.2148ZM1255.87 37.9222L1231.75 123.09L1177.6 104.383L1194.33 26.107L1255.87 37.9222Z" fill="#FAF9F9"/>
<path d="M1164.8 235.334V145.243L1179.07 144.194M1164.8 235.334H1148.55V145.243L1106.21 130.474V235.334H1090.46V115.705L1158.89 107.829L1187.44 1.98438L1278.02 19.2148L1247.01 126.044V235.334H1231.75V140.32L1179.07 144.194M1164.8 235.334H1179.07V144.194M1231.75 123.09L1255.87 37.9222L1194.33 26.107L1177.6 104.383L1231.75 123.09Z" stroke="#16141F" stroke-width="0.984598"/>
<path fill-rule="evenodd" clip-rule="evenodd" d="M477.545 234.35V144.259L491.821 143.209V234.35H477.545Z" fill="#FAF9F9"/>
<path fill-rule="evenodd" clip-rule="evenodd" d="M590.773 18.2305L559.759 125.059V234.35H544.497V139.336L491.821 143.209L477.545 144.259V234.35H461.299V144.259L418.961 129.49V234.35H403.208V114.721L471.637 106.844L500.19 1L590.773 18.2305ZM568.62 36.9378L544.497 122.106L490.344 103.398L507.083 25.1227L568.62 36.9378Z" fill="#FAF9F9"/>
<path d="M477.545 234.35V144.259L491.821 143.209M477.545 234.35H461.299V144.259L418.961 129.49V234.35H403.207V114.721L471.637 106.844L500.19 1L590.773 18.2305L559.759 125.059V234.35H544.497V139.336L491.821 143.209M477.545 234.35H491.821V143.209M544.497 122.106L568.62 36.9378L507.083 25.1227L490.344 103.398L544.497 122.106Z" stroke="#16141F" stroke-width="0.984598"/>
<path d="M1143.63 88.1366V95.0287H1118.52V234.842H1102.77V115.213H926.031V234.842H906.339V110.782L892.062 97.4902V234.842H873.355V72.9224L860.063 64.0139V52.1987H1074.21L1143.63 88.1366Z" fill="#FAF9F9"/>
<path d="M873.355 72.9224L860.063 64.0139V52.1987H1074.21L1143.63 88.1366V95.0287H1118.52M873.355 72.9224L906.339 95.0287H1118.52M873.355 72.9224V234.842H892.062V97.4902L906.339 110.782V234.842H926.031V115.213H1102.77V234.842H1118.52V95.0287" stroke="#16141F" stroke-width="0.984598"/>
<path fill-rule="evenodd" clip-rule="evenodd" d="M388.933 24.1377H230.905L203.828 63.0293H432.747V62.537L388.933 24.1377ZM203.828 72.383V233.857H223.52H226.966V96.5057H401.24V233.857H414.532H432.747V72.383H203.828Z" fill="#FAF9F9"/>
<path d="M432.747 63.0293H203.828V72.383H432.747V63.0293Z" fill="#FAF9F9"/>
<path d="M414.532 233.857H432.747V72.383M414.532 233.857V96.5057H401.24M414.532 233.857H401.24V96.5057M223.52 233.857V96.5057H226.966M223.52 233.857H203.828V72.383M223.52 233.857H226.966V96.5057M203.828 63.0293L230.905 24.1377H388.933L432.747 62.537V63.0293M203.828 63.0293H432.747M203.828 63.0293V72.383M432.747 63.0293V72.383M432.747 72.383H203.828M226.966 96.5057H401.24" stroke="#16141F" stroke-width="0.984598"/>
</svg>
