<svg width="325" height="174" viewBox="0 0 325 174" fill="none" xmlns="http://www.w3.org/2000/svg">
<path d="M190.532 46.8368L189.1 15.6045L193.181 14.8985L194.613 46.1308L190.532 46.8368ZM172.478 42.3155L171.79 38.342L200.129 33.4387L200.817 37.4122L172.478 42.3155ZM178.874 48.8539L177.487 17.6139L181.567 16.9079L182.955 48.1479L178.874 48.8539ZM171.97 30.306L171.283 26.3325L199.532 21.4448L200.264 25.4105L171.97 30.306Z" fill="#16141F"/>
<path d="M16.1492 132.7V126.994C-4.33708 119.387 0.934348 12.8833 5.68897 12.8833C9.49267 12.8833 17.417 88.9573 20.9038 126.994H109.34V132.7H88.4195L96.3043 173H89.6478L81.763 132.7H37.0695L27.8706 173H20.8509L31.364 132.7H16.1492Z" fill="#FAF9F9" stroke="#16141F" stroke-width="0.984598"/>
<path d="M262.097 132.716H306.79L315.985 173H323.004L312.496 132.716H324V115.888C323.62 119.848 323.27 123.584 322.956 127.011H234.52V132.716H255.44L247.559 173H254.215L262.097 132.716Z" fill="#FAF9F9" stroke="#16141F" stroke-width="0.984598"/>
<path d="M200.286 50.9359H171.758H167.004V59.4942H204.09V50.9359H200.286Z" fill="#16141F"/>
<path d="M200.286 50.9359V1.48779H171.758V50.9359M200.286 50.9359H171.758M200.286 50.9359H204.09M171.758 50.9359H167.004M167.004 50.9359V59.4942H204.09V50.9359M167.004 50.9359H204.09" stroke="#16141F" stroke-width="0.984598"/>
<path d="M71.9111 72.8078V60.4458H299.182V72.8078H190.777V173H176.513V72.8078H71.9111Z" fill="#FAF9F9"/>
<path d="M176.513 72.8078H71.9111V60.4458H299.182V72.8078H190.777M176.513 72.8078H190.777M176.513 72.8078V173H190.777V72.8078" stroke="#16141F" stroke-width="0.984598"/>
<path fill-rule="evenodd" clip-rule="evenodd" d="M244.029 44.2803C244.663 49.6688 247.072 60.446 251.636 60.446C252.402 60.446 253.254 60.4631 254.157 60.4813C259.979 60.5985 267.93 60.7585 268.753 56.6423C271.923 57.9102 278.262 58.354 278.262 49.9858C278.262 48.084 276.931 45.041 271.606 48.084L272.557 44.2803H244.029ZM270.655 54.7405L271.606 50.9368C273.507 49.0349 275.409 49.0349 275.409 51.8877C275.409 54.1699 272.24 54.7405 270.655 54.7405Z" fill="#E84355" stroke="#16141F" stroke-width="0.984598"/>
<path fill-rule="evenodd" clip-rule="evenodd" d="M92.8318 31.9185H117.556C118.19 40.7938 117.746 58.7345 110.899 59.4953C102.341 60.4462 92.8318 61.3971 92.8318 50.937C89.345 53.1558 82.3716 55.6916 82.3716 48.0842C82.3716 40.4768 88.7111 39.8428 91.8808 40.4768L92.8318 31.9185ZM91.8808 48.0842V44.2805C88.0771 42.3786 86.1753 45.2314 86.1753 48.0842C86.1753 50.3664 89.979 49.0351 91.8808 48.0842Z" fill="#FAF9F9" stroke="#16141F" stroke-width="0.984598"/>
<path d="M264.697 50.9517L250.77 50.9517L250.77 52.2518L264.697 52.2518L264.697 50.9517ZM263.067 51.4432C263.067 50.5765 262.953 49.7468 262.726 48.9541C262.489 48.1613 262.188 47.5324 261.822 47.0674L260.326 47.7808C260.652 48.2248 260.923 48.7744 261.141 49.4297C261.358 50.085 261.467 50.7562 261.467 51.4432C261.467 52.0245 261.407 52.4949 261.289 52.8542C261.17 53.2136 261.012 53.4779 260.815 53.647C260.607 53.8161 260.375 53.9006 260.118 53.9006C259.802 53.9006 259.55 53.7791 259.363 53.536C259.165 53.2929 259.012 52.9758 258.903 52.5847C258.785 52.2042 258.676 51.7761 258.578 51.3005C258.479 50.8355 258.365 50.3651 258.237 49.8895C258.098 49.4244 257.926 48.9963 257.718 48.6053C257.501 48.2248 257.214 47.913 256.859 47.6699C256.503 47.4268 256.049 47.3052 255.496 47.3052C254.933 47.3052 254.419 47.4637 253.955 47.7808C253.481 48.1085 253.106 48.6 252.829 49.2553C252.543 49.9212 252.399 50.7615 252.399 51.7761C252.399 52.442 252.478 53.1026 252.636 53.7579C252.794 54.4133 253.022 54.984 253.318 55.4702L254.814 54.8202C254.538 54.3234 254.335 53.8108 254.207 53.2823C254.069 52.7538 253.999 52.2465 253.999 51.7603C253.999 51.1895 254.064 50.7245 254.192 50.3651C254.32 50.0163 254.488 49.7574 254.696 49.5882C254.903 49.4297 255.14 49.3504 255.407 49.3504C255.723 49.3504 255.98 49.4667 256.177 49.6992C256.365 49.9423 256.513 50.2541 256.622 50.6346C256.73 51.0257 256.839 51.4591 256.948 51.9347C257.047 52.4103 257.16 52.8807 257.289 53.3457C257.417 53.8214 257.585 54.2494 257.792 54.6299C258 55.021 258.281 55.3328 258.637 55.5654C258.992 55.8085 259.442 55.93 259.985 55.93C260.538 55.93 261.052 55.7662 261.526 55.4385C261.99 55.1214 262.365 54.6299 262.652 53.9641C262.928 53.2982 263.067 52.4579 263.067 51.4432Z" fill="#16141F"/>
<path d="M106.279 36.964C107.517 36.964 108.628 37.1612 109.612 37.5556C110.595 37.9501 111.367 38.4924 111.927 39.1827C112.486 39.873 112.766 40.6701 112.766 41.574C112.766 42.3958 112.58 43.1353 112.206 43.7927C111.833 44.4501 111.24 45.0747 110.426 45.6663C109.612 46.2744 108.569 46.8825 107.297 47.4906C106.296 47.9673 105.516 48.3863 104.956 48.7479C104.38 49.1095 103.981 49.4546 103.761 49.7833C103.523 50.112 103.404 50.4572 103.404 50.8187C103.404 51.3118 103.583 51.7062 103.939 52.0021C104.295 52.3143 104.804 52.4705 105.465 52.4705C106.177 52.4705 106.737 52.2979 107.144 51.9528C107.534 51.6241 107.729 51.1885 107.729 50.6462C107.729 50.3668 107.678 50.0956 107.577 49.8326C107.458 49.5697 107.254 49.2738 106.966 48.9451C106.678 48.6164 106.262 48.1973 105.719 47.6879L96.307 38.9362L98.0623 36.9393L108.238 46.4059C108.815 46.9483 109.281 47.4495 109.637 47.9097C109.993 48.3699 110.248 48.8137 110.4 49.241C110.553 49.6847 110.629 50.1367 110.629 50.5969C110.629 51.4022 110.417 52.1089 109.993 52.717C109.569 53.3415 108.967 53.8181 108.187 54.1468C107.407 54.492 106.5 54.6646 105.465 54.6646C104.498 54.6646 103.667 54.5084 102.972 54.1962C102.26 53.9003 101.709 53.4648 101.318 52.8896C100.911 52.3308 100.708 51.6569 100.708 50.868C100.708 50.1778 100.886 49.5368 101.242 48.9451C101.598 48.3699 102.158 47.8193 102.921 47.2934C103.667 46.7675 104.668 46.2169 105.923 45.6417C106.856 45.1979 107.593 44.7788 108.136 44.3844C108.679 43.99 109.069 43.5955 109.306 43.2011C109.544 42.8066 109.663 42.3711 109.663 41.8945C109.663 41.4179 109.518 40.9988 109.23 40.6372C108.925 40.2756 108.501 39.988 107.958 39.7744C107.415 39.5771 106.779 39.4785 106.05 39.4785C104.965 39.4785 103.981 39.7086 103.099 40.1688C102.2 40.6454 101.446 41.3521 100.835 42.2889C100.225 43.2257 99.7836 44.3844 99.5123 45.7649L96.9429 44.9514C97.2991 43.2915 97.9181 41.8616 98.8 40.6619C99.6649 39.4785 100.733 38.5664 102.005 37.9254C103.277 37.2844 104.702 36.964 106.279 36.964Z" fill="#16141F"/>
<path d="M122.543 57.6921C122.536 57.6847 122.505 57.6514 122.451 57.5922C122.403 57.5405 122.355 57.4887 122.307 57.4369C122.265 57.3925 122.238 57.3629 122.224 57.3481C121.08 56.0842 120.447 54.8689 120.326 53.702C120.212 52.5284 120.638 51.4932 121.606 50.5963C122.566 49.7062 123.62 49.3691 124.767 49.5852C125.914 49.8012 127.085 50.5388 128.279 51.7979C128.292 51.8127 128.32 51.8423 128.361 51.8866C128.409 51.9384 128.454 51.9865 128.495 52.0309C128.543 52.0827 128.57 52.1123 128.577 52.1197C129.763 53.3997 130.428 54.6342 130.57 55.8232C130.726 57.013 130.32 58.0562 129.352 58.9531C128.377 59.8567 127.295 60.1925 126.106 59.9603C124.924 59.7356 123.736 58.9795 122.543 57.6921ZM123.637 56.5958C124.22 57.2247 124.769 57.6785 125.284 57.9573C125.807 58.2294 126.299 58.3372 126.761 58.2807C127.23 58.2174 127.675 57.9903 128.097 57.5992C128.512 57.2148 128.761 56.798 128.845 56.3487C128.936 55.8927 128.859 55.4005 128.613 54.8722C128.374 54.3372 127.963 53.7552 127.38 53.1263C127.366 53.1115 127.332 53.0745 127.277 53.0153C127.229 52.9635 127.198 52.9302 127.184 52.9154C126.615 52.3013 126.076 51.8657 125.567 51.6084C125.065 51.3444 124.591 51.241 124.143 51.2981C123.703 51.3626 123.279 51.5837 122.871 51.9614C122.457 52.3457 122.197 52.7585 122.092 53.1997C121.994 53.6484 122.054 54.1362 122.272 54.6632C122.496 55.1976 122.886 55.7715 123.441 56.3849C123.455 56.3997 123.486 56.433 123.534 56.4848C123.589 56.544 123.623 56.581 123.637 56.5958ZM119.826 58.7875L130.039 49.3198L131.253 50.6294L121.039 60.0971L119.826 58.7875Z" fill="#16141F"/>
<path d="M238.038 56.6185C238.034 56.6278 238.016 56.6694 237.983 56.7434C237.955 56.8082 237.927 56.873 237.899 56.9377C237.875 56.9933 237.859 57.0303 237.851 57.0488C237.153 58.6047 236.295 59.6727 235.275 60.2527C234.246 60.8288 233.127 60.854 231.917 60.3285C230.716 59.8069 229.984 58.9775 229.721 57.8404C229.457 56.7032 229.662 55.3349 230.335 53.7354C230.343 53.7169 230.359 53.6799 230.384 53.6243C230.412 53.5596 230.438 53.4994 230.462 53.4439C230.49 53.3791 230.506 53.3421 230.51 53.3329C231.205 51.732 232.069 50.6277 233.101 50.0199C234.127 49.399 235.246 49.3512 236.456 49.8768C237.675 50.4063 238.417 51.262 238.683 52.4441C238.952 53.617 238.737 55.0084 238.038 56.6185ZM236.594 56.0576C236.936 55.2711 237.131 54.5858 237.179 54.0018C237.218 53.4138 237.119 52.9198 236.882 52.5198C236.635 52.1159 236.248 51.7993 235.72 51.5701C235.202 51.3449 234.72 51.2841 234.275 51.3878C233.821 51.4875 233.401 51.7562 233.016 52.194C232.622 52.6279 232.255 53.2381 231.913 54.0246C231.905 54.0431 231.885 54.0894 231.853 54.1634C231.825 54.2282 231.807 54.2698 231.798 54.2883C231.465 55.0564 231.283 55.7251 231.252 56.2946C231.212 56.8601 231.308 57.3362 231.54 57.723C231.776 58.1005 232.149 58.4 232.658 58.6212C233.177 58.8465 233.659 58.9185 234.105 58.8373C234.556 58.7469 234.978 58.496 235.373 58.0846C235.772 57.6639 236.141 57.0762 236.48 56.3213C236.488 56.3028 236.506 56.2612 236.534 56.1964C236.566 56.1224 236.586 56.0761 236.594 56.0576ZM240.133 58.6668L227.359 53.1191L228.07 51.4812L240.844 57.029L240.133 58.6668Z" fill="#16141F"/>
</svg>
