<svg width="89" height="89" viewBox="0 0 89 89" fill="none" xmlns="http://www.w3.org/2000/svg">
<rect x="0.5" y="0.5" width="88" height="88" fill="#E84355" stroke="black"/>
<path d="M24.3961 62V27H31.0961L45.9961 51.7H42.4461L57.0961 27H63.7461L63.8461 62H56.2461L56.1961 38.65H57.5961L45.8961 58.3H42.2461L30.2961 38.65H31.9961V62H24.3961Z" fill="white"/>
<path d="M24.3961 62H23.3961V63H24.3961V62ZM24.3961 27V26H23.3961V27H24.3961ZM31.0961 27L31.9524 26.4835L31.6607 26H31.0961V27ZM45.9961 51.7V52.7H47.7672L46.8524 51.1835L45.9961 51.7ZM42.4461 51.7L41.586 51.1899L40.6903 52.7H42.4461V51.7ZM57.0961 27V26H56.5265L56.236 26.4899L57.0961 27ZM63.7461 27L64.7461 26.9971L64.7432 26H63.7461V27ZM63.8461 62V63H64.849L64.8461 61.9971L63.8461 62ZM56.2461 62L55.2461 62.0021L55.2482 63H56.2461V62ZM56.1961 38.65V37.65H55.194L55.1961 38.6521L56.1961 38.65ZM57.5961 38.65L58.4553 39.1616L59.3554 37.65H57.5961V38.65ZM45.8961 58.3V59.3H46.4645L46.7553 58.8116L45.8961 58.3ZM42.2461 58.3L41.3917 58.8196L41.6838 59.3H42.2461V58.3ZM30.2961 38.65V37.65H28.5176L29.4417 39.1696L30.2961 38.65ZM31.9961 38.65H32.9961V37.65H31.9961V38.65ZM31.9961 62V63H32.9961V62H31.9961ZM25.3961 62V27H23.3961V62H25.3961ZM24.3961 28H31.0961V26H24.3961V28ZM30.2398 27.5165L45.1398 52.2165L46.8524 51.1835L31.9524 26.4835L30.2398 27.5165ZM45.9961 50.7H42.4461V52.7H45.9961V50.7ZM43.3062 52.2101L57.9562 27.5101L56.236 26.4899L41.586 51.1899L43.3062 52.2101ZM57.0961 28H63.7461V26H57.0961V28ZM62.7461 27.0029L62.8461 62.0029L64.8461 61.9971L64.7461 26.9971L62.7461 27.0029ZM63.8461 61H56.2461V63H63.8461V61ZM57.2461 61.9979L57.1961 38.6479L55.1961 38.6521L55.2461 62.0021L57.2461 61.9979ZM56.1961 39.65H57.5961V37.65H56.1961V39.65ZM56.7369 38.1384L45.0369 57.7884L46.7553 58.8116L58.4553 39.1616L56.7369 38.1384ZM45.8961 57.3H42.2461V59.3H45.8961V57.3ZM43.1005 57.7804L31.1505 38.1304L29.4417 39.1696L41.3917 58.8196L43.1005 57.7804ZM30.2961 39.65H31.9961V37.65H30.2961V39.65ZM30.9961 38.65V62H32.9961V38.65H30.9961ZM31.9961 61H24.3961V63H31.9961V61Z" fill="black"/>
</svg>
